<svg width="510" height="245" viewBox="0 0 510 245" fill="none" xmlns="http://www.w3.org/2000/svg">
<rect x="237.877" y="10.0703" width="35.2456" height="29.4912" fill="#898890"/>
<rect x="267.368" y="19.4209" width="8.63158" height="10.7895" fill="#898890"/>
<rect x="235" y="19.4209" width="8.63158" height="10.7895" fill="#898890"/>
<circle cx="248.667" cy="23.0174" r="2.87719" stroke="#E5E5E5" stroke-width="1.4386"/>
<circle cx="255.86" cy="2.87719" r="2.87719" fill="#898890"/>
<circle cx="262.334" cy="23.0174" r="2.87719" stroke="#E5E5E5" stroke-width="1.4386"/>
<rect x="253.702" y="29.4912" width="4.31579" height="2.87719" fill="#E5E5E5"/>
<rect x="255.141" y="4.31592" width="1.4386" height="5.75439" fill="#898890"/>
<path d="M72.4958 31.5012C76.5366 31.5012 79.824 28.2487 79.824 24.2508C79.8244 20.2529 76.5366 17 72.4958 17C68.455 17 65.1671 20.2529 65.1671 24.2504C65.1671 28.2487 68.455 31.5012 72.4958 31.5012Z" fill="#898890"/>
<path d="M85.9912 46.4986C85.9453 39.1749 79.9091 33.2307 72.4958 33.2307C65.0543 33.2307 59 39.2207 59 46.5832C59 46.8136 59.1887 46.9998 59.4211 46.9998H85.5704C85.5738 47.0002 85.5772 46.9998 85.5789 46.9998C85.8118 46.9998 86 46.8136 86 46.5832C86 46.5544 85.9971 46.5257 85.9912 46.4986Z" fill="#898890"/>
<path d="M438.496 31.5012C442.537 31.5012 445.824 28.2487 445.824 24.2508C445.824 20.2529 442.537 17 438.496 17C434.455 17 431.167 20.2529 431.167 24.2504C431.167 28.2487 434.455 31.5012 438.496 31.5012Z" fill="#898890"/>
<path d="M451.991 46.4986C451.945 39.1749 445.909 33.2307 438.496 33.2307C431.054 33.2307 425 39.2207 425 46.5832C425 46.8136 425.189 46.9998 425.421 46.9998H451.57C451.574 47.0002 451.579 46.9998 451.579 46.9998C451.812 46.9998 452 46.8136 452 46.5832C452 46.5544 451.997 46.5256 451.991 46.4986Z" fill="#898890"/>
<path d="M288 90L413 90" stroke="#898890" stroke-width="2" stroke-linecap="round" stroke-dasharray="5 15"/>
<line x1="97" y1="90" x2="222" y2="90" stroke="#898890" stroke-width="2" stroke-linecap="round" stroke-dasharray="5 15"/>
<path d="M94.0833 73.9474H57.6667H55.75C54.6939 73.9474 53.8333 73.0868 53.8333 72.0308C53.8333 70.9747 54.6939 70.1141 55.75 70.1141H84.5V72.0308H88.3333V68.1974C88.3333 67.1394 87.4747 66.2808 86.4167 66.2808H55.75C52.5741 66.2808 50 68.8548 50 72.0308V104.614C50 108.848 53.4327 112.281 57.6667 112.281H94.0833C95.1413 112.281 96 111.422 96 110.364V75.8641C96 74.8061 95.1413 73.9474 94.0833 73.9474ZM84.5 96.9474C82.3821 96.9474 80.6667 95.232 80.6667 93.1141C80.6667 90.9962 82.3821 89.2808 84.5 89.2808C86.6179 89.2808 88.3333 90.9962 88.3333 93.1141C88.3333 95.232 86.6179 96.9474 84.5 96.9474Z" fill="#898890"/>
<path d="M459.083 73.9474H422.667H420.75C419.694 73.9474 418.833 73.0868 418.833 72.0308C418.833 70.9747 419.694 70.1141 420.75 70.1141H449.5V72.0308H453.333V68.1974C453.333 67.1394 452.475 66.2808 451.417 66.2808H420.75C417.574 66.2808 415 68.8548 415 72.0308V104.614C415 108.848 418.433 112.281 422.667 112.281H459.083C460.141 112.281 461 111.422 461 110.364V75.8641C461 74.8061 460.141 73.9474 459.083 73.9474ZM449.5 96.9474C447.382 96.9474 445.667 95.232 445.667 93.1141C445.667 90.9962 447.382 89.2808 449.5 89.2808C451.618 89.2808 453.333 90.9962 453.333 93.1141C453.333 95.232 451.618 96.9474 449.5 96.9474Z" fill="#898890"/>
<rect x="224.5" y="60.7808" width="62" height="62" stroke="#898890" stroke-width="3"/>
<path d="M244.383 97.5615L247.48 94.3489L243.629 89.1399L238.726 82.1857C236.993 85.1489 236 88.5982 236 92.2807C236 98.3812 238.726 103.843 243.024 107.511L249.248 103.102C247.131 101.78 245.426 99.8556 244.383 97.5615Z" fill="#898890"/>
<path d="M250.686 80.6825L253.891 83.7875L259.088 79.9274L266.026 75.0126C263.07 73.2763 259.628 72.2808 255.954 72.2808C249.868 72.2808 244.418 75.0126 240.759 79.3211L245.157 85.5597C246.476 83.4377 248.397 81.7283 250.686 80.6825Z" fill="#898890"/>
<path d="M264.428 90.2126L268.279 95.4216L273.183 102.376C274.915 99.4126 275.908 95.9633 275.908 92.2807C275.908 86.1803 273.183 80.7184 268.884 77.0503L262.66 81.4592C264.777 82.7812 266.482 84.7059 267.526 87L264.428 90.2126Z" fill="#898890"/>
<path d="M271.15 105.24L266.751 99.0018C265.432 101.124 263.512 102.833 261.223 103.879L258.018 100.774L252.821 104.634L245.882 109.549C248.839 111.285 252.28 112.281 255.954 112.281C262.041 112.281 267.49 109.549 271.15 105.24Z" fill="#898890"/>
<path d="M378.12 173.051H384.465V174.281H376.77V163.571H384.225V164.801H378.12V168.116H383.04V169.346H378.12V173.051ZM391.475 174.281L389.6 171.116H389.06L387.14 174.281H385.745L388.1 170.411L385.985 166.721H387.335L389.075 169.721H389.615L391.385 166.721H392.72L390.575 170.366L392.915 174.281H391.475ZM396.452 166.721H398.357V167.831H396.452V171.986C396.452 172.386 396.552 172.681 396.752 172.871C396.962 173.051 397.312 173.141 397.802 173.141H398.357V174.281H397.772C396.912 174.281 396.262 174.121 395.822 173.801C395.392 173.481 395.177 172.936 395.177 172.166V167.831H393.872V166.721H395.177V164.441H396.452V166.721ZM406.891 170.051V170.486H401.131C401.151 171.396 401.366 172.106 401.776 172.616C402.186 173.116 402.776 173.366 403.546 173.366C404.586 173.366 405.226 172.976 405.466 172.196H406.756C406.626 172.876 406.281 173.426 405.721 173.846C405.171 174.266 404.446 174.476 403.546 174.476C402.396 174.476 401.496 174.101 400.846 173.351C400.196 172.601 399.871 171.626 399.871 170.426C399.871 169.246 400.196 168.301 400.846 167.591C401.496 166.881 402.386 166.526 403.516 166.526C404.586 166.526 405.411 166.866 405.991 167.546C406.571 168.216 406.871 169.051 406.891 170.051ZM403.486 167.636C402.836 167.636 402.316 167.806 401.926 168.146C401.536 168.476 401.296 168.901 401.206 169.421H405.571C405.531 168.911 405.326 168.486 404.956 168.146C404.586 167.806 404.096 167.636 403.486 167.636ZM413.196 166.721V167.921H412.566C411.806 167.921 411.211 168.146 410.781 168.596C410.361 169.046 410.151 169.681 410.151 170.501V174.281H408.876V166.721H410.106V167.621H410.436C410.916 167.021 411.646 166.721 412.626 166.721H413.196ZM421.588 174.281H420.313V169.751C420.313 168.361 419.673 167.666 418.393 167.666C417.733 167.666 417.193 167.916 416.773 168.416C416.353 168.906 416.143 169.496 416.143 170.186V174.281H414.868V166.721H416.098V167.531H416.428C416.648 167.231 416.958 166.991 417.358 166.811C417.758 166.621 418.208 166.526 418.708 166.526C419.628 166.526 420.338 166.791 420.838 167.321C421.338 167.841 421.588 168.561 421.588 169.481V174.281ZM428.735 174.281V173.486H428.405C427.885 174.146 427.1 174.476 426.05 174.476C425.22 174.476 424.56 174.236 424.07 173.756C423.58 173.276 423.335 172.696 423.335 172.016C423.335 171.326 423.575 170.736 424.055 170.246C424.535 169.756 425.26 169.511 426.23 169.511H428.69V169.211C428.69 168.731 428.54 168.351 428.24 168.071C427.94 167.781 427.475 167.636 426.845 167.636C425.745 167.636 425.16 168.001 425.09 168.731H423.815C423.865 168.041 424.16 167.501 424.7 167.111C425.25 166.721 425.955 166.526 426.815 166.526C427.785 166.526 428.545 166.751 429.095 167.201C429.655 167.651 429.935 168.296 429.935 169.136V174.281H428.735ZM426.365 173.366C426.995 173.366 427.54 173.161 428 172.751C428.46 172.331 428.69 171.821 428.69 171.221V170.531H426.425C425.215 170.531 424.61 171.011 424.61 171.971C424.61 172.401 424.76 172.741 425.06 172.991C425.37 173.241 425.805 173.366 426.365 173.366ZM432.27 163.376H433.545V174.281H432.27V163.376ZM436.005 163.376H437.28V174.281H436.005V163.376ZM441.781 177.281H440.491L442.051 173.576L438.826 166.721H440.191L442.501 171.701H442.876L444.976 166.721H446.311L441.781 177.281ZM456.577 163.376C458.147 163.376 459.372 163.901 460.252 164.951C461.132 166.001 461.572 167.326 461.572 168.926C461.572 170.526 461.132 171.851 460.252 172.901C459.372 173.951 458.147 174.476 456.577 174.476C454.997 174.476 453.767 173.956 452.887 172.916C452.017 171.866 451.582 170.536 451.582 168.926C451.582 167.316 452.017 165.991 452.887 164.951C453.767 163.901 454.997 163.376 456.577 163.376ZM453.862 172.001C454.472 172.831 455.377 173.246 456.577 173.246C457.777 173.246 458.682 172.831 459.292 172.001C459.902 171.171 460.207 170.146 460.207 168.926C460.207 167.706 459.902 166.681 459.292 165.851C458.682 165.021 457.777 164.606 456.577 164.606C455.377 164.606 454.472 165.021 453.862 165.851C453.252 166.681 452.947 167.706 452.947 168.926C452.947 170.146 453.252 171.171 453.862 172.001ZM466.812 169.196H468.432L469.692 172.931H470.022L470.892 166.721H472.122L471.027 174.281H469.077L467.757 170.456H467.442L466.122 174.281H464.142L463.062 166.721H464.292L465.192 172.931H465.522L466.812 169.196ZM480.723 174.281H479.448V169.751C479.448 168.361 478.808 167.666 477.528 167.666C476.868 167.666 476.328 167.916 475.908 168.416C475.488 168.906 475.278 169.496 475.278 170.186V174.281H474.003V166.721H475.233V167.531H475.563C475.783 167.231 476.093 166.991 476.493 166.811C476.893 166.621 477.343 166.526 477.843 166.526C478.763 166.526 479.473 166.791 479.973 167.321C480.473 167.841 480.723 168.561 480.723 169.481V174.281ZM489.611 170.051V170.486H483.851C483.871 171.396 484.086 172.106 484.496 172.616C484.906 173.116 485.496 173.366 486.266 173.366C487.306 173.366 487.946 172.976 488.186 172.196H489.476C489.346 172.876 489.001 173.426 488.441 173.846C487.891 174.266 487.166 174.476 486.266 174.476C485.116 174.476 484.216 174.101 483.566 173.351C482.916 172.601 482.591 171.626 482.591 170.426C482.591 169.246 482.916 168.301 483.566 167.591C484.216 166.881 485.106 166.526 486.236 166.526C487.306 166.526 488.131 166.866 488.711 167.546C489.291 168.216 489.591 169.051 489.611 170.051ZM486.206 167.636C485.556 167.636 485.036 167.806 484.646 168.146C484.256 168.476 484.016 168.901 483.926 169.421H488.291C488.251 168.911 488.046 168.486 487.676 168.146C487.306 167.806 486.816 167.636 486.206 167.636ZM497.086 163.376H498.361V174.281H497.131V173.471H496.801C496.261 174.141 495.476 174.476 494.446 174.476C493.426 174.476 492.616 174.101 492.016 173.351C491.426 172.601 491.131 171.651 491.131 170.501C491.131 169.331 491.426 168.376 492.016 167.636C492.616 166.896 493.426 166.526 494.446 166.526C495.466 166.526 496.236 166.861 496.756 167.531H497.086V163.376ZM494.731 173.366C495.521 173.366 496.111 173.091 496.501 172.541C496.901 171.991 497.101 171.311 497.101 170.501C497.101 169.691 496.901 169.011 496.501 168.461C496.111 167.911 495.521 167.636 494.731 167.636C493.991 167.636 493.416 167.901 493.006 168.431C492.606 168.951 492.406 169.641 492.406 170.501C492.406 171.361 492.606 172.056 493.006 172.586C493.416 173.106 493.991 173.366 494.731 173.366ZM416.241 196.281L415.131 192.996H410.436L409.326 196.281H407.946L411.651 185.571H413.931L417.651 196.281H416.241ZM412.476 186.951L410.841 191.766H414.711L413.076 186.951H412.476ZM424.289 194.001H425.564C425.414 194.761 425.059 195.366 424.499 195.816C423.949 196.256 423.244 196.476 422.384 196.476C421.244 196.476 420.344 196.106 419.684 195.366C419.034 194.616 418.709 193.661 418.709 192.501C418.709 191.331 419.034 190.376 419.684 189.636C420.334 188.896 421.234 188.526 422.384 188.526C423.254 188.526 423.959 188.746 424.499 189.186C425.049 189.616 425.389 190.191 425.519 190.911H424.244C423.974 190.061 423.354 189.636 422.384 189.636C421.574 189.636 420.969 189.906 420.569 190.446C420.179 190.976 419.984 191.651 419.984 192.471C419.984 193.301 420.184 193.991 420.584 194.541C420.984 195.091 421.584 195.366 422.384 195.366C423.444 195.366 424.079 194.911 424.289 194.001ZM432.58 194.001H433.855C433.705 194.761 433.35 195.366 432.79 195.816C432.24 196.256 431.535 196.476 430.675 196.476C429.535 196.476 428.635 196.106 427.975 195.366C427.325 194.616 427 193.661 427 192.501C427 191.331 427.325 190.376 427.975 189.636C428.625 188.896 429.525 188.526 430.675 188.526C431.545 188.526 432.25 188.746 432.79 189.186C433.34 189.616 433.68 190.191 433.81 190.911H432.535C432.265 190.061 431.645 189.636 430.675 189.636C429.865 189.636 429.26 189.906 428.86 190.446C428.47 190.976 428.275 191.651 428.275 192.471C428.275 193.301 428.475 193.991 428.875 194.541C429.275 195.091 429.875 195.366 430.675 195.366C431.735 195.366 432.37 194.911 432.58 194.001ZM436.281 189.651C436.951 188.901 437.861 188.526 439.011 188.526C440.161 188.526 441.066 188.901 441.726 189.651C442.396 190.401 442.731 191.351 442.731 192.501C442.731 193.651 442.396 194.601 441.726 195.351C441.066 196.101 440.161 196.476 439.011 196.476C437.861 196.476 436.951 196.101 436.281 195.351C435.621 194.601 435.291 193.651 435.291 192.501C435.291 191.351 435.621 190.401 436.281 189.651ZM437.196 194.541C437.616 195.091 438.221 195.366 439.011 195.366C439.801 195.366 440.406 195.091 440.826 194.541C441.246 193.981 441.456 193.301 441.456 192.501C441.456 191.701 441.246 191.026 440.826 190.476C440.406 189.916 439.801 189.636 439.011 189.636C438.221 189.636 437.616 189.916 437.196 190.476C436.776 191.026 436.566 191.701 436.566 192.501C436.566 193.301 436.776 193.981 437.196 194.541ZM444.601 188.721H445.876V193.251C445.876 194.641 446.516 195.336 447.796 195.336C448.446 195.336 448.981 195.091 449.401 194.601C449.831 194.111 450.046 193.516 450.046 192.816V188.721H451.321V196.281H450.091V195.471H449.761C449.541 195.771 449.231 196.016 448.831 196.206C448.431 196.386 447.981 196.476 447.481 196.476C446.561 196.476 445.851 196.216 445.351 195.696C444.851 195.166 444.601 194.441 444.601 193.521V188.721ZM460.494 196.281H459.219V191.751C459.219 190.361 458.579 189.666 457.299 189.666C456.639 189.666 456.099 189.916 455.679 190.416C455.259 190.906 455.049 191.496 455.049 192.186V196.281H453.774V188.721H455.004V189.531H455.334C455.554 189.231 455.864 188.991 456.264 188.811C456.664 188.621 457.114 188.526 457.614 188.526C458.534 188.526 459.244 188.791 459.744 189.321C460.244 189.841 460.494 190.561 460.494 191.481V196.281ZM464.582 188.721H466.487V189.831H464.582V193.986C464.582 194.386 464.682 194.681 464.882 194.871C465.092 195.051 465.442 195.141 465.932 195.141H466.487V196.281H465.902C465.042 196.281 464.392 196.121 463.952 195.801C463.522 195.481 463.307 194.936 463.307 194.166V189.831H462.002V188.721H463.307V186.441H464.582V188.721Z" fill="black"/>
<path d="M13.1203 173.051H19.4653V174.281H11.7703V163.571H19.2253V164.801H13.1203V168.116H18.0403V169.346H13.1203V173.051ZM26.4754 174.281L24.6004 171.116H24.0604L22.1404 174.281H20.7454L23.1004 170.411L20.9854 166.721H22.3354L24.0754 169.721H24.6154L26.3854 166.721H27.7204L25.5754 170.366L27.9154 174.281H26.4754ZM31.4518 166.721H33.3568V167.831H31.4518V171.986C31.4518 172.386 31.5518 172.681 31.7518 172.871C31.9618 173.051 32.3118 173.141 32.8018 173.141H33.3568V174.281H32.7718C31.9118 174.281 31.2618 174.121 30.8218 173.801C30.3918 173.481 30.1768 172.936 30.1768 172.166V167.831H28.8718V166.721H30.1768V164.441H31.4518V166.721ZM41.8914 170.051V170.486H36.1314C36.1514 171.396 36.3664 172.106 36.7764 172.616C37.1864 173.116 37.7764 173.366 38.5464 173.366C39.5864 173.366 40.2264 172.976 40.4664 172.196H41.7564C41.6264 172.876 41.2814 173.426 40.7214 173.846C40.1714 174.266 39.4464 174.476 38.5464 174.476C37.3964 174.476 36.4964 174.101 35.8464 173.351C35.1964 172.601 34.8714 171.626 34.8714 170.426C34.8714 169.246 35.1964 168.301 35.8464 167.591C36.4964 166.881 37.3864 166.526 38.5164 166.526C39.5864 166.526 40.4114 166.866 40.9914 167.546C41.5714 168.216 41.8714 169.051 41.8914 170.051ZM38.4864 167.636C37.8364 167.636 37.3164 167.806 36.9264 168.146C36.5364 168.476 36.2964 168.901 36.2064 169.421H40.5714C40.5314 168.911 40.3264 168.486 39.9564 168.146C39.5864 167.806 39.0964 167.636 38.4864 167.636ZM48.1965 166.721V167.921H47.5665C46.8065 167.921 46.2115 168.146 45.7815 168.596C45.3615 169.046 45.1515 169.681 45.1515 170.501V174.281H43.8765V166.721H45.1065V167.621H45.4365C45.9165 167.021 46.6465 166.721 47.6265 166.721H48.1965ZM56.5877 174.281H55.3127V169.751C55.3127 168.361 54.6727 167.666 53.3927 167.666C52.7327 167.666 52.1927 167.916 51.7727 168.416C51.3527 168.906 51.1427 169.496 51.1427 170.186V174.281H49.8677V166.721H51.0977V167.531H51.4277C51.6477 167.231 51.9577 166.991 52.3577 166.811C52.7577 166.621 53.2077 166.526 53.7077 166.526C54.6277 166.526 55.3377 166.791 55.8377 167.321C56.3377 167.841 56.5877 168.561 56.5877 169.481V174.281ZM63.7354 174.281V173.486H63.4054C62.8854 174.146 62.1004 174.476 61.0504 174.476C60.2204 174.476 59.5604 174.236 59.0704 173.756C58.5804 173.276 58.3354 172.696 58.3354 172.016C58.3354 171.326 58.5754 170.736 59.0554 170.246C59.5354 169.756 60.2604 169.511 61.2304 169.511H63.6904V169.211C63.6904 168.731 63.5404 168.351 63.2404 168.071C62.9404 167.781 62.4754 167.636 61.8454 167.636C60.7454 167.636 60.1604 168.001 60.0904 168.731H58.8154C58.8654 168.041 59.1604 167.501 59.7004 167.111C60.2504 166.721 60.9554 166.526 61.8154 166.526C62.7854 166.526 63.5454 166.751 64.0954 167.201C64.6554 167.651 64.9354 168.296 64.9354 169.136V174.281H63.7354ZM61.3654 173.366C61.9954 173.366 62.5404 173.161 63.0004 172.751C63.4604 172.331 63.6904 171.821 63.6904 171.221V170.531H61.4254C60.2154 170.531 59.6104 171.011 59.6104 171.971C59.6104 172.401 59.7604 172.741 60.0604 172.991C60.3704 173.241 60.8054 173.366 61.3654 173.366ZM67.27 163.376H68.545V174.281H67.27V163.376ZM71.0054 163.376H72.2804V174.281H71.0054V163.376ZM76.7807 177.281H75.4907L77.0507 173.576L73.8257 166.721H75.1907L77.5007 171.701H77.8757L79.9757 166.721H81.3107L76.7807 177.281ZM91.5768 163.376C93.1468 163.376 94.3718 163.901 95.2518 164.951C96.1318 166.001 96.5718 167.326 96.5718 168.926C96.5718 170.526 96.1318 171.851 95.2518 172.901C94.3718 173.951 93.1468 174.476 91.5768 174.476C89.9968 174.476 88.7668 173.956 87.8868 172.916C87.0168 171.866 86.5818 170.536 86.5818 168.926C86.5818 167.316 87.0168 165.991 87.8868 164.951C88.7668 163.901 89.9968 163.376 91.5768 163.376ZM88.8618 172.001C89.4718 172.831 90.3768 173.246 91.5768 173.246C92.7768 173.246 93.6818 172.831 94.2918 172.001C94.9018 171.171 95.2068 170.146 95.2068 168.926C95.2068 167.706 94.9018 166.681 94.2918 165.851C93.6818 165.021 92.7768 164.606 91.5768 164.606C90.3768 164.606 89.4718 165.021 88.8618 165.851C88.2518 166.681 87.9468 167.706 87.9468 168.926C87.9468 170.146 88.2518 171.171 88.8618 172.001ZM101.812 169.196H103.432L104.692 172.931H105.022L105.892 166.721H107.122L106.027 174.281H104.077L102.757 170.456H102.442L101.122 174.281H99.1423L98.0623 166.721H99.2923L100.192 172.931H100.522L101.812 169.196ZM115.723 174.281H114.448V169.751C114.448 168.361 113.808 167.666 112.528 167.666C111.868 167.666 111.328 167.916 110.908 168.416C110.488 168.906 110.278 169.496 110.278 170.186V174.281H109.003V166.721H110.233V167.531H110.563C110.783 167.231 111.093 166.991 111.493 166.811C111.893 166.621 112.343 166.526 112.843 166.526C113.763 166.526 114.473 166.791 114.973 167.321C115.473 167.841 115.723 168.561 115.723 169.481V174.281ZM124.611 170.051V170.486H118.851C118.871 171.396 119.086 172.106 119.496 172.616C119.906 173.116 120.496 173.366 121.266 173.366C122.306 173.366 122.946 172.976 123.186 172.196H124.476C124.346 172.876 124.001 173.426 123.441 173.846C122.891 174.266 122.166 174.476 121.266 174.476C120.116 174.476 119.216 174.101 118.566 173.351C117.916 172.601 117.591 171.626 117.591 170.426C117.591 169.246 117.916 168.301 118.566 167.591C119.216 166.881 120.106 166.526 121.236 166.526C122.306 166.526 123.131 166.866 123.711 167.546C124.291 168.216 124.591 169.051 124.611 170.051ZM121.206 167.636C120.556 167.636 120.036 167.806 119.646 168.146C119.256 168.476 119.016 168.901 118.926 169.421H123.291C123.251 168.911 123.046 168.486 122.676 168.146C122.306 167.806 121.816 167.636 121.206 167.636ZM132.086 163.376H133.361V174.281H132.131V173.471H131.801C131.261 174.141 130.476 174.476 129.446 174.476C128.426 174.476 127.616 174.101 127.016 173.351C126.426 172.601 126.131 171.651 126.131 170.501C126.131 169.331 126.426 168.376 127.016 167.636C127.616 166.896 128.426 166.526 129.446 166.526C130.466 166.526 131.236 166.861 131.756 167.531H132.086V163.376ZM129.731 173.366C130.521 173.366 131.111 173.091 131.501 172.541C131.901 171.991 132.101 171.311 132.101 170.501C132.101 169.691 131.901 169.011 131.501 168.461C131.111 167.911 130.521 167.636 129.731 167.636C128.991 167.636 128.416 167.901 128.006 168.431C127.606 168.951 127.406 169.641 127.406 170.501C127.406 171.361 127.606 172.056 128.006 172.586C128.416 173.106 128.991 173.366 129.731 173.366ZM51.2415 196.281L50.1315 192.996H45.4365L44.3265 196.281H42.9465L46.6515 185.571H48.9315L52.6515 196.281H51.2415ZM47.4765 186.951L45.8415 191.766H49.7115L48.0765 186.951H47.4765ZM59.2893 194.001H60.5643C60.4143 194.761 60.0593 195.366 59.4993 195.816C58.9493 196.256 58.2443 196.476 57.3843 196.476C56.2443 196.476 55.3443 196.106 54.6843 195.366C54.0343 194.616 53.7093 193.661 53.7093 192.501C53.7093 191.331 54.0343 190.376 54.6843 189.636C55.3343 188.896 56.2343 188.526 57.3843 188.526C58.2543 188.526 58.9593 188.746 59.4993 189.186C60.0493 189.616 60.3893 190.191 60.5193 190.911H59.2443C58.9743 190.061 58.3543 189.636 57.3843 189.636C56.5743 189.636 55.9693 189.906 55.5693 190.446C55.1793 190.976 54.9843 191.651 54.9843 192.471C54.9843 193.301 55.1843 193.991 55.5843 194.541C55.9843 195.091 56.5843 195.366 57.3843 195.366C58.4443 195.366 59.0793 194.911 59.2893 194.001ZM67.5804 194.001H68.8554C68.7054 194.761 68.3504 195.366 67.7904 195.816C67.2404 196.256 66.5354 196.476 65.6754 196.476C64.5354 196.476 63.6354 196.106 62.9754 195.366C62.3254 194.616 62.0004 193.661 62.0004 192.501C62.0004 191.331 62.3254 190.376 62.9754 189.636C63.6254 188.896 64.5254 188.526 65.6754 188.526C66.5454 188.526 67.2504 188.746 67.7904 189.186C68.3404 189.616 68.6804 190.191 68.8104 190.911H67.5354C67.2654 190.061 66.6454 189.636 65.6754 189.636C64.8654 189.636 64.2604 189.906 63.8604 190.446C63.4704 190.976 63.2754 191.651 63.2754 192.471C63.2754 193.301 63.4754 193.991 63.8754 194.541C64.2754 195.091 64.8754 195.366 65.6754 195.366C66.7354 195.366 67.3704 194.911 67.5804 194.001ZM71.2814 189.651C71.9514 188.901 72.8614 188.526 74.0114 188.526C75.1614 188.526 76.0664 188.901 76.7264 189.651C77.3964 190.401 77.7314 191.351 77.7314 192.501C77.7314 193.651 77.3964 194.601 76.7264 195.351C76.0664 196.101 75.1614 196.476 74.0114 196.476C72.8614 196.476 71.9514 196.101 71.2814 195.351C70.6214 194.601 70.2914 193.651 70.2914 192.501C70.2914 191.351 70.6214 190.401 71.2814 189.651ZM72.1964 194.541C72.6164 195.091 73.2214 195.366 74.0114 195.366C74.8014 195.366 75.4064 195.091 75.8264 194.541C76.2464 193.981 76.4564 193.301 76.4564 192.501C76.4564 191.701 76.2464 191.026 75.8264 190.476C75.4064 189.916 74.8014 189.636 74.0114 189.636C73.2214 189.636 72.6164 189.916 72.1964 190.476C71.7764 191.026 71.5664 191.701 71.5664 192.501C71.5664 193.301 71.7764 193.981 72.1964 194.541ZM79.6012 188.721H80.8762V193.251C80.8762 194.641 81.5162 195.336 82.7962 195.336C83.4462 195.336 83.9812 195.091 84.4012 194.601C84.8312 194.111 85.0462 193.516 85.0462 192.816V188.721H86.3212V196.281H85.0912V195.471H84.7612C84.5412 195.771 84.2312 196.016 83.8312 196.206C83.4312 196.386 82.9812 196.476 82.4812 196.476C81.5612 196.476 80.8512 196.216 80.3512 195.696C79.8512 195.166 79.6012 194.441 79.6012 193.521V188.721ZM95.4939 196.281H94.2189V191.751C94.2189 190.361 93.5789 189.666 92.2989 189.666C91.6389 189.666 91.0989 189.916 90.6789 190.416C90.2589 190.906 90.0489 191.496 90.0489 192.186V196.281H88.7739V188.721H90.0039V189.531H90.3339C90.5539 189.231 90.8639 188.991 91.2639 188.811C91.6639 188.621 92.1139 188.526 92.6139 188.526C93.5339 188.526 94.2439 188.791 94.7439 189.321C95.2439 189.841 95.4939 190.561 95.4939 191.481V196.281ZM99.5817 188.721H101.487V189.831H99.5817V193.986C99.5817 194.386 99.6817 194.681 99.8817 194.871C100.092 195.051 100.442 195.141 100.932 195.141H101.487V196.281H100.902C100.042 196.281 99.3917 196.121 98.9517 195.801C98.5217 195.481 98.3067 194.936 98.3067 194.166V189.831H97.0017V188.721H98.3067V186.441H99.5817V188.721Z" fill="black"/>
<path d="M205.162 167.876C205.562 167.936 206.237 168.071 207.187 168.281C208.047 168.471 208.707 168.806 209.167 169.286C209.637 169.756 209.872 170.426 209.872 171.296C209.872 172.196 209.517 172.951 208.807 173.561C208.107 174.171 207.112 174.476 205.822 174.476C204.592 174.476 203.587 174.181 202.807 173.591C202.027 173.001 201.597 172.236 201.517 171.296H202.882C202.992 171.976 203.317 172.471 203.857 172.781C204.397 173.091 205.072 173.246 205.882 173.246C206.652 173.246 207.282 173.076 207.772 172.736C208.262 172.396 208.507 171.926 208.507 171.326C208.507 170.786 208.352 170.381 208.042 170.111C207.732 169.831 207.282 169.626 206.692 169.496C206.522 169.456 206.172 169.386 205.642 169.286C205.112 169.176 204.757 169.101 204.577 169.061C202.847 168.711 201.982 167.806 201.982 166.346C201.982 165.486 202.317 164.776 202.987 164.216C203.657 163.656 204.577 163.376 205.747 163.376C206.837 163.376 207.727 163.641 208.417 164.171C209.107 164.691 209.512 165.391 209.632 166.271H208.267C208.007 165.161 207.157 164.606 205.717 164.606C205.037 164.606 204.472 164.756 204.022 165.056C203.572 165.356 203.347 165.776 203.347 166.316C203.347 166.786 203.507 167.136 203.827 167.366C204.157 167.586 204.602 167.756 205.162 167.876ZM219.923 166.526C220.763 166.526 221.388 166.781 221.798 167.291C222.208 167.791 222.413 168.491 222.413 169.391V174.281H221.138V169.526C221.138 168.286 220.653 167.666 219.683 167.666C219.103 167.666 218.648 167.871 218.318 168.281C217.998 168.681 217.838 169.206 217.838 169.856V174.281H216.563V169.556C216.563 168.296 216.083 167.666 215.123 167.666C214.513 167.666 214.048 167.891 213.728 168.341C213.418 168.791 213.263 169.376 213.263 170.096V174.281H211.988V166.721H213.218V167.456H213.548C213.948 166.836 214.588 166.526 215.468 166.526C216.398 166.526 217.063 166.861 217.463 167.531H217.793C218.253 166.861 218.963 166.526 219.923 166.526ZM229.562 174.281V173.486H229.232C228.712 174.146 227.927 174.476 226.877 174.476C226.047 174.476 225.387 174.236 224.897 173.756C224.407 173.276 224.162 172.696 224.162 172.016C224.162 171.326 224.402 170.736 224.882 170.246C225.362 169.756 226.087 169.511 227.057 169.511H229.517V169.211C229.517 168.731 229.367 168.351 229.067 168.071C228.767 167.781 228.302 167.636 227.672 167.636C226.572 167.636 225.987 168.001 225.917 168.731H224.642C224.692 168.041 224.987 167.501 225.527 167.111C226.077 166.721 226.782 166.526 227.642 166.526C228.612 166.526 229.372 166.751 229.922 167.201C230.482 167.651 230.762 168.296 230.762 169.136V174.281H229.562ZM227.192 173.366C227.822 173.366 228.367 173.161 228.827 172.751C229.287 172.331 229.517 171.821 229.517 171.221V170.531H227.252C226.042 170.531 225.437 171.011 225.437 171.971C225.437 172.401 225.587 172.741 225.887 172.991C226.197 173.241 226.632 173.366 227.192 173.366ZM237.417 166.721V167.921H236.787C236.027 167.921 235.432 168.146 235.002 168.596C234.582 169.046 234.372 169.681 234.372 170.501V174.281H233.097V166.721H234.327V167.621H234.657C235.137 167.021 235.867 166.721 236.847 166.721H237.417ZM241.326 166.721H243.231V167.831H241.326V171.986C241.326 172.386 241.426 172.681 241.626 172.871C241.836 173.051 242.186 173.141 242.676 173.141H243.231V174.281H242.646C241.786 174.281 241.136 174.121 240.696 173.801C240.266 173.481 240.051 172.936 240.051 172.166V167.831H238.746V166.721H240.051V164.441H241.326V166.721ZM256.868 171.236H258.293C258.063 172.226 257.583 173.016 256.853 173.606C256.123 174.186 255.188 174.476 254.048 174.476C252.488 174.476 251.273 173.961 250.403 172.931C249.533 171.901 249.098 170.566 249.098 168.926C249.098 167.286 249.538 165.951 250.418 164.921C251.298 163.891 252.513 163.376 254.063 163.376C255.143 163.376 256.043 163.646 256.763 164.186C257.483 164.716 257.953 165.446 258.173 166.376H256.748C256.328 165.196 255.433 164.606 254.063 164.606C252.883 164.606 251.988 165.021 251.378 165.851C250.768 166.681 250.463 167.706 250.463 168.926C250.463 170.156 250.763 171.186 251.363 172.016C251.973 172.836 252.868 173.246 254.048 173.246C254.788 173.246 255.398 173.071 255.878 172.721C256.358 172.361 256.688 171.866 256.868 171.236ZM260.795 167.651C261.465 166.901 262.375 166.526 263.525 166.526C264.675 166.526 265.58 166.901 266.24 167.651C266.91 168.401 267.245 169.351 267.245 170.501C267.245 171.651 266.91 172.601 266.24 173.351C265.58 174.101 264.675 174.476 263.525 174.476C262.375 174.476 261.465 174.101 260.795 173.351C260.135 172.601 259.805 171.651 259.805 170.501C259.805 169.351 260.135 168.401 260.795 167.651ZM261.71 172.541C262.13 173.091 262.735 173.366 263.525 173.366C264.315 173.366 264.92 173.091 265.34 172.541C265.76 171.981 265.97 171.301 265.97 170.501C265.97 169.701 265.76 169.026 265.34 168.476C264.92 167.916 264.315 167.636 263.525 167.636C262.735 167.636 262.13 167.916 261.71 168.476C261.29 169.026 261.08 169.701 261.08 170.501C261.08 171.301 261.29 171.981 261.71 172.541ZM275.954 174.281H274.679V169.751C274.679 168.361 274.039 167.666 272.759 167.666C272.099 167.666 271.559 167.916 271.139 168.416C270.719 168.906 270.509 169.496 270.509 170.186V174.281H269.234V166.721H270.464V167.531H270.794C271.014 167.231 271.324 166.991 271.724 166.811C272.124 166.621 272.574 166.526 273.074 166.526C273.994 166.526 274.704 166.791 275.204 167.321C275.704 167.841 275.954 168.561 275.954 169.481V174.281ZM280.042 166.721H281.947V167.831H280.042V171.986C280.042 172.386 280.142 172.681 280.342 172.871C280.552 173.051 280.902 173.141 281.392 173.141H281.947V174.281H281.362C280.502 174.281 279.852 174.121 279.412 173.801C278.982 173.481 278.767 172.936 278.767 172.166V167.831H277.462V166.721H278.767V164.441H280.042V166.721ZM288.364 166.721V167.921H287.734C286.974 167.921 286.379 168.146 285.949 168.596C285.529 169.046 285.319 169.681 285.319 170.501V174.281H284.044V166.721H285.274V167.621H285.604C286.084 167.021 286.814 166.721 287.794 166.721H288.364ZM294.85 174.281V173.486H294.52C294 174.146 293.215 174.476 292.165 174.476C291.335 174.476 290.675 174.236 290.185 173.756C289.695 173.276 289.45 172.696 289.45 172.016C289.45 171.326 289.69 170.736 290.17 170.246C290.65 169.756 291.375 169.511 292.345 169.511H294.805V169.211C294.805 168.731 294.655 168.351 294.355 168.071C294.055 167.781 293.59 167.636 292.96 167.636C291.86 167.636 291.275 168.001 291.205 168.731H289.93C289.98 168.041 290.275 167.501 290.815 167.111C291.365 166.721 292.07 166.526 292.93 166.526C293.9 166.526 294.66 166.751 295.21 167.201C295.77 167.651 296.05 168.296 296.05 169.136V174.281H294.85ZM292.48 173.366C293.11 173.366 293.655 173.161 294.115 172.751C294.575 172.331 294.805 171.821 294.805 171.221V170.531H292.54C291.33 170.531 290.725 171.011 290.725 171.971C290.725 172.401 290.875 172.741 291.175 172.991C291.485 173.241 291.92 173.366 292.48 173.366ZM303.5 172.001H304.775C304.625 172.761 304.27 173.366 303.71 173.816C303.16 174.256 302.455 174.476 301.595 174.476C300.455 174.476 299.555 174.106 298.895 173.366C298.245 172.616 297.92 171.661 297.92 170.501C297.92 169.331 298.245 168.376 298.895 167.636C299.545 166.896 300.445 166.526 301.595 166.526C302.465 166.526 303.17 166.746 303.71 167.186C304.26 167.616 304.6 168.191 304.73 168.911H303.455C303.185 168.061 302.565 167.636 301.595 167.636C300.785 167.636 300.18 167.906 299.78 168.446C299.39 168.976 299.195 169.651 299.195 170.471C299.195 171.301 299.395 171.991 299.795 172.541C300.195 173.091 300.795 173.366 301.595 173.366C302.655 173.366 303.29 172.911 303.5 172.001ZM308.431 166.721H310.336V167.831H308.431V171.986C308.431 172.386 308.531 172.681 308.731 172.871C308.941 173.051 309.291 173.141 309.781 173.141H310.336V174.281H309.751C308.891 174.281 308.241 174.121 307.801 173.801C307.371 173.481 307.156 172.936 307.156 172.166V167.831H305.851V166.721H307.156V164.441H308.431V166.721ZM234.741 196.281L233.631 192.996H228.936L227.826 196.281H226.446L230.151 185.571H232.431L236.151 196.281H234.741ZM230.976 186.951L229.341 191.766H233.211L231.576 186.951H230.976ZM242.789 194.001H244.064C243.914 194.761 243.559 195.366 242.999 195.816C242.449 196.256 241.744 196.476 240.884 196.476C239.744 196.476 238.844 196.106 238.184 195.366C237.534 194.616 237.209 193.661 237.209 192.501C237.209 191.331 237.534 190.376 238.184 189.636C238.834 188.896 239.734 188.526 240.884 188.526C241.754 188.526 242.459 188.746 242.999 189.186C243.549 189.616 243.889 190.191 244.019 190.911H242.744C242.474 190.061 241.854 189.636 240.884 189.636C240.074 189.636 239.469 189.906 239.069 190.446C238.679 190.976 238.484 191.651 238.484 192.471C238.484 193.301 238.684 193.991 239.084 194.541C239.484 195.091 240.084 195.366 240.884 195.366C241.944 195.366 242.579 194.911 242.789 194.001ZM251.08 194.001H252.355C252.205 194.761 251.85 195.366 251.29 195.816C250.74 196.256 250.035 196.476 249.175 196.476C248.035 196.476 247.135 196.106 246.475 195.366C245.825 194.616 245.5 193.661 245.5 192.501C245.5 191.331 245.825 190.376 246.475 189.636C247.125 188.896 248.025 188.526 249.175 188.526C250.045 188.526 250.75 188.746 251.29 189.186C251.84 189.616 252.18 190.191 252.31 190.911H251.035C250.765 190.061 250.145 189.636 249.175 189.636C248.365 189.636 247.76 189.906 247.36 190.446C246.97 190.976 246.775 191.651 246.775 192.471C246.775 193.301 246.975 193.991 247.375 194.541C247.775 195.091 248.375 195.366 249.175 195.366C250.235 195.366 250.87 194.911 251.08 194.001ZM254.781 189.651C255.451 188.901 256.361 188.526 257.511 188.526C258.661 188.526 259.566 188.901 260.226 189.651C260.896 190.401 261.231 191.351 261.231 192.501C261.231 193.651 260.896 194.601 260.226 195.351C259.566 196.101 258.661 196.476 257.511 196.476C256.361 196.476 255.451 196.101 254.781 195.351C254.121 194.601 253.791 193.651 253.791 192.501C253.791 191.351 254.121 190.401 254.781 189.651ZM255.696 194.541C256.116 195.091 256.721 195.366 257.511 195.366C258.301 195.366 258.906 195.091 259.326 194.541C259.746 193.981 259.956 193.301 259.956 192.501C259.956 191.701 259.746 191.026 259.326 190.476C258.906 189.916 258.301 189.636 257.511 189.636C256.721 189.636 256.116 189.916 255.696 190.476C255.276 191.026 255.066 191.701 255.066 192.501C255.066 193.301 255.276 193.981 255.696 194.541ZM263.101 188.721H264.376V193.251C264.376 194.641 265.016 195.336 266.296 195.336C266.946 195.336 267.481 195.091 267.901 194.601C268.331 194.111 268.546 193.516 268.546 192.816V188.721H269.821V196.281H268.591V195.471H268.261C268.041 195.771 267.731 196.016 267.331 196.206C266.931 196.386 266.481 196.476 265.981 196.476C265.061 196.476 264.351 196.216 263.851 195.696C263.351 195.166 263.101 194.441 263.101 193.521V188.721ZM278.994 196.281H277.719V191.751C277.719 190.361 277.079 189.666 275.799 189.666C275.139 189.666 274.599 189.916 274.179 190.416C273.759 190.906 273.549 191.496 273.549 192.186V196.281H272.274V188.721H273.504V189.531H273.834C274.054 189.231 274.364 188.991 274.764 188.811C275.164 188.621 275.614 188.526 276.114 188.526C277.034 188.526 277.744 188.791 278.244 189.321C278.744 189.841 278.994 190.561 278.994 191.481V196.281ZM283.082 188.721H284.987V189.831H283.082V193.986C283.082 194.386 283.182 194.681 283.382 194.871C283.592 195.051 283.942 195.141 284.432 195.141H284.987V196.281H284.402C283.542 196.281 282.892 196.121 282.452 195.801C282.022 195.481 281.807 194.936 281.807 194.166V189.831H280.502V188.721H281.807V186.441H283.082V188.721Z" fill="black"/>
<path d="M31.8814 138.285C33.0387 138.285 33.9674 138.709 34.6674 139.559C35.3767 140.399 35.7314 141.673 35.7314 143.381C35.7314 145.079 35.3767 146.353 34.6674 147.203C33.9674 148.043 33.0387 148.463 31.8814 148.463C30.7334 148.463 29.8094 148.043 29.1094 147.203C28.4094 146.353 28.0594 145.079 28.0594 143.381C28.0594 141.673 28.4094 140.399 29.1094 139.559C29.8094 138.709 30.7334 138.285 31.8814 138.285ZM30.0894 143.381C30.0894 144.23 30.178 144.907 30.3554 145.411L32.8054 140.371C32.5627 140.175 32.2547 140.077 31.8814 140.077C30.6867 140.077 30.0894 141.178 30.0894 143.381ZM31.8954 146.671C33.1087 146.671 33.7154 145.574 33.7154 143.381C33.7154 142.541 33.6267 141.869 33.4494 141.365L30.9994 146.391C31.242 146.577 31.5407 146.671 31.8954 146.671ZM42.1837 148.281L40.7837 145.635H40.2657L38.8377 148.281H36.7657L38.8237 144.585L36.9757 141.085H39.0057L40.2937 143.563H40.8117L42.1277 141.085H44.1297L42.2537 144.557L44.2977 148.281H42.1837ZM47.5249 141.435H45.5089C45.5649 140.417 45.9103 139.638 46.5449 139.097C47.1796 138.555 48.0289 138.285 49.0929 138.285C50.1009 138.285 50.9176 138.565 51.5429 139.125C52.1776 139.675 52.4949 140.445 52.4949 141.435C52.4949 142.583 51.8883 143.628 50.6749 144.571L48.6169 146.167V146.531H52.7609V148.281H45.5229V146.181L48.8829 143.675C49.3683 143.329 49.7509 142.984 50.0309 142.639C50.3203 142.284 50.4649 141.897 50.4649 141.477C50.4649 141.019 50.3343 140.674 50.0729 140.441C49.8209 140.198 49.4756 140.077 49.0369 140.077C48.1223 140.077 47.6183 140.529 47.5249 141.435ZM54.7893 138.481H61.0893V140.539L59.2133 141.925V142.303C59.9133 142.359 60.4873 142.634 60.9353 143.129C61.3926 143.614 61.6213 144.277 61.6213 145.117C61.6213 146.143 61.276 146.96 60.5853 147.567C59.8946 148.164 58.994 148.463 57.8833 148.463C56.8006 148.463 55.914 148.164 55.2233 147.567C54.5326 146.96 54.178 146.204 54.1593 145.299H56.1753C56.2313 145.737 56.4086 146.078 56.7073 146.321C57.0153 146.554 57.4073 146.671 57.8833 146.671C58.4153 146.671 58.8353 146.531 59.1433 146.251C59.4513 145.961 59.6053 145.579 59.6053 145.103C59.6053 144.608 59.456 144.216 59.1573 143.927C58.8586 143.637 58.434 143.493 57.8833 143.493C57.51 143.493 57.2113 143.525 56.9873 143.591V141.925L58.8633 140.539V140.175H54.7893V138.481ZM67.8496 148.281V147.665H67.4856C67.0283 148.197 66.3563 148.463 65.4696 148.463C64.6856 148.463 64.065 148.234 63.6076 147.777C63.1503 147.31 62.9216 146.741 62.9216 146.069C62.9216 145.425 63.1643 144.865 63.6496 144.389C64.135 143.913 64.8676 143.675 65.8476 143.675H67.7656V143.493C67.7656 142.746 67.341 142.373 66.4916 142.373C65.7356 142.373 65.3296 142.629 65.2736 143.143H63.3276C63.3463 142.461 63.6403 141.92 64.2096 141.519C64.779 141.108 65.507 140.903 66.3936 140.903C67.4203 140.903 68.2183 141.122 68.7876 141.561C69.3663 141.999 69.6556 142.681 69.6556 143.605V148.281H67.8496ZM66.1556 146.909C66.6316 146.909 67.019 146.769 67.3176 146.489C67.6163 146.209 67.7656 145.845 67.7656 145.397V144.949H66.2256C65.3296 144.949 64.8816 145.271 64.8816 145.915C64.8816 146.577 65.3063 146.909 66.1556 146.909ZM76.2068 145.859H78.1388C78.0454 146.643 77.6954 147.273 77.0888 147.749C76.4914 148.225 75.7448 148.463 74.8488 148.463C73.7381 148.463 72.8561 148.122 72.2028 147.441C71.5494 146.75 71.2228 145.831 71.2228 144.683C71.2228 143.544 71.5494 142.629 72.2028 141.939C72.8561 141.248 73.7381 140.903 74.8488 140.903C75.7448 140.903 76.4821 141.131 77.0608 141.589C77.6488 142.037 77.9894 142.634 78.0828 143.381H76.1368C75.9781 142.821 75.5534 142.541 74.8628 142.541C74.2841 142.541 73.8594 142.737 73.5888 143.129C73.3181 143.521 73.1828 144.034 73.1828 144.669C73.1828 145.303 73.3181 145.826 73.5888 146.237C73.8688 146.638 74.2934 146.839 74.8628 146.839C75.6374 146.839 76.0854 146.512 76.2068 145.859ZM81.8769 148.281H79.7209V146.153H81.8769V148.281ZM85.9784 148.281H83.8224V146.153H85.9784V148.281ZM90.08 148.281H87.924V146.153H90.08V148.281ZM92.2776 138.481H98.5776V140.539L96.7016 141.925V142.303C97.4016 142.359 97.9756 142.634 98.4236 143.129C98.8809 143.614 99.1096 144.277 99.1096 145.117C99.1096 146.143 98.7642 146.96 98.0736 147.567C97.3829 148.164 96.4822 148.463 95.3716 148.463C94.2889 148.463 93.4022 148.164 92.7116 147.567C92.0209 146.96 91.6662 146.204 91.6476 145.299H93.6636C93.7196 145.737 93.8969 146.078 94.1956 146.321C94.5036 146.554 94.8956 146.671 95.3716 146.671C95.9036 146.671 96.3236 146.531 96.6316 146.251C96.9396 145.961 97.0936 145.579 97.0936 145.103C97.0936 144.608 96.9442 144.216 96.6456 143.927C96.3469 143.637 95.9222 143.493 95.3716 143.493C94.9982 143.493 94.6996 143.525 94.4756 143.591V141.925L96.3516 140.539V140.175H92.2776V138.481ZM102.65 141.435H100.634C100.69 140.417 101.035 139.638 101.67 139.097C102.305 138.555 103.154 138.285 104.218 138.285C105.226 138.285 106.043 138.565 106.668 139.125C107.303 139.675 107.62 140.445 107.62 141.435C107.62 142.583 107.013 143.628 105.8 144.571L103.742 146.167V146.531H107.886V148.281H100.648V146.181L104.008 143.675C104.493 143.329 104.876 142.984 105.156 142.639C105.445 142.284 105.59 141.897 105.59 141.477C105.59 141.019 105.459 140.674 105.198 140.441C104.946 140.198 104.601 140.077 104.162 140.077C103.247 140.077 102.743 140.529 102.65 141.435ZM115.836 144.431H117.054V146.181H115.836V148.281H113.89V146.181H109.228V144.067L113.512 138.481H115.836V144.431ZM111.118 144.431H113.96V140.749H113.596L111.118 144.067V144.431Z" fill="#00AE99"/>
<path d="M218.655 138.285C219.812 138.285 220.741 138.709 221.441 139.559C222.15 140.399 222.505 141.673 222.505 143.381C222.505 145.079 222.15 146.353 221.441 147.203C220.741 148.043 219.812 148.463 218.655 148.463C217.507 148.463 216.583 148.043 215.883 147.203C215.183 146.353 214.833 145.079 214.833 143.381C214.833 141.673 215.183 140.399 215.883 139.559C216.583 138.709 217.507 138.285 218.655 138.285ZM216.863 143.381C216.863 144.23 216.951 144.907 217.129 145.411L219.579 140.371C219.336 140.175 219.028 140.077 218.655 140.077C217.46 140.077 216.863 141.178 216.863 143.381ZM218.669 146.671C219.882 146.671 220.489 145.574 220.489 143.381C220.489 142.541 220.4 141.869 220.223 141.365L217.773 146.391C218.015 146.577 218.314 146.671 218.669 146.671ZM228.957 148.281L227.557 145.635H227.039L225.611 148.281H223.539L225.597 144.585L223.749 141.085H225.779L227.067 143.563H227.585L228.901 141.085H230.903L229.027 144.557L231.071 148.281H228.957ZM235.922 138.285C237.08 138.285 238.008 138.709 238.708 139.559C239.418 140.399 239.772 141.673 239.772 143.381C239.772 145.079 239.418 146.353 238.708 147.203C238.008 148.043 237.08 148.463 235.922 148.463C234.774 148.463 233.85 148.043 233.15 147.203C232.45 146.353 232.1 145.079 232.1 143.381C232.1 141.673 232.45 140.399 233.15 139.559C233.85 138.709 234.774 138.285 235.922 138.285ZM234.13 143.381C234.13 144.23 234.219 144.907 234.396 145.411L236.846 140.371C236.604 140.175 236.296 140.077 235.922 140.077C234.728 140.077 234.13 141.178 234.13 143.381ZM235.936 146.671C237.15 146.671 237.756 145.574 237.756 143.381C237.756 142.541 237.668 141.869 237.49 141.365L235.04 146.391C235.283 146.577 235.582 146.671 235.936 146.671ZM247.093 142.905V143.269C247.475 143.427 247.811 143.698 248.101 144.081C248.399 144.463 248.549 144.944 248.549 145.523C248.549 146.353 248.213 147.053 247.541 147.623C246.878 148.183 245.954 148.463 244.769 148.463C243.583 148.463 242.655 148.183 241.983 147.623C241.32 147.053 240.989 146.353 240.989 145.523C240.989 144.944 241.133 144.463 241.423 144.081C241.721 143.698 242.062 143.427 242.445 143.269V142.905C241.689 142.503 241.311 141.841 241.311 140.917C241.311 140.161 241.623 139.535 242.249 139.041C242.874 138.537 243.714 138.285 244.769 138.285C245.823 138.285 246.663 138.537 247.289 139.041C247.914 139.535 248.227 140.161 248.227 140.917C248.227 141.411 248.11 141.827 247.877 142.163C247.653 142.499 247.391 142.746 247.093 142.905ZM244.769 139.839C244.321 139.839 243.957 139.96 243.677 140.203C243.397 140.445 243.257 140.753 243.257 141.127C243.257 141.509 243.392 141.822 243.663 142.065C243.943 142.307 244.311 142.429 244.769 142.429C245.235 142.429 245.604 142.312 245.875 142.079C246.145 141.836 246.281 141.519 246.281 141.127C246.281 140.753 246.141 140.445 245.861 140.203C245.59 139.96 245.226 139.839 244.769 139.839ZM243.453 146.377C243.761 146.647 244.199 146.783 244.769 146.783C245.338 146.783 245.777 146.647 246.085 146.377C246.393 146.097 246.547 145.747 246.547 145.327C246.547 144.916 246.388 144.571 246.071 144.291C245.763 144.011 245.329 143.871 244.769 143.871C244.199 143.871 243.761 144.011 243.453 144.291C243.145 144.561 242.991 144.907 242.991 145.327C242.991 145.747 243.145 146.097 243.453 146.377ZM253.559 138.285C254.716 138.285 255.645 138.709 256.345 139.559C257.054 140.399 257.409 141.673 257.409 143.381C257.409 145.079 257.054 146.353 256.345 147.203C255.645 148.043 254.716 148.463 253.559 148.463C252.411 148.463 251.487 148.043 250.787 147.203C250.087 146.353 249.737 145.079 249.737 143.381C249.737 141.673 250.087 140.399 250.787 139.559C251.487 138.709 252.411 138.285 253.559 138.285ZM251.767 143.381C251.767 144.23 251.856 144.907 252.033 145.411L254.483 140.371C254.24 140.175 253.932 140.077 253.559 140.077C252.364 140.077 251.767 141.178 251.767 143.381ZM253.573 146.671C254.786 146.671 255.393 145.574 255.393 143.381C255.393 142.541 255.304 141.869 255.127 141.365L252.677 146.391C252.92 146.577 253.218 146.671 253.573 146.671ZM261.103 148.281H258.947V146.153H261.103V148.281ZM265.205 148.281H263.049V146.153H265.205V148.281ZM269.307 148.281H267.151V146.153H269.307V148.281ZM277.958 140.581L274.038 148.281H271.938L275.872 140.581V140.231H271.266V138.481H277.958V140.581ZM279.986 148.281V146.531H282.786V140.497H282.436L280.616 141.701V139.699L282.436 138.481H284.802V146.531H287.084V148.281H279.986ZM290.695 141.435H288.679C288.735 140.417 289.08 139.638 289.715 139.097C290.35 138.555 291.199 138.285 292.263 138.285C293.271 138.285 294.088 138.565 294.713 139.125C295.348 139.675 295.665 140.445 295.665 141.435C295.665 142.583 295.058 143.628 293.845 144.571L291.787 146.167V146.531H295.931V148.281H288.693V146.181L292.053 143.675C292.538 143.329 292.921 142.984 293.201 142.639C293.49 142.284 293.635 141.897 293.635 141.477C293.635 141.019 293.504 140.674 293.243 140.441C292.991 140.198 292.646 140.077 292.207 140.077C291.292 140.077 290.788 140.529 290.695 141.435Z" fill="#00AE99"/>
<path d="M400.682 138.285C401.839 138.285 402.768 138.709 403.468 139.559C404.177 140.399 404.532 141.673 404.532 143.381C404.532 145.079 404.177 146.353 403.468 147.203C402.768 148.043 401.839 148.463 400.682 148.463C399.534 148.463 398.61 148.043 397.91 147.203C397.21 146.353 396.86 145.079 396.86 143.381C396.86 141.673 397.21 140.399 397.91 139.559C398.61 138.709 399.534 138.285 400.682 138.285ZM398.89 143.381C398.89 144.23 398.979 144.907 399.156 145.411L401.606 140.371C401.363 140.175 401.055 140.077 400.682 140.077C399.487 140.077 398.89 141.178 398.89 143.381ZM400.696 146.671C401.909 146.671 402.516 145.574 402.516 143.381C402.516 142.541 402.427 141.869 402.25 141.365L399.8 146.391C400.043 146.577 400.341 146.671 400.696 146.671ZM410.984 148.281L409.584 145.635H409.066L407.638 148.281H405.566L407.624 144.585L405.776 141.085H407.806L409.094 143.563H409.612L410.928 141.085H412.93L411.054 144.557L413.098 148.281H410.984ZM420.302 142.905V143.269C420.684 143.427 421.02 143.698 421.31 144.081C421.608 144.463 421.758 144.944 421.758 145.523C421.758 146.353 421.422 147.053 420.75 147.623C420.087 148.183 419.163 148.463 417.978 148.463C416.792 148.463 415.864 148.183 415.192 147.623C414.529 147.053 414.198 146.353 414.198 145.523C414.198 144.944 414.342 144.463 414.632 144.081C414.93 143.698 415.271 143.427 415.654 143.269V142.905C414.898 142.503 414.52 141.841 414.52 140.917C414.52 140.161 414.832 139.535 415.458 139.041C416.083 138.537 416.923 138.285 417.978 138.285C419.032 138.285 419.872 138.537 420.498 139.041C421.123 139.535 421.436 140.161 421.436 140.917C421.436 141.411 421.319 141.827 421.086 142.163C420.862 142.499 420.6 142.746 420.302 142.905ZM417.978 139.839C417.53 139.839 417.166 139.96 416.886 140.203C416.606 140.445 416.466 140.753 416.466 141.127C416.466 141.509 416.601 141.822 416.872 142.065C417.152 142.307 417.52 142.429 417.978 142.429C418.444 142.429 418.813 142.312 419.084 142.079C419.354 141.836 419.49 141.519 419.49 141.127C419.49 140.753 419.35 140.445 419.07 140.203C418.799 139.96 418.435 139.839 417.978 139.839ZM416.662 146.377C416.97 146.647 417.408 146.783 417.978 146.783C418.547 146.783 418.986 146.647 419.294 146.377C419.602 146.097 419.756 145.747 419.756 145.327C419.756 144.916 419.597 144.571 419.28 144.291C418.972 144.011 418.538 143.871 417.978 143.871C417.408 143.871 416.97 144.011 416.662 144.291C416.354 144.561 416.2 144.907 416.2 145.327C416.2 145.747 416.354 146.097 416.662 146.377ZM425.144 141.435H423.128C423.184 140.417 423.529 139.638 424.164 139.097C424.799 138.555 425.648 138.285 426.712 138.285C427.72 138.285 428.537 138.565 429.162 139.125C429.797 139.675 430.114 140.445 430.114 141.435C430.114 142.583 429.507 143.628 428.294 144.571L426.236 146.167V146.531H430.38V148.281H423.142V146.181L426.502 143.675C426.987 143.329 427.37 142.984 427.65 142.639C427.939 142.284 428.084 141.897 428.084 141.477C428.084 141.019 427.953 140.674 427.692 140.441C427.44 140.198 427.095 140.077 426.656 140.077C425.741 140.077 425.237 140.529 425.144 141.435ZM436.188 141.603C437.094 141.603 437.84 141.911 438.428 142.527C439.026 143.133 439.324 143.927 439.324 144.907C439.324 145.961 438.984 146.82 438.302 147.483C437.621 148.136 436.753 148.463 435.698 148.463C434.588 148.463 433.701 148.169 433.038 147.581C432.385 146.993 432.03 146.232 431.974 145.299H433.99C434.102 146.213 434.648 146.671 435.628 146.671C436.151 146.671 436.562 146.517 436.86 146.209C437.159 145.891 437.308 145.467 437.308 144.935C437.308 144.375 437.154 143.945 436.846 143.647C436.548 143.339 436.146 143.185 435.642 143.185C434.97 143.185 434.452 143.427 434.088 143.913H432.212L432.646 138.481H438.694V140.175H434.214L434.06 142.177H434.424C434.938 141.794 435.526 141.603 436.188 141.603ZM443.131 148.281H440.975V146.153H443.131V148.281ZM447.232 148.281H445.076V146.153H447.232V148.281ZM451.334 148.281H449.178V146.153H451.334V148.281ZM455.777 140.903C456.654 140.903 457.303 141.183 457.723 141.743H458.087V138.103H460.047V148.281H458.157V147.623H457.793C457.345 148.183 456.673 148.463 455.777 148.463C454.843 148.463 454.101 148.113 453.551 147.413C453 146.703 452.725 145.793 452.725 144.683C452.725 143.572 453 142.667 453.551 141.967C454.101 141.257 454.843 140.903 455.777 140.903ZM456.407 146.839C456.985 146.839 457.419 146.633 457.709 146.223C458.007 145.812 458.157 145.299 458.157 144.683C458.157 144.067 458.007 143.558 457.709 143.157C457.419 142.746 456.985 142.541 456.407 142.541C455.847 142.541 455.417 142.741 455.119 143.143C454.829 143.544 454.685 144.057 454.685 144.683C454.685 145.317 454.829 145.835 455.119 146.237C455.417 146.638 455.847 146.839 456.407 146.839ZM463.849 141.435H461.833C461.889 140.417 462.234 139.638 462.869 139.097C463.504 138.555 464.353 138.285 465.417 138.285C466.425 138.285 467.242 138.565 467.867 139.125C468.502 139.675 468.819 140.445 468.819 141.435C468.819 142.583 468.212 143.628 466.999 144.571L464.941 146.167V146.531H469.085V148.281H461.847V146.181L465.207 143.675C465.692 143.329 466.075 142.984 466.355 142.639C466.644 142.284 466.789 141.897 466.789 141.477C466.789 141.019 466.658 140.674 466.397 140.441C466.145 140.198 465.8 140.077 465.361 140.077C464.446 140.077 463.942 140.529 463.849 141.435ZM477.568 140.581L473.648 148.281H471.548L475.482 140.581V140.231H470.876V138.481H477.568V140.581Z" fill="#00AE99"/>
</svg>
