<svg width="510" height="245" fill="none" viewBox="11.77 0 486.591 196.476" xmlns="http://www.w3.org/2000/svg"><path fill="#898890" d="M237.877 10.07h35.246v29.491h-35.246z"/><path fill="#898890" d="M267.368 19.421H276v10.79h-8.632zm-32.368 0h8.632v10.79H235z"/><circle cx="248.667" cy="23.017" r="2.877" stroke="#E5E5E5" stroke-width="1.439"/><circle cx="255.86" cy="2.877" r="2.877" fill="#898890"/><circle cx="262.334" cy="23.017" r="2.877" stroke="#E5E5E5" stroke-width="1.439"/><path fill="#E5E5E5" d="M253.702 29.491h4.316v2.877h-4.316z"/><path fill="#898890" d="M255.141 4.316h1.439v5.754h-1.439zM72.496 31.501c4.04 0 7.328-3.252 7.328-7.25S76.537 17 72.496 17s-7.329 3.253-7.329 7.25c0 3.999 3.288 7.251 7.329 7.251zm13.495 14.998c-.046-7.324-6.082-13.268-13.495-13.268C65.054 33.23 59 39.22 59 46.583c0 .23.189.417.421.417H85.58a.418.418 0 0 0 .412-.501zm352.505-14.998c4.041 0 7.328-3.252 7.328-7.25S442.537 17 438.496 17s-7.329 3.253-7.329 7.25c0 3.999 3.288 7.251 7.329 7.251zm13.495 14.998c-.046-7.324-6.082-13.268-13.495-13.268-7.442 0-13.496 5.99-13.496 13.352 0 .23.189.417.421.417h26.158a.418.418 0 0 0 .412-.501z"/><path d="M288 90h125M97 90h125" stroke="#898890" stroke-width="2" stroke-linecap="round" stroke-dasharray="5 15"/><path d="M94.083 73.947H55.75a1.92 1.92 0 0 1-1.917-1.916 1.92 1.92 0 0 1 1.917-1.917H84.5v1.917h3.833v-3.834a1.917 1.917 0 0 0-1.916-1.916H55.75A5.75 5.75 0 0 0 50 72.03v32.583a7.667 7.667 0 0 0 7.667 7.667h36.416A1.918 1.918 0 0 0 96 110.364v-34.5a1.917 1.917 0 0 0-1.917-1.917zm-9.583 23a3.832 3.832 0 0 1-3.833-3.833 3.832 3.832 0 0 1 3.833-3.833 3.832 3.832 0 0 1 3.833 3.833 3.832 3.832 0 0 1-3.833 3.833zm374.583-23H420.75a1.92 1.92 0 0 1-1.917-1.916 1.92 1.92 0 0 1 1.917-1.917h28.75v1.917h3.833v-3.834a1.917 1.917 0 0 0-1.916-1.916H420.75a5.75 5.75 0 0 0-5.75 5.75v32.583a7.667 7.667 0 0 0 7.667 7.667h36.416a1.918 1.918 0 0 0 1.917-1.917v-34.5a1.918 1.918 0 0 0-1.917-1.917zm-9.583 23a3.832 3.832 0 0 1-3.833-3.833 3.832 3.832 0 0 1 3.833-3.833 3.832 3.832 0 0 1 3.833 3.833 3.832 3.832 0 0 1-3.833 3.833z" fill="#898890"/><path stroke="#898890" stroke-width="3" d="M224.5 60.781h62v62h-62z"/><path d="M244.383 97.561l3.097-3.212-3.851-5.21-4.903-6.953A19.932 19.932 0 0 0 236 92.28c0 6.1 2.726 11.562 7.024 15.23l6.224-4.409a12.783 12.783 0 0 1-4.865-5.54zm6.303-16.878l3.205 3.104 5.197-3.86 6.938-4.914a19.823 19.823 0 0 0-10.072-2.732c-6.086 0-11.536 2.732-15.195 7.04l4.398 6.239a12.778 12.778 0 0 1 5.529-4.877zm13.742 9.53l3.851 5.209 4.904 6.954a19.942 19.942 0 0 0 2.725-10.095c0-6.1-2.725-11.563-7.024-15.23l-6.224 4.408A12.792 12.792 0 0 1 267.526 87l-3.098 3.213zm6.722 15.027l-4.399-6.238a12.776 12.776 0 0 1-5.528 4.877l-3.205-3.105-5.197 3.86-6.939 4.915a19.829 19.829 0 0 0 10.072 2.732c6.087 0 11.536-2.732 15.196-7.041z" fill="#898890"/><path d="M378.12 173.051h6.345v1.23h-7.695v-10.71h7.455v1.23h-6.105v3.315h4.92v1.23h-4.92v3.705zm13.355 1.23l-1.875-3.165h-.54l-1.92 3.165h-1.395l2.355-3.87-2.115-3.69h1.35l1.74 3h.54l1.77-3h1.335l-2.145 3.645 2.34 3.915h-1.44zm4.977-7.56h1.905v1.11h-1.905v4.155c0 .4.1.695.3.885.21.18.56.27 1.05.27h.555v1.14h-.585c-.86 0-1.51-.16-1.95-.48-.43-.32-.645-.865-.645-1.635v-4.335h-1.305v-1.11h1.305v-2.28h1.275v2.28zm10.439 3.33v.435h-5.76c.02.91.235 1.62.645 2.13.41.5 1 .75 1.77.75 1.04 0 1.68-.39 1.92-1.17h1.29c-.13.68-.475 1.23-1.035 1.65-.55.42-1.275.63-2.175.63-1.15 0-2.05-.375-2.7-1.125-.65-.75-.975-1.725-.975-2.925 0-1.18.325-2.125.975-2.835.65-.71 1.54-1.065 2.67-1.065 1.07 0 1.895.34 2.475 1.02.58.67.88 1.505.9 2.505zm-3.405-2.415c-.65 0-1.17.17-1.56.51-.39.33-.63.755-.72 1.275h4.365a1.87 1.87 0 0 0-.615-1.275c-.37-.34-.86-.51-1.47-.51zm9.71-.915v1.2h-.63c-.76 0-1.355.225-1.785.675-.42.45-.63 1.085-.63 1.905v3.78h-1.275v-7.56h1.23v.9h.33c.48-.6 1.21-.9 2.19-.9h.57zm8.392 7.56h-1.275v-4.53c0-1.39-.64-2.085-1.92-2.085-.66 0-1.2.25-1.62.75-.42.49-.63 1.08-.63 1.77v4.095h-1.275v-7.56h1.23v.81h.33c.22-.3.53-.54.93-.72.4-.19.85-.285 1.35-.285.92 0 1.63.265 2.13.795.5.52.75 1.24.75 2.16v4.8zm7.147 0v-.795h-.33c-.52.66-1.305.99-2.355.99-.83 0-1.49-.24-1.98-.72a2.346 2.346 0 0 1-.735-1.74c0-.69.24-1.28.72-1.77s1.205-.735 2.175-.735h2.46v-.3c0-.48-.15-.86-.45-1.14-.3-.29-.765-.435-1.395-.435-1.1 0-1.685.365-1.755 1.095h-1.275c.05-.69.345-1.23.885-1.62.55-.39 1.255-.585 2.115-.585.97 0 1.73.225 2.28.675.56.45.84 1.095.84 1.935v5.145h-1.2zm-2.37-.915c.63 0 1.175-.205 1.635-.615.46-.42.69-.93.69-1.53v-.69h-2.265c-1.21 0-1.815.48-1.815 1.44 0 .43.15.77.45 1.02.31.25.745.375 1.305.375zm5.905-9.99h1.275v10.905h-1.275v-10.905zm3.735 0h1.275v10.905h-1.275v-10.905zm5.776 13.905h-1.29l1.56-3.705-3.225-6.855h1.365l2.31 4.98h.375l2.1-4.98h1.335l-4.53 10.56zm14.796-13.905c1.57 0 2.795.525 3.675 1.575.88 1.05 1.32 2.375 1.32 3.975s-.44 2.925-1.32 3.975c-.88 1.05-2.105 1.575-3.675 1.575-1.58 0-2.81-.52-3.69-1.56-.87-1.05-1.305-2.38-1.305-3.99 0-1.61.435-2.935 1.305-3.975.88-1.05 2.11-1.575 3.69-1.575zm-2.715 8.625c.61.83 1.515 1.245 2.715 1.245s2.105-.415 2.715-1.245c.61-.83.915-1.855.915-3.075 0-1.22-.305-2.245-.915-3.075-.61-.83-1.515-1.245-2.715-1.245s-2.105.415-2.715 1.245c-.61.83-.915 1.855-.915 3.075 0 1.22.305 2.245.915 3.075zm12.95-2.805h1.62l1.26 3.735h.33l.87-6.21h1.23l-1.095 7.56h-1.95l-1.32-3.825h-.315l-1.32 3.825h-1.98l-1.08-7.56h1.23l.9 6.21h.33l1.29-3.735zm13.911 5.085h-1.275v-4.53c0-1.39-.64-2.085-1.92-2.085-.66 0-1.2.25-1.62.75-.42.49-.63 1.08-.63 1.77v4.095h-1.275v-7.56h1.23v.81h.33c.22-.3.53-.54.93-.72.4-.19.85-.285 1.35-.285.92 0 1.63.265 2.13.795.5.52.75 1.24.75 2.16v4.8zm8.888-4.23v.435h-5.76c.02.91.235 1.62.645 2.13.41.5 1 .75 1.77.75 1.04 0 1.68-.39 1.92-1.17h1.29c-.13.68-.475 1.23-1.035 1.65-.55.42-1.275.63-2.175.63-1.15 0-2.05-.375-2.7-1.125-.65-.75-.975-1.725-.975-2.925 0-1.18.325-2.125.975-2.835.65-.71 1.54-1.065 2.67-1.065 1.07 0 1.895.34 2.475 1.02.58.67.88 1.505.9 2.505zm-3.405-2.415c-.65 0-1.17.17-1.56.51-.39.33-.63.755-.72 1.275h4.365a1.87 1.87 0 0 0-.615-1.275c-.37-.34-.86-.51-1.47-.51zm10.88-4.26h1.275v10.905h-1.23v-.81h-.33c-.54.67-1.325 1.005-2.355 1.005-1.02 0-1.83-.375-2.43-1.125-.59-.75-.885-1.7-.885-2.85 0-1.17.295-2.125.885-2.865.6-.74 1.41-1.11 2.43-1.11 1.02 0 1.79.335 2.31 1.005h.33v-4.155zm-2.355 9.99c.79 0 1.38-.275 1.77-.825.4-.55.6-1.23.6-2.04s-.2-1.49-.6-2.04c-.39-.55-.98-.825-1.77-.825-.74 0-1.315.265-1.725.795-.4.52-.6 1.21-.6 2.07 0 .86.2 1.555.6 2.085.41.52.985.78 1.725.78zm-78.49 22.915l-1.11-3.285h-4.695l-1.11 3.285h-1.38l3.705-10.71h2.28l3.72 10.71h-1.41zm-3.765-9.33l-1.635 4.815h3.87l-1.635-4.815h-.6zm11.813 7.05h1.275c-.15.76-.505 1.365-1.065 1.815-.55.44-1.255.66-2.115.66-1.14 0-2.04-.37-2.7-1.11-.65-.75-.975-1.705-.975-2.865 0-1.17.325-2.125.975-2.865.65-.74 1.55-1.11 2.7-1.11.87 0 1.575.22 2.115.66.55.43.89 1.005 1.02 1.725h-1.275c-.27-.85-.89-1.275-1.86-1.275-.81 0-1.415.27-1.815.81-.39.53-.585 1.205-.585 2.025 0 .83.2 1.52.6 2.07.4.55 1 .825 1.8.825 1.06 0 1.695-.455 1.905-1.365zm8.291 0h1.275c-.15.76-.505 1.365-1.065 1.815-.55.44-1.255.66-2.115.66-1.14 0-2.04-.37-2.7-1.11-.65-.75-.975-1.705-.975-2.865 0-1.17.325-2.125.975-2.865.65-.74 1.55-1.11 2.7-1.11.87 0 1.575.22 2.115.66.55.43.89 1.005 1.02 1.725h-1.275c-.27-.85-.89-1.275-1.86-1.275-.81 0-1.415.27-1.815.81-.39.53-.585 1.205-.585 2.025 0 .83.2 1.52.6 2.07.4.55 1 .825 1.8.825 1.06 0 1.695-.455 1.905-1.365zm3.701-4.35c.67-.75 1.58-1.125 2.73-1.125s2.055.375 2.715 1.125c.67.75 1.005 1.7 1.005 2.85 0 1.15-.335 2.1-1.005 2.85-.66.75-1.565 1.125-2.715 1.125s-2.06-.375-2.73-1.125c-.66-.75-.99-1.7-.99-2.85 0-1.15.33-2.1.99-2.85zm.915 4.89c.42.55 1.025.825 1.815.825s1.395-.275 1.815-.825c.42-.56.63-1.24.63-2.04s-.21-1.475-.63-2.025c-.42-.56-1.025-.84-1.815-.84s-1.395.28-1.815.84c-.42.55-.63 1.225-.63 2.025 0 .8.21 1.48.63 2.04zm7.405-5.82h1.275v4.53c0 1.39.64 2.085 1.92 2.085a2.02 2.02 0 0 0 1.605-.735c.43-.49.645-1.085.645-1.785v-4.095h1.275v7.56h-1.23v-.81h-.33c-.22.3-.53.545-.93.735-.4.18-.85.27-1.35.27-.92 0-1.63-.26-2.13-.78-.5-.53-.75-1.255-.75-2.175v-4.8zm15.893 7.56h-1.275v-4.53c0-1.39-.64-2.085-1.92-2.085-.66 0-1.2.25-1.62.75-.42.49-.63 1.08-.63 1.77v4.095h-1.275v-7.56h1.23v.81h.33c.22-.3.53-.54.93-.72.4-.19.85-.285 1.35-.285.92 0 1.63.265 2.13.795.5.52.75 1.24.75 2.16v4.8zm4.088-7.56h1.905v1.11h-1.905v4.155c0 .4.1.695.3.885.21.18.56.27 1.05.27h.555v1.14h-.585c-.86 0-1.51-.16-1.95-.48-.43-.32-.645-.865-.645-1.635v-4.335h-1.305v-1.11h1.305v-2.28h1.275v2.28zM13.12 173.051h6.345v1.23H11.77v-10.71h7.455v1.23H13.12v3.315h4.92v1.23h-4.92v3.705zm13.355 1.23l-1.875-3.165h-.54l-1.92 3.165h-1.395l2.355-3.87-2.115-3.69h1.35l1.74 3h.54l1.77-3h1.335l-2.145 3.645 2.34 3.915h-1.44zm4.977-7.56h1.905v1.11h-1.905v4.155c0 .4.1.695.3.885.21.18.56.27 1.05.27h.555v1.14h-.585c-.86 0-1.51-.16-1.95-.48-.43-.32-.645-.865-.645-1.635v-4.335h-1.305v-1.11h1.305v-2.28h1.275v2.28zm10.44 3.33v.435h-5.76c.02.91.234 1.62.644 2.13.41.5 1 .75 1.77.75 1.04 0 1.68-.39 1.92-1.17h1.29c-.13.68-.475 1.23-1.035 1.65-.55.42-1.275.63-2.175.63-1.15 0-2.05-.375-2.7-1.125-.65-.75-.975-1.725-.975-2.925 0-1.18.325-2.125.975-2.835.65-.71 1.54-1.065 2.67-1.065 1.07 0 1.895.34 2.475 1.02.58.67.88 1.505.9 2.505zm-3.406-2.415c-.65 0-1.17.17-1.56.51-.39.33-.63.755-.72 1.275h4.365a1.87 1.87 0 0 0-.615-1.275c-.37-.34-.86-.51-1.47-.51zm9.71-.915v1.2h-.63c-.76 0-1.355.225-1.785.675-.42.45-.63 1.085-.63 1.905v3.78h-1.275v-7.56h1.23v.9h.33c.48-.6 1.21-.9 2.19-.9h.57zm8.392 7.56h-1.275v-4.53c0-1.39-.64-2.085-1.92-2.085-.66 0-1.2.25-1.62.75-.42.49-.63 1.08-.63 1.77v4.095h-1.275v-7.56h1.23v.81h.33c.22-.3.53-.54.93-.72.4-.19.85-.285 1.35-.285.92 0 1.63.265 2.13.795.5.52.75 1.24.75 2.16v4.8zm7.147 0v-.795h-.33c-.52.66-1.305.99-2.355.99-.83 0-1.49-.24-1.98-.72a2.346 2.346 0 0 1-.735-1.74c0-.69.24-1.28.72-1.77s1.205-.735 2.175-.735h2.46v-.3c0-.48-.15-.86-.45-1.14-.3-.29-.765-.435-1.395-.435-1.1 0-1.685.365-1.755 1.095h-1.275c.05-.69.345-1.23.885-1.62.55-.39 1.255-.585 2.115-.585.97 0 1.73.225 2.28.675.56.45.84 1.095.84 1.935v5.145h-1.2zm-2.37-.915c.63 0 1.175-.205 1.635-.615.46-.42.69-.93.69-1.53v-.69h-2.265c-1.21 0-1.815.48-1.815 1.44 0 .43.15.77.45 1.02.31.25.745.375 1.305.375zm5.905-9.99h1.275v10.905H67.27v-10.905zm3.735 0h1.275v10.905h-1.275v-10.905zm5.776 13.905h-1.29l1.56-3.705-3.225-6.855h1.365l2.31 4.98h.375l2.1-4.98h1.335l-4.53 10.56zm14.796-13.905c1.57 0 2.795.525 3.675 1.575.88 1.05 1.32 2.375 1.32 3.975s-.44 2.925-1.32 3.975c-.88 1.05-2.105 1.575-3.675 1.575-1.58 0-2.81-.52-3.69-1.56-.87-1.05-1.305-2.38-1.305-3.99 0-1.61.435-2.935 1.305-3.975.88-1.05 2.11-1.575 3.69-1.575zm-2.715 8.625c.61.83 1.515 1.245 2.715 1.245s2.105-.415 2.715-1.245c.61-.83.915-1.855.915-3.075 0-1.22-.305-2.245-.915-3.075-.61-.83-1.515-1.245-2.715-1.245s-2.105.415-2.715 1.245c-.61.83-.915 1.855-.915 3.075 0 1.22.305 2.245.915 3.075zm12.95-2.805h1.62l1.26 3.735h.33l.87-6.21h1.23l-1.095 7.56h-1.95l-1.32-3.825h-.315l-1.32 3.825h-1.98l-1.08-7.56h1.23l.9 6.21h.33l1.29-3.735zm13.911 5.085h-1.275v-4.53c0-1.39-.64-2.085-1.92-2.085-.66 0-1.2.25-1.62.75-.42.49-.63 1.08-.63 1.77v4.095h-1.275v-7.56h1.23v.81h.33c.22-.3.53-.54.93-.72.4-.19.85-.285 1.35-.285.92 0 1.63.265 2.13.795.5.52.75 1.24.75 2.16v4.8zm8.888-4.23v.435h-5.76c.02.91.235 1.62.645 2.13.41.5 1 .75 1.77.75 1.04 0 1.68-.39 1.92-1.17h1.29c-.13.68-.475 1.23-1.035 1.65-.55.42-1.275.63-2.175.63-1.15 0-2.05-.375-2.7-1.125-.65-.75-.975-1.725-.975-2.925 0-1.18.325-2.125.975-2.835.65-.71 1.54-1.065 2.67-1.065 1.07 0 1.895.34 2.475 1.02.58.67.88 1.505.9 2.505zm-3.405-2.415c-.65 0-1.17.17-1.56.51-.39.33-.63.755-.72 1.275h4.365a1.87 1.87 0 0 0-.615-1.275c-.37-.34-.86-.51-1.47-.51zm10.88-4.26h1.275v10.905h-1.23v-.81h-.33c-.54.67-1.325 1.005-2.355 1.005-1.02 0-1.83-.375-2.43-1.125-.59-.75-.885-1.7-.885-2.85 0-1.17.295-2.125.885-2.865.6-.74 1.41-1.11 2.43-1.11 1.02 0 1.79.335 2.31 1.005h.33v-4.155zm-2.355 9.99c.79 0 1.38-.275 1.77-.825.4-.55.6-1.23.6-2.04s-.2-1.49-.6-2.04c-.39-.55-.98-.825-1.77-.825-.74 0-1.315.265-1.725.795-.4.52-.6 1.21-.6 2.07 0 .86.2 1.555.6 2.085.41.52.985.78 1.725.78zm-78.49 22.915l-1.11-3.285h-4.694l-1.11 3.285h-1.38l3.704-10.71h2.28l3.72 10.71h-1.41zm-3.764-9.33l-1.635 4.815h3.87l-1.636-4.815h-.6zm11.812 7.05h1.275c-.15.76-.505 1.365-1.065 1.815-.55.44-1.255.66-2.115.66-1.14 0-2.04-.37-2.7-1.11-.65-.75-.975-1.705-.975-2.865 0-1.17.325-2.125.975-2.865.65-.74 1.55-1.11 2.7-1.11.87 0 1.575.22 2.115.66.55.43.89 1.005 1.02 1.725h-1.275c-.27-.85-.89-1.275-1.86-1.275-.81 0-1.415.27-1.815.81-.39.53-.585 1.205-.585 2.025 0 .83.2 1.52.6 2.07.4.55 1 .825 1.8.825 1.06 0 1.695-.455 1.905-1.365zm8.291 0h1.275c-.15.76-.505 1.365-1.065 1.815-.55.44-1.255.66-2.115.66-1.14 0-2.04-.37-2.7-1.11-.65-.75-.975-1.705-.975-2.865 0-1.17.325-2.125.975-2.865.65-.74 1.55-1.11 2.7-1.11.87 0 1.575.22 2.115.66.55.43.89 1.005 1.02 1.725h-1.275c-.27-.85-.89-1.275-1.86-1.275-.81 0-1.415.27-1.815.81-.39.53-.585 1.205-.585 2.025 0 .83.2 1.52.6 2.07.4.55 1 .825 1.8.825 1.06 0 1.695-.455 1.905-1.365zm3.701-4.35c.67-.75 1.58-1.125 2.73-1.125s2.055.375 2.715 1.125c.67.75 1.005 1.7 1.005 2.85 0 1.15-.335 2.1-1.005 2.85-.66.75-1.565 1.125-2.715 1.125s-2.06-.375-2.73-1.125c-.66-.75-.99-1.7-.99-2.85 0-1.15.33-2.1.99-2.85zm.915 4.89c.42.55 1.025.825 1.815.825s1.395-.275 1.815-.825c.42-.56.63-1.24.63-2.04s-.21-1.475-.63-2.025c-.42-.56-1.025-.84-1.815-.84s-1.395.28-1.815.84c-.42.55-.63 1.225-.63 2.025 0 .8.21 1.48.63 2.04zm7.405-5.82h1.275v4.53c0 1.39.64 2.085 1.92 2.085a2.02 2.02 0 0 0 1.605-.735c.43-.49.645-1.085.645-1.785v-4.095h1.275v7.56h-1.23v-.81h-.33c-.22.3-.53.545-.93.735-.4.18-.85.27-1.35.27-.92 0-1.63-.26-2.13-.78-.5-.53-.75-1.255-.75-2.175v-4.8zm15.893 7.56h-1.275v-4.53c0-1.39-.64-2.085-1.92-2.085-.66 0-1.2.25-1.62.75-.42.49-.63 1.08-.63 1.77v4.095h-1.275v-7.56h1.23v.81h.33c.22-.3.53-.54.93-.72.4-.19.85-.285 1.35-.285.92 0 1.63.265 2.13.795.5.52.75 1.24.75 2.16v4.8zm4.088-7.56h1.905v1.11h-1.905v4.155c0 .4.1.695.3.885.21.18.56.27 1.05.27h.555v1.14h-.585c-.86 0-1.51-.16-1.95-.48-.43-.32-.645-.865-.645-1.635v-4.335h-1.305v-1.11h1.305v-2.28h1.275v2.28zm105.58-20.845c.4.06 1.075.195 2.025.405.86.19 1.52.525 1.98 1.005.47.47.705 1.14.705 2.01 0 .9-.355 1.655-1.065 2.265-.7.61-1.695.915-2.985.915-1.23 0-2.235-.295-3.015-.885-.78-.59-1.21-1.355-1.29-2.295h1.365c.11.68.435 1.175.975 1.485.54.31 1.215.465 2.025.465.77 0 1.4-.17 1.89-.51.49-.34.735-.81.735-1.41 0-.54-.155-.945-.465-1.215-.31-.28-.76-.485-1.35-.615-.17-.04-.52-.11-1.05-.21a96.17 96.17 0 0 1-1.065-.225c-1.73-.35-2.595-1.255-2.595-2.715 0-.86.335-1.57 1.005-2.13.67-.56 1.59-.84 2.76-.84 1.09 0 1.98.265 2.67.795.69.52 1.095 1.22 1.215 2.1h-1.365c-.26-1.11-1.11-1.665-2.55-1.665-.68 0-1.245.15-1.695.45-.45.3-.675.72-.675 1.26 0 .47.16.82.48 1.05.33.22.775.39 1.335.51zm14.761-1.35c.84 0 1.465.255 1.875.765.41.5.615 1.2.615 2.1v4.89h-1.275v-4.755c0-1.24-.485-1.86-1.455-1.86-.58 0-1.035.205-1.365.615-.32.4-.48.925-.48 1.575v4.425h-1.275v-4.725c0-1.26-.48-1.89-1.44-1.89-.61 0-1.075.225-1.395.675-.31.45-.465 1.035-.465 1.755v4.185h-1.275v-7.56h1.23v.735h.33c.4-.62 1.04-.93 1.92-.93.93 0 1.595.335 1.995 1.005h.33c.46-.67 1.17-1.005 2.13-1.005zm9.639 7.755v-.795h-.33c-.52.66-1.305.99-2.355.99-.83 0-1.49-.24-1.98-.72a2.346 2.346 0 0 1-.735-1.74c0-.69.24-1.28.72-1.77s1.205-.735 2.175-.735h2.46v-.3c0-.48-.15-.86-.45-1.14-.3-.29-.765-.435-1.395-.435-1.1 0-1.685.365-1.755 1.095h-1.275c.05-.69.345-1.23.885-1.62.55-.39 1.255-.585 2.115-.585.97 0 1.73.225 2.28.675.56.45.84 1.095.84 1.935v5.145h-1.2zm-2.37-.915c.63 0 1.175-.205 1.635-.615.46-.42.69-.93.69-1.53v-.69h-2.265c-1.21 0-1.815.48-1.815 1.44 0 .43.15.77.45 1.02.31.25.745.375 1.305.375zm10.225-6.645v1.2h-.63c-.76 0-1.355.225-1.785.675-.42.45-.63 1.085-.63 1.905v3.78h-1.275v-7.56h1.23v.9h.33c.48-.6 1.21-.9 2.19-.9h.57zm3.909 0h1.905v1.11h-1.905v4.155c0 .4.1.695.3.885.21.18.56.27 1.05.27h.555v1.14h-.585c-.86 0-1.51-.16-1.95-.48-.43-.32-.645-.865-.645-1.635v-4.335h-1.305v-1.11h1.305v-2.28h1.275v2.28zm15.542 4.515h1.425c-.23.99-.71 1.78-1.44 2.37-.73.58-1.665.87-2.805.87-1.56 0-2.775-.515-3.645-1.545-.87-1.03-1.305-2.365-1.305-4.005 0-1.64.44-2.975 1.32-4.005.88-1.03 2.095-1.545 3.645-1.545 1.08 0 1.98.27 2.7.81.72.53 1.19 1.26 1.41 2.19h-1.425c-.42-1.18-1.315-1.77-2.685-1.77-1.18 0-2.075.415-2.685 1.245-.61.83-.915 1.855-.915 3.075 0 1.23.3 2.26.9 3.09.61.82 1.505 1.23 2.685 1.23.74 0 1.35-.175 1.83-.525.48-.36.81-.855.99-1.485zm3.927-3.585c.67-.75 1.58-1.125 2.73-1.125s2.055.375 2.715 1.125c.67.75 1.005 1.7 1.005 2.85 0 1.15-.335 2.1-1.005 2.85-.66.75-1.565 1.125-2.715 1.125s-2.06-.375-2.73-1.125c-.66-.75-.99-1.7-.99-2.85 0-1.15.33-2.1.99-2.85zm.915 4.89c.42.55 1.025.825 1.815.825s1.395-.275 1.815-.825c.42-.56.63-1.24.63-2.04s-.21-1.475-.63-2.025c-.42-.56-1.025-.84-1.815-.84s-1.395.28-1.815.84c-.42.55-.63 1.225-.63 2.025 0 .8.21 1.48.63 2.04zm14.244 1.74h-1.275v-4.53c0-1.39-.64-2.085-1.92-2.085-.66 0-1.2.25-1.62.75-.42.49-.63 1.08-.63 1.77v4.095h-1.275v-7.56h1.23v.81h.33c.22-.3.53-.54.93-.72.4-.19.85-.285 1.35-.285.92 0 1.63.265 2.13.795.5.52.75 1.24.75 2.16v4.8zm4.088-7.56h1.905v1.11h-1.905v4.155c0 .4.1.695.3.885.21.18.56.27 1.05.27h.555v1.14h-.585c-.86 0-1.51-.16-1.95-.48-.43-.32-.645-.865-.645-1.635v-4.335h-1.305v-1.11h1.305v-2.28h1.275v2.28zm8.322 0v1.2h-.63c-.76 0-1.355.225-1.785.675-.42.45-.63 1.085-.63 1.905v3.78h-1.275v-7.56h1.23v.9h.33c.48-.6 1.21-.9 2.19-.9h.57zm6.486 7.56v-.795h-.33c-.52.66-1.305.99-2.355.99-.83 0-1.49-.24-1.98-.72a2.346 2.346 0 0 1-.735-1.74c0-.69.24-1.28.72-1.77s1.205-.735 2.175-.735h2.46v-.3c0-.48-.15-.86-.45-1.14-.3-.29-.765-.435-1.395-.435-1.1 0-1.685.365-1.755 1.095h-1.275c.05-.69.345-1.23.885-1.62.55-.39 1.255-.585 2.115-.585.97 0 1.73.225 2.28.675.56.45.84 1.095.84 1.935v5.145h-1.2zm-2.37-.915c.63 0 1.175-.205 1.635-.615.46-.42.69-.93.69-1.53v-.69h-2.265c-1.21 0-1.815.48-1.815 1.44 0 .43.15.77.45 1.02.31.25.745.375 1.305.375zm11.02-1.365h1.275c-.15.76-.505 1.365-1.065 1.815-.55.44-1.255.66-2.115.66-1.14 0-2.04-.37-2.7-1.11-.65-.75-.975-1.705-.975-2.865 0-1.17.325-2.125.975-2.865.65-.74 1.55-1.11 2.7-1.11.87 0 1.575.22 2.115.66.55.43.89 1.005 1.02 1.725h-1.275c-.27-.85-.89-1.275-1.86-1.275-.81 0-1.415.27-1.815.81-.39.53-.585 1.205-.585 2.025 0 .83.2 1.52.6 2.07.4.55 1 .825 1.8.825 1.06 0 1.695-.455 1.905-1.365zm4.931-5.28h1.905v1.11h-1.905v4.155c0 .4.1.695.3.885.21.18.56.27 1.05.27h.555v1.14h-.585c-.86 0-1.51-.16-1.95-.48-.43-.32-.645-.865-.645-1.635v-4.335h-1.305v-1.11h1.305v-2.28h1.275v2.28zm-73.69 29.56l-1.11-3.285h-4.695l-1.11 3.285h-1.38l3.705-10.71h2.28l3.72 10.71h-1.41zm-3.765-9.33l-1.635 4.815h3.87l-1.635-4.815h-.6zm11.813 7.05h1.275c-.15.76-.505 1.365-1.065 1.815-.55.44-1.255.66-2.115.66-1.14 0-2.04-.37-2.7-1.11-.65-.75-.975-1.705-.975-2.865 0-1.17.325-2.125.975-2.865.65-.74 1.55-1.11 2.7-1.11.87 0 1.575.22 2.115.66.55.43.89 1.005 1.02 1.725h-1.275c-.27-.85-.89-1.275-1.86-1.275-.81 0-1.415.27-1.815.81-.39.53-.585 1.205-.585 2.025 0 .83.2 1.52.6 2.07.4.55 1 .825 1.8.825 1.06 0 1.695-.455 1.905-1.365zm8.291 0h1.275c-.15.76-.505 1.365-1.065 1.815-.55.44-1.255.66-2.115.66-1.14 0-2.04-.37-2.7-1.11-.65-.75-.975-1.705-.975-2.865 0-1.17.325-2.125.975-2.865.65-.74 1.55-1.11 2.7-1.11.87 0 1.575.22 2.115.66.55.43.89 1.005 1.02 1.725h-1.275c-.27-.85-.89-1.275-1.86-1.275-.81 0-1.415.27-1.815.81-.39.53-.585 1.205-.585 2.025 0 .83.2 1.52.6 2.07.4.55 1 .825 1.8.825 1.06 0 1.695-.455 1.905-1.365zm3.701-4.35c.67-.75 1.58-1.125 2.73-1.125s2.055.375 2.715 1.125c.67.75 1.005 1.7 1.005 2.85 0 1.15-.335 2.1-1.005 2.85-.66.75-1.565 1.125-2.715 1.125s-2.06-.375-2.73-1.125c-.66-.75-.99-1.7-.99-2.85 0-1.15.33-2.1.99-2.85zm.915 4.89c.42.55 1.025.825 1.815.825s1.395-.275 1.815-.825c.42-.56.63-1.24.63-2.04s-.21-1.475-.63-2.025c-.42-.56-1.025-.84-1.815-.84s-1.395.28-1.815.84c-.42.55-.63 1.225-.63 2.025 0 .8.21 1.48.63 2.04zm7.405-5.82h1.275v4.53c0 1.39.64 2.085 1.92 2.085a2.02 2.02 0 0 0 1.605-.735c.43-.49.645-1.085.645-1.785v-4.095h1.275v7.56h-1.23v-.81h-.33c-.22.3-.53.545-.93.735-.4.18-.85.27-1.35.27-.92 0-1.63-.26-2.13-.78-.5-.53-.75-1.255-.75-2.175v-4.8zm15.893 7.56h-1.275v-4.53c0-1.39-.64-2.085-1.92-2.085-.66 0-1.2.25-1.62.75-.42.49-.63 1.08-.63 1.77v4.095h-1.275v-7.56h1.23v.81h.33c.22-.3.53-.54.93-.72.4-.19.85-.285 1.35-.285.92 0 1.63.265 2.13.795.5.52.75 1.24.75 2.16v4.8zm4.088-7.56h1.905v1.11h-1.905v4.155c0 .4.1.695.3.885.21.18.56.27 1.05.27h.555v1.14h-.585c-.86 0-1.51-.16-1.95-.48-.43-.32-.645-.865-.645-1.635v-4.335h-1.305v-1.11h1.305v-2.28h1.275v2.28z" fill="#000"/><path d="M31.881 138.285c1.158 0 2.086.424 2.786 1.274.71.84 1.064 2.114 1.064 3.822 0 1.698-.354 2.972-1.064 3.822-.7.84-1.628 1.26-2.786 1.26-1.148 0-2.072-.42-2.772-1.26-.7-.85-1.05-2.124-1.05-3.822 0-1.708.35-2.982 1.05-3.822.7-.85 1.624-1.274 2.772-1.274zm-1.792 5.096c0 .849.089 1.526.266 2.03l2.45-5.04c-.242-.196-.55-.294-.924-.294-1.194 0-1.792 1.101-1.792 3.304zm1.806 3.29c1.214 0 1.82-1.097 1.82-3.29 0-.84-.088-1.512-.266-2.016L31 146.391c.243.186.542.28.896.28zm10.289 1.61l-1.4-2.646h-.518l-1.428 2.646h-2.072l2.058-3.696-1.848-3.5h2.03l1.288 2.478h.518l1.316-2.478h2.002l-1.876 3.472 2.044 3.724h-2.114zm5.34-6.846H45.51c.056-1.018.401-1.797 1.036-2.338.635-.542 1.484-.812 2.548-.812 1.008 0 1.825.28 2.45.84.635.55.952 1.32.952 2.31 0 1.148-.607 2.193-1.82 3.136l-2.058 1.596v.364h4.144v1.75h-7.238v-2.1l3.36-2.506c.485-.346.868-.691 1.148-1.036.29-.355.434-.742.434-1.162 0-.458-.13-.803-.392-1.036-.252-.243-.597-.364-1.036-.364-.915 0-1.419.452-1.512 1.358zm7.265-2.954h6.3v2.058l-1.876 1.386v.378c.7.056 1.274.331 1.722.826.458.485.686 1.148.686 1.988 0 1.026-.345 1.843-1.036 2.45-.69.597-1.591.896-2.702.896-1.082 0-1.969-.299-2.66-.896-.69-.607-1.045-1.363-1.064-2.268h2.016c.056.438.234.779.532 1.022.308.233.7.35 1.176.35.532 0 .952-.14 1.26-.42.308-.29.462-.672.462-1.148 0-.495-.149-.887-.448-1.176-.298-.29-.723-.434-1.274-.434-.373 0-.672.032-.896.098v-1.666l1.876-1.386v-.364H54.79v-1.694zm13.06 9.8v-.616h-.363c-.458.532-1.13.798-2.016.798-.784 0-1.405-.229-1.862-.686a2.349 2.349 0 0 1-.686-1.708c0-.644.242-1.204.728-1.68.485-.476 1.218-.714 2.198-.714h1.918v-.182c0-.747-.425-1.12-1.274-1.12-.756 0-1.162.256-1.218.77h-1.946c.018-.682.312-1.223.882-1.624.569-.411 1.297-.616 2.184-.616 1.026 0 1.824.219 2.394.658.578.438.868 1.12.868 2.044v4.676H67.85zm-1.693-1.372c.476 0 .863-.14 1.162-.42.298-.28.448-.644.448-1.092v-.448h-1.54c-.896 0-1.344.322-1.344.966 0 .662.424.994 1.274.994zm10.05-1.05h1.933c-.094.784-.444 1.414-1.05 1.89-.598.476-1.344.714-2.24.714-1.11 0-1.993-.341-2.646-1.022-.654-.691-.98-1.61-.98-2.758 0-1.139.326-2.054.98-2.744.653-.691 1.535-1.036 2.646-1.036.896 0 1.633.228 2.212.686.588.448.928 1.045 1.022 1.792h-1.946c-.159-.56-.584-.84-1.274-.84-.579 0-1.004.196-1.274.588-.27.392-.406.905-.406 1.54 0 .634.135 1.157.406 1.568.28.401.704.602 1.274.602.774 0 1.222-.327 1.344-.98zm5.67 2.422h-2.155v-2.128h2.156v2.128zm4.102 0h-2.156v-2.128h2.156v2.128zm4.102 0h-2.156v-2.128h2.156v2.128zm2.198-9.8h6.3v2.058l-1.876 1.386v.378c.7.056 1.274.331 1.722.826.457.485.686 1.148.686 1.988 0 1.026-.346 1.843-1.036 2.45-.691.597-1.592.896-2.702.896-1.083 0-1.97-.299-2.66-.896-.691-.607-1.046-1.363-1.064-2.268h2.016c.056.438.233.779.532 1.022.308.233.7.35 1.176.35.532 0 .952-.14 1.26-.42.308-.29.462-.672.462-1.148 0-.495-.15-.887-.448-1.176-.3-.29-.724-.434-1.274-.434-.374 0-.672.032-.896.098v-1.666l1.876-1.386v-.364h-4.074v-1.694zm10.372 2.954h-2.016c.056-1.018.401-1.797 1.036-2.338.635-.542 1.484-.812 2.548-.812 1.008 0 1.825.28 2.45.84.635.55.952 1.32.952 2.31 0 1.148-.607 2.193-1.82 3.136l-2.058 1.596v.364h4.144v1.75h-7.238v-2.1l3.36-2.506c.485-.346.868-.691 1.148-1.036.289-.355.434-.742.434-1.162 0-.458-.131-.803-.392-1.036-.252-.243-.597-.364-1.036-.364-.915 0-1.419.452-1.512 1.358zm13.186 2.996h1.218v1.75h-1.218v2.1h-1.946v-2.1h-4.662v-2.114l4.284-5.586h2.324v5.95zm-4.718 0h2.842v-3.682h-.364l-2.478 3.318v.364zm107.537-6.146c1.157 0 2.086.424 2.786 1.274.709.84 1.064 2.114 1.064 3.822 0 1.698-.355 2.972-1.064 3.822-.7.84-1.629 1.26-2.786 1.26-1.148 0-2.072-.42-2.772-1.26-.7-.85-1.05-2.124-1.05-3.822 0-1.708.35-2.982 1.05-3.822.7-.85 1.624-1.274 2.772-1.274zm-1.792 5.096c0 .849.088 1.526.266 2.03l2.45-5.04c-.243-.196-.551-.294-.924-.294-1.195 0-1.792 1.101-1.792 3.304zm1.806 3.29c1.213 0 1.82-1.097 1.82-3.29 0-.84-.089-1.512-.266-2.016l-2.45 5.026c.242.186.541.28.896.28zm10.288 1.61l-1.4-2.646h-.518l-1.428 2.646h-2.072l2.058-3.696-1.848-3.5h2.03l1.288 2.478h.518l1.316-2.478h2.002l-1.876 3.472 2.044 3.724h-2.114zm6.965-9.996c1.158 0 2.086.424 2.786 1.274.71.84 1.064 2.114 1.064 3.822 0 1.698-.354 2.972-1.064 3.822-.7.84-1.628 1.26-2.786 1.26-1.148 0-2.072-.42-2.772-1.26-.7-.85-1.05-2.124-1.05-3.822 0-1.708.35-2.982 1.05-3.822.7-.85 1.624-1.274 2.772-1.274zm-1.792 5.096c0 .849.089 1.526.266 2.03l2.45-5.04c-.242-.196-.55-.294-.924-.294-1.194 0-1.792 1.101-1.792 3.304zm1.806 3.29c1.214 0 1.82-1.097 1.82-3.29 0-.84-.088-1.512-.266-2.016l-2.45 5.026c.243.186.542.28.896.28zm11.157-3.766v.364c.382.158.718.429 1.008.812.298.382.448.863.448 1.442 0 .83-.336 1.53-1.008 2.1-.663.56-1.587.84-2.772.84-1.186 0-2.114-.28-2.786-.84-.663-.57-.994-1.27-.994-2.1 0-.579.144-1.06.434-1.442.298-.383.639-.654 1.022-.812v-.364c-.756-.402-1.134-1.064-1.134-1.988 0-.756.312-1.382.938-1.876.625-.504 1.465-.756 2.52-.756 1.054 0 1.894.252 2.52.756.625.494.938 1.12.938 1.876 0 .494-.117.91-.35 1.246a2.194 2.194 0 0 1-.784.742zm-2.324-3.066c-.448 0-.812.121-1.092.364-.28.242-.42.55-.42.924 0 .382.135.695.406.938.28.242.648.364 1.106.364.466 0 .835-.117 1.106-.35.27-.243.406-.56.406-.952 0-.374-.14-.682-.42-.924-.271-.243-.635-.364-1.092-.364zm-1.316 6.538c.308.27.746.406 1.316.406.569 0 1.008-.136 1.316-.406.308-.28.462-.63.462-1.05 0-.411-.159-.756-.476-1.036-.308-.28-.742-.42-1.302-.42-.57 0-1.008.14-1.316.42-.308.27-.462.616-.462 1.036 0 .42.154.77.462 1.05zm10.106-8.092c1.157 0 2.086.424 2.786 1.274.709.84 1.064 2.114 1.064 3.822 0 1.698-.355 2.972-1.064 3.822-.7.84-1.629 1.26-2.786 1.26-1.148 0-2.072-.42-2.772-1.26-.7-.85-1.05-2.124-1.05-3.822 0-1.708.35-2.982 1.05-3.822.7-.85 1.624-1.274 2.772-1.274zm-1.792 5.096c0 .849.089 1.526.266 2.03l2.45-5.04c-.243-.196-.551-.294-.924-.294-1.195 0-1.792 1.101-1.792 3.304zm1.806 3.29c1.213 0 1.82-1.097 1.82-3.29 0-.84-.089-1.512-.266-2.016l-2.45 5.026c.243.186.541.28.896.28zm7.53 1.61h-2.156v-2.128h2.156v2.128zm4.102 0h-2.156v-2.128h2.156v2.128zm4.102 0h-2.156v-2.128h2.156v2.128zm8.651-7.7l-3.92 7.7h-2.1l3.934-7.7v-.35h-4.606v-1.75h6.692v2.1zm2.028 7.7v-1.75h2.8v-6.034h-.35l-1.82 1.204v-2.002l1.82-1.218h2.366v8.05h2.282v1.75h-7.098zm10.709-6.846h-2.016c.056-1.018.401-1.797 1.036-2.338.635-.542 1.484-.812 2.548-.812 1.008 0 1.825.28 2.45.84.635.55.952 1.32.952 2.31 0 1.148-.607 2.193-1.82 3.136l-2.058 1.596v.364h4.144v1.75h-7.238v-2.1l3.36-2.506c.485-.346.868-.691 1.148-1.036.289-.355.434-.742.434-1.162 0-.458-.131-.803-.392-1.036-.252-.243-.597-.364-1.036-.364-.915 0-1.419.452-1.512 1.358zm109.987-3.15c1.157 0 2.086.424 2.786 1.274.709.84 1.064 2.114 1.064 3.822 0 1.698-.355 2.972-1.064 3.822-.7.84-1.629 1.26-2.786 1.26-1.148 0-2.072-.42-2.772-1.26-.7-.85-1.05-2.124-1.05-3.822 0-1.708.35-2.982 1.05-3.822.7-.85 1.624-1.274 2.772-1.274zm-1.792 5.096c0 .849.089 1.526.266 2.03l2.45-5.04c-.243-.196-.551-.294-.924-.294-1.195 0-1.792 1.101-1.792 3.304zm1.806 3.29c1.213 0 1.82-1.097 1.82-3.29 0-.84-.089-1.512-.266-2.016l-2.45 5.026c.243.186.541.28.896.28zm10.288 1.61l-1.4-2.646h-.518l-1.428 2.646h-2.072l2.058-3.696-1.848-3.5h2.03l1.288 2.478h.518l1.316-2.478h2.002l-1.876 3.472 2.044 3.724h-2.114zm9.318-5.376v.364c.382.158.718.429 1.008.812.298.382.448.863.448 1.442 0 .83-.336 1.53-1.008 2.1-.663.56-1.587.84-2.772.84-1.186 0-2.114-.28-2.786-.84-.663-.57-.994-1.27-.994-2.1 0-.579.144-1.06.434-1.442.298-.383.639-.654 1.022-.812v-.364c-.756-.402-1.134-1.064-1.134-1.988 0-.756.312-1.382.938-1.876.625-.504 1.465-.756 2.52-.756 1.054 0 1.894.252 2.52.756.625.494.938 1.12.938 1.876 0 .494-.117.91-.35 1.246a2.194 2.194 0 0 1-.784.742zm-2.324-3.066c-.448 0-.812.121-1.092.364-.28.242-.42.55-.42.924 0 .382.135.695.406.938.28.242.648.364 1.106.364.466 0 .835-.117 1.106-.35.27-.243.406-.56.406-.952 0-.374-.14-.682-.42-.924-.271-.243-.635-.364-1.092-.364zm-1.316 6.538c.308.27.746.406 1.316.406.569 0 1.008-.136 1.316-.406.308-.28.462-.63.462-1.05 0-.411-.159-.756-.476-1.036-.308-.28-.742-.42-1.302-.42-.57 0-1.008.14-1.316.42-.308.27-.462.616-.462 1.036 0 .42.154.77.462 1.05zm8.482-4.942h-2.016c.056-1.018.401-1.797 1.036-2.338.635-.542 1.484-.812 2.548-.812 1.008 0 1.825.28 2.45.84.635.55.952 1.32.952 2.31 0 1.148-.607 2.193-1.82 3.136l-2.058 1.596v.364h4.144v1.75h-7.238v-2.1l3.36-2.506c.485-.346.868-.691 1.148-1.036.289-.355.434-.742.434-1.162 0-.458-.131-.803-.392-1.036-.252-.243-.597-.364-1.036-.364-.915 0-1.419.452-1.512 1.358zm11.044.168c.906 0 1.652.308 2.24.924.598.606.896 1.4.896 2.38 0 1.054-.34 1.913-1.022 2.576-.681.653-1.549.98-2.604.98-1.11 0-1.997-.294-2.66-.882-.653-.588-1.008-1.349-1.064-2.282h2.016c.112.914.658 1.372 1.638 1.372.523 0 .934-.154 1.232-.462.299-.318.448-.742.448-1.274 0-.56-.154-.99-.462-1.288-.298-.308-.7-.462-1.204-.462-.672 0-1.19.242-1.554.728h-1.876l.434-5.432h6.048v1.694h-4.48l-.154 2.002h.364a2.874 2.874 0 0 1 1.764-.574zm6.943 6.678h-2.156v-2.128h2.156v2.128zm4.101 0h-2.156v-2.128h2.156v2.128zm4.102 0h-2.156v-2.128h2.156v2.128zm4.443-7.378c.877 0 1.526.28 1.946.84h.364v-3.64h1.96v10.178h-1.89v-.658h-.364c-.448.56-1.12.84-2.016.84-.934 0-1.676-.35-2.226-1.05-.551-.71-.826-1.62-.826-2.73 0-1.111.275-2.016.826-2.716.55-.71 1.292-1.064 2.226-1.064zm.63 5.936c.578 0 1.012-.206 1.302-.616.298-.411.448-.924.448-1.54s-.15-1.125-.448-1.526c-.29-.411-.724-.616-1.302-.616-.56 0-.99.2-1.288.602-.29.401-.434.914-.434 1.54 0 .634.144 1.152.434 1.554.298.401.728.602 1.288.602zm7.442-5.404h-2.016c.056-1.018.401-1.797 1.036-2.338.635-.542 1.484-.812 2.548-.812 1.008 0 1.825.28 2.45.84.635.55.952 1.32.952 2.31 0 1.148-.607 2.193-1.82 3.136l-2.058 1.596v.364h4.144v1.75h-7.238v-2.1l3.36-2.506c.485-.346.868-.691 1.148-1.036.289-.355.434-.742.434-1.162 0-.458-.131-.803-.392-1.036-.252-.243-.597-.364-1.036-.364-.915 0-1.419.452-1.512 1.358zm13.719-.854l-3.92 7.7h-2.1l3.934-7.7v-.35h-4.606v-1.75h6.692v2.1z" fill="#00AE99"/></svg>