<svg width="1158" height="400" viewBox="0 0 1158 400" fill="none" xmlns="http://www.w3.org/2000/svg">
<rect width="1158" height="400" fill="white"/>
<rect x="544.756" y="19.552" width="68.4308" height="57.2584" fill="#00AE99"/>
<rect x="602.014" y="37.7068" width="16.7586" height="20.9482" fill="#00AE99"/>
<rect x="539.169" y="37.7068" width="16.7586" height="20.9482" fill="#00AE99"/>
<circle cx="565.703" cy="44.6895" r="5.58619" stroke="white" stroke-width="2.79309"/>
<circle cx="579.669" cy="5.58619" r="5.58619" fill="#00AE99"/>
<circle cx="592.238" cy="44.6895" r="5.58619" stroke="white" stroke-width="2.79309"/>
<rect x="575.479" y="57.2583" width="8.37928" height="5.58619" fill="white"/>
<rect x="578.272" y="8.37964" width="2.79309" height="11.1724" fill="#00AE99"/>
<path d="M140.661 47.1546C148.506 47.1546 154.889 40.8398 154.889 33.0777C154.889 25.3156 148.506 19 140.661 19C132.815 19 126.432 25.3156 126.432 33.0769C126.432 40.8398 132.815 47.1546 140.661 47.1546Z" fill="#003831"/>
<path d="M166.862 76.2727C166.773 62.0534 155.054 50.5126 140.661 50.5126C126.213 50.5126 114.458 62.1424 114.458 76.4369C114.458 76.8843 114.824 77.2459 115.276 77.2459H166.046C166.052 77.2467 166.059 77.2459 166.062 77.2459C166.514 77.2459 166.88 76.8843 166.88 76.4369C166.88 76.3811 166.874 76.3253 166.862 76.2727Z" fill="#003831"/>
<path d="M1019.26 47.1546C1027.11 47.1546 1033.49 40.8398 1033.49 33.0777C1033.49 25.3156 1027.11 19 1019.26 19C1011.42 19 1005.04 25.3156 1005.04 33.0769C1005.04 40.8398 1011.42 47.1546 1019.26 47.1546Z" fill="#003831"/>
<path d="M1045.47 76.2727C1045.38 62.0534 1033.66 50.5126 1019.26 50.5126C1004.82 50.5126 993.062 62.1424 993.062 76.4369C993.062 76.8843 993.428 77.2459 993.88 77.2459H1044.65C1044.66 77.2467 1044.66 77.2459 1044.67 77.2459C1045.12 77.2459 1045.48 76.8843 1045.48 76.4369C1045.48 76.3811 1045.48 76.3253 1045.47 76.2727Z" fill="#003831"/>
<path d="M631 176L986 176" stroke="#898890" stroke-width="1.5" stroke-linecap="round" stroke-dasharray="7 14"/>
<line x1="173.75" y1="177.25" x2="527.25" y2="177.25" stroke="#898890" stroke-width="1.5" stroke-linecap="round" stroke-dasharray="7 14"/>
<path d="M182.574 139.885H111.869H108.148C106.098 139.885 104.427 138.214 104.427 136.164C104.427 134.113 106.098 132.443 108.148 132.443H163.967V136.164H171.41V128.721C171.41 126.667 169.743 125 167.689 125H108.148C101.982 125 96.9841 129.998 96.9841 136.164V199.426C96.9841 207.646 103.649 214.311 111.869 214.311H182.574C184.628 214.311 186.295 212.644 186.295 210.59V143.606C186.295 141.552 184.628 139.885 182.574 139.885ZM163.967 184.541C159.855 184.541 156.525 181.21 156.525 177.098C156.525 172.986 159.855 169.655 163.967 169.655C168.079 169.655 171.41 172.986 171.41 177.098C171.41 181.21 168.079 184.541 163.967 184.541Z" fill="#003831"/>
<path d="M1059.24 139.885H988.532H984.81C982.76 139.885 981.089 138.214 981.089 136.164C981.089 134.113 982.76 132.443 984.81 132.443H1040.63V136.164H1048.07V128.721C1048.07 126.667 1046.41 125 1044.35 125H984.81C978.644 125 973.646 129.998 973.646 136.164V199.426C973.646 207.646 980.311 214.311 988.532 214.311H1059.24C1061.29 214.311 1062.96 212.644 1062.96 210.59V143.606C1062.96 141.552 1061.29 139.885 1059.24 139.885ZM1040.63 184.541C1036.52 184.541 1033.19 181.21 1033.19 177.098C1033.19 172.986 1036.52 169.655 1040.63 169.655C1044.74 169.655 1048.07 172.986 1048.07 177.098C1048.07 181.21 1044.74 184.541 1040.63 184.541Z" fill="#003831"/>
<rect x="518" y="113" width="122.2" height="122.2" fill="#F3F6F4" stroke="#00AE99" stroke-width="4"/>
<path d="M556.275 184.084L562.29 177.846L554.812 167.733L545.292 154.231C541.928 159.984 540 166.681 540 173.831C540 185.675 545.292 196.28 553.638 203.401L565.722 194.841C561.612 192.275 558.301 188.538 556.275 184.084Z" fill="#00AE99"/>
<path d="M568.513 151.312L574.736 157.341L584.826 149.846L598.297 140.304C592.557 136.933 585.875 135 578.742 135C566.925 135 556.345 140.304 549.239 148.669L557.78 160.782C560.34 156.662 564.069 153.343 568.513 151.312Z" fill="#00AE99"/>
<path d="M595.194 169.815L602.671 179.929L612.192 193.431C615.555 187.678 617.484 180.981 617.484 173.831C617.484 161.987 612.192 151.382 603.846 144.26L591.761 152.82C595.872 155.387 599.183 159.124 601.209 163.578L595.194 169.815Z" fill="#00AE99"/>
<path d="M608.245 198.992L599.704 186.88C597.143 191 593.415 194.319 588.971 196.349L582.748 190.321L572.658 197.815L559.187 207.358C564.927 210.729 571.608 212.662 578.742 212.662C590.559 212.662 601.139 207.358 608.245 198.992Z" fill="#00AE99"/>
<path d="M902.699 330.622H914.966V333H900.089V312.294H914.502V314.672H902.699V321.081H912.211V323.459H902.699V330.622ZM928.519 333L924.894 326.881H923.85L920.138 333H917.441L921.994 325.518L917.905 318.384H920.515L923.879 324.184H924.923L928.345 318.384H930.926L926.779 325.431L931.303 333H928.519ZM938.14 318.384H941.823V320.53H938.14V328.563C938.14 329.336 938.333 329.907 938.72 330.274C939.126 330.622 939.803 330.796 940.75 330.796H941.823V333H940.692C939.029 333 937.773 332.691 936.922 332.072C936.091 331.453 935.675 330.4 935.675 328.911V320.53H933.152V318.384H935.675V313.976H938.14V318.384ZM958.323 324.822V325.663H947.187C947.226 327.422 947.642 328.795 948.434 329.781C949.227 330.748 950.368 331.231 951.856 331.231C953.867 331.231 955.104 330.477 955.568 328.969H958.062C957.811 330.284 957.144 331.347 956.061 332.159C954.998 332.971 953.596 333.377 951.856 333.377C949.633 333.377 947.893 332.652 946.636 331.202C945.38 329.752 944.751 327.867 944.751 325.547C944.751 323.266 945.38 321.439 946.636 320.066C947.893 318.693 949.614 318.007 951.798 318.007C953.867 318.007 955.462 318.664 956.583 319.979C957.705 321.274 958.285 322.889 958.323 324.822ZM951.74 320.153C950.484 320.153 949.478 320.482 948.724 321.139C947.97 321.777 947.506 322.599 947.332 323.604H955.771C955.694 322.618 955.298 321.796 954.582 321.139C953.867 320.482 952.92 320.153 951.74 320.153ZM970.513 318.384V320.704H969.295C967.826 320.704 966.676 321.139 965.844 322.009C965.032 322.879 964.626 324.107 964.626 325.692V333H962.161V318.384H964.539V320.124H965.177C966.105 318.964 967.517 318.384 969.411 318.384H970.513ZM986.736 333H984.271V324.242C984.271 321.555 983.034 320.211 980.559 320.211C979.283 320.211 978.239 320.694 977.427 321.661C976.615 322.608 976.209 323.749 976.209 325.083V333H973.744V318.384H976.122V319.95H976.76C977.186 319.37 977.785 318.906 978.558 318.558C979.332 318.191 980.202 318.007 981.168 318.007C982.947 318.007 984.32 318.519 985.286 319.544C986.253 320.549 986.736 321.941 986.736 323.72V333ZM1000.56 333V331.463H999.917C998.912 332.739 997.394 333.377 995.364 333.377C993.759 333.377 992.483 332.913 991.536 331.985C990.589 331.057 990.115 329.936 990.115 328.621C990.115 327.287 990.579 326.146 991.507 325.199C992.435 324.252 993.837 323.778 995.712 323.778H1000.47V323.198C1000.47 322.27 1000.18 321.535 999.598 320.994C999.018 320.433 998.119 320.153 996.901 320.153C994.774 320.153 993.643 320.859 993.508 322.27H991.043C991.14 320.936 991.71 319.892 992.754 319.138C993.817 318.384 995.18 318.007 996.843 318.007C998.718 318.007 1000.19 318.442 1001.25 319.312C1002.33 320.182 1002.88 321.429 1002.88 323.053V333H1000.56ZM995.973 331.231C997.191 331.231 998.245 330.835 999.134 330.042C1000.02 329.23 1000.47 328.244 1000.47 327.084V325.75H996.089C993.75 325.75 992.58 326.678 992.58 328.534C992.58 329.365 992.87 330.023 993.45 330.506C994.049 330.989 994.89 331.231 995.973 331.231ZM1007.39 311.917H1009.85V333H1007.39V311.917ZM1014.61 311.917H1017.08V333H1014.61V311.917ZM1025.78 338.8H1023.28L1026.3 331.637L1020.06 318.384H1022.7L1027.17 328.012H1027.89L1031.95 318.384H1034.53L1025.78 338.8ZM1054.38 311.917C1057.42 311.917 1059.79 312.932 1061.49 314.962C1063.19 316.992 1064.04 319.554 1064.04 322.647C1064.04 325.74 1063.19 328.302 1061.49 330.332C1059.79 332.362 1057.42 333.377 1054.38 333.377C1051.33 333.377 1048.95 332.372 1047.25 330.361C1045.57 328.331 1044.72 325.76 1044.72 322.647C1044.72 319.534 1045.57 316.973 1047.25 314.962C1048.95 312.932 1051.33 311.917 1054.38 311.917ZM1049.13 328.592C1050.31 330.197 1052.06 330.999 1054.38 330.999C1056.7 330.999 1058.45 330.197 1059.63 328.592C1060.81 326.987 1061.4 325.006 1061.4 322.647C1061.4 320.288 1060.81 318.307 1059.63 316.702C1058.45 315.097 1056.7 314.295 1054.38 314.295C1052.06 314.295 1050.31 315.097 1049.13 316.702C1047.95 318.307 1047.36 320.288 1047.36 322.647C1047.36 325.006 1047.95 326.987 1049.13 328.592ZM1074.17 323.169H1077.3L1079.74 330.39H1080.38L1082.06 318.384H1084.44L1082.32 333H1078.55L1076 325.605H1075.39L1072.84 333H1069.01L1066.92 318.384H1069.3L1071.04 330.39H1071.68L1074.17 323.169ZM1101.07 333H1098.6V324.242C1098.6 321.555 1097.36 320.211 1094.89 320.211C1093.61 320.211 1092.57 320.694 1091.76 321.661C1090.94 322.608 1090.54 323.749 1090.54 325.083V333H1088.07V318.384H1090.45V319.95H1091.09C1091.51 319.37 1092.11 318.906 1092.89 318.558C1093.66 318.191 1094.53 318.007 1095.5 318.007C1097.28 318.007 1098.65 318.519 1099.62 319.544C1100.58 320.549 1101.07 321.941 1101.07 323.72V333ZM1118.25 324.822V325.663H1107.11C1107.15 327.422 1107.57 328.795 1108.36 329.781C1109.15 330.748 1110.29 331.231 1111.78 331.231C1113.79 331.231 1115.03 330.477 1115.49 328.969H1117.99C1117.74 330.284 1117.07 331.347 1115.99 332.159C1114.92 332.971 1113.52 333.377 1111.78 333.377C1109.56 333.377 1107.82 332.652 1106.56 331.202C1105.3 329.752 1104.68 327.867 1104.68 325.547C1104.68 323.266 1105.3 321.439 1106.56 320.066C1107.82 318.693 1109.54 318.007 1111.72 318.007C1113.79 318.007 1115.39 318.664 1116.51 319.979C1117.63 321.274 1118.21 322.889 1118.25 324.822ZM1111.67 320.153C1110.41 320.153 1109.4 320.482 1108.65 321.139C1107.9 321.777 1107.43 322.599 1107.26 323.604H1115.7C1115.62 322.618 1115.22 321.796 1114.51 321.139C1113.79 320.482 1112.84 320.153 1111.67 320.153ZM1132.7 311.917H1135.17V333H1132.79V331.434H1132.15C1131.11 332.729 1129.59 333.377 1127.6 333.377C1125.62 333.377 1124.06 332.652 1122.9 331.202C1121.76 329.752 1121.19 327.915 1121.19 325.692C1121.19 323.43 1121.76 321.584 1122.9 320.153C1124.06 318.722 1125.62 318.007 1127.6 318.007C1129.57 318.007 1131.06 318.655 1132.06 319.95H1132.7V311.917ZM1128.15 331.231C1129.67 331.231 1130.82 330.699 1131.57 329.636C1132.34 328.573 1132.73 327.258 1132.73 325.692C1132.73 324.126 1132.34 322.811 1131.57 321.748C1130.82 320.685 1129.67 320.153 1128.15 320.153C1126.72 320.153 1125.6 320.665 1124.81 321.69C1124.04 322.695 1123.65 324.029 1123.65 325.692C1123.65 327.355 1124.04 328.698 1124.81 329.723C1125.6 330.728 1126.72 331.231 1128.15 331.231ZM976.4 371L974.254 364.649H965.177L963.031 371H960.363L967.526 350.294H971.934L979.126 371H976.4ZM969.121 352.962L965.96 362.271H973.442L970.281 352.962H969.121ZM991.959 366.592H994.424C994.134 368.061 993.448 369.231 992.365 370.101C991.302 370.952 989.939 371.377 988.276 371.377C986.072 371.377 984.332 370.662 983.056 369.231C981.8 367.781 981.171 365.935 981.171 363.692C981.171 361.43 981.8 359.584 983.056 358.153C984.313 356.722 986.053 356.007 988.276 356.007C989.958 356.007 991.321 356.432 992.365 357.283C993.429 358.114 994.086 359.226 994.337 360.618H991.872C991.35 358.975 990.152 358.153 988.276 358.153C986.71 358.153 985.541 358.675 984.767 359.719C984.013 360.744 983.636 362.049 983.636 363.634C983.636 365.239 984.023 366.573 984.796 367.636C985.57 368.699 986.73 369.231 988.276 369.231C990.326 369.231 991.553 368.351 991.959 366.592ZM1007.99 366.592H1010.45C1010.16 368.061 1009.48 369.231 1008.39 370.101C1007.33 370.952 1005.97 371.377 1004.31 371.377C1002.1 371.377 1000.36 370.662 999.086 369.231C997.829 367.781 997.201 365.935 997.201 363.692C997.201 361.43 997.829 359.584 999.086 358.153C1000.34 356.722 1002.08 356.007 1004.31 356.007C1005.99 356.007 1007.35 356.432 1008.39 357.283C1009.46 358.114 1010.12 359.226 1010.37 360.618H1007.9C1007.38 358.975 1006.18 358.153 1004.31 358.153C1002.74 358.153 1001.57 358.675 1000.8 359.719C1000.04 360.744 999.666 362.049 999.666 363.634C999.666 365.239 1000.05 366.573 1000.83 367.636C1001.6 368.699 1002.76 369.231 1004.31 369.231C1006.36 369.231 1007.58 368.351 1007.99 366.592ZM1015.14 358.182C1016.44 356.732 1018.2 356.007 1020.42 356.007C1022.65 356.007 1024.39 356.732 1025.67 358.182C1026.97 359.632 1027.61 361.469 1027.61 363.692C1027.61 365.915 1026.97 367.752 1025.67 369.202C1024.39 370.652 1022.65 371.377 1020.42 371.377C1018.2 371.377 1016.44 370.652 1015.14 369.202C1013.87 367.752 1013.23 365.915 1013.23 363.692C1013.23 361.469 1013.87 359.632 1015.14 358.182ZM1016.91 367.636C1017.72 368.699 1018.89 369.231 1020.42 369.231C1021.95 369.231 1023.12 368.699 1023.93 367.636C1024.74 366.553 1025.15 365.239 1025.15 363.692C1025.15 362.145 1024.74 360.84 1023.93 359.777C1023.12 358.694 1021.95 358.153 1020.42 358.153C1018.89 358.153 1017.72 358.694 1016.91 359.777C1016.1 360.84 1015.69 362.145 1015.69 363.692C1015.69 365.239 1016.1 366.553 1016.91 367.636ZM1031.23 356.384H1033.69V365.142C1033.69 367.829 1034.93 369.173 1037.41 369.173C1038.66 369.173 1039.7 368.699 1040.51 367.752C1041.34 366.805 1041.76 365.654 1041.76 364.301V356.384H1044.22V371H1041.84V369.434H1041.21C1040.78 370.014 1040.18 370.488 1039.41 370.855C1038.63 371.203 1037.76 371.377 1036.8 371.377C1035.02 371.377 1033.65 370.874 1032.68 369.869C1031.71 368.844 1031.23 367.443 1031.23 365.664V356.384ZM1061.95 371H1059.49V362.242C1059.49 359.555 1058.25 358.211 1055.78 358.211C1054.5 358.211 1053.46 358.694 1052.65 359.661C1051.83 360.608 1051.43 361.749 1051.43 363.083V371H1048.96V356.384H1051.34V357.95H1051.98C1052.4 357.37 1053 356.906 1053.78 356.558C1054.55 356.191 1055.42 356.007 1056.39 356.007C1058.17 356.007 1059.54 356.519 1060.5 357.544C1061.47 358.549 1061.95 359.941 1061.95 361.72V371ZM1069.86 356.384H1073.54V358.53H1069.86V366.563C1069.86 367.336 1070.05 367.907 1070.44 368.274C1070.84 368.622 1071.52 368.796 1072.47 368.796H1073.54V371H1072.41C1070.75 371 1069.49 370.691 1068.64 370.072C1067.81 369.453 1067.39 368.4 1067.39 366.911V358.53H1064.87V356.384H1067.39V351.976H1069.86V356.384Z" fill="black"/>
<path d="M25.6992 330.622H37.9662V333H23.0892V312.294H37.5022V314.672H25.6992V321.081H35.2112V323.459H25.6992V330.622ZM51.5192 333L47.8942 326.881H46.8502L43.1382 333H40.4412L44.9942 325.518L40.9052 318.384H43.5152L46.8792 324.184H47.9232L51.3452 318.384H53.9262L49.7792 325.431L54.3032 333H51.5192ZM61.1401 318.384H64.8231V320.53H61.1401V328.563C61.1401 329.336 61.3335 329.907 61.7201 330.274C62.1261 330.622 62.8028 330.796 63.7501 330.796H64.8231V333H63.6921C62.0295 333 60.7728 332.691 59.9221 332.072C59.0908 331.453 58.6751 330.4 58.6751 328.911V320.53H56.1521V318.384H58.6751V313.976H61.1401V318.384ZM81.3235 324.822V325.663H70.1875C70.2261 327.422 70.6418 328.795 71.4345 329.781C72.2271 330.748 73.3678 331.231 74.8565 331.231C76.8671 331.231 78.1045 330.477 78.5685 328.969H81.0625C80.8111 330.284 80.1441 331.347 79.0615 332.159C77.9981 332.971 76.5965 333.377 74.8565 333.377C72.6331 333.377 70.8931 332.652 69.6365 331.202C68.3798 329.752 67.7515 327.867 67.7515 325.547C67.7515 323.266 68.3798 321.439 69.6365 320.066C70.8931 318.693 72.6138 318.007 74.7985 318.007C76.8671 318.007 78.4621 318.664 79.5835 319.979C80.7048 321.274 81.2848 322.889 81.3235 324.822ZM74.7405 320.153C73.4838 320.153 72.4785 320.482 71.7245 321.139C70.9705 321.777 70.5065 322.599 70.3325 323.604H78.7715C78.6941 322.618 78.2978 321.796 77.5825 321.139C76.8671 320.482 75.9198 320.153 74.7405 320.153ZM93.5132 318.384V320.704H92.2952C90.8259 320.704 89.6755 321.139 88.8442 322.009C88.0322 322.879 87.6262 324.107 87.6262 325.692V333H85.1612V318.384H87.5392V320.124H88.1772C89.1052 318.964 90.5165 318.384 92.4112 318.384H93.5132ZM109.736 333H107.271V324.242C107.271 321.555 106.034 320.211 103.559 320.211C102.283 320.211 101.239 320.694 100.427 321.661C99.6152 322.608 99.2092 323.749 99.2092 325.083V333H96.7442V318.384H99.1222V319.95H99.7602C100.186 319.37 100.785 318.906 101.558 318.558C102.332 318.191 103.202 318.007 104.168 318.007C105.947 318.007 107.32 318.519 108.286 319.544C109.253 320.549 109.736 321.941 109.736 323.72V333ZM123.555 333V331.463H122.917C121.912 332.739 120.394 333.377 118.364 333.377C116.759 333.377 115.483 332.913 114.536 331.985C113.589 331.057 113.115 329.936 113.115 328.621C113.115 327.287 113.579 326.146 114.507 325.199C115.435 324.252 116.837 323.778 118.712 323.778H123.468V323.198C123.468 322.27 123.178 321.535 122.598 320.994C122.018 320.433 121.119 320.153 119.901 320.153C117.774 320.153 116.643 320.859 116.508 322.27H114.043C114.14 320.936 114.71 319.892 115.754 319.138C116.817 318.384 118.18 318.007 119.843 318.007C121.718 318.007 123.188 318.442 124.251 319.312C125.334 320.182 125.875 321.429 125.875 323.053V333H123.555ZM118.973 331.231C120.191 331.231 121.245 330.835 122.134 330.042C123.023 329.23 123.468 328.244 123.468 327.084V325.75H119.089C116.75 325.75 115.58 326.678 115.58 328.534C115.58 329.365 115.87 330.023 116.45 330.506C117.049 330.989 117.89 331.231 118.973 331.231ZM130.389 311.917H132.854V333H130.389V311.917ZM137.61 311.917H140.075V333H137.61V311.917ZM148.776 338.8H146.282L149.298 331.637L143.063 318.384H145.702L150.168 328.012H150.893L154.953 318.384H157.534L148.776 338.8ZM177.382 311.917C180.417 311.917 182.786 312.932 184.487 314.962C186.188 316.992 187.039 319.554 187.039 322.647C187.039 325.74 186.188 328.302 184.487 330.332C182.786 332.362 180.417 333.377 177.382 333.377C174.327 333.377 171.949 332.372 170.248 330.361C168.566 328.331 167.725 325.76 167.725 322.647C167.725 319.534 168.566 316.973 170.248 314.962C171.949 312.932 174.327 311.917 177.382 311.917ZM172.133 328.592C173.312 330.197 175.062 330.999 177.382 330.999C179.702 330.999 181.452 330.197 182.631 328.592C183.81 326.987 184.4 325.006 184.4 322.647C184.4 320.288 183.81 318.307 182.631 316.702C181.452 315.097 179.702 314.295 177.382 314.295C175.062 314.295 173.312 315.097 172.133 316.702C170.954 318.307 170.364 320.288 170.364 322.647C170.364 325.006 170.954 326.987 172.133 328.592ZM197.171 323.169H200.303L202.739 330.39H203.377L205.059 318.384H207.437L205.32 333H201.55L198.998 325.605H198.389L195.837 333H192.009L189.921 318.384H192.299L194.039 330.39H194.677L197.171 323.169ZM224.065 333H221.6V324.242C221.6 321.555 220.363 320.211 217.888 320.211C216.612 320.211 215.568 320.694 214.756 321.661C213.944 322.608 213.538 323.749 213.538 325.083V333H211.073V318.384H213.451V319.95H214.089C214.515 319.37 215.114 318.906 215.887 318.558C216.661 318.191 217.531 318.007 218.497 318.007C220.276 318.007 221.649 318.519 222.615 319.544C223.582 320.549 224.065 321.941 224.065 323.72V333ZM241.248 324.822V325.663H230.112C230.151 327.422 230.567 328.795 231.359 329.781C232.152 330.748 233.293 331.231 234.781 331.231C236.792 331.231 238.029 330.477 238.493 328.969H240.987C240.736 330.284 240.069 331.347 238.986 332.159C237.923 332.971 236.521 333.377 234.781 333.377C232.558 333.377 230.818 332.652 229.561 331.202C228.305 329.752 227.676 327.867 227.676 325.547C227.676 323.266 228.305 321.439 229.561 320.066C230.818 318.693 232.539 318.007 234.723 318.007C236.792 318.007 238.387 318.664 239.508 319.979C240.63 321.274 241.21 322.889 241.248 324.822ZM234.665 320.153C233.409 320.153 232.403 320.482 231.649 321.139C230.895 321.777 230.431 322.599 230.257 323.604H238.696C238.619 322.618 238.223 321.796 237.507 321.139C236.792 320.482 235.845 320.153 234.665 320.153ZM255.7 311.917H258.165V333H255.787V331.434H255.149C254.105 332.729 252.587 333.377 250.596 333.377C248.624 333.377 247.058 332.652 245.898 331.202C244.757 329.752 244.187 327.915 244.187 325.692C244.187 323.43 244.757 321.584 245.898 320.153C247.058 318.722 248.624 318.007 250.596 318.007C252.568 318.007 254.057 318.655 255.062 319.95H255.7V311.917ZM251.147 331.231C252.674 331.231 253.815 330.699 254.569 329.636C255.342 328.573 255.729 327.258 255.729 325.692C255.729 324.126 255.342 322.811 254.569 321.748C253.815 320.685 252.674 320.153 251.147 320.153C249.716 320.153 248.605 320.665 247.812 321.69C247.039 322.695 246.652 324.029 246.652 325.692C246.652 327.355 247.039 328.698 247.812 329.723C248.605 330.728 249.716 331.231 251.147 331.231ZM99.4002 371L97.2542 364.649H88.1772L86.0312 371H83.3632L90.5262 350.294H94.9342L102.126 371H99.4002ZM92.1212 352.962L88.9602 362.271H96.4422L93.2812 352.962H92.1212ZM114.959 366.592H117.424C117.134 368.061 116.448 369.231 115.365 370.101C114.302 370.952 112.939 371.377 111.276 371.377C109.072 371.377 107.332 370.662 106.056 369.231C104.8 367.781 104.171 365.935 104.171 363.692C104.171 361.43 104.8 359.584 106.056 358.153C107.313 356.722 109.053 356.007 111.276 356.007C112.958 356.007 114.321 356.432 115.365 357.283C116.429 358.114 117.086 359.226 117.337 360.618H114.872C114.35 358.975 113.152 358.153 111.276 358.153C109.71 358.153 108.541 358.675 107.767 359.719C107.013 360.744 106.636 362.049 106.636 363.634C106.636 365.239 107.023 366.573 107.796 367.636C108.57 368.699 109.73 369.231 111.276 369.231C113.326 369.231 114.553 368.351 114.959 366.592ZM130.989 366.592H133.454C133.164 368.061 132.477 369.231 131.395 370.101C130.331 370.952 128.968 371.377 127.306 371.377C125.102 371.377 123.362 370.662 122.086 369.231C120.829 367.781 120.201 365.935 120.201 363.692C120.201 361.43 120.829 359.584 122.086 358.153C123.342 356.722 125.082 356.007 127.306 356.007C128.988 356.007 130.351 356.432 131.395 357.283C132.458 358.114 133.115 359.226 133.367 360.618H130.902C130.38 358.975 129.181 358.153 127.306 358.153C125.74 358.153 124.57 358.675 123.797 359.719C123.043 360.744 122.666 362.049 122.666 363.634C122.666 365.239 123.052 366.573 123.826 367.636C124.599 368.699 125.759 369.231 127.306 369.231C129.355 369.231 130.583 368.351 130.989 366.592ZM138.144 358.182C139.439 356.732 141.199 356.007 143.422 356.007C145.645 356.007 147.395 356.732 148.671 358.182C149.966 359.632 150.614 361.469 150.614 363.692C150.614 365.915 149.966 367.752 148.671 369.202C147.395 370.652 145.645 371.377 143.422 371.377C141.199 371.377 139.439 370.652 138.144 369.202C136.868 367.752 136.23 365.915 136.23 363.692C136.23 361.469 136.868 359.632 138.144 358.182ZM139.913 367.636C140.725 368.699 141.895 369.231 143.422 369.231C144.949 369.231 146.119 368.699 146.931 367.636C147.743 366.553 148.149 365.239 148.149 363.692C148.149 362.145 147.743 360.84 146.931 359.777C146.119 358.694 144.949 358.153 143.422 358.153C141.895 358.153 140.725 358.694 139.913 359.777C139.101 360.84 138.695 362.145 138.695 363.692C138.695 365.239 139.101 366.553 139.913 367.636ZM154.229 356.384H156.694V365.142C156.694 367.829 157.931 369.173 160.406 369.173C161.663 369.173 162.697 368.699 163.509 367.752C164.34 366.805 164.756 365.654 164.756 364.301V356.384H167.221V371H164.843V369.434H164.205C163.78 370.014 163.18 370.488 162.407 370.855C161.634 371.203 160.764 371.377 159.797 371.377C158.018 371.377 156.646 370.874 155.679 369.869C154.712 368.844 154.229 367.443 154.229 365.664V356.384ZM184.955 371H182.49V362.242C182.49 359.555 181.253 358.211 178.778 358.211C177.502 358.211 176.458 358.694 175.646 359.661C174.834 360.608 174.428 361.749 174.428 363.083V371H171.963V356.384H174.341V357.95H174.979C175.404 357.37 176.004 356.906 176.777 356.558C177.55 356.191 178.42 356.007 179.387 356.007C181.166 356.007 182.538 356.519 183.505 357.544C184.472 358.549 184.955 359.941 184.955 361.72V371ZM192.858 356.384H196.541V358.53H192.858V366.563C192.858 367.336 193.051 367.907 193.438 368.274C193.844 368.622 194.521 368.796 195.468 368.796H196.541V371H195.41C193.747 371 192.491 370.691 191.64 370.072C190.809 369.453 190.393 368.4 190.393 366.911V358.53H187.87V356.384H190.393V351.976H192.858V356.384Z" fill="black"/>
<path d="M481.714 320.617C482.487 320.733 483.792 320.994 485.629 321.4C487.292 321.767 488.568 322.415 489.457 323.343C490.366 324.252 490.82 325.547 490.82 327.229C490.82 328.969 490.134 330.429 488.761 331.608C487.408 332.787 485.484 333.377 482.99 333.377C480.612 333.377 478.669 332.807 477.161 331.666C475.653 330.525 474.822 329.046 474.667 327.229H477.306C477.519 328.544 478.147 329.501 479.191 330.1C480.235 330.699 481.54 330.999 483.106 330.999C484.595 330.999 485.813 330.67 486.76 330.013C487.707 329.356 488.181 328.447 488.181 327.287C488.181 326.243 487.881 325.46 487.282 324.938C486.683 324.397 485.813 324 484.672 323.749C484.343 323.672 483.667 323.536 482.642 323.343C481.617 323.13 480.931 322.985 480.583 322.908C477.238 322.231 475.566 320.482 475.566 317.659C475.566 315.996 476.214 314.624 477.509 313.541C478.804 312.458 480.583 311.917 482.845 311.917C484.952 311.917 486.673 312.429 488.007 313.454C489.341 314.459 490.124 315.813 490.356 317.514H487.717C487.214 315.368 485.571 314.295 482.787 314.295C481.472 314.295 480.38 314.585 479.51 315.165C478.64 315.745 478.205 316.557 478.205 317.601C478.205 318.51 478.514 319.186 479.133 319.631C479.771 320.056 480.631 320.385 481.714 320.617ZM510.252 318.007C511.876 318.007 513.084 318.5 513.877 319.486C514.669 320.453 515.066 321.806 515.066 323.546V333H512.601V323.807C512.601 321.41 511.663 320.211 509.788 320.211C508.666 320.211 507.787 320.607 507.149 321.4C506.53 322.173 506.221 323.188 506.221 324.445V333H503.756V323.865C503.756 321.429 502.828 320.211 500.972 320.211C499.792 320.211 498.893 320.646 498.275 321.516C497.675 322.386 497.376 323.517 497.376 324.909V333H494.911V318.384H497.289V319.805H497.927C498.7 318.606 499.937 318.007 501.639 318.007C503.437 318.007 504.722 318.655 505.496 319.95H506.134C507.023 318.655 508.396 318.007 510.252 318.007ZM528.887 333V331.463H528.249C527.243 332.739 525.726 333.377 523.696 333.377C522.091 333.377 520.815 332.913 519.868 331.985C518.92 331.057 518.447 329.936 518.447 328.621C518.447 327.287 518.911 326.146 519.839 325.199C520.767 324.252 522.168 323.778 524.044 323.778H528.8V323.198C528.8 322.27 528.51 321.535 527.93 320.994C527.35 320.433 526.451 320.153 525.233 320.153C523.106 320.153 521.975 320.859 521.84 322.27H519.375C519.471 320.936 520.042 319.892 521.086 319.138C522.149 318.384 523.512 318.007 525.175 318.007C527.05 318.007 528.519 318.442 529.583 319.312C530.665 320.182 531.207 321.429 531.207 323.053V333H528.887ZM524.305 331.231C525.523 331.231 526.576 330.835 527.466 330.042C528.355 329.23 528.8 328.244 528.8 327.084V325.75H524.421C522.081 325.75 520.912 326.678 520.912 328.534C520.912 329.365 521.202 330.023 521.782 330.506C522.381 330.989 523.222 331.231 524.305 331.231ZM544.072 318.384V320.704H542.854C541.385 320.704 540.235 321.139 539.403 322.009C538.591 322.879 538.185 324.107 538.185 325.692V333H535.72V318.384H538.098V320.124H538.736C539.664 318.964 541.076 318.384 542.97 318.384H544.072ZM551.631 318.384H555.314V320.53H551.631V328.563C551.631 329.336 551.824 329.907 552.211 330.274C552.617 330.622 553.294 330.796 554.241 330.796H555.314V333H554.183C552.52 333 551.264 332.691 550.413 332.072C549.582 331.453 549.166 330.4 549.166 328.911V320.53H546.643V318.384H549.166V313.976H551.631V318.384ZM581.678 327.113H584.433C583.988 329.027 583.06 330.554 581.649 331.695C580.238 332.816 578.43 333.377 576.226 333.377C573.21 333.377 570.861 332.381 569.179 330.39C567.497 328.399 566.656 325.818 566.656 322.647C566.656 319.476 567.507 316.895 569.208 314.904C570.909 312.913 573.258 311.917 576.255 311.917C578.343 311.917 580.083 312.439 581.475 313.483C582.867 314.508 583.776 315.919 584.201 317.717H581.446C580.634 315.436 578.904 314.295 576.255 314.295C573.974 314.295 572.243 315.097 571.064 316.702C569.885 318.307 569.295 320.288 569.295 322.647C569.295 325.025 569.875 327.016 571.035 328.621C572.214 330.206 573.945 330.999 576.226 330.999C577.657 330.999 578.836 330.661 579.764 329.984C580.692 329.288 581.33 328.331 581.678 327.113ZM589.269 320.182C590.565 318.732 592.324 318.007 594.547 318.007C596.771 318.007 598.52 318.732 599.796 320.182C601.092 321.632 601.739 323.469 601.739 325.692C601.739 327.915 601.092 329.752 599.796 331.202C598.52 332.652 596.771 333.377 594.547 333.377C592.324 333.377 590.565 332.652 589.269 331.202C587.993 329.752 587.355 327.915 587.355 325.692C587.355 323.469 587.993 321.632 589.269 320.182ZM591.038 329.636C591.85 330.699 593.02 331.231 594.547 331.231C596.075 331.231 597.244 330.699 598.056 329.636C598.868 328.553 599.274 327.239 599.274 325.692C599.274 324.145 598.868 322.84 598.056 321.777C597.244 320.694 596.075 320.153 594.547 320.153C593.02 320.153 591.85 320.694 591.038 321.777C590.226 322.84 589.82 324.145 589.82 325.692C589.82 327.239 590.226 328.553 591.038 329.636ZM618.578 333H616.113V324.242C616.113 321.555 614.876 320.211 612.401 320.211C611.125 320.211 610.081 320.694 609.269 321.661C608.457 322.608 608.051 323.749 608.051 325.083V333H605.586V318.384H607.964V319.95H608.602C609.028 319.37 609.627 318.906 610.4 318.558C611.174 318.191 612.044 318.007 613.01 318.007C614.789 318.007 616.162 318.519 617.128 319.544C618.095 320.549 618.578 321.941 618.578 323.72V333ZM626.481 318.384H630.164V320.53H626.481V328.563C626.481 329.336 626.675 329.907 627.061 330.274C627.467 330.622 628.144 330.796 629.091 330.796H630.164V333H629.033C627.371 333 626.114 332.691 625.263 332.072C624.432 331.453 624.016 330.4 624.016 328.911V320.53H621.493V318.384H624.016V313.976H626.481V318.384ZM642.57 318.384V320.704H641.352C639.883 320.704 638.733 321.139 637.901 322.009C637.089 322.879 636.683 324.107 636.683 325.692V333H634.218V318.384H636.596V320.124H637.234C638.162 318.964 639.574 318.384 641.468 318.384H642.57ZM655.11 333V331.463H654.472C653.467 332.739 651.949 333.377 649.919 333.377C648.315 333.377 647.039 332.913 646.091 331.985C645.144 331.057 644.67 329.936 644.67 328.621C644.67 327.287 645.134 326.146 646.062 325.199C646.99 324.252 648.392 323.778 650.267 323.778H655.023V323.198C655.023 322.27 654.733 321.535 654.153 320.994C653.573 320.433 652.674 320.153 651.456 320.153C649.33 320.153 648.199 320.859 648.063 322.27H645.598C645.695 320.936 646.265 319.892 647.309 319.138C648.373 318.384 649.736 318.007 651.398 318.007C653.274 318.007 654.743 318.442 655.806 319.312C656.889 320.182 657.43 321.429 657.43 323.053V333H655.11ZM650.528 331.231C651.746 331.231 652.8 330.835 653.689 330.042C654.579 329.23 655.023 328.244 655.023 327.084V325.75H650.644C648.305 325.75 647.135 326.678 647.135 328.534C647.135 329.365 647.425 330.023 648.005 330.506C648.605 330.989 649.446 331.231 650.528 331.231ZM671.833 328.592H674.298C674.008 330.061 673.322 331.231 672.239 332.101C671.176 332.952 669.813 333.377 668.15 333.377C665.946 333.377 664.206 332.662 662.93 331.231C661.673 329.781 661.045 327.935 661.045 325.692C661.045 323.43 661.673 321.584 662.93 320.153C664.187 318.722 665.927 318.007 668.15 318.007C669.832 318.007 671.195 318.432 672.239 319.283C673.302 320.114 673.96 321.226 674.211 322.618H671.746C671.224 320.975 670.025 320.153 668.15 320.153C666.584 320.153 665.414 320.675 664.641 321.719C663.887 322.744 663.51 324.049 663.51 325.634C663.51 327.239 663.897 328.573 664.67 329.636C665.443 330.699 666.603 331.231 668.15 331.231C670.199 331.231 671.427 330.351 671.833 328.592ZM681.366 318.384H685.049V320.53H681.366V328.563C681.366 329.336 681.56 329.907 681.946 330.274C682.352 330.622 683.029 330.796 683.976 330.796H685.049V333H683.918C682.256 333 680.999 332.691 680.148 332.072C679.317 331.453 678.901 330.4 678.901 328.911V320.53H676.378V318.384H678.901V313.976H681.366V318.384ZM538.9 371L536.754 364.649H527.677L525.531 371H522.863L530.026 350.294H534.434L541.626 371H538.9ZM531.621 352.962L528.46 362.271H535.942L532.781 352.962H531.621ZM554.459 366.592H556.924C556.634 368.061 555.948 369.231 554.865 370.101C553.802 370.952 552.439 371.377 550.776 371.377C548.572 371.377 546.832 370.662 545.556 369.231C544.3 367.781 543.671 365.935 543.671 363.692C543.671 361.43 544.3 359.584 545.556 358.153C546.813 356.722 548.553 356.007 550.776 356.007C552.458 356.007 553.821 356.432 554.865 357.283C555.929 358.114 556.586 359.226 556.837 360.618H554.372C553.85 358.975 552.652 358.153 550.776 358.153C549.21 358.153 548.041 358.675 547.267 359.719C546.513 360.744 546.136 362.049 546.136 363.634C546.136 365.239 546.523 366.573 547.296 367.636C548.07 368.699 549.23 369.231 550.776 369.231C552.826 369.231 554.053 368.351 554.459 366.592ZM570.489 366.592H572.954C572.664 368.061 571.977 369.231 570.895 370.101C569.831 370.952 568.468 371.377 566.806 371.377C564.602 371.377 562.862 370.662 561.586 369.231C560.329 367.781 559.701 365.935 559.701 363.692C559.701 361.43 560.329 359.584 561.586 358.153C562.842 356.722 564.582 356.007 566.806 356.007C568.488 356.007 569.851 356.432 570.895 357.283C571.958 358.114 572.615 359.226 572.867 360.618H570.402C569.88 358.975 568.681 358.153 566.806 358.153C565.24 358.153 564.07 358.675 563.297 359.719C562.543 360.744 562.166 362.049 562.166 363.634C562.166 365.239 562.552 366.573 563.326 367.636C564.099 368.699 565.259 369.231 566.806 369.231C568.855 369.231 570.083 368.351 570.489 366.592ZM577.644 358.182C578.939 356.732 580.699 356.007 582.922 356.007C585.145 356.007 586.895 356.732 588.171 358.182C589.466 359.632 590.114 361.469 590.114 363.692C590.114 365.915 589.466 367.752 588.171 369.202C586.895 370.652 585.145 371.377 582.922 371.377C580.699 371.377 578.939 370.652 577.644 369.202C576.368 367.752 575.73 365.915 575.73 363.692C575.73 361.469 576.368 359.632 577.644 358.182ZM579.413 367.636C580.225 368.699 581.395 369.231 582.922 369.231C584.449 369.231 585.619 368.699 586.431 367.636C587.243 366.553 587.649 365.239 587.649 363.692C587.649 362.145 587.243 360.84 586.431 359.777C585.619 358.694 584.449 358.153 582.922 358.153C581.395 358.153 580.225 358.694 579.413 359.777C578.601 360.84 578.195 362.145 578.195 363.692C578.195 365.239 578.601 366.553 579.413 367.636ZM593.729 356.384H596.194V365.142C596.194 367.829 597.431 369.173 599.906 369.173C601.163 369.173 602.197 368.699 603.009 367.752C603.84 366.805 604.256 365.654 604.256 364.301V356.384H606.721V371H604.343V369.434H603.705C603.28 370.014 602.68 370.488 601.907 370.855C601.134 371.203 600.264 371.377 599.297 371.377C597.518 371.377 596.146 370.874 595.179 369.869C594.212 368.844 593.729 367.443 593.729 365.664V356.384ZM624.455 371H621.99V362.242C621.99 359.555 620.753 358.211 618.278 358.211C617.002 358.211 615.958 358.694 615.146 359.661C614.334 360.608 613.928 361.749 613.928 363.083V371H611.463V356.384H613.841V357.95H614.479C614.904 357.37 615.504 356.906 616.277 356.558C617.05 356.191 617.92 356.007 618.887 356.007C620.666 356.007 622.038 356.519 623.005 357.544C623.972 358.549 624.455 359.941 624.455 361.72V371ZM632.358 356.384H636.041V358.53H632.358V366.563C632.358 367.336 632.551 367.907 632.938 368.274C633.344 368.622 634.021 368.796 634.968 368.796H636.041V371H634.91C633.247 371 631.991 370.691 631.14 370.072C630.309 369.453 629.893 368.4 629.893 366.911V358.53H627.37V356.384H629.893V351.976H632.358V356.384Z" fill="black"/>
<path d="M63.2163 268.802C64.4297 267.225 66.0503 266.436 68.0783 266.436C70.1063 266.436 71.727 267.233 72.9403 268.828C74.171 270.405 74.7863 272.763 74.7863 275.9C74.7863 279.037 74.171 281.395 72.9403 282.972C71.727 284.549 70.1063 285.338 68.0783 285.338C66.0503 285.338 64.4297 284.549 63.2163 282.972C62.003 281.395 61.3963 279.037 61.3963 275.9C61.3963 272.745 62.003 270.379 63.2163 268.802ZM63.6843 275.9C63.6843 278.101 63.9963 279.817 64.6203 281.048L70.3923 269.244C69.751 268.724 68.9797 268.464 68.0783 268.464C66.605 268.464 65.5043 269.123 64.7763 270.44C64.0483 271.74 63.6843 273.56 63.6843 275.9ZM68.0783 283.31C69.5517 283.31 70.6523 282.66 71.3803 281.36C72.1257 280.043 72.4983 278.223 72.4983 275.9C72.4983 273.751 72.1863 272.043 71.5623 270.778L65.8163 282.582C66.423 283.067 67.177 283.31 68.0783 283.31ZM87.1593 285L83.9093 279.514H82.9733L79.6453 285H77.2273L81.3093 278.292L77.6433 271.896H79.9833L82.9993 277.096H83.9353L87.0033 271.896H89.3173L85.5993 278.214L89.6553 285H87.1593ZM94.849 271.818H92.561C92.665 270.067 93.2717 268.733 94.381 267.814C95.5077 266.895 96.9203 266.436 98.619 266.436C100.387 266.436 101.808 266.921 102.883 267.892C103.975 268.845 104.521 270.206 104.521 271.974C104.521 274.123 103.178 276.316 100.491 278.552L95.915 282.4V282.972H105.093V285H92.587V282.426L95.265 280.242C96.929 278.907 98.307 277.737 99.399 276.732C99.815 276.368 100.144 276.056 100.387 275.796C100.647 275.536 100.933 275.198 101.245 274.782C101.574 274.349 101.817 273.898 101.973 273.43C102.146 272.962 102.233 272.477 102.233 271.974C102.233 270.847 101.904 269.981 101.245 269.374C100.586 268.767 99.6937 268.464 98.567 268.464C97.5097 268.464 96.6517 268.75 95.993 269.322C95.3517 269.877 94.9703 270.709 94.849 271.818ZM109.77 266.8H120.404V269.348L115.854 273.248V273.794C117.466 273.829 118.766 274.331 119.754 275.302C120.759 276.273 121.262 277.616 121.262 279.332C121.262 281.187 120.664 282.651 119.468 283.726C118.272 284.801 116.729 285.338 114.84 285.338C113.02 285.338 111.529 284.827 110.368 283.804C109.207 282.781 108.574 281.481 108.47 279.904H110.758C110.862 280.927 111.287 281.75 112.032 282.374C112.795 282.998 113.731 283.31 114.84 283.31C116.105 283.31 117.111 282.955 117.856 282.244C118.601 281.533 118.974 280.563 118.974 279.332C118.974 278.119 118.619 277.174 117.908 276.498C117.197 275.805 116.183 275.458 114.866 275.458C114.225 275.458 113.696 275.51 113.28 275.614V273.196L117.726 269.348V268.776H109.77V266.8ZM133.843 285V283.622H133.271C132.37 284.766 131.009 285.338 129.189 285.338C127.75 285.338 126.606 284.922 125.757 284.09C124.908 283.258 124.483 282.253 124.483 281.074C124.483 279.878 124.899 278.855 125.731 278.006C126.563 277.157 127.82 276.732 129.501 276.732H133.765V276.212C133.765 275.38 133.505 274.721 132.985 274.236C132.465 273.733 131.659 273.482 130.567 273.482C128.66 273.482 127.646 274.115 127.525 275.38H125.315C125.402 274.184 125.913 273.248 126.849 272.572C127.802 271.896 129.024 271.558 130.515 271.558C132.196 271.558 133.514 271.948 134.467 272.728C135.438 273.508 135.923 274.626 135.923 276.082V285H133.843ZM129.735 283.414C130.827 283.414 131.772 283.059 132.569 282.348C133.366 281.62 133.765 280.736 133.765 279.696V278.5H129.839C127.742 278.5 126.693 279.332 126.693 280.996C126.693 281.741 126.953 282.331 127.473 282.764C128.01 283.197 128.764 283.414 129.735 283.414ZM148.836 281.048H151.046C150.786 282.365 150.17 283.414 149.2 284.194C148.246 284.957 147.024 285.338 145.534 285.338C143.558 285.338 141.998 284.697 140.854 283.414C139.727 282.114 139.164 280.459 139.164 278.448C139.164 276.42 139.727 274.765 140.854 273.482C141.98 272.199 143.54 271.558 145.534 271.558C147.042 271.558 148.264 271.939 149.2 272.702C150.153 273.447 150.742 274.444 150.968 275.692H148.758C148.29 274.219 147.215 273.482 145.534 273.482C144.13 273.482 143.081 273.95 142.388 274.886C141.712 275.805 141.374 276.975 141.374 278.396C141.374 279.835 141.72 281.031 142.414 281.984C143.107 282.937 144.147 283.414 145.534 283.414C147.371 283.414 148.472 282.625 148.836 281.048ZM156.915 285H154.211V281.984H156.915V285ZM163.618 285H160.914V281.984H163.618V285ZM170.321 285H167.617V281.984H170.321V285ZM175.1 266.8H185.734V269.348L181.184 273.248V273.794C182.796 273.829 184.096 274.331 185.084 275.302C186.089 276.273 186.592 277.616 186.592 279.332C186.592 281.187 185.994 282.651 184.798 283.726C183.602 284.801 182.059 285.338 180.17 285.338C178.35 285.338 176.859 284.827 175.698 283.804C174.537 282.781 173.904 281.481 173.8 279.904H176.088C176.192 280.927 176.617 281.75 177.362 282.374C178.125 282.998 179.061 283.31 180.17 283.31C181.435 283.31 182.441 282.955 183.186 282.244C183.931 281.533 184.304 280.563 184.304 279.332C184.304 278.119 183.949 277.174 183.238 276.498C182.527 275.805 181.513 275.458 180.196 275.458C179.555 275.458 179.026 275.51 178.61 275.614V273.196L183.056 269.348V268.776H175.1V266.8ZM192.933 271.818H190.645C190.749 270.067 191.356 268.733 192.465 267.814C193.592 266.895 195.004 266.436 196.703 266.436C198.471 266.436 199.892 266.921 200.967 267.892C202.059 268.845 202.605 270.206 202.605 271.974C202.605 274.123 201.262 276.316 198.575 278.552L193.999 282.4V282.972H203.177V285H190.671V282.426L193.349 280.242C195.013 278.907 196.391 277.737 197.483 276.732C197.899 276.368 198.228 276.056 198.471 275.796C198.731 275.536 199.017 275.198 199.329 274.782C199.658 274.349 199.901 273.898 200.057 273.43C200.23 272.962 200.317 272.477 200.317 271.974C200.317 270.847 199.988 269.981 199.329 269.374C198.67 268.767 197.778 268.464 196.651 268.464C195.594 268.464 194.736 268.75 194.077 269.322C193.436 269.877 193.054 270.709 192.933 271.818ZM217.656 278.708H220.152V280.736H217.656V285H215.42V280.736H206.424V278.136L214.458 266.8H217.656V278.708ZM208.816 278.708H215.446V269.374H214.874L208.816 278.136V278.708Z" fill="#00AE99"/>
<path d="M507.752 268.802C508.965 267.225 510.586 266.436 512.614 266.436C514.642 266.436 516.263 267.233 517.476 268.828C518.707 270.405 519.322 272.763 519.322 275.9C519.322 279.037 518.707 281.395 517.476 282.972C516.263 284.549 514.642 285.338 512.614 285.338C510.586 285.338 508.965 284.549 507.752 282.972C506.539 281.395 505.932 279.037 505.932 275.9C505.932 272.745 506.539 270.379 507.752 268.802ZM508.22 275.9C508.22 278.101 508.532 279.817 509.156 281.048L514.928 269.244C514.287 268.724 513.515 268.464 512.614 268.464C511.141 268.464 510.04 269.123 509.312 270.44C508.584 271.74 508.22 273.56 508.22 275.9ZM512.614 283.31C514.087 283.31 515.188 282.66 515.916 281.36C516.661 280.043 517.034 278.223 517.034 275.9C517.034 273.751 516.722 272.043 516.098 270.778L510.352 282.582C510.959 283.067 511.713 283.31 512.614 283.31ZM531.695 285L528.445 279.514H527.509L524.181 285H521.763L525.845 278.292L522.179 271.896H524.519L527.535 277.096H528.471L531.539 271.896H533.853L530.135 278.214L534.191 285H531.695ZM538.475 268.802C539.688 267.225 541.309 266.436 543.337 266.436C545.365 266.436 546.985 267.233 548.199 268.828C549.429 270.405 550.045 272.763 550.045 275.9C550.045 279.037 549.429 281.395 548.199 282.972C546.985 284.549 545.365 285.338 543.337 285.338C541.309 285.338 539.688 284.549 538.475 282.972C537.261 281.395 536.655 279.037 536.655 275.9C536.655 272.745 537.261 270.379 538.475 268.802ZM538.943 275.9C538.943 278.101 539.255 279.817 539.879 281.048L545.651 269.244C545.009 268.724 544.238 268.464 543.337 268.464C541.863 268.464 540.763 269.123 540.035 270.44C539.307 271.74 538.943 273.56 538.943 275.9ZM543.337 283.31C544.81 283.31 545.911 282.66 546.639 281.36C547.384 280.043 547.757 278.223 547.757 275.9C547.757 273.751 547.445 272.043 546.821 270.778L541.075 282.582C541.681 283.067 542.435 283.31 543.337 283.31ZM563.458 275.12V275.692C564.168 275.935 564.818 276.446 565.408 277.226C565.997 277.989 566.292 278.925 566.292 280.034C566.292 281.559 565.685 282.825 564.472 283.83C563.276 284.835 561.69 285.338 559.714 285.338C557.738 285.338 556.143 284.835 554.93 283.83C553.734 282.825 553.136 281.559 553.136 280.034C553.136 278.942 553.43 278.006 554.02 277.226C554.609 276.446 555.259 275.935 555.97 275.692V275.12C555.398 274.877 554.869 274.418 554.384 273.742C553.916 273.066 553.682 272.251 553.682 271.298C553.682 269.859 554.245 268.689 555.372 267.788C556.498 266.887 557.946 266.436 559.714 266.436C561.482 266.436 562.929 266.887 564.056 267.788C565.182 268.689 565.746 269.859 565.746 271.298C565.746 272.217 565.503 273.023 565.018 273.716C564.532 274.409 564.012 274.877 563.458 275.12ZM562.418 269.218C561.707 268.681 560.806 268.412 559.714 268.412C558.622 268.412 557.712 268.681 556.984 269.218C556.273 269.738 555.918 270.466 555.918 271.402C555.918 272.338 556.273 273.075 556.984 273.612C557.712 274.149 558.622 274.418 559.714 274.418C560.806 274.418 561.707 274.149 562.418 273.612C563.146 273.075 563.51 272.338 563.51 271.402C563.51 270.466 563.146 269.738 562.418 269.218ZM556.542 282.374C557.322 282.998 558.379 283.31 559.714 283.31C561.048 283.31 562.097 282.998 562.86 282.374C563.64 281.733 564.03 280.883 564.03 279.826C564.03 278.751 563.648 277.911 562.886 277.304C562.123 276.697 561.066 276.394 559.714 276.394C558.362 276.394 557.304 276.697 556.542 277.304C555.779 277.911 555.398 278.751 555.398 279.826C555.398 280.883 555.779 281.733 556.542 282.374ZM571.229 268.802C572.442 267.225 574.063 266.436 576.091 266.436C578.119 266.436 579.739 267.233 580.953 268.828C582.183 270.405 582.799 272.763 582.799 275.9C582.799 279.037 582.183 281.395 580.953 282.972C579.739 284.549 578.119 285.338 576.091 285.338C574.063 285.338 572.442 284.549 571.229 282.972C570.015 281.395 569.409 279.037 569.409 275.9C569.409 272.745 570.015 270.379 571.229 268.802ZM571.697 275.9C571.697 278.101 572.009 279.817 572.633 281.048L578.405 269.244C577.763 268.724 576.992 268.464 576.091 268.464C574.617 268.464 573.517 269.123 572.789 270.44C572.061 271.74 571.697 273.56 571.697 275.9ZM576.091 283.31C577.564 283.31 578.665 282.66 579.393 281.36C580.138 280.043 580.511 278.223 580.511 275.9C580.511 273.751 580.199 272.043 579.575 270.778L573.829 282.582C574.435 283.067 575.189 283.31 576.091 283.31ZM588.983 285H586.279V281.984H588.983V285ZM595.687 285H592.983V281.984H595.687V285ZM602.39 285H599.686V281.984H602.39V285ZM618.219 269.348L610.341 285H607.949L615.853 269.348V268.776H606.623V266.8H618.219V269.348ZM622.402 285V282.972H628.356V269.192H627.836L623.65 271.922V269.53L627.81 266.8H630.644V282.972H635.584V285H622.402ZM641.379 271.818H639.091C639.195 270.067 639.801 268.733 640.911 267.814C642.037 266.895 643.45 266.436 645.149 266.436C646.917 266.436 648.338 266.921 649.413 267.892C650.505 268.845 651.051 270.206 651.051 271.974C651.051 274.123 649.707 276.316 647.021 278.552L642.445 282.4V282.972H651.623V285H639.117V282.426L641.795 280.242C643.459 278.907 644.837 277.737 645.929 276.732C646.345 276.368 646.674 276.056 646.917 275.796C647.177 275.536 647.463 275.198 647.775 274.782C648.104 274.349 648.347 273.898 648.503 273.43C648.676 272.962 648.763 272.477 648.763 271.974C648.763 270.847 648.433 269.981 647.775 269.374C647.116 268.767 646.223 268.464 645.097 268.464C644.039 268.464 643.181 268.75 642.523 269.322C641.881 269.877 641.5 270.709 641.379 271.818Z" fill="#00AE99"/>
<path d="M946.646 268.802C947.859 267.225 949.48 266.436 951.508 266.436C953.536 266.436 955.156 267.233 956.37 268.828C957.6 270.405 958.216 272.763 958.216 275.9C958.216 279.037 957.6 281.395 956.37 282.972C955.156 284.549 953.536 285.338 951.508 285.338C949.48 285.338 947.859 284.549 946.646 282.972C945.432 281.395 944.826 279.037 944.826 275.9C944.826 272.745 945.432 270.379 946.646 268.802ZM947.114 275.9C947.114 278.101 947.426 279.817 948.05 281.048L953.822 269.244C953.18 268.724 952.409 268.464 951.508 268.464C950.034 268.464 948.934 269.123 948.206 270.44C947.478 271.74 947.114 273.56 947.114 275.9ZM951.508 283.31C952.981 283.31 954.082 282.66 954.81 281.36C955.555 280.043 955.928 278.223 955.928 275.9C955.928 273.751 955.616 272.043 954.992 270.778L949.246 282.582C949.852 283.067 950.606 283.31 951.508 283.31ZM970.589 285L967.339 279.514H966.403L963.075 285H960.657L964.739 278.292L961.073 271.896H963.413L966.429 277.096H967.365L970.433 271.896H972.747L969.029 278.214L973.085 285H970.589ZM985.974 275.12V275.692C986.685 275.935 987.335 276.446 987.924 277.226C988.514 277.989 988.808 278.925 988.808 280.034C988.808 281.559 988.202 282.825 986.988 283.83C985.792 284.835 984.206 285.338 982.23 285.338C980.254 285.338 978.66 284.835 977.446 283.83C976.25 282.825 975.652 281.559 975.652 280.034C975.652 278.942 975.947 278.006 976.536 277.226C977.126 276.446 977.776 275.935 978.486 275.692V275.12C977.914 274.877 977.386 274.418 976.9 273.742C976.432 273.066 976.198 272.251 976.198 271.298C976.198 269.859 976.762 268.689 977.888 267.788C979.015 266.887 980.462 266.436 982.23 266.436C983.998 266.436 985.446 266.887 986.572 267.788C987.699 268.689 988.262 269.859 988.262 271.298C988.262 272.217 988.02 273.023 987.534 273.716C987.049 274.409 986.529 274.877 985.974 275.12ZM984.934 269.218C984.224 268.681 983.322 268.412 982.23 268.412C981.138 268.412 980.228 268.681 979.5 269.218C978.79 269.738 978.434 270.466 978.434 271.402C978.434 272.338 978.79 273.075 979.5 273.612C980.228 274.149 981.138 274.418 982.23 274.418C983.322 274.418 984.224 274.149 984.934 273.612C985.662 273.075 986.026 272.338 986.026 271.402C986.026 270.466 985.662 269.738 984.934 269.218ZM979.058 282.374C979.838 282.998 980.896 283.31 982.23 283.31C983.565 283.31 984.614 282.998 985.376 282.374C986.156 281.733 986.546 280.883 986.546 279.826C986.546 278.751 986.165 277.911 985.402 277.304C984.64 276.697 983.582 276.394 982.23 276.394C980.878 276.394 979.821 276.697 979.058 277.304C978.296 277.911 977.914 278.751 977.914 279.826C977.914 280.883 978.296 281.733 979.058 282.374ZM994.655 271.818H992.367C992.471 270.067 993.078 268.733 994.187 267.814C995.314 266.895 996.727 266.436 998.425 266.436C1000.19 266.436 1001.61 266.921 1002.69 267.892C1003.78 268.845 1004.33 270.206 1004.33 271.974C1004.33 274.123 1002.98 276.316 1000.3 278.552L995.721 282.4V282.972H1004.9V285H992.393V282.426L995.071 280.242C996.735 278.907 998.113 277.737 999.205 276.732C999.621 276.368 999.951 276.056 1000.19 275.796C1000.45 275.536 1000.74 275.198 1001.05 274.782C1001.38 274.349 1001.62 273.898 1001.78 273.43C1001.95 272.962 1002.04 272.477 1002.04 271.974C1002.04 270.847 1001.71 269.981 1001.05 269.374C1000.39 268.767 999.5 268.464 998.373 268.464C997.316 268.464 996.458 268.75 995.799 269.322C995.158 269.877 994.777 270.709 994.655 271.818ZM1015.5 272.754C1017.27 272.754 1018.69 273.335 1019.74 274.496C1020.82 275.657 1021.35 277.105 1021.35 278.838C1021.35 280.797 1020.77 282.374 1019.61 283.57C1018.47 284.749 1016.97 285.338 1015.11 285.338C1013.19 285.338 1011.67 284.835 1010.56 283.83C1009.47 282.825 1008.87 281.516 1008.77 279.904H1011.03C1011.17 281.013 1011.59 281.863 1012.28 282.452C1012.97 283.024 1013.88 283.31 1015.01 283.31C1016.22 283.31 1017.2 282.92 1017.95 282.14C1018.69 281.343 1019.07 280.277 1019.07 278.942C1019.07 277.677 1018.7 276.654 1017.97 275.874C1017.26 275.077 1016.3 274.678 1015.09 274.678C1013.46 274.678 1012.25 275.25 1011.47 276.394H1009.19L1009.99 266.8H1020.39V268.776H1011.84L1011.42 274.028H1011.99C1012.93 273.179 1014.1 272.754 1015.5 272.754ZM1027.88 285H1025.17V281.984H1027.88V285ZM1034.58 285H1031.88V281.984H1034.58V285ZM1041.28 285H1038.58V281.984H1041.28V285ZM1054.24 266.098H1056.45V285H1054.32V283.596H1053.75C1052.81 284.757 1051.45 285.338 1049.67 285.338C1047.9 285.338 1046.5 284.688 1045.46 283.388C1044.43 282.088 1043.92 280.441 1043.92 278.448C1043.92 276.42 1044.43 274.765 1045.46 273.482C1046.5 272.199 1047.9 271.558 1049.67 271.558C1051.44 271.558 1052.77 272.139 1053.67 273.3H1054.24V266.098ZM1050.16 283.414C1051.53 283.414 1052.55 282.937 1053.23 281.984C1053.92 281.031 1054.27 279.852 1054.27 278.448C1054.27 277.044 1053.92 275.865 1053.23 274.912C1052.55 273.959 1051.53 273.482 1050.16 273.482C1048.88 273.482 1047.88 273.941 1047.17 274.86C1046.48 275.761 1046.13 276.957 1046.13 278.448C1046.13 279.939 1046.48 281.143 1047.17 282.062C1047.88 282.963 1048.88 283.414 1050.16 283.414ZM1062.83 271.818H1060.54C1060.65 270.067 1061.25 268.733 1062.36 267.814C1063.49 266.895 1064.9 266.436 1066.6 266.436C1068.37 266.436 1069.79 266.921 1070.86 267.892C1071.96 268.845 1072.5 270.206 1072.5 271.974C1072.5 274.123 1071.16 276.316 1068.47 278.552L1063.9 282.4V282.972H1073.07V285H1060.57V282.426L1063.25 280.242C1064.91 278.907 1066.29 277.737 1067.38 276.732C1067.8 276.368 1068.12 276.056 1068.37 275.796C1068.63 275.536 1068.91 275.198 1069.23 274.782C1069.55 274.349 1069.8 273.898 1069.95 273.43C1070.13 272.962 1070.21 272.477 1070.21 271.974C1070.21 270.847 1069.88 269.981 1069.23 269.374C1068.57 268.767 1067.67 268.464 1066.55 268.464C1065.49 268.464 1064.63 268.75 1063.97 269.322C1063.33 269.877 1062.95 270.709 1062.83 271.818ZM1088.8 269.348L1080.92 285H1078.53L1086.43 269.348V268.776H1077.2V266.8H1088.8V269.348Z" fill="#00AE99"/>
</svg>
