<svg width="1600" height="471" fill="none" xmlns="http://www.w3.org/2000/svg"><g clip-path="url(#clip0)"><path fill="#fff" d="M0 0h1600v471H0z"/><path fill="#898890" d="M766.756 53.552h68.431v57.258h-68.431z"/><path fill="#898890" d="M824.014 71.707h16.759v20.948h-16.759zM761.169 71.707h16.759v20.948h-16.759z"/><circle cx="787.703" cy="78.689" r="5.586" stroke="#E5E5E5" stroke-width="2.793"/><circle cx="801.669" cy="39.586" r="5.586" fill="#898890"/><circle cx="814.238" cy="78.689" r="5.586" stroke="#E5E5E5" stroke-width="2.793"/><path fill="#E5E5E5" d="M797.479 91.258h8.379v5.586h-8.379z"/><path fill="#898890" d="M800.272 42.38h2.793v11.172h-2.793zM445.661 95.16c7.845 0 14.228-6.314 14.228-14.076.001-7.762-6.383-14.078-14.228-14.078-7.846 0-14.229 6.316-14.229 14.077 0 7.763 6.383 14.078 14.229 14.078zM471.862 124.279c-.089-14.219-11.808-25.76-26.201-25.76-14.448 0-26.203 11.63-26.203 25.924 0 .447.366.809.818.809h50.786a.813.813 0 0 0 .8-.973zM1156.26 95.16c7.85 0 14.23-6.314 14.23-14.076 0-7.762-6.38-14.078-14.23-14.078-7.84 0-14.22 6.316-14.22 14.077 0 7.763 6.38 14.078 14.22 14.078zM1182.47 124.279c-.09-14.219-11.81-25.76-26.21-25.76-14.44 0-26.2 11.63-26.2 25.924 0 .447.37.809.82.809H1181.67c.45 0 .81-.362.81-.809 0-.056 0-.112-.01-.164z"/><path d="M864.071 208.739h242.689M493.236 208.739h242.693" stroke="#898890" stroke-width="3.883" stroke-linecap="round" stroke-dasharray="9.71 29.12"/><path d="M487.574 177.572h-74.426a3.727 3.727 0 0 1-3.721-3.721 3.728 3.728 0 0 1 3.721-3.722h55.819v3.722h7.443v-7.443a3.722 3.722 0 0 0-3.721-3.721h-59.541c-6.166 0-11.164 4.997-11.164 11.164v63.262c0 8.22 6.665 14.885 14.885 14.885h70.705a3.723 3.723 0 0 0 3.721-3.722v-66.983a3.722 3.722 0 0 0-3.721-3.721zm-18.607 44.655a7.44 7.44 0 0 1-7.442-7.442 7.44 7.44 0 0 1 7.442-7.443 7.441 7.441 0 0 1 7.443 7.443 7.44 7.44 0 0 1-7.443 7.442zM1196.24 177.572H1121.81a3.727 3.727 0 0 1-3.72-3.721 3.727 3.727 0 0 1 3.72-3.722h55.82v3.722h7.44v-7.443a3.718 3.718 0 0 0-3.72-3.721h-59.54c-6.17 0-11.16 4.997-11.16 11.164v63.262c0 8.22 6.66 14.885 14.88 14.885h70.71c2.05 0 3.72-1.667 3.72-3.722v-66.983a3.724 3.724 0 0 0-3.72-3.721zm-18.61 44.655a7.44 7.44 0 0 1-7.44-7.442 7.44 7.44 0 1 1 14.88 0 7.44 7.44 0 0 1-7.44 7.442z" fill="#898890"/><path stroke="#898890" stroke-width="5.825" d="M740.783 152.009h120.376v120.376H740.783z"/><path d="M779.386 223.42l6.014-6.238-7.477-10.113-9.521-13.502a38.713 38.713 0 0 0-5.291 19.6c0 11.844 5.291 22.449 13.637 29.571l12.085-8.561a24.819 24.819 0 0 1-9.447-10.757zM791.623 190.649l6.223 6.028 10.09-7.495 13.472-9.542a38.493 38.493 0 0 0-19.556-5.304c-11.817 0-22.397 5.304-29.502 13.669l8.54 12.113a24.803 24.803 0 0 1 10.733-9.469zM818.305 209.152l7.477 10.113 9.52 13.502a38.704 38.704 0 0 0 5.292-19.6c0-11.844-5.292-22.449-13.638-29.571l-12.084 8.561a24.819 24.819 0 0 1 9.447 10.757l-6.014 6.238zM831.355 238.329l-8.54-12.113a24.803 24.803 0 0 1-10.733 9.469l-6.223-6.028-10.091 7.495-13.471 9.542a38.49 38.49 0 0 0 19.555 5.304c11.818 0 22.398-5.304 29.503-13.669z" fill="#898890"/><path d="M1039.53 368.989h12.27v2.378h-14.88v-20.706h14.41v2.378h-11.8v6.409h9.51v2.378h-9.51v7.163zm25.82 2.378l-3.62-6.119h-1.05l-3.71 6.119h-2.7l4.56-7.482-4.09-7.134h2.61l3.36 5.8h1.04l3.43-5.8h2.58l-4.15 7.047 4.52 7.569h-2.78zm9.62-14.616h3.68v2.146h-3.68v8.033c0 .774.19 1.344.58 1.711.41.348 1.08.522 2.03.522h1.07v2.204h-1.13c-1.66 0-2.92-.309-3.77-.928-.83-.618-1.24-1.672-1.24-3.161v-8.381h-2.53v-2.146h2.53v-4.408h2.46v4.408zm20.18 6.438v.841h-11.13c.04 1.76.45 3.132 1.25 4.118.79.967 1.93 1.45 3.42 1.45 2.01 0 3.25-.754 3.71-2.262h2.49c-.25 1.315-.91 2.378-2 3.19-1.06.812-2.46 1.218-4.2 1.218-2.23 0-3.97-.725-5.22-2.175-1.26-1.45-1.89-3.335-1.89-5.655 0-2.281.63-4.108 1.89-5.481 1.25-1.372 2.97-2.059 5.16-2.059 2.07 0 3.66.658 4.78 1.972 1.13 1.296 1.71 2.91 1.74 4.843zm-6.58-4.669c-1.26 0-2.26.329-3.01.986-.76.638-1.22 1.46-1.4 2.465h8.44a3.567 3.567 0 0 0-1.19-2.465c-.71-.657-1.66-.986-2.84-.986zm18.77-1.769v2.32h-1.21c-1.47 0-2.62.435-3.45 1.305-.82.87-1.22 2.098-1.22 3.683v7.308h-2.47v-14.616h2.38v1.74h.64c.93-1.16 2.34-1.74 4.23-1.74h1.1zm16.23 14.616h-2.47v-8.758c0-2.687-1.24-4.031-3.71-4.031-1.28 0-2.32.484-3.13 1.45-.81.948-1.22 2.088-1.22 3.422v7.917h-2.46v-14.616h2.37v1.566h.64c.43-.58 1.03-1.044 1.8-1.392.77-.367 1.64-.551 2.61-.551 1.78 0 3.15.513 4.12 1.537.96 1.006 1.45 2.398 1.45 4.176v9.28zm13.82 0v-1.537h-.64c-1.01 1.276-2.52 1.914-4.55 1.914-1.61 0-2.89-.464-3.83-1.392-.95-.928-1.42-2.049-1.42-3.364 0-1.334.46-2.474 1.39-3.422.93-.947 2.33-1.421 4.2-1.421h4.76v-.58c0-.928-.29-1.662-.87-2.204-.58-.56-1.48-.841-2.7-.841-2.12 0-3.26.706-3.39 2.117h-2.47c.1-1.334.67-2.378 1.72-3.132 1.06-.754 2.42-1.131 4.08-1.131 1.88 0 3.35.435 4.41 1.305 1.08.87 1.63 2.117 1.63 3.741v9.947h-2.32zm-4.59-1.769c1.22 0 2.28-.396 3.17-1.189.88-.812 1.33-1.798 1.33-2.958v-1.334h-4.38c-2.34 0-3.51.928-3.51 2.784 0 .832.29 1.489.87 1.972.6.484 1.44.725 2.52.725zm11.42-19.314h2.46v21.083h-2.46v-21.083zm7.22 0h2.47v21.083h-2.47v-21.083zm11.17 26.883h-2.5l3.02-7.163-6.24-13.253h2.64l4.47 9.628h.72l4.06-9.628h2.59l-8.76 20.416zm28.6-26.883c3.04 0 5.41 1.015 7.11 3.045 1.7 2.03 2.55 4.592 2.55 7.685 0 3.094-.85 5.655-2.55 7.685-1.7 2.03-4.07 3.045-7.11 3.045-3.05 0-5.43-1.005-7.13-3.016-1.68-2.03-2.52-4.601-2.52-7.714 0-3.112.84-5.674 2.52-7.685 1.7-2.03 4.08-3.045 7.13-3.045zm-5.25 16.675c1.18 1.605 2.93 2.407 5.25 2.407s4.07-.802 5.25-2.407c1.18-1.604 1.77-3.586 1.77-5.945 0-2.358-.59-4.34-1.77-5.945-1.18-1.604-2.93-2.407-5.25-2.407s-4.07.803-5.25 2.407c-1.18 1.605-1.77 3.587-1.77 5.945 0 2.359.59 4.341 1.77 5.945zm25.04-5.423h3.13l2.44 7.221h.64l1.68-12.006h2.38l-2.12 14.616h-3.77l-2.55-7.395h-.61l-2.55 7.395h-3.83l-2.09-14.616h2.38l1.74 12.006h.64l2.49-7.221zm26.9 9.831h-2.47v-8.758c0-2.687-1.24-4.031-3.71-4.031-1.28 0-2.32.484-3.13 1.45-.81.948-1.22 2.088-1.22 3.422v7.917h-2.47v-14.616h2.38v1.566h.64c.43-.58 1.03-1.044 1.8-1.392.77-.367 1.64-.551 2.61-.551 1.78 0 3.15.513 4.12 1.537.96 1.006 1.45 2.398 1.45 4.176v9.28zm17.18-8.178v.841h-11.14c.04 1.76.46 3.132 1.25 4.118.79.967 1.93 1.45 3.42 1.45 2.01 0 3.25-.754 3.71-2.262h2.5c-.25 1.315-.92 2.378-2 3.19-1.07.812-2.47 1.218-4.21 1.218-2.22 0-3.96-.725-5.22-2.175-1.25-1.45-1.88-3.335-1.88-5.655 0-2.281.63-4.108 1.88-5.481 1.26-1.372 2.98-2.059 5.16-2.059 2.07 0 3.67.658 4.79 1.972 1.12 1.296 1.7 2.91 1.74 4.843zm-6.58-4.669c-1.26 0-2.27.329-3.02.986a4.023 4.023 0 0 0-1.39 2.465h8.44a3.65 3.65 0 0 0-1.19-2.465c-.72-.657-1.66-.986-2.84-.986zm21.03-8.236h2.47v21.083h-2.38v-1.566h-.64c-1.04 1.296-2.56 1.943-4.55 1.943-1.97 0-3.54-.725-4.7-2.175-1.14-1.45-1.71-3.286-1.71-5.51 0-2.262.57-4.108 1.71-5.539 1.16-1.43 2.73-2.146 4.7-2.146 1.97 0 3.46.648 4.46 1.943h.64v-8.033zm-4.55 19.314c1.53 0 2.67-.531 3.42-1.595.77-1.063 1.16-2.378 1.16-3.944 0-1.566-.39-2.88-1.16-3.944-.75-1.063-1.89-1.595-3.42-1.595-1.43 0-2.54.513-3.34 1.537-.77 1.006-1.16 2.34-1.16 4.002 0 1.663.39 3.007 1.16 4.031.8 1.006 1.91 1.508 3.34 1.508zm-151.75 44.769l-2.14-6.351h-9.08l-2.15 6.351h-2.67l7.17-20.706h4.41l7.19 20.706h-2.73zm-7.28-18.038l-3.16 9.309h7.48l-3.16-9.309h-1.16zm22.84 13.63h2.47c-.29 1.47-.98 2.639-2.06 3.509-1.07.851-2.43 1.276-4.09 1.276-2.21 0-3.95-.715-5.22-2.146-1.26-1.45-1.89-3.296-1.89-5.539 0-2.262.63-4.108 1.89-5.539 1.25-1.43 2.99-2.146 5.22-2.146 1.68 0 3.04.426 4.09 1.276 1.06.832 1.72 1.943 1.97 3.335h-2.47c-.52-1.643-1.72-2.465-3.59-2.465-1.57 0-2.74.522-3.51 1.566-.76 1.025-1.13 2.33-1.13 3.915 0 1.605.38 2.939 1.16 4.002.77 1.064 1.93 1.595 3.48 1.595 2.05 0 3.27-.879 3.68-2.639zm16.03 0h2.46c-.29 1.47-.97 2.639-2.05 3.509-1.07.851-2.43 1.276-4.09 1.276-2.21 0-3.95-.715-5.22-2.146-1.26-1.45-1.89-3.296-1.89-5.539 0-2.262.63-4.108 1.89-5.539 1.25-1.43 2.99-2.146 5.22-2.146 1.68 0 3.04.426 4.09 1.276 1.06.832 1.72 1.943 1.97 3.335h-2.47c-.52-1.643-1.72-2.465-3.59-2.465-1.57 0-2.74.522-3.51 1.566-.76 1.025-1.13 2.33-1.13 3.915 0 1.605.38 2.939 1.16 4.002.77 1.064 1.93 1.595 3.48 1.595 2.05 0 3.27-.879 3.68-2.639zm7.16-8.41c1.29-1.45 3.05-2.175 5.27-2.175 2.23 0 3.98.725 5.25 2.175 1.3 1.45 1.95 3.287 1.95 5.51 0 2.224-.65 4.06-1.95 5.51-1.27 1.45-3.02 2.175-5.25 2.175-2.22 0-3.98-.725-5.27-2.175-1.28-1.45-1.92-3.286-1.92-5.51 0-2.223.64-4.06 1.92-5.51zm1.76 9.454c.82 1.064 1.99 1.595 3.51 1.595 1.53 0 2.7-.531 3.51-1.595.81-1.082 1.22-2.397 1.22-3.944 0-1.546-.41-2.851-1.22-3.915-.81-1.082-1.98-1.624-3.51-1.624-1.52 0-2.69.542-3.51 1.624-.81 1.064-1.21 2.369-1.21 3.915 0 1.547.4 2.862 1.21 3.944zm14.32-11.252h2.47v8.758c0 2.688 1.23 4.031 3.71 4.031 1.25 0 2.29-.473 3.1-1.421.83-.947 1.25-2.097 1.25-3.451v-7.917h2.46v14.616h-2.38v-1.566h-.63c-.43.58-1.03 1.054-1.8 1.421-.78.348-1.65.522-2.61.522-1.78 0-3.15-.502-4.12-1.508-.97-1.024-1.45-2.426-1.45-4.205v-9.28zm30.73 14.616h-2.47v-8.758c0-2.687-1.24-4.031-3.71-4.031-1.28 0-2.32.484-3.13 1.45-.81.948-1.22 2.088-1.22 3.422v7.917h-2.47v-14.616h2.38v1.566h.64c.43-.58 1.02-1.044 1.8-1.392.77-.367 1.64-.551 2.61-.551 1.78 0 3.15.513 4.12 1.537.96 1.006 1.45 2.398 1.45 4.176v9.28zm7.9-14.616h3.68v2.146h-3.68v8.033c0 .774.19 1.344.58 1.711.4.348 1.08.522 2.03.522h1.07v2.204h-1.13c-1.66 0-2.92-.309-3.77-.928-.83-.618-1.25-1.672-1.25-3.161v-8.381h-2.52v-2.146h2.52v-4.408h2.47v4.408zM330.868 368.989h12.267v2.378h-14.877v-20.706h14.413v2.378h-11.803v6.409h9.512v2.378h-9.512v7.163zm25.82 2.378l-3.625-6.119h-1.044l-3.712 6.119h-2.697l4.553-7.482-4.089-7.134h2.61l3.364 5.8h1.044l3.422-5.8h2.581l-4.147 7.047 4.524 7.569h-2.784zm9.621-14.616h3.683v2.146h-3.683v8.033c0 .774.193 1.344.58 1.711.406.348 1.083.522 2.03.522h1.073v2.204h-1.131c-1.663 0-2.919-.309-3.77-.928-.831-.618-1.247-1.672-1.247-3.161v-8.381h-2.523v-2.146h2.523v-4.408h2.465v4.408zm20.183 6.438v.841h-11.136c.039 1.76.454 3.132 1.247 4.118.793.967 1.933 1.45 3.422 1.45 2.011 0 3.248-.754 3.712-2.262h2.494c-.251 1.315-.918 2.378-2.001 3.19-1.063.812-2.465 1.218-4.205 1.218-2.223 0-3.963-.725-5.22-2.175-1.257-1.45-1.885-3.335-1.885-5.655 0-2.281.628-4.108 1.885-5.481 1.257-1.372 2.977-2.059 5.162-2.059 2.069 0 3.664.658 4.785 1.972 1.121 1.296 1.701 2.91 1.74 4.843zm-6.583-4.669c-1.257 0-2.262.329-3.016.986-.754.638-1.218 1.46-1.392 2.465h8.439c-.077-.986-.474-1.807-1.189-2.465-.715-.657-1.663-.986-2.842-.986zm18.773-1.769v2.32h-1.218c-1.469 0-2.62.435-3.451 1.305-.812.87-1.218 2.098-1.218 3.683v7.308h-2.465v-14.616h2.378v1.74h.638c.928-1.16 2.339-1.74 4.234-1.74h1.102zm16.223 14.616h-2.465v-8.758c0-2.687-1.237-4.031-3.712-4.031-1.276 0-2.32.484-3.132 1.45-.812.948-1.218 2.088-1.218 3.422v7.917h-2.465v-14.616h2.378v1.566h.638c.425-.58 1.025-1.044 1.798-1.392.773-.367 1.643-.551 2.61-.551 1.779 0 3.151.513 4.118 1.537.967 1.006 1.45 2.398 1.45 4.176v9.28zm13.819 0v-1.537h-.638c-1.005 1.276-2.523 1.914-4.553 1.914-1.605 0-2.881-.464-3.828-1.392-.947-.928-1.421-2.049-1.421-3.364 0-1.334.464-2.474 1.392-3.422.928-.947 2.33-1.421 4.205-1.421h4.756v-.58c0-.928-.29-1.662-.87-2.204-.58-.56-1.479-.841-2.697-.841-2.127 0-3.258.706-3.393 2.117h-2.465c.097-1.334.667-2.378 1.711-3.132 1.063-.754 2.426-1.131 4.089-1.131 1.875 0 3.345.435 4.408 1.305 1.083.87 1.624 2.117 1.624 3.741v9.947h-2.32zm-4.582-1.769c1.218 0 2.272-.396 3.161-1.189.889-.812 1.334-1.798 1.334-2.958v-1.334h-4.379c-2.339 0-3.509.928-3.509 2.784 0 .832.29 1.489.87 1.972.599.484 1.44.725 2.523.725zm11.415-19.314h2.465v21.083h-2.465v-21.083zm7.222 0h2.465v21.083h-2.465v-21.083zm11.166 26.883h-2.494l3.016-7.163-6.235-13.253h2.639l4.466 9.628h.725l4.06-9.628h2.581l-8.758 20.416zm28.606-26.883c3.035 0 5.403 1.015 7.105 3.045 1.701 2.03 2.552 4.592 2.552 7.685 0 3.094-.851 5.655-2.552 7.685-1.702 2.03-4.07 3.045-7.105 3.045-3.055 0-5.433-1.005-7.134-3.016-1.682-2.03-2.523-4.601-2.523-7.714 0-3.112.841-5.674 2.523-7.685 1.701-2.03 4.079-3.045 7.134-3.045zm-5.249 16.675c1.179 1.605 2.929 2.407 5.249 2.407s4.069-.802 5.249-2.407c1.179-1.604 1.769-3.586 1.769-5.945 0-2.358-.59-4.34-1.769-5.945-1.18-1.604-2.929-2.407-5.249-2.407s-4.07.803-5.249 2.407c-1.18 1.605-1.769 3.587-1.769 5.945 0 2.359.589 4.341 1.769 5.945zm25.037-5.423h3.132l2.436 7.221h.638l1.682-12.006h2.378l-2.117 14.616h-3.77l-2.552-7.395h-.609l-2.552 7.395h-3.828l-2.088-14.616h2.378l1.74 12.006h.638l2.494-7.221zm26.895 9.831h-2.465v-8.758c0-2.687-1.237-4.031-3.712-4.031-1.276 0-2.32.484-3.132 1.45-.812.948-1.218 2.088-1.218 3.422v7.917h-2.465v-14.616h2.378v1.566h.638c.425-.58 1.025-1.044 1.798-1.392.773-.367 1.643-.551 2.61-.551 1.779 0 3.151.513 4.118 1.537.967 1.006 1.45 2.398 1.45 4.176v9.28zm17.183-8.178v.841h-11.136c.039 1.76.454 3.132 1.247 4.118.793.967 1.933 1.45 3.422 1.45 2.011 0 3.248-.754 3.712-2.262h2.494c-.251 1.315-.918 2.378-2.001 3.19-1.063.812-2.465 1.218-4.205 1.218-2.223 0-3.963-.725-5.22-2.175-1.257-1.45-1.885-3.335-1.885-5.655 0-2.281.628-4.108 1.885-5.481 1.257-1.372 2.977-2.059 5.162-2.059 2.069 0 3.664.658 4.785 1.972 1.121 1.296 1.701 2.91 1.74 4.843zm-6.583-4.669c-1.257 0-2.262.329-3.016.986-.754.638-1.218 1.46-1.392 2.465h8.439c-.077-.986-.474-1.807-1.189-2.465-.715-.657-1.663-.986-2.842-.986zm21.035-8.236h2.465v21.083h-2.378v-1.566h-.638c-1.044 1.296-2.562 1.943-4.553 1.943-1.972 0-3.538-.725-4.698-2.175-1.141-1.45-1.711-3.286-1.711-5.51 0-2.262.57-4.108 1.711-5.539 1.16-1.43 2.726-2.146 4.698-2.146 1.972 0 3.46.648 4.466 1.943h.638v-8.033zm-4.553 19.314c1.527 0 2.668-.531 3.422-1.595.773-1.063 1.16-2.378 1.16-3.944 0-1.566-.387-2.88-1.16-3.944-.754-1.063-1.895-1.595-3.422-1.595-1.431 0-2.543.513-3.335 1.537-.774 1.006-1.16 2.34-1.16 4.002 0 1.663.386 3.007 1.16 4.031.792 1.006 1.904 1.508 3.335 1.508zm-151.747 44.769l-2.146-6.351h-9.077l-2.146 6.351h-2.668l7.163-20.706h4.408l7.192 20.706h-2.726zm-7.279-18.038l-3.161 9.309h7.482l-3.161-9.309h-1.16zm22.838 13.63h2.465c-.29 1.47-.976 2.639-2.059 3.509-1.063.851-2.426 1.276-4.089 1.276-2.204 0-3.944-.715-5.22-2.146-1.257-1.45-1.885-3.296-1.885-5.539 0-2.262.628-4.108 1.885-5.539 1.257-1.43 2.997-2.146 5.22-2.146 1.682 0 3.045.426 4.089 1.276 1.063.832 1.721 1.943 1.972 3.335h-2.465c-.522-1.643-1.721-2.465-3.596-2.465-1.566 0-2.736.522-3.509 1.566-.754 1.025-1.131 2.33-1.131 3.915 0 1.605.387 2.939 1.16 4.002.773 1.064 1.933 1.595 3.48 1.595 2.049 0 3.277-.879 3.683-2.639zm16.029 0h2.465c-.29 1.47-.976 2.639-2.059 3.509-1.063.851-2.426 1.276-4.089 1.276-2.204 0-3.944-.715-5.22-2.146-1.256-1.45-1.885-3.296-1.885-5.539 0-2.262.629-4.108 1.885-5.539 1.257-1.43 2.997-2.146 5.22-2.146 1.682 0 3.045.426 4.089 1.276 1.064.832 1.721 1.943 1.972 3.335h-2.465c-.522-1.643-1.72-2.465-3.596-2.465-1.566 0-2.735.522-3.509 1.566-.754 1.025-1.131 2.33-1.131 3.915 0 1.605.387 2.939 1.16 4.002.774 1.064 1.934 1.595 3.48 1.595 2.05 0 3.277-.879 3.683-2.639zm7.156-8.41c1.295-1.45 3.054-2.175 5.278-2.175 2.223 0 3.973.725 5.249 2.175 1.295 1.45 1.943 3.287 1.943 5.51 0 2.224-.648 4.06-1.943 5.51-1.276 1.45-3.026 2.175-5.249 2.175-2.224 0-3.983-.725-5.278-2.175-1.276-1.45-1.914-3.286-1.914-5.51 0-2.223.638-4.06 1.914-5.51zm1.769 9.454c.812 1.064 1.981 1.595 3.509 1.595 1.527 0 2.697-.531 3.509-1.595.812-1.082 1.218-2.397 1.218-3.944 0-1.546-.406-2.851-1.218-3.915-.812-1.082-1.982-1.624-3.509-1.624-1.528 0-2.697.542-3.509 1.624-.812 1.064-1.218 2.369-1.218 3.915 0 1.547.406 2.862 1.218 3.944zm14.316-11.252h2.465v8.758c0 2.688 1.237 4.031 3.712 4.031 1.256 0 2.291-.473 3.103-1.421.831-.947 1.247-2.097 1.247-3.451v-7.917h2.465v14.616h-2.378v-1.566h-.638c-.426.58-1.025 1.054-1.798 1.421-.774.348-1.644.522-2.61.522-1.779 0-3.152-.502-4.118-1.508-.967-1.024-1.45-2.426-1.45-4.205v-9.28zm30.726 14.616h-2.465v-8.758c0-2.687-1.238-4.031-3.712-4.031-1.276 0-2.32.484-3.132 1.45-.812.948-1.218 2.088-1.218 3.422v7.917h-2.465v-14.616h2.378v1.566h.638c.425-.58 1.024-1.044 1.798-1.392.773-.367 1.643-.551 2.61-.551 1.778 0 3.151.513 4.118 1.537.966 1.006 1.45 2.398 1.45 4.176v9.28zm7.903-14.616h3.683v2.146h-3.683v8.033c0 .774.193 1.344.58 1.711.406.348 1.082.522 2.03.522h1.073v2.204h-1.131c-1.663 0-2.92-.309-3.77-.928-.832-.618-1.247-1.672-1.247-3.161v-8.381h-2.523v-2.146h2.523v-4.408h2.465v4.408zM703.714 358.617c.773.116 2.078.377 3.915.783 1.663.367 2.939 1.015 3.828 1.943.909.909 1.363 2.204 1.363 3.886 0 1.74-.686 3.2-2.059 4.379-1.353 1.179-3.277 1.769-5.771 1.769-2.378 0-4.321-.57-5.829-1.711s-2.339-2.62-2.494-4.437h2.639c.213 1.315.841 2.272 1.885 2.871 1.044.599 2.349.899 3.915.899 1.489 0 2.707-.329 3.654-.986.947-.657 1.421-1.566 1.421-2.726 0-1.044-.3-1.827-.899-2.349-.599-.541-1.469-.938-2.61-1.189a58.702 58.702 0 0 0-2.03-.406 201.683 201.683 0 0 1-2.059-.435c-3.345-.677-5.017-2.426-5.017-5.249 0-1.663.648-3.035 1.943-4.118 1.295-1.083 3.074-1.624 5.336-1.624 2.107 0 3.828.512 5.162 1.537 1.334 1.005 2.117 2.359 2.349 4.06h-2.639c-.503-2.146-2.146-3.219-4.93-3.219-1.315 0-2.407.29-3.277.87-.87.58-1.305 1.392-1.305 2.436 0 .909.309 1.585.928 2.03.638.425 1.498.754 2.581.986zm28.538-2.61c1.624 0 2.832.493 3.625 1.479.792.967 1.189 2.32 1.189 4.06V371h-2.465v-9.193c0-2.397-.938-3.596-2.813-3.596-1.122 0-2.001.396-2.639 1.189-.619.773-.928 1.788-.928 3.045V371h-2.465v-9.135c0-2.436-.928-3.654-2.784-3.654-1.18 0-2.079.435-2.697 1.305-.6.87-.899 2.001-.899 3.393V371h-2.465v-14.616h2.378v1.421h.638c.773-1.199 2.01-1.798 3.712-1.798 1.798 0 3.083.648 3.857 1.943h.638c.889-1.295 2.262-1.943 4.118-1.943zM750.887 371v-1.537h-.638c-1.006 1.276-2.523 1.914-4.553 1.914-1.605 0-2.881-.464-3.828-1.392-.948-.928-1.421-2.049-1.421-3.364 0-1.334.464-2.475 1.392-3.422.928-.947 2.329-1.421 4.205-1.421h4.756v-.58c0-.928-.29-1.663-.87-2.204-.58-.561-1.479-.841-2.697-.841-2.127 0-3.258.706-3.393 2.117h-2.465c.096-1.334.667-2.378 1.711-3.132 1.063-.754 2.426-1.131 4.089-1.131 1.875 0 3.344.435 4.408 1.305 1.082.87 1.624 2.117 1.624 3.741V371h-2.32zm-4.582-1.769c1.218 0 2.271-.396 3.161-1.189.889-.812 1.334-1.798 1.334-2.958v-1.334h-4.379c-2.34 0-3.509.928-3.509 2.784 0 .831.29 1.489.87 1.972.599.483 1.44.725 2.523.725zm19.767-12.847v2.32h-1.218c-1.469 0-2.619.435-3.451 1.305-.812.87-1.218 2.098-1.218 3.683V371h-2.465v-14.616h2.378v1.74h.638c.928-1.16 2.34-1.74 4.234-1.74h1.102zm7.559 0h3.683v2.146h-3.683v8.033c0 .773.193 1.344.58 1.711.406.348 1.083.522 2.03.522h1.073V371h-1.131c-1.663 0-2.919-.309-3.77-.928-.831-.619-1.247-1.672-1.247-3.161v-8.381h-2.523v-2.146h2.523v-4.408h2.465v4.408zm30.047 8.729h2.755c-.445 1.914-1.373 3.441-2.784 4.582-1.411 1.121-3.219 1.682-5.423 1.682-3.016 0-5.365-.996-7.047-2.987-1.682-1.991-2.523-4.572-2.523-7.743 0-3.171.851-5.752 2.552-7.743 1.701-1.991 4.05-2.987 7.047-2.987 2.088 0 3.828.522 5.22 1.566 1.392 1.025 2.301 2.436 2.726 4.234h-2.755c-.812-2.281-2.542-3.422-5.191-3.422-2.281 0-4.012.802-5.191 2.407-1.179 1.605-1.769 3.586-1.769 5.945 0 2.378.58 4.369 1.74 5.974 1.179 1.585 2.91 2.378 5.191 2.378 1.431 0 2.61-.338 3.538-1.015.928-.696 1.566-1.653 1.914-2.871zm7.591-6.931c1.296-1.45 3.055-2.175 5.278-2.175 2.224 0 3.973.725 5.249 2.175 1.296 1.45 1.943 3.287 1.943 5.51s-.647 4.06-1.943 5.51c-1.276 1.45-3.025 2.175-5.249 2.175-2.223 0-3.982-.725-5.278-2.175-1.276-1.45-1.914-3.287-1.914-5.51s.638-4.06 1.914-5.51zm1.769 9.454c.812 1.063 1.982 1.595 3.509 1.595 1.528 0 2.697-.532 3.509-1.595.812-1.083 1.218-2.397 1.218-3.944 0-1.547-.406-2.852-1.218-3.915-.812-1.083-1.981-1.624-3.509-1.624-1.527 0-2.697.541-3.509 1.624-.812 1.063-1.218 2.368-1.218 3.915 0 1.547.406 2.861 1.218 3.944zm27.54 3.364h-2.465v-8.758c0-2.687-1.237-4.031-3.712-4.031-1.276 0-2.32.483-3.132 1.45-.812.947-1.218 2.088-1.218 3.422V371h-2.465v-14.616h2.378v1.566h.638c.426-.58 1.025-1.044 1.798-1.392.774-.367 1.644-.551 2.61-.551 1.779 0 3.152.512 4.118 1.537.967 1.005 1.45 2.397 1.45 4.176V371zm7.903-14.616h3.683v2.146h-3.683v8.033c0 .773.194 1.344.58 1.711.406.348 1.083.522 2.03.522h1.073V371h-1.131c-1.662 0-2.919-.309-3.77-.928-.831-.619-1.247-1.672-1.247-3.161v-8.381h-2.523v-2.146h2.523v-4.408h2.465v4.408zm16.089 0v2.32h-1.218c-1.469 0-2.619.435-3.451 1.305-.812.87-1.218 2.098-1.218 3.683V371h-2.465v-14.616h2.378v1.74h.638c.928-1.16 2.34-1.74 4.234-1.74h1.102zM877.11 371v-1.537h-.638c-1.005 1.276-2.523 1.914-4.553 1.914-1.604 0-2.88-.464-3.828-1.392-.947-.928-1.421-2.049-1.421-3.364 0-1.334.464-2.475 1.392-3.422.928-.947 2.33-1.421 4.205-1.421h4.756v-.58c0-.928-.29-1.663-.87-2.204-.58-.561-1.479-.841-2.697-.841-2.126 0-3.257.706-3.393 2.117h-2.465c.097-1.334.667-2.378 1.711-3.132 1.064-.754 2.427-1.131 4.089-1.131 1.876 0 3.345.435 4.408 1.305 1.083.87 1.624 2.117 1.624 3.741V371h-2.32zm-4.582-1.769c1.218 0 2.272-.396 3.161-1.189.89-.812 1.334-1.798 1.334-2.958v-1.334h-4.379c-2.339 0-3.509.928-3.509 2.784 0 .831.29 1.489.87 1.972.6.483 1.441.725 2.523.725zm21.305-2.639h2.465c-.29 1.469-.976 2.639-2.059 3.509-1.063.851-2.426 1.276-4.089 1.276-2.204 0-3.944-.715-5.22-2.146-1.257-1.45-1.885-3.296-1.885-5.539 0-2.262.628-4.108 1.885-5.539 1.257-1.431 2.997-2.146 5.22-2.146 1.682 0 3.045.425 4.089 1.276 1.063.831 1.721 1.943 1.972 3.335h-2.465c-.522-1.643-1.721-2.465-3.596-2.465-1.566 0-2.736.522-3.509 1.566-.754 1.025-1.131 2.33-1.131 3.915 0 1.605.387 2.939 1.16 4.002.773 1.063 1.933 1.595 3.48 1.595 2.049 0 3.277-.88 3.683-2.639zm9.533-10.208h3.683v2.146h-3.683v8.033c0 .773.194 1.344.58 1.711.406.348 1.083.522 2.03.522h1.073V371h-1.131c-1.662 0-2.919-.309-3.77-.928-.831-.619-1.247-1.672-1.247-3.161v-8.381h-2.523v-2.146h2.523v-4.408h2.465v4.408zM760.9 414l-2.146-6.351h-9.077L747.531 414h-2.668l7.163-20.706h4.408L763.626 414H760.9zm-7.279-18.038l-3.161 9.309h7.482l-3.161-9.309h-1.16zm22.838 13.63h2.465c-.29 1.469-.976 2.639-2.059 3.509-1.063.851-2.426 1.276-4.089 1.276-2.204 0-3.944-.715-5.22-2.146-1.256-1.45-1.885-3.296-1.885-5.539 0-2.262.629-4.108 1.885-5.539 1.257-1.431 2.997-2.146 5.22-2.146 1.682 0 3.045.425 4.089 1.276 1.064.831 1.721 1.943 1.972 3.335h-2.465c-.522-1.643-1.72-2.465-3.596-2.465-1.566 0-2.735.522-3.509 1.566-.754 1.025-1.131 2.33-1.131 3.915 0 1.605.387 2.939 1.16 4.002.774 1.063 1.934 1.595 3.48 1.595 2.05 0 3.277-.88 3.683-2.639zm16.03 0h2.465c-.29 1.469-.977 2.639-2.059 3.509-1.064.851-2.427 1.276-4.089 1.276-2.204 0-3.944-.715-5.22-2.146-1.257-1.45-1.885-3.296-1.885-5.539 0-2.262.628-4.108 1.885-5.539 1.256-1.431 2.996-2.146 5.22-2.146 1.682 0 3.045.425 4.089 1.276 1.063.831 1.72 1.943 1.972 3.335h-2.465c-.522-1.643-1.721-2.465-3.596-2.465-1.566 0-2.736.522-3.509 1.566-.754 1.025-1.131 2.33-1.131 3.915 0 1.605.386 2.939 1.16 4.002.773 1.063 1.933 1.595 3.48 1.595 2.049 0 3.277-.88 3.683-2.639zm7.155-8.41c1.295-1.45 3.055-2.175 5.278-2.175 2.223 0 3.973.725 5.249 2.175 1.295 1.45 1.943 3.287 1.943 5.51s-.648 4.06-1.943 5.51c-1.276 1.45-3.026 2.175-5.249 2.175s-3.983-.725-5.278-2.175c-1.276-1.45-1.914-3.287-1.914-5.51s.638-4.06 1.914-5.51zm1.769 9.454c.812 1.063 1.982 1.595 3.509 1.595s2.697-.532 3.509-1.595c.812-1.083 1.218-2.397 1.218-3.944 0-1.547-.406-2.852-1.218-3.915-.812-1.083-1.982-1.624-3.509-1.624s-2.697.541-3.509 1.624c-.812 1.063-1.218 2.368-1.218 3.915 0 1.547.406 2.861 1.218 3.944zm14.316-11.252h2.465v8.758c0 2.687 1.237 4.031 3.712 4.031 1.257 0 2.291-.474 3.103-1.421.831-.947 1.247-2.098 1.247-3.451v-7.917h2.465V414h-2.378v-1.566h-.638c-.425.58-1.025 1.054-1.798 1.421-.773.348-1.643.522-2.61.522-1.779 0-3.151-.503-4.118-1.508-.967-1.025-1.45-2.426-1.45-4.205v-9.28zM846.455 414h-2.465v-8.758c0-2.687-1.237-4.031-3.712-4.031-1.276 0-2.32.483-3.132 1.45-.812.947-1.218 2.088-1.218 3.422V414h-2.465v-14.616h2.378v1.566h.638c.425-.58 1.025-1.044 1.798-1.392.773-.367 1.643-.551 2.61-.551 1.779 0 3.151.512 4.118 1.537.967 1.005 1.45 2.397 1.45 4.176V414zm7.903-14.616h3.683v2.146h-3.683v8.033c0 .773.193 1.344.58 1.711.406.348 1.083.522 2.03.522h1.073V414h-1.131c-1.663 0-2.919-.309-3.77-.928-.831-.619-1.247-1.672-1.247-3.161v-8.381h-2.523v-2.146h2.523v-4.408h2.465v4.408z" fill="#000"/><path d="M366.806 302.421c2.247 0 4.05.824 5.409 2.473 1.377 1.631 2.066 4.105 2.066 7.421 0 3.298-.689 5.772-2.066 7.421-1.359 1.631-3.162 2.446-5.409 2.446-2.229 0-4.023-.815-5.382-2.446-1.359-1.649-2.039-4.123-2.039-7.421 0-3.316.68-5.79 2.039-7.421 1.359-1.649 3.153-2.473 5.382-2.473zm-3.479 9.894c0 1.649.172 2.963.516 3.941l4.757-9.785c-.471-.381-1.069-.571-1.794-.571-2.32 0-3.479 2.138-3.479 6.415zm3.506 6.388c2.356 0 3.534-2.129 3.534-6.388 0-1.631-.173-2.936-.517-3.914l-4.757 9.758c.472.363 1.051.544 1.74.544zm19.975 3.126l-2.718-5.138h-1.006l-2.772 5.138h-4.023l3.996-7.176-3.588-6.796h3.941l2.501 4.811h1.005l2.556-4.811h3.887l-3.643 6.741 3.969 7.231h-4.105zm10.37-13.292h-3.914c.109-1.975.78-3.488 2.012-4.54 1.232-1.051 2.881-1.576 4.947-1.576 1.957 0 3.542.544 4.757 1.631 1.232 1.069 1.848 2.564 1.848 4.485 0 2.229-1.178 4.258-3.534 6.088l-3.995 3.099v.707h8.045v3.398h-14.052v-4.078l6.523-4.865c.942-.671 1.685-1.341 2.229-2.012.562-.688.843-1.44.843-2.256 0-.888-.254-1.558-.761-2.011-.49-.471-1.16-.707-2.012-.707-1.776 0-2.754.879-2.936 2.637zm14.105-5.735h12.231v3.995l-3.642 2.691v.734c1.359.109 2.473.643 3.343 1.604.888.942 1.332 2.229 1.332 3.86 0 1.993-.67 3.578-2.011 4.756-1.341 1.16-3.09 1.74-5.246 1.74-2.102 0-3.824-.58-5.165-1.74-1.341-1.178-2.029-2.645-2.066-4.403h3.915c.108.852.453 1.513 1.032 1.984.598.453 1.359.68 2.284.68 1.033 0 1.848-.272 2.446-.816.598-.561.897-1.304.897-2.229 0-.96-.29-1.721-.87-2.283-.58-.562-1.404-.842-2.473-.842-.725 0-1.305.063-1.74.19v-3.235l3.642-2.691v-.707h-7.909v-3.288zm25.357 19.027v-1.196h-.707c-.888 1.033-2.193 1.549-3.914 1.549-1.522 0-2.727-.444-3.615-1.332-.888-.906-1.332-2.011-1.332-3.316 0-1.25.471-2.338 1.413-3.262.943-.924 2.365-1.386 4.268-1.386h3.724v-.353c0-1.45-.825-2.175-2.474-2.175-1.468 0-2.256.498-2.365 1.495h-3.778c.036-1.323.607-2.374 1.713-3.153 1.105-.797 2.518-1.196 4.24-1.196 1.993 0 3.543.426 4.648 1.277 1.123.852 1.685 2.175 1.685 3.969v9.079h-3.506zm-3.289-2.664c.924 0 1.676-.272 2.256-.816.58-.543.87-1.25.87-2.12v-.87h-2.99c-1.74 0-2.61.626-2.61 1.876 0 1.287.825 1.93 2.474 1.93zm19.514-2.039h3.752c-.182 1.522-.861 2.746-2.039 3.67-1.16.924-2.61 1.386-4.349 1.386-2.157 0-3.869-.661-5.137-1.984-1.269-1.341-1.903-3.126-1.903-5.355 0-2.211.634-3.987 1.903-5.328 1.268-1.341 2.98-2.011 5.137-2.011 1.739 0 3.171.444 4.295 1.332 1.141.87 1.803 2.029 1.984 3.479h-3.778c-.309-1.087-1.133-1.631-2.474-1.631-1.123 0-1.948.381-2.473 1.142-.526.761-.789 1.758-.789 2.99 0 1.232.263 2.247.789 3.044.543.779 1.368 1.169 2.473 1.169 1.504 0 2.374-.634 2.609-1.903zm11.009 4.703h-4.186v-4.132h4.186v4.132zm7.964 0h-4.186v-4.132h4.186v4.132zm7.963 0h-4.186v-4.132h4.186v4.132zm4.267-19.027h12.231v3.995l-3.642 2.691v.734c1.359.109 2.473.643 3.343 1.604.888.942 1.332 2.229 1.332 3.86 0 1.993-.67 3.578-2.011 4.756-1.341 1.16-3.09 1.74-5.246 1.74-2.102 0-3.824-.58-5.165-1.74-1.341-1.178-2.029-2.645-2.066-4.403h3.915c.108.852.453 1.513 1.032 1.984.598.453 1.36.68 2.284.68 1.033 0 1.848-.272 2.446-.816.598-.561.897-1.304.897-2.229 0-.96-.29-1.721-.87-2.283-.58-.562-1.404-.842-2.473-.842-.725 0-1.305.063-1.74.19v-3.235l3.642-2.691v-.707h-7.909v-3.288zm20.138 5.735h-3.914c.109-1.975.779-3.488 2.011-4.54 1.232-1.051 2.881-1.576 4.947-1.576 1.957 0 3.543.544 4.757 1.631 1.232 1.069 1.848 2.564 1.848 4.485 0 2.229-1.177 4.258-3.533 6.088l-3.996 3.099v.707h8.046v3.398h-14.053v-4.078l6.524-4.865c.942-.671 1.685-1.341 2.228-2.012.562-.688.843-1.44.843-2.256 0-.888-.254-1.558-.761-2.011-.489-.471-1.16-.707-2.011-.707-1.776 0-2.755.879-2.936 2.637zm25.602 5.817h2.365v3.397h-2.365v4.078h-3.778v-4.078h-9.052v-4.104l8.318-10.845h4.512v11.552zm-9.16 0h5.517v-7.149h-.706l-4.811 6.442v.707zM729.434 302.421c2.247 0 4.05.824 5.409 2.473 1.378 1.631 2.066 4.105 2.066 7.421 0 3.298-.688 5.772-2.066 7.421-1.359 1.631-3.162 2.446-5.409 2.446-2.229 0-4.023-.815-5.382-2.446-1.359-1.649-2.038-4.123-2.038-7.421 0-3.316.679-5.79 2.038-7.421 1.359-1.649 3.153-2.473 5.382-2.473zm-3.479 9.894c0 1.649.172 2.963.517 3.941l4.756-9.785c-.471-.381-1.069-.571-1.794-.571-2.319 0-3.479 2.138-3.479 6.415zm3.507 6.388c2.355 0 3.533-2.129 3.533-6.388 0-1.631-.172-2.936-.516-3.914l-4.757 9.758c.471.363 1.051.544 1.74.544zm19.975 3.126l-2.718-5.138h-1.006l-2.773 5.138h-4.022l3.995-7.176-3.588-6.796h3.942l2.5 4.811h1.006l2.555-4.811h3.887l-3.642 6.741 3.968 7.231h-4.104zm13.523-19.408c2.247 0 4.05.824 5.409 2.473 1.377 1.631 2.066 4.105 2.066 7.421 0 3.298-.689 5.772-2.066 7.421-1.359 1.631-3.162 2.446-5.409 2.446-2.229 0-4.023-.815-5.382-2.446-1.359-1.649-2.038-4.123-2.038-7.421 0-3.316.679-5.79 2.038-7.421 1.359-1.649 3.153-2.473 5.382-2.473zm-3.479 9.894c0 1.649.172 2.963.516 3.941l4.757-9.785c-.471-.381-1.069-.571-1.794-.571-2.319 0-3.479 2.138-3.479 6.415zm3.506 6.388c2.356 0 3.534-2.129 3.534-6.388 0-1.631-.172-2.936-.517-3.914l-4.756 9.758c.471.363 1.051.544 1.739.544zm21.661-7.312v.707c.743.308 1.395.833 1.957 1.576.58.743.87 1.676.87 2.8 0 1.613-.653 2.972-1.957 4.077-1.287 1.087-3.081 1.631-5.382 1.631-2.302 0-4.105-.544-5.409-1.631-1.287-1.105-1.93-2.464-1.93-4.077 0-1.124.28-2.057.842-2.8.58-.743 1.242-1.268 1.985-1.576v-.707c-1.468-.779-2.202-2.066-2.202-3.86 0-1.468.607-2.682 1.821-3.642 1.214-.979 2.845-1.468 4.893-1.468 2.047 0 3.678.489 4.892 1.468 1.214.96 1.821 2.174 1.821 3.642 0 .961-.226 1.767-.679 2.419-.435.653-.942 1.133-1.522 1.441zm-4.512-5.953c-.87 0-1.577.236-2.121.707a2.271 2.271 0 0 0-.815 1.794c0 .743.263 1.35.788 1.821.544.471 1.26.707 2.148.707.906 0 1.621-.227 2.147-.68.525-.471.788-1.087.788-1.848 0-.725-.272-1.323-.815-1.794-.526-.471-1.232-.707-2.12-.707zm-2.555 12.694c.598.525 1.449.788 2.555.788 1.105 0 1.957-.263 2.555-.788.598-.544.897-1.223.897-2.039 0-.797-.308-1.468-.924-2.011-.598-.544-1.441-.816-2.528-.816-1.106 0-1.957.272-2.555.816-.598.525-.897 1.196-.897 2.011 0 .816.299 1.495.897 2.039zm19.621-15.711c2.247 0 4.051.824 5.41 2.473 1.377 1.631 2.065 4.105 2.065 7.421 0 3.298-.688 5.772-2.065 7.421-1.359 1.631-3.163 2.446-5.41 2.446-2.228 0-4.022-.815-5.381-2.446-1.36-1.649-2.039-4.123-2.039-7.421 0-3.316.679-5.79 2.039-7.421 1.359-1.649 3.153-2.473 5.381-2.473zm-3.479 9.894c0 1.649.172 2.963.517 3.941l4.756-9.785c-.471-.381-1.069-.571-1.794-.571-2.319 0-3.479 2.138-3.479 6.415zm3.507 6.388c2.355 0 3.533-2.129 3.533-6.388 0-1.631-.172-2.936-.516-3.914l-4.757 9.758c.471.363 1.051.544 1.74.544zm14.62 3.126h-4.186v-4.132h4.186v4.132zm7.964 0h-4.186v-4.132h4.186v4.132zm7.963 0h-4.186v-4.132h4.186v4.132zm16.797-14.95l-7.611 14.95h-4.077l7.638-14.95v-.68h-8.943v-3.397h12.993v4.077zm3.938 14.95v-3.398h5.437v-11.715h-.68l-3.533 2.337v-3.887l3.533-2.364h4.594v15.629h4.43v3.398h-13.781zm20.791-13.292h-3.914c.109-1.975.779-3.488 2.011-4.54 1.233-1.051 2.882-1.576 4.947-1.576 1.958 0 3.543.544 4.757 1.631 1.232 1.069 1.849 2.564 1.849 4.485 0 2.229-1.178 4.258-3.534 6.088l-3.996 3.099v.707h8.046v3.398h-14.053v-4.078l6.524-4.865c.942-.671 1.685-1.341 2.229-2.012.561-.688.842-1.44.842-2.256 0-.888-.253-1.558-.761-2.011-.489-.471-1.16-.707-2.011-.707-1.776 0-2.755.879-2.936 2.637zM1082.85 302.421c2.25 0 4.05.824 5.41 2.473 1.37 1.631 2.06 4.105 2.06 7.421 0 3.298-.69 5.772-2.06 7.421-1.36 1.631-3.16 2.446-5.41 2.446-2.23 0-4.02-.815-5.38-2.446-1.36-1.649-2.04-4.123-2.04-7.421 0-3.316.68-5.79 2.04-7.421 1.36-1.649 3.15-2.473 5.38-2.473zm-3.48 9.894c0 1.649.17 2.963.52 3.941l4.75-9.785c-.47-.381-1.07-.571-1.79-.571-2.32 0-3.48 2.138-3.48 6.415zm3.51 6.388c2.35 0 3.53-2.129 3.53-6.388 0-1.631-.17-2.936-.52-3.914l-4.75 9.758c.47.363 1.05.544 1.74.544zm19.97 3.126l-2.72-5.138h-1l-2.78 5.138h-4.02l4-7.176-3.59-6.796h3.94l2.5 4.811h1.01l2.55-4.811h3.89l-3.64 6.741 3.96 7.231h-4.1zm18.09-10.438v.707c.74.308 1.4.833 1.96 1.576.58.743.87 1.676.87 2.8 0 1.613-.66 2.972-1.96 4.077-1.29 1.087-3.08 1.631-5.38 1.631s-4.11-.544-5.41-1.631c-1.29-1.105-1.93-2.464-1.93-4.077 0-1.124.28-2.057.84-2.8.58-.743 1.24-1.268 1.99-1.576v-.707c-1.47-.779-2.21-2.066-2.21-3.86 0-1.468.61-2.682 1.83-3.642 1.21-.979 2.84-1.468 4.89-1.468s3.68.489 4.89 1.468c1.21.96 1.82 2.174 1.82 3.642 0 .961-.22 1.767-.68 2.419-.43.653-.94 1.133-1.52 1.441zm-4.51-5.953c-.87 0-1.58.236-2.12.707-.55.471-.82 1.069-.82 1.794 0 .743.27 1.35.79 1.821.54.471 1.26.707 2.15.707.9 0 1.62-.227 2.15-.68.52-.471.78-1.087.78-1.848 0-.725-.27-1.323-.81-1.794-.53-.471-1.23-.707-2.12-.707zm-2.56 12.694c.6.525 1.45.788 2.56.788 1.1 0 1.96-.263 2.55-.788.6-.544.9-1.223.9-2.039 0-.797-.31-1.468-.92-2.011-.6-.544-1.44-.816-2.53-.816-1.11 0-1.96.272-2.56.816-.59.525-.89 1.196-.89 2.011 0 .816.3 1.495.89 2.039zm16.47-9.595h-3.91c.11-1.975.78-3.488 2.01-4.54 1.23-1.051 2.88-1.576 4.95-1.576 1.95 0 3.54.544 4.75 1.631 1.24 1.069 1.85 2.564 1.85 4.485 0 2.229-1.18 4.258-3.53 6.088l-4 3.099v.707h8.05v3.398h-14.06v-4.078l6.53-4.865c.94-.671 1.68-1.341 2.23-2.012.56-.688.84-1.44.84-2.256 0-.888-.25-1.558-.76-2.011-.49-.471-1.16-.707-2.01-.707-1.78 0-2.76.879-2.94 2.637zm21.44.326c1.76 0 3.21.598 4.35 1.794 1.16 1.178 1.74 2.718 1.74 4.621 0 2.048-.66 3.715-1.98 5.001-1.32 1.269-3.01 1.903-5.06 1.903-2.15 0-3.87-.571-5.16-1.712-1.27-1.142-1.96-2.619-2.07-4.431h3.92c.21 1.776 1.28 2.664 3.18 2.664 1.01 0 1.81-.299 2.39-.897.58-.616.87-1.441.87-2.474 0-1.087-.3-1.921-.9-2.5-.58-.598-1.36-.897-2.34-.897-1.3 0-2.31.471-3.01 1.413h-3.64l.84-10.546h11.74v3.288h-8.7l-.3 3.887h.71c1-.743 2.14-1.114 3.42-1.114zm13.48 12.966h-4.18v-4.132h4.18v4.132zm7.97 0h-4.19v-4.132h4.19v4.132zm7.96 0H1177v-4.132h4.19v4.132zm8.63-14.325c1.7 0 2.96.544 3.77 1.631h.71v-7.067h3.81v19.761h-3.67v-1.278h-.71c-.87 1.087-2.17 1.631-3.91 1.631-1.82 0-3.26-.68-4.33-2.039-1.06-1.377-1.6-3.144-1.6-5.3 0-2.156.54-3.914 1.6-5.273 1.07-1.377 2.51-2.066 4.33-2.066zm1.22 11.525c1.12 0 1.97-.399 2.53-1.196.58-.797.87-1.794.87-2.99 0-1.196-.29-2.184-.87-2.963-.56-.797-1.41-1.196-2.53-1.196-1.09 0-1.92.39-2.5 1.169-.56.779-.84 1.776-.84 2.99 0 1.232.28 2.238.84 3.017.58.779 1.41 1.169 2.5 1.169zm14.45-10.492h-3.91c.1-1.975.77-3.488 2.01-4.54 1.23-1.051 2.88-1.576 4.94-1.576 1.96 0 3.55.544 4.76 1.631 1.23 1.069 1.85 2.564 1.85 4.485 0 2.229-1.18 4.258-3.53 6.088l-4 3.099v.707h8.05v3.398h-14.06v-4.078l6.53-4.865c.94-.671 1.68-1.341 2.22-2.012.57-.688.85-1.44.85-2.256 0-.888-.26-1.558-.76-2.011-.49-.471-1.16-.707-2.01-.707-1.78 0-2.76.879-2.94 2.637zm26.63-1.658l-7.61 14.95h-4.07l7.63-14.95v-.68h-8.94v-3.397h12.99v4.077z" fill="#00AE99"/></g><defs><clipPath id="clip0"><path fill="#fff" d="M0 0h1600v471H0z"/></clipPath></defs></svg>