<svg width="601" height="486" fill="none" xmlns="http://www.w3.org/2000/svg"><path d="M385.475 58.475a3.5 3.5 0 0 0 0-4.95l-22.274-22.274a3.5 3.5 0 0 0-4.95 4.95L378.05 56l-19.799 19.799a3.5 3.5 0 1 0 4.95 4.95l22.274-22.274zM281 59.5h102v-7H281v7zM385.475 383.475a3.5 3.5 0 0 0 0-4.95l-22.274-22.274a3.5 3.5 0 1 0-4.95 4.95L378.05 381l-19.799 19.799a3.5 3.5 0 1 0 4.95 4.95l22.274-22.274zM281 384.5h102v-7H281v7zM20.216 147.167c1.876 0 3.422.638 4.64 1.914 1.238 1.257 1.856 2.9 1.856 4.93 0 2.185-.705 3.963-2.116 5.336-1.412 1.353-3.21 2.03-5.395 2.03-2.3 0-4.137-.609-5.51-1.827-1.353-1.218-2.088-2.794-2.204-4.727h4.177c.232 1.895 1.362 2.842 3.393 2.842 1.082 0 1.933-.319 2.552-.957.618-.657.927-1.537.927-2.639 0-1.16-.319-2.049-.957-2.668-.618-.638-1.45-.957-2.494-.957-1.392 0-2.465.503-3.219 1.508H11.98l.9-11.252h12.527v3.509h-9.28l-.318 4.147h.754c1.063-.793 2.28-1.189 3.654-1.189zm18.097 0c1.875 0 3.422.638 4.64 1.914 1.237 1.257 1.856 2.9 1.856 4.93 0 2.185-.706 3.963-2.117 5.336-1.411 1.353-3.21 2.03-5.394 2.03-2.3 0-4.137-.609-5.51-1.827-1.353-1.218-2.088-2.794-2.204-4.727h4.176c.232 1.895 1.363 2.842 3.393 2.842 1.083 0 1.934-.319 2.552-.957.619-.657.928-1.537.928-2.639 0-1.16-.319-2.049-.957-2.668-.619-.638-1.45-.957-2.494-.957-1.392 0-2.465.503-3.219 1.508h-3.886l.9-11.252h12.527v3.509h-9.28l-.319 4.147h.754c1.063-.793 2.282-1.189 3.654-1.189zm11.456-4.234c1.47-1.759 3.393-2.639 5.77-2.639 2.379 0 4.293.88 5.743 2.639 1.47 1.74 2.204 4.379 2.204 7.917 0 3.519-.735 6.158-2.204 7.917-1.45 1.74-3.364 2.61-5.742 2.61s-4.302-.87-5.771-2.61c-1.45-1.759-2.175-4.398-2.175-7.917 0-3.538.725-6.177 2.175-7.917zm5.77 14.732c2.514 0 3.77-2.272 3.77-6.815 0-4.563-1.256-6.844-3.77-6.844-2.493 0-3.74 2.281-3.74 6.844 0 4.543 1.247 6.815 3.74 6.815zm19.86-17.371h8.642c3.113 0 5.49.928 7.134 2.784 1.644 1.856 2.465 4.379 2.465 7.569 0 3.19-.822 5.713-2.465 7.569-1.643 1.856-4.021 2.784-7.134 2.784H75.4v-20.706zm4.321 16.849h3.77c1.972 0 3.413-.59 4.321-1.769.928-1.199 1.392-2.774 1.392-4.727 0-1.953-.464-3.519-1.392-4.698-.909-1.199-2.349-1.798-4.32-1.798h-3.77v12.992zM110.723 161l-1.682-5.597h-7.888L99.47 161h-4.263l6.584-20.706h6.699L115.102 161h-4.379zm-6.293-16.559l-2.175 7.192h5.626l-2.175-7.192h-1.276zm13.736-4.147h4.321V161h-4.321v-20.706zm18.982 2.639c1.779-2.011 4.263-3.016 7.453-3.016 3.19 0 5.665 1.005 7.424 3.016 1.779 1.991 2.668 4.563 2.668 7.714 0 3.151-.889 5.732-2.668 7.743-1.759 1.991-4.234 2.987-7.424 2.987-3.19 0-5.674-.996-7.453-2.987-1.759-2.011-2.639-4.592-2.639-7.743 0-3.151.88-5.723 2.639-7.714zm7.453 14.587c1.856 0 3.258-.638 4.205-1.914.967-1.276 1.45-2.929 1.45-4.959s-.483-3.683-1.45-4.959c-.947-1.276-2.349-1.914-4.205-1.914-1.837 0-3.238.648-4.205 1.943-.967 1.276-1.45 2.919-1.45 4.93 0 2.011.483 3.664 1.45 4.959.967 1.276 2.368 1.914 4.205 1.914zm23.72-11.426v3.77h-1.45c-3.035 0-4.553 1.537-4.553 4.611V161h-4.06v-14.906h3.915v1.682h.754c.754-1.121 2.088-1.682 4.002-1.682h1.392zm8.417-.377c1.818 0 3.161.58 4.031 1.74h.754v-7.54h4.06V161h-3.915v-1.363h-.754c-.928 1.16-2.32 1.74-4.176 1.74-1.933 0-3.47-.725-4.611-2.175-1.14-1.469-1.711-3.354-1.711-5.655s.571-4.176 1.711-5.626c1.141-1.469 2.678-2.204 4.611-2.204zm1.305 12.296c1.199 0 2.098-.425 2.697-1.276.619-.851.928-1.914.928-3.19s-.309-2.33-.928-3.161c-.599-.851-1.498-1.276-2.697-1.276-1.16 0-2.049.416-2.668 1.247-.599.831-.899 1.895-.899 3.19 0 1.315.3 2.388.899 3.219.619.831 1.508 1.247 2.668 1.247zm25.683-5.22v1.218h-10.672c.116 2.668 1.324 4.002 3.625 4.002 1.469 0 2.397-.522 2.784-1.566h4.118c-.31 1.547-1.054 2.755-2.233 3.625-1.18.87-2.755 1.305-4.727 1.305-2.34 0-4.196-.715-5.568-2.146-1.354-1.431-2.03-3.345-2.03-5.742 0-2.378.676-4.263 2.03-5.655 1.353-1.411 3.18-2.117 5.481-2.117 2.204 0 3.944.657 5.22 1.972 1.276 1.315 1.933 3.016 1.972 5.104zm-4.147-1.479c-.271-1.701-1.296-2.552-3.074-2.552-1.779 0-2.881.851-3.306 2.552h6.38zm17.651-5.22v3.77h-1.45c-3.035 0-4.553 1.537-4.553 4.611V161h-4.06v-14.906h3.915v1.682h.754c.754-1.121 2.088-1.682 4.002-1.682h1.392zM23.373 453.167c1.876 0 3.422.638 4.64 1.914 1.238 1.257 1.856 2.9 1.856 4.93 0 2.185-.705 3.963-2.117 5.336-1.411 1.353-3.21 2.03-5.394 2.03-2.3 0-4.137-.609-5.51-1.827-1.353-1.218-2.088-2.794-2.204-4.727h4.176c.232 1.895 1.363 2.842 3.393 2.842 1.083 0 1.934-.319 2.552-.957.619-.657.928-1.537.928-2.639 0-1.16-.319-2.049-.957-2.668-.618-.638-1.45-.957-2.494-.957-1.392 0-2.465.503-3.219 1.508h-3.886l.9-11.252h12.527v3.509h-9.28l-.319 4.147h.754c1.064-.793 2.282-1.189 3.654-1.189zm18.097 0c1.875 0 3.422.638 4.64 1.914 1.237 1.257 1.856 2.9 1.856 4.93 0 2.185-.706 3.963-2.117 5.336-1.411 1.353-3.21 2.03-5.394 2.03-2.3 0-4.137-.609-5.51-1.827-1.353-1.218-2.088-2.794-2.204-4.727h4.176c.232 1.895 1.363 2.842 3.393 2.842 1.083 0 1.933-.319 2.552-.957.619-.657.928-1.537.928-2.639 0-1.16-.32-2.049-.957-2.668-.619-.638-1.45-.957-2.494-.957-1.392 0-2.465.503-3.22 1.508h-3.885l.899-11.252H46.66v3.509h-9.28l-.32 4.147h.755c1.063-.793 2.281-1.189 3.654-1.189zm33.772-6.873h8.642c3.113 0 5.491.928 7.135 2.784 1.643 1.856 2.464 4.379 2.464 7.569 0 3.19-.821 5.713-2.465 7.569-1.643 1.856-4.02 2.784-7.134 2.784h-8.642v-20.706zm4.321 16.849h3.77c1.972 0 3.413-.59 4.322-1.769.927-1.199 1.391-2.774 1.391-4.727 0-1.953-.464-3.519-1.392-4.698-.908-1.199-2.349-1.798-4.32-1.798h-3.77v12.992zM110.566 467l-1.682-5.597h-7.888L99.314 467H95.05l6.583-20.706h6.699L114.945 467h-4.379zm-6.293-16.559l-2.175 7.192h5.626l-2.175-7.192h-1.276zm13.737-4.147h4.321V467h-4.321v-20.706zm18.981 2.639c1.779-2.011 4.263-3.016 7.453-3.016 3.19 0 5.665 1.005 7.424 3.016 1.779 1.991 2.668 4.563 2.668 7.714 0 3.151-.889 5.732-2.668 7.743-1.759 1.991-4.234 2.987-7.424 2.987-3.19 0-5.674-.996-7.453-2.987-1.759-2.011-2.639-4.592-2.639-7.743 0-3.151.88-5.723 2.639-7.714zm7.453 14.587c1.856 0 3.258-.638 4.205-1.914.967-1.276 1.45-2.929 1.45-4.959s-.483-3.683-1.45-4.959c-.947-1.276-2.349-1.914-4.205-1.914-1.837 0-3.238.648-4.205 1.943-.967 1.276-1.45 2.919-1.45 4.93 0 2.011.483 3.664 1.45 4.959.967 1.276 2.368 1.914 4.205 1.914zm23.721-11.426v3.77h-1.45c-3.036 0-4.553 1.537-4.553 4.611V467h-4.06v-14.906h3.915v1.682h.754c.754-1.121 2.088-1.682 4.002-1.682h1.392zm8.417-.377c1.817 0 3.161.58 4.031 1.74h.754v-7.54h4.06V467h-3.915v-1.363h-.754c-.928 1.16-2.32 1.74-4.176 1.74-1.934 0-3.471-.725-4.611-2.175-1.141-1.469-1.711-3.354-1.711-5.655s.57-4.176 1.711-5.626c1.14-1.469 2.677-2.204 4.611-2.204zm1.305 12.296c1.198 0 2.097-.425 2.697-1.276.618-.851.928-1.914.928-3.19s-.31-2.33-.928-3.161c-.6-.851-1.499-1.276-2.697-1.276-1.16 0-2.05.416-2.668 1.247-.6.831-.899 1.895-.899 3.19 0 1.315.299 2.388.899 3.219.618.831 1.508 1.247 2.668 1.247zm25.682-5.22v1.218h-10.672c.116 2.668 1.324 4.002 3.625 4.002 1.469 0 2.397-.522 2.784-1.566h4.118c-.309 1.547-1.054 2.755-2.233 3.625-1.179.87-2.755 1.305-4.727 1.305-2.339 0-4.195-.715-5.568-2.146-1.353-1.431-2.03-3.345-2.03-5.742 0-2.378.677-4.263 2.03-5.655 1.353-1.411 3.18-2.117 5.481-2.117 2.204 0 3.944.657 5.22 1.972 1.276 1.315 1.933 3.016 1.972 5.104zm-4.147-1.479c-.271-1.701-1.295-2.552-3.074-2.552s-2.881.851-3.306 2.552h6.38zm17.652-5.22v3.77h-1.45c-3.036 0-4.553 1.537-4.553 4.611V467h-4.06v-14.906h3.915v1.682h.754c.754-1.121 2.088-1.682 4.002-1.682h1.392z" fill="#00AE99"/><path d="M50.867 467v-3.625h4.582v-12.499h-.725l-3.886 2.639v-4.147l3.886-2.668h4.9v16.675h4.177V467H50.867zM49.33 472.8h15.428v1.45H49.33v-1.45z" fill="#003831"/><path d="M83.934 4.934h56.884l19.17 19.17v76.22H83.934V4.934z" fill="#E5E5E5" stroke="#00AE99" stroke-width="3.867"/><path d="M112.597 39.099v.452c.464.209.847.551 1.148 1.027.314.476.47 1.01.47 1.601 0 1.09-.359 1.966-1.079 2.628-.719.65-1.786.974-3.202.974h-5.986V33.356h5.83c1.311 0 2.32.313 3.028.94.707.626 1.061 1.41 1.061 2.349 0 .557-.116 1.056-.348 1.497-.22.429-.528.748-.922.957zm-6.056-.818h2.924c1.16 0 1.74-.464 1.74-1.392 0-.917-.586-1.375-1.758-1.375h-2.906v2.767zm0 5.29h3.011c1.334 0 2.001-.51 2.001-1.531 0-1.056-.656-1.584-1.967-1.584h-3.045v3.115zm17.779-10.215h2.593v7.848c0 1.543-.453 2.733-1.358 3.568-.893.824-2.181 1.236-3.863 1.236-1.659 0-2.941-.412-3.846-1.236-.893-.835-1.34-2.025-1.34-3.568v-7.848h2.593v7.796c0 .777.226 1.398.679 1.862.464.453 1.108.679 1.931.679.836 0 1.48-.226 1.932-.679.453-.464.679-1.085.679-1.862v-7.796zm9.654 4.96h.487l2.663-4.96h2.749l-4.35 8.005v4.42h-2.611v-4.42l-4.333-8.005h2.732l2.663 4.96z" fill="#00AE99"/><path stroke="#00AE99" stroke-width="3.223" d="M96.824 57.463h50.274M96.824 74.865h50.274M97 66.389h39.316M96.824 83.889h39.317"/><path d="M83.934 303.934h56.884l19.17 19.17v76.22H83.934v-95.39z" fill="#E5E5E5" stroke="#00AE99" stroke-width="3.867"/><path d="M112.597 338.099v.452c.464.209.847.551 1.148 1.027.314.476.47 1.009.47 1.601 0 1.091-.359 1.966-1.079 2.628-.719.649-1.786.974-3.202.974h-5.986v-12.425h5.83c1.311 0 2.32.313 3.028.94.707.626 1.061 1.409 1.061 2.349 0 .557-.116 1.056-.348 1.497-.22.429-.528.748-.922.957zm-6.056-.818h2.924c1.16 0 1.74-.464 1.74-1.392 0-.917-.586-1.375-1.758-1.375h-2.906v2.767zm0 5.29h3.011c1.334 0 2.001-.51 2.001-1.531 0-1.056-.656-1.584-1.967-1.584h-3.045v3.115zm17.779-10.215h2.593v7.848c0 1.543-.453 2.733-1.358 3.568-.893.824-2.181 1.235-3.863 1.235-1.659 0-2.941-.411-3.846-1.235-.893-.835-1.34-2.025-1.34-3.568v-7.848h2.593v7.796c0 .778.226 1.398.679 1.862.464.453 1.108.679 1.931.679.836 0 1.48-.226 1.932-.679.453-.464.679-1.084.679-1.862v-7.796zm9.654 4.96h.487l2.663-4.96h2.749l-4.35 8.005v4.42h-2.611v-4.42l-4.333-8.005h2.732l2.663 4.96z" fill="#00AE99"/><path stroke="#00AE99" stroke-width="3.223" d="M96.824 356.463h50.274M96.824 373.865h50.274M97 365.389h39.316M96.824 382.889h39.317"/><path d="M512.224 140.294h4.321V161h-4.321v-8.671h-9.164V161h-4.321v-20.706h4.321v8.062h9.164v-8.062zM530.241 161v-1.276h-.754c-.947 1.102-2.339 1.653-4.176 1.653-1.624 0-2.91-.474-3.857-1.421-.947-.967-1.421-2.146-1.421-3.538 0-1.334.503-2.494 1.508-3.48 1.005-.986 2.523-1.479 4.553-1.479h3.973v-.377c0-1.547-.88-2.32-2.639-2.32-1.566 0-2.407.532-2.523 1.595h-4.031c.039-1.411.648-2.533 1.827-3.364 1.179-.851 2.687-1.276 4.524-1.276 2.127 0 3.78.454 4.959 1.363 1.199.909 1.798 2.32 1.798 4.234V161h-3.741zm-3.509-2.842c.986 0 1.788-.29 2.407-.87.619-.58.928-1.334.928-2.262v-.928h-3.19c-1.856 0-2.784.667-2.784 2.001 0 1.373.88 2.059 2.639 2.059zm23.459-7.975h-4.031c-.174-.889-.976-1.334-2.407-1.334-1.45 0-2.175.425-2.175 1.276 0 .367.116.638.348.812.252.155.667.29 1.247.406l2.697.406c3.171.483 4.756 2.078 4.756 4.785 0 1.334-.58 2.475-1.74 3.422-1.16.947-2.784 1.421-4.872 1.421-2.204 0-3.886-.445-5.046-1.334-1.14-.889-1.798-2.136-1.972-3.741h4.031c.194 1.295 1.18 1.943 2.958 1.943 1.721 0 2.581-.541 2.581-1.624 0-.483-.164-.841-.493-1.073-.328-.251-.879-.445-1.653-.58l-2.9-.464c-2.668-.503-4.002-1.875-4.002-4.118 0-1.373.532-2.494 1.595-3.364 1.083-.87 2.668-1.305 4.756-1.305 1.837 0 3.306.406 4.408 1.218 1.122.812 1.76 1.895 1.914 3.248zM568.226 161h-4.06v-8.439c0-2.165-.966-3.248-2.9-3.248-.986 0-1.788.367-2.407 1.102-.599.735-.899 1.624-.899 2.668V161h-4.06v-21.083h4.06v7.54h.754c.87-1.16 2.224-1.74 4.06-1.74 1.818 0 3.181.532 4.089 1.595.909 1.063 1.363 2.571 1.363 4.524V161zm11.545 0v-3.625h4.582v-12.499h-.725l-3.886 2.639v-4.147l3.886-2.668h4.901v16.675h4.176V161h-12.934z" fill="#00AE99"/><path stroke="#00AE99" stroke-width="6" d="M492 3h106v106H492z"/><path fill="#00AE99" d="M489 0h37v37h-37zM526 37h18v18h-18zM544 18h18v19h-18zM562 37h19v18h-19zM544 55h18v18h-18zM562 73h19v19h-19zM581 55h18v18h-18zM526 55h18v18h-18zM562 0h19v18h-19zM507 73h19v19h-19zM489 92h18v18h-18zM526 91h18v18h-18zM544 91h18v18h-18zM489 55h18v18h-18zM511.133 458.294h4.321V479h-4.321v-8.671h-9.164V479h-4.321v-20.706h4.321v8.062h9.164v-8.062zM529.151 479v-1.276h-.754c-.948 1.102-2.34 1.653-4.176 1.653-1.624 0-2.91-.474-3.857-1.421-.948-.967-1.421-2.146-1.421-3.538 0-1.334.502-2.494 1.508-3.48 1.005-.986 2.523-1.479 4.553-1.479h3.973v-.377c0-1.547-.88-2.32-2.639-2.32-1.566 0-2.407.532-2.523 1.595h-4.031c.038-1.411.647-2.533 1.827-3.364 1.179-.851 2.687-1.276 4.524-1.276 2.126 0 3.779.454 4.959 1.363 1.198.909 1.798 2.32 1.798 4.234V479h-3.741zm-3.509-2.842c.986 0 1.788-.29 2.407-.87.618-.58.928-1.334.928-2.262v-.928h-3.19c-1.856 0-2.784.667-2.784 2.001 0 1.373.879 2.059 2.639 2.059zm23.459-7.975h-4.031c-.174-.889-.976-1.334-2.407-1.334-1.45 0-2.175.425-2.175 1.276 0 .367.116.638.348.812.251.155.667.29 1.247.406l2.697.406c3.171.483 4.756 2.078 4.756 4.785 0 1.334-.58 2.475-1.74 3.422-1.16.947-2.784 1.421-4.872 1.421-2.204 0-3.886-.445-5.046-1.334-1.141-.889-1.798-2.136-1.972-3.741h4.031c.193 1.295 1.179 1.943 2.958 1.943 1.721 0 2.581-.541 2.581-1.624 0-.483-.164-.841-.493-1.073-.329-.251-.88-.445-1.653-.58l-2.9-.464c-2.668-.503-4.002-1.875-4.002-4.118 0-1.373.532-2.494 1.595-3.364 1.083-.87 2.668-1.305 4.756-1.305 1.837 0 3.306.406 4.408 1.218 1.121.812 1.759 1.895 1.914 3.248zM567.136 479h-4.06v-8.439c0-2.165-.967-3.248-2.9-3.248-.986 0-1.788.367-2.407 1.102-.599.735-.899 1.624-.899 2.668V479h-4.06v-21.083h4.06v7.54h.754c.87-1.16 2.223-1.74 4.06-1.74 1.817 0 3.18.532 4.089 1.595.909 1.063 1.363 2.571 1.363 4.524V479zm15.605-14.181h-4.176c.116-2.107.831-3.722 2.146-4.843 1.314-1.121 3.074-1.682 5.278-1.682 2.088 0 3.779.58 5.075 1.74 1.314 1.141 1.972 2.736 1.972 4.785 0 2.378-1.257 4.543-3.77 6.496l-4.263 3.306v.754h8.584V479h-14.993v-4.35l6.96-5.191c1.005-.715 1.798-1.431 2.378-2.146.599-.735.899-1.537.899-2.407 0-.947-.271-1.663-.812-2.146-.522-.503-1.238-.754-2.146-.754-1.895 0-2.939.938-3.132 2.813z"/><path stroke="#00AE99" stroke-width="6" d="M492 328h106v106H492z"/><path fill="#00AE99" d="M544 343h19v19h-19zM562 398h19v19h-19zM489 417h18v18h-18zM581 328h18v19h-18zM507 398h19v19h-19zM526 343h18v19h-18zM526 362h18v18h-18zM507 325h19v18h-19zM581 416h18v18h-18zM544 416h18v18h-18zM490 362h18v18h-18z"/></svg>