<svg width="1600" height="543" fill="none" xmlns="http://www.w3.org/2000/svg"><path fill="#fff" d="M0 0h1600v543H0z"/><path d="M864.475 86.475a3.5 3.5 0 0 0 0-4.95l-22.274-22.274a3.5 3.5 0 0 0-4.95 4.95L857.05 84l-19.799 19.799a3.5 3.5 0 1 0 4.95 4.95l22.274-22.274zM760 87.5h102v-7H760v7zM864.475 411.475a3.5 3.5 0 0 0 0-4.95l-22.274-22.274a3.5 3.5 0 1 0-4.95 4.95L857.05 409l-19.799 19.799a3.5 3.5 0 1 0 4.95 4.95l22.274-22.274zM760 412.5h102v-7H760v7zM499.216 175.167c1.876 0 3.422.638 4.64 1.914 1.238 1.257 1.856 2.9 1.856 4.93 0 2.185-.705 3.963-2.117 5.336-1.411 1.353-3.209 2.03-5.394 2.03-2.3 0-4.137-.609-5.51-1.827-1.353-1.218-2.088-2.794-2.204-4.727h4.176c.232 1.895 1.363 2.842 3.393 2.842 1.083 0 1.934-.319 2.552-.957.619-.657.928-1.537.928-2.639 0-1.16-.319-2.049-.957-2.668-.618-.638-1.45-.957-2.494-.957-1.392 0-2.465.503-3.219 1.508h-3.886l.899-11.252h12.528v3.509h-9.28l-.319 4.147h.754c1.064-.793 2.282-1.189 3.654-1.189zm18.097 0c1.876 0 3.422.638 4.64 1.914 1.238 1.257 1.856 2.9 1.856 4.93 0 2.185-.705 3.963-2.117 5.336-1.411 1.353-3.209 2.03-5.394 2.03-2.3 0-4.137-.609-5.51-1.827-1.353-1.218-2.088-2.794-2.204-4.727h4.176c.232 1.895 1.363 2.842 3.393 2.842 1.083 0 1.934-.319 2.552-.957.619-.657.928-1.537.928-2.639 0-1.16-.319-2.049-.957-2.668-.618-.638-1.45-.957-2.494-.957-1.392 0-2.465.503-3.219 1.508h-3.886l.899-11.252h12.528v3.509h-9.28l-.319 4.147h.754c1.064-.793 2.282-1.189 3.654-1.189zm11.456-4.234c1.469-1.759 3.393-2.639 5.771-2.639s4.292.88 5.742 2.639c1.469 1.74 2.204 4.379 2.204 7.917 0 3.519-.735 6.158-2.204 7.917-1.45 1.74-3.364 2.61-5.742 2.61s-4.302-.87-5.771-2.61c-1.45-1.759-2.175-4.398-2.175-7.917 0-3.538.725-6.177 2.175-7.917zm5.771 14.732c2.513 0 3.77-2.272 3.77-6.815 0-4.563-1.257-6.844-3.77-6.844-2.494 0-3.741 2.281-3.741 6.844 0 4.543 1.247 6.815 3.741 6.815zm19.859-17.371h8.642c3.113 0 5.491.928 7.134 2.784 1.644 1.856 2.465 4.379 2.465 7.569 0 3.19-.821 5.713-2.465 7.569-1.643 1.856-4.021 2.784-7.134 2.784h-8.642v-20.706zm4.321 16.849h3.77c1.972 0 3.413-.59 4.321-1.769.928-1.199 1.392-2.774 1.392-4.727 0-1.953-.464-3.519-1.392-4.698-.908-1.199-2.349-1.798-4.321-1.798h-3.77v12.992zM589.723 189l-1.682-5.597h-7.888L578.471 189h-4.263l6.583-20.706h6.699L594.102 189h-4.379zm-6.293-16.559l-2.175 7.192h5.626l-2.175-7.192h-1.276zm13.736-4.147h4.321V189h-4.321v-20.706zm18.982 2.639c1.779-2.011 4.263-3.016 7.453-3.016 3.19 0 5.665 1.005 7.424 3.016 1.779 1.991 2.668 4.563 2.668 7.714 0 3.151-.889 5.732-2.668 7.743-1.759 1.991-4.234 2.987-7.424 2.987-3.19 0-5.674-.996-7.453-2.987-1.759-2.011-2.639-4.592-2.639-7.743 0-3.151.88-5.723 2.639-7.714zm7.453 14.587c1.856 0 3.258-.638 4.205-1.914.967-1.276 1.45-2.929 1.45-4.959s-.483-3.683-1.45-4.959c-.947-1.276-2.349-1.914-4.205-1.914-1.837 0-3.238.648-4.205 1.943-.967 1.276-1.45 2.919-1.45 4.93 0 2.011.483 3.664 1.45 4.959.967 1.276 2.368 1.914 4.205 1.914zm23.72-11.426v3.77h-1.45c-3.035 0-4.553 1.537-4.553 4.611V189h-4.06v-14.906h3.915v1.682h.754c.754-1.121 2.088-1.682 4.002-1.682h1.392zm8.417-.377c1.818 0 3.161.58 4.031 1.74h.754v-7.54h4.06V189h-3.915v-1.363h-.754c-.928 1.16-2.32 1.74-4.176 1.74-1.933 0-3.47-.725-4.611-2.175-1.14-1.469-1.711-3.354-1.711-5.655s.571-4.176 1.711-5.626c1.141-1.469 2.678-2.204 4.611-2.204zm1.305 12.296c1.199 0 2.098-.425 2.697-1.276.619-.851.928-1.914.928-3.19s-.309-2.33-.928-3.161c-.599-.851-1.498-1.276-2.697-1.276-1.16 0-2.049.416-2.668 1.247-.599.831-.899 1.895-.899 3.19 0 1.315.3 2.388.899 3.219.619.831 1.508 1.247 2.668 1.247zm25.683-5.22v1.218h-10.672c.116 2.668 1.324 4.002 3.625 4.002 1.469 0 2.397-.522 2.784-1.566h4.118c-.31 1.547-1.054 2.755-2.233 3.625-1.18.87-2.755 1.305-4.727 1.305-2.34 0-4.196-.715-5.568-2.146-1.354-1.431-2.03-3.345-2.03-5.742 0-2.378.676-4.263 2.03-5.655 1.353-1.411 3.18-2.117 5.481-2.117 2.204 0 3.944.657 5.22 1.972 1.276 1.315 1.933 3.016 1.972 5.104zm-4.147-1.479c-.271-1.701-1.296-2.552-3.074-2.552-1.779 0-2.881.851-3.306 2.552h6.38zm17.651-5.22v3.77h-1.45c-3.035 0-4.553 1.537-4.553 4.611V189h-4.06v-14.906h3.915v1.682h.754c.754-1.121 2.088-1.682 4.002-1.682h1.392zM502.373 481.167c1.876 0 3.422.638 4.64 1.914 1.238 1.257 1.856 2.9 1.856 4.93 0 2.185-.705 3.963-2.117 5.336-1.411 1.353-3.209 2.03-5.394 2.03-2.3 0-4.137-.609-5.51-1.827-1.353-1.218-2.088-2.794-2.204-4.727h4.176c.232 1.895 1.363 2.842 3.393 2.842 1.083 0 1.934-.319 2.552-.957.619-.657.928-1.537.928-2.639 0-1.16-.319-2.049-.957-2.668-.618-.638-1.45-.957-2.494-.957-1.392 0-2.465.503-3.219 1.508h-3.886l.899-11.252h12.528v3.509h-9.28l-.319 4.147h.754c1.064-.793 2.282-1.189 3.654-1.189zm18.097 0c1.875 0 3.422.638 4.64 1.914 1.237 1.257 1.856 2.9 1.856 4.93 0 2.185-.706 3.963-2.117 5.336-1.411 1.353-3.209 2.03-5.394 2.03-2.301 0-4.137-.609-5.51-1.827-1.353-1.218-2.088-2.794-2.204-4.727h4.176c.232 1.895 1.363 2.842 3.393 2.842 1.083 0 1.933-.319 2.552-.957.619-.657.928-1.537.928-2.639 0-1.16-.319-2.049-.957-2.668-.619-.638-1.45-.957-2.494-.957-1.392 0-2.465.503-3.219 1.508h-3.886l.899-11.252h12.528v3.509h-9.28l-.319 4.147h.754c1.063-.793 2.281-1.189 3.654-1.189zm33.772-6.873h8.642c3.113 0 5.491.928 7.134 2.784 1.644 1.856 2.465 4.379 2.465 7.569 0 3.19-.821 5.713-2.465 7.569-1.643 1.856-4.021 2.784-7.134 2.784h-8.642v-20.706zm4.321 16.849h3.77c1.972 0 3.413-.59 4.321-1.769.928-1.199 1.392-2.774 1.392-4.727 0-1.953-.464-3.519-1.392-4.698-.908-1.199-2.349-1.798-4.321-1.798h-3.77v12.992zM589.566 495l-1.682-5.597h-7.888L578.314 495h-4.263l6.583-20.706h6.699L593.945 495h-4.379zm-6.293-16.559l-2.175 7.192h5.626l-2.175-7.192h-1.276zm13.737-4.147h4.321V495h-4.321v-20.706zm18.981 2.639c1.779-2.011 4.263-3.016 7.453-3.016 3.19 0 5.665 1.005 7.424 3.016 1.779 1.991 2.668 4.563 2.668 7.714 0 3.151-.889 5.732-2.668 7.743-1.759 1.991-4.234 2.987-7.424 2.987-3.19 0-5.674-.996-7.453-2.987-1.759-2.011-2.639-4.592-2.639-7.743 0-3.151.88-5.723 2.639-7.714zm7.453 14.587c1.856 0 3.258-.638 4.205-1.914.967-1.276 1.45-2.929 1.45-4.959s-.483-3.683-1.45-4.959c-.947-1.276-2.349-1.914-4.205-1.914-1.837 0-3.238.648-4.205 1.943-.967 1.276-1.45 2.919-1.45 4.93 0 2.011.483 3.664 1.45 4.959.967 1.276 2.368 1.914 4.205 1.914zm23.721-11.426v3.77h-1.45c-3.036 0-4.553 1.537-4.553 4.611V495h-4.06v-14.906h3.915v1.682h.754c.754-1.121 2.088-1.682 4.002-1.682h1.392zm8.417-.377c1.817 0 3.161.58 4.031 1.74h.754v-7.54h4.06V495h-3.915v-1.363h-.754c-.928 1.16-2.32 1.74-4.176 1.74-1.934 0-3.471-.725-4.611-2.175-1.141-1.469-1.711-3.354-1.711-5.655s.57-4.176 1.711-5.626c1.14-1.469 2.677-2.204 4.611-2.204zm1.305 12.296c1.198 0 2.097-.425 2.697-1.276.618-.851.928-1.914.928-3.19s-.31-2.33-.928-3.161c-.6-.851-1.499-1.276-2.697-1.276-1.16 0-2.05.416-2.668 1.247-.6.831-.899 1.895-.899 3.19 0 1.315.299 2.388.899 3.219.618.831 1.508 1.247 2.668 1.247zm25.682-5.22v1.218h-10.672c.116 2.668 1.324 4.002 3.625 4.002 1.469 0 2.397-.522 2.784-1.566h4.118c-.309 1.547-1.054 2.755-2.233 3.625-1.179.87-2.755 1.305-4.727 1.305-2.339 0-4.195-.715-5.568-2.146-1.353-1.431-2.03-3.345-2.03-5.742 0-2.378.677-4.263 2.03-5.655 1.353-1.411 3.18-2.117 5.481-2.117 2.204 0 3.944.657 5.22 1.972 1.276 1.315 1.933 3.016 1.972 5.104zm-4.147-1.479c-.271-1.701-1.295-2.552-3.074-2.552s-2.881.851-3.306 2.552h6.38zm17.652-5.22v3.77h-1.45c-3.036 0-4.553 1.537-4.553 4.611V495h-4.06v-14.906h3.915v1.682h.754c.754-1.121 2.088-1.682 4.002-1.682h1.392z" fill="#00AE99"/><path d="M529.867 495v-3.625h4.582v-12.499h-.725l-3.886 2.639v-4.147l3.886-2.668h4.901v16.675h4.176V495h-12.934zM528.33 500.8h15.428v1.45H528.33v-1.45z" fill="#003831"/><path d="M618.686 51.303v1.933h20.302v75.088h-76.054v-95.39h55.752v18.369zm3.867-1.934v-13.7l13.701 13.7h-13.701z" stroke="#00AE99" stroke-width="3.867"/><path d="M591.597 67.099v.452c.464.209.847.551 1.148 1.027.314.476.47 1.01.47 1.601 0 1.09-.359 1.966-1.079 2.628-.719.65-1.786.974-3.202.974h-5.986V61.356h5.83c1.311 0 2.32.313 3.028.94.707.626 1.061 1.41 1.061 2.349 0 .557-.116 1.056-.348 1.497-.22.429-.528.748-.922.957zm-6.056-.818h2.924c1.16 0 1.74-.464 1.74-1.392 0-.917-.586-1.375-1.758-1.375h-2.906v2.767zm0 5.29h3.011c1.334 0 2.001-.51 2.001-1.531 0-1.056-.656-1.584-1.967-1.584h-3.045v3.115zm17.779-10.215h2.593v7.848c0 1.543-.453 2.733-1.358 3.568-.893.824-2.181 1.235-3.863 1.235-1.659 0-2.941-.411-3.846-1.235-.893-.835-1.34-2.025-1.34-3.568v-7.848h2.593v7.796c0 .778.226 1.398.679 1.862.464.453 1.108.679 1.931.679.836 0 1.48-.226 1.932-.679.453-.464.679-1.084.679-1.862v-7.796zm9.654 4.96h.487l2.663-4.96h2.749l-4.35 8.005v4.42h-2.611v-4.42l-4.333-8.005h2.732l2.663 4.96z" fill="#00AE99"/><path stroke="#00AE99" stroke-width="3.223" d="M575.824 85.463h50.274M575.824 102.865h50.274M576 94.389h39.317M575.824 111.889h39.317"/><path d="M618.686 350.303v1.933h20.302v75.088h-76.054v-95.39h55.752v18.369zm3.867-1.934v-13.701l13.701 13.701h-13.701z" stroke="#00AE99" stroke-width="3.867"/><path d="M591.597 366.099v.452c.464.209.847.551 1.148 1.027.314.476.47 1.009.47 1.601 0 1.091-.359 1.966-1.079 2.628-.719.649-1.786.974-3.202.974h-5.986v-12.425h5.83c1.311 0 2.32.313 3.028.94.707.626 1.061 1.409 1.061 2.349 0 .557-.116 1.056-.348 1.497-.22.429-.528.748-.922.957zm-6.056-.818h2.924c1.16 0 1.74-.464 1.74-1.392 0-.917-.586-1.375-1.758-1.375h-2.906v2.767zm0 5.29h3.011c1.334 0 2.001-.51 2.001-1.531 0-1.056-.656-1.584-1.967-1.584h-3.045v3.115zm17.779-10.215h2.593v7.848c0 1.543-.453 2.733-1.358 3.568-.893.824-2.181 1.235-3.863 1.235-1.659 0-2.941-.411-3.846-1.235-.893-.835-1.34-2.025-1.34-3.568v-7.848h2.593v7.796c0 .778.226 1.398.679 1.862.464.453 1.108.679 1.931.679.836 0 1.48-.226 1.932-.679.453-.464.679-1.084.679-1.862v-7.796zm9.654 4.96h.487l2.663-4.96h2.749l-4.35 8.005v4.42h-2.611v-4.42l-4.333-8.005h2.732l2.663 4.96z" fill="#00AE99"/><path stroke="#00AE99" stroke-width="3.223" d="M575.824 384.463h50.274M575.824 401.865h50.274M576 393.389h39.317M575.824 410.889h39.317"/><path d="M991.224 168.294h4.321V189h-4.321v-8.671h-9.164V189h-4.321v-20.706h4.321v8.062h9.164v-8.062zM1009.24 189v-1.276h-.75c-.95 1.102-2.34 1.653-4.18 1.653-1.62 0-2.91-.474-3.86-1.421-.943-.967-1.417-2.146-1.417-3.538 0-1.334.503-2.494 1.507-3.48 1.01-.986 2.52-1.479 4.55-1.479h3.98v-.377c0-1.547-.88-2.32-2.64-2.32-1.57 0-2.41.532-2.52 1.595h-4.036c.039-1.411.646-2.533 1.826-3.364 1.18-.851 2.69-1.276 4.53-1.276 2.12 0 3.77.454 4.95 1.363 1.2.909 1.8 2.32 1.8 4.234V189h-3.74zm-3.51-2.842c.99 0 1.79-.29 2.41-.87.62-.58.93-1.334.93-2.262v-.928h-3.19c-1.86 0-2.79.667-2.79 2.001 0 1.373.88 2.059 2.64 2.059zm23.46-7.975h-4.03c-.17-.889-.98-1.334-2.41-1.334-1.45 0-2.17.425-2.17 1.276 0 .367.11.638.35.812.25.155.66.29 1.24.406l2.7.406c3.17.483 4.76 2.078 4.76 4.785 0 1.334-.58 2.475-1.74 3.422-1.16.947-2.79 1.421-4.88 1.421-2.2 0-3.88-.445-5.04-1.334-1.14-.889-1.8-2.136-1.97-3.741h4.03c.19 1.295 1.18 1.943 2.96 1.943 1.72 0 2.58-.541 2.58-1.624 0-.483-.17-.841-.5-1.073-.33-.251-.88-.445-1.65-.58l-2.9-.464c-2.67-.503-4-1.875-4-4.118 0-1.373.53-2.494 1.59-3.364 1.09-.87 2.67-1.305 4.76-1.305 1.84 0 3.31.406 4.41 1.218 1.12.812 1.76 1.895 1.91 3.248zM1047.23 189h-4.06v-8.439c0-2.165-.97-3.248-2.9-3.248-.99 0-1.79.367-2.41 1.102-.6.735-.9 1.624-.9 2.668V189h-4.06v-21.083h4.06v7.54h.75c.87-1.16 2.23-1.74 4.06-1.74 1.82 0 3.18.532 4.09 1.595.91 1.063 1.37 2.571 1.37 4.524V189zm11.54 0v-3.625h4.58v-12.499h-.72l-3.89 2.639v-4.147l3.89-2.668h4.9v16.675h4.17V189h-12.93z" fill="#00AE99"/><path stroke="#00AE99" stroke-width="6" d="M971 31h106v106H971z"/><path fill="#00AE99" d="M968 28h37v37h-37zM1005 65h18v18h-18zM1023 46h18v19h-18zM1041 65h19v18h-19zM1023 83h18v18h-18zM1041 101h19v19h-19zM1060 83h18v18h-18zM1005 83h18v18h-18zM1041 28h19v18h-19zM986 101h19v19h-19zM968 120h18v18h-18zM1005 119h18v18h-18zM1023 119h18v18h-18zM968 83h18v18h-18zM990.133 486.294h4.321V507h-4.321v-8.671h-9.164V507h-4.321v-20.706h4.321v8.062h9.164v-8.062zM1008.15 507v-1.276h-.75c-.95 1.102-2.34 1.653-4.18 1.653-1.62 0-2.91-.474-3.856-1.421-.948-.967-1.421-2.146-1.421-3.538 0-1.334.502-2.494 1.508-3.48 1.009-.986 2.519-1.479 4.549-1.479h3.98v-.377c0-1.547-.88-2.32-2.64-2.32-1.57 0-2.41.532-2.53 1.595h-4.026c.038-1.411.647-2.533 1.826-3.364 1.18-.851 2.69-1.276 4.52-1.276 2.13 0 3.78.454 4.96 1.363 1.2.909 1.8 2.32 1.8 4.234V507h-3.74zm-3.51-2.842c.99 0 1.79-.29 2.41-.87.62-.58.93-1.334.93-2.262v-.928h-3.19c-1.86 0-2.79.667-2.79 2.001 0 1.373.88 2.059 2.64 2.059zm23.46-7.975h-4.03c-.17-.889-.98-1.334-2.41-1.334-1.45 0-2.17.425-2.17 1.276 0 .367.11.638.35.812.25.155.66.29 1.24.406l2.7.406c3.17.483 4.76 2.078 4.76 4.785 0 1.334-.58 2.475-1.74 3.422-1.16.947-2.79 1.421-4.88 1.421-2.2 0-3.88-.445-5.04-1.334-1.14-.889-1.8-2.136-1.97-3.741h4.03c.19 1.295 1.18 1.943 2.96 1.943 1.72 0 2.58-.541 2.58-1.624 0-.483-.17-.841-.5-1.073-.33-.251-.88-.445-1.65-.58l-2.9-.464c-2.67-.503-4-1.875-4-4.118 0-1.373.53-2.494 1.59-3.364 1.09-.87 2.67-1.305 4.76-1.305 1.84 0 3.31.406 4.41 1.218 1.12.812 1.76 1.895 1.91 3.248zM1046.14 507h-4.06v-8.439c0-2.165-.97-3.248-2.9-3.248-.99 0-1.79.367-2.41 1.102-.6.735-.9 1.624-.9 2.668V507h-4.06v-21.083h4.06v7.54h.75c.87-1.16 2.23-1.74 4.06-1.74 1.82 0 3.18.532 4.09 1.595.91 1.063 1.37 2.571 1.37 4.524V507zm15.6-14.181h-4.18c.12-2.107.84-3.722 2.15-4.843 1.32-1.121 3.07-1.682 5.28-1.682 2.09 0 3.78.58 5.07 1.74 1.32 1.141 1.98 2.736 1.98 4.785 0 2.378-1.26 4.543-3.77 6.496l-4.27 3.306v.754h8.59V507h-15v-4.35l6.96-5.191c1.01-.715 1.8-1.431 2.38-2.146.6-.735.9-1.537.9-2.407 0-.947-.27-1.663-.81-2.146-.52-.503-1.24-.754-2.15-.754-1.89 0-2.94.938-3.13 2.813z"/><path stroke="#00AE99" stroke-width="6" d="M971 356h106v106H971z"/><path fill="#00AE99" d="M1023 371h19v19h-19zM1041 426h19v19h-19zM968 445h18v18h-18zM1060 356h18v19h-18zM986 426h19v19h-19zM1005 371h18v19h-18zM1005 390h18v18h-18zM986 353h19v18h-19zM1060 444h18v18h-18zM1023 444h18v18h-18zM969 390h18v18h-18z"/></svg>