<svg width="303" height="247" xmlns="http://www.w3.org/2000/svg"><g fill="none" fill-rule="evenodd"><path d="M191.138 31.847a1.786 1.786 0 0 0 0-2.527L179.77 17.951a1.787 1.787 0 1 0-2.526 2.527l10.105 10.105-10.105 10.106a1.787 1.787 0 0 0 2.526 2.527l11.37-11.37zm-53.326.523h52.063v-3.573h-52.063v3.573zm53.326 165.362a1.786 1.786 0 0 0 0-2.527l-11.369-11.369a1.787 1.787 0 1 0-2.526 2.527l10.105 10.106-10.105 10.105a1.787 1.787 0 1 0 2.526 2.527l11.37-11.369zm-53.326.523h52.063v-3.573h-52.063v3.573zM4.704 77.116c.958 0 1.747.326 2.368.977.632.642.948 1.48.948 2.517 0 1.115-.36 2.023-1.08 2.723-.721.691-1.639 1.037-2.754 1.037-1.174 0-2.112-.311-2.812-.933-.691-.622-1.066-1.426-1.125-2.413H2.38c.118.967.695 1.45 1.731 1.45.553 0 .987-.162 1.303-.488.315-.335.473-.784.473-1.347 0-.592-.163-1.045-.488-1.361-.316-.326-.74-.489-1.273-.489-.71 0-1.258.257-1.643.77H.5l.46-5.743h6.394v1.79H2.617l-.162 2.117h.384a3.036 3.036 0 0 1 1.866-.607h-.001zm9.237 0c.957 0 1.747.326 2.368.977.632.642.948 1.48.948 2.517 0 1.115-.36 2.023-1.08 2.723-.721.691-1.64 1.037-2.754 1.037-1.174 0-2.112-.311-2.812-.933-.691-.622-1.066-1.426-1.125-2.413h2.131c.118.967.696 1.45 1.732 1.45.553 0 .987-.162 1.303-.488.315-.335.473-.784.473-1.347 0-.592-.163-1.045-.488-1.361-.316-.326-.74-.489-1.273-.489-.71 0-1.258.257-1.643.77H9.737l.46-5.743h6.394v1.79h-4.737l-.163 2.117h.385a3.038 3.038 0 0 1 1.865-.607zm5.847-2.16c.75-.898 1.732-1.348 2.945-1.348 1.215 0 2.192.45 2.932 1.347.75.889 1.125 2.236 1.125 4.041 0 1.797-.375 3.144-1.125 4.041-.74.888-1.717 1.333-2.931 1.333s-2.196-.445-2.946-1.333c-.74-.898-1.11-2.244-1.11-4.04 0-1.806.37-3.153 1.11-4.042zm2.945 7.519c1.284 0 1.925-1.16 1.925-3.479 0-2.329-.641-3.493-1.925-3.493-1.272 0-1.909 1.164-1.909 3.493 0 2.32.637 3.479 1.91 3.479zm10.137-8.867h4.411c1.59 0 2.803.474 3.642 1.421.839.948 1.258 2.236 1.258 3.864 0 1.628-.42 2.916-1.258 3.863-.839.947-2.053 1.421-3.642 1.421h-4.41V73.608zm2.206 8.6H37c1.007 0 1.742-.3 2.206-.903.473-.612.71-1.415.71-2.412 0-.997-.237-1.796-.71-2.398-.464-.612-1.2-.918-2.205-.918h-1.925v6.631zm15.824 1.97l-.858-2.858h-4.026l-.86 2.857h-2.175l3.36-10.569h3.42l3.374 10.57H50.9zm-3.212-8.453l-1.11 3.671h2.872l-1.11-3.67h-.652zm7.011-2.117h2.206v10.57h-2.206v-10.57zm9.689 1.347c.908-1.026 2.176-1.539 3.804-1.539 1.628 0 2.892.513 3.79 1.54.908 1.016 1.361 2.328 1.361 3.937 0 1.608-.453 2.925-1.361 3.952-.898 1.016-2.162 1.525-3.79 1.525-1.628 0-2.896-.509-3.804-1.525-.898-1.027-1.347-2.344-1.347-3.952 0-1.609.45-2.921 1.347-3.938zm3.804 7.446c.948 0 1.663-.326 2.146-.977.494-.651.74-1.495.74-2.531s-.246-1.88-.74-2.531c-.483-.652-1.198-.977-2.146-.977-.937 0-1.653.33-2.146.991-.494.652-.74 1.49-.74 2.517 0 1.026.246 1.87.74 2.53.493.652 1.209.978 2.146.978zM80.3 76.569v1.924h-.74c-1.549 0-2.324.785-2.324 2.354v3.33h-2.072V76.57h1.998v.858h.385c.385-.572 1.066-.858 2.043-.858h.71zm4.296-.193c.928 0 1.614.296 2.058.889h.385v-3.849h2.072v10.761h-1.998v-.696h-.385c-.474.592-1.184.889-2.132.889-.986 0-1.77-.37-2.353-1.11-.582-.75-.873-1.713-.873-2.887 0-1.175.291-2.132.873-2.872.582-.75 1.367-1.125 2.353-1.125zm.667 6.276c.612 0 1.07-.216 1.376-.65.316-.435.474-.978.474-1.63 0-.65-.158-1.188-.474-1.612-.306-.435-.764-.652-1.376-.652-.593 0-1.046.213-1.362.637-.306.424-.46.967-.46 1.628 0 .671.154 1.219.46 1.643.316.424.77.636 1.362.636zm13.109-2.664v.622h-5.448c.06 1.362.676 2.042 1.85 2.042.75 0 1.224-.266 1.422-.799h2.102c-.159.79-.538 1.406-1.14 1.85-.602.444-1.406.667-2.413.667-1.194 0-2.142-.365-2.842-1.096-.691-.73-1.036-1.707-1.036-2.93 0-1.214.345-2.177 1.036-2.887.69-.72 1.623-1.08 2.798-1.08 1.125 0 2.013.335 2.664 1.006.651.671.987 1.54 1.007 2.605zm-2.117-.755c-.138-.868-.662-1.302-1.57-1.302-.907 0-1.47.434-1.687 1.302h3.257zm9.01-2.664v1.924h-.74c-1.55 0-2.325.785-2.325 2.354v3.33h-2.072V76.57h1.998v.858h.385c.385-.572 1.066-.858 2.043-.858h.71zM6.314 233.304c.958 0 1.747.326 2.369.977.632.642.947 1.48.947 2.516 0 1.116-.36 2.023-1.08 2.724-.72.69-1.639 1.036-2.754 1.036-1.174 0-2.111-.31-2.812-.933-.69-.621-1.066-1.426-1.125-2.412h2.131c.119.967.696 1.45 1.732 1.45.553 0 .987-.162 1.303-.488.316-.335.474-.785.474-1.347 0-.592-.163-1.046-.489-1.362-.315-.326-.74-.488-1.273-.488-.71 0-1.258.256-1.643.77H2.112l.459-5.744h6.394v1.791H4.228l-.163 2.117h.385a3.039 3.039 0 0 1 1.865-.607zm9.237 0c.957 0 1.747.326 2.369.977.631.642.947 1.48.947 2.516 0 1.116-.36 2.023-1.08 2.724-.72.69-1.639 1.036-2.754 1.036-1.174 0-2.111-.31-2.812-.933-.69-.621-1.066-1.426-1.125-2.412h2.131c.119.967.696 1.45 1.732 1.45.553 0 .987-.162 1.303-.488.316-.335.474-.785.474-1.347 0-.592-.164-1.046-.489-1.362-.316-.326-.74-.488-1.273-.488-.71 0-1.258.256-1.643.77h-1.983l.458-5.744h6.394v1.791h-4.736l-.164 2.117h.386a3.037 3.037 0 0 1 1.865-.607zm17.238-3.508h4.411c1.59 0 2.803.474 3.642 1.42.839.948 1.258 2.236 1.258 3.864 0 1.628-.42 2.916-1.258 3.864-.84.947-2.052 1.42-3.642 1.42h-4.41v-10.568zm2.206 8.6h1.924c1.007 0 1.742-.301 2.206-.903.473-.612.71-1.416.71-2.413 0-.997-.237-1.796-.71-2.398-.464-.612-1.2-.917-2.206-.917h-1.924v6.63zm15.824 1.969l-.858-2.857h-4.027l-.858 2.857H42.9l3.36-10.57h3.419l3.375 10.57H50.82zm-3.212-8.452l-1.11 3.67h2.872l-1.11-3.67h-.652zm7.012-2.117h2.205v10.569H54.62v-10.57zm9.688 1.347c.908-1.027 2.176-1.54 3.804-1.54 1.628 0 2.892.513 3.79 1.54.907 1.016 1.361 2.329 1.361 3.937 0 1.609-.454 2.926-1.362 3.952-.897 1.017-2.16 1.525-3.789 1.525-1.628 0-2.896-.508-3.804-1.525-.898-1.026-1.347-2.343-1.347-3.952 0-1.608.45-2.92 1.347-3.937zm3.804 7.445c.947 0 1.663-.325 2.146-.977.494-.65.74-1.495.74-2.53 0-1.037-.246-1.88-.74-2.532-.483-.651-1.199-.977-2.146-.977-.938 0-1.653.33-2.146.992-.494.651-.74 1.49-.74 2.516 0 1.027.246 1.87.74 2.531.493.652 1.208.977 2.146.977zm12.108-5.832v1.925h-.74c-1.55 0-2.324.784-2.324 2.353v3.33h-2.073v-7.608h1.999v.859h.384c.385-.572 1.066-.859 2.043-.859h.71zm4.296-.192c.927 0 1.613.296 2.057.888h.385v-3.849h2.072v10.762h-1.998v-.696h-.385c-.473.592-1.184.888-2.131.888-.987 0-1.772-.37-2.354-1.11-.582-.75-.873-1.712-.873-2.887 0-1.174.29-2.131.873-2.871.582-.75 1.367-1.125 2.354-1.125zm.666 6.276c.611 0 1.07-.217 1.376-.651.316-.435.474-.977.474-1.629 0-.65-.158-1.189-.474-1.613-.306-.434-.765-.651-1.376-.651-.592 0-1.046.212-1.362.636-.306.424-.459.967-.459 1.628 0 .672.153 1.22.46 1.643.315.425.769.637 1.36.637zm13.108-2.664v.621h-5.447c.06 1.362.676 2.043 1.85 2.043.75 0 1.224-.266 1.422-.8h2.101c-.157.79-.538 1.407-1.14 1.85-.601.445-1.406.667-2.412.667-1.194 0-2.141-.365-2.842-1.095-.69-.73-1.036-1.708-1.036-2.931 0-1.214.345-2.176 1.036-2.887.69-.72 1.623-1.08 2.798-1.08 1.124 0 2.013.335 2.664 1.006.651.672.987 1.54 1.006 2.606zm-2.116-.755c-.139-.869-.661-1.303-1.57-1.303-.907 0-1.47.434-1.687 1.303h3.257zm9.01-2.665v1.925h-.74c-1.55 0-2.324.784-2.324 2.353v3.33h-2.073v-7.608h1.999v.859h.384c.385-.572 1.066-.859 2.043-.859h.71z" fill="#00AE99" fill-rule="nonzero"/><path d="M20.349 240.365v-1.85h2.339v-6.38h-.37l-1.984 1.347v-2.117l1.983-1.362h2.502v8.511h2.132v1.85h-6.602zm-.785 2.96h7.875v.74h-7.875v-.74z" fill="#003831" fill-rule="nonzero"/><path stroke="#00AE99" stroke-width="3.867" fill="#E5E5E5" fill-rule="nonzero" d="M37.227 4.518H66.26l9.785 9.785v38.904h-38.82z"/><path d="M51.857 21.957v.23c.237.107.432.282.586.525.16.243.24.515.24.817 0 .556-.184 1.003-.551 1.341-.367.332-.912.497-1.634.497h-3.056v-6.342h2.976c.67 0 1.184.16 1.545.48.361.32.542.72.542 1.2 0 .284-.06.538-.178.763-.112.22-.27.382-.47.489zm-3.091-.418h1.492c.592 0 .888-.237.888-.71 0-.468-.299-.702-.897-.702h-1.483v1.412zm0 2.7h1.537c.68 0 1.02-.26 1.02-.781 0-.54-.334-.809-1.003-.809h-1.554v1.59zm9.074-5.214h1.324v4.006c0 .788-.231 1.395-.693 1.821-.456.421-1.113.631-1.972.631-.847 0-1.501-.21-1.963-.63-.456-.427-.684-1.034-.684-1.822v-4.006h1.324v3.98c0 .396.115.713.346.95.237.231.566.347.986.347.426 0 .755-.116.986-.347.231-.237.346-.554.346-.95v-3.98zm4.928 2.532h.249l1.359-2.532h1.403l-2.22 4.086v2.256h-1.333v-2.256l-2.212-4.086h1.395l1.359 2.532z" fill="#00AE99" fill-rule="nonzero"/><path d="M43.806 31.33h25.66m-25.66 8.882h25.66m-25.57-4.326h20.067m-20.157 8.932h20.068" stroke="#00AE99" stroke-width="3.223"/><path stroke="#00AE99" stroke-width="3.867" fill="#E5E5E5" fill-rule="nonzero" d="M37.227 157.133H66.26l9.785 9.785v38.904h-38.82v-48.689z"/><path d="M51.857 174.571v.231c.237.107.432.281.586.524.16.243.24.515.24.817 0 .557-.184 1.004-.551 1.342-.367.331-.912.497-1.634.497h-3.056v-6.342h2.976c.67 0 1.184.16 1.545.48.361.32.542.719.542 1.199 0 .284-.06.539-.178.764-.112.219-.27.382-.47.488zm-3.091-.417h1.492c.592 0 .888-.237.888-.71 0-.469-.299-.702-.897-.702h-1.483v1.412zm0 2.7h1.537c.68 0 1.02-.26 1.02-.782 0-.538-.334-.808-1.003-.808h-1.554v1.59zm9.074-5.214h1.324v4.006c0 .787-.231 1.395-.693 1.821-.456.42-1.113.63-1.972.63-.847 0-1.501-.21-1.963-.63-.456-.426-.684-1.034-.684-1.821v-4.006h1.324v3.98c0 .396.115.713.346.95.237.23.566.346.986.346.426 0 .755-.115.986-.346.231-.237.346-.554.346-.95v-3.98zm4.928 2.532h.249l1.359-2.532h1.403l-2.22 4.086v2.256h-1.333v-2.256l-2.212-4.086h1.395l1.359 2.532z" fill="#00AE99" fill-rule="nonzero"/><path d="M43.806 183.945h25.66m-25.66 8.882h25.66m-25.57-4.326h20.067m-20.157 8.932h20.068" stroke="#00AE99" stroke-width="3.223"/><path d="M255.833 73.608h2.206v10.57h-2.206V79.75h-4.677v4.426h-2.206V73.608h2.206v4.115h4.677v-4.115zm9.196 10.57v-.652h-.385c-.483.562-1.193.844-2.131.844-.829 0-1.485-.242-1.969-.726-.483-.493-.725-1.095-.725-1.806 0-.68.257-1.273.77-1.776.513-.503 1.287-.755 2.324-.755h2.027v-.192c0-.79-.449-1.184-1.347-1.184-.799 0-1.228.271-1.287.814h-2.058c.02-.72.33-1.293.933-1.717.602-.435 1.371-.652 2.309-.652 1.085 0 1.93.232 2.531.696.612.464.918 1.184.918 2.161v4.944h-1.91zm-1.79-1.452c.502 0 .912-.148 1.228-.444.316-.296.473-.68.473-1.154v-.474h-1.628c-.947 0-1.42.34-1.42 1.022 0 .7.448 1.05 1.346 1.05zm11.973-4.07h-2.057c-.09-.454-.499-.681-1.229-.681-.74 0-1.11.217-1.11.651 0 .188.06.326.177.415.13.079.34.148.637.207l1.377.207c1.618.247 2.427 1.06 2.427 2.443 0 .68-.296 1.263-.888 1.746-.592.484-1.421.726-2.487.726-1.125 0-1.983-.228-2.575-.681-.582-.454-.918-1.09-1.007-1.91h2.058c.099.661.602.992 1.51.992.878 0 1.317-.276 1.317-.829 0-.247-.084-.43-.252-.548-.167-.128-.448-.227-.844-.296l-1.48-.237c-1.362-.256-2.042-.957-2.042-2.101 0-.701.271-1.273.814-1.718.552-.444 1.361-.666 2.427-.666.938 0 1.688.208 2.25.622.573.415.898.967.977 1.658zm9.205 5.521h-2.072V79.87c0-1.105-.493-1.658-1.48-1.658a1.53 1.53 0 0 0-1.229.562c-.305.375-.459.83-.459 1.362v4.041h-2.072V73.416h2.072v3.849h.385c.444-.593 1.136-.889 2.073-.889.928 0 1.623.272 2.087.814.464.543.695 1.313.695 2.31v4.677zm5.893 0v-1.85h2.339v-6.38h-.37l-1.984 1.347v-2.117l1.984-1.361h2.501v8.51h2.132v1.851h-6.602z" fill="#00AE99" fill-rule="nonzero"/><path stroke="#00AE99" stroke-width="6" d="M245.51 3.531h54.105v54.104H245.51z"/><path d="M243.98 2h18.885v18.885h-18.886V2zm18.885 18.885h9.187v9.188h-9.187v-9.188zm9.187-9.698h9.188v9.698h-9.188v-9.698zm9.188 9.698h9.697v9.188h-9.697v-9.188zm-9.188 9.188h9.188v9.187h-9.188v-9.187zm9.188 9.187h9.697v9.698h-9.697V39.26zm9.697-9.187h9.188v9.187h-9.188v-9.187zm-28.072 0h9.187v9.187h-9.187v-9.187zM281.24 2h9.697v9.188h-9.697V2zm-28.073 37.26h9.698v9.698h-9.698V39.26zm-9.188 9.698h9.188v9.188h-9.188v-9.188zm18.886-.51h9.187v9.187h-9.187v-9.187zm9.187 0h9.188v9.187h-9.188v-9.187zM243.98 30.073h9.188v9.187h-9.188v-9.187zm11.297 205.848h2.206v10.569h-2.206v-4.426H250.6v4.426h-2.206v-10.57h2.206v4.116h4.677v-4.115zm9.197 10.569v-.652h-.385c-.484.563-1.194.844-2.131.844-.83 0-1.486-.242-1.97-.725-.483-.494-.724-1.096-.724-1.806 0-.681.256-1.273.77-1.776.512-.504 1.287-.755 2.323-.755h2.028v-.193c0-.79-.45-1.184-1.347-1.184-.8 0-1.228.272-1.288.814h-2.057c.02-.72.33-1.293.932-1.717.602-.434 1.372-.651 2.31-.651 1.085 0 1.928.232 2.53.696.612.464.918 1.184.918 2.16v4.945h-1.91zm-1.791-1.451c.503 0 .912-.148 1.228-.444.316-.296.474-.681.474-1.155v-.473h-1.628c-.947 0-1.421.34-1.421 1.021 0 .7.449 1.051 1.347 1.051zm11.974-4.07h-2.058c-.089-.454-.498-.681-1.228-.681-.74 0-1.11.216-1.11.65 0 .188.059.326.177.415.128.08.34.148.637.207l1.376.208c1.619.246 2.428 1.06 2.428 2.442 0 .681-.296 1.263-.888 1.747-.592.483-1.421.725-2.487.725-1.125 0-1.984-.227-2.576-.68-.582-.455-.917-1.091-1.006-1.91h2.057c.099.66.602.991 1.51.991.878 0 1.317-.276 1.317-.829 0-.246-.083-.429-.251-.547-.168-.128-.45-.227-.844-.296l-1.48-.237c-1.362-.257-2.043-.957-2.043-2.102 0-.7.272-1.273.814-1.717.553-.444 1.362-.666 2.428-.666.938 0 1.687.207 2.25.622.572.414.898.967.977 1.657zm9.205 5.52h-2.072v-4.307c0-1.105-.494-1.658-1.48-1.658a1.53 1.53 0 0 0-1.229.563c-.306.375-.459.829-.459 1.362v4.04h-2.072v-10.76h2.072v3.848h.385c.444-.592 1.135-.888 2.072-.888.928 0 1.623.271 2.087.814.464.543.696 1.312.696 2.31v4.677zm7.965-7.238h-2.131c.059-1.075.424-1.9 1.095-2.472.67-.572 1.569-.858 2.694-.858 1.066 0 1.929.296 2.59.888.671.582 1.007 1.397 1.007 2.442 0 1.214-.642 2.32-1.924 3.316l-2.176 1.687v.385h4.381v1.85h-7.653v-2.22l3.553-2.65c.513-.364.918-.73 1.214-1.095.305-.375.459-.784.459-1.228 0-.484-.139-.85-.415-1.096-.266-.256-.632-.384-1.095-.384-.967 0-1.5.478-1.599 1.435z" fill="#00AE99" fill-rule="nonzero"/><path stroke="#00AE99" stroke-width="6" d="M245.51 169.417h54.105v54.104H245.51z"/><path d="M272.052 177.073h9.698v9.698h-9.698v-9.698zm9.188 28.073h9.697v9.698h-9.697v-9.698zm-37.26 9.698h9.187v9.187h-9.188v-9.187zm46.958-45.427h9.187v9.698h-9.188v-9.698zm-37.771 35.729h9.698v9.698h-9.698v-9.698zm9.698-28.073h9.187v9.698h-9.187v-9.698zm0 9.698h9.187v9.187h-9.187v-9.187zm-9.698-18.886h9.698v9.188h-9.698v-9.188zm37.77 46.448h9.188v9.188h-9.188v-9.188zm-18.885 0h9.188v9.188h-9.188v-9.188zm-27.562-27.562h9.187v9.187h-9.187v-9.187z" fill="#00AE99" fill-rule="nonzero"/></g></svg>