<svg width="601" height="486" viewBox="0 0 601 486" fill="none" xmlns="http://www.w3.org/2000/svg">
<path d="M385.475 58.4749C386.842 57.108 386.842 54.892 385.475 53.5251L363.201 31.2513C361.834 29.8844 359.618 29.8844 358.251 31.2513C356.884 32.6181 356.884 34.8342 358.251 36.201L378.05 56L358.251 75.799C356.884 77.1658 356.884 79.3819 358.251 80.7487C359.618 82.1156 361.834 82.1156 363.201 80.7487L385.475 58.4749ZM281 59.5H383V52.5H281V59.5Z" fill="#00AE99"/>
<path d="M385.475 383.475C386.842 382.108 386.842 379.892 385.475 378.525L363.201 356.251C361.834 354.884 359.618 354.884 358.251 356.251C356.884 357.618 356.884 359.834 358.251 361.201L378.05 381L358.251 400.799C356.884 402.166 356.884 404.382 358.251 405.749C359.618 407.116 361.834 407.116 363.201 405.749L385.475 383.475ZM281 384.5H383V377.5H281V384.5Z" fill="#00AE99"/>
<path d="M20.2165 147.167C22.0918 147.167 23.6385 147.805 24.8565 149.081C26.0938 150.338 26.7125 151.981 26.7125 154.011C26.7125 156.196 26.0068 157.974 24.5955 159.347C23.1842 160.7 21.3862 161.377 19.2015 161.377C16.9008 161.377 15.0642 160.768 13.6915 159.55C12.3382 158.332 11.6035 156.756 11.4875 154.823H15.6635C15.8955 156.718 17.0265 157.665 19.0565 157.665C20.1392 157.665 20.9898 157.346 21.6085 156.708C22.2272 156.051 22.5365 155.171 22.5365 154.069C22.5365 152.909 22.2175 152.02 21.5795 151.401C20.9608 150.763 20.1295 150.444 19.0855 150.444C17.6935 150.444 16.6205 150.947 15.8665 151.952H11.9805L12.8795 140.7H25.4075V144.209H16.1275L15.8085 148.356H16.5625C17.6258 147.563 18.8438 147.167 20.2165 147.167ZM38.3132 147.167C40.1885 147.167 41.7352 147.805 42.9532 149.081C44.1905 150.338 44.8092 151.981 44.8092 154.011C44.8092 156.196 44.1035 157.974 42.6922 159.347C41.2808 160.7 39.4828 161.377 37.2982 161.377C34.9975 161.377 33.1608 160.768 31.7882 159.55C30.4348 158.332 29.7002 156.756 29.5842 154.823H33.7602C33.9922 156.718 35.1232 157.665 37.1532 157.665C38.2358 157.665 39.0865 157.346 39.7052 156.708C40.3238 156.051 40.6332 155.171 40.6332 154.069C40.6332 152.909 40.3142 152.02 39.6762 151.401C39.0575 150.763 38.2262 150.444 37.1822 150.444C35.7902 150.444 34.7172 150.947 33.9632 151.952H30.0772L30.9762 140.7H43.5042V144.209H34.2242L33.9052 148.356H34.6592C35.7225 147.563 36.9405 147.167 38.3132 147.167ZM49.7689 142.933C51.2382 141.174 53.1619 140.294 55.5399 140.294C57.9179 140.294 59.8319 141.174 61.2819 142.933C62.7512 144.673 63.4859 147.312 63.4859 150.85C63.4859 154.369 62.7512 157.008 61.2819 158.767C59.8319 160.507 57.9179 161.377 55.5399 161.377C53.1619 161.377 51.2382 160.507 49.7689 158.767C48.3189 157.008 47.5939 154.369 47.5939 150.85C47.5939 147.312 48.3189 144.673 49.7689 142.933ZM55.5399 157.665C58.0532 157.665 59.3099 155.393 59.3099 150.85C59.3099 146.287 58.0532 144.006 55.5399 144.006C53.0459 144.006 51.7989 146.287 51.7989 150.85C51.7989 155.393 53.0459 157.665 55.5399 157.665ZM75.3992 140.294H84.0412C87.1539 140.294 89.5319 141.222 91.1752 143.078C92.8185 144.934 93.6402 147.457 93.6402 150.647C93.6402 153.837 92.8185 156.36 91.1752 158.216C89.5319 160.072 87.1539 161 84.0412 161H75.3992V140.294ZM79.7202 157.143H83.4902C85.4622 157.143 86.9025 156.553 87.8112 155.374C88.7392 154.175 89.2032 152.6 89.2032 150.647C89.2032 148.694 88.7392 147.128 87.8112 145.949C86.9025 144.75 85.4622 144.151 83.4902 144.151H79.7202V157.143ZM110.723 161L109.041 155.403H101.153L99.4705 161H95.2075L101.791 140.294H108.49L115.102 161H110.723ZM104.43 144.441L102.255 151.633H107.881L105.706 144.441H104.43ZM118.166 140.294H122.487V161H118.166V140.294ZM137.148 142.933C138.927 140.922 141.411 139.917 144.601 139.917C147.791 139.917 150.266 140.922 152.025 142.933C153.804 144.924 154.693 147.496 154.693 150.647C154.693 153.798 153.804 156.379 152.025 158.39C150.266 160.381 147.791 161.377 144.601 161.377C141.411 161.377 138.927 160.381 137.148 158.39C135.389 156.379 134.509 153.798 134.509 150.647C134.509 147.496 135.389 144.924 137.148 142.933ZM144.601 157.52C146.457 157.52 147.859 156.882 148.806 155.606C149.773 154.33 150.256 152.677 150.256 150.647C150.256 148.617 149.773 146.964 148.806 145.688C147.859 144.412 146.457 143.774 144.601 143.774C142.764 143.774 141.363 144.422 140.396 145.717C139.429 146.993 138.946 148.636 138.946 150.647C138.946 152.658 139.429 154.311 140.396 155.606C141.363 156.882 142.764 157.52 144.601 157.52ZM168.321 146.094V149.864H166.871C163.836 149.864 162.318 151.401 162.318 154.475V161H158.258V146.094H162.173V147.776H162.927C163.681 146.655 165.015 146.094 166.929 146.094H168.321ZM176.738 145.717C178.556 145.717 179.899 146.297 180.769 147.457H181.523V139.917H185.583V161H181.668V159.637H180.914C179.986 160.797 178.594 161.377 176.738 161.377C174.805 161.377 173.268 160.652 172.127 159.202C170.987 157.733 170.416 155.848 170.416 153.547C170.416 151.246 170.987 149.371 172.127 147.921C173.268 146.452 174.805 145.717 176.738 145.717ZM178.043 158.013C179.242 158.013 180.141 157.588 180.74 156.737C181.359 155.886 181.668 154.823 181.668 153.547C181.668 152.271 181.359 151.217 180.74 150.386C180.141 149.535 179.242 149.11 178.043 149.11C176.883 149.11 175.994 149.526 175.375 150.357C174.776 151.188 174.476 152.252 174.476 153.547C174.476 154.862 174.776 155.935 175.375 156.766C175.994 157.597 176.883 158.013 178.043 158.013ZM203.726 152.793V154.011H193.054C193.17 156.679 194.378 158.013 196.679 158.013C198.148 158.013 199.076 157.491 199.463 156.447H203.581C203.271 157.994 202.527 159.202 201.348 160.072C200.168 160.942 198.593 161.377 196.621 161.377C194.281 161.377 192.425 160.662 191.053 159.231C189.699 157.8 189.023 155.886 189.023 153.489C189.023 151.111 189.699 149.226 191.053 147.834C192.406 146.423 194.233 145.717 196.534 145.717C198.738 145.717 200.478 146.374 201.754 147.689C203.03 149.004 203.687 150.705 203.726 152.793ZM199.579 151.314C199.308 149.613 198.283 148.762 196.505 148.762C194.726 148.762 193.624 149.613 193.199 151.314H199.579ZM217.23 146.094V149.864H215.78C212.745 149.864 211.227 151.401 211.227 154.475V161H207.167V146.094H211.082V147.776H211.836C212.59 146.655 213.924 146.094 215.838 146.094H217.23Z" fill="#00AE99"/>
<path d="M23.3732 453.167C25.2486 453.167 26.7952 453.805 28.0132 455.081C29.2506 456.338 29.8692 457.981 29.8692 460.011C29.8692 462.196 29.1636 463.974 27.7522 465.347C26.3409 466.7 24.5429 467.377 22.3582 467.377C20.0576 467.377 18.2209 466.768 16.8482 465.55C15.4949 464.332 14.7602 462.756 14.6442 460.823H18.8202C19.0522 462.718 20.1832 463.665 22.2132 463.665C23.2959 463.665 24.1466 463.346 24.7652 462.708C25.3839 462.051 25.6932 461.171 25.6932 460.069C25.6932 458.909 25.3742 458.02 24.7362 457.401C24.1176 456.763 23.2862 456.444 22.2422 456.444C20.8502 456.444 19.7772 456.947 19.0232 457.952H15.1372L16.0362 446.7H28.5642V450.209H19.2842L18.9652 454.356H19.7192C20.7826 453.563 22.0006 453.167 23.3732 453.167ZM41.4699 453.167C43.3452 453.167 44.8919 453.805 46.1099 455.081C47.3472 456.338 47.9659 457.981 47.9659 460.011C47.9659 462.196 47.2602 463.974 45.8489 465.347C44.4376 466.7 42.6396 467.377 40.4549 467.377C38.1542 467.377 36.3176 466.768 34.9449 465.55C33.5916 464.332 32.8569 462.756 32.7409 460.823H36.9169C37.1489 462.718 38.2799 463.665 40.3099 463.665C41.3926 463.665 42.2432 463.346 42.8619 462.708C43.4806 462.051 43.7899 461.171 43.7899 460.069C43.7899 458.909 43.4709 458.02 42.8329 457.401C42.2142 456.763 41.3829 456.444 40.3389 456.444C38.9469 456.444 37.8739 456.947 37.1199 457.952H33.2339L34.1329 446.7H46.6609V450.209H37.3809L37.0619 454.356H37.8159C38.8792 453.563 40.0972 453.167 41.4699 453.167ZM75.2424 446.294H83.8844C86.9971 446.294 89.3751 447.222 91.0185 449.078C92.6618 450.934 93.4834 453.457 93.4834 456.647C93.4834 459.837 92.6618 462.36 91.0185 464.216C89.3751 466.072 86.9971 467 83.8844 467H75.2424V446.294ZM79.5634 463.143H83.3334C85.3054 463.143 86.7458 462.553 87.6545 461.374C88.5824 460.175 89.0464 458.6 89.0464 456.647C89.0464 454.694 88.5824 453.128 87.6545 451.949C86.7458 450.75 85.3054 450.151 83.3334 450.151H79.5634V463.143ZM110.566 467L108.884 461.403H100.996L99.3138 467H95.0508L101.634 446.294H108.333L114.945 467H110.566ZM104.273 450.441L102.098 457.633H107.724L105.549 450.441H104.273ZM118.01 446.294H122.331V467H118.01V446.294ZM136.991 448.933C138.77 446.922 141.254 445.917 144.444 445.917C147.634 445.917 150.109 446.922 151.868 448.933C153.647 450.924 154.536 453.496 154.536 456.647C154.536 459.798 153.647 462.379 151.868 464.39C150.109 466.381 147.634 467.377 144.444 467.377C141.254 467.377 138.77 466.381 136.991 464.39C135.232 462.379 134.352 459.798 134.352 456.647C134.352 453.496 135.232 450.924 136.991 448.933ZM144.444 463.52C146.3 463.52 147.702 462.882 148.649 461.606C149.616 460.33 150.099 458.677 150.099 456.647C150.099 454.617 149.616 452.964 148.649 451.688C147.702 450.412 146.3 449.774 144.444 449.774C142.607 449.774 141.206 450.422 140.239 451.717C139.272 452.993 138.789 454.636 138.789 456.647C138.789 458.658 139.272 460.311 140.239 461.606C141.206 462.882 142.607 463.52 144.444 463.52ZM168.165 452.094V455.864H166.715C163.679 455.864 162.162 457.401 162.162 460.475V467H158.102V452.094H162.017V453.776H162.771C163.525 452.655 164.859 452.094 166.773 452.094H168.165ZM176.582 451.717C178.399 451.717 179.743 452.297 180.613 453.457H181.367V445.917H185.427V467H181.512V465.637H180.758C179.83 466.797 178.438 467.377 176.582 467.377C174.648 467.377 173.111 466.652 171.971 465.202C170.83 463.733 170.26 461.848 170.26 459.547C170.26 457.246 170.83 455.371 171.971 453.921C173.111 452.452 174.648 451.717 176.582 451.717ZM177.887 464.013C179.085 464.013 179.984 463.588 180.584 462.737C181.202 461.886 181.512 460.823 181.512 459.547C181.512 458.271 181.202 457.217 180.584 456.386C179.984 455.535 179.085 455.11 177.887 455.11C176.727 455.11 175.837 455.526 175.219 456.357C174.619 457.188 174.32 458.252 174.32 459.547C174.32 460.862 174.619 461.935 175.219 462.766C175.837 463.597 176.727 464.013 177.887 464.013ZM203.569 458.793V460.011H192.897C193.013 462.679 194.221 464.013 196.522 464.013C197.991 464.013 198.919 463.491 199.306 462.447H203.424C203.115 463.994 202.37 465.202 201.191 466.072C200.012 466.942 198.436 467.377 196.464 467.377C194.125 467.377 192.269 466.662 190.896 465.231C189.543 463.8 188.866 461.886 188.866 459.489C188.866 457.111 189.543 455.226 190.896 453.834C192.249 452.423 194.076 451.717 196.377 451.717C198.581 451.717 200.321 452.374 201.597 453.689C202.873 455.004 203.53 456.705 203.569 458.793ZM199.422 457.314C199.151 455.613 198.127 454.762 196.348 454.762C194.569 454.762 193.467 455.613 193.042 457.314H199.422ZM217.074 452.094V455.864H215.624C212.588 455.864 211.071 457.401 211.071 460.475V467H207.011V452.094H210.926V453.776H211.68C212.434 452.655 213.768 452.094 215.682 452.094H217.074Z" fill="#00AE99"/>
<path d="M50.8666 467V463.375H55.4486V450.876H54.7236L50.8376 453.515V449.368L54.7236 446.7H59.6246V463.375H63.8006V467H50.8666Z" fill="#003831"/>
<path d="M49.3296 472.8H64.7576V474.25H49.3296V472.8Z" fill="#003831"/>
<path d="M83.9336 4.9336H140.818L159.988 24.1037V100.324H83.9336V4.9336Z" fill="#E5E5E5" stroke="#00AE99" stroke-width="3.8672"/>
<path d="M112.597 39.0987V39.5512C113.061 39.76 113.444 40.1023 113.745 40.5779C114.059 41.0536 114.215 41.5873 114.215 42.179C114.215 43.2695 113.856 44.1454 113.136 44.8067C112.417 45.4564 111.35 45.7812 109.934 45.7812H103.948V33.3559H109.778C111.089 33.3559 112.098 33.6692 112.806 34.2957C113.513 34.9222 113.867 35.7053 113.867 36.645C113.867 37.2019 113.751 37.7007 113.519 38.1416C113.299 38.5709 112.991 38.8899 112.597 39.0987ZM106.541 38.2808H109.465C110.625 38.2808 111.205 37.8168 111.205 36.8886C111.205 35.9721 110.619 35.5138 109.447 35.5138H106.541V38.2808ZM106.541 43.5711H109.552C110.886 43.5711 111.553 43.0607 111.553 42.0397C111.553 40.984 110.897 40.4561 109.586 40.4561H106.541V43.5711ZM124.32 33.3559H126.913V41.2044C126.913 42.7474 126.46 43.9366 125.555 44.7719C124.662 45.5956 123.374 46.0075 121.692 46.0075C120.033 46.0075 118.751 45.5956 117.846 44.7719C116.953 43.9366 116.506 42.7474 116.506 41.2044V33.3559H119.099V41.1522C119.099 41.9295 119.325 42.5502 119.778 43.0143C120.242 43.4667 120.886 43.693 121.709 43.693C122.545 43.693 123.189 43.4667 123.641 43.0143C124.094 42.5502 124.32 41.9295 124.32 41.1522V33.3559ZM133.974 38.3156H134.461L137.124 33.3559H139.873L135.523 41.361V45.7812H132.912V41.361L128.579 33.3559H131.311L133.974 38.3156Z" fill="#00AE99"/>
<line x1="96.8242" y1="57.4629" x2="147.098" y2="57.4629" stroke="#00AE99" stroke-width="3.22266"/>
<line x1="96.8242" y1="74.8652" x2="147.098" y2="74.8652" stroke="#00AE99" stroke-width="3.22266"/>
<line x1="97" y1="66.3887" x2="136.316" y2="66.3887" stroke="#00AE99" stroke-width="3.22266"/>
<line x1="96.8242" y1="83.8887" x2="136.141" y2="83.8887" stroke="#00AE99" stroke-width="3.22266"/>
<path d="M83.9336 303.934H140.818L159.988 323.104V399.324H83.9336V303.934Z" fill="#E5E5E5" stroke="#00AE99" stroke-width="3.8672"/>
<path d="M112.597 338.099V338.551C113.061 338.76 113.444 339.102 113.745 339.578C114.059 340.054 114.215 340.587 114.215 341.179C114.215 342.27 113.856 343.145 113.136 343.807C112.417 344.456 111.35 344.781 109.934 344.781H103.948V332.356H109.778C111.089 332.356 112.098 332.669 112.806 333.296C113.513 333.922 113.867 334.705 113.867 335.645C113.867 336.202 113.751 336.701 113.519 337.142C113.299 337.571 112.991 337.89 112.597 338.099ZM106.541 337.281H109.465C110.625 337.281 111.205 336.817 111.205 335.889C111.205 334.972 110.619 334.514 109.447 334.514H106.541V337.281ZM106.541 342.571H109.552C110.886 342.571 111.553 342.061 111.553 341.04C111.553 339.984 110.897 339.456 109.586 339.456H106.541V342.571ZM124.32 332.356H126.913V340.204C126.913 341.747 126.46 342.937 125.555 343.772C124.662 344.596 123.374 345.007 121.692 345.007C120.033 345.007 118.751 344.596 117.846 343.772C116.953 342.937 116.506 341.747 116.506 340.204V332.356H119.099V340.152C119.099 340.93 119.325 341.55 119.778 342.014C120.242 342.467 120.886 342.693 121.709 342.693C122.545 342.693 123.189 342.467 123.641 342.014C124.094 341.55 124.32 340.93 124.32 340.152V332.356ZM133.974 337.316H134.461L137.124 332.356H139.873L135.523 340.361V344.781H132.912V340.361L128.579 332.356H131.311L133.974 337.316Z" fill="#00AE99"/>
<line x1="96.8242" y1="356.463" x2="147.098" y2="356.463" stroke="#00AE99" stroke-width="3.22266"/>
<line x1="96.8242" y1="373.865" x2="147.098" y2="373.865" stroke="#00AE99" stroke-width="3.22266"/>
<line x1="97" y1="365.389" x2="136.316" y2="365.389" stroke="#00AE99" stroke-width="3.22266"/>
<line x1="96.8242" y1="382.889" x2="136.141" y2="382.889" stroke="#00AE99" stroke-width="3.22266"/>
<path d="M512.224 140.294H516.545V161H512.224V152.329H503.06V161H498.739V140.294H503.06V148.356H512.224V140.294ZM530.241 161V159.724H529.487C528.54 160.826 527.148 161.377 525.311 161.377C523.687 161.377 522.401 160.903 521.454 159.956C520.507 158.989 520.033 157.81 520.033 156.418C520.033 155.084 520.536 153.924 521.541 152.938C522.546 151.952 524.064 151.459 526.094 151.459H530.067V151.082C530.067 149.535 529.187 148.762 527.428 148.762C525.862 148.762 525.021 149.294 524.905 150.357H520.874C520.913 148.946 521.522 147.824 522.701 146.993C523.88 146.142 525.388 145.717 527.225 145.717C529.352 145.717 531.005 146.171 532.184 147.08C533.383 147.989 533.982 149.4 533.982 151.314V161H530.241ZM526.732 158.158C527.718 158.158 528.52 157.868 529.139 157.288C529.758 156.708 530.067 155.954 530.067 155.026V154.098H526.877C525.021 154.098 524.093 154.765 524.093 156.099C524.093 157.472 524.973 158.158 526.732 158.158ZM550.191 150.183H546.16C545.986 149.294 545.184 148.849 543.753 148.849C542.303 148.849 541.578 149.274 541.578 150.125C541.578 150.492 541.694 150.763 541.926 150.937C542.178 151.092 542.593 151.227 543.173 151.343L545.87 151.749C549.041 152.232 550.626 153.827 550.626 156.534C550.626 157.868 550.046 159.009 548.886 159.956C547.726 160.903 546.102 161.377 544.014 161.377C541.81 161.377 540.128 160.932 538.968 160.043C537.828 159.154 537.17 157.907 536.996 156.302H541.027C541.221 157.597 542.207 158.245 543.985 158.245C545.706 158.245 546.566 157.704 546.566 156.621C546.566 156.138 546.402 155.78 546.073 155.548C545.745 155.297 545.194 155.103 544.42 154.968L541.52 154.504C538.852 154.001 537.518 152.629 537.518 150.386C537.518 149.013 538.05 147.892 539.113 147.022C540.196 146.152 541.781 145.717 543.869 145.717C545.706 145.717 547.175 146.123 548.277 146.935C549.399 147.747 550.037 148.83 550.191 150.183ZM568.226 161H564.166V152.561C564.166 150.396 563.2 149.313 561.266 149.313C560.28 149.313 559.478 149.68 558.859 150.415C558.26 151.15 557.96 152.039 557.96 153.083V161H553.9V139.917H557.96V147.457H558.714C559.584 146.297 560.938 145.717 562.774 145.717C564.592 145.717 565.955 146.249 566.863 147.312C567.772 148.375 568.226 149.883 568.226 151.836V161ZM579.771 161V157.375H584.353V144.876H583.628L579.742 147.515V143.368L583.628 140.7H588.529V157.375H592.705V161H579.771Z" fill="#00AE99"/>
<rect x="492" y="3" width="106" height="106" stroke="#00AE99" stroke-width="6"/>
<rect x="489" width="37" height="37" fill="#00AE99"/>
<rect x="526" y="37" width="18" height="18" fill="#00AE99"/>
<rect x="544" y="18" width="18" height="19" fill="#00AE99"/>
<rect x="562" y="37" width="19" height="18" fill="#00AE99"/>
<rect x="544" y="55" width="18" height="18" fill="#00AE99"/>
<rect x="562" y="73" width="19" height="19" fill="#00AE99"/>
<rect x="581" y="55" width="18" height="18" fill="#00AE99"/>
<rect x="526" y="55" width="18" height="18" fill="#00AE99"/>
<rect x="562" width="19" height="18" fill="#00AE99"/>
<rect x="507" y="73" width="19" height="19" fill="#00AE99"/>
<rect x="489" y="92" width="18" height="18" fill="#00AE99"/>
<rect x="526" y="91" width="18" height="18" fill="#00AE99"/>
<rect x="544" y="91" width="18" height="18" fill="#00AE99"/>
<rect x="489" y="55" width="18" height="18" fill="#00AE99"/>
<path d="M511.133 458.294H515.454V479H511.133V470.329H501.969V479H497.648V458.294H501.969V466.356H511.133V458.294ZM529.151 479V477.724H528.397C527.449 478.826 526.057 479.377 524.221 479.377C522.597 479.377 521.311 478.903 520.364 477.956C519.416 476.989 518.943 475.81 518.943 474.418C518.943 473.084 519.445 471.924 520.451 470.938C521.456 469.952 522.974 469.459 525.004 469.459H528.977V469.082C528.977 467.535 528.097 466.762 526.338 466.762C524.772 466.762 523.931 467.294 523.815 468.357H519.784C519.822 466.946 520.431 465.824 521.611 464.993C522.79 464.142 524.298 463.717 526.135 463.717C528.261 463.717 529.914 464.171 531.094 465.08C532.292 465.989 532.892 467.4 532.892 469.314V479H529.151ZM525.642 476.158C526.628 476.158 527.43 475.868 528.049 475.288C528.667 474.708 528.977 473.954 528.977 473.026V472.098H525.787C523.931 472.098 523.003 472.765 523.003 474.099C523.003 475.472 523.882 476.158 525.642 476.158ZM549.101 468.183H545.07C544.896 467.294 544.094 466.849 542.663 466.849C541.213 466.849 540.488 467.274 540.488 468.125C540.488 468.492 540.604 468.763 540.836 468.937C541.087 469.092 541.503 469.227 542.083 469.343L544.78 469.749C547.951 470.232 549.536 471.827 549.536 474.534C549.536 475.868 548.956 477.009 547.796 477.956C546.636 478.903 545.012 479.377 542.924 479.377C540.72 479.377 539.038 478.932 537.878 478.043C536.737 477.154 536.08 475.907 535.906 474.302H539.937C540.13 475.597 541.116 476.245 542.895 476.245C544.616 476.245 545.476 475.704 545.476 474.621C545.476 474.138 545.312 473.78 544.983 473.548C544.654 473.297 544.103 473.103 543.33 472.968L540.43 472.504C537.762 472.001 536.428 470.629 536.428 468.386C536.428 467.013 536.96 465.892 538.023 465.022C539.106 464.152 540.691 463.717 542.779 463.717C544.616 463.717 546.085 464.123 547.187 464.935C548.308 465.747 548.946 466.83 549.101 468.183ZM567.136 479H563.076V470.561C563.076 468.396 562.109 467.313 560.176 467.313C559.19 467.313 558.388 467.68 557.769 468.415C557.17 469.15 556.87 470.039 556.87 471.083V479H552.81V457.917H556.87V465.457H557.624C558.494 464.297 559.847 463.717 561.684 463.717C563.501 463.717 564.864 464.249 565.773 465.312C566.682 466.375 567.136 467.883 567.136 469.836V479ZM582.741 464.819H578.565C578.681 462.712 579.396 461.097 580.711 459.976C582.025 458.855 583.785 458.294 585.989 458.294C588.077 458.294 589.768 458.874 591.064 460.034C592.378 461.175 593.036 462.77 593.036 464.819C593.036 467.197 591.779 469.362 589.266 471.315L585.003 474.621V475.375H593.587V479H578.594V474.65L585.554 469.459C586.559 468.744 587.352 468.028 587.932 467.313C588.531 466.578 588.831 465.776 588.831 464.906C588.831 463.959 588.56 463.243 588.019 462.76C587.497 462.257 586.781 462.006 585.873 462.006C583.978 462.006 582.934 462.944 582.741 464.819Z" fill="#00AE99"/>
<rect x="492" y="328" width="106" height="106" stroke="#00AE99" stroke-width="6"/>
<rect x="544" y="343" width="19" height="19" fill="#00AE99"/>
<rect x="562" y="398" width="19" height="19" fill="#00AE99"/>
<rect x="489" y="417" width="18" height="18" fill="#00AE99"/>
<rect x="581" y="328" width="18" height="19" fill="#00AE99"/>
<rect x="507" y="398" width="19" height="19" fill="#00AE99"/>
<rect x="526" y="343" width="18" height="19" fill="#00AE99"/>
<rect x="526" y="362" width="18" height="18" fill="#00AE99"/>
<rect x="507" y="325" width="19" height="18" fill="#00AE99"/>
<rect x="581" y="416" width="18" height="18" fill="#00AE99"/>
<rect x="544" y="416" width="18" height="18" fill="#00AE99"/>
<rect x="490" y="362" width="18" height="18" fill="#00AE99"/>
</svg>
