<svg width="551" height="429" viewBox="0 0 551 429" fill="none" xmlns="http://www.w3.org/2000/svg">
<g clip-path="url(#clip0)">
<rect width="551" height="429" fill="white"/>
<path d="M336.5 313.5C337.328 312.672 337.328 311.328 336.5 310.5L323 297C322.172 296.172 320.828 296.172 320 297C319.172 297.828 319.172 299.172 320 300L332 312L320 324C319.172 324.828 319.172 326.172 320 327C320.828 327.828 322.172 327.828 323 327L336.5 313.5ZM259 314.121H335V309.879H259V314.121Z" fill="#00AE99"/>
<path d="M19.4171 407.341C21.3891 407.341 22.9648 407.989 24.1441 409.284C25.3428 410.579 25.9421 412.194 25.9421 414.127C25.9421 416.312 25.2945 418.071 23.9991 419.405C22.7231 420.72 21.0508 421.377 18.9821 421.377C16.8361 421.377 15.1445 420.816 13.9071 419.695C12.6891 418.574 12.0221 417.114 11.9061 415.316H14.4291C14.5838 416.553 15.0478 417.501 15.8211 418.158C16.5945 418.796 17.6095 419.115 18.8661 419.115C20.2195 419.115 21.3118 418.68 22.1431 417.81C22.9745 416.921 23.3901 415.732 23.3901 414.243C23.3901 412.832 22.9841 411.691 22.1721 410.821C21.3795 409.932 20.3065 409.487 18.9531 409.487C17.1358 409.487 15.7921 410.125 14.9221 411.401H12.3701L13.2691 400.7H24.8691V402.904H15.3281L14.8641 408.762H15.5021C16.5461 407.815 17.8511 407.341 19.4171 407.341ZM36.6642 407.341C38.6362 407.341 40.2119 407.989 41.3912 409.284C42.5899 410.579 43.1892 412.194 43.1892 414.127C43.1892 416.312 42.5415 418.071 41.2462 419.405C39.9702 420.72 38.2979 421.377 36.2292 421.377C34.0832 421.377 32.3915 420.816 31.1542 419.695C29.9362 418.574 29.2692 417.114 29.1532 415.316H31.6762C31.8309 416.553 32.2949 417.501 33.0682 418.158C33.8415 418.796 34.8565 419.115 36.1132 419.115C37.4665 419.115 38.5589 418.68 39.3902 417.81C40.2215 416.921 40.6372 415.732 40.6372 414.243C40.6372 412.832 40.2312 411.691 39.4192 410.821C38.6265 409.932 37.5535 409.487 36.2002 409.487C34.3829 409.487 33.0392 410.125 32.1692 411.401H29.6172L30.5162 400.7H42.1162V402.904H32.5752L32.1112 408.762H32.7492C33.7932 407.815 35.0982 407.341 36.6642 407.341ZM70.8631 400.294H78.6061C81.7188 400.294 84.0871 401.222 85.7111 403.078C87.3545 404.934 88.1761 407.457 88.1761 410.647C88.1761 413.837 87.3545 416.36 85.7111 418.216C84.0678 420.072 81.6995 421 78.6061 421H70.8631V400.294ZM73.4731 418.622H78.6061C80.9648 418.622 82.7048 417.887 83.8261 416.418C84.9668 414.929 85.5371 413.006 85.5371 410.647C85.5371 408.288 84.9668 406.374 83.8261 404.905C82.7048 403.416 80.9648 402.672 78.6061 402.672H73.4731V418.622ZM106.138 421L103.992 414.649H94.915L92.769 421H90.101L97.264 400.294H101.672L108.864 421H106.138ZM98.859 402.962L95.698 412.271H103.18L100.019 402.962H98.859ZM112.243 400.294H114.853V421H112.243V400.294ZM136.995 399.917C140.03 399.917 142.398 400.932 144.1 402.962C145.801 404.992 146.652 407.554 146.652 410.647C146.652 413.74 145.801 416.302 144.1 418.332C142.398 420.362 140.03 421.377 136.995 421.377C133.94 421.377 131.562 420.372 129.861 418.361C128.179 416.331 127.338 413.76 127.338 410.647C127.338 407.534 128.179 404.973 129.861 402.962C131.562 400.932 133.94 399.917 136.995 399.917ZM131.746 416.592C132.925 418.197 134.675 418.999 136.995 418.999C139.315 418.999 141.064 418.197 142.244 416.592C143.423 414.987 144.013 413.006 144.013 410.647C144.013 408.288 143.423 406.307 142.244 404.702C141.064 403.097 139.315 402.295 136.995 402.295C134.675 402.295 132.925 403.097 131.746 404.702C130.566 406.307 129.977 408.288 129.977 410.647C129.977 413.006 130.566 414.987 131.746 416.592ZM158.987 406.384V408.704H157.769C156.3 408.704 155.15 409.139 154.318 410.009C153.506 410.879 153.1 412.107 153.1 413.692V421H150.635V406.384H153.013V408.124H153.651C154.579 406.964 155.991 406.384 157.885 406.384H158.987ZM172.832 399.917H175.297V421H172.919V419.434H172.281C171.237 420.729 169.72 421.377 167.728 421.377C165.756 421.377 164.19 420.652 163.03 419.202C161.89 417.752 161.319 415.915 161.319 413.692C161.319 411.43 161.89 409.584 163.03 408.153C164.19 406.722 165.756 406.007 167.728 406.007C169.7 406.007 171.189 406.655 172.194 407.95H172.832V399.917ZM168.279 419.231C169.807 419.231 170.947 418.699 171.701 417.636C172.475 416.573 172.861 415.258 172.861 413.692C172.861 412.126 172.475 410.811 171.701 409.748C170.947 408.685 169.807 408.153 168.279 408.153C166.849 408.153 165.737 408.665 164.944 409.69C164.171 410.695 163.784 412.029 163.784 413.692C163.784 415.355 164.171 416.698 164.944 417.723C165.737 418.728 166.849 419.231 168.279 419.231ZM192.733 412.822V413.663H181.597C181.636 415.422 182.051 416.795 182.844 417.781C183.637 418.748 184.777 419.231 186.266 419.231C188.277 419.231 189.514 418.477 189.978 416.969H192.472C192.221 418.284 191.554 419.347 190.471 420.159C189.408 420.971 188.006 421.377 186.266 421.377C184.043 421.377 182.303 420.652 181.046 419.202C179.789 417.752 179.161 415.867 179.161 413.547C179.161 411.266 179.789 409.439 181.046 408.066C182.303 406.693 184.023 406.007 186.208 406.007C188.277 406.007 189.872 406.664 190.993 407.979C192.114 409.274 192.694 410.889 192.733 412.822ZM186.15 408.153C184.893 408.153 183.888 408.482 183.134 409.139C182.38 409.777 181.916 410.599 181.742 411.604H190.181C190.104 410.618 189.707 409.796 188.992 409.139C188.277 408.482 187.329 408.153 186.15 408.153ZM204.923 406.384V408.704H203.705C202.236 408.704 201.085 409.139 200.254 410.009C199.442 410.879 199.036 412.107 199.036 413.692V421H196.571V406.384H198.949V408.124H199.587C200.515 406.964 201.926 406.384 203.821 406.384H204.923Z" fill="black"/>
<path d="M46.2553 421V417.375H50.8373V404.876H50.1123L46.2263 407.515V403.368L50.1123 400.7H55.0133V417.375H59.1893V421H46.2553Z" fill="#00AE99"/>
<path d="M44.7183 426.8H60.1463V428.25H44.7183V426.8Z" fill="#00AE99"/>
<mask id="path-3-inside-1" fill="white">
<path fill-rule="evenodd" clip-rule="evenodd" d="M126.131 278.388V259.867H71.8672V352.133H144.652V278.388H126.131ZM148.519 276.455V356H68V256H128.065L148.519 276.455ZM141.117 274.521L129.999 263.403V274.521H141.117Z"/>
</mask>
<path fill-rule="evenodd" clip-rule="evenodd" d="M126.131 278.388V259.867H71.8672V352.133H144.652V278.388H126.131ZM148.519 276.455V356H68V256H128.065L148.519 276.455ZM141.117 274.521L129.999 263.403V274.521H141.117Z" fill="#00AE99"/>
<path d="M128.065 276.455H126.131V278.388H128.065V276.455ZM126.131 256V276.455H129.999V256H126.131ZM128.065 278.388H148.519V274.521H128.065V278.388ZM126.131 278.388H122.264V282.255H126.131V278.388ZM126.131 259.867H129.999V256H126.131V259.867ZM71.8672 259.867V256H68V259.867H71.8672ZM71.8672 352.133H68V356H71.8672V352.133ZM144.652 352.133V356H148.519V352.133H144.652ZM144.652 278.388H148.519V274.521H144.652V278.388ZM148.519 276.455H152.387V274.853L151.254 273.72L148.519 276.455ZM148.519 356V359.867H152.387V356H148.519ZM68 356H64.1328V359.867H68V356ZM68 256V252.133H64.1328V256H68ZM128.065 256L130.799 253.265L129.667 252.133H128.065V256ZM129.999 263.403L132.733 260.668L126.131 254.066V263.403H129.999ZM141.117 274.521V278.388H150.453L143.851 271.786L141.117 274.521ZM129.999 274.521H126.131V278.388H129.999V274.521ZM71.8672 263.734H126.131V256H71.8672V263.734ZM75.7344 352.133V259.867H68V352.133H75.7344ZM144.652 348.266H71.8672V356H144.652V348.266ZM140.785 278.388V352.133H148.519V278.388H140.785ZM127.264 266.137L138.382 277.255L143.851 271.786L132.733 260.668L127.264 266.137ZM133.866 274.521V263.403H126.131V274.521H133.866ZM141.117 270.654H129.999V278.388H141.117V270.654ZM122.264 259.867V278.388H129.999V259.867H122.264ZM126.131 282.255H144.652V274.521H126.131V282.255ZM144.652 276.455V356H152.387V276.455H144.652ZM148.519 352.133H68V359.867H148.519V352.133ZM71.8672 356V256H64.1328V356H71.8672ZM68 259.867H128.065V252.133H68V259.867ZM125.33 258.735L145.785 279.189L151.254 273.72L130.799 253.265L125.33 258.735Z" fill="#00AE99" mask="url(#path-3-inside-1)"/>
<path d="M98.8909 292.291V292.744C99.3549 292.953 99.7378 293.295 100.039 293.771C100.353 294.246 100.509 294.78 100.509 295.372C100.509 296.462 100.15 297.338 99.4303 297.999C98.711 298.649 97.6437 298.974 96.2283 298.974H90.2419V286.549H96.0717C97.3827 286.549 98.392 286.862 99.0997 287.488C99.8074 288.115 100.161 288.898 100.161 289.838C100.161 290.394 100.045 290.893 99.8132 291.334C99.5928 291.763 99.2853 292.083 98.8909 292.291ZM92.8348 291.473H95.7584C96.9186 291.473 97.4987 291.009 97.4987 290.081C97.4987 289.165 96.9128 288.706 95.741 288.706H92.8348V291.473ZM92.8348 296.764H95.8455C97.1796 296.764 97.8467 296.253 97.8467 295.232C97.8467 294.177 97.1912 293.649 95.8803 293.649H92.8348V296.764ZM110.614 286.549H113.207V294.397C113.207 295.94 112.754 297.129 111.849 297.965C110.956 298.788 109.668 299.2 107.986 299.2C106.327 299.2 105.045 298.788 104.14 297.965C103.247 297.129 102.8 295.94 102.8 294.397V286.549H105.393V294.345C105.393 295.122 105.619 295.743 106.072 296.207C106.536 296.659 107.18 296.886 108.003 296.886C108.839 296.886 109.483 296.659 109.935 296.207C110.387 295.743 110.614 295.122 110.614 294.345V286.549ZM120.268 291.508H120.755L123.418 286.549H126.167L121.817 294.554V298.974H119.206V294.554L114.873 286.549H117.605L120.268 291.508Z" fill="#00AE99"/>
<line x1="82.9351" y1="310.882" x2="133.584" y2="310.882" stroke="#00AE99" stroke-width="3.22266"/>
<line x1="82.9351" y1="328.415" x2="133.584" y2="328.415" stroke="#00AE99" stroke-width="3.22266"/>
<line x1="83.1121" y1="319.875" x2="122.722" y2="319.875" stroke="#00AE99" stroke-width="3.22266"/>
<line x1="82.9351" y1="337.506" x2="122.545" y2="337.506" stroke="#00AE99" stroke-width="3.22266"/>
<path d="M464.044 400.294H466.654V421H464.044V411.546H452.473V421H449.863V400.294H452.473V409.11H464.044V400.294ZM480.972 421V419.463H480.334C479.329 420.739 477.811 421.377 475.781 421.377C474.176 421.377 472.9 420.913 471.953 419.985C471.006 419.057 470.532 417.936 470.532 416.621C470.532 415.287 470.996 414.146 471.924 413.199C472.852 412.252 474.254 411.778 476.129 411.778H480.885V411.198C480.885 410.27 480.595 409.535 480.015 408.994C479.435 408.433 478.536 408.153 477.318 408.153C475.191 408.153 474.06 408.859 473.925 410.27H471.46C471.557 408.936 472.127 407.892 473.171 407.138C474.234 406.384 475.597 406.007 477.26 406.007C479.135 406.007 480.605 406.442 481.668 407.312C482.751 408.182 483.292 409.429 483.292 411.053V421H480.972ZM476.39 419.231C477.608 419.231 478.662 418.835 479.551 418.042C480.44 417.23 480.885 416.244 480.885 415.084V413.75H476.506C474.167 413.75 472.997 414.678 472.997 416.534C472.997 417.365 473.287 418.023 473.867 418.506C474.466 418.989 475.307 419.231 476.39 419.231ZM491.866 411.894L493.258 412.126L494.911 412.387C497.695 412.87 499.087 414.34 499.087 416.795C499.087 418.071 498.555 419.154 497.492 420.043C496.428 420.932 494.959 421.377 493.084 421.377C491.073 421.377 489.526 420.971 488.444 420.159C487.38 419.347 486.762 418.216 486.588 416.766H489.082C489.314 418.409 490.609 419.231 492.968 419.231C494.108 419.231 494.998 419.028 495.636 418.622C496.293 418.216 496.622 417.626 496.622 416.853C496.622 416.215 496.409 415.712 495.984 415.345C495.558 414.978 494.882 414.717 493.954 414.562L490.677 414.011C488.337 413.586 487.168 412.358 487.168 410.328C487.168 409.052 487.651 408.018 488.618 407.225C489.604 406.413 491.044 406.007 492.939 406.007C494.64 406.007 495.984 406.384 496.97 407.138C497.975 407.873 498.555 408.888 498.71 410.183H496.245C496.148 409.506 495.79 409.004 495.172 408.675C494.553 408.327 493.77 408.153 492.823 408.153C491.856 408.153 491.083 408.327 490.503 408.675C489.942 409.004 489.662 409.477 489.662 410.096C489.662 410.637 489.836 411.043 490.184 411.314C490.532 411.585 491.092 411.778 491.866 411.894ZM515.694 421H513.229V412.242C513.229 409.555 511.992 408.211 509.517 408.211C508.241 408.211 507.197 408.694 506.385 409.661C505.573 410.608 505.167 411.749 505.167 413.083V421H502.702V399.917H505.167V407.95H505.805C506.211 407.37 506.791 406.906 507.545 406.558C508.319 406.191 509.189 406.007 510.155 406.007C511.915 406.007 513.278 406.519 514.244 407.544C515.211 408.549 515.694 409.941 515.694 411.72V421ZM529.986 406.297H527.434C527.55 404.344 528.227 402.856 529.464 401.831C530.721 400.806 532.297 400.294 534.191 400.294C536.163 400.294 537.749 400.835 538.947 401.918C540.165 402.981 540.774 404.499 540.774 406.471C540.774 408.868 539.276 411.314 536.279 413.808L531.175 418.1V418.738H541.412V421H527.463V418.129L530.45 415.693C532.306 414.204 533.843 412.899 535.061 411.778C535.525 411.372 535.893 411.024 536.163 410.734C536.453 410.444 536.772 410.067 537.12 409.603C537.488 409.12 537.758 408.617 537.932 408.095C538.126 407.573 538.222 407.032 538.222 406.471C538.222 405.214 537.855 404.248 537.12 403.571C536.386 402.894 535.39 402.556 534.133 402.556C532.954 402.556 531.997 402.875 531.262 403.513C530.547 404.132 530.122 405.06 529.986 406.297Z" fill="black"/>
<rect x="448" y="259" width="94" height="94" stroke="#00AE99" stroke-width="6"/>
<rect x="494.107" y="272.072" width="16.9643" height="16.9643" fill="#00AE99"/>
<rect x="510.178" y="321.178" width="16.9643" height="16.9643" fill="#00AE99"/>
<rect x="445" y="338.143" width="16.0714" height="16.0714" fill="#00AE99"/>
<rect x="527.143" y="258.678" width="16.0714" height="16.9643" fill="#00AE99"/>
<rect x="461.072" y="321.178" width="16.9643" height="16.9643" fill="#00AE99"/>
<rect x="478.036" y="272.072" width="16.0714" height="16.9643" fill="#00AE99"/>
<rect x="478.036" y="289.036" width="16.0714" height="16.0714" fill="#00AE99"/>
<rect x="461.072" y="256" width="16.9643" height="16.0714" fill="#00AE99"/>
<rect x="527.143" y="337.25" width="16.0714" height="16.0714" fill="#00AE99"/>
<rect x="494.107" y="337.25" width="16.0714" height="16.0714" fill="#00AE99"/>
<rect x="445.893" y="289.036" width="16.0714" height="16.0714" fill="#00AE99"/>
<path d="M18.0719 147.341C20.0439 147.341 21.6196 147.989 22.7989 149.284C23.9976 150.579 24.5969 152.194 24.5969 154.127C24.5969 156.312 23.9492 158.071 22.6539 159.405C21.3779 160.72 19.7056 161.377 17.6369 161.377C15.4909 161.377 13.7992 160.816 12.5619 159.695C11.3439 158.574 10.6769 157.114 10.5609 155.316H13.0839C13.2386 156.553 13.7026 157.501 14.4759 158.158C15.2492 158.796 16.2642 159.115 17.5209 159.115C18.8742 159.115 19.9666 158.68 20.7979 157.81C21.6292 156.921 22.0449 155.732 22.0449 154.243C22.0449 152.832 21.6389 151.691 20.8269 150.821C20.0342 149.932 18.9612 149.487 17.6079 149.487C15.7906 149.487 14.4469 150.125 13.5769 151.401H11.0249L11.9239 140.7H23.5239V142.904H13.9829L13.5189 148.762H14.1569C15.2009 147.815 16.5059 147.341 18.0719 147.341ZM35.319 147.341C37.291 147.341 38.8666 147.989 40.046 149.284C41.2446 150.579 41.844 152.194 41.844 154.127C41.844 156.312 41.1963 158.071 39.901 159.405C38.625 160.72 36.9526 161.377 34.884 161.377C32.738 161.377 31.0463 160.816 29.809 159.695C28.591 158.574 27.924 157.114 27.808 155.316H30.331C30.4856 156.553 30.9496 157.501 31.723 158.158C32.4963 158.796 33.5113 159.115 34.768 159.115C36.1213 159.115 37.2136 158.68 38.045 157.81C38.8763 156.921 39.292 155.732 39.292 154.243C39.292 152.832 38.886 151.691 38.074 150.821C37.2813 149.932 36.2083 149.487 34.855 149.487C33.0376 149.487 31.694 150.125 30.824 151.401H28.272L29.171 140.7H40.771V142.904H31.23L30.766 148.762H31.404C32.448 147.815 33.753 147.341 35.319 147.341ZM46.998 142.933C48.3514 141.174 50.159 140.294 52.421 140.294C54.683 140.294 56.4907 141.183 57.844 142.962C59.2167 144.721 59.903 147.351 59.903 150.85C59.903 154.349 59.2167 156.979 57.844 158.738C56.4907 160.497 54.683 161.377 52.421 161.377C50.159 161.377 48.3514 160.497 46.998 158.738C45.6447 156.979 44.968 154.349 44.968 150.85C44.968 147.331 45.6447 144.692 46.998 142.933ZM48.738 156.94C49.55 158.39 50.7777 159.115 52.421 159.115C54.0644 159.115 55.292 158.39 56.104 156.94C56.9354 155.471 57.351 153.441 57.351 150.85C57.351 148.24 56.9354 146.21 56.104 144.76C55.292 143.291 54.0644 142.556 52.421 142.556C50.7777 142.556 49.55 143.291 48.738 144.76C47.926 146.21 47.52 148.24 47.52 150.85C47.52 153.441 47.926 155.471 48.738 156.94ZM72.2083 140.294H79.9513C83.064 140.294 85.4323 141.222 87.0563 143.078C88.6997 144.934 89.5213 147.457 89.5213 150.647C89.5213 153.837 88.6997 156.36 87.0563 158.216C85.413 160.072 83.0447 161 79.9513 161H72.2083V140.294ZM74.8183 158.622H79.9513C82.31 158.622 84.05 157.887 85.1713 156.418C86.312 154.929 86.8823 153.006 86.8823 150.647C86.8823 148.288 86.312 146.374 85.1713 144.905C84.05 143.416 82.31 142.672 79.9513 142.672H74.8183V158.622ZM107.483 161L105.337 154.649H96.2602L94.1142 161H91.4462L98.6092 140.294H103.017L110.209 161H107.483ZM100.204 142.962L97.0432 152.271H104.525L101.364 142.962H100.204ZM113.588 140.294H116.198V161H113.588V140.294ZM138.34 139.917C141.375 139.917 143.744 140.932 145.445 142.962C147.146 144.992 147.997 147.554 147.997 150.647C147.997 153.74 147.146 156.302 145.445 158.332C143.744 160.362 141.375 161.377 138.34 161.377C135.285 161.377 132.907 160.372 131.206 158.361C129.524 156.331 128.683 153.76 128.683 150.647C128.683 147.534 129.524 144.973 131.206 142.962C132.907 140.932 135.285 139.917 138.34 139.917ZM133.091 156.592C134.27 158.197 136.02 158.999 138.34 158.999C140.66 158.999 142.41 158.197 143.589 156.592C144.768 154.987 145.358 153.006 145.358 150.647C145.358 148.288 144.768 146.307 143.589 144.702C142.41 143.097 140.66 142.295 138.34 142.295C136.02 142.295 134.27 143.097 133.091 144.702C131.912 146.307 131.322 148.288 131.322 150.647C131.322 153.006 131.912 154.987 133.091 156.592ZM160.333 146.384V148.704H159.115C157.645 148.704 156.495 149.139 155.664 150.009C154.852 150.879 154.446 152.107 154.446 153.692V161H151.981V146.384H154.359V148.124H154.997C155.925 146.964 157.336 146.384 159.231 146.384H160.333ZM174.178 139.917H176.643V161H174.265V159.434H173.627C172.583 160.729 171.065 161.377 169.074 161.377C167.102 161.377 165.536 160.652 164.376 159.202C163.235 157.752 162.665 155.915 162.665 153.692C162.665 151.43 163.235 149.584 164.376 148.153C165.536 146.722 167.102 146.007 169.074 146.007C171.046 146.007 172.534 146.655 173.54 147.95H174.178V139.917ZM169.625 159.231C171.152 159.231 172.293 158.699 173.047 157.636C173.82 156.573 174.207 155.258 174.207 153.692C174.207 152.126 173.82 150.811 173.047 149.748C172.293 148.685 171.152 148.153 169.625 148.153C168.194 148.153 167.082 148.665 166.29 149.69C165.516 150.695 165.13 152.029 165.13 153.692C165.13 155.355 165.516 156.698 166.29 157.723C167.082 158.728 168.194 159.231 169.625 159.231ZM194.078 152.822V153.663H182.942C182.981 155.422 183.397 156.795 184.189 157.781C184.982 158.748 186.123 159.231 187.611 159.231C189.622 159.231 190.859 158.477 191.323 156.969H193.817C193.566 158.284 192.899 159.347 191.816 160.159C190.753 160.971 189.351 161.377 187.611 161.377C185.388 161.377 183.648 160.652 182.391 159.202C181.135 157.752 180.506 155.867 180.506 153.547C180.506 151.266 181.135 149.439 182.391 148.066C183.648 146.693 185.369 146.007 187.553 146.007C189.622 146.007 191.217 146.664 192.338 147.979C193.46 149.274 194.04 150.889 194.078 152.822ZM187.495 148.153C186.239 148.153 185.233 148.482 184.479 149.139C183.725 149.777 183.261 150.599 183.087 151.604H191.526C191.449 150.618 191.053 149.796 190.337 149.139C189.622 148.482 188.675 148.153 187.495 148.153ZM206.268 146.384V148.704H205.05C203.581 148.704 202.43 149.139 201.599 150.009C200.787 150.879 200.381 152.107 200.381 153.692V161H197.916V146.384H200.294V148.124H200.932C201.86 146.964 203.271 146.384 205.166 146.384H206.268Z" fill="black"/>
<mask id="path-24-inside-2" fill="white">
<path fill-rule="evenodd" clip-rule="evenodd" d="M126.131 22.3881V3.8672H71.8672V96.1328H144.652V22.3881H126.131ZM148.519 20.4545V100H68V0H128.065L148.519 20.4545ZM141.117 18.5209L129.999 7.40264V18.5209H141.117Z"/>
</mask>
<path fill-rule="evenodd" clip-rule="evenodd" d="M126.131 22.3881V3.8672H71.8672V96.1328H144.652V22.3881H126.131ZM148.519 20.4545V100H68V0H128.065L148.519 20.4545ZM141.117 18.5209L129.999 7.40264V18.5209H141.117Z" fill="#00AE99"/>
<path d="M128.065 20.4545H126.131V22.3881H128.065V20.4545ZM126.131 0V20.4545H129.999V0H126.131ZM128.065 22.3881H148.519V18.5209H128.065V22.3881ZM126.131 22.3881H122.264V26.2553H126.131V22.3881ZM126.131 3.8672H129.999V0H126.131V3.8672ZM71.8672 3.8672V0H68V3.8672H71.8672ZM71.8672 96.1328H68V100H71.8672V96.1328ZM144.652 96.1328V100H148.519V96.1328H144.652ZM144.652 22.3881H148.519V18.5209H144.652V22.3881ZM148.519 20.4545H152.387V18.8527L151.254 17.72L148.519 20.4545ZM148.519 100V103.867H152.387V100H148.519ZM68 100H64.1328V103.867H68V100ZM68 0V-3.8672H64.1328V0H68ZM128.065 0L130.799 -2.73452L129.667 -3.8672H128.065V0ZM129.999 7.40264L132.733 4.66812L126.131 -1.9336V7.40264H129.999ZM141.117 18.5209V22.3881H150.453L143.851 15.7864L141.117 18.5209ZM129.999 18.5209H126.131V22.3881H129.999V18.5209ZM71.8672 7.7344H126.131V0H71.8672V7.7344ZM75.7344 96.1328V3.8672H68V96.1328H75.7344ZM144.652 92.2656H71.8672V100H144.652V92.2656ZM140.785 22.3881V96.1328H148.519V22.3881H140.785ZM127.264 10.1372L138.382 21.2555L143.851 15.7864L132.733 4.66812L127.264 10.1372ZM133.866 18.5209V7.40264H126.131V18.5209H133.866ZM141.117 14.6537H129.999V22.3881H141.117V14.6537ZM122.264 3.8672V22.3881H129.999V3.8672H122.264ZM126.131 26.2553H144.652V18.5209H126.131V26.2553ZM144.652 20.4545V100H152.387V20.4545H144.652ZM148.519 96.1328H68V103.867H148.519V96.1328ZM71.8672 100V0H64.1328V100H71.8672ZM68 3.8672H128.065V-3.8672H68V3.8672ZM125.33 2.73452L145.785 23.1891L151.254 17.72L130.799 -2.73452L125.33 2.73452Z" fill="#00AE99" mask="url(#path-24-inside-2)"/>
<path d="M98.8909 36.2914V36.7438C99.3549 36.9527 99.7378 37.2949 100.039 37.7706C100.353 38.2462 100.509 38.7799 100.509 39.3716C100.509 40.4621 100.15 41.3381 99.4303 41.9993C98.711 42.649 97.6437 42.9739 96.2283 42.9739H90.2419V30.5486H96.0717C97.3827 30.5486 98.392 30.8618 99.0997 31.4883C99.8074 32.1148 100.161 32.8979 100.161 33.8376C100.161 34.3945 100.045 34.8934 99.8132 35.3342C99.5928 35.7635 99.2853 36.0825 98.8909 36.2914ZM92.8348 35.4734H95.7584C96.9186 35.4734 97.4987 35.0094 97.4987 34.0813C97.4987 33.1647 96.9128 32.7065 95.741 32.7065H92.8348V35.4734ZM92.8348 40.7638H95.8455C97.1796 40.7638 97.8467 40.2533 97.8467 39.2324C97.8467 38.1766 97.1912 37.6487 95.8803 37.6487H92.8348V40.7638ZM110.614 30.5486H113.207V38.397C113.207 39.9401 112.754 41.1292 111.849 41.9645C110.956 42.7883 109.668 43.2001 107.986 43.2001C106.327 43.2001 105.045 42.7883 104.14 41.9645C103.247 41.1292 102.8 39.9401 102.8 38.397V30.5486H105.393V38.3448C105.393 39.1221 105.619 39.7428 106.072 40.2069C106.536 40.6594 107.18 40.8856 108.003 40.8856C108.839 40.8856 109.483 40.6594 109.935 40.2069C110.387 39.7428 110.614 39.1221 110.614 38.3448V30.5486ZM120.268 35.5083H120.755L123.418 30.5486H126.167L121.817 38.5537V42.9739H119.206V38.5537L114.873 30.5486H117.605L120.268 35.5083Z" fill="#00AE99"/>
<line x1="82.9351" y1="54.8821" x2="133.584" y2="54.8821" stroke="#00AE99" stroke-width="3.22266"/>
<line x1="82.9351" y1="72.4145" x2="133.584" y2="72.4145" stroke="#00AE99" stroke-width="3.22266"/>
<line x1="83.1121" y1="63.8745" x2="122.722" y2="63.8745" stroke="#00AE99" stroke-width="3.22266"/>
<line x1="82.9351" y1="81.5056" x2="122.545" y2="81.5056" stroke="#00AE99" stroke-width="3.22266"/>
<path d="M465.176 140.294H467.786V161H465.176V151.546H453.605V161H450.995V140.294H453.605V149.11H465.176V140.294ZM482.105 161V159.463H481.467C480.462 160.739 478.944 161.377 476.914 161.377C475.309 161.377 474.033 160.913 473.086 159.985C472.139 159.057 471.665 157.936 471.665 156.621C471.665 155.287 472.129 154.146 473.057 153.199C473.985 152.252 475.387 151.778 477.262 151.778H482.018V151.198C482.018 150.27 481.728 149.535 481.148 148.994C480.568 148.433 479.669 148.153 478.451 148.153C476.324 148.153 475.193 148.859 475.058 150.27H472.593C472.69 148.936 473.26 147.892 474.304 147.138C475.367 146.384 476.73 146.007 478.393 146.007C480.268 146.007 481.738 146.442 482.801 147.312C483.884 148.182 484.425 149.429 484.425 151.053V161H482.105ZM477.523 159.231C478.741 159.231 479.795 158.835 480.684 158.042C481.573 157.23 482.018 156.244 482.018 155.084V153.75H477.639C475.3 153.75 474.13 154.678 474.13 156.534C474.13 157.365 474.42 158.023 475 158.506C475.599 158.989 476.44 159.231 477.523 159.231ZM492.999 151.894L494.391 152.126L496.044 152.387C498.828 152.87 500.22 154.34 500.22 156.795C500.22 158.071 499.688 159.154 498.625 160.043C497.561 160.932 496.092 161.377 494.217 161.377C492.206 161.377 490.659 160.971 489.577 160.159C488.513 159.347 487.895 158.216 487.721 156.766H490.215C490.447 158.409 491.742 159.231 494.101 159.231C495.241 159.231 496.131 159.028 496.769 158.622C497.426 158.216 497.755 157.626 497.755 156.853C497.755 156.215 497.542 155.712 497.117 155.345C496.691 154.978 496.015 154.717 495.087 154.562L491.81 154.011C489.47 153.586 488.301 152.358 488.301 150.328C488.301 149.052 488.784 148.018 489.751 147.225C490.737 146.413 492.177 146.007 494.072 146.007C495.773 146.007 497.117 146.384 498.103 147.138C499.108 147.873 499.688 148.888 499.843 150.183H497.378C497.281 149.506 496.923 149.004 496.305 148.675C495.686 148.327 494.903 148.153 493.956 148.153C492.989 148.153 492.216 148.327 491.636 148.675C491.075 149.004 490.795 149.477 490.795 150.096C490.795 150.637 490.969 151.043 491.317 151.314C491.665 151.585 492.225 151.778 492.999 151.894ZM516.827 161H514.362V152.242C514.362 149.555 513.125 148.211 510.65 148.211C509.374 148.211 508.33 148.694 507.518 149.661C506.706 150.608 506.3 151.749 506.3 153.083V161H503.835V139.917H506.3V147.95H506.938C507.344 147.37 507.924 146.906 508.678 146.558C509.451 146.191 510.321 146.007 511.288 146.007C513.047 146.007 514.41 146.519 515.377 147.544C516.344 148.549 516.827 149.941 516.827 151.72V161ZM528.741 161V158.738H533.555V143.368H532.975L528.712 146.239V143.571L532.946 140.7H536.107V158.738H540.544V161H528.741Z" fill="black"/>
<rect x="448" y="3" width="94" height="94" stroke="#00AE99" stroke-width="6"/>
<rect x="445" width="33.0357" height="33.0357" fill="#00AE99"/>
<rect x="478.036" y="33.0356" width="16.0714" height="16.0714" fill="#00AE99"/>
<rect x="494.107" y="16.0715" width="16.0714" height="16.9643" fill="#00AE99"/>
<rect x="510.178" y="33.0356" width="16.9643" height="16.0714" fill="#00AE99"/>
<rect x="494.107" y="49.1072" width="16.0714" height="16.0714" fill="#00AE99"/>
<rect x="510.178" y="65.1785" width="16.9643" height="16.9643" fill="#00AE99"/>
<rect x="527.143" y="49.1072" width="16.0714" height="16.0714" fill="#00AE99"/>
<rect x="478.036" y="49.1072" width="16.0714" height="16.0714" fill="#00AE99"/>
<rect x="510.178" width="16.9643" height="16.0714" fill="#00AE99"/>
<rect x="461.072" y="65.1785" width="16.9643" height="16.9643" fill="#00AE99"/>
<rect x="445" y="82.1428" width="16.0714" height="16.0714" fill="#00AE99"/>
<rect x="478.036" y="81.25" width="16.0714" height="16.0714" fill="#00AE99"/>
<rect x="494.107" y="81.25" width="16.0714" height="16.0714" fill="#00AE99"/>
<rect x="445" y="49.1072" width="16.0714" height="16.0714" fill="#00AE99"/>
<path d="M336.5 57.5C337.328 56.6716 337.328 55.3284 336.5 54.5L323 41C322.172 40.1716 320.828 40.1716 320 41C319.172 41.8284 319.172 43.1716 320 44L332 56L320 68C319.172 68.8284 319.172 70.1716 320 71C320.828 71.8284 322.172 71.8284 323 71L336.5 57.5ZM259 58.1213H335V53.8787H259V58.1213Z" fill="#00AE99"/>
</g>
<defs>
<clipPath id="clip0">
<rect width="551" height="429" fill="white"/>
</clipPath>
</defs>
</svg>
