<svg width="945" height="348" fill="none" xmlns="http://www.w3.org/2000/svg"><path d="M210.061 182.061a1.502 1.502 0 0 0 0-2.122l-9.546-9.546a1.502 1.502 0 0 0-2.122 0 1.502 1.502 0 0 0 0 2.122l8.486 8.485-8.486 8.485a1.502 1.502 0 0 0 0 2.122 1.502 1.502 0 0 0 2.122 0l9.546-9.546zM171 182.5h38v-3h-38v3zM448.061 182.061a1.502 1.502 0 0 0 0-2.122l-9.546-9.546a1.502 1.502 0 0 0-2.122 0 1.502 1.502 0 0 0 0 2.122l8.486 8.485-8.486 8.485a1.502 1.502 0 0 0 0 2.122 1.502 1.502 0 0 0 2.122 0l9.546-9.546zM409 182.5h38v-3h-38v3zM718.061 182.061a1.502 1.502 0 0 0 0-2.122l-9.546-9.546a1.502 1.502 0 0 0-2.122 0 1.502 1.502 0 0 0 0 2.122l8.486 8.485-8.486 8.485a1.502 1.502 0 0 0 0 2.122 1.502 1.502 0 0 0 2.122 0l9.546-9.546zM679 182.5h38v-3h-38v3z" fill="#00AE99"/><path d="M37.934 126.934h56.884l19.17 19.17v76.22H37.934v-95.39z" fill="#E5E5E5" stroke="#00AE99" stroke-width="3.867"/><path d="M66.597 161.099v.452c.464.209.847.551 1.149 1.027.313.476.47 1.009.47 1.601 0 1.091-.36 1.966-1.08 2.628-.719.649-1.786.974-3.202.974h-5.986v-12.425h5.83c1.31 0 2.32.313 3.028.94.707.626 1.061 1.409 1.061 2.349 0 .557-.116 1.056-.348 1.497a2.17 2.17 0 0 1-.922.957zm-6.056-.818h2.924c1.16 0 1.74-.464 1.74-1.392 0-.917-.586-1.375-1.758-1.375h-2.906v2.767zm0 5.29h3.01c1.335 0 2.002-.51 2.002-1.531 0-1.056-.656-1.584-1.967-1.584h-3.045v3.115zm17.779-10.215h2.593v7.848c0 1.543-.453 2.733-1.358 3.568-.893.824-2.18 1.235-3.863 1.235-1.659 0-2.941-.411-3.846-1.235-.893-.835-1.34-2.025-1.34-3.568v-7.848H73.1v7.796c0 .778.226 1.398.679 1.862.464.453 1.108.679 1.931.679.836 0 1.48-.226 1.932-.679.453-.464.679-1.084.679-1.862v-7.796zm9.654 4.96h.487l2.663-4.96h2.75l-4.351 8.005v4.42h-2.61v-4.42l-4.334-8.005h2.732l2.663 4.96z" fill="#00AE99"/><path stroke="#00AE99" stroke-width="3.223" d="M50.824 179.463h50.274M50.824 196.865h50.274M50.824 188.486h39.317M50.824 205.889h39.317"/><path stroke="#00AE99" stroke-width="4.964" d="M266.482 132.482h87.698v87.698h-87.698z"/><path fill="#00AE99" d="M264 130h30.611v30.611H264zM294.611 160.611h14.892v14.892h-14.892zM309.503 144.892h14.892v15.719h-14.892zM324.396 160.611h15.719v14.892h-15.719zM309.503 175.503h14.892v14.892h-14.892zM324.396 190.396h15.719v15.719h-15.719zM340.115 175.503h14.892v14.892h-14.892zM294.611 175.503h14.892v14.892h-14.892zM324.396 130h15.719v14.892h-15.719zM278.892 190.396h15.719v15.719h-15.719zM264 206.115h14.892v14.892H264zM294.611 205.288h14.892v14.892h-14.892zM309.503 205.288h14.892v14.892h-14.892zM264 175.503h14.892v14.892H264z"/><path stroke="#00AE99" stroke-width="4.964" d="M517.482 132.482h87.698v87.698h-87.698z"/><path fill="#00AE99" d="M515 130h30.611v30.611H515zM545.611 160.611h14.892v14.892h-14.892zM560.503 144.892h14.892v15.719h-14.892zM575.396 160.611h15.719v14.892h-15.719zM560.503 175.503h14.892v14.892h-14.892zM575.396 190.396h15.719v15.719h-15.719zM591.115 175.503h14.892v14.892h-14.892zM545.611 175.503h14.892v14.892h-14.892zM575.396 130h15.719v14.892h-15.719zM529.892 190.396h15.719v15.719h-15.719zM515 206.115h14.892v14.892H515z"/><path fill="#00AE99" d="M545.611 205.288h14.892v14.892h-14.892zM560.503 205.288h14.892v14.892h-14.892zM515 175.503h14.892v14.892H515z"/><path d="M560.493 292.685c6.436 0 11.671-5.312 11.671-11.842.001-6.53-5.235-11.843-11.671-11.843-6.435 0-11.671 5.313-11.671 11.842 0 6.531 5.236 11.843 11.671 11.843zM581.986 317.181c-.073-11.962-9.686-21.671-21.493-21.671-11.851 0-21.493 9.784-21.493 21.809 0 .376.3.681.671.681h41.658a.676.676 0 0 0 .657-.819zM76.493 292.685c6.436 0 11.671-5.312 11.671-11.842S82.93 269 76.494 269c-6.436 0-11.672 5.313-11.672 11.842 0 6.531 5.236 11.843 11.671 11.843zM97.986 317.181c-.073-11.962-9.686-21.671-21.493-21.671-11.851 0-21.493 9.784-21.493 21.809 0 .376.3.681.67.681H97.33a.676.676 0 0 0 .657-.819z" fill="#003831"/><path d="M630.5 217.248c0 17.347-13.085 31.11-28.869 31.11-15.784 0-28.869-13.763-28.869-31.11 0-17.346 13.085-31.109 28.869-31.109 15.784 0 28.869 13.763 28.869 31.109z" fill="#E5E5E5" stroke="#00AE99" stroke-width="5"/><path d="M604.711 194.255a25.891 25.891 0 0 0-3.414-.154 25.89 25.89 0 0 0-8.964 1.751c-.951.37-1.83.778-2.619 1.209-.405.222-.736.422-.935.558-.712.452-.904 1.491-.407 2.216.496.76 1.492.925 2.273.385.158-.116.423-.284.75-.473a17.552 17.552 0 0 1 2.166-1.044c6.135-2.475 12.972-2.059 20.105 1.62.741.429 1.735.162 2.171-.598.479-.747.165-1.725-.705-2.205-3.439-1.791-6.93-2.876-10.421-3.265zm-17.462 10.754a24.614 24.614 0 0 0-3.583 3.575c-.53.653-.952 1.24-1.192 1.639a1.574 1.574 0 0 0 .444 2.179c.74.48 1.73.245 2.329-.542.215-.363.56-.852 1-1.404a20.363 20.363 0 0 1 3.019-3.043c3.638-2.971 7.948-4.504 12.85-4.422 4.848.063 9.08 1.58 12.625 4.392a19.833 19.833 0 0 1 3.07 3.019c.443.546.793 1.037.982 1.358a1.652 1.652 0 0 0 2.203.565c.786-.437 1.027-1.389.574-2.205-.243-.4-.665-.981-1.202-1.63a24.083 24.083 0 0 0-3.624-3.537c-4.158-3.292-9.048-5.07-14.577-5.143-5.636-.075-10.644 1.728-14.918 5.199zm3.221 4.082c-6.33 5.178-8.287 13.641-5.003 23.084.279.83 1.196 1.271 2.046.991.838-.284 1.289-1.209.98-2.024-2.91-8.345-1.409-15.127 4.03-19.65 4.575-3.696 12.206-4.111 17.54-.855 2.598 1.618 4.845 4.486 6.014 7.629 1.04 2.739 1.103 5.635.18 7.014-.834 1.276-2.572 1.857-4.235 1.441-1.847-.463-2.852-1.768-2.908-3.88-.063-3.5-2.717-6.217-6.306-6.625-3.477-.41-6.693 1.621-7.521 4.893-1.955 7.423 3.576 16.004 12.478 18.751a1.635 1.635 0 0 0 2.022-1.036c.269-.875-.208-1.772-1.081-2.019-7.15-2.195-11.793-9.253-10.312-14.95.449-1.776 1.978-2.672 4.107-2.481 2.121.241 3.381 1.513 3.381 3.514.105 3.406 2.262 6.139 5.347 6.914 2.999.752 6.11-.346 7.719-2.785 1.615-2.394 1.647-5.875.155-9.848-1.475-3.887-4.095-7.204-7.35-9.233-3.31-2.039-7.238-2.979-11.198-2.701-3.805.268-7.399 1.641-10.085 3.856zm10.87 1.481c-4.389.154-8.181 2.513-10.305 6.505-2.473 4.611-2.276 9.81.351 15.209.388.794.826 1.58 1.309 2.356a28.928 28.928 0 0 0 2.321 3.212c.424.508.805.931 1.062 1.187.608.626 1.609.637 2.254.025.637-.605.651-1.553.037-2.235a17.352 17.352 0 0 1-.926-1.052 26.094 26.094 0 0 1-2.029-2.834 23.625 23.625 0 0 1-1.13-2.038c-2.216-4.519-2.413-8.616-.424-12.328 2.191-4.06 6.228-5.721 10.546-4.484 4.302 1.242 7.069 4.845 7.009 9.328-.102.867.554 1.631 1.453 1.682.891.078 1.638-.614 1.712-1.601.125-5.871-3.65-10.84-9.278-12.464-1.345-.373-2.668-.532-3.962-.468zm-1.057 12.546c.009.464.09 1.157.238 1.928a14.882 14.882 0 0 0 1.477 4.229c.057.105.115.209.173.311 2.419 4.07 6.96 6.127 12.876 5.58a1.583 1.583 0 0 0 1.503-1.679c-.053-.907-.84-1.553-1.807-1.479-4.934.448-7.911-.839-9.799-4.025a8.945 8.945 0 0 1-.277-.499 10.855 10.855 0 0 1-1.014-3.031 9 9 0 0 1-.161-1.371c0-.89-.726-1.595-1.646-1.596-.888.026-1.589.756-1.563 1.632z" fill="#00AE99"/><path d="M27.494 7.08c2.867 0 5.105.96 6.713 2.877 1.607 1.918 2.41 4.338 2.41 7.261s-.803 5.343-2.41 7.261c-1.608 1.918-3.846 2.877-6.713 2.877-2.886 0-5.133-.95-6.74-2.85-1.59-1.917-2.385-4.347-2.385-7.288 0-2.94.795-5.361 2.384-7.26 1.608-1.919 3.855-2.878 6.74-2.878zm-4.96 15.755c1.114 1.516 2.768 2.274 4.96 2.274s3.845-.758 4.959-2.274c1.114-1.516 1.671-3.388 1.671-5.617 0-2.228-.557-4.1-1.671-5.617-1.114-1.516-2.767-2.274-4.96-2.274-2.191 0-3.845.758-4.959 2.274-1.114 1.516-1.671 3.389-1.671 5.617 0 2.229.557 4.101 1.671 5.617zm25.739-9.645v2.192h-1.15c-1.39 0-2.476.411-3.261 1.233-.768.822-1.151 1.982-1.151 3.48V27h-2.33V13.19h2.248v1.644h.602c.877-1.096 2.21-1.644 4-1.644h1.042zm13.081-6.11h2.329V27h-2.247v-1.48h-.603c-.986 1.224-2.42 1.836-4.301 1.836-1.864 0-3.343-.685-4.44-2.055-1.077-1.37-1.616-3.105-1.616-5.206 0-2.137.54-3.881 1.617-5.233 1.096-1.352 2.575-2.028 4.439-2.028 1.863 0 3.27.612 4.22 1.836h.602V7.08zM57.052 25.33c1.443 0 2.521-.503 3.233-1.507.731-1.005 1.096-2.247 1.096-3.727s-.365-2.721-1.096-3.726c-.712-1.005-1.79-1.507-3.233-1.507-1.352 0-2.402.484-3.15 1.452-.732.95-1.097 2.21-1.097 3.781 0 1.571.365 2.84 1.096 3.809.75.95 1.8 1.425 3.151 1.425zm23.105-6.056v.795H69.635c.037 1.662.43 2.959 1.178 3.89.75.914 1.827 1.37 3.234 1.37 1.9 0 3.068-.712 3.507-2.137h2.356c-.237 1.242-.867 2.247-1.89 3.014-1.005.768-2.33 1.151-3.973 1.151-2.101 0-3.745-.685-4.932-2.055-1.188-1.37-1.781-3.15-1.781-5.343 0-2.155.593-3.881 1.78-5.178 1.188-1.297 2.814-1.946 4.878-1.946 1.954 0 3.461.621 4.52 1.863 1.06 1.224 1.608 2.75 1.645 4.576zm-6.22-4.411c-1.187 0-2.137.31-2.85.931-.712.603-1.15 1.38-1.315 2.33h7.974c-.073-.932-.448-1.709-1.124-2.33-.676-.62-1.57-.931-2.685-.931zm17.737-1.672v2.192h-1.15c-1.389 0-2.476.411-3.261 1.233-.768.822-1.151 1.982-1.151 3.48V27h-2.33V13.19h2.248v1.644h.602c.877-1.096 2.21-1.644 4-1.644h1.042zm13.145-3.589h-2.466v-2.52h2.466V9.6zm-.082 3.59V27h-2.329V13.19h2.329zm8.409 5.205l1.315.22 1.562.246c2.63.457 3.945 1.845 3.945 4.165 0 1.206-.502 2.229-1.507 3.069-1.004.84-2.393 1.26-4.164 1.26-1.9 0-3.361-.383-4.384-1.15-1.005-.768-1.59-1.836-1.754-3.206h2.356c.22 1.552 1.443 2.329 3.672 2.329 1.078 0 1.918-.192 2.521-.576.621-.383.931-.94.931-1.671 0-.603-.201-1.078-.602-1.425-.402-.347-1.042-.594-1.918-.74l-3.097-.52c-2.21-.402-3.315-1.562-3.315-3.48 0-1.206.457-2.183 1.37-2.932.932-.767 2.292-1.15 4.083-1.15 1.607 0 2.877.355 3.808 1.068.95.694 1.498 1.653 1.644 2.877h-2.329c-.091-.64-.429-1.115-1.014-1.425-.584-.329-1.324-.493-2.219-.493-.913 0-1.644.164-2.192.493-.53.31-.795.758-.795 1.343 0 .511.165.895.494 1.15.328.256.858.439 1.589.548zM30.74 56.836h2.33c-.275 1.388-.923 2.493-1.946 3.315-1.005.803-2.293 1.205-3.863 1.205-2.083 0-3.727-.676-4.932-2.027-1.188-1.37-1.781-3.115-1.781-5.234 0-2.137.593-3.881 1.78-5.233 1.188-1.352 2.832-2.028 4.933-2.028 1.589 0 2.877.402 3.863 1.206 1.005.785 1.626 1.836 1.863 3.15h-2.329c-.493-1.552-1.626-2.328-3.397-2.328-1.48 0-2.585.493-3.316 1.48-.712.968-1.068 2.2-1.068 3.698 0 1.517.365 2.777 1.096 3.782.73 1.004 1.826 1.507 3.288 1.507 1.936 0 3.096-.831 3.48-2.494zm13.693-9.646v2.192h-1.15c-1.389 0-2.476.411-3.261 1.233-.767.822-1.151 1.982-1.151 3.48V61h-2.33V47.19h2.248v1.644h.602c.877-1.096 2.21-1.644 4-1.644h1.042zm15.027 6.083v.795H48.938c.037 1.662.43 2.959 1.178 3.89.75.914 1.827 1.37 3.233 1.37 1.9 0 3.07-.712 3.508-2.137h2.356c-.237 1.242-.868 2.247-1.89 3.014-1.005.768-2.33 1.151-3.974 1.151-2.1 0-3.744-.685-4.931-2.055-1.188-1.37-1.782-3.15-1.782-5.343 0-2.155.594-3.881 1.781-5.178 1.188-1.297 2.813-1.946 4.878-1.946 1.954 0 3.461.621 4.52 1.863 1.06 1.224 1.608 2.75 1.645 4.576zm-6.22-4.411c-1.188 0-2.137.31-2.85.931-.712.603-1.15 1.38-1.315 2.33h7.973c-.073-.932-.447-1.709-1.123-2.33-.676-.62-1.57-.931-2.685-.931zM71.88 61v-1.452h-.603c-.95 1.205-2.384 1.808-4.302 1.808-1.516 0-2.721-.438-3.616-1.315s-1.343-1.936-1.343-3.178c0-1.26.438-2.338 1.315-3.234.877-.895 2.201-1.342 3.973-1.342H71.8v-.548c0-.877-.274-1.571-.822-2.083-.548-.53-1.398-.794-2.548-.794-2.01 0-3.078.666-3.206 2h-2.33c.092-1.26.631-2.247 1.617-2.96 1.005-.712 2.293-1.068 3.864-1.068 1.772 0 3.16.411 4.165 1.233 1.023.822 1.534 2 1.534 3.535V61h-2.192zm-4.33-1.671c1.152 0 2.147-.375 2.987-1.124.84-.767 1.26-1.699 1.26-2.795v-1.26h-4.136c-2.21 0-3.316.877-3.316 2.63 0 .786.274 1.407.822 1.864.566.456 1.36.685 2.384.685zM81.544 47.19h3.48v2.028h-3.48v7.59c0 .73.183 1.27.548 1.616.384.33 1.023.494 1.918.494h1.014V61h-1.068c-1.571 0-2.759-.292-3.562-.877-.786-.584-1.179-1.58-1.179-2.986v-7.919h-2.383V47.19h2.383v-4.164h2.33v4.164zm19.07 6.083v.795H90.092c.036 1.662.429 2.959 1.178 3.89.749.914 1.826 1.37 3.233 1.37 1.9 0 3.069-.712 3.507-2.137h2.357c-.238 1.242-.868 2.247-1.891 3.014-1.005.768-2.329 1.151-3.973 1.151-2.1 0-3.745-.685-4.932-2.055-1.187-1.37-1.781-3.15-1.781-5.343 0-2.155.594-3.881 1.781-5.178 1.187-1.297 2.813-1.946 4.877-1.946 1.955 0 3.462.621 4.521 1.863 1.06 1.224 1.608 2.75 1.644 4.576zm-6.22-4.411c-1.187 0-2.137.31-2.85.931-.712.603-1.15 1.38-1.314 2.33h7.973c-.073-.932-.448-1.709-1.123-2.33-.676-.62-1.571-.931-2.686-.931zm19.875-7.782h2.329V61h-2.247v-1.48h-.603c-.986 1.224-2.42 1.836-4.302 1.836-1.863 0-3.343-.685-4.439-2.055-1.077-1.37-1.616-3.105-1.616-5.206 0-2.137.539-3.881 1.616-5.233 1.096-1.352 2.576-2.028 4.439-2.028s3.27.612 4.22 1.836h.603v-7.59zm-4.302 18.249c1.443 0 2.521-.503 3.233-1.507.731-1.005 1.096-2.247 1.096-3.727s-.365-2.721-1.096-3.726c-.712-1.005-1.79-1.507-3.233-1.507-1.352 0-2.402.484-3.151 1.452-.731.95-1.096 2.21-1.096 3.781 0 1.571.365 2.84 1.096 3.809.749.95 1.799 1.425 3.151 1.425zM268.494 12.08c2.867 0 5.105.96 6.713 2.877 1.607 1.918 2.411 4.338 2.411 7.261s-.804 5.343-2.411 7.261c-1.608 1.918-3.846 2.877-6.713 2.877-2.887 0-5.133-.95-6.741-2.85-1.589-1.917-2.384-4.347-2.384-7.288 0-2.94.795-5.361 2.384-7.26 1.608-1.919 3.854-2.878 6.741-2.878zm-4.96 15.755c1.114 1.516 2.768 2.274 4.96 2.274s3.845-.758 4.959-2.274c1.114-1.516 1.671-3.388 1.671-5.617 0-2.228-.557-4.1-1.671-5.617-1.114-1.516-2.767-2.274-4.959-2.274-2.192 0-3.846.758-4.96 2.274-1.114 1.516-1.671 3.389-1.671 5.617 0 2.229.557 4.101 1.671 5.617zm25.739-9.645v2.192h-1.151c-1.388 0-2.475.411-3.261 1.233-.767.822-1.15 1.982-1.15 3.48V32h-2.329V18.19h2.246v1.644h.603c.877-1.096 2.211-1.644 4.001-1.644h1.041zm13.081-6.11h2.329V32h-2.247v-1.48h-.603c-.986 1.224-2.42 1.836-4.301 1.836-1.864 0-3.343-.685-4.439-2.055-1.078-1.37-1.617-3.105-1.617-5.206 0-2.137.539-3.881 1.617-5.233 1.096-1.352 2.575-2.028 4.439-2.028 1.863 0 3.269.612 4.219 1.836h.603v-7.59zm-4.302 18.249c1.443 0 2.521-.503 3.233-1.507.731-1.005 1.096-2.247 1.096-3.727s-.365-2.721-1.096-3.726c-.712-1.005-1.79-1.507-3.233-1.507-1.352 0-2.402.484-3.151 1.452-.73.95-1.096 2.21-1.096 3.781 0 1.571.366 2.84 1.096 3.809.749.95 1.799 1.425 3.151 1.425zm23.105-6.056v.795h-10.522c.037 1.662.43 2.959 1.178 3.89.749.914 1.827 1.37 3.234 1.37 1.899 0 3.068-.712 3.507-2.137h2.356c-.237 1.242-.867 2.247-1.89 3.014-1.005.768-2.329 1.151-3.973 1.151-2.101 0-3.745-.685-4.932-2.055-1.188-1.37-1.781-3.15-1.781-5.343 0-2.155.593-3.881 1.781-5.178 1.187-1.297 2.813-1.946 4.877-1.946 1.954 0 3.461.621 4.521 1.863 1.059 1.224 1.607 2.75 1.644 4.576zm-6.22-4.411c-1.187 0-2.137.31-2.85.931-.712.603-1.15 1.38-1.315 2.33h7.974c-.073-.932-.448-1.709-1.124-2.33-.676-.62-1.571-.931-2.685-.931zm17.737-1.672v2.192h-1.151c-1.388 0-2.475.411-3.26 1.233-.768.822-1.151 1.982-1.151 3.48V32h-2.329V18.19h2.247v1.644h.602c.877-1.096 2.211-1.644 4.001-1.644h1.041zm13.145-3.589h-2.466v-2.52h2.466v2.52zm-.082 3.59V32h-2.329V18.19h2.329zm8.409 5.205l1.315.22 1.562.246c2.63.457 3.945 1.845 3.945 4.165 0 1.206-.502 2.229-1.507 3.069-1.004.84-2.393 1.26-4.164 1.26-1.9 0-3.361-.383-4.384-1.15-1.005-.768-1.59-1.836-1.754-3.206h2.356c.22 1.552 1.443 2.329 3.672 2.329 1.078 0 1.918-.192 2.521-.576.621-.383.931-.94.931-1.671 0-.603-.201-1.078-.602-1.425-.402-.347-1.042-.594-1.918-.74l-3.097-.52c-2.21-.402-3.315-1.562-3.315-3.48 0-1.206.457-2.183 1.37-2.932.932-.767 2.292-1.15 4.083-1.15 1.607 0 2.877.355 3.808 1.068.95.694 1.498 1.653 1.644 2.877h-2.329c-.091-.64-.429-1.114-1.014-1.425-.584-.329-1.324-.493-2.219-.493-.913 0-1.644.164-2.192.493-.53.31-.795.758-.795 1.343 0 .511.165.895.494 1.15.328.256.858.439 1.589.548zm-77.836 23.04h2.466V66h-2.466v-8.932h-10.933V66h-2.466V46.436h2.466v8.33h10.933v-8.33zM292.304 66v-1.452h-.602c-.95 1.205-2.384 1.808-4.302 1.808-1.516 0-2.722-.438-3.617-1.315s-1.343-1.936-1.343-3.178c0-1.26.439-2.338 1.316-3.234.876-.895 2.201-1.342 3.973-1.342h4.493v-.548c0-.877-.274-1.571-.822-2.083-.548-.53-1.397-.794-2.548-.794-2.009 0-3.078.666-3.206 2h-2.329c.091-1.26.63-2.247 1.617-2.96 1.004-.712 2.292-1.068 3.863-1.068 1.772 0 3.16.411 4.165 1.233 1.023.822 1.534 2 1.534 3.535V66h-2.192zm-4.329-1.671c1.151 0 2.146-.375 2.987-1.124.84-.767 1.26-1.699 1.26-2.795v-1.26h-4.137c-2.211 0-3.316.877-3.316 2.63 0 .786.274 1.407.822 1.864.567.456 1.361.685 2.384.685zm14.622-6.933l1.315.22 1.562.246c2.63.457 3.945 1.845 3.945 4.165 0 1.206-.502 2.228-1.507 3.069-1.004.84-2.392 1.26-4.164 1.26-1.9 0-3.361-.383-4.384-1.15-1.005-.768-1.59-1.836-1.754-3.206h2.356c.22 1.552 1.444 2.329 3.672 2.329 1.078 0 1.918-.192 2.521-.576.621-.383.931-.94.931-1.671 0-.603-.2-1.078-.602-1.425-.402-.347-1.042-.594-1.918-.74l-3.097-.52c-2.21-.402-3.315-1.562-3.315-3.48 0-1.206.457-2.183 1.37-2.932.932-.767 2.293-1.15 4.083-1.15 1.607 0 2.877.355 3.808 1.068.95.694 1.498 1.653 1.644 2.877h-2.329c-.091-.64-.429-1.114-1.014-1.425-.584-.329-1.324-.493-2.219-.493-.913 0-1.644.164-2.192.493-.53.31-.795.758-.795 1.343 0 .511.165.895.494 1.15.328.256.858.439 1.589.548zM325.111 66h-2.329v-8.275c0-2.539-1.169-3.808-3.508-3.808-1.205 0-2.192.456-2.959 1.37-.767.895-1.151 1.972-1.151 3.233V66h-2.329V46.08h2.329v7.59h.603c.384-.548.932-.986 1.644-1.315.731-.347 1.553-.52 2.466-.52 1.663 0 2.95.483 3.864 1.451.913.95 1.37 2.265 1.37 3.946V66zm16.235-7.727v.795h-10.522c.037 1.662.429 2.959 1.178 3.89.749.914 1.827 1.37 3.233 1.37 1.9 0 3.069-.712 3.508-2.137h2.356c-.237 1.242-.868 2.247-1.891 3.014-1.004.768-2.329 1.151-3.973 1.151-2.1 0-3.744-.685-4.932-2.055-1.187-1.37-1.781-3.15-1.781-5.343 0-2.155.594-3.881 1.781-5.178 1.188-1.297 2.813-1.946 4.878-1.946 1.954 0 3.461.621 4.521 1.863 1.059 1.224 1.607 2.75 1.644 4.576zm-6.22-4.411c-1.188 0-2.137.31-2.85.931-.712.603-1.151 1.38-1.315 2.33h7.973c-.073-.932-.447-1.709-1.123-2.33-.676-.62-1.571-.931-2.685-.931zM355 46.08h2.329V66h-2.247v-1.48h-.603c-.986 1.224-2.42 1.836-4.301 1.836-1.864 0-3.343-.685-4.439-2.055-1.078-1.37-1.617-3.105-1.617-5.206 0-2.137.539-3.881 1.617-5.233 1.096-1.352 2.575-2.028 4.439-2.028 1.863 0 3.269.612 4.219 1.836H355v-7.59zm-4.302 18.249c1.443 0 2.521-.503 3.233-1.507.731-1.005 1.096-2.247 1.096-3.727s-.365-2.721-1.096-3.726c-.712-1.005-1.79-1.507-3.233-1.507-1.352 0-2.402.484-3.151 1.452-.73.95-1.096 2.21-1.096 3.781 0 1.571.366 2.84 1.096 3.809.749.95 1.799 1.425 3.151 1.425zM522.21 33V13.436h4.11l4.932 9.18h.602l4.85-9.18h4.138V33h-2.412V16.231h-.602l-5.015 9.289h-2.575l-5.014-9.289h-.603V33h-2.411zm32.175 0v-1.452h-.602c-.95 1.205-2.384 1.808-4.302 1.808-1.516 0-2.722-.438-3.617-1.315s-1.343-1.936-1.343-3.178c0-1.26.439-2.338 1.316-3.234.876-.895 2.201-1.342 3.973-1.342h4.493v-.548c0-.877-.274-1.571-.822-2.083-.548-.53-1.397-.794-2.548-.794-2.009 0-3.078.667-3.206 2h-2.329c.092-1.26.63-2.247 1.617-2.96 1.005-.712 2.292-1.068 3.863-1.068 1.772 0 3.16.411 4.165 1.233 1.023.822 1.534 2 1.534 3.535V33h-2.192zm-4.329-1.671c1.151 0 2.147-.375 2.987-1.124.84-.767 1.26-1.699 1.26-2.795v-1.26h-4.137c-2.21 0-3.316.877-3.316 2.63 0 .786.274 1.407.822 1.864.567.456 1.361.685 2.384.685zM573.391 33h-2.493l-3.946-7.508h-.603L563.171 29v4h-2.329V13.08h2.329v13.043l6.521-6.933h2.768l-3.973 4.247L573.391 33zm14.57-7.727v.795h-10.522c.037 1.662.429 2.959 1.178 3.89.749.914 1.827 1.37 3.234 1.37 1.899 0 3.068-.712 3.507-2.137h2.356c-.237 1.242-.868 2.247-1.89 3.014-1.005.768-2.329 1.151-3.973 1.151-2.101 0-3.745-.685-4.932-2.055-1.188-1.37-1.781-3.15-1.781-5.343 0-2.155.593-3.881 1.781-5.178 1.187-1.297 2.813-1.946 4.877-1.946 1.954 0 3.461.621 4.521 1.863 1.059 1.224 1.607 2.75 1.644 4.576zm-6.22-4.411c-1.187 0-2.137.31-2.85.931-.712.603-1.15 1.38-1.315 2.33h7.974c-.074-.932-.448-1.709-1.124-2.33-.676-.62-1.571-.931-2.685-.931zm17.737-1.672v2.192h-1.151c-1.388 0-2.475.411-3.26 1.233-.768.822-1.151 1.982-1.151 3.48V33h-2.329V19.19h2.247v1.644h.602c.877-1.096 2.211-1.644 4.001-1.644h1.041zM492.659 58.396l1.316.22 1.561.246c2.631.457 3.946 1.845 3.946 4.165 0 1.206-.502 2.228-1.507 3.069-1.005.84-2.393 1.26-4.165 1.26-1.9 0-3.361-.383-4.384-1.15-1.005-.768-1.589-1.836-1.753-3.206h2.356c.219 1.552 1.443 2.329 3.672 2.329 1.077 0 1.918-.192 2.52-.576.621-.383.932-.94.932-1.671 0-.603-.201-1.078-.603-1.425-.402-.347-1.041-.594-1.918-.74l-3.096-.52c-2.21-.402-3.315-1.562-3.315-3.48 0-1.206.456-2.183 1.37-2.932.931-.767 2.292-1.15 4.082-1.15 1.608 0 2.877.355 3.809 1.068.95.694 1.498 1.653 1.644 2.877h-2.329c-.092-.64-.43-1.114-1.014-1.425-.585-.329-1.324-.493-2.219-.493-.914 0-1.644.164-2.192.493-.53.31-.795.758-.795 1.343 0 .511.164.895.493 1.15.329.256.859.439 1.589.548zm12.705-8.795h-2.466v-2.52h2.466v2.52zm-.082 3.59V67h-2.329V53.19h2.329zm14.684 0h2.246v13.124c0 1.954-.575 3.498-1.726 4.63-1.132 1.151-2.703 1.727-4.713 1.727-1.79 0-3.233-.365-4.329-1.096-1.078-.73-1.717-1.772-1.918-3.124h2.302c.365 1.498 1.671 2.247 3.918 2.247 1.388 0 2.42-.393 3.096-1.178.694-.786 1.041-1.89 1.041-3.316V65.11h-.602c-.95 1.224-2.329 1.836-4.138 1.836-1.863 0-3.352-.657-4.466-1.973-1.114-1.315-1.671-3.004-1.671-5.069 0-2.064.557-3.753 1.671-5.069 1.114-1.333 2.603-2 4.466-2s3.27.612 4.22 1.836h.603v-1.48zm-4.384 11.727c1.406 0 2.484-.485 3.233-1.453.749-.968 1.123-2.155 1.123-3.562 0-1.424-.374-2.62-1.123-3.589-.749-.968-1.827-1.452-3.233-1.452-1.334 0-2.375.456-3.124 1.37-.749.913-1.123 2.137-1.123 3.671 0 1.517.374 2.731 1.123 3.645.749.913 1.79 1.37 3.124 1.37zM538.988 67h-2.329v-8.275c0-2.539-1.169-3.808-3.508-3.808-1.205 0-2.192.456-2.959 1.37-.767.895-1.151 1.972-1.151 3.233V67h-2.329V53.19h2.247v1.48h.603c.402-.548.968-.986 1.699-1.315.73-.347 1.552-.52 2.466-.52 1.68 0 2.977.483 3.891 1.451.913.95 1.37 2.265 1.37 3.946V67zm8.097-8.604l1.315.22 1.562.246c2.63.457 3.945 1.845 3.945 4.165 0 1.206-.502 2.228-1.507 3.069-1.004.84-2.393 1.26-4.164 1.26-1.9 0-3.362-.383-4.384-1.15-1.005-.768-1.59-1.836-1.754-3.206h2.356c.22 1.552 1.443 2.329 3.672 2.329 1.078 0 1.918-.192 2.521-.576.621-.383.931-.94.931-1.671 0-.603-.201-1.078-.602-1.425-.402-.347-1.042-.594-1.918-.74l-3.097-.52c-2.21-.402-3.315-1.562-3.315-3.48 0-1.206.457-2.183 1.37-2.932.932-.767 2.292-1.15 4.083-1.15 1.607 0 2.877.355 3.808 1.068.95.694 1.498 1.653 1.644 2.877h-2.329c-.091-.64-.429-1.114-1.014-1.425-.584-.329-1.324-.493-2.219-.493-.913 0-1.644.164-2.192.493-.53.31-.795.758-.795 1.343 0 .511.165.895.494 1.15.328.256.858.439 1.589.548zm18.823-3.507c1.224-1.37 2.886-2.055 4.987-2.055s3.754.685 4.96 2.055c1.223 1.37 1.835 3.105 1.835 5.206 0 2.1-.612 3.836-1.835 5.206-1.206 1.37-2.859 2.055-4.96 2.055s-3.763-.685-4.987-2.055c-1.205-1.37-1.808-3.105-1.808-5.206 0-2.1.603-3.836 1.808-5.206zm1.672 8.933c.767 1.004 1.872 1.507 3.315 1.507 1.443 0 2.548-.503 3.316-1.507.767-1.023 1.15-2.266 1.15-3.727 0-1.461-.383-2.694-1.15-3.699-.768-1.023-1.873-1.534-3.316-1.534-1.443 0-2.548.511-3.315 1.534-.767 1.005-1.151 2.238-1.151 3.7 0 1.46.384 2.703 1.151 3.726zm21.636-10.632v2.192h-1.15c-1.389 0-2.476.411-3.261 1.233-.767.822-1.151 1.982-1.151 3.48V67h-2.329V53.19h2.247v1.644h.603c.877-1.096 2.21-1.644 4-1.644h1.041zm13.081-6.11h2.329V67h-2.246v-1.48h-.603c-.987 1.224-2.42 1.836-4.302 1.836-1.863 0-3.343-.685-4.439-2.055-1.077-1.37-1.616-3.105-1.616-5.206 0-2.137.539-3.881 1.616-5.233 1.096-1.352 2.576-2.028 4.439-2.028s3.27.612 4.22 1.836h.602v-7.59zm-4.301 18.249c1.443 0 2.52-.503 3.233-1.507.731-1.005 1.096-2.247 1.096-3.727s-.365-2.721-1.096-3.726c-.713-1.005-1.79-1.507-3.233-1.507-1.352 0-2.402.484-3.151 1.452-.731.95-1.096 2.21-1.096 3.781 0 1.571.365 2.84 1.096 3.809.749.95 1.799 1.425 3.151 1.425zm23.104-6.056v.795h-10.521c.036 1.662.429 2.959 1.178 3.89.749.914 1.827 1.37 3.233 1.37 1.9 0 3.069-.712 3.507-2.137h2.357c-.238 1.242-.868 2.247-1.891 3.014-1.005.768-2.329 1.151-3.973 1.151-2.101 0-3.745-.685-4.932-2.055-1.187-1.37-1.781-3.15-1.781-5.343 0-2.155.594-3.881 1.781-5.178 1.187-1.297 2.813-1.946 4.877-1.946 1.955 0 3.462.621 4.521 1.863 1.06 1.224 1.608 2.75 1.644 4.576zm-6.22-4.411c-1.187 0-2.137.31-2.849.931-.713.603-1.151 1.38-1.315 2.33h7.973c-.073-.932-.447-1.709-1.123-2.33-.676-.62-1.571-.931-2.686-.931zm17.737-1.672v2.192h-1.15c-1.389 0-2.475.411-3.261 1.233-.767.822-1.151 1.982-1.151 3.48V67h-2.329V53.19h2.247v1.644h.603c.877-1.096 2.21-1.644 4-1.644h1.041zM769.982 12.08c2.868 0 5.106.96 6.713 2.877 1.608 1.918 2.411 4.338 2.411 7.261s-.803 5.343-2.411 7.261c-1.607 1.918-3.845 2.877-6.713 2.877-2.886 0-5.133-.95-6.74-2.85-1.589-1.917-2.384-4.347-2.384-7.288 0-2.94.795-5.361 2.384-7.26 1.607-1.919 3.854-2.878 6.74-2.878zm-4.959 15.755c1.114 1.516 2.767 2.274 4.959 2.274 2.192 0 3.845-.758 4.96-2.274 1.114-1.516 1.671-3.388 1.671-5.617 0-2.228-.557-4.1-1.671-5.617-1.115-1.516-2.768-2.274-4.96-2.274s-3.845.758-4.959 2.274c-1.114 1.516-1.672 3.389-1.672 5.617 0 2.229.558 4.101 1.672 5.617zm25.739-9.645v2.192h-1.151c-1.389 0-2.475.411-3.261 1.233-.767.822-1.151 1.982-1.151 3.48V32h-2.329V18.19h2.247v1.644h.603c.877-1.096 2.21-1.644 4-1.644h1.042zm13.081-6.11h2.329V32h-2.247v-1.48h-.603c-.986 1.224-2.42 1.836-4.302 1.836-1.863 0-3.343-.685-4.439-2.055-1.077-1.37-1.616-3.105-1.616-5.206 0-2.137.539-3.881 1.616-5.233 1.096-1.352 2.576-2.028 4.439-2.028s3.27.612 4.22 1.836h.603v-7.59zm-4.302 18.249c1.443 0 2.521-.503 3.233-1.507.731-1.005 1.096-2.247 1.096-3.727s-.365-2.721-1.096-3.726c-.712-1.005-1.79-1.507-3.233-1.507-1.352 0-2.402.484-3.151 1.452-.731.95-1.096 2.21-1.096 3.781 0 1.571.365 2.84 1.096 3.809.749.95 1.799 1.425 3.151 1.425zm23.105-6.056v.795h-10.522c.036 1.662.429 2.959 1.178 3.89.749.914 1.827 1.37 3.233 1.37 1.9 0 3.069-.712 3.508-2.137h2.356c-.238 1.242-.868 2.247-1.891 3.014-1.004.768-2.329 1.151-3.973 1.151-2.1 0-3.744-.685-4.932-2.055-1.187-1.37-1.781-3.15-1.781-5.343 0-2.155.594-3.881 1.781-5.178 1.188-1.297 2.813-1.946 4.878-1.946 1.954 0 3.461.621 4.521 1.863 1.059 1.224 1.607 2.75 1.644 4.576zm-6.22-4.411c-1.188 0-2.137.31-2.85.931-.712.603-1.151 1.38-1.315 2.33h7.973c-.073-.932-.447-1.709-1.123-2.33-.676-.62-1.571-.931-2.685-.931zm17.737-1.672v2.192h-1.151c-1.388 0-2.475.411-3.261 1.233-.767.822-1.15 1.982-1.15 3.48V32h-2.329V18.19h2.246v1.644h.603c.877-1.096 2.21-1.644 4.001-1.644h1.041zm13.144-3.589h-2.466v-2.52h2.466v2.52zm-.082 3.59V32h-2.329V18.19h2.329zm8.409 5.205l1.316.22 1.561.246c2.631.457 3.946 1.845 3.946 4.165 0 1.206-.502 2.229-1.507 3.069-1.005.84-2.393 1.26-4.165 1.26-1.899 0-3.361-.383-4.384-1.15-1.004-.768-1.589-1.836-1.753-3.206h2.356c.219 1.552 1.443 2.329 3.672 2.329 1.077 0 1.918-.192 2.52-.576.622-.383.932-.94.932-1.671 0-.603-.201-1.078-.603-1.425-.402-.347-1.041-.594-1.918-.74l-3.096-.52c-2.21-.402-3.315-1.562-3.315-3.48 0-1.206.456-2.183 1.37-2.932.931-.767 2.292-1.15 4.082-1.15 1.608 0 2.877.355 3.809 1.068.95.694 1.498 1.653 1.644 2.877h-2.329c-.091-.64-.429-1.114-1.014-1.425-.584-.329-1.324-.493-2.219-.493-.914 0-1.644.164-2.192.493-.53.31-.795.758-.795 1.343 0 .511.164.895.493 1.15.329.256.859.439 1.589.548zm25.756-5.206v2.192h-1.151c-1.388 0-2.475.411-3.26 1.233-.767.822-1.151 1.982-1.151 3.48V32h-2.329V18.19h2.247v1.644h.603c.876-1.096 2.21-1.644 4-1.644h1.041zm15.027 6.083v.795h-10.522c.037 1.662.429 2.959 1.178 3.89.749.914 1.827 1.37 3.234 1.37 1.899 0 3.068-.712 3.507-2.137h2.356c-.237 1.242-.867 2.247-1.89 3.014-1.005.768-2.329 1.151-3.973 1.151-2.101 0-3.745-.685-4.932-2.055-1.188-1.37-1.781-3.15-1.781-5.343 0-2.155.593-3.881 1.781-5.178 1.187-1.297 2.813-1.946 4.877-1.946 1.954 0 3.461.621 4.521 1.863 1.059 1.224 1.607 2.75 1.644 4.576zm-6.22-4.411c-1.187 0-2.137.31-2.85.931-.712.603-1.15 1.38-1.315 2.33h7.974c-.073-.932-.448-1.709-1.124-2.33-.676-.62-1.571-.931-2.685-.931zM908.838 32v-1.452h-.603c-.949 1.205-2.383 1.808-4.301 1.808-1.517 0-2.722-.438-3.617-1.315s-1.343-1.936-1.343-3.178c0-1.26.439-2.338 1.315-3.234.877-.895 2.202-1.342 3.973-1.342h4.494v-.548c0-.877-.274-1.571-.822-2.083-.548-.53-1.397-.794-2.548-.794-2.01 0-3.078.667-3.206 2h-2.329c.091-1.26.63-2.247 1.617-2.96 1.004-.712 2.292-1.068 3.863-1.068 1.772 0 3.16.411 4.165 1.233 1.023.822 1.534 2 1.534 3.535V32h-2.192zm-4.329-1.671c1.151 0 2.146-.375 2.987-1.124.84-.767 1.26-1.699 1.26-2.795v-1.26h-4.137c-2.211 0-3.316.877-3.316 2.63 0 .786.274 1.407.822 1.864.566.456 1.361.685 2.384.685zm20.814-18.249h2.329V32h-2.247v-1.48h-.602c-.987 1.224-2.421 1.836-4.302 1.836-1.863 0-3.343-.685-4.439-2.055-1.078-1.37-1.617-3.105-1.617-5.206 0-2.137.539-3.881 1.617-5.233 1.096-1.352 2.576-2.028 4.439-2.028s3.269.612 4.219 1.836h.603v-7.59zm-4.302 18.249c1.443 0 2.521-.503 3.234-1.507.73-1.005 1.096-2.247 1.096-3.727s-.366-2.721-1.096-3.726c-.713-1.005-1.791-1.507-3.234-1.507-1.351 0-2.402.484-3.151 1.452-.73.95-1.096 2.21-1.096 3.781 0 1.571.366 2.84 1.096 3.809.749.95 1.8 1.425 3.151 1.425zm14.858 7.151h-2.357l2.85-6.768-5.891-12.522h2.493l4.22 9.097h.685l3.836-9.097h2.438l-8.274 19.29zM775.627 52.19h3.48v2.028h-3.48v7.59c0 .73.183 1.27.548 1.616.384.33 1.023.494 1.918.494h1.014V66h-1.069c-1.571 0-2.758-.292-3.562-.877-.785-.584-1.178-1.58-1.178-2.986v-7.919h-2.384V52.19h2.384v-4.164h2.329v4.164zm8.055 1.7c1.224-1.37 2.886-2.056 4.987-2.056s3.754.685 4.959 2.055c1.224 1.37 1.836 3.105 1.836 5.206 0 2.1-.612 3.836-1.836 5.206-1.205 1.37-2.858 2.055-4.959 2.055-2.101 0-3.763-.685-4.987-2.055-1.205-1.37-1.808-3.105-1.808-5.206 0-2.1.603-3.836 1.808-5.206zm1.672 8.932c.767 1.004 1.872 1.507 3.315 1.507 1.443 0 2.548-.503 3.315-1.507.768-1.023 1.151-2.266 1.151-3.727 0-1.461-.383-2.694-1.151-3.699-.767-1.023-1.872-1.534-3.315-1.534-1.443 0-2.548.511-3.315 1.534-.768 1.005-1.151 2.238-1.151 3.7 0 1.46.383 2.703 1.151 3.726zm28.522-10.988c1.864 0 3.334.676 4.412 2.028 1.096 1.352 1.644 3.096 1.644 5.233 0 2.1-.548 3.836-1.644 5.206-1.078 1.37-2.548 2.055-4.412 2.055-1.881 0-3.315-.612-4.301-1.836h-.603V66h-2.247V46.08h2.329v7.59h.603c.913-1.224 2.32-1.836 4.219-1.836zm-.52 12.495c1.351 0 2.393-.475 3.123-1.425.749-.968 1.124-2.238 1.124-3.809 0-1.57-.375-2.831-1.124-3.781-.73-.968-1.772-1.452-3.123-1.452-1.443 0-2.53.502-3.261 1.507-.712 1.005-1.068 2.247-1.068 3.726 0 1.48.356 2.722 1.068 3.727.731 1.004 1.818 1.507 3.261 1.507zm22.2-6.056v.795h-10.521c.036 1.662.429 2.959 1.178 3.89.749.914 1.826 1.37 3.233 1.37 1.9 0 3.069-.712 3.507-2.137h2.357c-.238 1.242-.868 2.247-1.891 3.014-1.005.768-2.329 1.151-3.973 1.151-2.101 0-3.745-.685-4.932-2.055-1.187-1.37-1.781-3.15-1.781-5.343 0-2.155.594-3.881 1.781-5.178 1.187-1.297 2.813-1.946 4.877-1.946 1.955 0 3.462.621 4.521 1.863 1.06 1.224 1.608 2.75 1.644 4.576zm-6.22-4.411c-1.187 0-2.137.31-2.849.931-.713.603-1.151 1.38-1.315 2.33h7.973c-.073-.932-.448-1.709-1.123-2.33-.676-.62-1.571-.931-2.686-.931zm21.308 3.534l1.315.22 1.562.246c2.631.457 3.946 1.845 3.946 4.165 0 1.206-.503 2.228-1.507 3.069-1.005.84-2.393 1.26-4.165 1.26-1.9 0-3.361-.383-4.384-1.15-1.005-.768-1.589-1.836-1.754-3.206h2.357c.219 1.552 1.443 2.329 3.671 2.329 1.078 0 1.918-.192 2.521-.576.621-.383.932-.94.932-1.671 0-.603-.201-1.078-.603-1.425-.402-.347-1.041-.594-1.918-.74l-3.096-.52c-2.211-.402-3.316-1.562-3.316-3.48 0-1.206.457-2.183 1.37-2.932.932-.767 2.293-1.15 4.083-1.15 1.607 0 2.877.355 3.809 1.068.949.694 1.497 1.653 1.644 2.877h-2.329c-.092-.64-.43-1.114-1.014-1.425-.585-.329-1.325-.493-2.22-.493-.913 0-1.644.164-2.192.493-.529.31-.794.758-.794 1.343 0 .511.164.895.493 1.15.329.256.858.439 1.589.548zM873.158 66h-2.329v-8.275c0-2.539-1.169-3.808-3.507-3.808-1.206 0-2.192.456-2.959 1.37-.768.895-1.151 1.972-1.151 3.233V66h-2.329V46.08h2.329v7.59h.603c.383-.548.931-.986 1.644-1.315.73-.347 1.552-.52 2.466-.52 1.662 0 2.95.483 3.863 1.451.913.95 1.37 2.265 1.37 3.946V66zm13.056 0v-1.452h-.602c-.95 1.205-2.384 1.808-4.302 1.808-1.516 0-2.722-.438-3.617-1.315s-1.343-1.936-1.343-3.178c0-1.26.439-2.338 1.316-3.234.876-.895 2.201-1.342 3.973-1.342h4.493v-.548c0-.877-.274-1.571-.822-2.083-.548-.53-1.397-.794-2.548-.794-2.009 0-3.078.666-3.206 2h-2.329c.092-1.26.63-2.247 1.617-2.96 1.005-.712 2.292-1.068 3.863-1.068 1.772 0 3.16.411 4.165 1.233 1.023.822 1.534 2 1.534 3.535V66h-2.192zm-4.329-1.671c1.151 0 2.147-.375 2.987-1.124.84-.767 1.26-1.699 1.26-2.795v-1.26h-4.137c-2.21 0-3.316.877-3.316 2.63 0 .786.274 1.407.822 1.864.567.456 1.361.685 2.384.685zm18.677-12.139v2.192h-1.151c-1.388 0-2.475.411-3.26 1.233-.767.822-1.151 1.982-1.151 3.48V66h-2.329V52.19h2.247v1.644h.603c.876-1.096 2.21-1.644 4-1.644h1.041zm15.027 6.083v.795h-10.522c.037 1.662.429 2.959 1.178 3.89.749.914 1.827 1.37 3.234 1.37 1.899 0 3.068-.712 3.507-2.137h2.356c-.237 1.242-.868 2.247-1.89 3.014-1.005.768-2.329 1.151-3.973 1.151-2.101 0-3.745-.685-4.932-2.055-1.188-1.37-1.781-3.15-1.781-5.343 0-2.155.593-3.881 1.781-5.178 1.187-1.297 2.813-1.946 4.877-1.946 1.954 0 3.461.621 4.521 1.863 1.059 1.224 1.607 2.75 1.644 4.576zm-6.22-4.411c-1.187 0-2.137.31-2.85.931-.712.603-1.15 1.38-1.315 2.33h7.974c-.074-.932-.448-1.709-1.124-2.33-.676-.62-1.571-.931-2.685-.931zm19.874-7.782h2.329V66h-2.247v-1.48h-.602c-.987 1.224-2.421 1.836-4.302 1.836-1.863 0-3.343-.685-4.439-2.055-1.078-1.37-1.617-3.105-1.617-5.206 0-2.137.539-3.881 1.617-5.233 1.096-1.352 2.576-2.028 4.439-2.028s3.269.612 4.219 1.836h.603v-7.59zm-4.302 18.249c1.443 0 2.521-.503 3.234-1.507.73-1.005 1.096-2.247 1.096-3.727s-.366-2.721-1.096-3.726c-.713-1.005-1.791-1.507-3.234-1.507-1.351 0-2.402.484-3.151 1.452-.73.95-1.096 2.21-1.096 3.781 0 1.571.366 2.84 1.096 3.809.749.95 1.8 1.425 3.151 1.425z" fill="#000"/><path d="M797 134.883a4.883 4.883 0 0 1 4.883-4.883h99.624a4.883 4.883 0 0 1 4.883 4.883V342.92a4.884 4.884 0 0 1-4.883 4.884h-99.624A4.884 4.884 0 0 1 797 342.92V134.883z" fill="#003831"/><rect opacity=".6" x="851.207" y="142.069" width="45.905" height="8.79" rx="4.395" fill="#FF7235"/><rect x="806.279" y="142.069" width="32.719" height="8.79" rx="4.395" fill="#898990"/><rect x="806.279" y="171.37" width="32.719" height="8.79" rx="4.395" fill="#898990"/><rect x="806.279" y="200.671" width="32.719" height="8.79" rx="4.395" fill="#898990"/><rect x="806.279" y="156.719" width="29.789" height="8.79" rx="4.395" fill="#898990"/><rect x="806.279" y="215.321" width="29.789" height="8.79" rx="4.395" fill="#898990"/><rect x="806.279" y="186.021" width="29.789" height="8.79" rx="4.395" fill="#898990"/><rect x="806.279" y="254.529" width="32.719" height="8.79" rx="4.395" fill="#898990"/><rect x="806.279" y="283.83" width="32.719" height="8.79" rx="4.395" fill="#898990"/><rect x="806.279" y="313.131" width="32.719" height="8.79" rx="4.395" fill="#898990"/><rect x="806.279" y="269.179" width="29.789" height="8.79" rx="4.395" fill="#898990"/><rect x="806.279" y="327.781" width="29.789" height="8.79" rx="4.395" fill="#898990"/><rect x="806.279" y="298.48" width="29.789" height="8.79" rx="4.395" fill="#898990"/><rect opacity=".6" x="851.207" y="156.719" width="45.905" height="8.79" rx="4.395" fill="#FF7235"/><rect opacity=".6" x="851.207" y="171.37" width="45.905" height="8.79" rx="4.395" fill="#FF7235"/><rect opacity=".6" x="851.207" y="186.021" width="45.905" height="8.79" rx="4.395" fill="#FF7235"/><rect opacity=".6" x="851.207" y="200.671" width="45.905" height="8.79" rx="4.395" fill="#FF7235"/><rect opacity=".6" x="851.207" y="215.321" width="45.905" height="8.79" rx="4.395" fill="#FF7235"/><rect opacity=".6" x="851.207" y="254.529" width="45.905" height="8.79" rx="4.395" fill="#00AE99"/><rect opacity=".6" x="851.207" y="269.179" width="45.905" height="8.79" rx="4.395" fill="#00AE99"/><rect opacity=".6" x="851.207" y="283.83" width="45.905" height="8.79" rx="4.395" fill="#00AE99"/><rect opacity=".6" x="851.207" y="298.48" width="45.905" height="8.79" rx="4.395" fill="#00AE99"/><rect opacity=".6" x="851.207" y="313.131" width="45.905" height="8.79" rx="4.395" fill="#00AE99"/><rect opacity=".6" x="851.207" y="327.781" width="45.905" height="8.79" rx="4.395" fill="#00AE99"/><path stroke="#898890" stroke-width="1.465" d="M797 233.727h109.39M797 245.448h109.39"/></svg>