<svg width="945" height="348" viewBox="0 0 945 348" fill="none" xmlns="http://www.w3.org/2000/svg">
<path d="M210.061 182.061C210.646 181.475 210.646 180.525 210.061 179.939L200.515 170.393C199.929 169.808 198.979 169.808 198.393 170.393C197.808 170.979 197.808 171.929 198.393 172.515L206.879 181L198.393 189.485C197.808 190.071 197.808 191.021 198.393 191.607C198.979 192.192 199.929 192.192 200.515 191.607L210.061 182.061ZM171 182.5H209V179.5H171V182.5Z" fill="#00AE99"/>
<path d="M448.061 182.061C448.646 181.475 448.646 180.525 448.061 179.939L438.515 170.393C437.929 169.808 436.979 169.808 436.393 170.393C435.808 170.979 435.808 171.929 436.393 172.515L444.879 181L436.393 189.485C435.808 190.071 435.808 191.021 436.393 191.607C436.979 192.192 437.929 192.192 438.515 191.607L448.061 182.061ZM409 182.5H447V179.5H409V182.5Z" fill="#00AE99"/>
<path d="M718.061 182.061C718.646 181.475 718.646 180.525 718.061 179.939L708.515 170.393C707.929 169.808 706.979 169.808 706.393 170.393C705.808 170.979 705.808 171.929 706.393 172.515L714.879 181L706.393 189.485C705.808 190.071 705.808 191.021 706.393 191.607C706.979 192.192 707.929 192.192 708.515 191.607L718.061 182.061ZM679 182.5H717V179.5H679V182.5Z" fill="#00AE99"/>
<path d="M37.9336 126.934H94.8184L113.988 146.104V222.324H37.9336V126.934Z" fill="#E5E5E5" stroke="#00AE99" stroke-width="3.8672"/>
<path d="M66.5969 161.099V161.551C67.061 161.76 67.4439 162.102 67.7455 162.578C68.0587 163.054 68.2154 163.587 68.2154 164.179C68.2154 165.27 67.8557 166.145 67.1364 166.807C66.4171 167.456 65.3498 167.781 63.9344 167.781H57.9479V155.356H63.7778C65.0887 155.356 66.0981 155.669 66.8058 156.296C67.5135 156.922 67.8673 157.705 67.8673 158.645C67.8673 159.202 67.7513 159.701 67.5193 160.142C67.2988 160.571 66.9914 160.89 66.5969 161.099ZM60.5409 160.281H63.4645C64.6247 160.281 65.2047 159.817 65.2047 158.889C65.2047 157.972 64.6189 157.514 63.4471 157.514H60.5409V160.281ZM60.5409 165.571H63.5515C64.8857 165.571 65.5528 165.061 65.5528 164.04C65.5528 162.984 64.8973 162.456 63.5863 162.456H60.5409V165.571ZM78.3198 155.356H80.9127V163.204C80.9127 164.747 80.4603 165.937 79.5553 166.772C78.662 167.596 77.3742 168.007 75.692 168.007C74.033 168.007 72.751 167.596 71.8461 166.772C70.9527 165.937 70.5061 164.747 70.5061 163.204V155.356H73.099V163.152C73.099 163.93 73.3253 164.55 73.7777 165.014C74.2418 165.467 74.8857 165.693 75.7094 165.693C76.5447 165.693 77.1886 165.467 77.6411 165.014C78.0935 164.55 78.3198 163.93 78.3198 163.152V155.356ZM87.974 160.316H88.4613L91.1238 155.356H93.8734L89.5228 163.361V167.781H86.9125V163.361L82.5793 155.356H85.3114L87.974 160.316Z" fill="#00AE99"/>
<line x1="50.8242" y1="179.463" x2="101.098" y2="179.463" stroke="#00AE99" stroke-width="3.22266"/>
<line x1="50.8242" y1="196.865" x2="101.098" y2="196.865" stroke="#00AE99" stroke-width="3.22266"/>
<line x1="50.8242" y1="188.486" x2="90.1407" y2="188.486" stroke="#00AE99" stroke-width="3.22266"/>
<line x1="50.8242" y1="205.889" x2="90.1407" y2="205.889" stroke="#00AE99" stroke-width="3.22266"/>
<rect x="266.482" y="132.482" width="87.6978" height="87.6978" stroke="#00AE99" stroke-width="4.96403"/>
<rect x="264" y="130" width="30.6115" height="30.6115" fill="#00AE99"/>
<rect x="294.611" y="160.611" width="14.8921" height="14.8921" fill="#00AE99"/>
<rect x="309.503" y="144.892" width="14.8921" height="15.7194" fill="#00AE99"/>
<rect x="324.396" y="160.611" width="15.7194" height="14.8921" fill="#00AE99"/>
<rect x="309.503" y="175.503" width="14.8921" height="14.8921" fill="#00AE99"/>
<rect x="324.396" y="190.396" width="15.7194" height="15.7194" fill="#00AE99"/>
<rect x="340.115" y="175.503" width="14.8921" height="14.8921" fill="#00AE99"/>
<rect x="294.611" y="175.503" width="14.8921" height="14.8921" fill="#00AE99"/>
<rect x="324.396" y="130" width="15.7194" height="14.8921" fill="#00AE99"/>
<rect x="278.892" y="190.396" width="15.7194" height="15.7194" fill="#00AE99"/>
<rect x="264" y="206.115" width="14.8921" height="14.8921" fill="#00AE99"/>
<rect x="294.611" y="205.288" width="14.8921" height="14.8921" fill="#00AE99"/>
<rect x="309.503" y="205.288" width="14.8921" height="14.8921" fill="#00AE99"/>
<rect x="264" y="175.503" width="14.8921" height="14.8921" fill="#00AE99"/>
<rect x="517.482" y="132.482" width="87.6978" height="87.6978" stroke="#00AE99" stroke-width="4.96403"/>
<rect x="515" y="130" width="30.6115" height="30.6115" fill="#00AE99"/>
<rect x="545.611" y="160.611" width="14.8921" height="14.8921" fill="#00AE99"/>
<rect x="560.503" y="144.892" width="14.8921" height="15.7194" fill="#00AE99"/>
<rect x="575.396" y="160.611" width="15.7194" height="14.8921" fill="#00AE99"/>
<rect x="560.503" y="175.503" width="14.8921" height="14.8921" fill="#00AE99"/>
<rect x="575.396" y="190.396" width="15.7194" height="15.7194" fill="#00AE99"/>
<rect x="591.115" y="175.503" width="14.8921" height="14.8921" fill="#00AE99"/>
<rect x="545.611" y="175.503" width="14.8921" height="14.8921" fill="#00AE99"/>
<rect x="575.396" y="130" width="15.7194" height="14.8921" fill="#00AE99"/>
<rect x="529.892" y="190.396" width="15.7194" height="15.7194" fill="#00AE99"/>
<rect x="515" y="206.115" width="14.8921" height="14.8921" fill="#00AE99"/>
<rect x="545.611" y="205.288" width="14.8921" height="14.8921" fill="#00AE99"/>
<rect x="560.503" y="205.288" width="14.8921" height="14.8921" fill="#00AE99"/>
<rect x="515" y="175.503" width="14.8921" height="14.8921" fill="#00AE99"/>
<path d="M560.493 292.685C566.929 292.685 572.164 287.373 572.164 280.843C572.165 274.313 566.929 269 560.493 269C554.058 269 548.822 274.313 548.822 280.842C548.822 287.373 554.058 292.685 560.493 292.685Z" fill="#003831"/>
<path d="M581.986 317.181C581.913 305.219 572.3 295.51 560.493 295.51C548.642 295.51 539 305.294 539 317.319C539 317.695 539.3 318 539.671 318H581.316C581.321 318 581.327 318 581.329 318C581.7 318 582 317.695 582 317.319C582 317.272 581.995 317.225 581.986 317.181Z" fill="#003831"/>
<path d="M76.4933 292.685C82.9287 292.685 88.1642 287.373 88.1642 280.843C88.1648 274.313 82.9287 269 76.4933 269C70.0579 269 64.8217 274.313 64.8217 280.842C64.8217 287.373 70.0579 292.685 76.4933 292.685Z" fill="#003831"/>
<path d="M97.9859 317.181C97.9128 305.219 88.2996 295.51 76.4933 295.51C64.642 295.51 55 305.294 55 317.319C55 317.695 55.3005 318 55.6707 318H97.3159C97.3213 318 97.3266 318 97.3293 318C97.7002 318 98 317.695 98 317.319C98 317.272 97.9953 317.225 97.9859 317.181Z" fill="#003831"/>
<path d="M630.5 217.248C630.5 234.595 617.415 248.358 601.631 248.358C585.847 248.358 572.762 234.595 572.762 217.248C572.762 199.902 585.847 186.139 601.631 186.139C617.415 186.139 630.5 199.902 630.5 217.248Z" fill="#E5E5E5" stroke="#00AE99" stroke-width="5"/>
<path d="M604.711 194.255C603.579 194.128 602.444 194.078 601.297 194.101C598.158 194.155 595.145 194.759 592.333 195.852C591.382 196.222 590.503 196.63 589.714 197.061C589.309 197.283 588.978 197.483 588.779 197.619C588.067 198.071 587.875 199.11 588.372 199.835C588.868 200.595 589.864 200.76 590.645 200.22C590.803 200.104 591.068 199.936 591.395 199.747C592.042 199.375 592.769 199.023 593.561 198.703C599.696 196.228 606.533 196.644 613.666 200.323C614.407 200.752 615.401 200.485 615.837 199.725C616.316 198.978 616.002 198 615.132 197.52C611.693 195.729 608.202 194.644 604.711 194.255ZM587.249 205.009C585.904 206.102 584.701 207.309 583.666 208.584C583.136 209.237 582.714 209.824 582.474 210.223C581.995 210.945 582.194 211.917 582.918 212.402C583.658 212.882 584.648 212.647 585.247 211.86C585.462 211.497 585.807 211.008 586.247 210.456C587.114 209.371 588.127 208.344 589.266 207.413C592.904 204.442 597.214 202.909 602.116 202.991C606.964 203.054 611.196 204.571 614.741 207.383C615.906 208.306 616.936 209.326 617.811 210.402C618.254 210.948 618.604 211.439 618.793 211.76C619.261 212.505 620.232 212.753 620.996 212.325C621.782 211.888 622.023 210.936 621.57 210.12C621.327 209.72 620.905 209.139 620.368 208.49C619.326 207.228 618.11 206.034 616.744 204.953C612.586 201.661 607.696 199.883 602.167 199.81C596.531 199.735 591.523 201.538 587.249 205.009ZM590.47 209.091C584.14 214.269 582.183 222.732 585.467 232.175C585.746 233.005 586.663 233.446 587.513 233.166C588.351 232.882 588.802 231.957 588.493 231.142C585.583 222.797 587.084 216.015 592.523 211.492C597.098 207.796 604.729 207.381 610.063 210.637C612.661 212.255 614.908 215.123 616.077 218.266C617.117 221.005 617.18 223.901 616.257 225.28C615.423 226.556 613.685 227.137 612.022 226.721C610.175 226.258 609.17 224.953 609.114 222.841C609.051 219.341 606.397 216.624 602.808 216.216C599.331 215.806 596.115 217.837 595.287 221.109C593.332 228.532 598.863 237.113 607.765 239.86C608.612 240.114 609.506 239.656 609.787 238.824C610.056 237.949 609.579 237.052 608.706 236.805C601.556 234.61 596.913 227.552 598.394 221.855C598.843 220.079 600.372 219.183 602.501 219.374C604.622 219.615 605.882 220.887 605.882 222.888C605.987 226.294 608.144 229.027 611.229 229.802C614.228 230.554 617.339 229.456 618.948 227.017C620.563 224.623 620.595 221.142 619.103 217.169C617.628 213.282 615.008 209.965 611.753 207.936C608.443 205.897 604.515 204.957 600.555 205.235C596.75 205.503 593.156 206.876 590.47 209.091ZM601.34 210.572C596.951 210.726 593.159 213.085 591.035 217.077C588.562 221.688 588.759 226.887 591.386 232.286C591.774 233.08 592.212 233.866 592.695 234.642C593.405 235.781 594.188 236.861 595.016 237.854C595.44 238.362 595.821 238.785 596.078 239.041C596.686 239.667 597.687 239.678 598.332 239.066C598.969 238.461 598.983 237.513 598.369 236.831C598.14 236.597 597.811 236.227 597.443 235.779C596.719 234.9 596.035 233.947 595.414 232.945C594.997 232.272 594.62 231.592 594.284 230.907C592.068 226.388 591.871 222.291 593.86 218.579C596.051 214.519 600.088 212.858 604.406 214.095C608.708 215.337 611.475 218.94 611.415 223.423C611.313 224.29 611.969 225.054 612.868 225.105C613.759 225.183 614.506 224.491 614.58 223.504C614.705 217.633 610.93 212.664 605.302 211.04C603.957 210.667 602.634 210.508 601.34 210.572ZM600.283 223.118C600.292 223.582 600.373 224.275 600.521 225.046C600.812 226.554 601.303 227.981 601.998 229.275C602.055 229.38 602.113 229.484 602.171 229.586C604.59 233.656 609.131 235.713 615.047 235.166C615.932 235.115 616.6 234.377 616.55 233.487C616.497 232.58 615.71 231.934 614.743 232.008C609.809 232.456 606.832 231.169 604.944 227.983C604.847 227.82 604.754 227.654 604.667 227.484C604.189 226.559 603.851 225.535 603.653 224.453C603.552 223.904 603.497 223.41 603.492 223.082C603.492 222.192 602.766 221.487 601.846 221.486C600.958 221.512 600.257 222.242 600.283 223.118Z" fill="#00AE99"/>
<path d="M27.4936 7.0802C30.3615 7.0802 32.5991 8.0392 34.2066 9.9572C35.8141 11.8752 36.6178 14.2955 36.6178 17.2182C36.6178 20.1409 35.8141 22.5612 34.2066 24.4792C32.5991 26.3972 30.3615 27.3562 27.4936 27.3562C24.6075 27.3562 22.3607 26.4063 20.7532 24.5066C19.164 22.5886 18.3694 20.1591 18.3694 17.2182C18.3694 14.2773 19.164 11.8569 20.7532 9.9572C22.3607 8.0392 24.6075 7.0802 27.4936 7.0802ZM22.5342 22.8352C23.6485 24.3513 25.3016 25.1094 27.4936 25.1094C29.6856 25.1094 31.3387 24.3513 32.453 22.8352C33.5673 21.3191 34.1244 19.4467 34.1244 17.2182C34.1244 14.9897 33.5673 13.1173 32.453 11.6012C31.3387 10.0851 29.6856 9.327 27.4936 9.327C25.3016 9.327 23.6485 10.0851 22.5342 11.6012C21.4199 13.1173 20.8628 14.9897 20.8628 17.2182C20.8628 19.4467 21.4199 21.3191 22.5342 22.8352ZM48.2729 13.1904V15.3824H47.1221C45.7338 15.3824 44.6469 15.7934 43.8615 16.6154C43.0943 17.4374 42.7107 18.5973 42.7107 20.0952V27H40.3817V13.1904H42.6285V14.8344H43.2313C44.1081 13.7384 45.4415 13.1904 47.2317 13.1904H48.2729ZM61.354 7.0802H63.683V27H61.4362V25.5204H60.8334C59.847 26.7443 58.4131 27.3562 56.5316 27.3562C54.6684 27.3562 53.1888 26.6712 52.0928 25.3012C51.0151 23.9312 50.4762 22.1959 50.4762 20.0952C50.4762 17.958 51.0151 16.2135 52.0928 14.8618C53.1888 13.5101 54.6684 12.8342 56.5316 12.8342C58.3948 12.8342 59.8013 13.4461 60.7512 14.67H61.354V7.0802ZM57.0522 25.3286C58.4953 25.3286 59.573 24.8263 60.2854 23.8216C61.0161 22.8169 61.3814 21.5748 61.3814 20.0952C61.3814 18.6156 61.0161 17.3735 60.2854 16.3688C59.573 15.3641 58.4953 14.8618 57.0522 14.8618C55.7005 14.8618 54.6501 15.3459 53.9012 16.314C53.1705 17.2639 52.8052 18.5243 52.8052 20.0952C52.8052 21.6661 53.1705 22.9357 53.9012 23.9038C54.6501 24.8537 55.7005 25.3286 57.0522 25.3286ZM80.1568 19.2732V20.0678H69.6352C69.6718 21.7301 70.0645 23.027 70.8134 23.9586C71.5624 24.8719 72.6401 25.3286 74.0466 25.3286C75.9464 25.3286 77.1154 24.6162 77.5538 23.1914H79.9102C79.6728 24.4335 79.0426 25.4382 78.0196 26.2054C77.015 26.9726 75.6906 27.3562 74.0466 27.3562C71.946 27.3562 70.302 26.6712 69.1146 25.3012C67.9273 23.9312 67.3336 22.1502 67.3336 19.9582C67.3336 17.8027 67.9273 16.0765 69.1146 14.7796C70.302 13.4827 71.9277 12.8342 73.9918 12.8342C75.9464 12.8342 77.4534 13.4553 78.5128 14.6974C79.5723 15.9213 80.1203 17.4465 80.1568 19.2732ZM73.937 14.8618C72.7497 14.8618 71.7998 15.1723 71.0874 15.7934C70.375 16.3962 69.9366 17.1725 69.7722 18.1224H77.7456C77.6726 17.1908 77.2981 16.4145 76.6222 15.7934C75.9464 15.1723 75.0513 14.8618 73.937 14.8618ZM91.674 13.1904V15.3824H90.5232C89.135 15.3824 88.0481 15.7934 87.2626 16.6154C86.4954 17.4374 86.1118 18.5973 86.1118 20.0952V27H83.7828V13.1904H86.0296V14.8344H86.6324C87.5092 13.7384 88.8427 13.1904 90.6328 13.1904H91.674ZM104.819 9.601H102.353V7.0802H104.819V9.601ZM104.737 13.1904V27H102.408V13.1904H104.737ZM113.146 18.3964L114.461 18.6156L116.023 18.8622C118.653 19.3189 119.968 20.7071 119.968 23.027C119.968 24.2326 119.466 25.2555 118.461 26.0958C117.457 26.9361 116.068 27.3562 114.297 27.3562C112.397 27.3562 110.936 26.9726 109.913 26.2054C108.908 25.4382 108.323 24.3696 108.159 22.9996H110.515C110.735 24.5523 111.958 25.3286 114.187 25.3286C115.265 25.3286 116.105 25.1368 116.708 24.7532C117.329 24.3696 117.639 23.8125 117.639 23.0818C117.639 22.479 117.438 22.0041 117.037 21.657C116.635 21.3099 115.995 21.0633 115.119 20.9172L112.022 20.3966C109.812 19.9947 108.707 18.8348 108.707 16.9168C108.707 15.7112 109.164 14.7339 110.077 13.985C111.009 13.2178 112.369 12.8342 114.16 12.8342C115.767 12.8342 117.037 13.1904 117.968 13.9028C118.918 14.5969 119.466 15.5559 119.612 16.7798H117.283C117.192 16.1405 116.854 15.6655 116.269 15.355C115.685 15.0262 114.945 14.8618 114.05 14.8618C113.137 14.8618 112.406 15.0262 111.858 15.355C111.328 15.6655 111.063 16.1131 111.063 16.6976C111.063 17.2091 111.228 17.5927 111.557 17.8484C111.885 18.1041 112.415 18.2868 113.146 18.3964ZM30.7404 56.8352H33.0694C32.7954 58.2235 32.1469 59.3286 31.124 60.1506C30.1193 60.9543 28.8315 61.3562 27.2606 61.3562C25.1782 61.3562 23.5342 60.6803 22.3286 59.3286C21.1413 57.9586 20.5476 56.2141 20.5476 54.0952C20.5476 51.958 21.1413 50.2135 22.3286 48.8618C23.5159 47.5101 25.1599 46.8342 27.2606 46.8342C28.8498 46.8342 30.1376 47.2361 31.124 48.0398C32.1287 48.8253 32.7497 49.8756 32.9872 51.1908H30.6582C30.165 49.6381 29.0325 48.8618 27.2606 48.8618C25.781 48.8618 24.6759 49.355 23.9452 50.3414C23.2328 51.3095 22.8766 52.5425 22.8766 54.0404C22.8766 55.5565 23.2419 56.8169 23.9726 57.8216C24.7033 58.8263 25.7993 59.3286 27.2606 59.3286C29.1969 59.3286 30.3568 58.4975 30.7404 56.8352ZM44.4331 47.1904V49.3824H43.2823C41.894 49.3824 40.8072 49.7934 40.0217 50.6154C39.2545 51.4374 38.8709 52.5973 38.8709 54.0952V61H36.5419V47.1904H38.7887V48.8344H39.3915C40.2683 47.7384 41.6018 47.1904 43.3919 47.1904H44.4331ZM59.4597 53.2732V54.0678H48.9381C48.9746 55.7301 49.3673 57.027 50.1163 57.9586C50.8652 58.8719 51.9429 59.3286 53.3495 59.3286C55.2492 59.3286 56.4183 58.6162 56.8567 57.1914H59.2131C58.9756 58.4335 58.3454 59.4382 57.3225 60.2054C56.3178 60.9726 54.9935 61.3562 53.3495 61.3562C51.2488 61.3562 49.6048 60.6712 48.4175 59.3012C47.2301 57.9312 46.6365 56.1502 46.6365 53.9582C46.6365 51.8027 47.2301 50.0765 48.4175 48.7796C49.6048 47.4827 51.2305 46.8342 53.2947 46.8342C55.2492 46.8342 56.7562 47.4553 57.8157 48.6974C58.8751 49.9213 59.4231 51.4465 59.4597 53.2732ZM53.2399 48.8618C52.0525 48.8618 51.1027 49.1723 50.3903 49.7934C49.6779 50.3962 49.2395 51.1725 49.0751 52.1224H57.0485C56.9754 51.1908 56.6009 50.4145 55.9251 49.7934C55.2492 49.1723 54.3541 48.8618 53.2399 48.8618ZM71.8811 61V59.5478H71.2783C70.3284 60.7534 68.8945 61.3562 66.9765 61.3562C65.4603 61.3562 64.2547 60.9178 63.3597 60.041C62.4646 59.1642 62.0171 58.1047 62.0171 56.8626C62.0171 55.6022 62.4555 54.5245 63.3323 53.6294C64.2091 52.7343 65.5334 52.2868 67.3053 52.2868H71.7989V51.7388C71.7989 50.862 71.5249 50.1679 70.9769 49.6564C70.4289 49.1267 69.5795 48.8618 68.4287 48.8618C66.4193 48.8618 65.3507 49.5285 65.2229 50.862H62.8939C62.9852 49.6016 63.5241 48.6152 64.5105 47.9028C65.5151 47.1904 66.8029 46.8342 68.3739 46.8342C70.1457 46.8342 71.534 47.2452 72.5387 48.0672C73.5616 48.8892 74.0731 50.0674 74.0731 51.6018V61H71.8811ZM67.5519 59.3286C68.7027 59.3286 69.6982 58.9541 70.5385 58.2052C71.3787 57.438 71.7989 56.5064 71.7989 55.4104V54.15H67.6615C65.4512 54.15 64.3461 55.0268 64.3461 56.7804C64.3461 57.5659 64.6201 58.1869 65.1681 58.6436C65.7343 59.1003 66.5289 59.3286 67.5519 59.3286ZM81.5434 47.1904H85.0232V49.218H81.5434V56.8078C81.5434 57.5385 81.7261 58.0773 82.0914 58.4244C82.475 58.7532 83.1144 58.9176 84.0094 58.9176H85.0232V61H83.9546C82.3837 61 81.1964 60.7077 80.3926 60.1232C79.6072 59.5387 79.2144 58.5431 79.2144 57.1366V49.218H76.8306V47.1904H79.2144V43.0256H81.5434V47.1904ZM100.613 53.2732V54.0678H90.0916C90.1281 55.7301 90.5208 57.027 91.2698 57.9586C92.0187 58.8719 93.0964 59.3286 94.503 59.3286C96.4027 59.3286 97.5718 58.6162 98.0102 57.1914H100.367C100.129 58.4335 99.4989 59.4382 98.476 60.2054C97.4713 60.9726 96.147 61.3562 94.503 61.3562C92.4023 61.3562 90.7583 60.6712 89.571 59.3012C88.3836 57.9312 87.79 56.1502 87.79 53.9582C87.79 51.8027 88.3836 50.0765 89.571 48.7796C90.7583 47.4827 92.384 46.8342 94.4482 46.8342C96.4027 46.8342 97.9097 47.4553 98.9692 48.6974C100.029 49.9213 100.577 51.4465 100.613 53.2732ZM94.3934 48.8618C93.206 48.8618 92.2562 49.1723 91.5438 49.7934C90.8314 50.3962 90.393 51.1725 90.2286 52.1224H98.202C98.1289 51.1908 97.7544 50.4145 97.0786 49.7934C96.4027 49.1723 95.5076 48.8618 94.3934 48.8618ZM114.268 41.0802H116.597V61H114.35V59.5204H113.747C112.761 60.7443 111.327 61.3562 109.445 61.3562C107.582 61.3562 106.102 60.6712 105.006 59.3012C103.929 57.9312 103.39 56.1959 103.39 54.0952C103.39 51.958 103.929 50.2135 105.006 48.8618C106.102 47.5101 107.582 46.8342 109.445 46.8342C111.308 46.8342 112.715 47.4461 113.665 48.67H114.268V41.0802ZM109.966 59.3286C111.409 59.3286 112.487 58.8263 113.199 57.8216C113.93 56.8169 114.295 55.5748 114.295 54.0952C114.295 52.6156 113.93 51.3735 113.199 50.3688C112.487 49.3641 111.409 48.8618 109.966 48.8618C108.614 48.8618 107.564 49.3459 106.815 50.314C106.084 51.2639 105.719 52.5243 105.719 54.0952C105.719 55.6661 106.084 56.9357 106.815 57.9038C107.564 58.8537 108.614 59.3286 109.966 59.3286Z" fill="black"/>
<path d="M268.494 12.0802C271.361 12.0802 273.599 13.0392 275.207 14.9572C276.814 16.8752 277.618 19.2955 277.618 22.2182C277.618 25.1409 276.814 27.5612 275.207 29.4792C273.599 31.3972 271.361 32.3562 268.494 32.3562C265.607 32.3562 263.361 31.4063 261.753 29.5066C260.164 27.5886 259.369 25.1591 259.369 22.2182C259.369 19.2773 260.164 16.8569 261.753 14.9572C263.361 13.0392 265.607 12.0802 268.494 12.0802ZM263.534 27.8352C264.648 29.3513 266.302 30.1094 268.494 30.1094C270.686 30.1094 272.339 29.3513 273.453 27.8352C274.567 26.3191 275.124 24.4467 275.124 22.2182C275.124 19.9897 274.567 18.1173 273.453 16.6012C272.339 15.0851 270.686 14.327 268.494 14.327C266.302 14.327 264.648 15.0851 263.534 16.6012C262.42 18.1173 261.863 19.9897 261.863 22.2182C261.863 24.4467 262.42 26.3191 263.534 27.8352ZM289.273 18.1904V20.3824H288.122C286.734 20.3824 285.647 20.7934 284.861 21.6154C284.094 22.4374 283.711 23.5973 283.711 25.0952V32H281.382V18.1904H283.628V19.8344H284.231C285.108 18.7384 286.442 18.1904 288.232 18.1904H289.273ZM302.354 12.0802H304.683V32H302.436V30.5204H301.833C300.847 31.7443 299.413 32.3562 297.532 32.3562C295.668 32.3562 294.189 31.6712 293.093 30.3012C292.015 28.9312 291.476 27.1959 291.476 25.0952C291.476 22.958 292.015 21.2135 293.093 19.8618C294.189 18.5101 295.668 17.8342 297.532 17.8342C299.395 17.8342 300.801 18.4461 301.751 19.67H302.354V12.0802ZM298.052 30.3286C299.495 30.3286 300.573 29.8263 301.285 28.8216C302.016 27.8169 302.381 26.5748 302.381 25.0952C302.381 23.6156 302.016 22.3735 301.285 21.3688C300.573 20.3641 299.495 19.8618 298.052 19.8618C296.7 19.8618 295.65 20.3459 294.901 21.314C294.171 22.2639 293.805 23.5243 293.805 25.0952C293.805 26.6661 294.171 27.9357 294.901 28.9038C295.65 29.8537 296.7 30.3286 298.052 30.3286ZM321.157 24.2732V25.0678H310.635C310.672 26.7301 311.065 28.027 311.813 28.9586C312.562 29.8719 313.64 30.3286 315.047 30.3286C316.946 30.3286 318.115 29.6162 318.554 28.1914H320.91C320.673 29.4335 320.043 30.4382 319.02 31.2054C318.015 31.9726 316.691 32.3562 315.047 32.3562C312.946 32.3562 311.302 31.6712 310.115 30.3012C308.927 28.9312 308.334 27.1502 308.334 24.9582C308.334 22.8027 308.927 21.0765 310.115 19.7796C311.302 18.4827 312.928 17.8342 314.992 17.8342C316.946 17.8342 318.453 18.4553 319.513 19.6974C320.572 20.9213 321.12 22.4465 321.157 24.2732ZM314.937 19.8618C313.75 19.8618 312.8 20.1723 312.087 20.7934C311.375 21.3962 310.937 22.1725 310.772 23.1224H318.746C318.673 22.1908 318.298 21.4145 317.622 20.7934C316.946 20.1723 316.051 19.8618 314.937 19.8618ZM332.674 18.1904V20.3824H331.523C330.135 20.3824 329.048 20.7934 328.263 21.6154C327.495 22.4374 327.112 23.5973 327.112 25.0952V32H324.783V18.1904H327.03V19.8344H327.632C328.509 18.7384 329.843 18.1904 331.633 18.1904H332.674ZM345.819 14.601H343.353V12.0802H345.819V14.601ZM345.737 18.1904V32H343.408V18.1904H345.737ZM354.146 23.3964L355.461 23.6156L357.023 23.8622C359.653 24.3189 360.968 25.7071 360.968 28.027C360.968 29.2326 360.466 30.2555 359.461 31.0958C358.457 31.9361 357.068 32.3562 355.297 32.3562C353.397 32.3562 351.936 31.9726 350.913 31.2054C349.908 30.4382 349.323 29.3696 349.159 27.9996H351.515C351.735 29.5523 352.958 30.3286 355.187 30.3286C356.265 30.3286 357.105 30.1368 357.708 29.7532C358.329 29.3696 358.639 28.8125 358.639 28.0818C358.639 27.479 358.438 27.0041 358.037 26.657C357.635 26.3099 356.995 26.0633 356.119 25.9172L353.022 25.3966C350.812 24.9947 349.707 23.8348 349.707 21.9168C349.707 20.7112 350.164 19.7339 351.077 18.985C352.009 18.2178 353.369 17.8342 355.16 17.8342C356.767 17.8342 358.037 18.1904 358.968 18.9028C359.918 19.5969 360.466 20.5559 360.612 21.7798H358.283C358.192 21.1405 357.854 20.6655 357.269 20.355C356.685 20.0262 355.945 19.8618 355.05 19.8618C354.137 19.8618 353.406 20.0262 352.858 20.355C352.328 20.6655 352.063 21.1131 352.063 21.6976C352.063 22.2091 352.228 22.5927 352.557 22.8484C352.885 23.1041 353.415 23.2868 354.146 23.3964ZM276.31 46.4364H278.776V66H276.31V57.0676H265.377V66H262.911V46.4364H265.377V54.766H276.31V46.4364ZM292.304 66V64.5478H291.702C290.752 65.7534 289.318 66.3562 287.4 66.3562C285.884 66.3562 284.678 65.9178 283.783 65.041C282.888 64.1642 282.44 63.1047 282.44 61.8626C282.44 60.6022 282.879 59.5245 283.756 58.6294C284.632 57.7343 285.957 57.2868 287.729 57.2868H292.222V56.7388C292.222 55.862 291.948 55.1679 291.4 54.6564C290.852 54.1267 290.003 53.8618 288.852 53.8618C286.843 53.8618 285.774 54.5285 285.646 55.862H283.317C283.408 54.6016 283.947 53.6152 284.934 52.9028C285.938 52.1904 287.226 51.8342 288.797 51.8342C290.569 51.8342 291.957 52.2452 292.962 53.0672C293.985 53.8892 294.496 55.0674 294.496 56.6018V66H292.304ZM287.975 64.3286C289.126 64.3286 290.121 63.9541 290.962 63.2052C291.802 62.438 292.222 61.5064 292.222 60.4104V59.15H288.085C285.874 59.15 284.769 60.0268 284.769 61.7804C284.769 62.5659 285.043 63.1869 285.591 63.6436C286.158 64.1003 286.952 64.3286 287.975 64.3286ZM302.597 57.3964L303.912 57.6156L305.474 57.8622C308.104 58.3189 309.419 59.7071 309.419 62.027C309.419 63.2326 308.917 64.2555 307.912 65.0958C306.908 65.9361 305.52 66.3562 303.748 66.3562C301.848 66.3562 300.387 65.9726 299.364 65.2054C298.359 64.4382 297.774 63.3696 297.61 61.9996H299.966C300.186 63.5523 301.41 64.3286 303.638 64.3286C304.716 64.3286 305.556 64.1368 306.159 63.7532C306.78 63.3696 307.09 62.8125 307.09 62.0818C307.09 61.479 306.89 61.0041 306.488 60.657C306.086 60.3099 305.446 60.0633 304.57 59.9172L301.473 59.3966C299.263 58.9947 298.158 57.8348 298.158 55.9168C298.158 54.7112 298.615 53.7339 299.528 52.985C300.46 52.2178 301.821 51.8342 303.611 51.8342C305.218 51.8342 306.488 52.1904 307.419 52.9028C308.369 53.5969 308.917 54.5559 309.063 55.7798H306.734C306.643 55.1405 306.305 54.6655 305.72 54.355C305.136 54.0262 304.396 53.8618 303.501 53.8618C302.588 53.8618 301.857 54.0262 301.309 54.355C300.779 54.6655 300.514 55.1131 300.514 55.6976C300.514 56.2091 300.679 56.5927 301.008 56.8484C301.336 57.1041 301.866 57.2868 302.597 57.3964ZM325.111 66H322.782V57.7252C322.782 55.1861 321.613 53.9166 319.274 53.9166C318.069 53.9166 317.082 54.3733 316.315 55.2866C315.548 56.1817 315.164 57.2594 315.164 58.5198V66H312.835V46.0802H315.164V53.67H315.767C316.151 53.122 316.699 52.6836 317.411 52.3548C318.142 52.0077 318.964 51.8342 319.877 51.8342C321.54 51.8342 322.827 52.3183 323.741 53.2864C324.654 54.2363 325.111 55.5515 325.111 57.232V66ZM341.346 58.2732V59.0678H330.824C330.861 60.7301 331.253 62.027 332.002 62.9586C332.751 63.8719 333.829 64.3286 335.235 64.3286C337.135 64.3286 338.304 63.6162 338.743 62.1914H341.099C340.862 63.4335 340.231 64.4382 339.208 65.2054C338.204 65.9726 336.879 66.3562 335.235 66.3562C333.135 66.3562 331.491 65.6712 330.303 64.3012C329.116 62.9312 328.522 61.1502 328.522 58.9582C328.522 56.8027 329.116 55.0765 330.303 53.7796C331.491 52.4827 333.116 51.8342 335.181 51.8342C337.135 51.8342 338.642 52.4553 339.702 53.6974C340.761 54.9213 341.309 56.4465 341.346 58.2732ZM335.126 53.8618C333.938 53.8618 332.989 54.1723 332.276 54.7934C331.564 55.3962 331.125 56.1725 330.961 57.1224H338.934C338.861 56.1908 338.487 55.4145 337.811 54.7934C337.135 54.1723 336.24 53.8618 335.126 53.8618ZM355 46.0802H357.329V66H355.082V64.5204H354.479C353.493 65.7443 352.059 66.3562 350.178 66.3562C348.314 66.3562 346.835 65.6712 345.739 64.3012C344.661 62.9312 344.122 61.1959 344.122 59.0952C344.122 56.958 344.661 55.2135 345.739 53.8618C346.835 52.5101 348.314 51.8342 350.178 51.8342C352.041 51.8342 353.447 52.4461 354.397 53.67H355V46.0802ZM350.698 64.3286C352.141 64.3286 353.219 63.8263 353.931 62.8216C354.662 61.8169 355.027 60.5748 355.027 59.0952C355.027 57.6156 354.662 56.3735 353.931 55.3688C353.219 54.3641 352.141 53.8618 350.698 53.8618C349.346 53.8618 348.296 54.3459 347.547 55.314C346.817 56.2639 346.451 57.5243 346.451 59.0952C346.451 60.6661 346.817 61.9357 347.547 62.9038C348.296 63.8537 349.346 64.3286 350.698 64.3286Z" fill="black"/>
<path d="M522.21 33V13.4364H526.32L531.252 22.6154H531.854L536.704 13.4364H540.842V33H538.43V16.2312H537.828L532.813 25.5198H530.238L525.224 16.2312H524.621V33H522.21ZM554.385 33V31.5478H553.783C552.833 32.7534 551.399 33.3562 549.481 33.3562C547.965 33.3562 546.759 32.9178 545.864 32.041C544.969 31.1642 544.521 30.1047 544.521 28.8626C544.521 27.6022 544.96 26.5245 545.837 25.6294C546.713 24.7343 548.038 24.2868 549.81 24.2868H554.303V23.7388C554.303 22.862 554.029 22.1679 553.481 21.6564C552.933 21.1267 552.084 20.8618 550.933 20.8618C548.924 20.8618 547.855 21.5285 547.727 22.862H545.398C545.49 21.6016 546.028 20.6152 547.015 19.9028C548.02 19.1904 549.307 18.8342 550.878 18.8342C552.65 18.8342 554.038 19.2452 555.043 20.0672C556.066 20.8892 556.577 22.0674 556.577 23.6018V33H554.385ZM550.056 31.3286C551.207 31.3286 552.203 30.9541 553.043 30.2052C553.883 29.438 554.303 28.5064 554.303 27.4104V26.15H550.166C547.956 26.15 546.85 27.0268 546.85 28.7804C546.85 29.5659 547.124 30.1869 547.672 30.6436C548.239 31.1003 549.033 31.3286 550.056 31.3286ZM573.391 33H570.898L566.952 25.4924H566.349L563.171 28.9996V33H560.842V13.0802H563.171V26.1226L569.692 19.1904H572.46L568.487 23.4374L573.391 33ZM587.961 25.2732V26.0678H577.439C577.476 27.7301 577.868 29.027 578.617 29.9586C579.366 30.8719 580.444 31.3286 581.851 31.3286C583.75 31.3286 584.919 30.6162 585.358 29.1914H587.714C587.477 30.4335 586.846 31.4382 585.824 32.2054C584.819 32.9726 583.495 33.3562 581.851 33.3562C579.75 33.3562 578.106 32.6712 576.919 31.3012C575.731 29.9312 575.138 28.1502 575.138 25.9582C575.138 23.8027 575.731 22.0765 576.919 20.7796C578.106 19.4827 579.732 18.8342 581.796 18.8342C583.75 18.8342 585.257 19.4553 586.317 20.6974C587.376 21.9213 587.924 23.4465 587.961 25.2732ZM581.741 20.8618C580.554 20.8618 579.604 21.1723 578.891 21.7934C578.179 22.3962 577.741 23.1725 577.576 24.1224H585.55C585.476 23.1908 585.102 22.4145 584.426 21.7934C583.75 21.1723 582.855 20.8618 581.741 20.8618ZM599.478 19.1904V21.3824H598.327C596.939 21.3824 595.852 21.7934 595.067 22.6154C594.299 23.4374 593.916 24.5973 593.916 26.0952V33H591.587V19.1904H593.834V20.8344H594.436C595.313 19.7384 596.647 19.1904 598.437 19.1904H599.478ZM492.659 58.3964L493.975 58.6156L495.536 58.8622C498.167 59.3189 499.482 60.7071 499.482 63.027C499.482 64.2326 498.98 65.2555 497.975 66.0958C496.97 66.9361 495.582 67.3562 493.81 67.3562C491.91 67.3562 490.449 66.9726 489.426 66.2054C488.421 65.4382 487.837 64.3696 487.673 62.9996H490.029C490.248 64.5523 491.472 65.3286 493.701 65.3286C494.778 65.3286 495.619 65.1368 496.221 64.7532C496.842 64.3696 497.153 63.8125 497.153 63.0818C497.153 62.479 496.952 62.0041 496.55 61.657C496.148 61.3099 495.509 61.0633 494.632 60.9172L491.536 60.3966C489.326 59.9947 488.221 58.8348 488.221 56.9168C488.221 55.7112 488.677 54.7339 489.591 53.985C490.522 53.2178 491.883 52.8342 493.673 52.8342C495.281 52.8342 496.55 53.1904 497.482 53.9028C498.432 54.5969 498.98 55.5559 499.126 56.7798H496.797C496.705 56.1405 496.367 55.6655 495.783 55.355C495.198 55.0262 494.459 54.8618 493.564 54.8618C492.65 54.8618 491.92 55.0262 491.372 55.355C490.842 55.6655 490.577 56.1131 490.577 56.6976C490.577 57.2091 490.741 57.5927 491.07 57.8484C491.399 58.1041 491.929 58.2868 492.659 58.3964ZM505.364 49.601H502.898V47.0802H505.364V49.601ZM505.282 53.1904V67H502.953V53.1904H505.282ZM519.966 53.1904H522.212V66.315C522.212 68.2695 521.637 69.8131 520.486 70.9456C519.354 72.0964 517.783 72.6718 515.773 72.6718C513.983 72.6718 512.54 72.3065 511.444 71.5758C510.366 70.8451 509.727 69.8039 509.526 68.4522H511.828C512.193 69.9501 513.499 70.699 515.746 70.699C517.134 70.699 518.166 70.3063 518.842 69.5208C519.536 68.7353 519.883 67.6302 519.883 66.2054V65.1094H519.281C518.331 66.3333 516.952 66.9452 515.143 66.9452C513.28 66.9452 511.791 66.2876 510.677 64.9724C509.563 63.6572 509.006 61.9675 509.006 59.9034C509.006 57.8393 509.563 56.1496 510.677 54.8344C511.791 53.5009 513.28 52.8342 515.143 52.8342C517.006 52.8342 518.413 53.4461 519.363 54.67H519.966V53.1904ZM515.582 64.9176C516.988 64.9176 518.066 64.4335 518.815 63.4654C519.564 62.4973 519.938 61.3099 519.938 59.9034C519.938 58.4786 519.564 57.2821 518.815 56.314C518.066 55.3459 516.988 54.8618 515.582 54.8618C514.248 54.8618 513.207 55.3185 512.458 56.2318C511.709 57.1451 511.335 58.369 511.335 59.9034C511.335 61.4195 511.709 62.6343 512.458 63.5476C513.207 64.4609 514.248 64.9176 515.582 64.9176ZM538.988 67H536.659V58.7252C536.659 56.1861 535.49 54.9166 533.151 54.9166C531.946 54.9166 530.959 55.3733 530.192 56.2866C529.425 57.1817 529.041 58.2594 529.041 59.5198V67H526.712V53.1904H528.959V54.67H529.562C529.964 54.122 530.53 53.6836 531.261 53.3548C531.991 53.0077 532.813 52.8342 533.727 52.8342C535.407 52.8342 536.704 53.3183 537.618 54.2864C538.531 55.2363 538.988 56.5515 538.988 58.232V67ZM547.085 58.3964L548.4 58.6156L549.962 58.8622C552.592 59.3189 553.907 60.7071 553.907 63.027C553.907 64.2326 553.405 65.2555 552.4 66.0958C551.396 66.9361 550.007 67.3562 548.236 67.3562C546.336 67.3562 544.874 66.9726 543.852 66.2054C542.847 65.4382 542.262 64.3696 542.098 62.9996H544.454C544.674 64.5523 545.897 65.3286 548.126 65.3286C549.204 65.3286 550.044 65.1368 550.647 64.7532C551.268 64.3696 551.578 63.8125 551.578 63.0818C551.578 62.479 551.377 62.0041 550.976 61.657C550.574 61.3099 549.934 61.0633 549.058 60.9172L545.961 60.3966C543.751 59.9947 542.646 58.8348 542.646 56.9168C542.646 55.7112 543.103 54.7339 544.016 53.985C544.948 53.2178 546.308 52.8342 548.099 52.8342C549.706 52.8342 550.976 53.1904 551.907 53.9028C552.857 54.5969 553.405 55.5559 553.551 56.7798H551.222C551.131 56.1405 550.793 55.6655 550.208 55.355C549.624 55.0262 548.884 54.8618 547.989 54.8618C547.076 54.8618 546.345 55.0262 545.797 55.355C545.267 55.6655 545.002 56.1131 545.002 56.6976C545.002 57.2091 545.167 57.5927 545.496 57.8484C545.824 58.1041 546.354 58.2868 547.085 58.3964ZM565.908 54.8892C567.132 53.5192 568.794 52.8342 570.895 52.8342C572.996 52.8342 574.649 53.5192 575.855 54.8892C577.078 56.2592 577.69 57.9945 577.69 60.0952C577.69 62.1959 577.078 63.9312 575.855 65.3012C574.649 66.6712 572.996 67.3562 570.895 67.3562C568.794 67.3562 567.132 66.6712 565.908 65.3012C564.703 63.9312 564.1 62.1959 564.1 60.0952C564.1 57.9945 564.703 56.2592 565.908 54.8892ZM567.58 63.8216C568.347 64.8263 569.452 65.3286 570.895 65.3286C572.338 65.3286 573.443 64.8263 574.211 63.8216C574.978 62.7987 575.361 61.5565 575.361 60.0952C575.361 58.6339 574.978 57.4009 574.211 56.3962C573.443 55.3733 572.338 54.8618 570.895 54.8618C569.452 54.8618 568.347 55.3733 567.58 56.3962C566.813 57.4009 566.429 58.6339 566.429 60.0952C566.429 61.5565 566.813 62.7987 567.58 63.8216ZM589.216 53.1904V55.3824H588.066C586.677 55.3824 585.59 55.7934 584.805 56.6154C584.038 57.4374 583.654 58.5973 583.654 60.0952V67H581.325V53.1904H583.572V54.8344H584.175C585.052 53.7384 586.385 53.1904 588.175 53.1904H589.216ZM602.297 47.0802H604.626V67H602.38V65.5204H601.777C600.79 66.7443 599.357 67.3562 597.475 67.3562C595.612 67.3562 594.132 66.6712 593.036 65.3012C591.959 63.9312 591.42 62.1959 591.42 60.0952C591.42 57.958 591.959 56.2135 593.036 54.8618C594.132 53.5101 595.612 52.8342 597.475 52.8342C599.338 52.8342 600.745 53.4461 601.695 54.67H602.297V47.0802ZM597.996 65.3286C599.439 65.3286 600.516 64.8263 601.229 63.8216C601.96 62.8169 602.325 61.5748 602.325 60.0952C602.325 58.6156 601.96 57.3735 601.229 56.3688C600.516 55.3641 599.439 54.8618 597.996 54.8618C596.644 54.8618 595.594 55.3459 594.845 56.314C594.114 57.2639 593.749 58.5243 593.749 60.0952C593.749 61.6661 594.114 62.9357 594.845 63.9038C595.594 64.8537 596.644 65.3286 597.996 65.3286ZM621.1 59.2732V60.0678H610.579C610.615 61.7301 611.008 63.027 611.757 63.9586C612.506 64.8719 613.584 65.3286 614.99 65.3286C616.89 65.3286 618.059 64.6162 618.497 63.1914H620.854C620.616 64.4335 619.986 65.4382 618.963 66.2054C617.958 66.9726 616.634 67.3562 614.99 67.3562C612.889 67.3562 611.245 66.6712 610.058 65.3012C608.871 63.9312 608.277 62.1502 608.277 59.9582C608.277 57.8027 608.871 56.0765 610.058 54.7796C611.245 53.4827 612.871 52.8342 614.935 52.8342C616.89 52.8342 618.397 53.4553 619.456 54.6974C620.516 55.9213 621.064 57.4465 621.1 59.2732ZM614.88 54.8618C613.693 54.8618 612.743 55.1723 612.031 55.7934C611.318 56.3962 610.88 57.1725 610.716 58.1224H618.689C618.616 57.1908 618.242 56.4145 617.566 55.7934C616.89 55.1723 615.995 54.8618 614.88 54.8618ZM632.617 53.1904V55.3824H631.467C630.078 55.3824 628.992 55.7934 628.206 56.6154C627.439 57.4374 627.055 58.5973 627.055 60.0952V67H624.726V53.1904H626.973V54.8344H627.576C628.453 53.7384 629.786 53.1904 631.576 53.1904H632.617Z" fill="black"/>
<path d="M769.982 12.0802C772.85 12.0802 775.088 13.0392 776.695 14.9572C778.303 16.8752 779.106 19.2955 779.106 22.2182C779.106 25.1409 778.303 27.5612 776.695 29.4792C775.088 31.3972 772.85 32.3562 769.982 32.3562C767.096 32.3562 764.849 31.4063 763.242 29.5066C761.653 27.5886 760.858 25.1591 760.858 22.2182C760.858 19.2773 761.653 16.8569 763.242 14.9572C764.849 13.0392 767.096 12.0802 769.982 12.0802ZM765.023 27.8352C766.137 29.3513 767.79 30.1094 769.982 30.1094C772.174 30.1094 773.827 29.3513 774.942 27.8352C776.056 26.3191 776.613 24.4467 776.613 22.2182C776.613 19.9897 776.056 18.1173 774.942 16.6012C773.827 15.0851 772.174 14.327 769.982 14.327C767.79 14.327 766.137 15.0851 765.023 16.6012C763.909 18.1173 763.351 19.9897 763.351 22.2182C763.351 24.4467 763.909 26.3191 765.023 27.8352ZM790.762 18.1904V20.3824H789.611C788.222 20.3824 787.136 20.7934 786.35 21.6154C785.583 22.4374 785.199 23.5973 785.199 25.0952V32H782.87V18.1904H785.117V19.8344H785.72C786.597 18.7384 787.93 18.1904 789.72 18.1904H790.762ZM803.843 12.0802H806.172V32H803.925V30.5204H803.322C802.336 31.7443 800.902 32.3562 799.02 32.3562C797.157 32.3562 795.677 31.6712 794.581 30.3012C793.504 28.9312 792.965 27.1959 792.965 25.0952C792.965 22.958 793.504 21.2135 794.581 19.8618C795.677 18.5101 797.157 17.8342 799.02 17.8342C800.883 17.8342 802.29 18.4461 803.24 19.67H803.843V12.0802ZM799.541 30.3286C800.984 30.3286 802.062 29.8263 802.774 28.8216C803.505 27.8169 803.87 26.5748 803.87 25.0952C803.87 23.6156 803.505 22.3735 802.774 21.3688C802.062 20.3641 800.984 19.8618 799.541 19.8618C798.189 19.8618 797.139 20.3459 796.39 21.314C795.659 22.2639 795.294 23.5243 795.294 25.0952C795.294 26.6661 795.659 27.9357 796.39 28.9038C797.139 29.8537 798.189 30.3286 799.541 30.3286ZM822.646 24.2732V25.0678H812.124C812.16 26.7301 812.553 28.027 813.302 28.9586C814.051 29.8719 815.129 30.3286 816.535 30.3286C818.435 30.3286 819.604 29.6162 820.043 28.1914H822.399C822.161 29.4335 821.531 30.4382 820.508 31.2054C819.504 31.9726 818.179 32.3562 816.535 32.3562C814.435 32.3562 812.791 31.6712 811.603 30.3012C810.416 28.9312 809.822 27.1502 809.822 24.9582C809.822 22.8027 810.416 21.0765 811.603 19.7796C812.791 18.4827 814.416 17.8342 816.481 17.8342C818.435 17.8342 819.942 18.4553 821.002 19.6974C822.061 20.9213 822.609 22.4465 822.646 24.2732ZM816.426 19.8618C815.238 19.8618 814.289 20.1723 813.576 20.7934C812.864 21.3962 812.425 22.1725 812.261 23.1224H820.234C820.161 22.1908 819.787 21.4145 819.111 20.7934C818.435 20.1723 817.54 19.8618 816.426 19.8618ZM834.163 18.1904V20.3824H833.012C831.624 20.3824 830.537 20.7934 829.751 21.6154C828.984 22.4374 828.601 23.5973 828.601 25.0952V32H826.272V18.1904H828.518V19.8344H829.121C829.998 18.7384 831.331 18.1904 833.122 18.1904H834.163ZM847.307 14.601H844.841V12.0802H847.307V14.601ZM847.225 18.1904V32H844.896V18.1904H847.225ZM855.634 23.3964L856.95 23.6156L858.511 23.8622C861.142 24.3189 862.457 25.7071 862.457 28.027C862.457 29.2326 861.955 30.2555 860.95 31.0958C859.945 31.9361 858.557 32.3562 856.785 32.3562C854.886 32.3562 853.424 31.9726 852.401 31.2054C851.397 30.4382 850.812 29.3696 850.648 27.9996H853.004C853.223 29.5523 854.447 30.3286 856.676 30.3286C857.753 30.3286 858.594 30.1368 859.196 29.7532C859.818 29.3696 860.128 28.8125 860.128 28.0818C860.128 27.479 859.927 27.0041 859.525 26.657C859.123 26.3099 858.484 26.0633 857.607 25.9172L854.511 25.3966C852.301 24.9947 851.196 23.8348 851.196 21.9168C851.196 20.7112 851.652 19.7339 852.566 18.985C853.497 18.2178 854.858 17.8342 856.648 17.8342C858.256 17.8342 859.525 18.1904 860.457 18.9028C861.407 19.5969 861.955 20.5559 862.101 21.7798H859.772C859.681 21.1405 859.343 20.6655 858.758 20.355C858.174 20.0262 857.434 19.8618 856.539 19.8618C855.625 19.8618 854.895 20.0262 854.347 20.355C853.817 20.6655 853.552 21.1131 853.552 21.6976C853.552 22.2091 853.716 22.5927 854.045 22.8484C854.374 23.1041 854.904 23.2868 855.634 23.3964ZM881.39 18.1904V20.3824H880.239C878.851 20.3824 877.764 20.7934 876.979 21.6154C876.212 22.4374 875.828 23.5973 875.828 25.0952V32H873.499V18.1904H875.746V19.8344H876.349C877.225 18.7384 878.559 18.1904 880.349 18.1904H881.39ZM896.417 24.2732V25.0678H885.895C885.932 26.7301 886.324 28.027 887.073 28.9586C887.822 29.8719 888.9 30.3286 890.307 30.3286C892.206 30.3286 893.375 29.6162 893.814 28.1914H896.17C895.933 29.4335 895.303 30.4382 894.28 31.2054C893.275 31.9726 891.951 32.3562 890.307 32.3562C888.206 32.3562 886.562 31.6712 885.375 30.3012C884.187 28.9312 883.594 27.1502 883.594 24.9582C883.594 22.8027 884.187 21.0765 885.375 19.7796C886.562 18.4827 888.188 17.8342 890.252 17.8342C892.206 17.8342 893.713 18.4553 894.773 19.6974C895.832 20.9213 896.38 22.4465 896.417 24.2732ZM890.197 19.8618C889.01 19.8618 888.06 20.1723 887.347 20.7934C886.635 21.3962 886.197 22.1725 886.032 23.1224H894.006C893.933 22.1908 893.558 21.4145 892.882 20.7934C892.206 20.1723 891.311 19.8618 890.197 19.8618ZM908.838 32V30.5478H908.235C907.286 31.7534 905.852 32.3562 903.934 32.3562C902.417 32.3562 901.212 31.9178 900.317 31.041C899.422 30.1642 898.974 29.1047 898.974 27.8626C898.974 26.6022 899.413 25.5245 900.289 24.6294C901.166 23.7343 902.491 23.2868 904.262 23.2868H908.756V22.7388C908.756 21.862 908.482 21.1679 907.934 20.6564C907.386 20.1267 906.537 19.8618 905.386 19.8618C903.376 19.8618 902.308 20.5285 902.18 21.862H899.851C899.942 20.6016 900.481 19.6152 901.468 18.9028C902.472 18.1904 903.76 17.8342 905.331 17.8342C907.103 17.8342 908.491 18.2452 909.496 19.0672C910.519 19.8892 911.03 21.0674 911.03 22.6018V32H908.838ZM904.509 30.3286C905.66 30.3286 906.655 29.9541 907.496 29.2052C908.336 28.438 908.756 27.5064 908.756 26.4104V25.15H904.619C902.408 25.15 901.303 26.0268 901.303 27.7804C901.303 28.5659 901.577 29.1869 902.125 29.6436C902.691 30.1003 903.486 30.3286 904.509 30.3286ZM925.323 12.0802H927.652V32H925.405V30.5204H924.803C923.816 31.7443 922.382 32.3562 920.501 32.3562C918.638 32.3562 917.158 31.6712 916.062 30.3012C914.984 28.9312 914.445 27.1959 914.445 25.0952C914.445 22.958 914.984 21.2135 916.062 19.8618C917.158 18.5101 918.638 17.8342 920.501 17.8342C922.364 17.8342 923.77 18.4461 924.72 19.67H925.323V12.0802ZM921.021 30.3286C922.464 30.3286 923.542 29.8263 924.255 28.8216C924.985 27.8169 925.351 26.5748 925.351 25.0952C925.351 23.6156 924.985 22.3735 924.255 21.3688C923.542 20.3641 922.464 19.8618 921.021 19.8618C919.67 19.8618 918.619 20.3459 917.87 21.314C917.14 22.2639 916.774 23.5243 916.774 25.0952C916.774 26.6661 917.14 27.9357 917.87 28.9038C918.619 29.8537 919.67 30.3286 921.021 30.3286ZM935.879 37.48H933.522L936.372 30.7122L930.481 18.1904H932.974L937.194 27.2872H937.879L941.715 18.1904H944.153L935.879 37.48ZM775.627 52.1904H779.107V54.218H775.627V61.8078C775.627 62.5385 775.81 63.0773 776.175 63.4244C776.559 63.7532 777.198 63.9176 778.093 63.9176H779.107V66H778.038C776.467 66 775.28 65.7077 774.476 65.1232C773.691 64.5387 773.298 63.5431 773.298 62.1366V54.218H770.914V52.1904H773.298V48.0256H775.627V52.1904ZM783.682 53.8892C784.906 52.5192 786.568 51.8342 788.669 51.8342C790.77 51.8342 792.423 52.5192 793.628 53.8892C794.852 55.2592 795.464 56.9945 795.464 59.0952C795.464 61.1959 794.852 62.9312 793.628 64.3012C792.423 65.6712 790.77 66.3562 788.669 66.3562C786.568 66.3562 784.906 65.6712 783.682 64.3012C782.477 62.9312 781.874 61.1959 781.874 59.0952C781.874 56.9945 782.477 55.2592 783.682 53.8892ZM785.354 62.8216C786.121 63.8263 787.226 64.3286 788.669 64.3286C790.112 64.3286 791.217 63.8263 791.984 62.8216C792.752 61.7987 793.135 60.5565 793.135 59.0952C793.135 57.6339 792.752 56.4009 791.984 55.3962C791.217 54.3733 790.112 53.8618 788.669 53.8618C787.226 53.8618 786.121 54.3733 785.354 55.3962C784.586 56.4009 784.203 57.6339 784.203 59.0952C784.203 60.5565 784.586 61.7987 785.354 62.8216ZM813.876 51.8342C815.74 51.8342 817.21 52.5101 818.288 53.8618C819.384 55.2135 819.932 56.958 819.932 59.0952C819.932 61.1959 819.384 62.9312 818.288 64.3012C817.21 65.6712 815.74 66.3562 813.876 66.3562C811.995 66.3562 810.561 65.7443 809.575 64.5204H808.972V66H806.725V46.0802H809.054V53.67H809.657C810.57 52.4461 811.977 51.8342 813.876 51.8342ZM813.356 64.3286C814.707 64.3286 815.749 63.8537 816.479 62.9038C817.228 61.9357 817.603 60.6661 817.603 59.0952C817.603 57.5243 817.228 56.2639 816.479 55.314C815.749 54.3459 814.707 53.8618 813.356 53.8618C811.913 53.8618 810.826 54.3641 810.095 55.3688C809.383 56.3735 809.027 57.6156 809.027 59.0952C809.027 60.5748 809.383 61.8169 810.095 62.8216C810.826 63.8263 811.913 64.3286 813.356 64.3286ZM835.556 58.2732V59.0678H825.035C825.071 60.7301 825.464 62.027 826.213 62.9586C826.962 63.8719 828.039 64.3286 829.446 64.3286C831.346 64.3286 832.515 63.6162 832.953 62.1914H835.31C835.072 63.4335 834.442 64.4382 833.419 65.2054C832.414 65.9726 831.09 66.3562 829.446 66.3562C827.345 66.3562 825.701 65.6712 824.514 64.3012C823.327 62.9312 822.733 61.1502 822.733 58.9582C822.733 56.8027 823.327 55.0765 824.514 53.7796C825.701 52.4827 827.327 51.8342 829.391 51.8342C831.346 51.8342 832.853 52.4553 833.912 53.6974C834.972 54.9213 835.52 56.4465 835.556 58.2732ZM829.336 53.8618C828.149 53.8618 827.199 54.1723 826.487 54.7934C825.774 55.3962 825.336 56.1725 825.172 57.1224H833.145C833.072 56.1908 832.697 55.4145 832.022 54.7934C831.346 54.1723 830.451 53.8618 829.336 53.8618ZM850.644 57.3964L851.959 57.6156L853.521 57.8622C856.152 58.3189 857.467 59.7071 857.467 62.027C857.467 63.2326 856.964 64.2555 855.96 65.0958C854.955 65.9361 853.567 66.3562 851.795 66.3562C849.895 66.3562 848.434 65.9726 847.411 65.2054C846.406 64.4382 845.822 63.3696 845.657 61.9996H848.014C848.233 63.5523 849.457 64.3286 851.685 64.3286C852.763 64.3286 853.603 64.1368 854.206 63.7532C854.827 63.3696 855.138 62.8125 855.138 62.0818C855.138 61.479 854.937 61.0041 854.535 60.657C854.133 60.3099 853.494 60.0633 852.617 59.9172L849.521 59.3966C847.31 58.9947 846.205 57.8348 846.205 55.9168C846.205 54.7112 846.662 53.7339 847.575 52.985C848.507 52.2178 849.868 51.8342 851.658 51.8342C853.265 51.8342 854.535 52.1904 855.467 52.9028C856.416 53.5969 856.964 54.5559 857.111 55.7798H854.782C854.69 55.1405 854.352 54.6655 853.768 54.355C853.183 54.0262 852.443 53.8618 851.548 53.8618C850.635 53.8618 849.904 54.0262 849.356 54.355C848.827 54.6655 848.562 55.1131 848.562 55.6976C848.562 56.2091 848.726 56.5927 849.055 56.8484C849.384 57.1041 849.913 57.2868 850.644 57.3964ZM873.158 66H870.829V57.7252C870.829 55.1861 869.66 53.9166 867.322 53.9166C866.116 53.9166 865.13 54.3733 864.363 55.2866C863.595 56.1817 863.212 57.2594 863.212 58.5198V66H860.883V46.0802H863.212V53.67H863.815C864.198 53.122 864.746 52.6836 865.459 52.3548C866.189 52.0077 867.011 51.8342 867.925 51.8342C869.587 51.8342 870.875 52.3183 871.788 53.2864C872.701 54.2363 873.158 55.5515 873.158 57.232V66ZM886.214 66V64.5478H885.612C884.662 65.7534 883.228 66.3562 881.31 66.3562C879.794 66.3562 878.588 65.9178 877.693 65.041C876.798 64.1642 876.35 63.1047 876.35 61.8626C876.35 60.6022 876.789 59.5245 877.666 58.6294C878.542 57.7343 879.867 57.2868 881.639 57.2868H886.132V56.7388C886.132 55.862 885.858 55.1679 885.31 54.6564C884.762 54.1267 883.913 53.8618 882.762 53.8618C880.753 53.8618 879.684 54.5285 879.556 55.862H877.227C877.319 54.6016 877.857 53.6152 878.844 52.9028C879.849 52.1904 881.136 51.8342 882.707 51.8342C884.479 51.8342 885.867 52.2452 886.872 53.0672C887.895 53.8892 888.406 55.0674 888.406 56.6018V66H886.214ZM881.885 64.3286C883.036 64.3286 884.032 63.9541 884.872 63.2052C885.712 62.438 886.132 61.5064 886.132 60.4104V59.15H881.995C879.785 59.15 878.679 60.0268 878.679 61.7804C878.679 62.5659 878.953 63.1869 879.501 63.6436C880.068 64.1003 880.862 64.3286 881.885 64.3286ZM900.562 52.1904V54.3824H899.411C898.023 54.3824 896.936 54.7934 896.151 55.6154C895.384 56.4374 895 57.5973 895 59.0952V66H892.671V52.1904H894.918V53.8344H895.521C896.397 52.7384 897.731 52.1904 899.521 52.1904H900.562ZM915.589 58.2732V59.0678H905.067C905.104 60.7301 905.496 62.027 906.245 62.9586C906.994 63.8719 908.072 64.3286 909.479 64.3286C911.378 64.3286 912.547 63.6162 912.986 62.1914H915.342C915.105 63.4335 914.474 64.4382 913.452 65.2054C912.447 65.9726 911.123 66.3562 909.479 66.3562C907.378 66.3562 905.734 65.6712 904.547 64.3012C903.359 62.9312 902.766 61.1502 902.766 58.9582C902.766 56.8027 903.359 55.0765 904.547 53.7796C905.734 52.4827 907.36 51.8342 909.424 51.8342C911.378 51.8342 912.885 52.4553 913.945 53.6974C915.004 54.9213 915.552 56.4465 915.589 58.2732ZM909.369 53.8618C908.182 53.8618 907.232 54.1723 906.519 54.7934C905.807 55.3962 905.369 56.1725 905.204 57.1224H913.178C913.104 56.1908 912.73 55.4145 912.054 54.7934C911.378 54.1723 910.483 53.8618 909.369 53.8618ZM929.243 46.0802H931.572V66H929.325V64.5204H928.723C927.736 65.7443 926.302 66.3562 924.421 66.3562C922.558 66.3562 921.078 65.6712 919.982 64.3012C918.904 62.9312 918.365 61.1959 918.365 59.0952C918.365 56.958 918.904 55.2135 919.982 53.8618C921.078 52.5101 922.558 51.8342 924.421 51.8342C926.284 51.8342 927.69 52.4461 928.64 53.67H929.243V46.0802ZM924.941 64.3286C926.384 64.3286 927.462 63.8263 928.175 62.8216C928.905 61.8169 929.271 60.5748 929.271 59.0952C929.271 57.6156 928.905 56.3735 928.175 55.3688C927.462 54.3641 926.384 53.8618 924.941 53.8618C923.59 53.8618 922.539 54.3459 921.79 55.314C921.06 56.2639 920.694 57.5243 920.694 59.0952C920.694 60.6661 921.06 61.9357 921.79 62.9038C922.539 63.8537 923.59 64.3286 924.941 64.3286Z" fill="black"/>
<path d="M797 134.883C797 132.186 799.186 130 801.883 130H901.507C904.204 130 906.39 132.186 906.39 134.883V342.92C906.39 345.617 904.204 347.804 901.507 347.804H801.883C799.186 347.804 797 345.617 797 342.92V134.883Z" fill="#003831"/>
<rect opacity="0.6" x="851.207" y="142.069" width="45.9048" height="8.79028" rx="4.39514" fill="#FF7235"/>
<rect x="806.279" y="142.069" width="32.7194" height="8.79028" rx="4.39514" fill="#898990"/>
<rect x="806.279" y="171.37" width="32.7194" height="8.79028" rx="4.39514" fill="#898990"/>
<rect x="806.279" y="200.671" width="32.7194" height="8.79028" rx="4.39514" fill="#898990"/>
<rect x="806.279" y="156.719" width="29.7893" height="8.79028" rx="4.39514" fill="#898990"/>
<rect x="806.279" y="215.321" width="29.7893" height="8.79028" rx="4.39514" fill="#898990"/>
<rect x="806.279" y="186.021" width="29.7893" height="8.79028" rx="4.39514" fill="#898990"/>
<rect x="806.279" y="254.529" width="32.7194" height="8.79028" rx="4.39514" fill="#898990"/>
<rect x="806.279" y="283.83" width="32.7194" height="8.79028" rx="4.39514" fill="#898990"/>
<rect x="806.279" y="313.131" width="32.7194" height="8.79028" rx="4.39514" fill="#898990"/>
<rect x="806.279" y="269.179" width="29.7893" height="8.79028" rx="4.39514" fill="#898990"/>
<rect x="806.279" y="327.781" width="29.7893" height="8.79028" rx="4.39514" fill="#898990"/>
<rect x="806.279" y="298.48" width="29.7893" height="8.79028" rx="4.39514" fill="#898990"/>
<rect opacity="0.6" x="851.207" y="156.719" width="45.9048" height="8.79028" rx="4.39514" fill="#FF7235"/>
<rect opacity="0.6" x="851.207" y="171.37" width="45.9048" height="8.79028" rx="4.39514" fill="#FF7235"/>
<rect opacity="0.6" x="851.207" y="186.021" width="45.9048" height="8.79028" rx="4.39514" fill="#FF7235"/>
<rect opacity="0.6" x="851.207" y="200.671" width="45.9048" height="8.79028" rx="4.39514" fill="#FF7235"/>
<rect opacity="0.6" x="851.207" y="215.321" width="45.9048" height="8.79028" rx="4.39514" fill="#FF7235"/>
<rect opacity="0.6" x="851.207" y="254.529" width="45.9048" height="8.79028" rx="4.39514" fill="#00AE99"/>
<rect opacity="0.6" x="851.207" y="269.179" width="45.9048" height="8.79028" rx="4.39514" fill="#00AE99"/>
<rect opacity="0.6" x="851.207" y="283.83" width="45.9048" height="8.79028" rx="4.39514" fill="#00AE99"/>
<rect opacity="0.6" x="851.207" y="298.48" width="45.9048" height="8.79028" rx="4.39514" fill="#00AE99"/>
<rect opacity="0.6" x="851.207" y="313.131" width="45.9048" height="8.79028" rx="4.39514" fill="#00AE99"/>
<rect opacity="0.6" x="851.207" y="327.781" width="45.9048" height="8.79028" rx="4.39514" fill="#00AE99"/>
<line x1="797" y1="233.727" x2="906.39" y2="233.727" stroke="#898890" stroke-width="1.46505"/>
<line x1="797" y1="245.448" x2="906.39" y2="245.448" stroke="#898890" stroke-width="1.46505"/>
</svg>
