<svg width="598" height="220" xmlns="http://www.w3.org/2000/svg"><g fill="none" fill-rule="evenodd"><path d="M123.91 112.943a.969.969 0 0 0 0-1.37l-6.158-6.158a.969.969 0 0 0-1.37 1.369l5.475 5.474-5.474 5.474a.969.969 0 0 0 1.369 1.37l6.158-6.16zm-25.2.283h24.516v-1.936H98.71v1.936zm178.749-.283a.969.969 0 0 0 0-1.37l-6.159-6.158a.969.969 0 0 0-1.369 1.369l5.475 5.474-5.475 5.474a.969.969 0 0 0 1.369 1.37l6.159-6.16zm-25.2.283h24.515v-1.936h-24.516v1.936zm199.393-.283a.969.969 0 0 0 0-1.37l-6.158-6.158a.969.969 0 0 0-1.37 1.369l5.475 5.474-5.474 5.474a.969.969 0 0 0 1.369 1.37l6.158-6.16zm-25.2.283h24.516v-1.936h-24.516v1.936z" fill="#00AE99" fill-rule="nonzero"/><path stroke="#00AE99" stroke-width="3.867" fill="#E5E5E5" fill-rule="nonzero" d="M12.86 77.377h36.7l12.368 12.368v49.174H12.86z"/><path d="M31.353 99.419v.291c.3.135.546.356.741.663.202.307.303.65.303 1.033 0 .704-.232 1.268-.696 1.695-.464.419-1.153.629-2.066.629h-3.862v-8.016h3.761c.845 0 1.497.201 1.954.606.456.404.684.909.684 1.515 0 .36-.075.682-.224.966a1.4 1.4 0 0 1-.595.618zm-3.907-.528h1.886c.749 0 1.123-.3 1.123-.898 0-.592-.378-.887-1.134-.887h-1.875v1.785zm0 3.413h1.942c.861 0 1.291-.33 1.291-.988 0-.681-.423-1.022-1.269-1.022h-1.964v2.01zm11.47-6.59h1.673v5.063c0 .995-.292 1.763-.876 2.302-.576.531-1.407.796-2.492.796-1.07 0-1.898-.265-2.482-.796-.576-.539-.864-1.307-.864-2.302v-5.063h1.673v5.03c0 .501.146.901.438 1.2.3.293.715.439 1.246.439.54 0 .955-.146 1.247-.438.292-.3.438-.7.438-1.202v-5.03zm6.229 3.2h.314l1.718-3.2h1.774l-2.807 5.164v2.852H44.46v-2.852l-2.796-5.164h1.762l1.719 3.2z" fill="#00AE99" fill-rule="nonzero"/><path d="M21.177 111.266h32.435m-32.435 11.228h32.435m-32.435-5.406h25.366m-25.366 11.227h25.366" stroke="#00AE99" stroke-width="3.223"/><path stroke="#00AE99" stroke-width="4.964" d="M160.311 80.956h56.58v56.58h-56.58z"/><path d="M158.71 79.355h19.749v19.749h-19.75v-19.75zm19.749 19.749h9.607v9.608h-9.607v-9.608zm9.607-10.141h9.608v10.14h-9.608v-10.14zm9.609 10.14h10.141v9.609h-10.141v-9.608zm-9.609 9.609h9.608v9.607h-9.608v-9.607zm9.609 9.608h10.141v10.141h-10.141V118.32zm10.141-9.608h9.608v9.607h-9.608v-9.607zm-29.357 0h9.607v9.607h-9.607v-9.607zm19.216-29.357h10.141v9.608h-10.141v-9.608zm-29.358 38.965h10.142v10.141h-10.142V118.32zm-9.607 10.141h9.607v9.608h-9.607v-9.608zm19.749-.533h9.607v9.607h-9.607v-9.607zm9.607 0h9.608v9.607h-9.608v-9.607zm-29.356-19.216h9.607v9.607h-9.607v-9.607z" fill="#00AE99" fill-rule="nonzero"/><path stroke="#00AE99" stroke-width="4.964" d="M322.246 80.956h56.58v56.58h-56.58z"/><path d="M320.645 79.355h19.75v19.749h-19.75v-19.75zm19.75 19.749h9.607v9.608h-9.608v-9.608zm9.607-10.141h9.608v10.14h-9.608v-10.14zm9.608 10.14h10.142v9.609H359.61v-9.608zm-9.608 9.609h9.608v9.607h-9.608v-9.607zm9.608 9.608h10.142v10.141H359.61V118.32zm10.142-9.608h9.607v9.607h-9.607v-9.607zm-29.358 0h9.608v9.607h-9.608v-9.607zm19.216-29.357h10.142v9.608H359.61v-9.608zm-29.357 38.965h10.141v10.141h-10.141V118.32zm-9.608 10.141h9.608v9.608h-9.608v-9.608z" fill="#00AE99" fill-rule="nonzero"/><path d="M340.394 127.928h9.608v9.607h-9.608v-9.607zm9.608 0h9.608v9.607h-9.608v-9.607zm-29.357-19.216h9.608v9.607h-9.608v-9.607z" fill="#00AE99" fill-rule="nonzero"/><path d="M349.995 184.313c4.153 0 7.53-3.427 7.53-7.64 0-4.213-3.377-7.64-7.53-7.64-4.151 0-7.53 3.427-7.53 7.64 0 4.213 3.379 7.64 7.53 7.64zm13.867 15.804c-.047-7.718-6.25-13.982-13.867-13.982-7.645 0-13.866 6.313-13.866 14.07 0 .243.194.44.433.44h26.876a.436.436 0 0 0 .424-.528zM37.737 184.313c4.153 0 7.53-3.427 7.53-7.64 0-4.213-3.377-7.64-7.529-7.64s-7.53 3.427-7.53 7.64c0 4.213 3.378 7.64 7.53 7.64zm13.867 15.804c-.047-7.718-6.25-13.982-13.867-13.982-7.645 0-13.866 6.313-13.866 14.07 0 .243.194.44.432.44h26.878a.436.436 0 0 0 .424-.528h-.001z" fill="#003831" fill-rule="nonzero"/><path d="M395.161 135.644c0 11.191-8.442 20.07-18.625 20.07s-18.625-8.879-18.625-20.07 8.442-20.07 18.625-20.07 18.625 8.879 18.625 20.07z" stroke="#00AE99" stroke-width="5" fill="#E5E5E5" fill-rule="nonzero"/><path d="M378.523 120.81a16.704 16.704 0 0 0-2.202-.1c-1.98.031-3.938.414-5.784 1.13-.613.239-1.18.502-1.69.78a7.856 7.856 0 0 0-.602.36c-.46.292-.584.962-.263 1.43.32.49.963.596 1.466.248.102-.075.273-.183.484-.305.45-.256.917-.481 1.398-.674 3.958-1.596 8.369-1.328 12.97 1.046.479.276 1.12.104 1.401-.386.31-.482.107-1.113-.455-1.423-2.218-1.155-4.47-1.855-6.723-2.106zm-11.266 6.938a15.88 15.88 0 0 0-2.311 2.306c-.342.421-.614.8-.77 1.058a1.015 1.015 0 0 0 .287 1.405c.478.31 1.116.158 1.503-.35.139-.233.361-.549.645-.905a13.137 13.137 0 0 1 1.948-1.963c2.347-1.917 5.127-2.906 8.29-2.853 3.128.04 5.858 1.02 8.145 2.833a12.795 12.795 0 0 1 1.98 1.948c.287.352.512.67.634.876.302.48.926.64 1.422.365.507-.282.662-.896.37-1.423a9.749 9.749 0 0 0-.775-1.051 15.537 15.537 0 0 0-2.339-2.282c-2.682-2.124-5.837-3.271-9.404-3.318-3.636-.049-6.867 1.114-9.625 3.354zm2.078 2.633c-4.083 3.34-5.346 8.8-3.227 14.893.18.536.771.82 1.32.64.54-.184.831-.78.632-1.306-1.877-5.384-.909-9.76 2.6-12.678 2.952-2.384 7.875-2.652 11.316-.551 1.676 1.044 3.126 2.894 3.88 4.922.671 1.767.712 3.635.116 4.525-.538.823-1.66 1.198-2.732.93-1.192-.3-1.84-1.141-1.876-2.504-.04-2.258-1.753-4.01-4.069-4.274-2.243-.264-4.318 1.046-4.852 3.157-1.261 4.789 2.307 10.325 8.05 12.097.544.165 1.121-.13 1.305-.668a1.023 1.023 0 0 0-.697-1.303c-4.613-1.416-7.609-5.97-6.653-9.645.29-1.146 1.276-1.724 2.65-1.6 1.368.155 2.18.976 2.18 2.267.068 2.197 1.46 3.96 3.45 4.46 1.935.485 3.942-.223 4.98-1.797 1.042-1.544 1.063-3.79.1-6.353-.951-2.508-2.642-4.648-4.742-5.957-2.135-1.315-4.67-1.922-7.224-1.742-2.455.172-4.774 1.058-6.507 2.487zm7.013.956c-2.831.1-5.278 1.621-6.648 4.197-1.595 2.974-1.468 6.329.226 9.812.25.512.533 1.02.845 1.52.451.724.951 1.416 1.497 2.072.274.328.52.6.686.766a1.032 1.032 0 0 0 1.454.016c.41-.39.42-1.002.024-1.442a11.195 11.195 0 0 1-.598-.679c-.476-.58-.914-1.19-1.309-1.828a15.242 15.242 0 0 1-.729-1.315c-1.43-2.915-1.557-5.559-.273-7.953 1.413-2.62 4.018-3.691 6.803-2.893 2.776.801 4.561 3.125 4.522 6.018-.065.56.358 1.052.938 1.085.575.05 1.057-.396 1.104-1.033.081-3.788-2.355-6.994-5.985-8.041a8.046 8.046 0 0 0-2.557-.302zm-.682 8.094c.006.3.059.746.154 1.244a9.601 9.601 0 0 0 1.065 2.929c1.56 2.626 4.49 3.953 8.307 3.6a1.021 1.021 0 0 0 .97-1.083c-.035-.586-.543-1.002-1.167-.955-3.183.29-5.103-.54-6.321-2.596a5.77 5.77 0 0 1-.18-.322 7.003 7.003 0 0 1-.653-1.956 5.806 5.806 0 0 1-.104-.884c0-.574-.469-1.03-1.062-1.03a1.03 1.03 0 0 0-1.009 1.053z" fill="#00AE99" fill-rule="nonzero"/><path d="M6.125.052c1.85 0 3.294.619 4.331 1.856 1.037 1.237 1.555 2.798 1.555 4.684 0 1.886-.518 3.447-1.555 4.685-1.037 1.237-2.481 1.856-4.33 1.856-1.863 0-3.312-.613-4.35-1.839C.752 10.057.239 8.49.239 6.592c0-1.897.513-3.458 1.538-4.684C2.814.67 4.263.052 6.125.052zm-3.2 10.164c.719.978 1.786 1.467 3.2 1.467 1.414 0 2.48-.489 3.2-1.467.718-.978 1.078-2.186 1.078-3.624 0-1.437-.36-2.645-1.078-3.624-.72-.978-1.786-1.467-3.2-1.467-1.414 0-2.481.49-3.2 1.467-.719.978-1.078 2.187-1.078 3.624 0 1.438.36 2.646 1.078 3.624zm16.606-6.222v1.414h-.742c-.897 0-1.597.265-2.104.795-.495.53-.742 1.279-.742 2.245v4.455h-1.504v-8.91h1.45v1.061h.39c.565-.707 1.425-1.06 2.58-1.06h.672zm8.44-3.942h1.502v12.851h-1.45v-.955h-.389c-.636.79-1.561 1.185-2.775 1.185-1.202 0-2.156-.442-2.864-1.326-.695-.884-1.043-2.003-1.043-3.359 0-1.378.349-2.503 1.043-3.376.708-.872 1.662-1.308 2.864-1.308s2.11.395 2.723 1.184h.388V.052zm-2.776 11.774c.93 0 1.626-.325 2.086-.972.471-.649.707-1.45.707-2.405 0-.955-.236-1.755-.707-2.404-.46-.648-1.155-.972-2.086-.972-.872 0-1.55.312-2.032.937-.473.613-.708 1.425-.708 2.439s.235 1.832.707 2.457c.484.613 1.161.92 2.033.92zM40.1 7.919v.513h-6.788c.024 1.072.277 1.909.76 2.51.484.589 1.179.883 2.086.883 1.226 0 1.98-.46 2.263-1.379h1.52a3.075 3.075 0 0 1-1.22 1.945c-.648.495-1.503.743-2.563.743-1.355 0-2.416-.442-3.182-1.326-.766-.884-1.149-2.033-1.149-3.447 0-1.39.383-2.504 1.149-3.341.766-.837 1.815-1.255 3.147-1.255 1.26 0 2.233.4 2.916 1.201.684.79 1.037 1.775 1.061 2.953zm-4.013-2.846c-.765 0-1.378.2-1.838.6-.46.39-.742.89-.849 1.504h5.145a2.204 2.204 0 0 0-.725-1.503c-.436-.4-1.013-.601-1.733-.601zm11.444-1.079v1.414h-.742c-.896 0-1.598.266-2.104.796-.496.53-.743 1.279-.743 2.245v4.454H42.44v-8.91h1.45v1.061h.389c.566-.707 1.426-1.06 2.58-1.06h.673zm8.48-2.315h-1.59V.053h1.59V1.679zm-.053 2.316v8.908h-1.502v-8.91h1.502v.002zm5.426 3.358l.848.142 1.008.159c1.696.294 2.545 1.19 2.545 2.687 0 .778-.324 1.438-.972 1.98-.648.542-1.544.813-2.687.813-1.226 0-2.168-.248-2.828-.742-.649-.496-1.026-1.185-1.132-2.069h1.52c.142 1.002.931 1.503 2.37 1.503.695 0 1.237-.124 1.626-.372.4-.247.6-.606.6-1.078 0-.389-.13-.695-.388-.92-.26-.223-.672-.382-1.238-.477l-1.998-.335c-1.425-.26-2.138-1.008-2.138-2.245 0-.778.294-1.409.884-1.892.6-.495 1.478-.742 2.634-.742 1.036 0 1.856.23 2.456.69.613.447.967 1.066 1.061 1.855h-1.502a1.18 1.18 0 0 0-.655-.919c-.376-.212-.854-.318-1.431-.318-.59 0-1.06.106-1.414.318-.342.2-.513.489-.513.866 0 .33.106.578.318.742.212.166.554.284 1.026.354zm-53.166 24.8h1.504c-.178.895-.596 1.608-1.256 2.138-.648.518-1.48.777-2.492.777-1.344 0-2.405-.436-3.182-1.307-.767-.884-1.15-2.01-1.15-3.377 0-1.379.383-2.504 1.15-3.376.766-.873 1.826-1.309 3.182-1.309 1.025 0 1.856.26 2.492.778.648.507 1.05 1.185 1.202 2.033H8.166c-.318-1.002-1.049-1.502-2.191-1.502-.955 0-1.668.318-2.14.955-.459.624-.689 1.419-.689 2.385 0 .98.236 1.792.708 2.44.47.648 1.178.973 2.12.973 1.25 0 1.998-.536 2.246-1.61v.001zm8.835-6.224v1.414h-.742c-.897 0-1.598.265-2.104.796-.495.53-.743 1.278-.743 2.245v4.455h-1.503v-8.91h1.45v1.06h.389c.565-.706 1.425-1.06 2.58-1.06h.673zm9.694 3.925v.512H19.96c.024 1.073.277 1.91.76 2.51.484.59 1.179.884 2.086.884 1.226 0 1.98-.46 2.263-1.379h1.52a3.078 3.078 0 0 1-1.22 1.945c-.648.495-1.503.742-2.563.742-1.355 0-2.416-.442-3.181-1.325-.767-.884-1.15-2.033-1.15-3.448 0-1.39.383-2.503 1.149-3.34.766-.837 1.815-1.256 3.147-1.256 1.26 0 2.233.401 2.916 1.202.684.79 1.038 1.774 1.061 2.953zm-4.013-2.846c-.766 0-1.378.2-1.838.6-.46.39-.742.89-.849 1.504h5.144a2.203 2.203 0 0 0-.724-1.504c-.436-.4-1.013-.6-1.733-.6zm12.026 7.83v-.936h-.389c-.613.777-1.538 1.166-2.775 1.166-.978 0-1.756-.282-2.333-.848a2.766 2.766 0 0 1-.867-2.05c0-.813.283-1.509.849-2.087.566-.577 1.42-.866 2.563-.866h2.9v-.353c0-.566-.176-1.014-.53-1.344-.353-.342-.902-.512-1.644-.512-1.296 0-1.985.43-2.068 1.29h-1.503c.06-.813.407-1.45 1.043-1.91.648-.459 1.48-.689 2.493-.689 1.143 0 2.039.266 2.687.796.66.53.99 1.29.99 2.28v6.064H34.76zm-2.793-1.077a2.8 2.8 0 0 0 1.927-.726c.542-.494.813-1.096.813-1.803v-.813h-2.669c-1.425 0-2.139.566-2.139 1.697 0 .507.177.908.53 1.203.365.294.878.442 1.538.442zm9.028-7.832h2.245v1.308h-2.245v4.897c0 .471.118.82.354 1.043.247.213.66.318 1.237.318h.654v1.344h-.689c-1.013 0-1.78-.189-2.298-.566-.507-.377-.76-1.02-.76-1.927v-5.109h-1.538V25.93h1.538v-2.686h1.503v2.686zM53.3 29.854v.512h-6.788c.023 1.073.277 1.91.76 2.51.483.59 1.178.884 2.086.884 1.226 0 1.98-.46 2.262-1.379h1.521a3.079 3.079 0 0 1-1.22 1.945c-.648.495-1.503.742-2.563.742-1.355 0-2.416-.442-3.182-1.325-.766-.884-1.15-2.033-1.15-3.448 0-1.39.384-2.503 1.15-3.34.766-.837 1.815-1.256 3.146-1.256 1.262 0 2.234.401 2.917 1.202.684.79 1.037 1.774 1.06 2.953h.001zm-4.013-2.846c-.765 0-1.378.2-1.838.6-.46.39-.742.89-.848 1.504h5.144a2.206 2.206 0 0 0-.725-1.504c-.436-.4-1.013-.6-1.733-.6zm12.823-5.02h1.503v12.85h-1.45v-.954h-.39c-.635.79-1.56 1.184-2.775 1.184-1.202 0-2.156-.442-2.863-1.325-.695-.884-1.043-2.004-1.043-3.36 0-1.378.348-2.503 1.043-3.375.707-.873 1.661-1.309 2.863-1.309s2.11.395 2.723 1.185h.389v-4.897zM59.334 33.76c.93 0 1.626-.325 2.085-.973.472-.648.707-1.45.707-2.404 0-.955-.235-1.756-.707-2.404-.459-.648-1.154-.972-2.085-.972-.873 0-1.55.312-2.033.937-.472.612-.707 1.425-.707 2.439 0 1.013.235 1.832.707 2.457.483.613 1.16.92 2.033.92zM161.609 3.277c1.85 0 3.294.62 4.331 1.857 1.037 1.237 1.555 2.798 1.555 4.684 0 1.886-.518 3.447-1.555 4.685-1.037 1.237-2.481 1.856-4.331 1.856-1.863 0-3.312-.613-4.349-1.839-1.025-1.237-1.538-2.805-1.538-4.702 0-1.897.513-3.459 1.538-4.684 1.037-1.238 2.486-1.857 4.349-1.857zm-3.2 10.165c.719.978 1.786 1.467 3.2 1.467 1.414 0 2.48-.489 3.2-1.467.718-.978 1.077-2.186 1.077-3.624 0-1.437-.359-2.645-1.078-3.624-.718-.978-1.785-1.467-3.199-1.467s-2.481.49-3.2 1.467c-.719.978-1.078 2.187-1.078 3.624 0 1.438.36 2.646 1.078 3.624zm16.606-6.223v1.415h-.743c-.895 0-1.597.265-2.104.795-.494.53-.742 1.279-.742 2.245v4.455h-1.502v-8.91h1.449V8.28h.389c.566-.707 1.426-1.06 2.581-1.06h.672zm8.44-3.942h1.502V16.13h-1.45v-.955h-.389c-.636.79-1.561 1.185-2.775 1.185-1.202 0-2.157-.442-2.864-1.326-.695-.884-1.043-2.003-1.043-3.359 0-1.379.348-2.504 1.043-3.376.707-.872 1.662-1.308 2.864-1.308s2.11.395 2.722 1.184h.39V3.277zm-2.776 11.774c.93 0 1.626-.325 2.086-.972.471-.649.707-1.45.707-2.405 0-.955-.236-1.755-.707-2.404-.46-.648-1.155-.972-2.086-.972-.873 0-1.55.312-2.033.937-.471.613-.707 1.426-.707 2.44 0 1.013.236 1.831.707 2.457.483.613 1.16.919 2.033.919zm14.906-3.907v.513h-6.788c.024 1.072.277 1.909.76 2.51.483.59 1.178.883 2.086.883 1.225 0 1.98-.459 2.263-1.378h1.52a3.075 3.075 0 0 1-1.22 1.944c-.648.496-1.502.743-2.563.743-1.355 0-2.416-.442-3.182-1.326-.766-.884-1.149-2.032-1.149-3.447 0-1.39.383-2.504 1.15-3.34.765-.838 1.814-1.256 3.146-1.256 1.26 0 2.233.4 2.917 1.202.683.79 1.036 1.774 1.06 2.952zm-4.013-2.846c-.766 0-1.378.2-1.838.6-.46.39-.742.891-.849 1.504h5.145a2.204 2.204 0 0 0-.725-1.503c-.437-.4-1.014-.6-1.733-.6zm11.443-1.079v1.415h-.742c-.896 0-1.597.265-2.103.795-.496.53-.743 1.279-.743 2.245v4.455h-1.502v-8.91h1.45V8.28h.388c.565-.707 1.426-1.06 2.58-1.06h.672zm8.481-2.315h-1.59V3.278h1.59v1.626zm-.053 2.316v8.909h-1.502v-8.91h1.502v.001zm5.425 3.358l.849.142 1.008.159c1.696.295 2.545 1.19 2.545 2.687 0 .778-.324 1.438-.973 1.98-.647.542-1.543.813-2.686.813-1.226 0-2.168-.247-2.828-.742-.649-.496-1.026-1.185-1.132-2.069h1.52c.142 1.002.93 1.503 2.369 1.503.695 0 1.237-.124 1.626-.372.401-.247.601-.606.601-1.078 0-.389-.13-.695-.388-.92-.26-.223-.673-.382-1.238-.476l-1.998-.336c-1.426-.26-2.138-1.008-2.138-2.245 0-.778.294-1.409.883-1.892.602-.495 1.48-.742 2.635-.742 1.036 0 1.856.23 2.456.69.613.447.967 1.066 1.061 1.855h-1.503c-.058-.412-.276-.718-.654-.919-.377-.212-.854-.318-1.431-.318-.59 0-1.061.106-1.415.318-.342.2-.512.49-.512.867 0 .33.106.577.318.742.212.165.554.283 1.025.353zm-50.216 14.865h1.59v12.622h-1.59v-5.763h-7.054v5.763h-1.59V25.443h1.59v5.374h7.054v-5.374zm10.318 12.622v-.937h-.388c-.613.777-1.538 1.166-2.776 1.166-.978 0-1.756-.282-2.333-.848a2.766 2.766 0 0 1-.867-2.05c0-.813.284-1.509.85-2.087.565-.577 1.42-.866 2.563-.866h2.898v-.353c0-.566-.176-1.014-.53-1.344-.353-.342-.901-.512-1.644-.512-1.296 0-1.986.43-2.068 1.29h-1.503c.059-.813.407-1.45 1.043-1.91.648-.46 1.48-.689 2.493-.689 1.143 0 2.038.265 2.687.796.66.53.99 1.29.99 2.28v6.064h-1.415zm-2.793-1.079c.743 0 1.385-.241 1.928-.725.541-.495.812-1.096.812-1.803v-.813h-2.669c-1.426 0-2.139.566-2.139 1.697 0 .507.177.908.53 1.203.366.294.878.441 1.538.441zm9.434-4.472l.848.141 1.008.16c1.697.294 2.545 1.19 2.545 2.686 0 .778-.324 1.438-.972 1.98-.648.542-1.543.813-2.686.813-1.226 0-2.169-.247-2.829-.742-.648-.495-1.026-1.184-1.131-2.068h1.52c.141 1.001.931 1.502 2.369 1.502.695 0 1.237-.123 1.626-.371.4-.247.6-.607.6-1.078 0-.39-.128-.696-.388-.92-.26-.223-.672-.383-1.237-.477l-1.998-.335c-1.426-.26-2.139-1.008-2.139-2.246 0-.778.295-1.408.884-1.891.601-.495 1.48-.742 2.634-.742 1.037 0 1.856.229 2.457.689.613.448.966 1.066 1.06 1.856h-1.502c-.059-.413-.277-.719-.654-.92-.377-.212-.854-.317-1.432-.317-.589 0-1.06.105-1.414.318-.342.2-.513.489-.513.866 0 .33.107.577.319.742.211.165.553.283 1.025.354zm14.525 5.55h-1.502v-5.338c0-1.638-.755-2.457-2.264-2.457-.777 0-1.414.294-1.909.884-.495.577-.742 1.272-.742 2.086v4.826h-1.503V25.213h1.503v4.897h.389c.247-.354.601-.636 1.06-.849a3.664 3.664 0 0 1 1.591-.335c1.073 0 1.904.311 2.493.936.59.613.884 1.461.884 2.546v5.657zm10.474-4.985v.513h-6.788c.024 1.073.277 1.91.76 2.51.483.59 1.179.884 2.086.884 1.226 0 1.98-.46 2.263-1.379h1.52a3.076 3.076 0 0 1-1.22 1.945c-.648.495-1.503.742-2.563.742-1.355 0-2.416-.442-3.182-1.326-.766-.883-1.15-2.032-1.15-3.447 0-1.39.384-2.504 1.15-3.34.766-.837 1.815-1.256 3.147-1.256 1.26 0 2.233.4 2.917 1.202.683.79 1.036 1.774 1.06 2.952zm-4.013-2.845c-.766 0-1.378.2-1.838.6-.46.39-.743.89-.849 1.503h5.144a2.203 2.203 0 0 0-.724-1.503c-.436-.4-1.014-.6-1.733-.6zm12.822-5.021h1.503v12.852h-1.45v-.955h-.389c-.636.79-1.561 1.184-2.775 1.184-1.202 0-2.156-.442-2.863-1.326-.696-.883-1.044-2.003-1.044-3.358 0-1.379.348-2.504 1.044-3.376.707-.873 1.66-1.309 2.863-1.309 1.202 0 2.11.395 2.722 1.185h.39v-4.897zm-2.775 11.773c.93 0 1.626-.324 2.086-.972.471-.648.707-1.45.707-2.404 0-.955-.236-1.756-.707-2.404-.46-.649-1.155-.972-2.086-.972-.872 0-1.55.312-2.033.936-.471.613-.707 1.426-.707 2.44 0 1.013.236 1.832.707 2.457.483.613 1.16.92 2.033.92zm110.653-20.212V4.152h2.651l3.182 5.923h.389l3.129-5.923h2.67v12.622h-1.557V5.955h-.388l-3.236 5.993h-1.66l-3.236-5.993h-.389v10.82h-1.555zm20.758 0v-.937h-.389c-.612.778-1.538 1.167-2.775 1.167-.978 0-1.756-.283-2.334-.849a2.766 2.766 0 0 1-.866-2.05c0-.813.283-1.508.849-2.086.565-.578 1.42-.866 2.563-.866h2.899v-.354c0-.565-.177-1.013-.53-1.344-.354-.341-.902-.512-1.644-.512-1.296 0-1.986.43-2.069 1.29h-1.502c.06-.812.406-1.45 1.043-1.91.648-.458 1.479-.688 2.492-.688 1.143 0 2.039.265 2.687.795.66.53.99 1.29.99 2.281v6.063h-1.414zm-2.793-1.078a2.8 2.8 0 0 0 1.927-.725c.542-.495.813-1.096.813-1.803v-.813h-2.67c-1.425 0-2.138.566-2.138 1.697 0 .507.176.907.53 1.202.366.294.878.442 1.538.442zm15.055 1.078h-1.609l-2.545-4.844h-.39l-2.05 2.264v2.58h-1.502V3.923h1.502v8.414l4.207-4.472h1.786l-2.563 2.74 3.164 6.17zm9.4-4.985v.513h-6.789c.024 1.072.277 1.909.76 2.51.484.59 1.18.883 2.087.883 1.225 0 1.98-.459 2.262-1.378h1.52a3.078 3.078 0 0 1-1.219 1.944c-.648.496-1.503.743-2.563.743-1.356 0-2.416-.442-3.182-1.326-.767-.884-1.15-2.032-1.15-3.447 0-1.39.383-2.504 1.15-3.34.766-.837 1.815-1.256 3.146-1.256 1.261 0 2.233.4 2.917 1.202.683.79 1.037 1.774 1.06 2.952zm-4.013-2.846c-.766 0-1.379.2-1.839.6-.46.39-.742.891-.848 1.504h5.144a2.207 2.207 0 0 0-.725-1.503c-.436-.4-1.013-.6-1.732-.6zm11.443-1.078v1.414h-.742c-.896 0-1.597.265-2.104.795-.495.53-.742 1.279-.742 2.245v4.455h-1.503v-8.91h1.45v1.061h.388c.566-.707 1.427-1.06 2.581-1.06h.672zm-68.915 25.294l.849.142 1.007.158c1.697.295 2.546 1.19 2.546 2.687 0 .779-.324 1.438-.973 1.98-.648.542-1.544.813-2.687.813-1.226 0-2.168-.247-2.828-.742-.649-.495-1.025-1.184-1.131-2.068h1.52c.141 1.001.93 1.503 2.369 1.503.695 0 1.237-.124 1.626-.372.4-.247.601-.606.601-1.078 0-.39-.13-.696-.39-.92-.258-.223-.67-.383-1.236-.477l-1.998-.335c-1.426-.26-2.139-1.008-2.139-2.245 0-.779.295-1.409.884-1.892.6-.495 1.479-.742 2.634-.742 1.037 0 1.856.229 2.457.689.613.448.967 1.066 1.06 1.856h-1.502a1.183 1.183 0 0 0-.654-.92c-.377-.211-.854-.317-1.432-.317-.59 0-1.06.106-1.414.318-.342.2-.513.489-.513.866 0 .33.106.578.318.742.213.165.555.283 1.026.354zm8.196-5.674h-1.59v-1.626h1.59v1.626zm-.053 2.316v8.909h-1.502V29.8h1.502zm9.474 0h1.45v8.467c0 1.26-.372 2.257-1.114 2.987-.73.742-1.744 1.114-3.041 1.114-1.155 0-2.086-.235-2.793-.707-.696-.471-1.108-1.143-1.237-2.016h1.485c.235.967 1.078 1.45 2.527 1.45.896 0 1.562-.253 1.998-.76.448-.507.671-1.22.671-2.14v-.706h-.388c-.613.79-1.502 1.185-2.67 1.185-1.202 0-2.162-.424-2.88-1.273-.72-.848-1.079-1.938-1.079-3.27s.36-2.422 1.078-3.27c.719-.86 1.68-1.291 2.881-1.291 1.202 0 2.11.395 2.723 1.184h.389v-.954zm-2.828 7.565c.907 0 1.602-.312 2.085-.937.484-.624.725-1.39.725-2.298 0-.919-.241-1.69-.725-2.316-.483-.624-1.178-.936-2.085-.936-.861 0-1.533.294-2.016.884-.483.589-.724 1.378-.724 2.368 0 .979.24 1.762.724 2.352.483.589 1.155.883 2.016.883zm15.1 1.344h-1.502V33.37c0-1.638-.754-2.457-2.264-2.457-.777 0-1.414.294-1.909.884-.494.577-.742 1.272-.742 2.086v4.826H328.2V29.8h1.45v.955h.389c.26-.354.625-.636 1.096-.849a3.66 3.66 0 0 1 1.591-.335c1.084 0 1.92.312 2.51.936.59.613.884 1.461.884 2.546v5.657zm5.224-5.551l.849.142 1.007.158c1.697.295 2.545 1.19 2.545 2.687 0 .779-.323 1.438-.972 1.98-.648.542-1.544.813-2.686.813-1.226 0-2.17-.247-2.829-.742-.648-.495-1.025-1.184-1.131-2.068h1.52c.142 1.001.93 1.503 2.369 1.503.695 0 1.237-.124 1.626-.372.4-.247.6-.606.6-1.078 0-.39-.129-.696-.388-.92-.259-.223-.672-.383-1.237-.477l-1.998-.335c-1.426-.26-2.139-1.008-2.139-2.245 0-.779.295-1.409.884-1.892.601-.495 1.479-.742 2.634-.742 1.037 0 1.856.229 2.457.689.613.448.967 1.066 1.06 1.856h-1.502c-.059-.413-.277-.719-.654-.92-.377-.211-.854-.317-1.432-.317-.589 0-1.06.106-1.414.318-.342.2-.513.489-.513.866 0 .33.107.578.319.742.212.165.554.283 1.025.354zm12.144-2.263c.79-.884 1.862-1.326 3.217-1.326 1.356 0 2.422.442 3.2 1.326.79.884 1.184 2.003 1.184 3.359 0 1.355-.395 2.475-1.184 3.359-.778.883-1.844 1.325-3.2 1.325-1.355 0-2.427-.442-3.217-1.325-.777-.884-1.166-2.004-1.166-3.36 0-1.354.389-2.474 1.166-3.358zm1.079 5.763c.495.648 1.207.973 2.138.973.931 0 1.644-.325 2.14-.973.495-.66.742-1.462.742-2.404 0-.943-.247-1.738-.742-2.387-.496-.66-1.209-.99-2.14-.99-.93 0-1.643.33-2.138.99-.495.649-.743 1.444-.743 2.387 0 .942.248 1.744.743 2.404zm13.958-6.859v1.414h-.741c-.897 0-1.598.265-2.104.796-.495.53-.743 1.278-.743 2.245v4.455h-1.503V29.8h1.45v1.06h.39c.565-.706 1.425-1.06 2.58-1.06h.671zm8.44-3.942h1.502V38.71h-1.449v-.955h-.389c-.636.79-1.561 1.184-2.775 1.184-1.202 0-2.157-.442-2.864-1.325-.695-.884-1.043-2.004-1.043-3.36 0-1.378.348-2.503 1.043-3.375.707-.873 1.662-1.309 2.864-1.309s2.11.395 2.722 1.185h.389v-4.897zm-2.775 11.774c.93 0 1.626-.325 2.086-.973.471-.648.707-1.45.707-2.404 0-.955-.236-1.756-.707-2.404-.46-.648-1.155-.972-2.086-.972-.872 0-1.55.312-2.033.936-.472.613-.707 1.426-.707 2.44 0 1.013.235 1.832.707 2.457.483.613 1.16.92 2.033.92zm14.906-3.907v.512h-6.788c.023 1.073.277 1.91.76 2.51.483.59 1.179.884 2.086.884 1.226 0 1.98-.46 2.262-1.379h1.521a3.079 3.079 0 0 1-1.22 1.945c-.648.495-1.503.742-2.563.742-1.356 0-2.416-.442-3.182-1.325-.766-.884-1.15-2.033-1.15-3.448 0-1.39.384-2.503 1.15-3.34.766-.837 1.815-1.256 3.146-1.256 1.262 0 2.234.401 2.917 1.202.684.79 1.038 1.774 1.06 2.953zm-4.013-2.846c-.766 0-1.379.2-1.838.6-.46.39-.743.89-.849 1.504h5.144a2.203 2.203 0 0 0-.724-1.504c-.436-.4-1.014-.6-1.733-.6zm11.443-1.079v1.414h-.742c-.896 0-1.597.265-2.104.796-.495.53-.742 1.278-.742 2.245v4.455h-1.503V29.8h1.45v1.06h.389c.566-.706 1.426-1.06 2.58-1.06h.672zM485.15 3.277c1.85 0 3.294.62 4.33 1.857 1.038 1.237 1.556 2.798 1.556 4.684 0 1.886-.518 3.447-1.555 4.685-1.037 1.237-2.481 1.856-4.331 1.856-1.862 0-3.312-.613-4.349-1.839-1.025-1.237-1.538-2.805-1.538-4.702 0-1.897.513-3.459 1.538-4.684 1.037-1.238 2.487-1.857 4.349-1.857zm-3.2 10.165c.719.978 1.785 1.467 3.2 1.467 1.414 0 2.48-.489 3.2-1.467.718-.978 1.078-2.186 1.078-3.624 0-1.437-.36-2.645-1.078-3.624-.72-.978-1.786-1.467-3.2-1.467-1.415 0-2.481.49-3.2 1.467-.718.978-1.078 2.187-1.078 3.624 0 1.438.36 2.646 1.078 3.624zm16.606-6.223v1.415h-.742c-.897 0-1.597.265-2.104.795-.495.53-.743 1.279-.743 2.245v4.455h-1.502v-8.91h1.45V8.28h.388c.566-.707 1.426-1.06 2.58-1.06h.673zm8.44-3.942h1.502V16.13h-1.45v-.955h-.389c-.636.79-1.56 1.185-2.775 1.185-1.202 0-2.157-.442-2.864-1.326-.695-.884-1.043-2.003-1.043-3.359 0-1.379.348-2.504 1.043-3.376.707-.872 1.662-1.308 2.864-1.308s2.11.395 2.722 1.184h.39V3.277zm-2.776 11.774c.931 0 1.626-.325 2.086-.972.471-.649.707-1.45.707-2.405 0-.955-.236-1.755-.707-2.404-.46-.648-1.155-.972-2.086-.972-.872 0-1.55.312-2.033.937-.472.613-.707 1.426-.707 2.44 0 1.013.235 1.831.707 2.457.483.613 1.16.919 2.033.919zm14.906-3.907v.513h-6.788c.023 1.072.277 1.909.76 2.51.483.59 1.179.883 2.086.883 1.226 0 1.98-.459 2.263-1.378h1.52a3.079 3.079 0 0 1-1.22 1.944c-.648.496-1.502.743-2.563.743-1.355 0-2.416-.442-3.182-1.326-.766-.884-1.15-2.032-1.15-3.447 0-1.39.384-2.504 1.15-3.34.766-.838 1.815-1.256 3.147-1.256 1.26 0 2.233.4 2.917 1.202.683.79 1.037 1.774 1.06 2.952zm-4.012-2.846c-.767 0-1.38.2-1.84.6-.459.39-.742.891-.848 1.504h5.144a2.203 2.203 0 0 0-.724-1.503c-.436-.4-1.014-.6-1.732-.6zm11.443-1.079v1.415h-.743c-.895 0-1.597.265-2.104.795-.495.53-.742 1.279-.742 2.245v4.455h-1.502v-8.91h1.449V8.28h.389c.566-.707 1.426-1.06 2.581-1.06h.672zm8.48-2.315h-1.591V3.278h1.59v1.626zm-.053 2.316v8.909h-1.503v-8.91h1.503v.001zm5.425 3.358l.85.142 1.006.159c1.698.295 2.546 1.19 2.546 2.687 0 .778-.324 1.438-.972 1.98-.649.542-1.544.813-2.687.813-1.226 0-2.169-.247-2.829-.742-.648-.496-1.025-1.185-1.13-2.069h1.52c.14 1.002.93 1.503 2.368 1.503.695 0 1.238-.124 1.626-.372a1.19 1.19 0 0 0 .601-1.078c0-.389-.13-.695-.389-.92-.259-.223-.671-.382-1.237-.476l-1.997-.336c-1.426-.26-2.14-1.008-2.14-2.245 0-.778.295-1.409.885-1.892.6-.495 1.478-.742 2.633-.742 1.038 0 1.856.23 2.458.69.613.447.966 1.066 1.06 1.855h-1.502c-.059-.412-.277-.718-.654-.919-.377-.212-.855-.318-1.432-.318-.59 0-1.06.106-1.414.318-.342.2-.513.49-.513.867 0 .33.106.577.318.742.212.165.554.283 1.025.353zm16.617-3.359v1.415h-.743c-.895 0-1.597.265-2.103.795-.495.53-.743 1.279-.743 2.245v4.455h-1.502v-8.91h1.45V8.28h.389c.565-.707 1.425-1.06 2.58-1.06h.672zm9.695 3.925v.513h-6.789c.024 1.072.277 1.909.76 2.51.483.59 1.179.883 2.087.883 1.225 0 1.98-.459 2.262-1.378h1.52a3.075 3.075 0 0 1-1.22 1.944c-.647.496-1.502.743-2.562.743-1.356 0-2.416-.442-3.182-1.326-.767-.884-1.15-2.032-1.15-3.447 0-1.39.383-2.504 1.15-3.34.766-.838 1.815-1.256 3.146-1.256 1.26 0 2.233.4 2.917 1.202.683.79 1.037 1.774 1.06 2.952zm-4.013-2.846c-.766 0-1.379.2-1.839.6-.46.39-.742.891-.848 1.504h5.144a2.204 2.204 0 0 0-.725-1.503c-.436-.4-1.014-.6-1.732-.6zm12.026 7.831v-.937h-.389c-.612.778-1.537 1.167-2.775 1.167-.978 0-1.756-.283-2.333-.849a2.766 2.766 0 0 1-.867-2.05c0-.813.284-1.508.849-2.086.566-.578 1.42-.866 2.563-.866h2.9v-.354c0-.566-.177-1.013-.531-1.344-.354-.342-.901-.512-1.644-.512-1.297 0-1.986.43-2.068 1.29h-1.503c.059-.813.407-1.45 1.043-1.91.648-.459 1.48-.688 2.493-.688 1.143 0 2.038.265 2.687.795.66.53.99 1.29.99 2.28v6.064h-1.415zm-2.793-1.078c.743 0 1.385-.242 1.927-.725.542-.495.813-1.096.813-1.803v-.813h-2.669c-1.426 0-2.14.565-2.14 1.696 0 .508.178.908.531 1.203.365.294.878.442 1.538.442zM585.37 3.277h1.502V16.13h-1.45v-.955h-.388c-.637.79-1.562 1.185-2.775 1.185-1.202 0-2.157-.442-2.864-1.326-.696-.884-1.043-2.003-1.043-3.359 0-1.379.347-2.504 1.043-3.376.707-.872 1.662-1.308 2.864-1.308s2.109.395 2.722 1.184h.389V3.277zm-2.776 11.774c.931 0 1.627-.325 2.087-.972.47-.649.707-1.45.707-2.405 0-.955-.236-1.755-.707-2.404-.46-.648-1.156-.972-2.087-.972-.871 0-1.55.312-2.033.937-.47.613-.707 1.426-.707 2.44 0 1.013.236 1.831.707 2.457.484.613 1.162.919 2.033.919zm9.586 4.614h-1.52l1.838-4.367-3.8-8.079h1.608l2.722 5.87h.442l2.475-5.87h1.573l-5.338 12.446zm-103.388 9.49h2.245v1.308h-2.245v4.897c0 .471.118.82.353 1.043.248.212.66.318 1.238.318h.654v1.344h-.69c-1.013 0-1.78-.189-2.298-.566-.506-.377-.76-1.02-.76-1.927v-5.109h-1.538v-1.308h1.538v-2.687h1.503v2.687zm5.196 1.097c.79-.884 1.862-1.327 3.218-1.327 1.355 0 2.422.442 3.2 1.326.789.884 1.184 2.003 1.184 3.359 0 1.355-.395 2.475-1.185 3.358-.777.884-1.844 1.326-3.2 1.326-1.355 0-2.427-.442-3.217-1.326-.777-.883-1.166-2.003-1.166-3.358s.389-2.475 1.166-3.359zm1.08 5.762c.494.648 1.207.972 2.138.972.93 0 1.644-.324 2.139-.972.495-.66.742-1.462.742-2.404 0-.943-.247-1.738-.742-2.387-.495-.66-1.208-.99-2.14-.99-.93 0-1.643.33-2.138.99-.495.649-.742 1.444-.742 2.387 0 .942.247 1.744.742 2.404zm18.4-7.089c1.203 0 2.151.436 2.847 1.309.707.872 1.06 1.997 1.06 3.376 0 1.355-.353 2.475-1.06 3.358-.696.884-1.644 1.326-2.847 1.326-1.213 0-2.138-.395-2.774-1.184h-.39v.955h-1.45V25.213h1.503v4.897h.39c.588-.79 1.496-1.185 2.721-1.185zm-.335 8.061c.872 0 1.544-.306 2.015-.919.483-.624.725-1.444.725-2.457s-.242-1.827-.725-2.44c-.471-.624-1.143-.936-2.015-.936-.931 0-1.632.323-2.104.972-.46.648-.689 1.45-.689 2.404 0 .955.23 1.756.689 2.404.472.648 1.173.972 2.104.972zm14.322-3.907v.513h-6.787c.023 1.073.277 1.91.76 2.51.483.59 1.178.884 2.086.884 1.225 0 1.98-.46 2.262-1.379h1.52a3.079 3.079 0 0 1-1.22 1.945c-.648.495-1.502.742-2.562.742-1.356 0-2.417-.442-3.182-1.326-.766-.883-1.15-2.032-1.15-3.447 0-1.39.384-2.504 1.15-3.34.765-.837 1.814-1.256 3.146-1.256 1.261 0 2.234.4 2.917 1.202.684.79 1.037 1.774 1.06 2.952zm-4.012-2.845c-.766 0-1.38.2-1.838.6-.46.39-.743.89-.849 1.503h5.144a2.206 2.206 0 0 0-.725-1.503c-.436-.4-1.013-.6-1.732-.6zm13.747 2.28l.848.141 1.008.16c1.697.294 2.546 1.19 2.546 2.686 0 .778-.325 1.438-.973 1.98-.648.542-1.544.813-2.687.813-1.226 0-2.168-.247-2.828-.742-.649-.495-1.025-1.184-1.132-2.068h1.52c.142 1.001.932 1.502 2.37 1.502.695 0 1.237-.123 1.626-.371.4-.247.601-.607.601-1.078 0-.39-.13-.696-.389-.92-.26-.223-.672-.383-1.237-.477l-1.998-.335c-1.426-.26-2.14-1.008-2.14-2.246 0-.778.296-1.408.885-1.891.601-.495 1.479-.742 2.634-.742 1.037 0 1.856.229 2.457.689.613.448.966 1.066 1.06 1.856h-1.502a1.183 1.183 0 0 0-.654-.92c-.377-.212-.855-.317-1.432-.317-.59 0-1.06.105-1.414.318-.342.2-.513.489-.513.866 0 .33.106.577.319.742.212.165.553.283 1.025.354zm14.525 5.55h-1.503v-5.338c0-1.638-.754-2.457-2.262-2.457-.778 0-1.415.294-1.91.884-.495.577-.742 1.272-.742 2.086v4.826h-1.503V25.213h1.503v4.897h.39c.246-.354.6-.636 1.06-.849a3.66 3.66 0 0 1 1.59-.335c1.073 0 1.904.311 2.493.936.589.613.884 1.461.884 2.546v5.657zm8.423 0v-.936h-.388c-.613.777-1.538 1.166-2.776 1.166-.978 0-1.756-.282-2.333-.848a2.766 2.766 0 0 1-.867-2.05c0-.813.283-1.509.85-2.087.564-.577 1.42-.866 2.562-.866h2.9v-.353c0-.566-.178-1.014-.531-1.344-.354-.342-.901-.512-1.644-.512-1.296 0-1.986.43-2.068 1.29h-1.503c.06-.813.406-1.45 1.043-1.91.649-.46 1.479-.689 2.492-.689 1.144 0 2.04.265 2.688.796.66.53.99 1.29.99 2.28v6.064h-1.415zm-2.793-1.078a2.8 2.8 0 0 0 1.927-.725c.542-.495.813-1.096.813-1.803v-.813h-2.669c-1.426 0-2.14.566-2.14 1.697 0 .507.178.908.531 1.203.366.294.878.441 1.538.441zm12.05-7.831v1.414h-.743c-.895 0-1.597.265-2.103.796-.495.53-.743 1.278-.743 2.245v4.455h-1.502v-8.91h1.45v1.06h.389c.565-.707 1.425-1.06 2.58-1.06h.672zm9.695 3.924v.513H572.3c.024 1.073.277 1.91.76 2.51.484.59 1.179.884 2.087.884 1.225 0 1.98-.46 2.262-1.379h1.52a3.078 3.078 0 0 1-1.219 1.945c-.648.495-1.503.742-2.563.742-1.356 0-2.416-.442-3.182-1.326-.767-.883-1.15-2.032-1.15-3.447 0-1.39.383-2.504 1.15-3.34.766-.837 1.815-1.256 3.146-1.256 1.26 0 2.233.4 2.917 1.202.683.79 1.037 1.774 1.06 2.952zm-4.013-2.845c-.766 0-1.379.2-1.839.6-.46.39-.742.89-.848 1.503h5.144a2.207 2.207 0 0 0-.725-1.503c-.436-.4-1.014-.6-1.732-.6zm12.822-5.021h1.502v12.852h-1.45v-.955h-.388c-.637.79-1.562 1.184-2.775 1.184-1.202 0-2.157-.442-2.864-1.326-.696-.883-1.043-2.003-1.043-3.358 0-1.379.347-2.504 1.043-3.376.707-.873 1.662-1.309 2.864-1.309s2.109.395 2.722 1.185h.389v-4.897zm-2.776 11.773c.931 0 1.627-.324 2.087-.972.47-.648.707-1.45.707-2.404 0-.955-.236-1.756-.707-2.404-.46-.649-1.156-.972-2.087-.972-.871 0-1.55.312-2.033.936-.47.613-.707 1.426-.707 2.44 0 1.013.236 1.832.707 2.457.484.613 1.162.92 2.033.92z" fill="#000" fill-rule="nonzero"/><path d="M502.58 82.505a3.15 3.15 0 0 1 3.151-3.15h64.274a3.15 3.15 0 0 1 3.15 3.15v134.218a3.15 3.15 0 0 1-3.15 3.15H505.73a3.15 3.15 0 0 1-3.15-3.15V82.505z" fill="#003831" fill-rule="nonzero"/><rect fill="#FF7235" fill-rule="nonzero" opacity=".6" x="537.553" y="87.141" width="29.616" height="5.671" rx="2.835"/><rect fill="#898990" fill-rule="nonzero" x="508.567" y="87.141" width="21.109" height="5.671" rx="2.835"/><rect fill="#898990" fill-rule="nonzero" x="508.567" y="106.045" width="21.109" height="5.671" rx="2.835"/><rect fill="#898990" fill-rule="nonzero" x="508.567" y="124.949" width="21.109" height="5.671" rx="2.835"/><rect fill="#898990" fill-rule="nonzero" x="508.567" y="96.593" width="19.219" height="5.671" rx="2.835"/><rect fill="#898990" fill-rule="nonzero" x="508.567" y="134.401" width="19.219" height="5.671" rx="2.835"/><rect fill="#898990" fill-rule="nonzero" x="508.567" y="115.497" width="19.219" height="5.671" rx="2.835"/><rect fill="#898990" fill-rule="nonzero" x="508.567" y="159.696" width="21.109" height="5.671" rx="2.835"/><rect fill="#898990" fill-rule="nonzero" x="508.567" y="178.6" width="21.109" height="5.671" rx="2.835"/><rect fill="#898990" fill-rule="nonzero" x="508.567" y="197.504" width="21.109" height="5.671" rx="2.835"/><rect fill="#898990" fill-rule="nonzero" x="508.567" y="169.148" width="19.219" height="5.671" rx="2.835"/><rect fill="#898990" fill-rule="nonzero" x="508.567" y="206.955" width="19.219" height="5.671" rx="2.835"/><rect fill="#898990" fill-rule="nonzero" x="508.567" y="188.052" width="19.219" height="5.671" rx="2.835"/><rect fill="#FF7235" fill-rule="nonzero" opacity=".6" x="537.553" y="96.593" width="29.616" height="5.671" rx="2.835"/><rect fill="#FF7235" fill-rule="nonzero" opacity=".6" x="537.553" y="106.045" width="29.616" height="5.671" rx="2.835"/><rect fill="#FF7235" fill-rule="nonzero" opacity=".6" x="537.553" y="115.497" width="29.616" height="5.671" rx="2.835"/><rect fill="#FF7235" fill-rule="nonzero" opacity=".6" x="537.553" y="124.949" width="29.616" height="5.671" rx="2.835"/><rect fill="#FF7235" fill-rule="nonzero" opacity=".6" x="537.553" y="134.401" width="29.616" height="5.671" rx="2.835"/><rect fill="#00AE99" fill-rule="nonzero" opacity=".6" x="537.553" y="159.696" width="29.616" height="5.671" rx="2.835"/><rect fill="#00AE99" fill-rule="nonzero" opacity=".6" x="537.553" y="169.148" width="29.616" height="5.671" rx="2.835"/><rect fill="#00AE99" fill-rule="nonzero" opacity=".6" x="537.553" y="178.6" width="29.616" height="5.671" rx="2.835"/><rect fill="#00AE99" fill-rule="nonzero" opacity=".6" x="537.553" y="188.052" width="29.616" height="5.671" rx="2.835"/><rect fill="#00AE99" fill-rule="nonzero" opacity=".6" x="537.553" y="197.504" width="29.616" height="5.671" rx="2.835"/><rect fill="#00AE99" fill-rule="nonzero" opacity=".6" x="537.553" y="206.955" width="29.616" height="5.671" rx="2.835"/><path d="M502.58 146.275h70.575m-70.574 7.562h70.574" stroke="#898890" stroke-width="1.465"/></g></svg>