<svg width="946" height="334" viewBox="0 0 946 334" fill="none" xmlns="http://www.w3.org/2000/svg">
<g clip-path="url(#clip0)">
<rect width="946" height="334" fill="white"/>
<path d="M206.061 165.061C206.646 164.475 206.646 163.525 206.061 162.939L196.515 153.393C195.929 152.808 194.979 152.808 194.393 153.393C193.808 153.979 193.808 154.929 194.393 155.515L202.879 164L194.393 172.485C193.808 173.071 193.808 174.021 194.393 174.607C194.979 175.192 195.929 175.192 196.515 174.607L206.061 165.061ZM167 165.5H205V162.5H167V165.5Z" fill="#00AE99"/>
<path d="M444.061 165.061C444.646 164.475 444.646 163.525 444.061 162.939L434.515 153.393C433.929 152.808 432.979 152.808 432.393 153.393C431.808 153.979 431.808 154.929 432.393 155.515L440.879 164L432.393 172.485C431.808 173.071 431.808 174.021 432.393 174.607C432.979 175.192 433.929 175.192 434.515 174.607L444.061 165.061ZM405 165.5H443V162.5H405V165.5Z" fill="#00AE99"/>
<path d="M714.061 165.061C714.646 164.475 714.646 163.525 714.061 162.939L704.515 153.393C703.929 152.808 702.979 152.808 702.393 153.393C701.808 153.979 701.808 154.929 702.393 155.515L710.879 164L702.393 172.485C701.808 173.071 701.808 174.021 702.393 174.607C702.979 175.192 703.929 175.192 704.515 174.607L714.061 165.061ZM675 165.5H713V162.5H675V165.5Z" fill="#00AE99"/>
<mask id="path-4-inside-1" fill="white">
<path fill-rule="evenodd" clip-rule="evenodd" d="M89.6857 138.236V119.867H35.8672V211.391H108.055V138.236H89.6857ZM111.922 136.303V215.258H32V116H91.6193L111.922 136.303ZM104.519 134.369L93.5529 123.403V134.369H104.519Z"/>
</mask>
<path fill-rule="evenodd" clip-rule="evenodd" d="M89.6857 138.236V119.867H35.8672V211.391H108.055V138.236H89.6857ZM111.922 136.303V215.258H32V116H91.6193L111.922 136.303ZM104.519 134.369L93.5529 123.403V134.369H104.519Z" fill="#00AE99"/>
<path d="M91.6193 136.303H89.6857V138.236H91.6193V136.303ZM89.6857 116V136.303H93.5529V116H89.6857ZM91.6193 138.236H111.922V134.369H91.6193V138.236ZM89.6857 138.236H85.8185V142.104H89.6857V138.236ZM89.6857 119.867H93.5529V116H89.6857V119.867ZM35.8672 119.867V116H32V119.867H35.8672ZM35.8672 211.391H32V215.258H35.8672V211.391ZM108.055 211.391V215.258H111.922V211.391H108.055ZM108.055 138.236H111.922V134.369H108.055V138.236ZM111.922 136.303H115.789V134.701L114.657 133.568L111.922 136.303ZM111.922 215.258V219.125H115.789V215.258H111.922ZM32 215.258H28.1328V219.125H32V215.258ZM32 116V112.133H28.1328V116H32ZM91.6193 116L94.3538 113.265L93.2211 112.133H91.6193V116ZM93.5529 123.403L96.2874 120.668L89.6857 114.066V123.403H93.5529ZM104.519 134.369V138.236H113.856L107.254 131.635L104.519 134.369ZM93.5529 134.369H89.6857V138.236H93.5529V134.369ZM35.8672 123.734H89.6857V116H35.8672V123.734ZM39.7344 211.391V119.867H32V211.391H39.7344ZM108.055 207.524H35.8672V215.258H108.055V207.524ZM104.188 138.236V211.391H111.922V138.236H104.188ZM90.8184 126.137L101.785 137.104L107.254 131.635L96.2874 120.668L90.8184 126.137ZM97.4201 134.369V123.403H89.6857V134.369H97.4201ZM104.519 130.502H93.5529V138.236H104.519V130.502ZM85.8185 119.867V138.236H93.5529V119.867H85.8185ZM89.6857 142.104H108.055V134.369H89.6857V142.104ZM108.055 136.303V215.258H115.789V136.303H108.055ZM111.922 211.391H32V219.125H111.922V211.391ZM35.8672 215.258V116H28.1328V215.258H35.8672ZM32 119.867H91.6193V112.133H32V119.867ZM88.8848 118.735L109.188 139.037L114.657 133.568L94.3538 113.265L88.8848 118.735Z" fill="#00AE99" mask="url(#path-4-inside-1)"/>
<path d="M62.5969 152.099V152.551C63.061 152.76 63.4439 153.102 63.7455 153.578C64.0587 154.054 64.2154 154.587 64.2154 155.179C64.2154 156.27 63.8557 157.145 63.1364 157.807C62.4171 158.456 61.3498 158.781 59.9344 158.781H53.9479V146.356H59.7778C61.0887 146.356 62.0981 146.669 62.8058 147.296C63.5135 147.922 63.8673 148.705 63.8673 149.645C63.8673 150.202 63.7513 150.701 63.5193 151.142C63.2988 151.571 62.9914 151.89 62.5969 152.099ZM56.5409 151.281H59.4645C60.6247 151.281 61.2047 150.817 61.2047 149.889C61.2047 148.972 60.6189 148.514 59.4471 148.514H56.5409V151.281ZM56.5409 156.571H59.5515C60.8857 156.571 61.5528 156.061 61.5528 155.04C61.5528 153.984 60.8973 153.456 59.5863 153.456H56.5409V156.571ZM74.3198 146.356H76.9127V154.204C76.9127 155.747 76.4603 156.937 75.5553 157.772C74.662 158.596 73.3742 159.007 71.692 159.007C70.033 159.007 68.751 158.596 67.8461 157.772C66.9527 156.937 66.5061 155.747 66.5061 154.204V146.356H69.099V154.152C69.099 154.93 69.3253 155.55 69.7777 156.014C70.2418 156.467 70.8857 156.693 71.7094 156.693C72.5447 156.693 73.1886 156.467 73.6411 156.014C74.0935 155.55 74.3198 154.93 74.3198 154.152V146.356ZM83.974 151.316H84.4613L87.1238 146.356H89.8734L85.5228 154.361V158.781H82.9125V154.361L78.5793 146.356H81.3114L83.974 151.316Z" fill="#00AE99"/>
<line x1="46.8242" y1="170.463" x2="97.0978" y2="170.463" stroke="#00AE99" stroke-width="3.22266"/>
<line x1="46.8242" y1="187.865" x2="97.0978" y2="187.865" stroke="#00AE99" stroke-width="3.22266"/>
<line x1="46.8242" y1="179.487" x2="86.1407" y2="179.487" stroke="#00AE99" stroke-width="3.22266"/>
<line x1="46.8242" y1="196.889" x2="86.1407" y2="196.889" stroke="#00AE99" stroke-width="3.22266"/>
<rect x="262.482" y="118.482" width="87.6978" height="87.6978" stroke="#00AE99" stroke-width="4.96403"/>
<rect x="260" y="116" width="30.6115" height="30.6115" fill="#00AE99"/>
<rect x="290.611" y="146.611" width="14.8921" height="14.8921" fill="#00AE99"/>
<rect x="305.503" y="130.892" width="14.8921" height="15.7194" fill="#00AE99"/>
<rect x="320.396" y="146.611" width="15.7194" height="14.8921" fill="#00AE99"/>
<rect x="305.503" y="161.503" width="14.8921" height="14.8921" fill="#00AE99"/>
<rect x="320.396" y="176.396" width="15.7194" height="15.7194" fill="#00AE99"/>
<rect x="336.115" y="161.503" width="14.8921" height="14.8921" fill="#00AE99"/>
<rect x="290.611" y="161.503" width="14.8921" height="14.8921" fill="#00AE99"/>
<rect x="320.396" y="116" width="15.7194" height="14.8921" fill="#00AE99"/>
<rect x="274.892" y="176.396" width="15.7194" height="15.7194" fill="#00AE99"/>
<rect x="260" y="192.115" width="14.8921" height="14.8921" fill="#00AE99"/>
<rect x="290.611" y="191.288" width="14.8921" height="14.8921" fill="#00AE99"/>
<rect x="305.503" y="191.288" width="14.8921" height="14.8921" fill="#00AE99"/>
<rect x="260" y="161.503" width="14.8921" height="14.8921" fill="#00AE99"/>
<path d="M557.493 283.685C563.929 283.685 569.164 278.373 569.164 271.843C569.165 265.313 563.929 260 557.493 260C551.058 260 545.822 265.313 545.822 271.842C545.822 278.373 551.058 283.685 557.493 283.685Z" fill="#003831"/>
<path d="M578.986 308.181C578.913 296.219 569.3 286.51 557.493 286.51C545.642 286.51 536 296.294 536 308.319C536 308.695 536.3 309 536.671 309H578.316C578.321 309 578.327 309 578.329 309C578.7 309 579 308.695 579 308.319C579 308.272 578.995 308.225 578.986 308.181Z" fill="#003831"/>
<path d="M71.4933 283.685C77.9287 283.685 83.1642 278.373 83.1642 271.843C83.1648 265.313 77.9287 260 71.4933 260C65.0579 260 59.8218 265.313 59.8218 271.842C59.8218 278.373 65.0579 283.685 71.4933 283.685Z" fill="#003831"/>
<path d="M92.9859 308.181C92.9128 296.219 83.2996 286.51 71.4933 286.51C59.642 286.51 50 296.294 50 308.319C50 308.695 50.3005 309 50.6707 309H92.3159C92.3213 309 92.3266 309 92.3293 309C92.7002 309 93 308.695 93 308.319C93 308.272 92.9953 308.225 92.9859 308.181Z" fill="#003831"/>
<rect x="513.482" y="118.482" width="87.6978" height="87.6978" stroke="#00AE99" stroke-width="4.96403"/>
<rect x="511" y="116" width="30.6115" height="30.6115" fill="#00AE99"/>
<rect x="541.611" y="146.611" width="14.8921" height="14.8921" fill="#00AE99"/>
<rect x="556.503" y="130.892" width="14.8921" height="15.7194" fill="#00AE99"/>
<rect x="571.396" y="146.611" width="15.7194" height="14.8921" fill="#00AE99"/>
<rect x="556.503" y="161.503" width="14.8921" height="14.8921" fill="#00AE99"/>
<rect x="571.396" y="176.396" width="15.7194" height="15.7194" fill="#00AE99"/>
<rect x="587.115" y="161.503" width="14.8921" height="14.8921" fill="#00AE99"/>
<rect x="541.611" y="161.503" width="14.8921" height="14.8921" fill="#00AE99"/>
<rect x="571.396" y="116" width="15.7194" height="14.8921" fill="#00AE99"/>
<rect x="525.892" y="176.396" width="15.7194" height="15.7194" fill="#00AE99"/>
<rect x="511" y="192.115" width="14.8921" height="14.8921" fill="#00AE99"/>
<rect x="541.611" y="191.288" width="14.8921" height="14.8921" fill="#00AE99"/>
<rect x="556.503" y="191.288" width="14.8921" height="14.8921" fill="#00AE99"/>
<rect x="511" y="161.503" width="14.8921" height="14.8921" fill="#00AE99"/>
<path d="M626.5 203.248C626.5 220.595 613.415 234.358 597.631 234.358C581.847 234.358 568.762 220.595 568.762 203.248C568.762 185.902 581.847 172.139 597.631 172.139C613.415 172.139 626.5 185.902 626.5 203.248Z" fill="white" stroke="#00AE99" stroke-width="5"/>
<path d="M600.711 180.255C599.579 180.128 598.444 180.078 597.297 180.101C594.158 180.155 591.145 180.759 588.333 181.852C587.382 182.222 586.503 182.63 585.714 183.061C585.309 183.283 584.978 183.483 584.779 183.619C584.067 184.071 583.875 185.11 584.372 185.835C584.868 186.595 585.864 186.76 586.645 186.22C586.803 186.104 587.068 185.936 587.395 185.747C588.042 185.375 588.769 185.023 589.561 184.703C595.696 182.228 602.533 182.644 609.666 186.323C610.407 186.752 611.401 186.485 611.837 185.725C612.316 184.978 612.002 184 611.132 183.52C607.693 181.729 604.202 180.644 600.711 180.255ZM583.249 191.009C581.904 192.102 580.701 193.309 579.666 194.584C579.136 195.237 578.714 195.824 578.474 196.223C577.995 196.945 578.194 197.917 578.918 198.402C579.658 198.882 580.648 198.647 581.247 197.86C581.462 197.497 581.807 197.008 582.247 196.456C583.114 195.371 584.127 194.344 585.266 193.413C588.904 190.442 593.214 188.909 598.116 188.991C602.964 189.054 607.196 190.571 610.741 193.383C611.906 194.306 612.936 195.326 613.811 196.402C614.254 196.948 614.604 197.439 614.793 197.76C615.261 198.505 616.232 198.753 616.996 198.325C617.782 197.888 618.023 196.936 617.57 196.12C617.327 195.72 616.905 195.139 616.368 194.49C615.326 193.228 614.11 192.034 612.744 190.953C608.586 187.661 603.696 185.883 598.167 185.81C592.531 185.735 587.523 187.538 583.249 191.009ZM586.47 195.091C580.14 200.269 578.183 208.732 581.467 218.175C581.746 219.005 582.663 219.446 583.513 219.166C584.351 218.882 584.802 217.957 584.493 217.142C581.583 208.797 583.084 202.015 588.523 197.492C593.098 193.796 600.729 193.381 606.063 196.637C608.661 198.255 610.908 201.123 612.077 204.266C613.117 207.005 613.18 209.901 612.257 211.28C611.423 212.556 609.685 213.137 608.022 212.721C606.175 212.258 605.17 210.953 605.114 208.841C605.051 205.341 602.397 202.624 598.808 202.216C595.331 201.806 592.115 203.837 591.287 207.109C589.332 214.532 594.863 223.113 603.765 225.86C604.612 226.114 605.506 225.656 605.787 224.824C606.056 223.949 605.579 223.052 604.706 222.805C597.556 220.61 592.913 213.552 594.394 207.855C594.843 206.079 596.372 205.183 598.501 205.374C600.622 205.615 601.882 206.887 601.882 208.888C601.987 212.294 604.144 215.027 607.229 215.802C610.228 216.554 613.339 215.456 614.948 213.017C616.563 210.623 616.595 207.142 615.103 203.169C613.628 199.282 611.008 195.965 607.753 193.936C604.443 191.897 600.515 190.957 596.555 191.235C592.75 191.503 589.156 192.876 586.47 195.091ZM597.34 196.572C592.951 196.726 589.159 199.085 587.035 203.077C584.562 207.688 584.759 212.887 587.386 218.286C587.774 219.08 588.212 219.866 588.695 220.642C589.405 221.781 590.188 222.861 591.016 223.854C591.44 224.362 591.821 224.785 592.078 225.041C592.686 225.667 593.687 225.678 594.332 225.066C594.969 224.461 594.983 223.513 594.369 222.831C594.14 222.597 593.811 222.227 593.443 221.779C592.719 220.9 592.035 219.947 591.414 218.945C590.997 218.272 590.62 217.592 590.284 216.907C588.068 212.388 587.871 208.291 589.86 204.579C592.051 200.519 596.088 198.858 600.406 200.095C604.708 201.337 607.475 204.94 607.415 209.423C607.313 210.29 607.969 211.054 608.868 211.105C609.759 211.183 610.506 210.491 610.58 209.504C610.705 203.633 606.93 198.664 601.302 197.04C599.957 196.667 598.634 196.508 597.34 196.572ZM596.283 209.118C596.292 209.582 596.373 210.275 596.521 211.046C596.812 212.554 597.303 213.981 597.998 215.275C598.055 215.38 598.113 215.484 598.171 215.586C600.59 219.656 605.131 221.713 611.047 221.166C611.932 221.115 612.6 220.377 612.55 219.487C612.497 218.58 611.71 217.934 610.743 218.008C605.809 218.456 602.832 217.169 600.944 213.983C600.847 213.82 600.754 213.654 600.667 213.484C600.189 212.559 599.851 211.535 599.653 210.453C599.552 209.904 599.497 209.41 599.492 209.082C599.492 208.192 598.766 207.487 597.846 207.486C596.958 207.512 596.257 208.242 596.283 209.118Z" fill="#00AE99"/>
<path d="M40.2029 6.825C42.8196 6.825 44.8613 7.7 46.3279 9.45C47.7946 11.2 48.5279 13.4083 48.5279 16.075C48.5279 18.7417 47.7946 20.95 46.3279 22.7C44.8613 24.45 42.8196 25.325 40.2029 25.325C37.5696 25.325 35.5196 24.4583 34.0529 22.725C32.6029 20.975 31.8779 18.7583 31.8779 16.075C31.8779 13.3917 32.6029 11.1833 34.0529 9.45C35.5196 7.7 37.5696 6.825 40.2029 6.825ZM35.6779 21.2C36.6946 22.5833 38.2029 23.275 40.2029 23.275C42.2029 23.275 43.7113 22.5833 44.7279 21.2C45.7446 19.8167 46.2529 18.1083 46.2529 16.075C46.2529 14.0417 45.7446 12.3333 44.7279 10.95C43.7113 9.56667 42.2029 8.875 40.2029 8.875C38.2029 8.875 36.6946 9.56667 35.6779 10.95C34.6613 12.3333 34.1529 14.0417 34.1529 16.075C34.1529 18.1083 34.6613 19.8167 35.6779 21.2ZM59.1621 12.4V14.4H58.1121C56.8454 14.4 55.8538 14.775 55.1371 15.525C54.4371 16.275 54.0871 17.3333 54.0871 18.7V25H51.9621V12.4H54.0121V13.9H54.5621C55.3621 12.9 56.5788 12.4 58.2121 12.4H59.1621ZM71.0975 6.825H73.2225V25H71.1725V23.65H70.6225C69.7225 24.7667 68.4141 25.325 66.6975 25.325C64.9975 25.325 63.6475 24.7 62.6475 23.45C61.6641 22.2 61.1725 20.6167 61.1725 18.7C61.1725 16.75 61.6641 15.1583 62.6475 13.925C63.6475 12.6917 64.9975 12.075 66.6975 12.075C68.3975 12.075 69.6808 12.6333 70.5475 13.75H71.0975V6.825ZM67.1725 23.475C68.4891 23.475 69.4725 23.0167 70.1225 22.1C70.7891 21.1833 71.1225 20.05 71.1225 18.7C71.1225 17.35 70.7891 16.2167 70.1225 15.3C69.4725 14.3833 68.4891 13.925 67.1725 13.925C65.9391 13.925 64.9808 14.3667 64.2975 15.25C63.6308 16.1167 63.2975 17.2667 63.2975 18.7C63.2975 20.1333 63.6308 21.2917 64.2975 22.175C64.9808 23.0417 65.9391 23.475 67.1725 23.475ZM88.2533 17.95V18.675H78.6533C78.6867 20.1917 79.045 21.375 79.7283 22.225C80.4117 23.0583 81.395 23.475 82.6783 23.475C84.4117 23.475 85.4783 22.825 85.8783 21.525H88.0283C87.8117 22.6583 87.2367 23.575 86.3033 24.275C85.3867 24.975 84.1783 25.325 82.6783 25.325C80.7617 25.325 79.2617 24.7 78.1783 23.45C77.095 22.2 76.5533 20.575 76.5533 18.575C76.5533 16.6083 77.095 15.0333 78.1783 13.85C79.2617 12.6667 80.745 12.075 82.6283 12.075C84.4117 12.075 85.7867 12.6417 86.7533 13.775C87.72 14.8917 88.22 16.2833 88.2533 17.95ZM82.5783 13.925C81.495 13.925 80.6283 14.2083 79.9783 14.775C79.3283 15.325 78.9283 16.0333 78.7783 16.9H86.0533C85.9867 16.05 85.645 15.3417 85.0283 14.775C84.4117 14.2083 83.595 13.925 82.5783 13.925ZM98.7617 12.4V14.4H97.7117C96.4451 14.4 95.4534 14.775 94.7367 15.525C94.0367 16.275 93.6867 17.3333 93.6867 18.7V25H91.5617V12.4H93.6117V13.9H94.1617C94.9617 12.9 96.1784 12.4 97.8117 12.4H98.7617ZM31.7786 50.925H34.1536C33.7703 52.575 32.9703 53.8917 31.7536 54.875C30.5369 55.8417 28.9786 56.325 27.0786 56.325C24.4786 56.325 22.4536 55.4667 21.0036 53.75C19.5536 52.0333 18.8286 49.8083 18.8286 47.075C18.8286 44.3417 19.5619 42.1167 21.0286 40.4C22.4953 38.6833 24.5203 37.825 27.1036 37.825C28.9036 37.825 30.4036 38.275 31.6036 39.175C32.8036 40.0583 33.5869 41.275 33.9536 42.825H31.5786C30.8786 40.8583 29.3869 39.875 27.1036 39.875C25.1369 39.875 23.6453 40.5667 22.6286 41.95C21.6119 43.3333 21.1036 45.0417 21.1036 47.075C21.1036 49.125 21.6036 50.8417 22.6036 52.225C23.6203 53.5917 25.1119 54.275 27.0786 54.275C28.3119 54.275 29.3286 53.9833 30.1286 53.4C30.9286 52.8 31.4786 51.975 31.7786 50.925ZM44.6479 43.4V45.4H43.5979C42.3313 45.4 41.3396 45.775 40.6229 46.525C39.9229 47.275 39.5729 48.3333 39.5729 49.7V56H37.4479V43.4H39.4979V44.9H40.0479C40.8479 43.9 42.0646 43.4 43.6979 43.4H44.6479ZM58.3583 48.95V49.675H48.7583C48.7916 51.1917 49.15 52.375 49.8333 53.225C50.5166 54.0583 51.5 54.475 52.7833 54.475C54.5166 54.475 55.5833 53.825 55.9833 52.525H58.1333C57.9166 53.6583 57.3416 54.575 56.4083 55.275C55.4916 55.975 54.2833 56.325 52.7833 56.325C50.8666 56.325 49.3666 55.7 48.2833 54.45C47.2 53.2 46.6583 51.575 46.6583 49.575C46.6583 47.6083 47.2 46.0333 48.2833 44.85C49.3666 43.6667 50.85 43.075 52.7333 43.075C54.5166 43.075 55.8916 43.6417 56.8583 44.775C57.825 45.8917 58.325 47.2833 58.3583 48.95ZM52.6833 44.925C51.6 44.925 50.7333 45.2083 50.0833 45.775C49.4333 46.325 49.0333 47.0333 48.8833 47.9H56.1583C56.0916 47.05 55.75 46.3417 55.1333 45.775C54.5166 45.2083 53.7 44.925 52.6833 44.925ZM69.6917 56V54.675H69.1417C68.275 55.775 66.9667 56.325 65.2167 56.325C63.8334 56.325 62.7334 55.925 61.9167 55.125C61.1 54.325 60.6917 53.3583 60.6917 52.225C60.6917 51.075 61.0917 50.0917 61.8917 49.275C62.6917 48.4583 63.9 48.05 65.5167 48.05H69.6167V47.55C69.6167 46.75 69.3667 46.1167 68.8667 45.65C68.3667 45.1667 67.5917 44.925 66.5417 44.925C64.7084 44.925 63.7334 45.5333 63.6167 46.75H61.4917C61.575 45.6 62.0667 44.7 62.9667 44.05C63.8834 43.4 65.0584 43.075 66.4917 43.075C68.1084 43.075 69.375 43.45 70.2917 44.2C71.225 44.95 71.6917 46.025 71.6917 47.425V56H69.6917ZM65.7417 54.475C66.7917 54.475 67.7 54.1333 68.4667 53.45C69.2334 52.75 69.6167 51.9 69.6167 50.9V49.75H65.8417C63.825 49.75 62.8167 50.55 62.8167 52.15C62.8167 52.8667 63.0667 53.4333 63.5667 53.85C64.0834 54.2667 64.8084 54.475 65.7417 54.475ZM78.5077 43.4H81.6827V45.25H78.5077V52.175C78.5077 52.8417 78.6744 53.3333 79.0077 53.65C79.3577 53.95 79.941 54.1 80.7577 54.1H81.6827V56H80.7077C79.2744 56 78.191 55.7333 77.4577 55.2C76.741 54.6667 76.3827 53.7583 76.3827 52.475V45.25H74.2077V43.4H76.3827V39.6H78.5077V43.4ZM95.9071 48.95V49.675H86.3071C86.3405 51.1917 86.6988 52.375 87.3821 53.225C88.0655 54.0583 89.0488 54.475 90.3321 54.475C92.0655 54.475 93.1321 53.825 93.5321 52.525H95.6821C95.4655 53.6583 94.8905 54.575 93.9571 55.275C93.0405 55.975 91.8321 56.325 90.3321 56.325C88.4155 56.325 86.9155 55.7 85.8321 54.45C84.7488 53.2 84.2071 51.575 84.2071 49.575C84.2071 47.6083 84.7488 46.0333 85.8321 44.85C86.9155 43.6667 88.3988 43.075 90.2821 43.075C92.0655 43.075 93.4405 43.6417 94.4071 44.775C95.3738 45.8917 95.8738 47.2833 95.9071 48.95ZM90.2321 44.925C89.1488 44.925 88.2821 45.2083 87.6321 45.775C86.9821 46.325 86.5821 47.0333 86.4321 47.9H93.7071C93.6405 47.05 93.2988 46.3417 92.6821 45.775C92.0655 45.2083 91.2488 44.925 90.2321 44.925ZM108.366 37.825H110.491V56H108.441V54.65H107.891C106.991 55.7667 105.682 56.325 103.966 56.325C102.266 56.325 100.916 55.7 99.9155 54.45C98.9322 53.2 98.4405 51.6167 98.4405 49.7C98.4405 47.75 98.9322 46.1583 99.9155 44.925C100.916 43.6917 102.266 43.075 103.966 43.075C105.666 43.075 106.949 43.6333 107.816 44.75H108.366V37.825ZM104.441 54.475C105.757 54.475 106.741 54.0167 107.391 53.1C108.057 52.1833 108.391 51.05 108.391 49.7C108.391 48.35 108.057 47.2167 107.391 46.3C106.741 45.3833 105.757 44.925 104.441 44.925C103.207 44.925 102.249 45.3667 101.566 46.25C100.899 47.1167 100.566 48.2667 100.566 49.7C100.566 51.1333 100.899 52.2917 101.566 53.175C102.249 54.0417 103.207 54.475 104.441 54.475Z" fill="black"/>
<path d="M281.203 6.825C283.82 6.825 285.861 7.7 287.328 9.45C288.795 11.2 289.528 13.4083 289.528 16.075C289.528 18.7417 288.795 20.95 287.328 22.7C285.861 24.45 283.82 25.325 281.203 25.325C278.57 25.325 276.52 24.4583 275.053 22.725C273.603 20.975 272.878 18.7583 272.878 16.075C272.878 13.3917 273.603 11.1833 275.053 9.45C276.52 7.7 278.57 6.825 281.203 6.825ZM276.678 21.2C277.695 22.5833 279.203 23.275 281.203 23.275C283.203 23.275 284.711 22.5833 285.728 21.2C286.745 19.8167 287.253 18.1083 287.253 16.075C287.253 14.0417 286.745 12.3333 285.728 10.95C284.711 9.56667 283.203 8.875 281.203 8.875C279.203 8.875 277.695 9.56667 276.678 10.95C275.661 12.3333 275.153 14.0417 275.153 16.075C275.153 18.1083 275.661 19.8167 276.678 21.2ZM300.162 12.4V14.4H299.112C297.845 14.4 296.854 14.775 296.137 15.525C295.437 16.275 295.087 17.3333 295.087 18.7V25H292.962V12.4H295.012V13.9H295.562C296.362 12.9 297.579 12.4 299.212 12.4H300.162ZM312.097 6.825H314.222V25H312.172V23.65H311.622C310.722 24.7667 309.414 25.325 307.697 25.325C305.997 25.325 304.647 24.7 303.647 23.45C302.664 22.2 302.172 20.6167 302.172 18.7C302.172 16.75 302.664 15.1583 303.647 13.925C304.647 12.6917 305.997 12.075 307.697 12.075C309.397 12.075 310.681 12.6333 311.547 13.75H312.097V6.825ZM308.172 23.475C309.489 23.475 310.472 23.0167 311.122 22.1C311.789 21.1833 312.122 20.05 312.122 18.7C312.122 17.35 311.789 16.2167 311.122 15.3C310.472 14.3833 309.489 13.925 308.172 13.925C306.939 13.925 305.981 14.3667 305.297 15.25C304.631 16.1167 304.297 17.2667 304.297 18.7C304.297 20.1333 304.631 21.2917 305.297 22.175C305.981 23.0417 306.939 23.475 308.172 23.475ZM329.253 17.95V18.675H319.653C319.687 20.1917 320.045 21.375 320.728 22.225C321.412 23.0583 322.395 23.475 323.678 23.475C325.412 23.475 326.478 22.825 326.878 21.525H329.028C328.812 22.6583 328.237 23.575 327.303 24.275C326.387 24.975 325.178 25.325 323.678 25.325C321.762 25.325 320.262 24.7 319.178 23.45C318.095 22.2 317.553 20.575 317.553 18.575C317.553 16.6083 318.095 15.0333 319.178 13.85C320.262 12.6667 321.745 12.075 323.628 12.075C325.412 12.075 326.787 12.6417 327.753 13.775C328.72 14.8917 329.22 16.2833 329.253 17.95ZM323.578 13.925C322.495 13.925 321.628 14.2083 320.978 14.775C320.328 15.325 319.928 16.0333 319.778 16.9H327.053C326.987 16.05 326.645 15.3417 326.028 14.775C325.412 14.2083 324.595 13.925 323.578 13.925ZM339.762 12.4V14.4H338.712C337.445 14.4 336.453 14.775 335.737 15.525C335.037 16.275 334.687 17.3333 334.687 18.7V25H332.562V12.4H334.612V13.9H335.162C335.962 12.9 337.178 12.4 338.812 12.4H339.762ZM275.261 38.15H277.511V56H275.261V47.85H265.286V56H263.036V38.15H265.286V45.75H275.261V38.15ZM289.854 56V54.675H289.304C288.438 55.775 287.129 56.325 285.379 56.325C283.996 56.325 282.896 55.925 282.079 55.125C281.263 54.325 280.854 53.3583 280.854 52.225C280.854 51.075 281.254 50.0917 282.054 49.275C282.854 48.4583 284.063 48.05 285.679 48.05H289.779V47.55C289.779 46.75 289.529 46.1167 289.029 45.65C288.529 45.1667 287.754 44.925 286.704 44.925C284.871 44.925 283.896 45.5333 283.779 46.75H281.654C281.738 45.6 282.229 44.7 283.129 44.05C284.046 43.4 285.221 43.075 286.654 43.075C288.271 43.075 289.538 43.45 290.454 44.2C291.388 44.95 291.854 46.025 291.854 47.425V56H289.854ZM285.904 54.475C286.954 54.475 287.863 54.1333 288.629 53.45C289.396 52.75 289.779 51.9 289.779 50.9V49.75H286.004C283.988 49.75 282.979 50.55 282.979 52.15C282.979 52.8667 283.229 53.4333 283.729 53.85C284.246 54.2667 284.971 54.475 285.904 54.475ZM299.245 48.15L300.445 48.35L301.87 48.575C304.27 48.9917 305.47 50.2583 305.47 52.375C305.47 53.475 305.012 54.4083 304.095 55.175C303.179 55.9417 301.912 56.325 300.295 56.325C298.562 56.325 297.229 55.975 296.295 55.275C295.379 54.575 294.845 53.6 294.695 52.35H296.845C297.045 53.7667 298.162 54.475 300.195 54.475C301.179 54.475 301.945 54.3 302.495 53.95C303.062 53.6 303.345 53.0917 303.345 52.425C303.345 51.875 303.162 51.4417 302.795 51.125C302.429 50.8083 301.845 50.5833 301.045 50.45L298.22 49.975C296.204 49.6083 295.195 48.55 295.195 46.8C295.195 45.7 295.612 44.8083 296.445 44.125C297.295 43.425 298.537 43.075 300.17 43.075C301.637 43.075 302.795 43.4 303.645 44.05C304.512 44.6833 305.012 45.5583 305.145 46.675H303.02C302.937 46.0917 302.629 45.6583 302.095 45.375C301.562 45.075 300.887 44.925 300.07 44.925C299.237 44.925 298.57 45.075 298.07 45.375C297.587 45.6583 297.345 46.0667 297.345 46.6C297.345 47.0667 297.495 47.4167 297.795 47.65C298.095 47.8833 298.579 48.05 299.245 48.15ZM319.787 56H317.662V48.45C317.662 46.1333 316.595 44.975 314.462 44.975C313.362 44.975 312.462 45.3917 311.762 46.225C311.062 47.0417 310.712 48.025 310.712 49.175V56H308.587V37.825H310.712V44.75H311.262C311.612 44.25 312.112 43.85 312.762 43.55C313.429 43.2333 314.179 43.075 315.012 43.075C316.529 43.075 317.704 43.5167 318.537 44.4C319.37 45.2667 319.787 46.4667 319.787 48V56ZM334.6 48.95V49.675H325C325.033 51.1917 325.392 52.375 326.075 53.225C326.758 54.0583 327.742 54.475 329.025 54.475C330.758 54.475 331.825 53.825 332.225 52.525H334.375C334.158 53.6583 333.583 54.575 332.65 55.275C331.733 55.975 330.525 56.325 329.025 56.325C327.108 56.325 325.608 55.7 324.525 54.45C323.442 53.2 322.9 51.575 322.9 49.575C322.9 47.6083 323.442 46.0333 324.525 44.85C325.608 43.6667 327.092 43.075 328.975 43.075C330.758 43.075 332.133 43.6417 333.1 44.775C334.067 45.8917 334.567 47.2833 334.6 48.95ZM328.925 44.925C327.842 44.925 326.975 45.2083 326.325 45.775C325.675 46.325 325.275 47.0333 325.125 47.9H332.4C332.333 47.05 331.992 46.3417 331.375 45.775C330.758 45.2083 329.942 44.925 328.925 44.925ZM347.058 37.825H349.183V56H347.133V54.65H346.583C345.683 55.7667 344.375 56.325 342.658 56.325C340.958 56.325 339.608 55.7 338.608 54.45C337.625 53.2 337.133 51.6167 337.133 49.7C337.133 47.75 337.625 46.1583 338.608 44.925C339.608 43.6917 340.958 43.075 342.658 43.075C344.358 43.075 345.642 43.6333 346.508 44.75H347.058V37.825ZM343.133 54.475C344.45 54.475 345.433 54.0167 346.083 53.1C346.75 52.1833 347.083 51.05 347.083 49.7C347.083 48.35 346.75 47.2167 346.083 46.3C345.433 45.3833 344.45 44.925 343.133 44.925C341.9 44.925 340.942 45.3667 340.258 46.25C339.592 47.1167 339.258 48.2667 339.258 49.7C339.258 51.1333 339.592 52.2917 340.258 53.175C340.942 54.0417 341.9 54.475 343.133 54.475Z" fill="black"/>
<path d="M521.52 25V7.15H525.27L529.77 15.525H530.32L534.745 7.15H538.52V25H536.32V9.7H535.77L531.195 18.175H528.845L524.27 9.7H523.72V25H521.52ZM550.877 25V23.675H550.327C549.461 24.775 548.152 25.325 546.402 25.325C545.019 25.325 543.919 24.925 543.102 24.125C542.286 23.325 541.877 22.3583 541.877 21.225C541.877 20.075 542.277 19.0917 543.077 18.275C543.877 17.4583 545.086 17.05 546.702 17.05H550.802V16.55C550.802 15.75 550.552 15.1167 550.052 14.65C549.552 14.1667 548.777 13.925 547.727 13.925C545.894 13.925 544.919 14.5333 544.802 15.75H542.677C542.761 14.6 543.252 13.7 544.152 13.05C545.069 12.4 546.244 12.075 547.677 12.075C549.294 12.075 550.561 12.45 551.477 13.2C552.411 13.95 552.877 15.025 552.877 16.425V25H550.877ZM546.927 23.475C547.977 23.475 548.886 23.1333 549.652 22.45C550.419 21.75 550.802 20.9 550.802 19.9V18.75H547.027C545.011 18.75 544.002 19.55 544.002 21.15C544.002 21.8667 544.252 22.4333 544.752 22.85C545.269 23.2667 545.994 23.475 546.927 23.475ZM568.218 25H565.943L562.343 18.15H561.793L558.893 21.35V25H556.768V6.825H558.893V18.725L564.843 12.4H567.368L563.743 16.275L568.218 25ZM581.512 17.95V18.675H571.912C571.945 20.1917 572.303 21.375 572.987 22.225C573.67 23.0583 574.653 23.475 575.937 23.475C577.67 23.475 578.737 22.825 579.137 21.525H581.287C581.07 22.6583 580.495 23.575 579.562 24.275C578.645 24.975 577.437 25.325 575.937 25.325C574.02 25.325 572.52 24.7 571.437 23.45C570.353 22.2 569.812 20.575 569.812 18.575C569.812 16.6083 570.353 15.0333 571.437 13.85C572.52 12.6667 574.003 12.075 575.887 12.075C577.67 12.075 579.045 12.6417 580.012 13.775C580.978 14.8917 581.478 16.2833 581.512 17.95ZM575.837 13.925C574.753 13.925 573.887 14.2083 573.237 14.775C572.587 15.325 572.187 16.0333 572.037 16.9H579.312C579.245 16.05 578.903 15.3417 578.287 14.775C577.67 14.2083 576.853 13.925 575.837 13.925ZM592.02 12.4V14.4H590.97C589.703 14.4 588.712 14.775 587.995 15.525C587.295 16.275 586.945 17.3333 586.945 18.7V25H584.82V12.4H586.87V13.9H587.42C588.22 12.9 589.437 12.4 591.07 12.4H592.02ZM492.169 45.325C492.836 45.425 493.961 45.65 495.544 46C496.977 46.3167 498.077 46.875 498.844 47.675C499.627 48.4583 500.019 49.575 500.019 51.025C500.019 52.525 499.427 53.7833 498.244 54.8C497.077 55.8167 495.419 56.325 493.269 56.325C491.219 56.325 489.544 55.8333 488.244 54.85C486.944 53.8667 486.227 52.5917 486.094 51.025H488.369C488.552 52.1583 489.094 52.9833 489.994 53.5C490.894 54.0167 492.019 54.275 493.369 54.275C494.652 54.275 495.702 53.9917 496.519 53.425C497.336 52.8583 497.744 52.075 497.744 51.075C497.744 50.175 497.486 49.5 496.969 49.05C496.452 48.5833 495.702 48.2417 494.719 48.025C494.436 47.9583 493.852 47.8417 492.969 47.675C492.086 47.4917 491.494 47.3667 491.194 47.3C488.311 46.7167 486.869 45.2083 486.869 42.775C486.869 41.3417 487.427 40.1583 488.544 39.225C489.661 38.2917 491.194 37.825 493.144 37.825C494.961 37.825 496.444 38.2667 497.594 39.15C498.744 40.0167 499.419 41.1833 499.619 42.65H497.344C496.911 40.8 495.494 39.875 493.094 39.875C491.961 39.875 491.019 40.125 490.269 40.625C489.519 41.125 489.144 41.825 489.144 42.725C489.144 43.5083 489.411 44.0917 489.944 44.475C490.494 44.8417 491.236 45.125 492.169 45.325ZM505.796 40.125H503.546V37.825H505.796V40.125ZM505.721 43.4V56H503.596V43.4H505.721ZM519.118 43.4H521.168V55.375C521.168 57.1583 520.643 58.5667 519.593 59.6C518.56 60.65 517.127 61.175 515.293 61.175C513.66 61.175 512.343 60.8417 511.343 60.175C510.36 59.5083 509.777 58.5583 509.593 57.325H511.693C512.027 58.6917 513.218 59.375 515.268 59.375C516.535 59.375 517.477 59.0167 518.093 58.3C518.727 57.5833 519.043 56.575 519.043 55.275V54.275H518.493C517.627 55.3917 516.368 55.95 514.718 55.95C513.018 55.95 511.66 55.35 510.643 54.15C509.627 52.95 509.118 51.4083 509.118 49.525C509.118 47.6417 509.627 46.1 510.643 44.9C511.66 43.6833 513.018 43.075 514.718 43.075C516.418 43.075 517.702 43.6333 518.568 44.75H519.118V43.4ZM515.118 54.1C516.402 54.1 517.385 53.6583 518.068 52.775C518.752 51.8917 519.093 50.8083 519.093 49.525C519.093 48.225 518.752 47.1333 518.068 46.25C517.385 45.3667 516.402 44.925 515.118 44.925C513.902 44.925 512.952 45.3417 512.268 46.175C511.585 47.0083 511.243 48.125 511.243 49.525C511.243 50.9083 511.585 52.0167 512.268 52.85C512.952 53.6833 513.902 54.1 515.118 54.1ZM536.474 56H534.349V48.45C534.349 46.1333 533.282 44.975 531.149 44.975C530.049 44.975 529.149 45.3917 528.449 46.225C527.749 47.0417 527.399 48.025 527.399 49.175V56H525.274V43.4H527.324V44.75H527.874C528.241 44.25 528.757 43.85 529.424 43.55C530.091 43.2333 530.841 43.075 531.674 43.075C533.207 43.075 534.391 43.5167 535.224 44.4C536.057 45.2667 536.474 46.4667 536.474 48V56ZM543.862 48.15L545.062 48.35L546.487 48.575C548.887 48.9917 550.087 50.2583 550.087 52.375C550.087 53.475 549.629 54.4083 548.712 55.175C547.795 55.9417 546.529 56.325 544.912 56.325C543.179 56.325 541.845 55.975 540.912 55.275C539.995 54.575 539.462 53.6 539.312 52.35H541.462C541.662 53.7667 542.779 54.475 544.812 54.475C545.795 54.475 546.562 54.3 547.112 53.95C547.679 53.6 547.962 53.0917 547.962 52.425C547.962 51.875 547.779 51.4417 547.412 51.125C547.045 50.8083 546.462 50.5833 545.662 50.45L542.837 49.975C540.82 49.6083 539.812 48.55 539.812 46.8C539.812 45.7 540.229 44.8083 541.062 44.125C541.912 43.425 543.154 43.075 544.787 43.075C546.254 43.075 547.412 43.4 548.262 44.05C549.129 44.6833 549.629 45.5583 549.762 46.675H547.637C547.554 46.0917 547.245 45.6583 546.712 45.375C546.179 45.075 545.504 44.925 544.687 44.925C543.854 44.925 543.187 45.075 542.687 45.375C542.204 45.6583 541.962 46.0667 541.962 46.6C541.962 47.0667 542.112 47.4167 542.412 47.65C542.712 47.8833 543.195 48.05 543.862 48.15ZM567.812 37.825C570.428 37.825 572.47 38.7 573.937 40.45C575.403 42.2 576.137 44.4083 576.137 47.075C576.137 49.7417 575.403 51.95 573.937 53.7C572.47 55.45 570.428 56.325 567.812 56.325C565.178 56.325 563.128 55.4583 561.662 53.725C560.212 51.975 559.487 49.7583 559.487 47.075C559.487 44.3917 560.212 42.1833 561.662 40.45C563.128 38.7 565.178 37.825 567.812 37.825ZM563.287 52.2C564.303 53.5833 565.812 54.275 567.812 54.275C569.812 54.275 571.32 53.5833 572.337 52.2C573.353 50.8167 573.862 49.1083 573.862 47.075C573.862 45.0417 573.353 43.3333 572.337 41.95C571.32 40.5667 569.812 39.875 567.812 39.875C565.812 39.875 564.303 40.5667 563.287 41.95C562.27 43.3333 561.762 45.0417 561.762 47.075C561.762 49.1083 562.27 50.8167 563.287 52.2ZM586.771 43.4V45.4H585.721C584.454 45.4 583.463 45.775 582.746 46.525C582.046 47.275 581.696 48.3333 581.696 49.7V56H579.571V43.4H581.621V44.9H582.171C582.971 43.9 584.188 43.4 585.821 43.4H586.771ZM598.706 37.825H600.831V56H598.781V54.65H598.231C597.331 55.7667 596.023 56.325 594.306 56.325C592.606 56.325 591.256 55.7 590.256 54.45C589.273 53.2 588.781 51.6167 588.781 49.7C588.781 47.75 589.273 46.1583 590.256 44.925C591.256 43.6917 592.606 43.075 594.306 43.075C596.006 43.075 597.29 43.6333 598.156 44.75H598.706V37.825ZM594.781 54.475C596.098 54.475 597.081 54.0167 597.731 53.1C598.398 52.1833 598.731 51.05 598.731 49.7C598.731 48.35 598.398 47.2167 597.731 46.3C597.081 45.3833 596.098 44.925 594.781 44.925C593.548 44.925 592.59 45.3667 591.906 46.25C591.24 47.1167 590.906 48.2667 590.906 49.7C590.906 51.1333 591.24 52.2917 591.906 53.175C592.59 54.0417 593.548 54.475 594.781 54.475ZM615.862 48.95V49.675H606.262C606.296 51.1917 606.654 52.375 607.337 53.225C608.021 54.0583 609.004 54.475 610.287 54.475C612.021 54.475 613.087 53.825 613.487 52.525H615.637C615.421 53.6583 614.846 54.575 613.912 55.275C612.996 55.975 611.787 56.325 610.287 56.325C608.371 56.325 606.871 55.7 605.787 54.45C604.704 53.2 604.162 51.575 604.162 49.575C604.162 47.6083 604.704 46.0333 605.787 44.85C606.871 43.6667 608.354 43.075 610.237 43.075C612.021 43.075 613.396 43.6417 614.362 44.775C615.329 45.8917 615.829 47.2833 615.862 48.95ZM610.187 44.925C609.104 44.925 608.237 45.2083 607.587 45.775C606.937 46.325 606.537 47.0333 606.387 47.9H613.662C613.596 47.05 613.254 46.3417 612.637 45.775C612.021 45.2083 611.204 44.925 610.187 44.925ZM626.371 43.4V45.4H625.321C624.054 45.4 623.062 45.775 622.346 46.525C621.646 47.275 621.296 48.3333 621.296 49.7V56H619.171V43.4H621.221V44.9H621.771C622.571 43.9 623.787 43.4 625.421 43.4H626.371Z" fill="black"/>
<path d="M782.37 6.825C784.987 6.825 787.029 7.7 788.495 9.45C789.962 11.2 790.695 13.4083 790.695 16.075C790.695 18.7417 789.962 20.95 788.495 22.7C787.029 24.45 784.987 25.325 782.37 25.325C779.737 25.325 777.687 24.4583 776.22 22.725C774.77 20.975 774.045 18.7583 774.045 16.075C774.045 13.3917 774.77 11.1833 776.22 9.45C777.687 7.7 779.737 6.825 782.37 6.825ZM777.845 21.2C778.862 22.5833 780.37 23.275 782.37 23.275C784.37 23.275 785.879 22.5833 786.895 21.2C787.912 19.8167 788.42 18.1083 788.42 16.075C788.42 14.0417 787.912 12.3333 786.895 10.95C785.879 9.56667 784.37 8.875 782.37 8.875C780.37 8.875 778.862 9.56667 777.845 10.95C776.829 12.3333 776.32 14.0417 776.32 16.075C776.32 18.1083 776.829 19.8167 777.845 21.2ZM801.33 12.4V14.4H800.28C799.013 14.4 798.021 14.775 797.305 15.525C796.605 16.275 796.255 17.3333 796.255 18.7V25H794.13V12.4H796.18V13.9H796.73C797.53 12.9 798.746 12.4 800.38 12.4H801.33ZM813.265 6.825H815.39V25H813.34V23.65H812.79C811.89 24.7667 810.582 25.325 808.865 25.325C807.165 25.325 805.815 24.7 804.815 23.45C803.832 22.2 803.34 20.6167 803.34 18.7C803.34 16.75 803.832 15.1583 804.815 13.925C805.815 12.6917 807.165 12.075 808.865 12.075C810.565 12.075 811.848 12.6333 812.715 13.75H813.265V6.825ZM809.34 23.475C810.657 23.475 811.64 23.0167 812.29 22.1C812.957 21.1833 813.29 20.05 813.29 18.7C813.29 17.35 812.957 16.2167 812.29 15.3C811.64 14.3833 810.657 13.925 809.34 13.925C808.107 13.925 807.148 14.3667 806.465 15.25C805.798 16.1167 805.465 17.2667 805.465 18.7C805.465 20.1333 805.798 21.2917 806.465 22.175C807.148 23.0417 808.107 23.475 809.34 23.475ZM830.421 17.95V18.675H820.821C820.854 20.1917 821.212 21.375 821.896 22.225C822.579 23.0583 823.562 23.475 824.846 23.475C826.579 23.475 827.646 22.825 828.046 21.525H830.196C829.979 22.6583 829.404 23.575 828.471 24.275C827.554 24.975 826.346 25.325 824.846 25.325C822.929 25.325 821.429 24.7 820.346 23.45C819.262 22.2 818.721 20.575 818.721 18.575C818.721 16.6083 819.262 15.0333 820.346 13.85C821.429 12.6667 822.912 12.075 824.796 12.075C826.579 12.075 827.954 12.6417 828.921 13.775C829.887 14.8917 830.387 16.2833 830.421 17.95ZM824.746 13.925C823.662 13.925 822.796 14.2083 822.146 14.775C821.496 15.325 821.096 16.0333 820.946 16.9H828.221C828.154 16.05 827.812 15.3417 827.196 14.775C826.579 14.2083 825.762 13.925 824.746 13.925ZM840.929 12.4V14.4H839.879C838.613 14.4 837.621 14.775 836.904 15.525C836.204 16.275 835.854 17.3333 835.854 18.7V25H833.729V12.4H835.779V13.9H836.329C837.129 12.9 838.346 12.4 839.979 12.4H840.929ZM850.898 7.15H858.798C860.681 7.15 862.131 7.60833 863.148 8.525C864.164 9.425 864.673 10.7 864.673 12.35C864.673 14.6 863.764 16.125 861.948 16.925L864.798 25H862.473L859.798 17.45C859.331 17.5 858.848 17.525 858.348 17.525H853.148V25H850.898V7.15ZM853.148 15.525H858.473C861.089 15.525 862.398 14.4667 862.398 12.35C862.398 11.3 862.089 10.5083 861.473 9.975C860.856 9.425 859.856 9.15 858.473 9.15H853.148V15.525ZM879.322 17.95V18.675H869.722C869.756 20.1917 870.114 21.375 870.797 22.225C871.481 23.0583 872.464 23.475 873.747 23.475C875.481 23.475 876.547 22.825 876.947 21.525H879.097C878.881 22.6583 878.306 23.575 877.372 24.275C876.456 24.975 875.247 25.325 873.747 25.325C871.831 25.325 870.331 24.7 869.247 23.45C868.164 22.2 867.622 20.575 867.622 18.575C867.622 16.6083 868.164 15.0333 869.247 13.85C870.331 12.6667 871.814 12.075 873.697 12.075C875.481 12.075 876.856 12.6417 877.822 13.775C878.789 14.8917 879.289 16.2833 879.322 17.95ZM873.647 13.925C872.564 13.925 871.697 14.2083 871.047 14.775C870.397 15.325 869.997 16.0333 869.847 16.9H877.122C877.056 16.05 876.714 15.3417 876.097 14.775C875.481 14.2083 874.664 13.925 873.647 13.925ZM890.656 25V23.675H890.106C889.239 24.775 887.931 25.325 886.181 25.325C884.797 25.325 883.697 24.925 882.881 24.125C882.064 23.325 881.656 22.3583 881.656 21.225C881.656 20.075 882.056 19.0917 882.856 18.275C883.656 17.4583 884.864 17.05 886.481 17.05H890.581V16.55C890.581 15.75 890.331 15.1167 889.831 14.65C889.331 14.1667 888.556 13.925 887.506 13.925C885.672 13.925 884.697 14.5333 884.581 15.75H882.456C882.539 14.6 883.031 13.7 883.931 13.05C884.847 12.4 886.022 12.075 887.456 12.075C889.072 12.075 890.339 12.45 891.256 13.2C892.189 13.95 892.656 15.025 892.656 16.425V25H890.656ZM886.706 23.475C887.756 23.475 888.664 23.1333 889.431 22.45C890.197 21.75 890.581 20.9 890.581 19.9V18.75H886.806C884.789 18.75 883.781 19.55 883.781 21.15C883.781 21.8667 884.031 22.4333 884.531 22.85C885.047 23.2667 885.772 23.475 886.706 23.475ZM905.697 6.825H907.822V25H905.772V23.65H905.222C904.322 24.7667 903.013 25.325 901.297 25.325C899.597 25.325 898.247 24.7 897.247 23.45C896.263 22.2 895.772 20.6167 895.772 18.7C895.772 16.75 896.263 15.1583 897.247 13.925C898.247 12.6917 899.597 12.075 901.297 12.075C902.997 12.075 904.28 12.6333 905.147 13.75H905.697V6.825ZM901.772 23.475C903.088 23.475 904.072 23.0167 904.722 22.1C905.388 21.1833 905.722 20.05 905.722 18.7C905.722 17.35 905.388 16.2167 904.722 15.3C904.072 14.3833 903.088 13.925 901.772 13.925C900.538 13.925 899.58 14.3667 898.897 15.25C898.23 16.1167 897.897 17.2667 897.897 18.7C897.897 20.1333 898.23 21.2917 898.897 22.175C899.58 23.0417 900.538 23.475 901.772 23.475ZM915.327 30H913.177L915.777 23.825L910.402 12.4H912.677L916.527 20.7H917.152L920.652 12.4H922.877L915.327 30ZM776.437 43.4H779.612V45.25H776.437V52.175C776.437 52.8417 776.604 53.3333 776.937 53.65C777.287 53.95 777.87 54.1 778.687 54.1H779.612V56H778.637C777.204 56 776.12 55.7333 775.387 55.2C774.67 54.6667 774.312 53.7583 774.312 52.475V45.25H772.137V43.4H774.312V39.6H776.437V43.4ZM783.786 44.95C784.903 43.7 786.42 43.075 788.336 43.075C790.253 43.075 791.761 43.7 792.861 44.95C793.978 46.2 794.536 47.7833 794.536 49.7C794.536 51.6167 793.978 53.2 792.861 54.45C791.761 55.7 790.253 56.325 788.336 56.325C786.42 56.325 784.903 55.7 783.786 54.45C782.686 53.2 782.136 51.6167 782.136 49.7C782.136 47.7833 782.686 46.2 783.786 44.95ZM785.311 53.1C786.011 54.0167 787.02 54.475 788.336 54.475C789.653 54.475 790.661 54.0167 791.361 53.1C792.061 52.1667 792.411 51.0333 792.411 49.7C792.411 48.3667 792.061 47.2417 791.361 46.325C790.661 45.3917 789.653 44.925 788.336 44.925C787.02 44.925 786.011 45.3917 785.311 46.325C784.611 47.2417 784.261 48.3667 784.261 49.7C784.261 51.0333 784.611 52.1667 785.311 53.1ZM811.336 43.075C813.036 43.075 814.377 43.6917 815.361 44.925C816.361 46.1583 816.861 47.75 816.861 49.7C816.861 51.6167 816.361 53.2 815.361 54.45C814.377 55.7 813.036 56.325 811.336 56.325C809.619 56.325 808.311 55.7667 807.411 54.65H806.861V56H804.811V37.825H806.936V44.75H807.486C808.319 43.6333 809.602 43.075 811.336 43.075ZM810.861 54.475C812.094 54.475 813.044 54.0417 813.711 53.175C814.394 52.2917 814.736 51.1333 814.736 49.7C814.736 48.2667 814.394 47.1167 813.711 46.25C813.044 45.3667 812.094 44.925 810.861 44.925C809.544 44.925 808.552 45.3833 807.886 46.3C807.236 47.2167 806.911 48.35 806.911 49.7C806.911 51.05 807.236 52.1833 807.886 53.1C808.552 54.0167 809.544 54.475 810.861 54.475ZM831.117 48.95V49.675H821.517C821.55 51.1917 821.908 52.375 822.592 53.225C823.275 54.0583 824.258 54.475 825.542 54.475C827.275 54.475 828.342 53.825 828.742 52.525H830.892C830.675 53.6583 830.1 54.575 829.167 55.275C828.25 55.975 827.042 56.325 825.542 56.325C823.625 56.325 822.125 55.7 821.042 54.45C819.958 53.2 819.417 51.575 819.417 49.575C819.417 47.6083 819.958 46.0333 821.042 44.85C822.125 43.6667 823.608 43.075 825.492 43.075C827.275 43.075 828.65 43.6417 829.617 44.775C830.583 45.8917 831.083 47.2833 831.117 48.95ZM825.442 44.925C824.358 44.925 823.492 45.2083 822.842 45.775C822.192 46.325 821.792 47.0333 821.642 47.9H828.917C828.85 47.05 828.508 46.3417 827.892 45.775C827.275 45.2083 826.458 44.925 825.442 44.925ZM846.608 45.325C847.275 45.425 848.4 45.65 849.983 46C851.416 46.3167 852.516 46.875 853.283 47.675C854.066 48.4583 854.458 49.575 854.458 51.025C854.458 52.525 853.866 53.7833 852.683 54.8C851.516 55.8167 849.858 56.325 847.708 56.325C845.658 56.325 843.983 55.8333 842.683 54.85C841.383 53.8667 840.666 52.5917 840.533 51.025H842.808C842.991 52.1583 843.533 52.9833 844.433 53.5C845.333 54.0167 846.458 54.275 847.808 54.275C849.091 54.275 850.141 53.9917 850.958 53.425C851.775 52.8583 852.183 52.075 852.183 51.075C852.183 50.175 851.925 49.5 851.408 49.05C850.891 48.5833 850.141 48.2417 849.158 48.025C848.875 47.9583 848.291 47.8417 847.408 47.675C846.525 47.4917 845.933 47.3667 845.633 47.3C842.75 46.7167 841.308 45.2083 841.308 42.775C841.308 41.3417 841.866 40.1583 842.983 39.225C844.1 38.2917 845.633 37.825 847.583 37.825C849.4 37.825 850.883 38.2667 852.033 39.15C853.183 40.0167 853.858 41.1833 854.058 42.65H851.783C851.35 40.8 849.933 39.875 847.533 39.875C846.4 39.875 845.458 40.125 844.708 40.625C843.958 41.125 843.583 41.825 843.583 42.725C843.583 43.5083 843.85 44.0917 844.383 44.475C844.933 44.8417 845.675 45.125 846.608 45.325ZM869.185 56H867.06V48.45C867.06 46.1333 865.993 44.975 863.86 44.975C862.76 44.975 861.86 45.3917 861.16 46.225C860.46 47.0417 860.11 48.025 860.11 49.175V56H857.985V37.825H860.11V44.75H860.66C861.01 44.25 861.51 43.85 862.16 43.55C862.826 43.2333 863.576 43.075 864.41 43.075C865.926 43.075 867.101 43.5167 867.935 44.4C868.768 45.2667 869.185 46.4667 869.185 48V56ZM881.097 56V54.675H880.547C879.681 55.775 878.372 56.325 876.622 56.325C875.239 56.325 874.139 55.925 873.322 55.125C872.506 54.325 872.097 53.3583 872.097 52.225C872.097 51.075 872.497 50.0917 873.297 49.275C874.097 48.4583 875.306 48.05 876.922 48.05H881.022V47.55C881.022 46.75 880.772 46.1167 880.272 45.65C879.772 45.1667 878.997 44.925 877.947 44.925C876.114 44.925 875.139 45.5333 875.022 46.75H872.897C872.981 45.6 873.472 44.7 874.372 44.05C875.289 43.4 876.464 43.075 877.897 43.075C879.514 43.075 880.781 43.45 881.697 44.2C882.631 44.95 883.097 46.025 883.097 47.425V56H881.097ZM877.147 54.475C878.197 54.475 879.106 54.1333 879.872 53.45C880.639 52.75 881.022 51.9 881.022 50.9V49.75H877.247C875.231 49.75 874.222 50.55 874.222 52.15C874.222 52.8667 874.472 53.4333 874.972 53.85C875.489 54.2667 876.214 54.475 877.147 54.475ZM894.188 43.4V45.4H893.138C891.872 45.4 890.88 45.775 890.163 46.525C889.463 47.275 889.113 48.3333 889.113 49.7V56H886.988V43.4H889.038V44.9H889.588C890.388 43.9 891.605 43.4 893.238 43.4H894.188ZM907.899 48.95V49.675H898.299C898.332 51.1917 898.69 52.375 899.374 53.225C900.057 54.0583 901.04 54.475 902.324 54.475C904.057 54.475 905.124 53.825 905.524 52.525H907.674C907.457 53.6583 906.882 54.575 905.949 55.275C905.032 55.975 903.824 56.325 902.324 56.325C900.407 56.325 898.907 55.7 897.824 54.45C896.74 53.2 896.199 51.575 896.199 49.575C896.199 47.6083 896.74 46.0333 897.824 44.85C898.907 43.6667 900.39 43.075 902.274 43.075C904.057 43.075 905.432 43.6417 906.399 44.775C907.365 45.8917 907.865 47.2833 907.899 48.95ZM902.224 44.925C901.14 44.925 900.274 45.2083 899.624 45.775C898.974 46.325 898.574 47.0333 898.424 47.9H905.699C905.632 47.05 905.29 46.3417 904.674 45.775C904.057 45.2083 903.24 44.925 902.224 44.925ZM920.357 37.825H922.482V56H920.432V54.65H919.882C918.982 55.7667 917.674 56.325 915.957 56.325C914.257 56.325 912.907 55.7 911.907 54.45C910.924 53.2 910.432 51.6167 910.432 49.7C910.432 47.75 910.924 46.1583 911.907 44.925C912.907 43.6917 914.257 43.075 915.957 43.075C917.657 43.075 918.941 43.6333 919.807 44.75H920.357V37.825ZM916.432 54.475C917.749 54.475 918.732 54.0167 919.382 53.1C920.049 52.1833 920.382 51.05 920.382 49.7C920.382 48.35 920.049 47.2167 919.382 46.3C918.732 45.3833 917.749 44.925 916.432 44.925C915.199 44.925 914.241 45.3667 913.557 46.25C912.891 47.1167 912.557 48.2667 912.557 49.7C912.557 51.1333 912.891 52.2917 913.557 53.175C914.241 54.0417 915.199 54.475 916.432 54.475Z" fill="black"/>
<path d="M793 120.883C793 118.186 795.186 116 797.883 116H897.507C900.204 116 902.39 118.186 902.39 120.883V328.92C902.39 331.617 900.204 333.804 897.507 333.804H797.883C795.186 333.804 793 331.617 793 328.92V120.883Z" fill="#003831"/>
<rect opacity="0.6" x="847.207" y="128.069" width="45.9048" height="8.79028" rx="4.39514" fill="#FF7235"/>
<rect x="802.279" y="128.069" width="32.7194" height="8.79028" rx="4.39514" fill="#898990"/>
<rect x="802.279" y="157.37" width="32.7194" height="8.79028" rx="4.39514" fill="#898990"/>
<rect x="802.279" y="186.671" width="32.7194" height="8.79028" rx="4.39514" fill="#898990"/>
<rect x="802.279" y="142.719" width="29.7893" height="8.79028" rx="4.39514" fill="#898990"/>
<rect x="802.279" y="201.321" width="29.7893" height="8.79028" rx="4.39514" fill="#898990"/>
<rect x="802.279" y="172.021" width="29.7893" height="8.79028" rx="4.39514" fill="#898990"/>
<rect x="802.279" y="240.529" width="32.7194" height="8.79028" rx="4.39514" fill="#898990"/>
<rect x="802.279" y="269.83" width="32.7194" height="8.79028" rx="4.39514" fill="#898990"/>
<rect x="802.279" y="299.131" width="32.7194" height="8.79028" rx="4.39514" fill="#898990"/>
<rect x="802.279" y="255.179" width="29.7893" height="8.79028" rx="4.39514" fill="#898990"/>
<rect x="802.279" y="313.781" width="29.7893" height="8.79028" rx="4.39514" fill="#898990"/>
<rect x="802.279" y="284.48" width="29.7893" height="8.79028" rx="4.39514" fill="#898990"/>
<rect opacity="0.6" x="847.207" y="142.719" width="45.9048" height="8.79028" rx="4.39514" fill="#FF7235"/>
<rect opacity="0.6" x="847.207" y="157.37" width="45.9048" height="8.79028" rx="4.39514" fill="#FF7235"/>
<rect opacity="0.6" x="847.207" y="172.021" width="45.9048" height="8.79028" rx="4.39514" fill="#FF7235"/>
<rect opacity="0.6" x="847.207" y="186.671" width="45.9048" height="8.79028" rx="4.39514" fill="#FF7235"/>
<rect opacity="0.6" x="847.207" y="201.321" width="45.9048" height="8.79028" rx="4.39514" fill="#FF7235"/>
<rect opacity="0.6" x="847.207" y="240.529" width="45.9048" height="8.79028" rx="4.39514" fill="#00AE99"/>
<rect opacity="0.6" x="847.207" y="255.179" width="45.9048" height="8.79028" rx="4.39514" fill="#00AE99"/>
<rect opacity="0.6" x="847.207" y="269.83" width="45.9048" height="8.79028" rx="4.39514" fill="#00AE99"/>
<rect opacity="0.6" x="847.207" y="284.48" width="45.9048" height="8.79028" rx="4.39514" fill="#00AE99"/>
<rect opacity="0.6" x="847.207" y="299.131" width="45.9048" height="8.79028" rx="4.39514" fill="#00AE99"/>
<rect opacity="0.6" x="847.207" y="313.781" width="45.9048" height="8.79028" rx="4.39514" fill="#00AE99"/>
<line x1="793" y1="219.727" x2="902.39" y2="219.727" stroke="#898890" stroke-width="1.46505"/>
<line x1="793" y1="231.448" x2="902.39" y2="231.448" stroke="#898890" stroke-width="1.46505"/>
</g>
<defs>
<clipPath id="clip0">
<rect width="946" height="334" fill="white"/>
</clipPath>
</defs>
</svg>
