<svg width="76" height="46" viewBox="0 0 76 46" fill="none" xmlns="http://www.w3.org/2000/svg">
<g filter="url(#filter0_d)">
<path d="M-2.34315e-08 10.7545L18.9187 -1.15499e-08L65.2081 26.3534L46.2894 37.1079L-2.34315e-08 10.7545Z" transform="translate(5.62109 1.17188)" fill="#DCD3EB"/>
<path d="M20.5403 1.84086L65.2081 27.2738L47.911 37.1079L3.24321 11.6749L20.5403 1.84086ZM20.5403 0L0 11.6749L47.911 38.9487L68.4513 27.2738L20.5403 0Z" transform="translate(4 0.25)" fill="#AAA7C9"/>
<path d="M9.92618 13.54C7.05152 13.54 4.44712 12.9587 2.62896 11.9171C0.90908 10.9483 3.74905e-07 9.66451 3.74905e-07 8.2112C3.74905e-07 6.27346 1.6216 4.23882 4.44712 2.64018C7.39549 0.944652 11.2775 3.69596e-07 15.0613 3.69596e-07C17.9359 3.69596e-07 20.5403 0.581324 22.3585 1.62286C24.0784 2.59174 24.9874 3.87549 24.9874 5.3288C24.9874 7.26655 23.3658 9.30118 20.5403 10.8998C17.5919 12.5711 13.7099 13.54 9.92618 13.54Z" transform="translate(26.3359 13.3047)" fill="#CAC3E5"/>
<path d="M15.8578 1.59864C18.585 1.59864 21.042 2.13152 22.7619 3.1004C23.7692 3.68172 24.9731 4.67482 24.9731 6.1039C24.9731 7.72677 23.4744 9.5434 20.9437 10.9967C18.0936 12.6196 14.3836 13.54 10.7473 13.54C8.02001 13.54 5.56304 13.0071 3.84316 12.0383C2.8358 11.4569 1.63188 10.4638 1.63188 9.03475C1.63188 7.41188 3.13063 5.59524 5.66132 4.14193C8.48684 2.51907 12.1969 1.59864 15.8578 1.59864ZM15.8578 -3.69596e-07C12.0986 -3.69596e-07 8.04458 0.944652 4.85051 2.76129C-0.825098 5.98279 -1.6359 10.7545 3.03235 13.4189C5.07164 14.5815 7.82345 15.1386 10.7473 15.1386C14.5064 15.1386 18.5604 14.194 21.7545 12.3774C27.4301 9.15585 28.2409 4.38415 23.5727 1.71975C21.5088 0.557102 18.757 -3.69596e-07 15.8578 -3.69596e-07Z" transform="translate(25.5391 12.5078)" fill="#AAA7C9"/>
<path d="M1.81816 5.69213L8.89425 6.73367L11.8426 0L-7.49809e-07 1.64709L1.81816 5.69213Z" transform="translate(34.3945 15.875)" fill="#AAA7C9"/>
<path d="M3.74905e-07 6.07968L10.7124 5.03814L3.63632 4.02083L1.81816 3.69596e-07L3.74905e-07 6.07968Z" transform="translate(31.7422 18.0312)" fill="#AAA7C9"/>
<path d="M2.9238 3.63328C2.01472 3.63328 1.20392 3.46372 0.638813 3.14884C0.343976 2.97929 -4.68631e-08 2.68862 -4.68631e-08 2.3253C-4.68631e-08 1.86508 0.491395 1.28376 1.27763 0.847764C2.23585 0.314884 3.46433 0 4.69282 0C5.6019 0 6.4127 0.169553 6.97781 0.484437C7.27265 0.65399 7.61662 0.944652 7.61662 1.30798C7.61662 1.76819 7.12523 2.34952 6.339 2.78551C5.40534 3.31839 4.15229 3.63328 2.9238 3.63328Z" transform="translate(7.85938 9.69531)" fill="#DCD3EB"/>
<path d="M5.5202 1.59864C6.28186 1.59864 6.96981 1.74397 7.3875 1.98619C7.51035 2.05886 7.58406 2.1073 7.60863 2.15574C7.55949 2.27685 7.33836 2.59174 6.74868 2.93084C5.93788 3.39106 4.80767 3.68172 3.7266 3.68172C2.96494 3.68172 2.27699 3.53639 1.8593 3.29417C1.73645 3.2215 1.66275 3.17306 1.63818 3.12462C1.68732 3.00351 1.90844 2.68862 2.49812 2.34952C3.30892 1.8893 4.43913 1.59864 5.5202 1.59864ZM5.5202 0C4.218 0 2.79295 0.314884 1.68732 0.968874C-0.278265 2.08308 -0.573102 3.75438 1.0485 4.67482C1.76102 5.08659 2.71924 5.28036 3.7266 5.28036C5.0288 5.28036 6.45385 4.96548 7.55949 4.31149C9.52507 3.19728 9.8199 1.52598 8.1983 0.605546C7.48578 0.217997 6.52756 0 5.5202 0Z" transform="translate(7.05469 8.85156)" fill="#AAA7C9"/>
<path d="M2.9238 3.63327C2.01472 3.63327 1.20392 3.46372 0.638815 3.14884C0.343978 2.97928 0 2.68862 0 2.3253C0 1.86508 0.491394 1.28376 1.27763 0.847763C2.23585 0.314882 3.46434 -1.47838e-06 4.69282 -1.47838e-06C5.6019 -1.47838e-06 6.4127 0.169551 6.97781 0.484435C7.27264 0.653988 7.61662 0.944652 7.61662 1.30798C7.61662 1.76819 7.12523 2.34952 6.339 2.78551C5.40535 3.31839 4.15229 3.63327 2.9238 3.63327Z" transform="translate(49.332 33.2891)" fill="#CAC3E5"/>
<path d="M5.5202 1.59864C6.28186 1.59864 6.96981 1.74397 7.3875 1.98619C7.51035 2.05886 7.58405 2.1073 7.60862 2.15574C7.55948 2.27685 7.33836 2.59174 6.74868 2.93084C5.93788 3.39106 4.80767 3.68172 3.7266 3.68172C2.96494 3.68172 2.27699 3.53639 1.8593 3.29417C1.73646 3.22151 1.66274 3.17306 1.63817 3.12462C1.68731 3.00351 1.90844 2.68862 2.49812 2.34952C3.30892 1.86508 4.43913 1.59864 5.5202 1.59864ZM5.5202 0C4.218 0 2.79296 0.314884 1.68732 0.968874C-0.278264 2.08308 -0.573102 3.75439 1.0485 4.67482C1.76102 5.08659 2.71924 5.28036 3.7266 5.28036C5.0288 5.28036 6.45385 4.96548 7.55949 4.31149C9.52507 3.19728 9.8199 1.52598 8.1983 0.605546C7.48578 0.193775 6.52756 0 5.5202 0Z" transform="translate(48.5273 32.4648)" fill="#AAA7C9"/>
<path d="M2.9238 3.63328C2.01472 3.63328 1.20392 3.46372 0.638813 3.14884C0.343976 2.97929 1.49962e-06 2.68862 1.49962e-06 2.3253C1.49962e-06 1.86508 0.491396 1.28376 1.27763 0.847764C2.23585 0.314884 3.46433 -3.69596e-07 4.69282 -3.69596e-07C5.6019 -3.69596e-07 6.4127 0.169553 6.97781 0.484436C7.27265 0.653989 7.61662 0.944652 7.61662 1.30798C7.61662 1.76819 7.12523 2.34952 6.33899 2.78551C5.40534 3.31839 4.15229 3.63328 2.9238 3.63328Z" transform="translate(61.3945 26.4336)" fill="#DCD3EB"/>
<path d="M5.5202 1.59864C6.28186 1.59864 6.96981 1.74397 7.3875 1.98619C7.51034 2.05886 7.58405 2.1073 7.60862 2.15574C7.55948 2.27685 7.33836 2.59174 6.74868 2.93084C5.93788 3.39106 4.80767 3.68172 3.7266 3.68172C2.96494 3.68172 2.27699 3.53639 1.8593 3.29417C1.73645 3.2215 1.66275 3.17306 1.63818 3.12462C1.68732 3.00351 1.90844 2.68863 2.49812 2.34952C3.30892 1.8893 4.43913 1.59864 5.5202 1.59864ZM5.5202 -3.69596e-07C4.218 -3.69596e-07 2.79295 0.314884 1.68731 0.968873C-0.278266 2.08308 -0.5731 3.75439 1.0485 4.67482C1.76103 5.08659 2.71924 5.28036 3.7266 5.28036C5.0288 5.28036 6.45385 4.96548 7.55949 4.31149C9.52507 3.19728 9.81991 1.52598 8.1983 0.605546C7.48578 0.217996 6.52756 -3.69596e-07 5.5202 -3.69596e-07Z" transform="translate(60.5938 25.5859)" fill="#AAA7C9"/>
<path d="M2.9238 3.63328C2.01472 3.63328 1.20392 3.46372 0.638814 3.14884C0.343977 2.97929 7.49809e-07 2.68862 7.49809e-07 2.3253C7.49809e-07 1.86508 0.491395 1.28376 1.27763 0.847764C2.23585 0.314884 3.46434 9.2399e-08 4.69282 9.2399e-08C5.6019 9.2399e-08 6.4127 0.169553 6.97781 0.484437C7.27264 0.65399 7.61662 0.944652 7.61662 1.30798C7.61662 1.76819 7.12523 2.34952 6.339 2.78551C5.40534 3.31839 4.15229 3.63328 2.9238 3.63328Z" transform="translate(19.9219 2.82031)" fill="#CAC3E5"/>
<path d="M5.5202 1.59864C6.28186 1.59864 6.96981 1.74397 7.3875 1.98619C7.51035 2.05886 7.58406 2.1073 7.60863 2.15574C7.55949 2.27685 7.33836 2.59174 6.74868 2.93084C5.93788 3.39106 4.80767 3.68172 3.7266 3.68172C2.96494 3.68172 2.27699 3.53639 1.8593 3.29417C1.73645 3.2215 1.66274 3.17306 1.63817 3.12462C1.68731 3.00351 1.90844 2.68862 2.49812 2.34952C3.30892 1.86508 4.43913 1.59864 5.5202 1.59864ZM5.5202 -4.61995e-08C4.218 -4.61995e-08 2.79295 0.314884 1.68732 0.968874C-0.278265 2.08308 -0.573101 3.75439 1.0485 4.67482C1.76103 5.08659 2.71924 5.28036 3.7266 5.28036C5.0288 5.28036 6.45385 4.96548 7.55949 4.31149C9.52507 3.19728 9.8199 1.52598 8.1983 0.605546C7.48578 0.193775 6.52756 -4.61995e-08 5.5202 -4.61995e-08Z" transform="translate(19.1172 1.99219)" fill="#AAA7C9"/>
</g>
<defs>
<filter id="filter0_d" x="0.799705" y="0.25" width="74.8519" height="45.3493" filterUnits="userSpaceOnUse" color-interpolation-filters="sRGB">
<feFlood flood-opacity="0" result="BackgroundImageFix"/>
<feColorMatrix in="SourceAlpha" type="matrix" values="0 0 0 0 0 0 0 0 0 0 0 0 0 0 0 0 0 0 255 0"/>
<feOffset dy="3.20029"/>
<feGaussianBlur stdDeviation="1.60015"/>
<feColorMatrix type="matrix" values="0 0 0 0 0 0 0 0 0 0 0 0 0 0 0 0 0 0 0.25 0"/>
<feBlend mode="normal" in2="BackgroundImageFix" result="effect1_dropShadow"/>
<feBlend mode="normal" in="SourceGraphic" in2="effect1_dropShadow" result="shape"/>
</filter>
</defs>
</svg>
