<svg width="66" height="38" viewBox="0 0 66 38" fill="none" xmlns="http://www.w3.org/2000/svg">
<rect width="36.2389" height="14.3077" rx="2.40022" transform="translate(26.7617 0.457031)" fill="#3289F1"/>
<path d="M3.01758 9.09766C2.20703 9.09766 1.55111 8.85677 1.0498 8.375C0.548503 7.88997 0.297852 7.26009 0.297852 6.48535V6.34863C0.297852 5.80827 0.397135 5.33138 0.595703 4.91797C0.797526 4.50456 1.09049 4.18555 1.47461 3.96094C1.85872 3.73307 2.31445 3.61914 2.8418 3.61914C3.58398 3.61914 4.16992 3.85026 4.59961 4.3125C5.0293 4.77148 5.24414 5.41276 5.24414 6.23633V6.87598H1.97266C2.03125 7.1722 2.15983 7.40495 2.3584 7.57422C2.55697 7.74349 2.81413 7.82812 3.12988 7.82812C3.65072 7.82812 4.05762 7.64583 4.35059 7.28125L5.10254 8.16992C4.89746 8.45312 4.60612 8.67936 4.22852 8.84863C3.85417 9.01465 3.45052 9.09766 3.01758 9.09766ZM2.83203 4.88867C2.35026 4.88867 2.0638 5.20768 1.97266 5.8457H3.63281V5.71875C3.63932 5.45508 3.57259 5.25163 3.43262 5.1084C3.29264 4.96191 3.09245 4.88867 2.83203 4.88867ZM9.31514 5.20605L8.77315 5.16699C8.25557 5.16699 7.92354 5.32975 7.77706 5.65527V9H6.13155V3.7168H7.67452L7.72823 4.39551C8.00492 3.87793 8.39066 3.61914 8.88545 3.61914C9.06123 3.61914 9.21423 3.63867 9.34444 3.67773L9.31514 5.20605ZM12.2533 7.82812C12.4844 7.82812 12.6635 7.76628 12.7904 7.64258C12.9174 7.51562 12.9792 7.33984 12.976 7.11523H14.519C14.519 7.69466 14.3106 8.16992 13.894 8.54102C13.4805 8.91211 12.9467 9.09766 12.2924 9.09766C11.5242 9.09766 10.9187 8.85677 10.476 8.375C10.0333 7.89323 9.81192 7.22591 9.81192 6.37305V6.30469C9.81192 5.77083 9.90958 5.30046 10.1049 4.89355C10.3035 4.4834 10.5883 4.16927 10.9594 3.95117C11.3305 3.72982 11.7699 3.61914 12.2777 3.61914C12.9646 3.61914 13.5098 3.80957 13.9135 4.19043C14.3171 4.57129 14.519 5.08724 14.519 5.73828H12.976C12.976 5.46484 12.9093 5.25488 12.7758 5.1084C12.6423 4.96191 12.4633 4.88867 12.2387 4.88867C11.8122 4.88867 11.5632 5.16048 11.4916 5.7041C11.4688 5.87663 11.4574 6.11426 11.4574 6.41699C11.4574 6.94759 11.5209 7.31543 11.6479 7.52051C11.7748 7.72559 11.9766 7.82812 12.2533 7.82812ZM20.3575 9H15.3966V7.92578L17.6818 5.52344C18.2449 4.88216 18.5265 4.37272 18.5265 3.99512C18.5265 3.68913 18.4597 3.45638 18.3263 3.29688C18.1928 3.13737 17.9991 3.05762 17.7452 3.05762C17.4946 3.05762 17.2911 3.16504 17.1349 3.37988C16.9786 3.59147 16.9005 3.85677 16.9005 4.17578H15.2501C15.2501 3.73958 15.3592 3.33757 15.5773 2.96973C15.7954 2.59863 16.0981 2.30892 16.4855 2.10059C16.8728 1.89225 17.3058 1.78809 17.7843 1.78809C18.5525 1.78809 19.1433 1.96549 19.5568 2.32031C19.9734 2.67513 20.1818 3.18457 20.1818 3.84863C20.1818 4.12858 20.1297 4.40202 20.0255 4.66895C19.9213 4.93262 19.7586 5.21094 19.5372 5.50391C19.3191 5.79362 18.9659 6.18262 18.4776 6.6709L17.5597 7.73047H20.3575V9ZM26.3328 6.09473C26.3328 7.05501 26.1164 7.79557 25.6834 8.31641C25.2537 8.83724 24.6466 9.09766 23.8621 9.09766C23.0711 9.09766 22.4591 8.83561 22.0262 8.31152C21.5932 7.78743 21.3768 7.0485 21.3768 6.09473V4.7959C21.3768 3.83561 21.5916 3.09505 22.0213 2.57422C22.4542 2.05339 23.0646 1.79297 23.8524 1.79297C24.6401 1.79297 25.2505 2.05501 25.6834 2.5791C26.1164 3.10319 26.3328 3.84375 26.3328 4.80078V6.09473ZM24.6873 4.58594C24.6873 4.07487 24.6206 3.69401 24.4871 3.44336C24.3537 3.18945 24.1421 3.0625 23.8524 3.0625C23.5692 3.0625 23.3625 3.17969 23.2322 3.41406C23.1053 3.64844 23.0369 4.00326 23.0272 4.47852V6.29492C23.0272 6.82552 23.0939 7.21452 23.2274 7.46191C23.3608 7.70605 23.5724 7.82812 23.8621 7.82812C24.1421 7.82812 24.3488 7.70931 24.4822 7.47168C24.6157 7.23079 24.6841 6.85482 24.6873 6.34375V4.58594Z" transform="translate(32 2.19922)" fill="white"/>
<g filter="url(#filter0_d)">
<path fill-rule="evenodd" clip-rule="evenodd" d="M36.9872 6.66078H35.9523C35.1056 5.2968 33.6003 4.02375 31.6246 2.93256C24.3804 -0.977521 12.7144 -0.977521 5.47013 2.93256C3.49443 4.02375 1.98914 5.2968 1.14241 6.66078H0.0134401V9.75247C-0.174722 12.3895 1.61281 15.1175 5.37605 17.118C12.6203 21.0281 24.2863 21.0281 31.5305 17.118C35.2938 15.1175 37.0813 12.3895 36.8931 9.75247V6.66078H36.9872Z" transform="translate(3.46484 12.9961)" fill="#AAA7C9"/>
<path d="M31.5877 17.027C24.3434 20.9371 12.6774 20.9371 5.43317 17.027C-1.81106 13.117 -1.81106 6.84264 5.43317 2.93256C12.6774 -0.977521 24.3434 -0.977521 31.5877 2.93256C38.8319 6.84264 38.8319 13.2079 31.5877 17.027Z" transform="translate(3.40625 9.99609)" fill="#CAC3E6"/>
<path d="M15.8997 16.9134C24.6808 16.9134 31.7993 13.1272 31.7993 8.45669C31.7993 3.78619 24.6808 0 15.8997 0C7.11853 0 0 3.78619 0 8.45669C0 13.1272 7.11853 16.9134 15.8997 16.9134Z" transform="translate(6.11328 11.1992)" fill="#DCD3EB"/>
<path d="M1.9757 6.27432L10.1607 7.54737L13.5476 -1.73439e-07L-3.5889e-07 1.72771L1.9757 6.27432Z" transform="translate(16.5547 15.2031)" fill="#AAA7C9"/>
<path d="M0 6.91084L12.3246 5.91059L4.23364 4.54661L2.16386 3.46879e-07L0 6.91084Z" transform="translate(13.3555 17.3867)" fill="#AAA7C9"/>
</g>
<defs>
<filter id="filter0_d" x="0.205955" y="7.59587" width="43.4464" height="29.4511" filterUnits="userSpaceOnUse" color-interpolation-filters="sRGB">
<feFlood flood-opacity="0" result="BackgroundImageFix"/>
<feColorMatrix in="SourceAlpha" type="matrix" values="0 0 0 0 0 0 0 0 0 0 0 0 0 0 0 0 0 0 255 0"/>
<feOffset dy="0.800074"/>
<feGaussianBlur stdDeviation="1.60015"/>
<feColorMatrix type="matrix" values="0 0 0 0 0 0 0 0 0 0 0 0 0 0 0 0 0 0 0.25 0"/>
<feBlend mode="normal" in2="BackgroundImageFix" result="effect1_dropShadow"/>
<feBlend mode="normal" in="SourceGraphic" in2="effect1_dropShadow" result="shape"/>
</filter>
</defs>
</svg>
