<svg width="36" height="36" viewBox="0 0 36 36" fill="none" xmlns="http://www.w3.org/2000/svg">
<path fill-rule="evenodd" clip-rule="evenodd" d="M16.5 9C16.5 13.1421 13.1421 16.5 9 16.5C4.85791 16.5 1.5 13.1421 1.5 9C1.5 4.85791 4.85791 1.5 9 1.5C13.1421 1.5 16.5 4.85791 16.5 9ZM18 9C18 13.9706 13.9707 18 9 18C4.0293 18 0 13.9706 0 9C0 4.02942 4.0293 0 9 0C13.9707 0 18 4.02942 18 9ZM9.21973 5.7196C9.5127 5.42664 9.9873 5.42664 10.2803 5.7196L13.0806 8.51953C13.373 8.8125 13.373 9.28735 13.0806 9.5802L10.2803 12.3802C9.9873 12.6731 9.5127 12.6731 9.21973 12.3802C8.92676 12.0873 8.92676 11.6124 9.21973 11.3196L10.7393 9.7998H4.75C4.33594 9.7998 4 9.46399 4 9.0498C4 8.63562 4.33594 8.2998 4.75 8.2998H10.7393L9.21973 6.78015C8.92676 6.4873 8.92676 6.01245 9.21973 5.7196Z" transform="scale(2)" fill="#3289F1"/>
</svg>
