<svg id="Layer_1" data-name="Layer 1" xmlns="http://www.w3.org/2000/svg" viewBox="0 0 72 72"><defs><style>.cls-1{fill:#3289f1;}.cls-2{fill:#fff;}</style></defs><title>Artboard 1</title><path class="cls-1" d="M62.64,26.77a0,0,0,0,0,0,0A2.44,2.44,0,0,0,62,25.28L48.2,11.43a2.38,2.38,0,0,0-1.53-.71H35.45a16.12,16.12,0,0,1,.44,3.5H45v9.26a5,5,0,0,0,5,5h9.15V65.41A2.16,2.16,0,0,1,57,67.57H21.8a2.16,2.16,0,0,1-2.15-2.16V31.46H19a16.81,16.81,0,0,1-2.86-.24V65.41a5.67,5.67,0,0,0,5.65,5.66H57a5.67,5.67,0,0,0,5.66-5.66V27A1.48,1.48,0,0,0,62.64,26.77ZM50,25a1.49,1.49,0,0,1-1.49-1.49V16.71L56.69,25Z"/><path class="cls-1" d="M48,11.23a1.75,1.75,0,0,0-1.34-.51,2.38,2.38,0,0,1,1.53.71ZM62.14,25.47,62,25.28a2.44,2.44,0,0,1,.69,1.46A1.71,1.71,0,0,0,62.14,25.47Z"/><path class="cls-2" d="M17.26,12.83V13a1.33,1.33,0,0,1,.14-.19Zm0,0V13a1.33,1.33,0,0,1,.14-.19Zm0,0V13a1.33,1.33,0,0,1,.14-.19Zm0,0V13a1.33,1.33,0,0,1,.14-.19Zm0,0V13a1.33,1.33,0,0,1,.14-.19Z"/><path class="cls-2" d="M17.26,12.83V13a1.33,1.33,0,0,1,.14-.19Zm0,0V13a1.33,1.33,0,0,1,.14-.19Zm0,0V13a1.33,1.33,0,0,1,.14-.19Zm0,0V13a1.33,1.33,0,0,1,.14-.19Zm0,0V13a1.33,1.33,0,0,1,.14-.19Z"/><path class="cls-1" d="M32.65,14.21a13.47,13.47,0,0,0-.55-3.5,13.66,13.66,0,1,0-16,17.23,13.47,13.47,0,0,0,2.86.3c.22,0,.43,0,.64,0a13.67,13.67,0,0,0,13-13.64C32.66,14.46,32.66,14.33,32.65,14.21Zm-13,10.51-.64,0a9.94,9.94,0,0,1-2.86-.41A10.15,10.15,0,1,1,28.39,10.71a9.92,9.92,0,0,1,.76,3.5c0,.12,0,.25,0,.37A10.17,10.17,0,0,1,19.65,24.72Z"/><path class="cls-1" d="M25,12.83v3.5H20.76v4.22h-3.5V16.33H13v-3.5h4.22V13a1.33,1.33,0,0,1,.14-.19h-.14V8.61h3.5v4.22Z"/><path class="cls-1" d="M17.4,12.83a1.33,1.33,0,0,0-.14.19v-.19Z"/><path class="cls-1" d="M17.4,12.83a1.33,1.33,0,0,0-.14.19v-.19Z"/><rect class="cls-1" x="27.4" y="35.38" width="22" height="3.5"/><rect class="cls-1" x="27.4" y="55.38" width="22" height="3.5"/><rect class="cls-1" x="27.4" y="45.38" width="16" height="3.5"/></svg>