<svg width="76" height="76" viewBox="0 0 76 76" fill="none" xmlns="http://www.w3.org/2000/svg">
<path d="M70.0766 46.9825C70.3778 45.294 70.4782 43.6054 70.4782 41.8174C70.4782 30.8913 64.9564 20.8591 55.72 14.8993C54.8164 14.3034 53.712 14.6013 53.1096 15.4953C52.5073 16.3892 52.8085 17.4819 53.6116 18.0778C61.8441 23.3423 66.6631 32.2819 66.6631 41.9168C66.6631 43.208 66.5627 44.4993 66.362 45.7906C65.7596 45.6913 65.0568 45.592 64.4544 45.592C58.1295 45.592 52.9089 50.6577 52.9089 57.0148C52.9089 63.3718 58.0291 68.4376 64.4544 68.4376C70.8798 68.4376 76 63.3718 76 57.0148C76 52.6443 73.5905 48.9691 70.0766 46.9825ZM64.4544 64.6631C60.1374 64.6631 56.7239 61.1866 56.7239 57.0148C56.7239 52.7436 60.2378 49.3664 64.4544 49.3664C68.7715 49.3664 72.1849 52.843 72.1849 57.0148C72.2853 61.1866 68.7715 64.6631 64.4544 64.6631ZM50.3989 67.5436C46.4835 69.4309 42.2668 70.3248 37.9498 70.3248C31.5244 70.3248 25.2999 68.2389 20.2801 64.2658C21.9868 62.2792 23.0912 59.6966 23.0912 56.8161C23.0912 50.5584 17.9709 45.3933 11.5456 45.3933C5.22061 45.3933 6.1277e-06 50.4591 6.1277e-06 56.8161C6.1277e-06 63.1731 5.12022 68.2389 11.5456 68.2389C13.6539 68.2389 15.5614 67.6429 17.2682 66.6497C23.0912 71.4174 30.3197 74 37.8494 74C42.7688 74 47.4875 72.9074 51.9049 70.8215C52.8085 70.4242 53.21 69.2322 52.8085 68.3383C52.5073 67.5436 51.3025 67.1463 50.3989 67.5436ZM3.81505 56.9154C3.81505 52.6443 7.32894 49.2671 11.5456 49.2671C15.7622 49.2671 19.2761 52.7436 19.2761 56.9154C19.2761 61.1866 15.7622 64.5638 11.5456 64.5638C7.32894 64.5638 3.81505 61.1866 3.81505 56.9154ZM7.42933 42.5128C7.42933 42.5128 7.52972 42.5128 7.42933 42.5128C8.53369 42.5128 9.33685 41.7181 9.33685 40.7248C9.63804 31.0899 14.8586 22.349 23.1915 17.3826C24.3963 16.6873 25.6011 16.0913 26.8058 15.5946C28.5126 19.7664 32.6288 22.8456 37.5482 22.8456C43.8732 22.8456 49.0938 17.7799 49.0938 11.4228C49.0938 5.06578 43.9736 1.21251e-05 37.5482 1.21251e-05C31.2233 1.21251e-05 26.0026 5.06578 26.0026 11.4228C26.0026 11.6215 26.0026 11.7208 26.0026 11.9195C24.3963 12.6148 22.79 13.3101 21.1836 14.3034C11.7464 19.9651 5.92339 29.7987 5.5218 40.7248C5.6222 41.6188 6.42536 42.5128 7.42933 42.5128ZM37.5482 3.67516C41.8653 3.67516 45.2787 7.15168 45.2787 11.3235C45.2787 15.5946 41.7649 18.9718 37.5482 18.9718C33.2312 18.9718 29.8177 15.4953 29.8177 11.3235C29.8177 7.15168 33.3316 3.67516 37.5482 3.67516Z" fill="#3289F1"/>
</svg>
