<svg width="72" height="72" viewBox="0 0 72 72" fill="none" xmlns="http://www.w3.org/2000/svg">
<path d="M72 36.63C72 35.1978 71.4436 33.8243 70.4532 32.8116C69.4628 31.7989 68.1195 31.23 66.7188 31.23H65.6626V23.76C65.6626 21.8504 64.9207 20.0191 63.6002 18.6688C62.2796 17.3186 60.4886 16.56 58.621 16.56H37.7604V1.8C37.7604 1.32261 37.5749 0.864774 37.2448 0.527208C36.9146 0.189643 36.4669 0 36 0C35.5331 0 35.0854 0.189643 34.7552 0.527208C34.4251 0.864774 34.2396 1.32261 34.2396 1.8V16.56H13.379C11.5114 16.56 9.72038 17.3186 8.39983 18.6688C7.07929 20.0191 6.33741 21.8504 6.33741 23.76V31.23H5.28117C3.88052 31.23 2.53723 31.7989 1.54682 32.8116C0.556407 33.8243 3.35768e-07 35.1978 3.35768e-07 36.63V47.25C3.35768e-07 48.6822 0.556407 50.0557 1.54682 51.0684C2.53723 52.0811 3.88052 52.65 5.28117 52.65H6.33741V64.8C6.33741 66.7096 7.07929 68.5409 8.39983 69.8912C9.72038 71.2414 11.5114 72 13.379 72H58.621C60.4886 72 62.2796 71.2414 63.6002 69.8912C64.9207 68.5409 65.6626 66.7096 65.6626 64.8V52.65H66.7188C68.1195 52.65 69.4628 52.0811 70.4532 51.0684C71.4436 50.0557 72 48.6822 72 47.25V36.63ZM68.4792 47.25C68.4792 47.7274 68.2937 48.1852 67.9636 48.5228C67.6335 48.8604 67.1857 49.05 66.7188 49.05H63.9022C63.4353 49.05 62.9876 49.2396 62.6574 49.5772C62.3273 49.9148 62.1418 50.3726 62.1418 50.85V64.8C62.1418 65.7548 61.7709 66.6705 61.1106 67.3456C60.4503 68.0207 59.5548 68.4 58.621 68.4H13.379C12.4452 68.4 11.5497 68.0207 10.8894 67.3456C10.2291 66.6705 9.85819 65.7548 9.85819 64.8V50.85C9.85819 50.3726 9.67272 49.9148 9.34258 49.5772C9.01245 49.2396 8.56468 49.05 8.0978 49.05H5.28117C4.81429 49.05 4.36653 48.8604 4.03639 48.5228C3.70625 48.1852 3.52078 47.7274 3.52078 47.25V36.63C3.52078 36.1526 3.70625 35.6948 4.03639 35.3572C4.36653 35.0196 4.81429 34.83 5.28117 34.83H8.0978C8.56468 34.83 9.01245 34.6404 9.34258 34.3028C9.67272 33.9652 9.85819 33.5074 9.85819 33.03V23.76C9.85819 22.8052 10.2291 21.8895 10.8894 21.2144C11.5497 20.5393 12.4452 20.16 13.379 20.16H58.621C59.5548 20.16 60.4503 20.5393 61.1106 21.2144C61.7709 21.8895 62.1418 22.8052 62.1418 23.76V33.03C62.1418 33.5074 62.3273 33.9652 62.6574 34.3028C62.9876 34.6404 63.4353 34.83 63.9022 34.83H66.7188C67.1857 34.83 67.6335 35.0196 67.9636 35.3572C68.2937 35.6948 68.4792 36.1526 68.4792 36.63V47.25Z" fill="#3289F1"/>
<path d="M32.2998 38.5204C32.2998 36.9718 31.8507 35.458 31.0092 34.1703C30.1678 32.8827 28.9718 31.8791 27.5726 31.2865C26.1733 30.6938 24.6336 30.5388 23.1481 30.8409C21.6627 31.143 20.2982 31.8887 19.2273 32.9838C18.1563 34.0788 17.427 35.474 17.1315 36.9929C16.836 38.5117 16.9877 40.0861 17.5673 41.5168C18.1469 42.9476 19.1284 44.1705 20.3877 45.0308C21.647 45.8912 23.1275 46.3504 24.6421 46.3504C26.673 46.3504 28.6208 45.5255 30.0569 44.0571C31.493 42.5887 32.2998 40.5971 32.2998 38.5204ZM24.6421 42.7504C24.0988 42.7504 23.5609 42.641 23.0589 42.4284C22.557 42.2159 22.101 41.9043 21.7168 41.5115C21.3327 41.1187 21.028 40.6524 20.8201 40.1392C20.6122 39.626 20.5052 39.0759 20.5052 38.5204C20.5052 37.3986 20.941 36.3226 21.7168 35.5294C22.4927 34.7361 23.5449 34.2904 24.6421 34.2904C25.7393 34.2904 26.7915 34.7361 27.5673 35.5294C28.3431 36.3226 28.779 37.3986 28.779 38.5204C28.779 39.6423 28.3431 40.7182 27.5673 41.5115C26.7915 42.3048 25.7393 42.7504 24.6421 42.7504Z" fill="#3289F1"/>
<path d="M47.3533 30.6001C45.8177 30.5823 44.3116 31.0316 43.0263 31.8909C41.741 32.7503 40.7345 33.9809 40.1347 35.4264C39.5349 36.8719 39.3689 38.4671 39.6578 40.0093C39.9466 41.5515 40.6773 42.9711 41.757 44.0878C42.8367 45.2045 44.2166 45.9678 45.7215 46.2807C47.2264 46.5937 48.7882 46.4422 50.2087 45.8455C51.6292 45.2487 52.8442 44.2338 53.6992 42.9294C54.5543 41.6251 55.0109 40.0904 55.011 38.5201C55.0226 37.4843 54.8331 36.4565 54.4535 35.4961C54.0739 34.5357 53.5117 33.6618 52.7994 32.9252C52.0872 32.1886 51.2391 31.6037 50.3042 31.2046C49.3694 30.8055 48.3664 30.6001 47.3533 30.6001ZM47.3533 42.7501C46.2561 42.7501 45.2039 42.3045 44.428 41.5112C43.6522 40.7179 43.2164 39.642 43.2164 38.5201C43.2164 37.9646 43.3234 37.4146 43.5313 36.9014C43.7392 36.3882 44.0439 35.9218 44.428 35.5291C44.8122 35.1363 45.2682 34.8247 45.7701 34.6121C46.2721 34.3995 46.81 34.2901 47.3533 34.2901C47.8965 34.2901 48.4345 34.3995 48.9364 34.6121C49.4383 34.8247 49.8944 35.1363 50.2785 35.5291C50.6627 35.9218 50.9674 36.3882 51.1753 36.9014C51.3832 37.4146 51.4902 37.9646 51.4902 38.5201C51.4902 39.642 51.0543 40.7179 50.2785 41.5112C49.5027 42.3045 48.4505 42.7501 47.3533 42.7501Z" fill="#3289F1"/>
<path d="M46.7424 55.7109H25.2656V59.3109H46.7424V55.7109Z" fill="#3289F1"/>
</svg>
