<svg width="76" height="76" viewBox="0 0 76 76" fill="none" xmlns="http://www.w3.org/2000/svg">
<path d="M14.0349 38.5774C14.0366 38.5844 14.0366 38.5914 14.0383 38.5975C14.0459 38.6273 14.0595 38.6553 14.0688 38.6842C14.079 38.7148 14.085 38.7463 14.0977 38.7761C14.1003 38.7813 14.1045 38.7848 14.1062 38.7901C14.1461 38.8802 14.1979 38.9625 14.2582 39.0387C14.2752 39.0597 14.293 39.0781 14.3109 39.0973C14.3627 39.1534 14.4187 39.2041 14.4816 39.2488C14.4994 39.2619 14.5164 39.2768 14.5351 39.289C14.5436 39.2943 14.5503 39.3013 14.5588 39.3065L36.3144 52.3229C36.4876 52.4262 36.6812 52.4779 36.874 52.4779C36.9173 52.4779 36.9589 52.4656 37.0014 52.4603C37.0439 52.4656 37.0863 52.4779 37.1288 52.4779C37.3224 52.4779 37.5152 52.4262 37.6884 52.3229L59.444 39.3065C59.703 39.1516 59.8898 38.896 59.9645 38.5975C60.0384 38.299 59.9934 37.9821 59.8389 37.7178L38.0859 0.552394C37.8659 0.177746 37.4642 -0.0148298 37.0515 0.014932C36.6065 -0.0594723 36.1564 0.147984 35.9195 0.552394L14.1631 37.7187C14.1487 37.7432 14.1402 37.7703 14.1274 37.7966C14.1087 37.8351 14.0884 37.8718 14.0739 37.9121C14.0629 37.9427 14.0569 37.9751 14.0476 38.0075C14.0366 38.0478 14.0247 38.0881 14.0179 38.1292C14.0128 38.1607 14.0128 38.1931 14.0102 38.2255C14.0068 38.2684 14.0026 38.3104 14.0043 38.3542C14.0051 38.3874 14.0111 38.4198 14.0153 38.4531C14.0213 38.4942 14.0247 38.5354 14.0349 38.5774ZM38.2455 5.27838L56.1991 35.9496L38.2455 27.7826V5.27838ZM38.2455 30.2957L56.3197 38.5179L38.2455 49.3319V30.2957ZM35.759 5.27838V27.6662L17.898 35.7912L35.759 5.27838ZM35.759 30.1802V49.331L17.5744 38.4522L35.759 30.1802Z" fill="#3289F1"/>
<path d="M58.3132 42.4975L36.9993 55.5568L15.6854 42.4975C15.2327 42.2192 14.651 42.3076 14.2943 42.7076C13.9368 43.1085 13.9011 43.7125 14.2085 44.1546L35.9641 75.5182C36.1772 75.8263 36.5186 75.9996 36.8719 75.9996C36.9144 75.9996 36.9568 75.9839 36.9993 75.9786C37.0418 75.9839 37.0842 75.9996 37.1267 75.9996C37.48 75.9996 37.8205 75.8263 38.0345 75.5182L59.79 44.1546C60.0975 43.7125 60.0609 43.1085 59.7043 42.7076C59.3467 42.3076 58.7659 42.22 58.3132 42.4975ZM35.756 71.2649L19.1145 47.2743L35.756 57.4703V71.2649ZM38.2426 71.2649V57.4703L54.884 47.2743L38.2426 71.2649Z" fill="#3289F1"/>
</svg>
