<svg width="70" height="74" viewBox="0 0 70 74" fill="none" xmlns="http://www.w3.org/2000/svg">
<path d="M47.5152 52.7109C46.8864 53.3447 46.3452 54.0413 45.8772 54.7779L25.1416 42.092C25.69 40.7084 26.0008 39.2038 26.0008 37.6255C26.0008 36.0472 25.69 34.5426 25.1428 33.159L45.8832 20.5699C48.0132 23.9418 51.7475 26.1889 56.0002 26.1889C62.6169 26.1889 68 20.7634 68 14.0945C68 7.42558 62.6169 2 56.0002 2C49.3835 2 44.0004 7.42558 44.0004 14.0945C44.0004 15.6135 44.292 17.0625 44.8008 18.4025L24.0328 31.0086C21.8872 27.7141 18.1937 25.531 13.9998 25.531C7.3831 25.531 2 30.9566 2 37.6255C2 44.2944 7.3831 49.72 13.9998 49.72C18.1937 49.72 21.886 47.5369 24.0316 44.2424L44.796 56.9452C44.28 58.307 43.9992 59.762 43.9992 61.2629C43.9992 64.4934 45.2472 67.5315 47.514 69.8149C49.8527 72.1721 52.9259 73.3513 55.999 73.3513C59.0722 73.3513 62.1453 72.1721 64.4841 69.8149C66.7508 67.5303 67.9988 64.4934 67.9988 61.2629C67.9988 58.0325 66.7508 54.9944 64.4841 52.7109C59.8054 47.9941 52.1939 47.9941 47.5152 52.7109ZM56.0002 4.41889C61.2933 4.41889 65.6 8.7596 65.6 14.0945C65.6 19.4293 61.2933 23.7701 56.0002 23.7701C50.7071 23.7701 46.4004 19.4293 46.4004 14.0945C46.4004 8.7596 50.7059 4.41889 56.0002 4.41889ZM14.001 47.3011C8.70788 47.3011 4.40116 42.9604 4.40116 37.6255C4.40116 32.2906 8.70788 27.9499 14.001 27.9499C19.2941 27.9499 23.6008 32.2906 23.6008 37.6255C23.6008 42.9604 19.2941 47.3011 14.001 47.3011ZM62.7873 68.1048C59.0446 71.877 52.9547 71.877 49.2119 68.1048C47.3988 66.2773 46.4004 63.8463 46.4004 61.2629C46.4004 58.6795 47.3988 56.2486 49.2119 54.4211C51.0839 52.5343 53.5415 51.5922 56.0002 51.5922C58.459 51.5922 60.9165 52.5343 62.7885 54.4211C64.6017 56.2486 65.6 58.6795 65.6 61.2629C65.6 63.8463 64.6017 66.2773 62.7873 68.1048Z" fill="#3289F1" stroke="#3289F1" stroke-width="0.5"/>
</svg>
