<?xml version="1.0" encoding="utf-8"?>
<!-- Generator: Adobe Illustrator 19.2.1, SVG Export Plug-In . SVG Version: 6.00 Build 0)  -->
<svg version="1.1" id="Capa_1" xmlns="http://www.w3.org/2000/svg" xmlns:xlink="http://www.w3.org/1999/xlink" x="0px" y="0px"
	 viewBox="0 0 370.1 331.3" style="enable-background:new 0 0 370.1 331.3;" xml:space="preserve">
<style type="text/css">
	.st0{fill:url(#SVGID_1_);}
	.st1{fill:url(#SVGID_2_);}
	.st2{fill:url(#SVGID_3_);}
	.st3{fill:#20201E;}
	.st4{fill:url(#SVGID_4_);}
	.st5{fill:#353534;}
	.st6{fill:#282828;}
	.st7{fill:url(#SVGID_5_);stroke:url(#SVGID_6_);stroke-width:8;stroke-miterlimit:10;}
</style>
<g>
	
		<linearGradient id="SVGID_1_" gradientUnits="userSpaceOnUse" x1="1981.9636" y1="2444.4961" x2="2163.2969" y2="2444.4961" gradientTransform="matrix(-0.2964 0.9551 -0.9551 -0.2964 3154.6836 -1144.0933)">
		<stop  offset="3.919654e-02" style="stop-color:#2CF4E1"/>
		<stop  offset="1" style="stop-color:#2CB2E1"/>
	</linearGradient>
	<circle class="st0" cx="197" cy="139.1" r="90.7"/>
	<linearGradient id="SVGID_2_" gradientUnits="userSpaceOnUse" x1="244.6016" y1="113.1318" x2="324.3362" y2="222.1181">
		<stop  offset="3.919654e-02" style="stop-color:#2CF4E1"/>
		<stop  offset="1" style="stop-color:#2CB2E1"/>
	</linearGradient>
	<path class="st1" d="M260.7,111.9c6.5,8.8,9.9,19.2,9.9,30c0,13.1-5.4,25.2-14.6,35l5.6,20.9h17l17.9-20.3l4.8-29.7l1-17.7
		l-17.7-20L260.7,111.9z"/>
	<g>
		<linearGradient id="SVGID_3_" gradientUnits="userSpaceOnUse" x1="111.4558" y1="126.7419" x2="224.1224" y2="280.7419">
			<stop  offset="0" style="stop-color:#2CE5E1"/>
			<stop  offset="1" style="stop-color:#2CB2E1"/>
		</linearGradient>
		<path class="st2" d="M63.7,200.2l3.1,12.3c0,0,36.6,75.1,119,103c0,0,77.2-32,110.5-86.3l-48.2-40.1c0,0-22,17.5-54.7,17.5
			c-32.7,0-77.1-19.5-77.1-59.7c0-40.2,46-54.9,46-54.9l-19.6-4.8H92.6l-31.8,76.6L63.7,200.2z"/>
	</g>
	<path class="st3" d="M305.4,228.1"/>
	<linearGradient id="SVGID_4_" gradientUnits="userSpaceOnUse" x1="186.4738" y1="233.7267" x2="186.4738" y2="36.5">
		<stop  offset="0" style="stop-color:#000000"/>
		<stop  offset="1" style="stop-color:#0D0D0D"/>
	</linearGradient>
	<path class="st4" d="M340.6,119.5c-1.4-1.4-42-44.4-153.3-82.7l-0.7-0.3c-107.8,37-154.2,83-154.2,83c4.2,24.5,14.8,51.8,24.4,73
		c0.8,1.8,13.6,24.4,23.1,36.7c-5.6-12.3-11.7-23-11.7-41.4c0-51.9,40.2-94.1,90.5-95.9c1.2,0,2.5,0,3.7,0.1l-12-12
		c0,0,48.3-8.1,110.3,29.4c0,0,0.9,1.9,0,7.5c0,0,29.2,12.6,31.7,37.1s-13,38.5-25.5,40.5c0,0,6.5-10.1-3.5-15.5
		c-2.1-1.2-4.6-1.7-7.1-1.6v0c-19.1,0-21.3,21.8-21.3,21.8c-0.2,1.1-0.2,2.2-0.2,3.3c0,0-3.2,31.9,53.6,31.3
		c0,0,28.8-32.6,36.4-61.9c2.8-10.8,4.8-18.9,6.1-24.9c3.2-8.5,6.3-17.3,9.3-26.4L340.6,119.5z"/>
	<path class="st5" d="M236.6,116"/>
	<path class="st6" d="M236,119.1c0.8-0.4,3.4-1.7,6.4-4.8c6,0.8,11.9,2.7,11.9,2.7c-10.9-6.6-25.8-10.5-42.3-10.4
		c0,0,6.3,9,23.8,12.7C235.8,119.3,235.9,119.2,236,119.1z"/>
	<g>
		<path class="st6" d="M186.1,41.3c10.6,3.3,87.6,28.9,149.2,79.8l6.9-2l-0.5-0.4c-60.2-51-136.3-77.5-152.1-82.6l-1.5-0.5l-2-0.6
			l-3.5,1.1c-15.8,5.1-91.9,31.6-152.1,82.6l-0.7,0.6l6.7,2.2C98.1,70.3,175.5,44.6,186.1,41.3z"/>
	</g>
	<linearGradient id="SVGID_5_" gradientUnits="userSpaceOnUse" x1="186.057" y1="248.7955" x2="186.057" y2="-16.9728">
		<stop  offset="3.919654e-02" style="stop-color:#2CF4E1"/>
		<stop  offset="1" style="stop-color:#2CB2E1"/>
	</linearGradient>
	<linearGradient id="SVGID_6_" gradientUnits="userSpaceOnUse" x1="24.8415" y1="168.8616" x2="347.2726" y2="168.8616">
		<stop  offset="3.919654e-02" style="stop-color:#2CF4E1"/>
		<stop  offset="1" style="stop-color:#2CB2E1"/>
	</linearGradient>
	<path class="st7" d="M341.7,109.2c-60.2-51-136.3-77.5-152.1-82.6l-1.5-0.5l-2-0.6l-3.5,1.1c-15.8,5.1-91.9,31.6-152.1,82.6
		l-1.3,1.1l0.3,1.7c0.1,0.4,6.6,39.1,28.8,82.8c13.1,25.7,29,48,47.2,66.5c22.3,22.6,48.3,39.3,77.2,49.7l1.7,0.6l1.7,0.6l1.8-0.7
		l1.7-0.6c28.9-10.4,54.8-27.1,77.2-49.7c18.2-18.4,34.1-40.8,47.2-66.5c22.2-43.6,28.8-82.4,28.8-82.8l0.3-1.7L341.7,109.2z
		 M308.5,192c-12.8,25.1-28.3,47-46.1,65c-22.1,22.3-47.7,38.7-76.3,48.8c-28.6-10.1-54.2-26.4-76.3-48.7
		c-17.8-18-33.3-39.8-46.1-64.9c-19.3-37.8-26.5-71.7-28-79.5C97.4,61,175.4,35.2,186.1,31.8c10.6,3.4,88.7,29.2,150.4,80.9
		C335,120.4,327.7,154.3,308.5,192z"/>
</g>
</svg>
