<svg width="42" height="36" viewBox="0 0 42 36" fill="none" xmlns="http://www.w3.org/2000/svg">
<path fill-rule="evenodd" clip-rule="evenodd" d="M19.9861 5.40966C19.9861 6.40787 19.7347 7.34168 19.2634 8.14669C19.1691 8.30769 19.0434 8.46869 18.9491 8.6297L17.9435 9.66011L10.0245 18L1.66551 9.3703C1.66551 9.3703 1.66551 9.3703 1.63409 9.3381L1.44554 9.1449C1.16271 8.8551 0.942742 8.50089 0.722769 8.14669C0.251398 7.37388 0 6.40787 0 5.40966C0 2.41503 2.35685 0 5.24793 0C7.32196 0 9.11317 1.25581 9.99306 3.05903C10.8415 1.25581 12.6327 0 14.7068 0C17.6293 0 19.9861 2.41503 19.9861 5.40966Z" transform="translate(0.0483398) scale(2)" fill="#FF573F"/>
</svg>
