<svg width="680" height="506" viewBox="0 0 680 506" fill="none" xmlns="http://www.w3.org/2000/svg">
<ellipse cx="5.54373" cy="5.55975" rx="5.54373" ry="5.55975" transform="translate(117.916 483.762) scale(-2 2)" fill="black"/>
<ellipse cx="5.54373" cy="5.55975" rx="5.54373" ry="5.55975" transform="translate(66.7402 196.73) scale(-2 2)" fill="black"/>
<ellipse cx="5.54373" cy="5.55975" rx="5.54373" ry="5.55975" transform="translate(244.141 280.555) scale(-2 2)" fill="black"/>
<ellipse cx="5.54373" cy="5.55975" rx="5.54373" ry="5.55975" transform="translate(494.888 148.828) scale(-2 2)" fill="black"/>
<ellipse cx="5.54373" cy="5.55975" rx="5.54373" ry="5.55975" transform="translate(221.969 22.2383) scale(-2 2)" fill="black"/>
<ellipse cx="3.41153" cy="3.42138" rx="3.41153" ry="3.42138" transform="translate(293.61 409.672) scale(-2 2)" fill="black"/>
<ellipse cx="3.41153" cy="3.42138" rx="3.41153" ry="3.42138" transform="translate(508.535 482.051) scale(-2 2)" fill="black"/>
<ellipse cx="3.41153" cy="3.42138" rx="3.41153" ry="3.42138" transform="translate(15.5688 25.6602) scale(-2 2)" fill="black"/>
<ellipse cx="3.41153" cy="3.42138" rx="3.41153" ry="3.42138" transform="translate(522.182) scale(-2 2)" fill="black"/>
<ellipse cx="3.41153" cy="3.42138" rx="3.41153" ry="3.42138" transform="translate(15.5688 372.93) scale(-2 2)" fill="black"/>
<ellipse cx="3.41153" cy="3.42138" rx="3.41153" ry="3.42138" transform="translate(435.188 314.766) scale(-2 2)" fill="black"/>
<ellipse cx="3.41153" cy="3.42138" rx="3.41153" ry="3.42138" transform="translate(653.747 352) scale(-2 2)" fill="black"/>
<ellipse cx="3.41153" cy="3.42138" rx="3.41153" ry="3.42138" transform="translate(679.729 76) scale(-2 2)" fill="black"/>
<ellipse cx="3.41153" cy="3.42138" rx="3.41153" ry="3.42138" transform="translate(305.551 138.566) scale(-2 2)" fill="black"/>
</svg>
