<svg width="730" height="566" viewBox="0 0 730 566" fill="none" xmlns="http://www.w3.org/2000/svg">
<ellipse cx="5.54373" cy="5.55975" rx="5.54373" ry="5.55975" transform="translate(569.231 541.863) scale(2)" fill="black"/>
<ellipse cx="5.54373" cy="5.55975" rx="5.54373" ry="5.55975" transform="translate(620.402 302.363) scale(2)" fill="black"/>
<ellipse cx="5.54373" cy="5.55975" rx="5.54373" ry="5.55975" transform="translate(425.944 249.332) scale(2)" fill="black"/>
<ellipse cx="5.54373" cy="5.55975" rx="5.54373" ry="5.55975" transform="translate(707.397 74.8438) scale(2)" fill="black"/>
<ellipse cx="3.41153" cy="3.42138" rx="3.41153" ry="3.42138" transform="translate(444.712 430.668) scale(2)" fill="black"/>
<ellipse cx="3.41153" cy="3.42138" rx="3.41153" ry="3.42138" transform="translate(180.317 546.992) scale(2)" fill="black"/>
<ellipse cx="3.41153" cy="3.42138" rx="3.41153" ry="3.42138" transform="translate(620.402 165.508) scale(2)" fill="black"/>
<ellipse cx="3.41153" cy="3.42138" rx="3.41153" ry="3.42138" transform="translate(265.602 182.617) scale(2)" fill="black"/>
<ellipse cx="3.41153" cy="3.42138" rx="3.41153" ry="3.42138" transform="translate(705.691 444.352) scale(2)" fill="black"/>
<ellipse cx="3.41153" cy="3.42138" rx="3.41153" ry="3.42138" transform="translate(269.014 386.188) scale(2)" fill="black"/>
<ellipse cx="3.41153" cy="3.42138" rx="3.41153" ry="3.42138" transform="translate(1.95703 458) scale(2)" fill="black"/>
<ellipse cx="3.41153" cy="3.42138" rx="3.41153" ry="3.42138" transform="translate(1.95703) scale(2)" fill="black"/>
<ellipse cx="3.41153" cy="3.42138" rx="3.41153" ry="3.42138" transform="translate(77.9043 262) scale(2)" fill="black"/>
<ellipse cx="3.41153" cy="3.42138" rx="3.41153" ry="3.42138" transform="translate(465.178 86.8164) scale(2)" fill="black"/>
<ellipse cx="3.41153" cy="3.42138" rx="3.41153" ry="3.42138" transform="translate(159.847 86.8164) scale(2)" fill="black"/>
</svg>
