<svg width="42" height="28" viewBox="0 0 42 28" fill="none" xmlns="http://www.w3.org/2000/svg">
<path fill-rule="evenodd" clip-rule="evenodd" d="M13.4071 11.6878H1.76832C0.771632 11.6878 0 10.9065 0 9.96896V1.71879C0 0.781267 0.803783 0 1.76832 0H13.3749C14.3716 0 15.1433 0.781267 15.1433 1.71879L16.1078 9.93771C16.14 10.9065 14.3716 11.6878 13.4071 11.6878Z" transform="translate(0.410645) scale(2)" fill="#04060C"/>
<path fill-rule="evenodd" clip-rule="evenodd" d="M8.32719 7.1564H0.96454C0.417967 7.1564 0 6.75015 0 6.21888V0.93752C0 0.406259 0.417967 0 0.96454 0H8.29504C8.84161 0 9.25958 0.406259 9.25958 0.93752V6.18763C9.29173 6.71889 8.84161 7.1564 8.32719 7.1564Z" transform="translate(21.8877 9.06641) scale(2)" fill="#04060C"/>
<path d="M2.3792 4.6251C3.69319 4.6251 4.7584 3.58974 4.7584 2.31255C4.7584 1.03536 3.69319 0 2.3792 0C1.0652 0 0 1.03536 0 2.31255C0 3.58974 1.0652 4.6251 2.3792 4.6251Z" transform="translate(4.20508 18.75) scale(2)" fill="#04060C"/>
<path d="M2.3792 4.6251C3.69319 4.6251 4.7584 3.58974 4.7584 2.31255C4.7584 1.03536 3.69319 0 2.3792 0C1.0652 0 0 1.03536 0 2.31255C0 3.58974 1.0652 4.6251 2.3792 4.6251Z" transform="translate(26.3887 18.75) scale(2)" fill="#04060C"/>
</svg>
