<svg width="36" height="30" viewBox="0 0 36 30" fill="none" xmlns="http://www.w3.org/2000/svg">
<rect width="17.2308" height="14" fill="black" fill-opacity="0" transform="translate(0 29) scale(2 -2)"/>
<rect width="17.2308" height="14" fill="black" fill-opacity="0" transform="translate(0 29) scale(2 -2)"/>
<path fill-rule="evenodd" clip-rule="evenodd" d="M11.9196 6.90474C18.7267 6.90474 25.5338 6.90474 32.3409 6.90474C35.1684 6.90474 35.1684 2.355 32.3409 2.355C25.5338 2.355 18.7267 2.355 11.9196 2.355C9.0921 2.355 9.0921 6.90474 11.9196 6.90474ZM3.41008 8.27457C5.29364 8.27457 6.82103 6.64616 6.82103 4.63682C6.82103 2.62841 5.29364 1 3.41008 1C1.5274 1 0 2.62841 0 4.63682C0 6.64616 1.5274 8.27457 3.41008 8.27457ZM11.9196 17.2684C18.7267 17.2684 25.5338 17.2684 32.3409 17.2684C35.1684 17.2684 35.1684 12.7177 32.3409 12.7177C25.5338 12.7177 18.7267 12.7177 11.9196 12.7177C9.0921 12.7177 9.0921 17.2684 11.9196 17.2684ZM3.41008 18.6373C5.29364 18.6373 6.82103 17.0089 6.82103 14.9995C6.82103 12.9911 5.29364 11.3627 3.41008 11.3627C1.5274 11.3627 0 12.9911 0 14.9995C0 17.0089 1.5274 18.6373 3.41008 18.6373ZM11.9196 27.6311C18.7267 27.6311 25.5338 27.6311 32.3409 27.6311C35.1684 27.6311 35.1684 23.0804 32.3409 23.0804C25.5338 23.0804 18.7267 23.0804 11.9196 23.0804C9.0921 23.0804 9.0921 27.6311 11.9196 27.6311ZM3.41008 29C5.29364 29 6.82103 27.3716 6.82103 25.3623C6.82103 23.3538 5.29364 21.7254 3.41008 21.7254C1.5274 21.7254 0 23.3538 0 25.3623C0 27.3716 1.5274 29 3.41008 29Z" fill="#999999"/>
</svg>
