<svg width="38" height="36" viewBox="0 0 38 36" fill="none" xmlns="http://www.w3.org/2000/svg">
<rect width="18.3529" height="18" fill="black" fill-opacity="0" transform="scale(2)"/>
<path d="M18.3529 0C8.2176 0 0 8.26332 0 18.455C0 26.6102 5.25812 33.5264 12.5515 35.9661C13.469 36.1351 13.8039 35.5651 13.8039 35.0785C13.8039 34.6392 13.7871 33.1839 13.7781 31.643C8.67463 32.7581 7.5959 29.4668 7.5959 29.4668C6.76026 27.3356 5.55829 26.7679 5.55829 26.7679C3.89036 25.6235 5.68482 25.646 5.68482 25.646C7.5275 25.7744 8.49763 27.5474 8.49763 27.5474C10.1353 30.3679 12.7946 29.5524 13.8386 29.0793C14.0054 27.8898 14.4804 27.0743 15.0036 26.6147C10.9295 26.1484 6.64376 24.5647 6.64376 17.4931C6.64376 15.4768 7.35957 13.8323 8.53125 12.5403C8.34417 12.0717 7.71239 10.194 8.7127 7.65394C8.7127 7.65394 10.2518 7.15832 13.7602 9.5463C15.2231 9.13517 16.7925 8.93242 18.3529 8.92564C19.9122 8.93242 21.4827 9.13741 22.9479 9.54854C26.4496 7.15832 27.9909 7.65617 27.9909 7.65617C28.9946 10.1985 28.3628 12.0739 28.1746 12.5403C29.3508 13.8323 30.061 15.4768 30.061 17.4931C30.061 24.5827 25.7685 26.1439 21.6799 26.6012C22.3408 27.1734 22.9255 28.2953 22.9255 30.0165C22.9255 32.4833 22.9009 34.4725 22.9009 35.0808C22.9009 35.5719 23.2346 36.1464 24.1644 35.9661C31.4523 33.5218 36.7059 26.6057 36.7059 18.455C36.7059 8.26332 28.4883 0 18.3529 0Z" fill="#999999"/>
</svg>
