<svg width="209" height="112" viewBox="0 0 209 112" fill="none" xmlns="http://www.w3.org/2000/svg">
<rect x="2" y="32" width="178.035" height="77.5613" rx="3.29952" fill="#8397DE" stroke="#5265AA" stroke-width="4"/>
<path d="M121.491 69.9311C121.491 88.7841 107.718 103.915 90.9058 103.915C74.0938 103.915 60.3203 88.7841 60.3203 69.9311C60.3203 51.0782 74.0938 35.9473 90.9058 35.9473C107.718 35.9473 121.491 51.0782 121.491 69.9311Z" fill="#6E80BF" stroke="#6E80BF" stroke-width="1.69919"/>
<path d="M172.468 50.39C172.468 55.6225 168.596 59.7356 163.972 59.7356C159.347 59.7356 155.476 55.6225 155.476 50.39C155.476 45.1575 159.347 41.0444 163.972 41.0444C168.596 41.0444 172.468 45.1575 172.468 50.39Z" fill="#6E80C0" stroke="#8397DE" stroke-width="1.69919"/>
<path d="M172.468 93.1903C172.468 98.4228 168.596 102.536 163.972 102.536C159.347 102.536 155.476 98.4228 155.476 93.1903C155.476 87.9578 159.347 83.8447 163.972 83.8447C168.596 83.8447 172.468 87.9578 172.468 93.1903Z" fill="#6E80C0" stroke="#8397DE" stroke-width="1.69919"/>
<path d="M26.3171 49.4691C26.3171 54.7016 22.4453 58.8147 17.8212 58.8147C13.197 58.8147 9.32518 54.7016 9.32518 49.4691C9.32518 44.2366 13.197 40.1235 17.8212 40.1235C22.4453 40.1235 26.3171 44.2366 26.3171 49.4691Z" fill="#6E80C0" stroke="#8397DE" stroke-width="1.69919"/>
<path d="M26.3367 92.87C26.3367 98.1025 22.4648 102.216 17.8407 102.216C13.2166 102.216 9.34471 98.1025 9.34471 92.87C9.34471 87.6375 13.2166 83.5244 17.8407 83.5244C22.4648 83.5244 26.3367 87.6375 26.3367 92.87Z" fill="#6E80C0" stroke="#8397DE" stroke-width="1.69919"/>
<path d="M105.329 70.7255L105.329 70.7256L93.111 77.9472L93.1106 77.9474C92.199 78.4868 91.0649 78.4871 90.1516 77.9472L90.1515 77.9471L77.9287 70.7256C76.537 69.903 76.0828 68.1043 76.9171 66.721L76.9172 66.7208L89.1402 46.4409L89.1402 46.4408C90.2706 44.5646 92.9907 44.5646 94.1211 46.4408L106.339 66.7207L106.339 66.7208C107.174 68.1058 106.719 69.9044 105.329 70.7255Z" fill="#5265AA" stroke="#5265AA" stroke-width="1.69919"/>
<path d="M93.4911 93.863L93.4911 93.863C92.5828 95.1423 90.6834 95.1423 89.7751 93.863L77.2355 76.1985L90.7948 84.2098C90.7952 84.21 90.7955 84.2102 90.7959 84.2104C91.3117 84.5159 91.9534 84.5158 92.4693 84.2103C92.4696 84.2101 92.4699 84.2099 92.4702 84.2098L106.035 76.1981L93.4911 93.863Z" fill="#5265AA" stroke="#5265AA" stroke-width="1.69919"/>
<circle cx="177" cy="32" r="32" fill="#9AA7D7"/>
<g opacity="0.7">
<line x1="195.064" y1="32.5152" x2="158.935" y2="32.5152" stroke="white" stroke-width="5.16129" stroke-linecap="round"/>
<line x1="177.516" y1="50.0644" x2="177.516" y2="13.9353" stroke="white" stroke-width="5.16129" stroke-linecap="round"/>
</g>
</svg>
