<svg width="343" height="127" viewBox="0 0 343 127" fill="none" xmlns="http://www.w3.org/2000/svg">
<circle cx="22" cy="101" r="22" fill="#0057FF"/>
<path fill-rule="evenodd" clip-rule="evenodd" d="M15.9276 102.3C16.7747 102.3 17.5795 102.47 18.3419 102.81C19.0873 103.133 19.7396 103.576 20.2986 104.137C20.8577 104.698 21.2982 105.353 21.6201 106.101C21.959 106.867 22.1284 107.675 22.1284 108.525C22.1284 109.392 21.9675 110.2 21.6455 110.949C21.3067 111.697 20.8577 112.356 20.2986 112.926C19.7395 113.496 19.0873 113.942 18.3419 114.265C17.5795 114.588 16.7747 114.75 15.9276 114.75C15.0635 114.75 14.2589 114.588 13.5133 114.265C12.7679 113.942 12.1114 113.496 11.5438 112.926C10.9763 112.356 10.5315 111.697 10.2096 110.949C9.88772 110.2 9.72677 109.392 9.72677 108.525C9.72677 107.675 9.88772 106.867 10.2096 106.101C10.5315 105.353 10.9763 104.698 11.5438 104.137C12.1114 103.576 12.7679 103.125 13.5133 102.785C14.2588 102.462 15.0635 102.3 15.9276 102.3ZM15.9276 112.582C17.0289 112.582 17.9734 112.186 18.7612 111.395C19.549 110.604 19.9429 109.648 19.9429 108.525C19.9429 107.42 19.549 106.471 18.7612 105.68C17.9734 104.89 17.0288 104.494 15.9276 104.494C14.8094 104.494 13.8564 104.89 13.0686 105.68C12.2807 106.471 11.8868 107.42 11.8868 108.525C11.8868 109.648 12.2807 110.604 13.0686 111.395C13.8564 112.186 14.8093 112.582 15.9276 112.582ZM29.5492 88.625C30.4132 88.625 31.2179 88.7866 31.9634 89.1097C32.7089 89.4329 33.3654 89.8794 33.9329 90.4491C34.5005 91.0189 34.9452 91.678 35.2671 92.4263C35.5891 93.1747 35.75 93.9826 35.75 94.85C35.75 95.7004 35.5891 96.5084 35.2671 97.2737C34.9452 98.0221 34.5005 98.6769 33.9329 99.2381C33.3654 99.7994 32.7089 100.25 31.9634 100.59C31.218 100.913 30.4132 101.075 29.5492 101.075C28.7021 101.075 27.8973 100.913 27.1349 100.59C26.3894 100.25 25.7372 99.7994 25.1781 99.2381C24.6191 98.6768 24.1701 98.022 23.8312 97.2737C23.5093 96.5083 23.3484 95.7004 23.3484 94.85C23.3484 93.9826 23.5093 93.1748 23.8312 92.4263C24.1701 91.678 24.619 91.0189 25.1781 90.4491C25.7372 89.8794 26.3895 89.4329 27.1349 89.1097C27.8973 88.7866 28.7021 88.625 29.5492 88.625ZM29.5492 98.881C30.6674 98.881 31.6204 98.4856 32.4082 97.6947C33.1961 96.9038 33.59 95.9555 33.59 94.85C33.59 93.7275 33.1961 92.7707 32.4082 91.9798C31.6204 91.189 30.6675 90.7935 29.5492 90.7935C28.4479 90.7935 27.5034 91.1889 26.7156 91.9798C25.9278 92.7707 25.5339 93.7274 25.5339 94.85C25.5339 95.9556 25.9278 96.9038 26.7156 97.6947C27.5034 98.4856 28.448 98.881 29.5492 98.881ZM15.1398 88.625H22.2046V90.7936H20.629C21.0864 91.3379 21.4465 91.9502 21.7091 92.6305C21.9717 93.3108 22.103 94.0337 22.103 94.7991V94.8502C22.103 95.7176 21.9336 96.5254 21.5947 97.2738C21.2728 98.0392 20.8281 98.7068 20.2605 99.2766C19.6929 99.8464 19.0364 100.293 18.291 100.616C17.5286 100.939 16.7154 101.101 15.8513 101.101C14.9872 101.101 14.1825 100.939 13.437 100.616C12.6746 100.293 12.0139 99.8464 11.4548 99.2766C10.8957 98.7068 10.4467 98.0392 10.1079 97.2738C9.78595 96.5255 9.625 95.7176 9.625 94.8502C9.625 94.0337 9.78595 93.2684 10.1079 92.554C10.4298 91.8396 10.8491 91.2061 11.3658 90.6534C11.8826 90.1006 12.4713 89.6456 13.132 89.2885C13.7928 88.9313 14.462 88.7187 15.1397 88.6506L15.1398 88.625ZM19.9429 94.8501C19.9429 93.7276 19.549 92.7708 18.7611 91.9799C17.9733 91.189 17.0287 90.7936 15.9275 90.7936C14.8093 90.7936 13.8563 91.189 13.0685 91.9799C12.2807 92.7708 11.8868 93.7274 11.8868 94.8501C11.8868 95.9557 12.2807 96.9038 13.0685 97.6947C13.8563 98.4856 14.8092 98.8811 15.9275 98.8811C17.0288 98.8811 17.9733 98.4856 18.7611 97.6947C19.5489 96.9039 19.9429 95.9556 19.9429 94.8501Z" fill="white"/>
<circle cx="75.5" cy="25.5" r="22.5" fill="#F08839"/>
<path d="M56.8066 31.7309C61.6528 31.5578 71.2413 31.7309 72.9028 33.8078C74.9797 36.404 62.5182 39.5193 72.9028 40.5578C80.4452 41.312 83.4605 43.327 83.8066 44.1924" stroke="white" stroke-width="1.73077"/>
<circle cx="75.4997" cy="25.5002" r="19.9038" stroke="white" stroke-width="1.73077"/>
<circle cx="72.039" cy="13.3847" r="4.32692" stroke="white" stroke-width="1.73077"/>
<path d="M56.2891 26.0186C56.6352 26.3647 57.4314 26.7455 57.8468 25.4993C58.2621 24.2532 60.0968 21.5186 60.9621 20.307H64.0775L66.1544 26.0186C67.1929 25.8455 69.3737 25.4993 69.7891 25.4993C70.3083 25.4993 71.3468 26.0186 71.866 26.0186M71.866 26.0186C72.3852 26.0186 73.9429 23.9416 74.9814 23.9416C76.0198 23.9416 79.1352 26.0186 79.1352 25.4993C79.1352 24.9801 81.7314 22.3839 82.2506 21.3455C82.666 20.5147 83.8083 19.9609 84.3275 19.7878C84.8468 19.9609 85.8852 20.2032 85.8852 19.7878C85.8852 19.2686 86.4044 18.7493 87.4429 20.307C88.4814 21.8647 90.0391 23.9416 90.5583 23.9416C91.0775 23.9416 91.5968 23.9416 92.116 24.4609C92.5314 24.8762 94.0198 26.3647 94.7121 27.057L95.5 28M71.866 26.0186L70.3083 29.1339" stroke="white" stroke-width="1.73077"/>
<path d="M85.885 33.9376C85.885 35.2995 84.9901 35.7159 83.7215 35.8374C83.3207 35.8758 82.8825 35.8847 82.4235 35.8847C81.9644 35.8847 81.5262 35.8758 81.1254 35.8374C79.8568 35.7159 78.9619 35.2995 78.9619 33.9376C78.9619 32.1453 80.5117 30.6924 82.4235 30.6924C84.3352 30.6924 85.885 32.1453 85.885 33.9376Z" stroke="white" stroke-width="1.73077"/>
<path d="M91.0771 36.3173C91.0771 37.2252 90.4059 37.5028 89.4545 37.5838C89.1538 37.6094 88.8252 37.6153 88.4809 37.6153C88.1366 37.6153 87.808 37.6094 87.5074 37.5838C86.5559 37.5028 85.8848 37.2252 85.8848 36.3173C85.8848 35.1224 87.0471 34.1538 88.4809 34.1538C89.9147 34.1538 91.0771 35.1224 91.0771 36.3173Z" stroke="white" stroke-width="1.73077"/>
<circle cx="322.5" cy="98.5" r="20.5" fill="#F2B350"/>
<rect x="322.499" y="88.1144" width="14.6871" height="14.6871" transform="rotate(45 322.499 88.1144)" stroke="white" stroke-width="3.15385"/>
<rect x="322.499" y="94.2949" width="5.94697" height="5.94697" transform="rotate(45 322.499 94.2949)" fill="white"/>
<path d="M335.115 98.4998L322.499 111.115L309.884 98.4998H335.115Z" fill="white"/>
<circle cx="274" cy="26" r="21" fill="#9E19A0"/>
<path d="M268.973 27.3501C268.829 25.8594 270.406 23.8901 272.06 23.1905C273.715 22.4909 274.124 20.8111 274.124 20.8111L273.999 12.269" stroke="white" stroke-width="1.61538" stroke-miterlimit="10" stroke-linecap="round"/>
<path d="M274.125 40.027V36.6055C274.125 36.6055 273.637 34.5659 275.292 33.8663C276.253 33.4599 277.23 33.8663 278.547 31.6665" stroke="white" stroke-width="1.61538" stroke-miterlimit="10" stroke-linecap="round"/>
<path d="M262.567 32.8566L265.863 30.707C265.863 30.707 268.146 29.9997 269.476 31.197C270.368 32.0011 270.625 32.9673 272.061 33.1987" stroke="white" stroke-width="1.61538" stroke-miterlimit="10" stroke-linecap="round"/>
<path d="M285.929 32.3543C285.929 32.3543 282.656 31.2176 281.559 30.5071C280.461 29.7966 279.769 29.6631 279.169 27.1944C278.751 25.4729 277.422 24.0452 275.938 23.9409" stroke="white" stroke-width="1.61538" stroke-miterlimit="10" stroke-linecap="round"/>
<path fill-rule="evenodd" clip-rule="evenodd" d="M275.494 12.3748C274.88 11.2696 273.293 11.2649 272.673 12.3664L261.859 31.589C261.426 32.3596 261.692 33.3356 262.457 33.7788L273.307 40.0648C273.812 40.3574 274.436 40.3548 274.939 40.0579L285.57 33.7788C286.323 33.3338 286.585 32.3696 286.161 31.6043L275.494 12.3748Z" stroke="white" stroke-width="1.61538" stroke-miterlimit="10" stroke-linecap="round"/>
<circle cx="119.5" cy="102.5" r="19.5" fill="#68CCBB"/>
<path d="M131.499 109.423V96.4901C131.499 95.8739 130.797 95.5206 130.302 95.8878L122.469 101.698C122.278 101.84 122.166 102.063 122.166 102.301V110" stroke="white" stroke-width="2.25" stroke-linecap="round"/>
<path d="M107.501 109.423V96.4901C107.501 95.8739 108.203 95.5206 108.698 95.8878L116.531 101.698C116.722 101.84 116.834 102.063 116.834 102.301V110" stroke="white" stroke-width="2.25" stroke-linecap="round"/>
<path d="M222.5 125.557C224.047 126.45 225.953 126.45 227.5 125.557L245.883 114.943C247.43 114.05 248.383 112.4 248.383 110.613V89.3867C248.383 87.6004 247.43 85.9498 245.883 85.0566L227.5 74.4434C225.953 73.5502 224.047 73.5502 222.5 74.4434L204.117 85.0566C202.57 85.9498 201.617 87.6004 201.617 89.3867V110.613C201.617 112.4 202.57 114.05 204.117 114.943L222.5 125.557Z" fill="#FF5D3A"/>
<path d="M213.397 96.7922L213.829 88L219.337 91.1811C223.063 89.3156 227.01 89.296 230.751 91.132L236.195 88V96.4241C236.985 97.9655 237.397 99.669 237.397 101.402C237.378 107.828 231.781 113.037 224.874 113.037C217.967 113.037 212.371 107.813 212.371 101.402C212.371 99.8064 212.719 98.2355 213.397 96.7922Z" stroke="white" stroke-width="2" stroke-linecap="round" stroke-linejoin="round"/>
<path d="M232.003 99.3155C231.551 98.1177 229.632 98.2993 229.151 99.3155" stroke="white" stroke-width="2" stroke-linecap="round" stroke-linejoin="round"/>
<path d="M221.738 99.3155C221.287 98.1177 219.367 98.2993 218.886 99.3155" stroke="white" stroke-width="2" stroke-linecap="round" stroke-linejoin="round"/>
<path d="M226.951 103.307H223.942" stroke="white" stroke-width="2" stroke-linecap="round" stroke-linejoin="round"/>
<path d="M225.443 103.307V104.809" stroke="white" stroke-width="2" stroke-linecap="round" stroke-linejoin="round"/>
<path d="M226.734 108.471C226.327 108.746 225.34 109.203 223.941 108.52" stroke="white" stroke-width="2" stroke-linecap="round" stroke-linejoin="round"/>
<path d="M174.169 1.04473C172.798 0.384526 171.202 0.384527 169.831 1.04473L153.06 9.12104C151.689 9.78124 150.693 11.0298 150.355 12.5133L146.213 30.6606C145.874 32.144 146.23 33.701 147.178 34.8906L158.784 49.4436C159.733 50.6333 161.171 51.3262 162.693 51.3262L181.307 51.3262C182.829 51.3262 184.267 50.6333 185.216 49.4436L196.822 34.8906C197.77 33.701 198.126 32.144 197.787 30.6606L193.645 12.5133C193.307 11.0298 192.311 9.78125 190.94 9.12104L174.169 1.04473Z" fill="#3AC4FF"/>
<path d="M161 22.12V37H169.186M161 22.12H183M161 22.12L171.744 13L183 22.12M183 22.12V37H175.326M175.326 37V29.32H169.186V37M175.326 37H169.186" stroke="white" stroke-width="2"/>
</svg>
