<?xml version="1.0" encoding="utf-8"?>
<!-- Generator: Adobe Illustrator 23.0.1, SVG Export Plug-In . SVG Version: 6.00 Build 0)  -->
<svg version="1.1" id="Layer_1" xmlns="http://www.w3.org/2000/svg" xmlns:xlink="http://www.w3.org/1999/xlink" x="0px" y="0px"
	 viewBox="0 0 263.9 130.3" style="enable-background:new 0 0 263.9 130.3;" xml:space="preserve">
<title>Asset 1</title>
<g>
	<g id="Layer_1-2">
		<path d="M208.4,72.9c0,3.6-0.4,7.2-1.4,10.7c-0.8,2.8-2.2,5.5-4,7.8c-1.7,2.1-3.9,3.7-6.4,4.7c-5.5,2.1-11.6,2.1-17.1,0
			c-2.5-1.1-4.7-2.7-6.5-4.7c-1.9-2.3-3.3-5-4.1-7.8c-1-3.5-1.5-7.1-1.4-10.7v-15c0-3.6,0.4-7.2,1.4-10.7c0.8-2.8,2.2-5.5,4.1-7.8
			c1.7-2.1,3.9-3.7,6.4-4.7c2.7-1.1,5.6-1.7,8.5-1.6c2.9-0.1,5.9,0.5,8.6,1.6c2.5,1.1,4.7,2.7,6.5,4.7c1.9,2.3,3.3,5,4.1,7.8
			c1,3.5,1.5,7.1,1.4,10.7v15H208.4z M177.8,69l20.1-15c-0.2-4.3-1.2-7.5-2.8-9.5c-1.8-2.1-4.4-3.3-7.2-3.1c-3.4,0-5.9,1.2-7.6,3.6
			s-2.5,6.1-2.5,11V69z M198,62.1l-20.1,15c0.5,8.2,3.9,12.4,10.1,12.4c6.7,0,10.1-4.9,10.1-14.7V62.1L198,62.1z"/>
		<path d="M240.7,63.9l11.2-15.8h11.5l-16.5,23l17,23.7h-11.5l-11.6-16.4l-11.5,16.4h-11.5l17-23.7l-16.5-23h11.5L240.7,63.9z"/>
		<path d="M32.4,121.4c21,12.3,47.2,11.7,67.7-1.4c5.6-3.6,10.6-8,14.9-13.1c-3.5-4.9-7.3-10-11.3-15.2l-3.3-4.2
			C96.2,94.3,90,99.7,82.7,103L71.6,92.1L32.4,121.4z"/>
		<path d="M8.6,32.7C3.7,41.4,0.8,51,0.1,60.9c-0.9,13.8,2.6,27.5,10.1,39.2c3.6,5.6,8,10.6,13.1,14.9c4.9-3.5,10-7.3,15.2-11.3
			l4.2-3.3C36,96.1,30.6,89.9,27.2,82.7l11-11.2L8.6,32.7z"/>
		<path d="M97.8,8.8c-21-12.3-47.2-11.7-67.7,1.4c-5.6,3.6-10.6,8-14.9,13.1c3.5,4.9,7.3,10,11.3,15.2l3.3,4.2
			c4.3-6.7,10.5-12.1,17.7-15.5l0,0L58,37.4L97.8,8.8z"/>
		<path d="M121.7,97.2c12-20.9,11.3-46.8-1.7-67.1c-3.6-5.6-8-10.6-13.1-14.9c-4.9,3.5-10,7.3-15.2,11.3l-4.2,3.3
			c6.8,4.3,12.2,10.4,15.6,17.7l0.1,0.2l-10.6,11L121.7,97.2z"/>
	</g>
</g>
</svg>
