<svg xmlns="http://www.w3.org/2000/svg" viewBox="0 0 254.93 130.26"><title>Asset 1</title><g id="Layer_2" data-name="Layer 2"><g id="Layer_1-2" data-name="Layer 1"><path d="M199.43,72.93a38,38,0,0,1-1.4,10.7,22.1,22.1,0,0,1-4,7.8,16.4,16.4,0,0,1-6.4,4.7,23.64,23.64,0,0,1-17.1,0,17.8,17.8,0,0,1-6.5-4.7,22.24,22.24,0,0,1-4.1-7.8,35.13,35.13,0,0,1-1.4-10.7v-15a38,38,0,0,1,1.4-10.7,22.24,22.24,0,0,1,4.1-7.8,16.4,16.4,0,0,1,6.4-4.7,21.12,21.12,0,0,1,8.5-1.6,21.61,21.61,0,0,1,8.6,1.6,17.8,17.8,0,0,1,6.5,4.7,22.24,22.24,0,0,1,4.1,7.8,35.13,35.13,0,0,1,1.4,10.7v15ZM168.83,69l20.1-15c-.2-4.3-1.2-7.5-2.8-9.5a8.7,8.7,0,0,0-7.2-3.1c-3.4,0-5.9,1.2-7.6,3.6s-2.5,6.1-2.5,11Zm20.2-6.9-20.1,15c.5,8.2,3.9,12.4,10.1,12.4,6.7,0,10.1-4.9,10.1-14.7V62.13Z"/><path d="M231.73,63.93l11.2-15.8h11.5l-16.5,23,17,23.7h-11.5l-11.6-16.4-11.5,16.4h-11.5l17-23.7-16.5-23h11.5Z"/><path d="M32.43,121.43a64.94,64.94,0,0,0,67.7-1.4,66.47,66.47,0,0,0,14.9-13.1c-3.5-4.9-7.3-10-11.3-15.2l-3.3-4.2A40.89,40.89,0,0,1,82.73,103l-11.1-10.9Z"/><path d="M8.63,32.73a65.46,65.46,0,0,0-8.5,28.2,64.8,64.8,0,0,0,10.1,39.2A66.47,66.47,0,0,0,23.33,115c4.9-3.5,10-7.3,15.2-11.3l4.2-3.3a42.22,42.22,0,0,1-15.5-17.7l11-11.2Z"/><path d="M97.83,8.83a64.94,64.94,0,0,0-67.7,1.4,66.47,66.47,0,0,0-14.9,13.1c3.5,4.9,7.3,10,11.3,15.2l3.3,4.2a42.22,42.22,0,0,1,17.7-15.5h0L58,37.43Z"/><path d="M121.73,97.23a64.78,64.78,0,0,0-1.7-67.1,66.47,66.47,0,0,0-13.1-14.9c-4.9,3.5-10,7.3-15.2,11.3l-4.2,3.3a42.36,42.36,0,0,1,15.6,17.7l.1.2-10.6,11Z"/></g></g></svg>