<svg width="46" height="18" viewBox="0 0 46 18" fill="none" xmlns="http://www.w3.org/2000/svg">
<path d="M0.0195312 11.0918C0.0195312 9.30859 0.442057 7.8763 1.28711 6.79492C2.13216 5.70638 3.23861 5.16211 4.60645 5.16211C5.96712 5.16211 7.04492 5.6276 7.83984 6.55859V0.5H9.82715V17H8.00098L7.9043 15.7539C7.10938 16.7279 6.00293 17.2148 4.58496 17.2148C3.23861 17.2148 2.13932 16.6634 1.28711 15.5605C0.442057 14.4577 0.0195312 13.0182 0.0195312 11.2422V11.0918ZM2.00684 11.3174C2.00684 12.6351 2.27897 13.6663 2.82324 14.4111C3.36751 15.1559 4.11947 15.5283 5.0791 15.5283C6.33952 15.5283 7.25977 14.9626 7.83984 13.8311V8.49219C7.24544 7.39648 6.33236 6.84863 5.10059 6.84863C4.12663 6.84863 3.36751 7.22461 2.82324 7.97656C2.27897 8.72852 2.00684 9.84212 2.00684 11.3174Z" fill="#888888"/>
<path d="M12.3945 11.0811C12.3945 9.94238 12.6165 8.91829 13.0605 8.00879C13.5117 7.09928 14.1348 6.39746 14.9297 5.90332C15.7318 5.40918 16.6449 5.16211 17.6689 5.16211C19.2516 5.16211 20.5299 5.70996 21.5039 6.80566C22.485 7.90137 22.9756 9.35872 22.9756 11.1777V11.3174C22.9756 12.4489 22.7572 13.4658 22.3203 14.3682C21.8906 15.2633 21.2712 15.9616 20.4619 16.4629C19.6598 16.9642 18.736 17.2148 17.6904 17.2148C16.1149 17.2148 14.8366 16.667 13.8555 15.5713C12.8815 14.4756 12.3945 13.0254 12.3945 11.2207V11.0811ZM14.3926 11.3174C14.3926 12.6064 14.6898 13.6413 15.2842 14.4219C15.8857 15.2025 16.6878 15.5928 17.6904 15.5928C18.7002 15.5928 19.5023 15.1989 20.0967 14.4111C20.6911 13.6162 20.9883 12.5062 20.9883 11.0811C20.9883 9.80632 20.6839 8.77507 20.0752 7.9873C19.4736 7.19238 18.6715 6.79492 17.6689 6.79492C16.6878 6.79492 15.8965 7.18522 15.2949 7.96582C14.6934 8.74642 14.3926 9.86361 14.3926 11.3174Z" fill="#888888"/>
<path d="M30.1299 15.5928C30.8389 15.5928 31.4583 15.3779 31.9883 14.9482C32.5182 14.5186 32.8118 13.9814 32.8691 13.3369H34.749C34.7132 14.0029 34.484 14.6367 34.0615 15.2383C33.639 15.8398 33.0732 16.3197 32.3643 16.6777C31.6624 17.0358 30.9176 17.2148 30.1299 17.2148C28.5472 17.2148 27.2868 16.6885 26.3486 15.6357C25.4176 14.5758 24.9521 13.1292 24.9521 11.2959V10.9629C24.9521 9.83138 25.1598 8.8252 25.5752 7.94434C25.9906 7.06348 26.585 6.37956 27.3584 5.89258C28.139 5.4056 29.0592 5.16211 30.1191 5.16211C31.4225 5.16211 32.5039 5.55241 33.3633 6.33301C34.2298 7.11361 34.6917 8.12695 34.749 9.37305H32.8691C32.8118 8.62109 32.5254 8.00521 32.0098 7.52539C31.5013 7.03841 30.8711 6.79492 30.1191 6.79492C29.1094 6.79492 28.3252 7.16016 27.7666 7.89062C27.2152 8.61393 26.9395 9.66309 26.9395 11.0381V11.4141C26.9395 12.7533 27.2152 13.7845 27.7666 14.5078C28.318 15.2311 29.1058 15.5928 30.1299 15.5928Z" fill="#888888"/>
<path d="M43.751 13.917C43.751 13.3799 43.5469 12.9645 43.1387 12.6709C42.7376 12.3701 42.0322 12.1123 41.0225 11.8975C40.0199 11.6826 39.2214 11.4248 38.627 11.124C38.0397 10.8232 37.6029 10.4652 37.3164 10.0498C37.0371 9.63444 36.8975 9.1403 36.8975 8.56738C36.8975 7.61491 37.2985 6.80924 38.1006 6.15039C38.9098 5.49154 39.9411 5.16211 41.1943 5.16211C42.512 5.16211 43.5791 5.50228 44.3955 6.18262C45.2191 6.86296 45.6309 7.73307 45.6309 8.79297H43.6328C43.6328 8.2487 43.4001 7.77962 42.9346 7.38574C42.4762 6.99186 41.8962 6.79492 41.1943 6.79492C40.471 6.79492 39.9053 6.95247 39.4971 7.26758C39.0889 7.58268 38.8848 7.99447 38.8848 8.50293C38.8848 8.98275 39.0745 9.3444 39.4541 9.58789C39.8337 9.83138 40.5176 10.0641 41.5059 10.2861C42.5013 10.5081 43.307 10.7731 43.9229 11.0811C44.5387 11.389 44.9935 11.7614 45.2871 12.1982C45.5879 12.6279 45.7383 13.1543 45.7383 13.7773C45.7383 14.8158 45.3229 15.6501 44.4922 16.2803C43.6615 16.9033 42.5837 17.2148 41.2588 17.2148C40.3278 17.2148 39.5042 17.0501 38.7881 16.7207C38.0719 16.3913 37.5098 15.9329 37.1016 15.3457C36.7005 14.7513 36.5 14.1104 36.5 13.4229H38.4873C38.5231 14.0889 38.7881 14.6188 39.2822 15.0127C39.7835 15.3994 40.4424 15.5928 41.2588 15.5928C42.0107 15.5928 42.6123 15.4424 43.0635 15.1416C43.5218 14.8337 43.751 14.4255 43.751 13.917Z" fill="#888888"/>
</svg>
