<svg width="325" height="356" viewBox="0 0 325 356" fill="none" xmlns="http://www.w3.org/2000/svg">
<path opacity="0.4" d="M74 108.5L149 85.5" stroke="white" stroke-width="3" stroke-dasharray="7 4"/>
<path opacity="0.4" d="M32 90L107 67" stroke="white" stroke-width="3" stroke-dasharray="7 4"/>
<path opacity="0.4" d="M71.5 161.5L122.5 146.5" stroke="white" stroke-width="3" stroke-dasharray="7 4"/>
<path opacity="0.18" d="M235 352.304L320.3 311.604C321.4 311.104 322 310.004 322 308.804V80.5041C322 79.3041 321.3 78.204 320.2 77.604L160.8 3.30405C160.2 3.00405 159.5 2.90405 158.8 3.10405L58.8996 24.4041C56.5996 24.8041 59.4996 25.6041 61.5996 26.6041L233 107.904C234.3 108.504 235.8 108.604 237.2 108.104L322.1 78.5041" stroke="white" stroke-width="4.1573" stroke-miterlimit="10" stroke-linecap="round"/>
<path d="M55 98.6042V83.2042V28.4042C55 26.4042 56.8 25.0042 58.7 25.3042C58.9 25.4042 59.2 25.4042 59.5 25.5042L61.3 26.3042L160.1 73.1042L233 107.704L233.3 107.804C234.4 108.304 235.1 109.404 235.1 110.604V233.504V349.904C235.1 352.304 232.6 353.804 230.5 352.604L56.6 255.904C55.6 255.404 55 254.304 55 253.204V168.004V167.504" stroke="white" stroke-width="4" stroke-miterlimit="10"/>
<path d="M160 95.8042V73.3042" stroke="white" stroke-width="3" stroke-miterlimit="10" stroke-linecap="round" stroke-linejoin="round"/>
<path d="M123.5 116.704L74 131.704" stroke="white" stroke-width="3" stroke-miterlimit="10" stroke-linecap="round" stroke-linejoin="round"/>
<path d="M74.5 148L235 233.604" stroke="white" stroke-width="4" stroke-miterlimit="10" stroke-linecap="round" stroke-linejoin="round"/>
<path d="M55 253.204L73.2 246.904" stroke="white" stroke-width="3" stroke-miterlimit="10"/>
<path d="M235.999 257.304L212.499 245.804C211.499 245.304 210.399 245.204 209.399 245.504L181.199 254.004C179.399 254.504 178.199 256.204 178.199 258.104V305.004C178.199 306.504 178.999 308.004 180.399 308.704L215.899 328.504C216.999 329.104 218.299 329.204 219.499 328.804L236.099 322.504" stroke="white" stroke-width="3" stroke-miterlimit="10"/>
<path d="M217.699 328.504V274.104L237.599 267.904" stroke="white" stroke-width="3" stroke-miterlimit="10"/>
<path d="M178.199 254.904L217.699 274.104" stroke="white" stroke-width="3" stroke-miterlimit="10"/>
<path d="M191.6 301.405C195.7 306.505 200.8 309.405 204.8 308.705C205.9 308.505 206.9 308.105 207.7 307.405C207 305.905 206.3 304.305 205.5 302.705L204.9 301.405C204.1 302.405 202.9 303.005 201.4 302.905L199.2 299.205L191.6 301.405Z" stroke="white" stroke-width="1.5" stroke-miterlimit="10"/>
<path d="M186.899 278.805C185.899 280.205 185.399 282.005 185.199 284.205C184.999 287.205 185.699 290.705 187.199 294.205C187.899 295.905 188.799 297.505 189.799 299.005C190.799 298.805 191.799 298.505 192.799 298.205L193.599 297.905C192.299 296.205 191.199 294.205 190.599 292.205L192.699 290.905L186.899 278.805Z" stroke="white" stroke-width="1.5" stroke-miterlimit="10"/>
<path d="M204.299 283.404C200.199 278.304 195.099 275.404 191.099 276.104C189.999 276.304 188.999 276.704 188.199 277.404C188.899 278.904 189.599 280.504 190.399 282.104L190.999 283.404C191.799 282.404 192.999 281.804 194.499 281.904L196.499 285.404L204.299 283.404Z" stroke="white" stroke-width="1.5" stroke-miterlimit="10"/>
<path d="M208.999 306.104C211.299 302.704 211.199 296.804 208.699 290.804C207.999 289.104 207.099 287.504 206.099 286.004C205.099 286.204 204.099 286.504 203.099 286.804L202.299 287.104C203.599 288.804 204.699 290.804 205.299 292.804V292.904L203.199 294.204L208.999 306.104Z" stroke="white" stroke-width="1.5" stroke-miterlimit="10"/>
<path d="M197.5 249.004V237.604C197.5 236.004 196.6 234.504 195.1 233.804L159.8 216.504C158.8 216.004 157.7 215.904 156.7 216.204L128.5 224.704C126.7 225.204 125.5 226.904 125.5 228.804V275.704C125.5 277.204 126.3 278.704 127.7 279.404L163.2 299.204C164.3 299.804 165.6 299.904 166.8 299.504L178.2 295.204" stroke="white" stroke-width="3" stroke-miterlimit="10"/>
<path d="M165 299.204V244.804L196.5 235.004" stroke="white" stroke-width="3" stroke-miterlimit="10"/>
<path d="M125.5 225.604L165 244.804" stroke="white" stroke-width="3" stroke-miterlimit="10"/>
<path d="M138.9 272.204C143 277.304 148.1 280.204 152.1 279.504C153.2 279.304 154.2 278.904 155 278.204C154.3 276.704 153.6 275.104 152.8 273.504L152.2 272.204C151.4 273.204 150.2 273.804 148.7 273.704L146.5 270.004L138.9 272.204Z" stroke="white" stroke-width="1.5" stroke-miterlimit="10"/>
<path d="M134.2 249.504C133.2 250.904 132.7 252.704 132.5 254.904C132.3 257.904 133 261.404 134.5 264.904C135.2 266.604 136.1 268.204 137.1 269.704C138.1 269.504 139.1 269.204 140.1 268.904L140.9 268.604C139.6 266.904 138.5 264.904 137.9 262.904L140 261.604L134.2 249.504Z" stroke="white" stroke-width="1.5" stroke-miterlimit="10"/>
<path d="M151.6 254.104C147.5 249.004 142.4 246.104 138.4 246.804C137.3 247.004 136.3 247.404 135.5 248.104C136.2 249.604 136.9 251.204 137.7 252.804L138.3 254.104C139.1 253.104 140.3 252.504 141.8 252.604L143.8 256.104L151.6 254.104Z" stroke="white" stroke-width="1.5" stroke-miterlimit="10"/>
<path d="M156.3 276.804C158.6 273.404 158.5 267.504 156 261.504C155.3 259.804 154.4 258.204 153.4 256.704C152.4 256.904 151.4 257.204 150.4 257.504L149.6 257.804C150.9 259.504 152 261.504 152.6 263.504V263.604L150.5 264.904L156.3 276.804Z" stroke="white" stroke-width="1.5" stroke-miterlimit="10"/>
<path d="M146 220.504V208.304C146 206.704 145.1 205.204 143.6 204.504L108.3 187.204C107.3 186.704 106.2 186.604 105.2 186.904L77 195.404C75.2 195.904 74 197.604 74 199.504V246.404C74 247.904 74.8 249.404 76.2 250.104L111.7 269.904C112.8 270.504 114.1 270.604 115.3 270.204L125.8 266.204" stroke="white" stroke-width="3" stroke-miterlimit="10"/>
<path d="M113.5 270.004V215.504L145 205.704" stroke="white" stroke-width="3" stroke-miterlimit="10"/>
<path d="M74 196.404L113.5 215.504" stroke="white" stroke-width="3" stroke-miterlimit="10"/>
<path d="M87.3008 242.904C91.4008 248.004 96.5008 250.904 100.501 250.204C101.601 250.004 102.601 249.604 103.401 248.904C102.701 247.404 102.001 245.804 101.201 244.204L100.601 242.904C99.8008 243.904 98.6008 244.504 97.1008 244.404L94.9008 240.704L87.3008 242.904Z" stroke="white" stroke-width="1.5" stroke-miterlimit="10"/>
<path d="M82.7003 220.204C81.7003 221.604 81.2003 223.404 81.0003 225.604C80.8003 228.604 81.5003 232.104 83.0003 235.604C83.7003 237.304 84.6003 238.904 85.6003 240.404C86.6003 240.204 87.6003 239.904 88.6003 239.604L89.4003 239.304C88.1003 237.604 87.0003 235.604 86.4003 233.604L88.5003 232.304L82.7003 220.204Z" stroke="white" stroke-width="1.5" stroke-miterlimit="10"/>
<path d="M100.1 224.904C96 219.804 90.9 216.904 86.9 217.604C85.8 217.804 84.8 218.204 84 218.904C84.7 220.404 85.4 222.004 86.2 223.604L86.8 224.904C87.6 223.904 88.8 223.304 90.3 223.404L92.3 226.904L100.1 224.904Z" stroke="white" stroke-width="1.5" stroke-miterlimit="10"/>
<path d="M104.8 247.504C107.1 244.104 107 238.204 104.5 232.204C103.8 230.504 102.9 228.904 101.9 227.404C100.9 227.604 99.8996 227.904 98.8996 228.204L98.0996 228.504C99.3996 230.204 100.5 232.204 101.1 234.204V234.304L98.9996 235.604L104.8 247.504Z" stroke="white" stroke-width="1.5" stroke-miterlimit="10"/>
<path d="M234.999 133.504L211.499 122.004C210.499 121.504 209.399 121.404 208.399 121.704L180.199 130.204C178.399 130.704 177.199 132.404 177.199 134.304V181.204C177.199 182.704 177.999 184.204 179.399 184.904L214.899 204.704C215.999 205.304 217.299 205.404 218.499 205.004L235.099 198.704" stroke="white" stroke-width="3" stroke-miterlimit="10"/>
<path d="M216.699 204.804V150.304L234.999 144.604" stroke="white" stroke-width="3" stroke-miterlimit="10"/>
<path d="M177.199 131.204L216.699 150.304" stroke="white" stroke-width="3" stroke-miterlimit="10"/>
<path d="M190.6 177.704C194.7 182.804 199.8 185.704 203.8 185.004C204.9 184.804 205.9 184.404 206.7 183.704C206 182.204 205.3 180.604 204.5 179.004L203.9 177.704C203.1 178.704 201.9 179.304 200.4 179.204L198.2 175.504L190.6 177.704Z" stroke="white" stroke-width="1.5" stroke-miterlimit="10"/>
<path d="M185.899 155.004C184.899 156.404 184.399 158.204 184.199 160.404C183.999 163.404 184.699 166.904 186.199 170.404C186.899 172.104 187.799 173.704 188.799 175.204C189.799 175.004 190.799 174.704 191.799 174.404L192.599 174.104C191.299 172.404 190.199 170.404 189.599 168.404L191.699 167.104L185.899 155.004Z" stroke="white" stroke-width="1.5" stroke-miterlimit="10"/>
<path d="M203.299 159.704C199.199 154.604 194.099 151.704 190.099 152.404C188.999 152.604 187.999 153.004 187.199 153.704C187.899 155.204 188.599 156.804 189.399 158.404L189.999 159.704C190.799 158.704 191.999 158.104 193.499 158.204L195.499 161.704L203.299 159.704Z" stroke="white" stroke-width="1.5" stroke-miterlimit="10"/>
<path d="M207.999 182.304C210.299 178.904 210.199 173.004 207.699 167.004C206.999 165.304 206.099 163.704 205.099 162.204C204.099 162.404 203.099 162.704 202.099 163.004L201.299 163.304C202.599 165.004 203.699 167.004 204.299 169.004V169.104L202.199 170.404L207.999 182.304Z" stroke="white" stroke-width="1.5" stroke-miterlimit="10"/>
<path d="M195.5 125.704V115.904C195.5 114.304 194.6 112.804 193.1 112.104L157.8 94.8042C156.8 94.3042 155.7 94.2042 154.7 94.5042L126.5 103.004C124.7 103.504 123.5 105.204 123.5 107.104V154.004C123.5 155.504 124.3 157.004 125.7 157.704L161.2 177.504C162.3 178.104 163.6 178.204 164.8 177.804L177.2 173.104" stroke="white" stroke-width="3" stroke-miterlimit="10"/>
<path d="M163 177.504V123.104L194.5 113.204" stroke="white" stroke-width="3" stroke-miterlimit="10"/>
<path d="M123.5 103.904L163 123.104" stroke="white" stroke-width="3" stroke-miterlimit="10"/>
<path d="M136.9 150.405C141 155.505 146.1 158.405 150.1 157.705C151.2 157.505 152.2 157.105 153 156.405C152.3 154.905 151.6 153.305 150.8 151.705L150.2 150.405C149.4 151.405 148.2 152.005 146.7 151.905L144.5 148.205L136.9 150.405Z" stroke="white" stroke-width="1.5" stroke-miterlimit="10"/>
<path d="M132.2 127.705C131.2 129.105 130.7 130.905 130.5 133.105C130.3 136.105 131 139.605 132.5 143.105C133.2 144.805 134.1 146.405 135.1 147.905C136.1 147.705 137.1 147.405 138.1 147.105L138.9 146.805C137.6 145.105 136.5 143.105 135.9 141.105L138 139.805L132.2 127.705Z" stroke="white" stroke-width="1.5" stroke-miterlimit="10"/>
<path d="M149.6 132.404C145.5 127.304 140.4 124.404 136.4 125.104C135.3 125.304 134.3 125.704 133.5 126.404C134.2 127.904 134.9 129.504 135.7 131.104L136.3 132.404C137.1 131.404 138.3 130.804 139.8 130.904L141.8 134.404L149.6 132.404Z" stroke="white" stroke-width="1.5" stroke-miterlimit="10"/>
<path d="M154.3 155.004C156.6 151.604 156.5 145.704 154 139.704C153.3 138.004 152.4 136.404 151.4 134.904C150.4 135.104 149.4 135.404 148.4 135.704L147.6 136.004C148.9 137.704 150 139.704 150.6 141.704V141.804L148.5 143.104L154.3 155.004Z" stroke="white" stroke-width="1.5" stroke-miterlimit="10"/>
<path d="M43.3 172.504L71.2 161.904C72.9 161.304 74 159.704 74 157.904V110.504C74 108.904 73.1 107.404 71.6 106.704L36.3 89.4043C35.3 88.9043 34.2 88.8043 33.2 89.1043L5 97.7043C3.2 98.2043 2 99.9043 2 101.804V148.704C2 150.204 2.8 151.704 4.2 152.404L39.7 172.204C40.8 172.804 42.1 172.904 43.3 172.504Z" stroke="white" stroke-width="3" stroke-miterlimit="10"/>
<path d="M41.5 172.204V117.804L73 107.904" stroke="white" stroke-width="3" stroke-miterlimit="10"/>
<path d="M2 98.6045L41.5 117.804" stroke="white" stroke-width="3" stroke-miterlimit="10"/>
<path d="M15.3008 145.104C19.4008 150.204 24.5008 153.104 28.5008 152.404C29.6008 152.204 30.6008 151.804 31.4008 151.104C30.7008 149.604 30.0008 148.004 29.2008 146.404L28.6008 145.104C27.8008 146.104 26.6008 146.704 25.1008 146.604L22.9008 142.904L15.3008 145.104Z" stroke="white" stroke-width="1.5" stroke-miterlimit="10"/>
<path d="M10.7003 122.404C9.70027 123.804 9.20027 125.604 9.00027 127.804C8.80027 130.804 9.50027 134.304 11.0003 137.804C11.7003 139.504 12.6003 141.104 13.6003 142.604C14.6003 142.404 15.6003 142.104 16.6003 141.804L17.4003 141.504C16.1003 139.804 15.0003 137.804 14.4003 135.804L16.5003 134.504L10.7003 122.404Z" stroke="white" stroke-width="1.5" stroke-miterlimit="10"/>
<path d="M28.1 127.104C24 122.004 18.9 119.104 14.9 119.804C13.8 120.004 12.8 120.404 12 121.104C12.7 122.604 13.4 124.204 14.2 125.804L14.8 127.104C15.6 126.104 16.8 125.504 18.3 125.604L20.3 129.104L28.1 127.104Z" stroke="white" stroke-width="1.5" stroke-miterlimit="10"/>
<path d="M32.7996 149.704C35.0996 146.304 34.9996 140.404 32.4996 134.404C31.7996 132.704 30.8996 131.104 29.8996 129.604C28.8996 129.804 27.8996 130.104 26.8996 130.404L26.0996 130.704C27.3996 132.404 28.4996 134.404 29.0996 136.404V136.504L26.9996 137.804L32.7996 149.704Z" stroke="white" stroke-width="1.5" stroke-miterlimit="10"/>
</svg>
