<svg width="62" height="62" viewBox="0 0 62 62" fill="none" xmlns="http://www.w3.org/2000/svg">
<path d="M31.0182 31.004L42.293 42.2788L59.0405 25.5311L47.7658 14.2563L31.0182 31.004Z" fill="#1B1B1B" stroke="white" stroke-width="2.5" stroke-miterlimit="10"/>
<path d="M30.998 31.0008L30.998 46.6162L55.5365 46.6162L55.5365 31.0008L30.998 31.0008Z" fill="#1B1B1B" stroke="white" stroke-width="2.5" stroke-miterlimit="10"/>
<path d="M30.9995 31.0026L19.7246 42.2773L36.4723 59.0249L47.7472 47.7501L30.9995 31.0026Z" fill="#1B1B1B" stroke="white" stroke-width="2.5" stroke-miterlimit="10"/>
<path d="M30.9982 31H15.3828V54.4231H30.9982V31Z" fill="#1B1B1B" stroke="white" stroke-width="2.5" stroke-miterlimit="10"/>
<path d="M30.9994 30.9843L19.7246 19.7095L2.97701 36.4571L14.2518 47.732L30.9994 30.9843Z" fill="#1B1B1B" stroke="white" stroke-width="2.5" stroke-miterlimit="10"/>
<path d="M30.998 31.0002L30.998 15.3848L7.57497 15.3848L7.57497 31.0002L30.998 31.0002Z" fill="#1B1B1B" stroke="white" stroke-width="2.5" stroke-miterlimit="10"/>
<path d="M31.0025 30.994L42.2773 19.7192L25.5297 2.97167L14.2548 14.2464L31.0025 30.994Z" fill="#1B1B1B" stroke="white" stroke-width="2.5" stroke-miterlimit="10"/>
<path d="M30.9998 31.0005L46.6152 31.0005L46.6152 7.57741L30.9998 7.57741L30.9998 31.0005Z" fill="#1B1B1B" stroke="white" stroke-width="2.5" stroke-miterlimit="10"/>
<path d="M31 60C47.0163 60 60 47.0163 60 31C60 14.9837 47.0163 2 31 2C14.9837 2 2 14.9837 2 31C2 47.0163 14.9837 60 31 60Z" stroke="white" stroke-width="2.5" stroke-miterlimit="10"/>
</svg>
