<svg width="62" height="62" viewBox="0 0 62 62" fill="none" xmlns="http://www.w3.org/2000/svg">
<path d="M31 60C47.0163 60 60 47.0163 60 31C60 14.9837 47.0163 2 31 2C14.9837 2 2 14.9837 2 31C2 47.0163 14.9837 60 31 60Z" stroke="white" stroke-width="2.5" stroke-miterlimit="10"/>
<path d="M48.3159 26.5213L31.1692 49.7925L14 26.5213L16.854 19.5693H31.1692H45.4618L48.3159 26.5213Z" stroke="white" stroke-width="3" stroke-miterlimit="10"/>
<path d="M31.0004 49.7925L24.0742 19.5693" stroke="white" stroke-width="3" stroke-miterlimit="10"/>
<path d="M31 49.7925L37.9261 19.5693" stroke="white" stroke-width="3" stroke-miterlimit="10"/>
<path d="M14 26.8101H48.001" stroke="white" stroke-width="3" stroke-miterlimit="10"/>
<path d="M18 20.5L8.5 12" stroke="white" stroke-width="3"/>
<path d="M15.5 27L2.5 27" stroke="white" stroke-width="3"/>
<path d="M44 20.5L53.5 12" stroke="white" stroke-width="3"/>
<path d="M46.5 27L59.5 27" stroke="white" stroke-width="3"/>
<path d="M40.9995 35.3153L55.5 46.5" stroke="white" stroke-width="3"/>
<path d="M21.5005 35.3153L7 46.5" stroke="white" stroke-width="3"/>
<path d="M26.8774 20.8714L22.5 4.5" stroke="white" stroke-width="3"/>
<path d="M34.271 20.3714L38.6484 4" stroke="white" stroke-width="3"/>
</svg>
