<svg width="61" height="61" viewBox="0 0 61 61" fill="none" xmlns="http://www.w3.org/2000/svg">
<g style="mix-blend-mode:screen">
<line x1="1" y1="32.75" x2="60" y2="32.75" stroke="white" stroke-width="2.5"/>
<circle r="29.25" transform="matrix(1 0 0 -1 30.5 30.5)" stroke="white" stroke-width="2.5"/>
<mask id="path-3-inside-1" fill="white">
<path d="M13 19.2842C13 9.73842 20.8063 2 30.4359 2H30.5641C40.1937 2 48 9.73842 48 19.2842C48 24.3185 46.0144 27.2967 44.7837 29.2892C39.8746 36.5685 33.9497 40.9315 30.5641 51H30.4359C27.0503 40.9315 21.1254 36.5685 16.2163 29.2892C14.9856 27.2967 13 24.3185 13 19.2842Z"/>
</mask>
<path d="M13 19.2842C13 9.73842 20.8063 2 30.4359 2H30.5641C40.1937 2 48 9.73842 48 19.2842C48 24.3185 46.0144 27.2967 44.7837 29.2892C39.8746 36.5685 33.9497 40.9315 30.5641 51H30.4359C27.0503 40.9315 21.1254 36.5685 16.2163 29.2892C14.9856 27.2967 13 24.3185 13 19.2842Z" fill="black"/>
<path d="M13 19.2842L15.5 19.2843V19.2842H13ZM30.4359 51L28.0662 51.7968L28.639 53.5H30.4359V51ZM16.2163 29.2892L14.0894 30.603L14.1156 30.6455L14.1436 30.687L16.2163 29.2892ZM48 19.2842H45.5V19.2843L48 19.2842ZM30.5641 51V53.5H32.3611L32.9338 51.7968L30.5641 51ZM44.7837 29.2892L46.8564 30.687L46.8844 30.6455L46.9106 30.603L44.7837 29.2892ZM30.4359 -0.5C19.4462 -0.5 10.5 8.33717 10.5 19.2842H15.5C15.5 11.1397 22.1664 4.5 30.4359 4.5V-0.5ZM32.8055 50.2032C30.9961 44.8221 28.5008 40.968 25.8758 37.5702C23.1584 34.053 20.7047 31.4734 18.289 27.8914L14.1436 30.687C16.637 34.3843 19.6003 37.6258 21.9191 40.6271C24.3301 43.7478 26.4901 47.1094 28.0662 51.7968L32.8055 50.2032ZM18.3433 27.9754C17.1317 26.0138 15.5 23.5597 15.5 19.2843L10.5 19.2842C10.5 25.0773 12.8395 28.5795 14.0894 30.603L18.3433 27.9754ZM30.5641 4.5C38.8336 4.5 45.5 11.1397 45.5 19.2842H50.5C50.5 8.33717 41.5538 -0.5 30.5641 -0.5V4.5ZM32.9338 51.7968C34.5099 47.1094 36.6699 43.7478 39.0809 40.6271C41.3997 37.6258 44.363 34.3843 46.8564 30.687L42.711 27.8914C40.2953 31.4734 37.8416 34.053 35.1242 37.5702C32.4992 40.968 30.0039 44.8221 28.1945 50.2032L32.9338 51.7968ZM46.9106 30.603C48.1605 28.5795 50.5 25.0773 50.5 19.2842L45.5 19.2843C45.5 23.5597 43.8683 26.0138 42.6567 27.9754L46.9106 30.603ZM30.4359 4.5H30.5641V-0.5H30.4359V4.5ZM30.5641 48.5H30.4359V53.5H30.5641V48.5Z" fill="white" mask="url(#path-3-inside-1)"/>
<path d="M36.75 17.9247C36.75 21.27 33.9757 24.0247 30.5 24.0247C27.0243 24.0247 24.25 21.27 24.25 17.9247C24.25 14.5795 27.0243 11.8247 30.5 11.8247C33.9757 11.8247 36.75 14.5795 36.75 17.9247Z" stroke="white" stroke-width="2.5"/>
</g>
</svg>
