<svg width="61" height="61" viewBox="0 0 61 61" fill="none" xmlns="http://www.w3.org/2000/svg">
<g style="mix-blend-mode:screen">
<line x1="1" y1="32.5" x2="60" y2="32.5" stroke="white" stroke-width="3"/>
<circle r="29" transform="matrix(1 0 0 -1 30.5 30.5)" stroke="white" stroke-width="3"/>
<mask id="path-3-inside-1" fill="white">
<path d="M13 19.2842C13 9.73842 20.8063 2 30.4359 2H30.5641C40.1937 2 48 9.73842 48 19.2842C48 24.3185 46.0144 27.2967 44.7837 29.2892C39.8746 36.5685 33.9497 40.9315 30.5641 51H30.4359C27.0503 40.9315 21.1254 36.5685 16.2163 29.2892C14.9856 27.2967 13 24.3185 13 19.2842Z"/>
</mask>
<path d="M13 19.2842C13 9.73842 20.8063 2 30.4359 2H30.5641C40.1937 2 48 9.73842 48 19.2842C48 24.3185 46.0144 27.2967 44.7837 29.2892C39.8746 36.5685 33.9497 40.9315 30.5641 51H30.4359C27.0503 40.9315 21.1254 36.5685 16.2163 29.2892C14.9856 27.2967 13 24.3185 13 19.2842Z" fill="black"/>
<path d="M13 19.2842L16 19.2843V19.2842H13ZM30.4359 51L27.5923 51.9562L28.2796 54H30.4359V51ZM16.2163 29.2892L13.664 30.8657L13.6955 30.9168L13.7291 30.9666L16.2163 29.2892ZM48 19.2842H45V19.2843L48 19.2842ZM30.5641 51V54H32.7204L33.4077 51.9562L30.5641 51ZM44.7837 29.2892L47.2709 30.9666L47.3045 30.9168L47.336 30.8657L44.7837 29.2892ZM30.4359 -1C19.1742 -1 10 8.05692 10 19.2842H16C16 11.4199 22.4384 5 30.4359 5V-1ZM33.2794 50.0438C31.4467 44.5934 28.9179 40.69 26.2714 37.2645C23.5142 33.6957 21.1115 31.1823 18.7036 27.6118L13.7291 30.9666C16.2303 34.6754 19.2445 37.9831 21.5234 40.9328C23.913 44.0258 26.0395 47.3381 27.5923 51.9562L33.2794 50.0438ZM18.7687 27.7127C17.5609 25.7573 16 23.408 16 19.2843L10 19.2842C9.99996 25.229 12.4103 28.8361 13.664 30.8657L18.7687 27.7127ZM30.5641 5C38.5616 5 45 11.4199 45 19.2842H51C51 8.05692 41.8258 -1 30.5641 -1V5ZM33.4077 51.9562C34.9605 47.3381 37.087 44.0258 39.4766 40.9328C41.7555 37.9831 44.7697 34.6754 47.2709 30.9666L42.2964 27.6118C39.8885 31.1823 37.4858 33.6957 34.7286 37.2645C32.0821 40.69 29.5533 44.5934 27.7206 50.0438L33.4077 51.9562ZM47.336 30.8657C48.5897 28.8361 51 25.229 51 19.2842L45 19.2843C45 23.408 43.4391 25.7573 42.2313 27.7127L47.336 30.8657ZM30.4359 5H30.5641V-1H30.4359V5ZM30.5641 48H30.4359V54H30.5641V48Z" fill="white" mask="url(#path-3-inside-1)"/>
<path d="M36.5 17.9247C36.5 21.1271 33.8424 23.7747 30.5 23.7747C27.1576 23.7747 24.5 21.1271 24.5 17.9247C24.5 14.7223 27.1576 12.0747 30.5 12.0747C33.8424 12.0747 36.5 14.7223 36.5 17.9247Z" stroke="white" stroke-width="3"/>
</g>
</svg>
