<svg width="61" height="61" viewBox="0 0 61 61" fill="none" xmlns="http://www.w3.org/2000/svg">
<circle r="29" transform="matrix(1 0 0 -1 30.5 30.5)" stroke="white" stroke-width="3"/>
<path d="M25.0905 43.4553C25.7806 39.0493 22.7432 34.8925 18.2807 34.1894C13.8181 33.4864 9.65627 36.509 8.96618 40.915C8.27608 45.321 11.3134 49.4778 15.776 50.1808C20.2385 50.8838 24.4004 47.8612 25.0905 43.4553Z" stroke="white" stroke-width="3"/>
<path d="M38.8014 30.8527C39.4915 26.4467 36.4541 22.2899 31.9916 21.5869C27.5291 20.8839 23.3672 23.9065 22.6771 28.3125C21.987 32.7184 25.0244 36.8752 29.4869 37.5783C33.9495 38.2813 38.1113 35.2587 38.8014 30.8527Z" stroke="white" stroke-width="3"/>
<path d="M52.5104 18.2512C53.2005 13.8452 50.1631 9.68838 45.7006 8.98534C41.238 8.2823 37.0762 11.3049 36.3861 15.7109C35.696 20.1169 38.7334 24.2737 43.1959 24.9767C47.6584 25.6797 51.8203 22.6571 52.5104 18.2512Z" stroke="white" stroke-width="3"/>
</svg>
