<svg width="62" height="62" viewBox="0 0 62 62" fill="none" xmlns="http://www.w3.org/2000/svg">
<path d="M60 31C60 14.9837 47.0163 2 31 2C14.9837 2 2 14.9837 2 31C2 47.0163 14.9837 60 31 60C47.0163 60 60 47.0163 60 31Z" fill="#1B1B1B" stroke="white" stroke-width="3" stroke-miterlimit="10" stroke-linejoin="bevel"/>
<path d="M34.9134 41.2225C34.9134 33.4233 28.5909 27.1008 20.7917 27.1008C12.9924 27.1008 6.66992 33.4233 6.66992 41.2225C6.66992 49.0217 12.9924 55.3442 20.7917 55.3442C28.5909 55.3442 34.9134 49.0217 34.9134 41.2225Z" fill="#1B1B1B" stroke="white" stroke-width="3" stroke-miterlimit="10" stroke-linejoin="bevel"/>
<path d="M45.1361 30.9998C45.1361 23.2006 38.8135 16.8781 31.0143 16.8781C23.2151 16.8781 16.8926 23.2006 16.8926 30.9998C16.8926 38.7991 23.2151 45.1216 31.0143 45.1216C38.8135 45.1216 45.1361 38.7991 45.1361 30.9998Z" fill="#1B1B1B" stroke="white" stroke-width="3" stroke-miterlimit="10" stroke-linejoin="bevel"/>
<path d="M55.3587 20.7772C55.3587 12.978 49.0362 6.65544 41.237 6.65544C33.4378 6.65544 27.1152 12.978 27.1152 20.7772C27.1152 28.5764 33.4378 34.8989 41.237 34.8989C49.0362 34.8989 55.3587 28.5764 55.3587 20.7772Z" fill="#1B1B1B" stroke="white" stroke-width="3" stroke-miterlimit="10" stroke-linejoin="bevel"/>
</svg>
