<svg width="70" height="70" viewBox="0 0 70 70" fill="none" xmlns="http://www.w3.org/2000/svg">
<path d="M57.4993 18.3314C60.2035 21.9755 62.0433 26.2995 62.7157 31M51.6681 12.5002C48.2838 9.98885 44.3133 8.22296 39.9993 7.44531M29.9993 7.44531C25.6853 8.22296 21.7147 9.98885 18.3305 12.5002M62.7157 39.0004C62.0343 43.7638 60.154 48.1404 57.3903 51.8148M51.8193 57.3872C48.4023 59.9585 44.3777 61.7658 39.9993 62.555M29.9993 62.555C25.6209 61.7658 21.5963 59.9585 18.1793 57.3872M12.6083 51.8148C9.84454 48.1404 7.96424 43.7638 7.28286 39.0004M7.25195 31.2224C7.83085 26.9301 9.38234 22.9462 11.6773 19.5" stroke="white" stroke-width="3" stroke-miterlimit="10"/>
<path d="M35 12C37.7614 12 40 9.76142 40 7C40 4.23858 37.7614 2 35 2C32.2386 2 30 4.23858 30 7C30 9.76142 32.2386 12 35 12Z" stroke="white" stroke-width="3" stroke-miterlimit="10"/>
<path d="M15 21C17.7614 21 20 18.7614 20 16C20 13.2386 17.7614 11 15 11C12.2386 11 10 13.2386 10 16C10 18.7614 12.2386 21 15 21Z" stroke="white" stroke-width="3" stroke-miterlimit="10"/>
<path d="M54 21C56.7614 21 59 18.7614 59 16C59 13.2386 56.7614 11 54 11C51.2386 11 49 13.2386 49 16C49 18.7614 51.2386 21 54 21Z" stroke="white" stroke-width="3" stroke-miterlimit="10"/>
<path d="M63 40C65.7614 40 68 37.7614 68 35C68 32.2386 65.7614 30 63 30C60.2386 30 58 32.2386 58 35C58 37.7614 60.2386 40 63 40Z" stroke="white" stroke-width="3" stroke-miterlimit="10"/>
<path d="M55 60C57.7614 60 60 57.7614 60 55C60 52.2386 57.7614 50 55 50C52.2386 50 50 52.2386 50 55C50 57.7614 52.2386 60 55 60Z" stroke="white" stroke-width="3" stroke-miterlimit="10"/>
<path d="M35 68C37.7614 68 40 65.7614 40 63C40 60.2386 37.7614 58 35 58C32.2386 58 30 60.2386 30 63C30 65.7614 32.2386 68 35 68Z" stroke="white" stroke-width="3" stroke-miterlimit="10"/>
<path d="M15 60C17.7614 60 20 57.7614 20 55C20 52.2386 17.7614 50 15 50C12.2386 50 10 52.2386 10 55C10 57.7614 12.2386 60 15 60Z" stroke="white" stroke-width="3" stroke-miterlimit="10"/>
<path d="M7 40C9.76142 40 12 37.7614 12 35C12 32.2386 9.76142 30 7 30C4.23858 30 2 32.2386 2 35C2 37.7614 4.23858 40 7 40Z" stroke="white" stroke-width="3" stroke-miterlimit="10"/>
<path d="M32.163 37.837C30.6123 36.2863 30.6123 33.7489 32.163 32.163C33.7137 30.6123 36.2511 30.6123 37.837 32.163C39.3877 33.7137 39.3877 36.2511 37.837 37.837C36.2511 39.3877 33.7137 39.3877 32.163 37.837Z" stroke="white" stroke-width="3" stroke-miterlimit="10"/>
<path d="M19.8722 37.1278C18.7093 35.9648 18.7093 34.0617 19.8722 32.8722C21.0352 31.7093 22.9383 31.7093 24.1278 32.8722C25.2907 34.0352 25.2907 35.9383 24.1278 37.1278C22.9383 38.2907 21.0352 38.2907 19.8722 37.1278Z" stroke="white" stroke-width="3" stroke-miterlimit="10"/>
<path d="M45.8722 37.1278C44.7093 35.9648 44.7093 34.0617 45.8722 32.8722C47.0352 31.7093 48.9383 31.7093 50.1278 32.8722C51.2907 34.0352 51.2907 35.9383 50.1278 37.1278C48.9383 38.2907 47.0352 38.2907 45.8722 37.1278Z" stroke="white" stroke-width="3" stroke-miterlimit="10"/>
<path d="M23 26C23 24.3274 24.354 23 26 23C27.6726 23 29 24.354 29 26C29 27.6726 27.646 29 26 29C24.3274 29 23 27.6726 23 26Z" stroke="white" stroke-width="3" stroke-miterlimit="10"/>
<path d="M41 44C41 42.3274 42.354 41 44 41C45.6726 41 47 42.354 47 44C47 45.6726 45.646 47 44 47C42.354 47 41 45.646 41 44Z" stroke="white" stroke-width="3" stroke-miterlimit="10"/>
<path d="M44.0002 23C45.6727 23 47 24.354 47 26C47 27.6726 45.6461 29 44.0002 29C42.3277 29 41.0004 27.646 41.0004 26C40.9738 24.3274 42.3277 23 44.0002 23Z" stroke="white" stroke-width="3" stroke-miterlimit="10"/>
<path d="M26 41C27.6726 41 29 42.354 29 44C29 45.6726 27.646 47 26 47C24.3274 47 23 45.646 23 44C23 42.354 24.3274 41 26 41Z" stroke="white" stroke-width="3" stroke-miterlimit="10"/>
<path d="M32.8891 18.8722C34.0483 17.7093 35.9451 17.7093 37.1306 18.8722C38.2898 20.0352 38.2898 21.9383 37.1306 23.1278C35.9715 24.2907 34.0746 24.2907 32.8891 23.1278C31.7036 21.9383 31.7036 20.0352 32.8891 18.8722Z" stroke="white" stroke-width="3" stroke-miterlimit="10"/>
<path d="M32.8891 45.8722C34.0483 44.7093 35.9451 44.7093 37.1306 45.8722C38.2898 47.0352 38.2898 48.9383 37.1306 50.1278C35.9715 51.2907 34.0746 51.2907 32.8891 50.1278C31.7036 48.9383 31.7036 47.0352 32.8891 45.8722Z" stroke="white" stroke-width="3" stroke-miterlimit="10"/>
</svg>
