<svg width="66" height="68" viewBox="0 0 66 68" fill="none" xmlns="http://www.w3.org/2000/svg">
<path d="M55.4993 17.3314C58.2035 20.9755 60.0433 25.2995 60.7157 30M49.6681 11.5002C46.2838 8.98885 42.3133 7.22296 37.9993 6.44531M27.9993 6.44531C23.6853 7.22296 19.7147 8.98885 16.3305 11.5002M60.7157 38.0004C60.0343 42.7638 58.154 47.1404 55.3903 50.8148M49.8193 56.3872C46.4023 58.9585 42.3777 60.7658 37.9993 61.555M27.9993 61.555C23.6209 60.7658 19.5963 58.9585 16.1793 56.3872M10.6083 50.8148C7.84454 47.1404 5.96424 42.7638 5.28286 38.0004M5.25195 30.2224C5.91687 25.2922 7.86494 20.769 10.749 17" stroke="white" stroke-width="2" stroke-miterlimit="10"/>
<path d="M33 11C35.7614 11 38 8.76142 38 6C38 3.23858 35.7614 1 33 1C30.2386 1 28 3.23858 28 6C28 8.76142 30.2386 11 33 11Z" stroke="white" stroke-width="2" stroke-miterlimit="10"/>
<path d="M53 18C55.2091 18 57 16.2091 57 14C57 11.7909 55.2091 10 53 10C50.7909 10 49 11.7909 49 14C49 16.2091 50.7909 18 53 18Z" stroke="white" stroke-width="2" stroke-miterlimit="10"/>
<path d="M61 38C63.2091 38 65 36.2091 65 34C65 31.7909 63.2091 30 61 30C58.7909 30 57 31.7909 57 34C57 36.2091 58.7909 38 61 38Z" stroke="white" stroke-width="2" stroke-miterlimit="10"/>
<path d="M53 58C55.2091 58 57 56.2091 57 54C57 51.7909 55.2091 50 53 50C50.7909 50 49 51.7909 49 54C49 56.2091 50.7909 58 53 58Z" stroke="white" stroke-width="2" stroke-miterlimit="10"/>
<path d="M33 67C35.7614 67 38 64.7614 38 62C38 59.2386 35.7614 57 33 57C30.2386 57 28 59.2386 28 62C28 64.7614 30.2386 67 33 67Z" stroke="white" stroke-width="2" stroke-miterlimit="10"/>
<path d="M13 58C15.2091 58 17 56.2091 17 54C17 51.7909 15.2091 50 13 50C10.7909 50 9 51.7909 9 54C9 56.2091 10.7909 58 13 58Z" stroke="white" stroke-width="2" stroke-miterlimit="10"/>
<path d="M5 38C7.20914 38 9 36.2091 9 34C9 31.7909 7.20914 30 5 30C2.79086 30 1 31.7909 1 34C1 36.2091 2.79086 38 5 38Z" stroke="white" stroke-width="2" stroke-miterlimit="10"/>
<path d="M13 18C15.2091 18 17 16.2091 17 14C17 11.7909 15.2091 10 13 10C10.7909 10 9 11.7909 9 14C9 16.2091 10.7909 18 13 18Z" stroke="white" stroke-width="2" stroke-miterlimit="10"/>
<path d="M31.5815 35.4185C30.8062 34.6432 30.8062 33.3744 31.5815 32.5815C32.3568 31.8062 33.6255 31.8062 34.4185 32.5815C35.1938 33.3568 35.1938 34.6256 34.4185 35.4185C33.6255 36.1938 32.3568 36.1938 31.5815 35.4185Z" stroke="white" stroke-width="2" stroke-miterlimit="10"/>
<path d="M22.5815 35.4185C21.8062 34.6432 21.8062 33.3744 22.5815 32.5815C23.3568 31.8062 24.6256 31.8062 25.4185 32.5815C26.1938 33.3568 26.1938 34.6256 25.4185 35.4185C24.6256 36.1938 23.3744 36.1938 22.5815 35.4185Z" stroke="white" stroke-width="2" stroke-miterlimit="10"/>
<path d="M13.8722 36.1278C12.7093 34.9648 12.7093 33.0617 13.8722 31.8722C15.0352 30.7093 16.9383 30.7093 18.1278 31.8722C19.2907 33.0352 19.2907 34.9383 18.1278 36.1278C16.9383 37.2907 15.0352 37.2907 13.8722 36.1278Z" stroke="white" stroke-width="2" stroke-miterlimit="10"/>
<path d="M40.5815 35.4185C39.8062 34.6432 39.8062 33.3744 40.5815 32.5815C41.3568 31.8062 42.6255 31.8062 43.4185 32.5815C44.1938 33.3568 44.1938 34.6256 43.4185 35.4185C42.6255 36.1938 41.3568 36.1938 40.5815 35.4185Z" stroke="white" stroke-width="2" stroke-miterlimit="10"/>
<path d="M47.8722 36.1278C46.7093 34.9648 46.7093 33.0617 47.8722 31.8722C49.0352 30.7093 50.9383 30.7093 52.1278 31.8722C53.2907 33.0352 53.2907 34.9383 52.1278 36.1278C50.9383 37.2907 49.0352 37.2907 47.8722 36.1278Z" stroke="white" stroke-width="2" stroke-miterlimit="10"/>
<path d="M24 27.4998C24 26.1061 25.1283 25 26.5 25C27.8938 25 29 26.1282 29 27.4998C29 28.8936 27.8717 29.9997 26.5 29.9997C25.1283 30.0218 24 28.8936 24 27.4998Z" stroke="white" stroke-width="2" stroke-miterlimit="10"/>
<path d="M18 22C18 20.3274 19.354 19 21 19C22.6726 19 24 20.354 24 22C24 23.6726 22.646 25 21 25C19.3274 25 18 23.6726 18 22Z" stroke="white" stroke-width="2" stroke-miterlimit="10"/>
<path d="M37 40.4998C37 39.1061 38.1283 38 39.5 38C40.8938 38 42 39.1282 42 40.4998C42 41.8936 40.8717 42.9997 39.5 42.9997C38.1062 43.0218 37 41.8936 37 40.4998Z" stroke="white" stroke-width="2" stroke-miterlimit="10"/>
<path d="M42 46C42 44.3274 43.354 43 45 43C46.6726 43 48 44.354 48 46C48 47.6726 46.646 49 45 49C43.354 49 42 47.646 42 46Z" stroke="white" stroke-width="2" stroke-miterlimit="10"/>
<path d="M39.5 25C40.8938 25 42 26.1283 42 27.5C42 28.8938 40.8717 30 39.5 30C38.1062 30 37 28.8717 37 27.5C37 26.1283 38.1062 25 39.5 25Z" stroke="white" stroke-width="2" stroke-miterlimit="10"/>
<path d="M45.0002 19C46.6727 19 48 20.354 48 22C48 23.6726 46.6461 25 45.0002 25C43.3277 25 42.0004 23.646 42.0004 22C41.9738 20.3274 43.3277 19 45.0002 19Z" stroke="white" stroke-width="2" stroke-miterlimit="10"/>
<path d="M26.5 38C27.8938 38 29 39.1283 29 40.5C29 41.8938 27.8717 43 26.5 43C25.1062 43 24 41.8717 24 40.5C24 39.1062 25.1283 38 26.5 38Z" stroke="white" stroke-width="2" stroke-miterlimit="10"/>
<path d="M21 43C22.6726 43 24 44.354 24 46C24 47.6726 22.646 49 21 49C19.3274 49 18 47.646 18 46C18 44.354 19.3274 43 21 43Z" stroke="white" stroke-width="2" stroke-miterlimit="10"/>
<path d="M31.5928 23.5815C32.3655 22.8062 33.6301 22.8062 34.4204 23.5815C35.1932 24.3568 35.1932 25.6256 34.4204 26.4185C33.6476 27.1938 32.3831 27.1938 31.5928 26.4185C30.8024 25.6256 30.8024 24.3744 31.5928 23.5815Z" stroke="white" stroke-width="2" stroke-miterlimit="10"/>
<path d="M30.8891 14.8722C32.0483 13.7093 33.9451 13.7093 35.1306 14.8722C36.2898 16.0352 36.2898 17.9383 35.1306 19.1278C33.9715 20.2907 32.0746 20.2907 30.8891 19.1278C29.7036 17.9383 29.7036 16.0352 30.8891 14.8722Z" stroke="white" stroke-width="2" stroke-miterlimit="10"/>
<path d="M31.5928 41.5815C32.3655 40.8062 33.6301 40.8062 34.4204 41.5815C35.1932 42.3568 35.1932 43.6255 34.4204 44.4185C33.6476 45.1938 32.3831 45.1938 31.5928 44.4185C30.8024 43.6255 30.8024 42.3568 31.5928 41.5815Z" stroke="white" stroke-width="2" stroke-miterlimit="10"/>
<path d="M30.8891 48.8722C32.0483 47.7093 33.9451 47.7093 35.1306 48.8722C36.2898 50.0352 36.2898 51.9383 35.1306 53.1278C33.9715 54.2907 32.0746 54.2907 30.8891 53.1278C29.7036 51.9383 29.7036 50.0352 30.8891 48.8722Z" stroke="white" stroke-width="2" stroke-miterlimit="10"/>
</svg>
