<svg width="26" height="26" viewBox="0 0 26 26" fill="none" xmlns="http://www.w3.org/2000/svg">
<path d="M22.7499 13.7657H17.0782V12.215H21.1376C20.7961 10.7612 19.5062 9.6757 17.9887 9.6757C16.6799 9.6757 15.5038 10.4704 14.9916 11.711L14.6692 12.3506L13.588 11.1101C14.3467 9.28802 16.0729 8.125 17.9887 8.125C20.6064 8.125 22.7499 10.3154 22.7499 12.9903V13.7657V13.7657Z" fill="white"/>
<path d="M17.9888 17.8556C15.8453 17.8556 14.6882 16.5375 13.7777 15.3164L13.1707 14.5022C12.2792 13.3004 11.3497 12.0405 10.4202 10.8193C9.88911 10.1215 8.95963 9.6757 8.01119 9.6757C6.22811 9.6757 4.76751 11.1682 4.76751 12.9903C4.76751 14.8124 6.22811 16.3049 8.01119 16.3049C9.62354 16.3049 10.7806 14.793 11.2169 14.1339L11.4446 13.6881L12.4689 15.0062C11.2738 16.8283 9.64251 17.875 7.99222 17.875C5.39348 17.8556 3.25 15.6846 3.25 12.9903C3.25 10.296 5.39348 8.125 8.01119 8.125C9.45282 8.125 10.7996 8.78405 11.6153 9.86953C12.5447 11.0907 13.4742 12.3506 14.3658 13.5718L14.9728 14.3859C15.8833 15.6071 16.661 16.3049 17.9698 16.3049C19.2218 16.3049 20.1892 15.7428 20.7203 14.5992L22.4275 14.6573L22.2758 15.0644C21.517 16.7701 19.8288 17.8556 17.9888 17.8556Z" fill="white"/>
</svg>
