<svg width="26" height="26" viewBox="0 0 26 26" fill="none" xmlns="http://www.w3.org/2000/svg">
<path d="M22.7939 9.45381C18.9889 6.11086 14.2089 4.40315 13.2906 4.09626L12.9929 4L12.7017 4.09512C11.7813 4.40315 6.99477 6.11312 3.18976 9.4606L3 9.62707L3.04689 9.89999C3.12542 10.3439 3.58127 12.6858 4.85288 15.2847C5.66972 16.9505 6.66868 18.4114 7.82251 19.6287C9.22826 21.1077 10.8696 22.205 12.7028 22.8902L13.0005 23L13.1936 22.9219L13.2961 22.8845C15.1184 22.2039 16.7587 21.1066 18.1742 19.6231C19.3215 18.4193 20.3205 16.9573 21.1449 15.2791C22.4242 12.6711 22.904 10.2544 22.9531 9.87734H22.9542L23 9.60782L22.7939 9.45381ZM14.6004 9.48891C15.6223 9.48212 16.546 9.73352 17.2211 10.1582C17.1992 10.1514 16.8448 10.0347 16.4849 9.98492C16.2984 10.1842 16.3964 10.0845 16.151 10.2986C15.9839 10.4444 15.963 10.46 15.963 10.46C14.8778 10.2222 14.6004 9.48891 14.6004 9.48891ZM20.3619 14.8691C20.0151 15.5769 19.6356 16.2416 19.2266 16.8633C19.0467 17.1374 18.8613 17.4012 18.6704 17.6572C17.3781 17.5609 16.7118 17.1363 16.3704 16.7025C15.9636 16.1873 16.0138 15.6618 16.0138 15.6618C16.0138 15.5905 16.0138 15.5203 16.0258 15.4489C16.0258 15.4489 16.0323 15.3866 16.052 15.2881C16.0803 15.1534 16.1359 14.9507 16.2417 14.7479C16.4217 14.3992 16.7499 14.0504 17.3356 14.0458H17.3465C17.5013 14.039 17.6562 14.0719 17.7871 14.1489C18.4065 14.4965 18.0041 15.1466 18.0041 15.1466C18.051 15.1386 18.0979 15.1284 18.1459 15.1149C18.8907 14.9065 19.7305 14.0221 19.5854 12.5397C19.5527 12.2034 19.4436 11.9021 19.2931 11.6349C18.9136 10.9611 18.2669 10.5126 17.8983 10.2986C17.7304 10.2012 17.6202 10.1514 17.6202 10.1514C17.6387 10.0314 17.6453 9.93736 17.6453 9.86602C17.6453 9.85243 17.6453 9.83997 17.6442 9.82751C17.6409 9.71314 17.6202 9.66897 17.6202 9.66897C13.777 7.25462 10.7823 7.77667 10.7823 7.77667L11.5261 8.54899C11.5228 8.54899 11.5206 8.54786 11.5174 8.54786C11.4454 8.5422 11.368 8.5422 11.2971 8.5422C10.2447 8.58183 9.26425 8.9159 8.42669 9.47193C6.78101 10.5625 5.68717 12.5023 5.68717 14.7151C5.68717 14.8193 5.69044 14.9189 5.6948 15.0152C5.67299 14.971 5.65118 14.9269 5.62828 14.8816C5.51377 14.6494 5.40689 14.4184 5.30547 14.1931C4.54643 12.4865 4.16037 10.9871 3.99351 10.2182C7.76471 7.07569 12.3538 5.49368 12.9951 5.28645C13.175 5.3442 13.6625 5.50954 14.3539 5.78698C15.1392 6.10067 16.1872 6.5593 17.3476 7.16629C18.8209 7.93748 20.4742 8.94988 21.9967 10.2148C21.8069 11.0823 21.3358 12.884 20.3619 14.8691ZM22.6172 10.3111C22.6216 10.2929 22.6248 10.2748 22.6292 10.2578C22.6336 10.2612 22.6368 10.2646 22.6412 10.2692L22.6717 10.2952L22.6172 10.3111Z" fill="white"/>
<path d="M22.672 10.2941L22.6164 10.311C22.6208 10.2929 22.6241 10.2748 22.6284 10.2578C22.6328 10.2612 22.6361 10.2646 22.6404 10.2691L22.672 10.2941Z" fill="white"/>
<path d="M22.641 10.268C22.6366 10.2646 22.6333 10.2612 22.629 10.2567C22.6257 10.2736 22.6213 10.2918 22.617 10.3099L22.6726 10.2929L22.641 10.268Z" fill="white"/>
</svg>
