<svg width="26" height="26" viewBox="0 0 26 26" fill="none" xmlns="http://www.w3.org/2000/svg">
<path d="M13.5404 20.9375C13.4799 20.9375 13.3589 20.8844 13.2983 20.8844L11.483 19.2906C11.4225 19.2375 11.3619 19.1312 11.4225 19.025C11.483 18.8656 11.5435 18.8125 11.6645 18.8125H12.0276C13.2378 18.7594 14.4481 18.4406 15.5373 17.9094C15.8399 17.75 16.7476 17.2719 16.7476 17.2719C16.8081 17.2188 16.8686 17.2188 16.9291 17.2188C16.9896 17.2188 17.1106 17.2719 17.1712 17.325C17.2922 17.4312 17.2922 17.5375 17.1712 17.6437C16.9291 17.9625 16.6265 18.2813 16.2634 18.6L13.7219 20.8844C13.6614 20.8844 13.6009 20.9375 13.5404 20.9375Z" fill="white"/>
<path fill-rule="evenodd" clip-rule="evenodd" d="M9.56975 16.2045C10.636 16.5909 11.8546 16.7455 12.9971 16.7455C13.911 16.7455 14.825 16.5909 15.6628 16.3591C16.9575 16.05 18.1761 15.5091 19.3185 14.7364C19.5582 14.5743 19.7429 14.4225 19.9518 14.2507C19.9927 14.2172 20.0345 14.1828 20.0778 14.1475C20.1218 14.1116 20.1642 14.0774 20.2057 14.0439C20.3315 13.9426 20.4492 13.8477 20.5776 13.7318L20.8418 13.5C20.918 13.4227 20.9733 13.3464 20.9941 13.1909C21.0106 13.0678 20.9941 12.9591 20.9179 12.8818L13.3017 5.07727C13.2636 5.07727 13.2065 5.05796 13.1494 5.03865C13.0923 5.01933 13.0352 5 12.9971 5C12.9209 5 12.7686 5.07727 12.6924 5.15455L5.07616 12.9591C5 13.0364 5 13.1909 5 13.2682C5 13.3454 5.07605 13.4226 5.15215 13.4998L5.15232 13.5L5.38082 13.7318L5.6093 13.9636C5.83779 14.1955 6.14244 14.4273 6.37093 14.5818C7.36104 15.2773 8.42731 15.8182 9.56975 16.2045ZM14.444 14.4272C14.5046 14.4878 14.5618 14.4878 14.6379 14.4878C15.7804 14.2559 16.7288 13.8863 17.7189 13.2681L17.7951 13.1909C17.8713 13.1136 17.9474 12.9591 17.9474 12.8818C17.9474 12.8045 17.9004 12.7264 17.8243 12.6491L17.7189 12.5727C16.348 11.8 14.7486 11.3363 13.1492 11.3363C11.7783 11.3363 10.4074 11.6454 9.18874 12.1863L8.88409 12.3409C8.78592 12.3835 8.73177 12.5727 8.73177 12.7272C8.73177 12.8818 8.88409 12.9591 9.03642 12.9591H9.41723C11.169 12.9591 12.9207 13.5 14.444 14.4272Z" fill="white"/>
</svg>
