<svg width="26" height="26" viewBox="0 0 26 26" fill="none" xmlns="http://www.w3.org/2000/svg">
<path d="M15.2594 11.7495C15.2594 12.6029 14.7567 13.3438 14.0266 13.6875V16.2004H12.1715V13.6994C11.4294 13.3556 10.9148 12.6148 10.9148 11.7495C10.9148 10.5582 11.8902 9.59806 13.0871 9.59806C14.2839 9.59214 15.2594 10.5582 15.2594 11.7495Z" fill="white"/>
<path d="M19.6575 14.7602C18.8736 17.6288 16.2285 19.7446 13.0868 19.7446C9.33464 19.7446 6.28266 16.722 6.28266 13C6.28266 9.27802 9.33464 6.26131 13.0868 6.26131C16.1926 6.26131 18.8257 8.33567 19.6336 11.1568H21.9195C21.0578 7.10884 17.4254 4.0625 13.0868 4.0625C8.11385 4.0625 4.0625 8.07489 4.0625 13C4.0625 17.931 8.11385 21.9375 13.0868 21.9375C17.4553 21.9375 21.1117 18.8437 21.9375 14.7602H19.6575Z" fill="white"/>
</svg>
