<svg width="26" height="26" viewBox="0 0 26 26" fill="none" xmlns="http://www.w3.org/2000/svg">
<path d="M21.7258 15.5161C21.4223 16.9902 20.8862 18.3613 19.9804 19.5672C18.6743 21.3155 16.9101 22.2664 14.8021 22.6148C13.9495 22.7573 13.0934 22.7813 12.2337 22.7142C12.125 22.7046 12.0058 22.7142 11.916 22.628C11.7991 22.7178 11.6645 22.6879 11.5405 22.6675C10.4789 22.4879 9.44911 22.1933 8.47841 21.7167C7.08967 21.0281 5.95718 20.0366 5.13645 18.7014C5.05497 18.5661 4.93334 18.4332 4.93806 18.2536C4.47397 17.2932 4.21299 16.2765 4.10907 15.2167C3.85281 12.5427 4.67 10.1825 6.16974 8.02577C6.75783 7.18154 7.4463 6.42593 8.18909 5.71701C9.94627 4.04411 11.9739 3.69923 14.2259 4.41534C14.5305 4.51473 14.8305 4.63807 15.1281 4.75902C15.2037 4.78895 15.304 4.79494 15.3335 4.90152C15.0301 5.12665 14.9391 5.44518 14.9391 5.80323C14.9391 7.24022 14.9391 8.67482 14.9368 10.1106C14.9368 10.1825 14.9793 10.2687 14.8919 10.3298C14.0074 9.85554 13.0816 9.64359 12.0766 9.76932C9.49989 10.0903 7.66595 12.605 8.13949 15.1892C8.71695 18.323 12.0731 19.9636 14.8376 18.4559C14.9875 18.3733 15.056 18.3733 15.1635 18.523C15.5615 19.0738 16.2641 19.1852 16.8026 18.7912C17.1628 18.5266 17.2998 18.1542 17.2998 17.7123C17.2974 13.8192 17.2998 9.9238 17.3021 6.02836C18.5987 6.92528 19.7088 8.01859 20.6582 9.28194C21.1873 9.98727 21.5215 10.7764 21.7199 11.6314C21.8332 11.8829 21.8403 12.1619 21.8734 12.4266C22.0009 13.4624 21.9313 14.4934 21.7258 15.5161Z" fill="white"/>
<path d="M14.5209 15.0703C14.3237 16.0858 13.5715 16.6031 12.5724 16.3828C11.682 16.1864 11.0042 15.7026 10.7704 14.7614C10.4563 13.498 11.5285 11.9197 13.0991 12.1999C14.0722 12.3736 14.528 12.9879 14.5788 14.1243C14.5823 14.2033 14.5788 14.2824 14.5788 14.3614C14.5882 14.5997 14.5658 14.8368 14.5209 15.0703Z" fill="white"/>
</svg>
