<svg width="26" height="26" viewBox="0 0 26 26" fill="none" xmlns="http://www.w3.org/2000/svg">
<path fill-rule="evenodd" clip-rule="evenodd" d="M25.6631 15.9533L23.4018 15.428C23.5825 14.6503 23.6786 13.8378 23.6786 13C23.6786 12.1622 23.5825 11.3497 23.4018 10.572L25.6631 10.0467C25.8835 10.9955 26 11.9841 26 13C26 14.0159 25.8835 15.0045 25.6631 15.9533ZM24.0412 6.13431L22.071 7.36203C21.2049 5.97222 20.0278 4.79506 18.638 3.92901L19.8657 1.9588C21.5565 3.01239 22.9876 4.44354 24.0412 6.13431ZM15.9533 0.336931L15.428 2.59815C14.6503 2.41747 13.8378 2.32143 13 2.32143C12.1622 2.32143 11.3497 2.41747 10.572 2.59815L10.0467 0.336932C10.9955 0.116523 11.9841 0 13 0C14.0159 0 15.0045 0.116523 15.9533 0.336931ZM6.13431 1.9588L7.36203 3.92901C5.97222 4.79506 4.79506 5.97222 3.92901 7.36203L1.9588 6.13431C3.01239 4.44354 4.44354 3.01239 6.13431 1.9588ZM0.336932 10.0467C0.116523 10.9955 0 11.9841 0 13C0 14.0159 0.116523 15.0045 0.336931 15.9533L2.59815 15.428C2.41747 14.6503 2.32143 13.8378 2.32143 13C2.32143 12.1622 2.41747 11.3497 2.59815 10.572L0.336932 10.0467ZM1.9588 19.8657L3.92901 18.638C4.79506 20.0278 5.97222 21.2049 7.36203 22.071L6.13431 24.0412C4.44354 22.9876 3.01239 21.5565 1.9588 19.8657ZM10.0467 25.6631C10.9955 25.8835 11.9841 26 13 26C14.0159 26 15.0045 25.8835 15.9533 25.6631L15.428 23.4018C14.6503 23.5825 13.8378 23.6786 13 23.6786C12.1622 23.6786 11.3497 23.5825 10.572 23.4018L10.0467 25.6631ZM19.8657 24.0412C21.5565 22.9876 22.9876 21.5565 24.0412 19.8657L22.071 18.638C21.2049 20.0278 20.0278 21.2049 18.638 22.071L19.8657 24.0412Z" fill="white"/>
<path fill-rule="evenodd" clip-rule="evenodd" d="M18.8446 17.7331L17.9417 17.0037C18.1478 16.7486 18.3371 16.4737 18.507 16.1794C18.6769 15.8852 18.8203 15.5838 18.9382 15.2777L20.0213 15.695C19.8818 16.0571 19.7124 16.4131 19.5122 16.7598C19.3121 17.1065 19.0885 17.4312 18.8446 17.7331ZM20.4291 14.1765L19.2826 13.9952C19.3876 13.3314 19.385 12.66 19.281 12.0059L20.4273 11.8237C20.5502 12.5964 20.5534 13.3905 20.4291 14.1765ZM20.0204 10.305L18.9365 10.7204C18.6996 10.1019 18.3661 9.51917 17.9433 8.99682L18.8455 8.26657C19.3462 8.88513 19.7405 9.57446 20.0204 10.305ZM17.7331 7.15543L17.0038 8.05835C16.7486 7.85225 16.4737 7.66288 16.1795 7.49301C15.8852 7.32313 15.5838 7.17973 15.2777 7.06183L15.695 5.97871C16.0572 6.11822 16.4132 6.28764 16.7598 6.4878C17.1065 6.68796 17.4312 6.91155 17.7331 7.15543ZM14.1765 5.57091L13.9952 6.71738C13.3315 6.6124 12.6601 6.615 12.006 6.719L11.8237 5.57268C12.5964 5.44983 13.3905 5.4466 14.1765 5.57091ZM10.3051 5.9796L10.7204 7.06347C10.102 7.30044 9.51921 7.63389 8.99686 8.05669L8.2666 7.15447C8.88516 6.65381 9.57449 6.25955 10.3051 5.9796ZM7.15546 8.26687C6.91159 8.56877 6.68799 8.89349 6.48783 9.24017C6.28768 9.58686 6.11826 9.94285 5.97874 10.305L7.06186 10.7223C7.17977 10.4162 7.32316 10.1148 7.49304 9.82053C7.66292 9.52629 7.85229 9.25138 8.05838 8.99625L7.15546 8.26687ZM5.57095 11.8235L6.71742 12.0048C6.61244 12.6686 6.61504 13.34 6.71903 13.994L5.57272 14.1763C5.44987 13.4036 5.44664 12.6095 5.57095 11.8235ZM5.97964 15.6949L7.06351 15.2796C7.30048 15.8981 7.63393 16.4808 8.05672 17.0032L7.15451 17.7334C6.65384 17.1149 6.25958 16.4255 5.97964 15.6949ZM8.26691 18.8446L8.99629 17.9416C9.25142 18.1477 9.52633 18.3371 9.82057 18.507C10.1148 18.6769 10.4163 18.8202 10.7223 18.9381L10.305 20.0213C9.94289 19.8818 9.58689 19.7123 9.24021 19.5122C8.89353 19.312 8.56881 19.0884 8.26691 18.8446ZM11.8235 20.4291L12.0048 19.2826C12.6686 19.3876 13.34 19.385 13.9941 19.281L14.1763 20.4273C13.4036 20.5501 12.6095 20.5534 11.8235 20.4291ZM15.695 20.0204L15.2797 18.9365C15.8981 18.6995 16.4808 18.3661 17.0032 17.9433L17.7334 18.8455C17.1149 19.3462 16.4256 19.7404 15.695 20.0204Z" fill="white"/>
</svg>
