<svg width="26" height="26" viewBox="0 0 26 26" fill="none" xmlns="http://www.w3.org/2000/svg">
<path d="M21.3571 7.40046L20.5979 8.165C21.2029 9.12068 21.3926 10.3213 20.9775 11.4701C20.2875 13.4173 18.1463 14.4426 16.195 13.7478C15.9182 13.6442 15.6592 13.5208 15.4358 13.3655L13 15.8184L10.8747 13.6602C9.89011 14.3212 8.62874 14.5123 7.43855 14.0942C5.43579 13.3635 4.39981 11.1555 5.12539 9.15453C5.2282 8.84194 5.38439 8.5632 5.55639 8.30238L4.64101 7.38254L4.46901 7.67721C3.51804 9.24413 3.00005 11.052 3.00005 12.9135C2.98226 18.4605 7.47216 23 12.9822 23H13C18.5081 23 22.9822 18.4963 23 12.9474C23 11.1037 22.4998 9.29589 21.5488 7.71304L21.3571 7.40046Z" fill="white"/>
<path d="M6.67956 9.43533C6.42056 9.78376 6.26437 10.2178 6.26437 10.6877C6.26437 11.8186 7.17975 12.7404 8.30272 12.7404C8.76931 12.7404 9.20031 12.5831 9.54629 12.3064L6.67956 9.43533Z" fill="white"/>
<path d="M16.5982 12.2518C16.9285 12.4786 17.3105 12.6 17.7463 12.6C18.8765 12.6 19.7978 11.6786 19.7978 10.5483C19.7978 10.1304 19.6765 9.73037 19.4496 9.40002L16.5982 12.2518Z" fill="white"/>
<path d="M13.0465 14.2L5.39969 6.4646L5.70373 6.14176C7.59026 4.1272 10.1673 3 12.9348 3H12.9513C15.7518 3 18.4387 4.20837 20.3106 6.3041L20.5981 6.62695L13.0465 14.2ZM6.647 6.4646L13.0465 12.9271L19.3655 6.59374C17.6713 4.88542 15.3671 3.90213 12.9659 3.90213H12.9495C10.5666 3.90213 8.34304 4.80425 6.647 6.4646Z" fill="white"/>
</svg>
