<svg width="26" height="26" viewBox="0 0 26 26" fill="none" xmlns="http://www.w3.org/2000/svg">
<path fill-rule="evenodd" clip-rule="evenodd" d="M16.1123 6.80392L18 5.08032L17.0723 4L15.1809 5.72692C14.5328 5.20821 13.7184 4.89855 12.8343 4.89855C10.7151 4.89855 9 6.67359 9 8.85971C9 10.7993 10.3501 12.4153 12.1346 12.7551L12.1346 14.1434C10.3501 14.4833 9 16.0993 9 18.0388C9 20.225 10.7151 22 12.8343 22C14.9534 22 16.6685 20.225 16.6685 18.0388C16.6685 16.0993 15.3185 14.4833 13.534 14.1434V12.7551C15.3185 12.4153 16.6686 10.7993 16.6686 8.85971C16.6686 8.10751 16.4651 7.40334 16.1123 6.80392ZM12.8343 6.34151C11.491 6.34151 10.3994 7.46738 10.3994 8.85971C10.3994 10.252 11.491 11.3779 12.8343 11.3779C14.1775 11.3779 15.2692 10.252 15.2692 8.85971C15.2692 8.2138 15.035 7.62639 14.6488 7.18047C14.2018 6.66426 13.5548 6.34151 12.8343 6.34151ZM12.8343 15.5206C11.491 15.5206 10.3994 16.6465 10.3994 18.0388C10.3994 19.4312 11.491 20.557 12.8343 20.557C14.1775 20.557 15.2692 19.4312 15.2692 18.0388C15.2692 16.6465 14.1775 15.5206 12.8343 15.5206Z" fill="white"/>
</svg>
