<svg width="26" height="26" viewBox="0 0 26 26" fill="none" xmlns="http://www.w3.org/2000/svg">
<path d="M12.4391 13L18.514 16.2448C18.7327 16.3582 19 16.2221 19 15.9952V10.0049C19 9.77795 18.7327 9.64181 18.514 9.75526L12.4391 13Z" fill="white"/>
<path d="M18.4066 7.87359L14.4048 5.06338C14.2176 4.92849 13.9603 5.01841 13.9134 5.24323L12.4391 11.5156L18.3597 8.36819C18.5704 8.25578 18.5704 8.00848 18.4066 7.87359Z" fill="white"/>
<path d="M14.4011 20.9357L18.3951 18.0966C18.582 17.9614 18.5586 17.7135 18.3718 17.6009L12.4391 14.4688L13.8872 20.778C13.934 20.9808 14.2142 21.0709 14.4011 20.9357Z" fill="white"/>
<path d="M10.6638 12.9938L12.4279 6.3505C12.5093 6.08826 12.1293 5.89159 11.8579 6.06641L7.35281 8.84172C7.1357 8.99469 7 9.21322 7 9.4536V16.5339C7 16.7743 7.1357 16.9928 7.35281 17.1458L11.8579 19.943C12.1293 20.0959 12.4822 19.9211 12.4279 19.6589L10.6638 12.9938Z" fill="white"/>
</svg>
