<svg width="26" height="26" viewBox="0 0 26 26" fill="none" xmlns="http://www.w3.org/2000/svg">
<path fill-rule="evenodd" clip-rule="evenodd" d="M13 3L21 7.68346V17.3165L13 22L5 17.3165V7.68346L13 3ZM6.28 9.19243V16.5278L12.36 20.0872V12.5645L6.28 9.19243ZM13.64 12.5645V20.0872L19.72 16.5278V9.19243L13.64 12.5645ZM19.0191 8.06188L13 11.4002L6.9809 8.06188L13 4.53811L19.0191 8.06188Z" fill="white"/>
<path d="M18.2282 13.1079V12.615C18.2282 11.9957 17.8033 11.7385 17.2759 12.0514L16.648 12.4222C15.8306 12.7915 15.6957 13.4916 15.6957 14.113V14.606C15.4529 14.7817 15.2645 15.1396 15.2645 15.4353V17.377C15.2645 17.6963 15.4843 17.8313 15.7543 17.6706L18.1654 16.2454C18.4396 16.0847 18.6593 15.6904 18.6593 15.371V13.4273C18.6614 13.1337 18.4751 12.9944 18.2282 13.1079ZM16.3173 13.7466C16.3173 13.5301 16.4659 13.2665 16.6501 13.1572L17.278 12.7865C17.46 12.6772 17.6107 12.7672 17.6107 12.9836V13.468L16.3194 14.2309V13.7466H16.3173Z" fill="white"/>
<path fill-rule="evenodd" clip-rule="evenodd" d="M10.4906 14.3533L7.25223 12.4824L7.56089 11.894L10.7993 13.7649L10.4906 14.3533Z" fill="white"/>
<path fill-rule="evenodd" clip-rule="evenodd" d="M9.30744 15.2854L7.24664 14.0381L7.56639 13.4564L9.62719 14.7036L9.30744 15.2854Z" fill="white"/>
</svg>
