<svg width="26" height="26" viewBox="0 0 26 26" fill="none" xmlns="http://www.w3.org/2000/svg">
<path fill-rule="evenodd" clip-rule="evenodd" d="M7.49637 17.2106C5.66831 17.0504 3.6051 17.0501 2.21785 17.0997L2.18216 16.1003C3.59491 16.0499 5.7017 16.0495 7.58364 16.2144C8.52311 16.2967 9.42302 16.4215 10.1582 16.6074C10.5258 16.7004 10.8652 16.8118 11.1529 16.9476C11.4351 17.0807 11.7032 17.2536 11.8904 17.4876C12.1548 17.8181 12.1951 18.1947 12.0685 18.544C11.9575 18.8502 11.7282 19.1116 11.5056 19.3215C11.2752 19.5389 11.0004 19.7477 10.7412 19.938C10.666 19.9932 10.5926 20.0465 10.5212 20.0984C10.3369 20.2322 10.1657 20.3566 10.0104 20.4795C9.8313 20.6213 9.71009 20.7335 9.63807 20.8195C9.70045 20.8513 9.8027 20.8944 9.9652 20.9413C10.3024 21.0386 10.8117 21.1286 11.5498 21.2025C13.7635 21.4238 15.3373 21.8324 16.3972 22.2626C16.9266 22.4775 17.3363 22.7012 17.6356 22.916C17.916 23.1172 18.1597 23.353 18.2642 23.6143L17.3358 23.9857C17.3364 23.9873 17.3359 23.9866 17.3338 23.9837C17.3216 23.9665 17.2559 23.8744 17.0525 23.7284C16.8328 23.5707 16.4971 23.3823 16.0212 23.1892C15.0705 22.8033 13.5943 22.4119 11.4503 22.1975C10.6883 22.1213 10.1101 22.0239 9.68794 21.9021C9.2949 21.7886 8.9238 21.6242 8.72365 21.329C8.60977 21.161 8.56362 20.9686 8.58639 20.7737C8.60754 20.5927 8.68431 20.4391 8.76413 20.3198C8.91883 20.0886 9.1609 19.8766 9.38966 19.6955C9.56253 19.5586 9.75948 19.4156 9.94983 19.2774C10.0177 19.2281 10.0847 19.1794 10.1494 19.1319C10.4059 18.9437 10.6374 18.7658 10.8194 18.5941C11.0093 18.415 11.0988 18.2849 11.1284 18.2032L11.1284 18.2031C11.1424 18.1646 11.1452 18.1569 11.1096 18.1123C11.0568 18.0464 10.9418 17.9537 10.7263 17.852C10.5164 17.753 10.2436 17.6605 9.91304 17.5769C9.25199 17.4097 8.4119 17.2908 7.49637 17.2106Z" fill="white"/>
<path fill-rule="evenodd" clip-rule="evenodd" d="M13 24C19.0751 24 24 19.0751 24 13C24 6.92487 19.0751 2 13 2C6.92487 2 2 6.92487 2 13C2 19.0751 6.92487 24 13 24ZM13 25C19.6274 25 25 19.6274 25 13C25 6.37258 19.6274 1 13 1C6.37258 1 1 6.37258 1 13C1 19.6274 6.37258 25 13 25Z" fill="white"/>
<path fill-rule="evenodd" clip-rule="evenodd" d="M11 8C12.1046 8 13 7.10457 13 6C13 4.89543 12.1046 4 11 4C9.89543 4 9 4.89543 9 6C9 7.10457 9.89543 8 11 8ZM11 9C12.6569 9 14 7.65685 14 6C14 4.34315 12.6569 3 11 3C9.34315 3 8 4.34315 8 6C8 7.65685 9.34315 9 11 9Z" fill="white"/>
<path fill-rule="evenodd" clip-rule="evenodd" d="M19.3544 10.0971C19.3932 10.1466 19.4365 10.2061 19.484 10.2774C19.7893 10.7353 20.1742 11.2747 20.5255 11.7041C20.7 11.9173 20.8758 12.1154 21.0359 12.2644C21.1152 12.3383 21.2026 12.4114 21.2933 12.4689C21.369 12.5169 21.5161 12.6 21.7 12.6C21.8593 12.6 21.948 12.6024 22.0287 12.6226C22.0927 12.6386 22.1619 12.669 22.2464 12.7536L23.7114 14.2186L24.084 14.7774L24.916 14.2226L24.4886 13.5815L22.9536 12.0465C22.5427 11.6356 22.1032 11.6027 21.7954 11.6002C21.7757 11.5847 21.7497 11.5627 21.7173 11.5325C21.6055 11.4284 21.4625 11.2702 21.2995 11.0709C20.9758 10.6753 20.6107 10.1647 20.316 9.72267C20.151 9.47514 19.989 9.28275 19.8263 9.14716C19.6693 9.01633 19.4649 8.90002 19.225 8.90002C18.956 8.90002 18.7546 9.04494 18.6402 9.21642C18.6195 9.24747 18.6015 9.27935 18.586 9.31166C18.4752 9.29075 18.3533 9.2574 18.2581 9.22568L18.1 9.17298L17.9419 9.22568C17.7542 9.28825 17.4747 9.41143 17.2033 9.58944C16.9388 9.76293 16.6298 10.0223 16.4528 10.3764C16.404 10.4739 16.2853 10.643 16.101 10.8746C15.9414 11.075 15.7554 11.2948 15.5674 11.5168C15.5469 11.541 15.5263 11.5653 15.5058 11.5896C15.3014 11.8311 15.0953 12.0762 14.9402 12.2813C14.8986 12.3363 14.8582 12.3918 14.8209 12.4462C14.6897 12.3856 14.5305 12.3063 14.3486 12.2153L14.341 12.2115C14.0837 12.0829 13.7913 11.9366 13.5241 11.8228C13.3886 11.7651 13.2507 11.7119 13.12 11.6724C12.9957 11.6348 12.8473 11.6 12.7 11.6C12.4003 11.6 12.1295 11.7423 11.9357 11.868C11.7287 12.0023 11.527 12.1737 11.3553 12.3263C11.2877 12.3864 11.2265 12.442 11.1698 12.4933C11.0709 12.583 10.9858 12.6602 10.9047 12.7273C10.8738 12.7528 10.8485 12.7727 10.828 12.7879C10.8082 12.7835 10.7855 12.7778 10.7597 12.7708C10.6725 12.747 10.5738 12.7143 10.4581 12.6757L10.4514 12.6734C10.3437 12.6375 10.2201 12.5963 10.1034 12.5645C9.99107 12.5339 9.84438 12.5 9.7 12.5C9.60264 12.5 9.44615 12.5174 9.29251 12.5368C9.12592 12.5577 8.92301 12.5865 8.71141 12.618C8.45081 12.6567 8.17344 12.7002 7.92827 12.7397L6.75021 9.50002H4.34269L4.19313 9.70941C3.93832 10.0661 3.54237 10.6448 3.1784 11.2277C2.82473 11.7941 2.46725 12.4172 2.32566 12.8419C2.30699 12.8979 2.2892 12.9377 2.27458 12.9652C2.26708 12.9592 2.25993 12.9528 2.25355 12.9465L1.54645 13.6536C1.68989 13.797 1.98689 14.0164 2.36436 13.9942C2.82326 13.9672 3.12157 13.6165 3.27434 13.1581C3.37276 12.8629 3.66528 12.336 4.0266 11.7574C4.31329 11.2983 4.62201 10.8397 4.85912 10.5H6.04979L7.27216 13.8616L7.6822 13.7932C7.98028 13.7435 8.44228 13.669 8.8586 13.6071C9.06699 13.5761 9.26158 13.5486 9.41749 13.5289C9.49557 13.5191 9.5616 13.5115 9.61358 13.5065C9.63952 13.504 9.66035 13.5023 9.6764 13.5012C9.69349 13.5001 9.70038 13.5 9.7 13.5C9.69972 13.5 9.69976 13.5 9.7 13.5C9.70169 13.5001 9.71319 13.5008 9.73706 13.5051C9.76371 13.5098 9.79778 13.5177 9.84032 13.5293C9.9275 13.5531 10.0262 13.5858 10.1419 13.6244L10.1487 13.6266C10.1569 13.6294 10.1652 13.6321 10.1735 13.6349L9.55279 14.8764L10.4472 15.3236L11.2599 13.6982C11.2739 13.6904 11.2862 13.6832 11.2968 13.6768C11.383 13.6249 11.4675 13.5596 11.5422 13.4977C11.6399 13.4169 11.7547 13.3129 11.8657 13.2123C11.9186 13.1644 11.9707 13.1173 12.0197 13.0737C12.1855 12.9264 12.3401 12.7977 12.4799 12.707C12.5488 12.6623 12.6044 12.6333 12.6473 12.6163C12.6806 12.603 12.6975 12.6005 12.7008 12.6001C12.7041 12.6003 12.7144 12.6012 12.733 12.6047C12.7575 12.6094 12.7899 12.6173 12.8308 12.6296C12.9134 12.6546 13.0146 12.6927 13.1322 12.7428C13.3686 12.8435 13.6355 12.9768 13.9014 13.1097L13.919 13.1185C14.1676 13.2429 14.427 13.3726 14.6258 13.451C14.7176 13.4873 14.8503 13.5352 14.9809 13.5458C15.0399 13.5506 15.1837 13.5565 15.3295 13.4724C15.4868 13.3817 15.5667 13.2365 15.5914 13.0969C15.5929 13.0943 15.5945 13.0915 15.5963 13.0884C15.6234 13.0423 15.6697 12.9746 15.7379 12.8844C15.8734 12.7051 16.0611 12.4814 16.2692 12.2355C16.2898 12.2112 16.3105 12.1867 16.3314 12.162C16.5175 11.9423 16.7138 11.7105 16.8834 11.4973C17.0647 11.2695 17.246 11.0261 17.3472 10.8236C17.4102 10.6977 17.5512 10.5571 17.7517 10.4256C17.8805 10.3412 18.0123 10.2745 18.1191 10.2283C18.2692 10.2699 18.4485 10.3097 18.616 10.3254C18.7277 10.3358 18.8928 10.342 19.0508 10.2925C19.1347 10.2663 19.2496 10.2142 19.3459 10.1069C19.3487 10.1037 19.3516 10.1004 19.3544 10.0971Z" fill="white"/>
<path fill-rule="evenodd" clip-rule="evenodd" d="M17 16.5C16.1407 16.5 15.5 17.1455 15.5 17.875C15.5 18.1442 15.5796 18.2392 15.652 18.294C15.7592 18.3752 15.9562 18.4423 16.2977 18.4749C16.5049 18.4948 16.7388 18.5 17 18.5C17.2612 18.5 17.4951 18.4948 17.7023 18.4749C18.0438 18.4423 18.2408 18.3752 18.348 18.294C18.4204 18.2392 18.5 18.1442 18.5 17.875C18.5 17.1455 17.8593 16.5 17 16.5ZM14.5 17.875C14.5 16.5334 15.6502 15.5 17 15.5C18.3498 15.5 19.5 16.5334 19.5 17.875C19.5 18.3927 19.3211 18.8115 18.9517 19.0912C18.6171 19.3446 18.1892 19.4329 17.7977 19.4704C17.5416 19.4949 17.2692 19.5 17 19.5C16.7308 19.5 16.4584 19.4949 16.2023 19.4704C15.8108 19.4329 15.3829 19.3446 15.0483 19.0912C14.6789 18.8115 14.5 18.3927 14.5 17.875Z" fill="white"/>
<path fill-rule="evenodd" clip-rule="evenodd" d="M20.5 18.5C19.8585 18.5 19.5 18.9173 19.5 19.25C19.5 19.3192 19.5125 19.3478 19.516 19.3548C19.5185 19.3596 19.5226 19.3674 19.5418 19.3803C19.5975 19.4177 19.7245 19.4618 19.9799 19.4836C20.1319 19.4965 20.3046 19.5 20.5 19.5C20.6954 19.5 20.8681 19.4965 21.0201 19.4836C21.2755 19.4618 21.4025 19.4177 21.4582 19.3803C21.4774 19.3674 21.4815 19.3596 21.484 19.3548C21.4875 19.3478 21.5 19.3192 21.5 19.25C21.5 18.9173 21.1415 18.5 20.5 18.5ZM18.5 19.25C18.5 18.202 19.4847 17.5 20.5 17.5C21.5153 17.5 22.5 18.202 22.5 19.25C22.5 19.6602 22.335 19.9955 22.0166 20.2098C21.7409 20.3954 21.3993 20.4549 21.1049 20.48C20.9095 20.4966 20.7025 20.5 20.5 20.5C20.2975 20.5 20.0905 20.4966 19.8951 20.48C19.6007 20.4549 19.2591 20.3954 18.9834 20.2098C18.665 19.9955 18.5 19.6602 18.5 19.25Z" fill="white"/>
</svg>
