<svg width="26" height="26" viewBox="0 0 26 26" fill="none" xmlns="http://www.w3.org/2000/svg">
<path fill-rule="evenodd" clip-rule="evenodd" d="M19.7553 7.98947C20.5802 7.37761 21.75 7.96641 21.75 8.99342V17.6154C21.75 18.0296 21.4142 18.3654 21 18.3654C20.5858 18.3654 20.25 18.0296 20.25 17.6154V9.49013L15.5278 12.9929V18C15.5278 18.4142 15.192 18.75 14.7778 18.75C14.3636 18.75 14.0278 18.4142 14.0278 18V12.867C14.0278 12.4713 14.2153 12.0989 14.5331 11.8631L19.7553 7.98947Z" fill="white"/>
<path fill-rule="evenodd" clip-rule="evenodd" d="M6.24471 7.98947C5.41985 7.37761 4.25001 7.96641 4.25001 8.99342V17.6154C4.25001 18.0296 4.58579 18.3654 5.00001 18.3654C5.41422 18.3654 5.75001 18.0296 5.75001 17.6154V9.49013L10.4722 12.9929V18C10.4722 18.4142 10.808 18.75 11.2222 18.75C11.6364 18.75 11.9722 18.4142 11.9722 18V12.867C11.9722 12.4713 11.7847 12.0989 11.4669 11.8631L6.24471 7.98947Z" fill="white"/>
</svg>
