<svg width="26" height="26" viewBox="0 0 26 26" fill="none" xmlns="http://www.w3.org/2000/svg">
<path fill-rule="evenodd" clip-rule="evenodd" d="M12.6085 3.10634C12.8511 2.96455 13.1489 2.96455 13.3915 3.10634L20.6021 7.32038C20.8482 7.46417 21 7.73183 21 8.02174V16.6605C21 16.9353 20.8635 17.1912 20.6376 17.3399L15.6215 20.6409C15.2549 20.8822 14.7665 20.7736 14.5306 20.3984C14.2948 20.0233 14.4009 19.5235 14.7676 19.2822L19.4213 16.2197V9.41321L13.7894 12.7046V23C13.7894 23.4461 13.436 23.8077 13 23.8077C12.564 23.8077 12.2106 23.4461 12.2106 23V12.7046L6.57873 9.41321V16.2197L11.2324 19.2822C11.5991 19.5235 11.7052 20.0233 11.4694 20.3984C11.2335 20.7736 10.7451 20.8822 10.3785 20.6409L5.36237 17.3399C5.13652 17.1912 5 16.9353 5 16.6605V8.02174C5 7.73183 5.15184 7.46417 5.39787 7.32038L12.6085 3.10634ZM7.38094 8.02174L13 11.3056L18.6191 8.02174L13 4.73784L7.38094 8.02174Z" fill="white"/>
<path fill-rule="evenodd" clip-rule="evenodd" d="M12.737 4.33268V3.80768H13.2632V4.33268H12.737ZM12.737 6.43268V5.38268H13.2632V6.43268H12.737ZM12.737 8.53268V7.48268H13.2632V8.53268H12.737ZM12.737 10.6327V9.58268H13.2632V10.6327H12.737ZM12.737 12.0604V11.6827H13.2632V12.0536L13.6037 12.2582L13.3371 12.7225L13.0061 12.5235L12.711 12.717L12.4271 12.2637L12.737 12.0604ZM15.2181 13.8533L14.2776 13.2879L14.5442 12.8236L15.4847 13.389L15.2181 13.8533ZM11.8489 13.2824L10.9867 13.8478L10.7028 13.3945L11.5649 12.8291L11.8489 13.2824ZM16.1586 14.4187L16.4252 13.9544L17.3657 14.5198L17.0992 14.984L16.1586 14.4187ZM10.1246 14.4132L9.26245 14.9786L8.97849 14.5252L9.84063 13.9599L10.1246 14.4132ZM18.9802 16.1148L18.0397 15.5494L18.3062 15.0852L19.2468 15.6505L18.9802 16.1148ZM8.40031 15.544L7.53817 16.1093L7.25421 15.656L8.11635 15.0906L8.40031 15.544ZM20.391 16.9629L19.9207 16.6802L20.1873 16.2159L20.6575 16.4986L20.391 16.9629ZM6.67603 16.6747L6.24496 16.9574L5.961 16.5041L6.39207 16.2214L6.67603 16.6747Z" fill="white"/>
</svg>
