<svg width="26" height="26" viewBox="0 0 26 26" fill="none" xmlns="http://www.w3.org/2000/svg">
<path fill-rule="evenodd" clip-rule="evenodd" d="M9.41177 13.7682C9.91234 13.7682 10.3879 13.8687 10.8384 14.0697C11.2789 14.2607 11.6643 14.522 11.9947 14.8536C12.325 15.1853 12.5853 15.5722 12.7755 16.0144C12.9758 16.4667 13.0759 16.9441 13.0759 17.4466C13.0759 17.9592 12.9808 18.4365 12.7906 18.8788C12.5903 19.321 12.325 19.7104 11.9947 20.0471C11.6643 20.3838 11.2788 20.6476 10.8384 20.8386C10.3879 21.0295 9.91234 21.125 9.41177 21.125C8.90118 21.125 8.4257 21.0295 7.98515 20.8386C7.54465 20.6476 7.15671 20.3838 6.82135 20.0471C6.48598 19.7104 6.22318 19.321 6.03296 18.8788C5.84274 18.4365 5.74764 17.9592 5.74764 17.4466C5.74764 16.9441 5.84275 16.4666 6.03296 16.0144C6.22318 15.5722 6.48598 15.1852 6.82135 14.8536C7.15673 14.522 7.54467 14.2556 7.98515 14.0546C8.42565 13.8637 8.90118 13.7682 9.41177 13.7682ZM9.41177 19.8437C10.0625 19.8437 10.6206 19.61 11.0862 19.1427C11.5517 18.6753 11.7844 18.11 11.7844 17.4466C11.7844 16.7933 11.5517 16.2331 11.0862 15.7657C10.6206 15.2984 10.0625 15.0647 9.41177 15.0647C8.75101 15.0647 8.18786 15.2984 7.72233 15.7657C7.2568 16.233 7.02403 16.7934 7.02403 17.4466C7.02403 18.11 7.25679 18.6753 7.72233 19.1427C8.18785 19.61 8.75094 19.8437 9.41177 19.8437ZM17.4609 5.6875C17.9715 5.6875 18.4469 5.78298 18.8875 5.97394C19.328 6.1649 19.7159 6.42872 20.0513 6.7654C20.3867 7.10209 20.6495 7.49154 20.8397 7.93373C21.0299 8.37595 21.125 8.85334 21.125 9.36592C21.125 9.86844 21.0299 10.3459 20.8397 10.7981C20.6495 11.2403 20.3867 11.6273 20.0513 11.9589C19.7159 12.2905 19.328 12.5569 18.8875 12.7579C18.447 12.9488 17.9715 13.0443 17.4609 13.0443C16.9603 13.0443 16.4847 12.9488 16.0343 12.7579C15.5938 12.5569 15.2083 12.2905 14.878 11.9589C14.5477 11.6272 14.2823 11.2403 14.0821 10.7981C13.8919 10.3458 13.7968 9.86844 13.7968 9.36592C13.7968 8.85334 13.8919 8.376 14.0821 7.93373C14.2823 7.49152 14.5476 7.10207 14.878 6.7654C15.2084 6.42872 15.5938 6.1649 16.0343 5.97394C16.4848 5.78298 16.9603 5.6875 17.4609 5.6875ZM17.4609 11.7479C18.1216 11.7479 18.6848 11.5142 19.1503 11.0469C19.6159 10.5795 19.8486 10.0192 19.8486 9.36593C19.8486 8.7026 19.6159 8.13726 19.1503 7.66991C18.6848 7.20256 18.1217 6.96889 17.4609 6.96889C16.8101 6.96889 16.252 7.20255 15.7865 7.66991C15.321 8.13725 15.0882 8.70254 15.0882 9.36593C15.0882 10.0192 15.3209 10.5795 15.7865 11.0469C16.252 11.5142 16.8102 11.7479 17.4609 11.7479ZM8.94623 5.6875H13.1209V6.96897H12.1899C12.4602 7.29058 12.6729 7.65239 12.8281 8.05438C12.9833 8.4564 13.0609 8.88354 13.0609 9.33585V9.366C13.0609 9.87858 12.9607 10.3559 12.7605 10.7982C12.5703 11.2505 12.3075 11.6449 11.9721 11.9816C11.6367 12.3183 11.2488 12.5821 10.8083 12.7731C10.3578 12.9641 9.87727 13.0595 9.36666 13.0595C8.85607 13.0595 8.38059 12.964 7.94004 12.7731C7.48953 12.5821 7.09909 12.3183 6.76872 11.9816C6.43835 11.6449 6.17305 11.2505 5.97282 10.7982C5.7826 10.356 5.6875 9.87858 5.6875 9.366C5.6875 8.88358 5.78261 8.43132 5.97282 8.00918C6.16304 7.58706 6.41081 7.21268 6.71617 6.88608C7.02151 6.55944 7.3694 6.2906 7.75984 6.07954C8.15028 5.86848 8.54572 5.74285 8.94621 5.70265L8.94623 5.6875ZM11.7844 9.36597C11.7844 8.70264 11.5517 8.1373 11.0861 7.66994C10.6206 7.2026 10.0624 6.96893 9.41173 6.96893C8.75097 6.96893 8.18782 7.20259 7.72229 7.66994C7.25676 8.13729 7.02399 8.70258 7.02399 9.36597C7.02399 10.0192 7.25675 10.5795 7.72229 11.0469C8.18781 11.5142 8.75091 11.7479 9.41173 11.7479C10.0625 11.7479 10.6206 11.5142 11.0861 11.0469C11.5516 10.5795 11.7844 10.0192 11.7844 9.36597Z" fill="white"/>
</svg>
