<svg width="18" height="18" viewBox="0 0 18 18" fill="none" xmlns="http://www.w3.org/2000/svg">
<path d="M5.55139 1.67194C5.93755 2.05783 6.32503 2.44262 6.70943 2.83027C7.38729 3.51398 7.38861 4.31146 6.71338 4.9899C6.22904 5.4766 5.74755 5.96616 5.25376 6.44298C5.12328 6.56883 5.11296 6.67249 5.17908 6.83107C5.50329 7.60966 5.97204 8.29908 6.49943 8.94743C7.5595 10.2505 8.75839 11.4071 10.1881 12.3045C10.4943 12.4967 10.833 12.6366 11.152 12.8096C11.3161 12.8986 11.4285 12.8703 11.5599 12.7345C12.0429 12.2353 12.5376 11.7471 13.0312 11.2579C13.6776 10.6175 14.489 10.6162 15.1383 11.2593C15.9317 12.0451 16.7216 12.8347 17.5082 13.6271C18.1681 14.2917 18.1628 15.1039 17.4992 15.7733C17.0509 16.2258 16.5771 16.6552 16.1531 17.1291C15.5361 17.819 14.762 18.0423 13.8766 17.9936C12.5896 17.9229 11.4024 17.4959 10.2591 16.9402C7.71765 15.7052 5.54502 13.9937 3.72758 11.8305C2.38372 10.2312 1.27313 8.4906 0.542776 6.52468C0.189567 5.5739 -0.0630384 4.60006 0.0138415 3.56999C0.0612874 2.93438 0.300055 2.39365 0.768583 1.9478C1.2716 1.46878 1.75089 0.964948 2.24643 0.477807C2.8953 -0.16022 3.70693 -0.158902 4.35734 0.479565C4.75887 0.873582 5.15359 1.27419 5.55139 1.67194Z" fill="#3CB34F"/>
</svg>
