<svg width="26" height="26" viewBox="0 0 26 26" fill="none" xmlns="http://www.w3.org/2000/svg">
<path d="M13.0587 19.5805C12.827 19.7307 12.761 20.0403 12.9112 20.272C13.0614 20.5037 13.371 20.5698 13.6027 20.4195L13.0587 19.5805ZM19.2281 15.5804L13.0587 19.5805L13.6027 20.4195L19.7722 16.4195L19.2281 15.5804Z" fill="white"/>
<path d="M11.5033 18.8023C11.2625 18.9375 11.1769 19.2423 11.3121 19.4831C11.4473 19.7239 11.7521 19.8095 11.9928 19.6743L11.5033 18.8023ZM14.6687 17.025L11.5033 18.8023L11.9928 19.6743L15.1583 17.8969L14.6687 17.025Z" fill="white"/>
<path d="M9.92058 17.7866C9.6798 17.9218 9.5942 18.2265 9.7294 18.4673C9.8646 18.7081 10.1694 18.7937 10.4102 18.6585L9.92058 17.7866ZM13.086 16.0092L9.92058 17.7866L10.4102 18.6585L13.5756 16.8811L13.086 16.0092Z" fill="white"/>
<path d="M8.33788 16.7709C8.09709 16.9061 8.0115 17.2109 8.1467 17.4517C8.28189 17.6925 8.58669 17.7781 8.82747 17.6429L8.33788 16.7709ZM11.5033 14.9936L8.33788 16.7709L8.82747 17.6429L11.9929 15.8655L11.5033 14.9936Z" fill="white"/>
<path d="M6.7552 15.7554C6.51442 15.8906 6.42883 16.1954 6.56402 16.4362C6.69922 16.677 7.00401 16.7626 7.2448 16.6274L6.7552 15.7554ZM9.92065 13.9781L6.7552 15.7554L7.2448 16.6274L10.4102 14.85L9.92065 13.9781Z" fill="white"/>
<path d="M6.7552 13.978C6.51442 14.1132 6.42883 14.4179 6.56402 14.6587C6.69922 14.8995 7.00401 14.9851 7.2448 14.8499L6.7552 13.978ZM9.92065 12.2006L6.7552 13.978L7.2448 14.8499L10.4102 13.0725L9.92065 12.2006Z" fill="white"/>
<path d="M6.7552 12.2006C6.51442 12.3358 6.42883 12.6406 6.56402 12.8814C6.69922 13.1222 7.00401 13.2078 7.2448 13.0726L6.7552 12.2006ZM9.92065 10.4233L6.7552 12.2006L7.2448 13.0726L10.4102 11.2952L9.92065 10.4233Z" fill="white"/>
<path d="M6.7552 10.4233C6.51442 10.5585 6.42883 10.8633 6.56402 11.104C6.69922 11.3448 7.00401 11.4304 7.2448 11.2952L6.7552 10.4233ZM9.92065 8.6459L6.7552 10.4233L7.2448 11.2952L10.4102 9.51785L9.92065 8.6459Z" fill="white"/>
<path d="M6.7552 8.64587C6.51442 8.78107 6.42883 9.08586 6.56402 9.32664C6.69922 9.56742 7.00401 9.65302 7.2448 9.51782L6.7552 8.64587ZM9.92065 6.8685L6.7552 8.64587L7.2448 9.51782L10.4102 7.74045L9.92065 6.8685Z" fill="white"/>
<path d="M19.9808 9.06392L19.9999 16.5253L15.5436 19.0019L8.83997 15.2553L8.84 7.47653L13.2964 5L19.9808 9.06392Z" fill="white"/>
</svg>
