<svg width="26" height="26" viewBox="0 0 26 26" fill="none" xmlns="http://www.w3.org/2000/svg">
<path d="M9.88881 13.8359C9.79999 12.913 10.7758 11.694 11.8001 11.2609C12.8245 10.8278 13.0773 9.78797 13.0773 9.78797L12.9999 4.5" stroke="white" stroke-miterlimit="10" stroke-linecap="round"/>
<path d="M13.0775 21.6833V19.5653C13.0775 19.5653 12.7758 18.3027 13.8001 17.8696C14.3952 17.618 15.0001 17.8696 15.8152 16.5078" stroke="white" stroke-miterlimit="10" stroke-linecap="round"/>
<path d="M5.92307 17.2448L7.96301 15.9141C7.96301 15.9141 9.37674 15.4762 10.2 16.2174C10.7522 16.7152 10.9111 17.3133 11.8 17.4565" stroke="white" stroke-miterlimit="10" stroke-linecap="round"/>
<path d="M20.3846 16.9333C20.3846 16.9333 18.3583 16.2297 17.6791 15.7898C16.9999 15.35 16.5712 15.2674 16.2 13.7391C15.9411 12.6734 15.1184 11.7896 14.2 11.7251" stroke="white" stroke-miterlimit="10" stroke-linecap="round"/>
<path fill-rule="evenodd" clip-rule="evenodd" d="M13.9245 4.56536C13.5449 3.88115 12.5621 3.87822 12.1784 4.56015L5.48413 16.4599C5.21577 16.9369 5.38078 17.5411 5.85439 17.8154L12.571 21.7067C12.8837 21.8879 13.2698 21.8863 13.5809 21.7025L20.162 17.8154C20.6284 17.5399 20.7907 16.9431 20.5279 16.4693L13.9245 4.56536Z" stroke="white" stroke-miterlimit="10" stroke-linecap="round"/>
</svg>
