<svg width="26" height="26" viewBox="0 0 26 26" fill="none" xmlns="http://www.w3.org/2000/svg">
<path fill-rule="evenodd" clip-rule="evenodd" d="M14.9149 7.02062H8.125V4.875H14.9149C15.6706 4.875 16.7813 5.10159 17.7327 5.81283C18.7294 6.55795 19.4796 7.78688 19.4905 9.586C19.545 10.4331 19.377 11.6685 18.6624 12.7308C17.8941 13.873 16.5803 14.6836 14.6197 14.6836H13.7989L17.8646 21.6365L16.0982 22.75L10.1267 12.5379H14.6197C15.9654 12.5379 16.6197 12.0203 16.9683 11.5022C17.3586 10.9219 17.4628 10.1886 17.4272 9.7083C17.4252 9.68092 17.4242 9.65348 17.4242 9.62602C17.4242 8.50439 16.9972 7.90691 16.5252 7.55408C16.0006 7.16185 15.34 7.02062 14.9149 7.02062Z" fill="white"/>
</svg>
