<svg width="26" height="26" viewBox="0 0 26 26" fill="none" xmlns="http://www.w3.org/2000/svg">
<path d="M16.8917 13.922C17.1192 14.2276 17.022 14.443 16.9848 14.6496C16.3229 18.189 12.8267 20.5565 9.4926 19.8948C7.99515 19.5981 7.12853 18.6198 7.01477 17.1051C6.88861 15.4344 7.56983 14.4738 9.08383 13.9396C9.98354 13.623 10.9122 13.5966 11.8429 13.6494C13.5514 13.7483 15.2412 14.1682 16.8917 13.922Z" fill="white"/>
<path d="M10.0068 12.1724C10.1723 8.91011 12.9198 6.18159 16.0533 6.01452C16.5683 5.98594 17.0833 5.99034 17.5921 6.11344C19.1123 6.48276 19.9396 7.50279 19.9976 9.08999C20.0534 10.6134 19.3824 11.6426 17.9388 12.1637C17.1487 12.4494 16.3275 12.544 15.5002 12.5C13.6884 12.4077 12.5508 11.9564 10.0068 12.1724Z" fill="white"/>
</svg>
