<svg width="26" height="26" viewBox="0 0 26 26" fill="none" xmlns="http://www.w3.org/2000/svg">
<path d="M20.3039 18.5295L20.535 19.8495L16.1251 21.5978L15.5923 22.7836L11.0368 21.732L10.0483 23C10.0483 23 6.706 19.5963 6.47705 18.8779C6.06194 18.8779 5.22531 18.8779 4.75029 18.8779C4.75029 18.073 4.67754 14.0071 4.67754 14.0071L3 13.4272L5.07981 9.12767C5.07981 9.12767 4.37584 8.07604 4.22606 7.61947C4.86798 7.35549 8.04119 5.14405 8.04119 5.14405L7.92564 3.53199L12.4512 3.73539L13.2386 2L17.1521 5.21113L18.5002 4.30448L20.5843 8.56291L22.1227 8.59969L22.0307 13.6241L23 14.6281L20.3039 18.5295ZM10.0076 20.6393L10.4591 19.8949L14.6208 21.0893L14.7706 20.4835C14.7706 20.4835 18.1343 19.3085 18.834 19.1354C18.6949 18.813 18.4788 18.311 18.4788 18.311L21.1213 14.9073L20.488 14.4615L20.7875 9.98671L19.7369 10.0884L18.008 6.2476L17.1714 7.11747L13.949 4.3456L13.2621 5.35611L9.5069 5.0813L9.67594 5.92303L6.0705 7.96352L6.6846 9.07141L4.97497 12.6049L6.14539 12.9966L6.31229 17.1944H7.11469L10.0076 20.6393Z" fill="white"/>
<path d="M14.9588 9.84174C14.5758 10.1793 14.2099 10.4995 13.8248 10.8393C13.3176 10.3978 12.772 10.1815 12.1322 10.2702C11.5973 10.3437 11.1415 10.7029 11.0538 11.1379C10.9597 11.6074 11.0966 11.9601 11.5459 12.1938C12.0402 12.4513 12.5687 12.6439 13.0651 12.8949C13.6429 13.187 14.0772 13.6025 14.2891 14.2603C14.5908 15.1929 14.2142 16.4934 13.0544 17.1274C11.6337 17.9063 9.57312 17.7765 8.3171 16.7292C8.22937 16.6556 8.16304 16.5583 8.04108 16.422C8.44121 16.0779 8.82208 15.7512 9.21578 15.4136C9.42976 15.5521 9.61377 15.6495 9.77211 15.7793C10.3113 16.225 10.9383 16.2164 11.5673 16.1298C12.0702 16.0606 12.4489 15.6711 12.5174 15.2189C12.5944 14.7104 12.3419 14.3598 11.9375 14.1088C11.7599 13.9985 11.5652 13.9141 11.3726 13.834C11.1801 13.7539 10.9746 13.702 10.7821 13.6241C9.96469 13.2931 9.29496 12.8084 9.21151 11.8346C9.12164 10.809 9.50679 9.96724 10.3777 9.43494C11.6914 8.63216 13.0566 8.60403 14.4196 9.34406C14.5416 9.40897 14.6485 9.50418 14.7534 9.59723C14.8176 9.65781 14.8689 9.73571 14.9588 9.84174Z" fill="white"/>
<path d="M16.7369 15.1691C16.7369 15.1691 16.0073 15.1691 15.5922 15.1691C15.7869 13.0442 16.0394 10.9669 16.2555 8.85937C16.8632 8.85937 17.4066 8.85937 17.9758 8.85937C17.9951 9.02382 18.0165 9.24669 18.0165 9.24669L16.7369 15.1691Z" fill="white"/>
<path d="M15.2669 15.7403C15.8361 15.8507 16.8781 16.0562 16.8781 16.0562L16.6748 18.1076C16.6748 18.1076 15.6135 17.8436 15.0273 17.6964C15.1064 17.0451 15.1835 16.4154 15.2669 15.7403Z" fill="white"/>
</svg>
