<svg width="26" height="26" viewBox="0 0 26 26" fill="none" xmlns="http://www.w3.org/2000/svg">
<path d="M11.8566 15.9922L13.0585 13.0958L14.0716 15.9922H16.4376L18.2404 11.0395H16.3999L15.1617 14.1781L13.9221 11.0395H11.9321L10.1293 15.9922H11.8566ZM9.61222 15.5L10.5002 13.0958L9.61222 11.0395H7.76192L9.61222 15.5Z" fill="white"/>
<path d="M23.3998 11.4139C23.0267 10.378 22.3098 9.45197 21.973 8.43159C21.5691 7.21137 21.263 5.85744 20.2554 4.97781C19.4113 4.24173 18.4317 3.68721 17.3472 3.40854C16.4766 3.18617 15.5277 3.24247 14.7087 2.83432C12.3009 1.6352 10.3248 3.45499 8.1377 4.31773C6.57948 4.93136 4.74736 5.30996 3.89908 6.97915C3.34567 8.06989 3.50778 9.03678 3.27579 10.2035C3.03822 11.3928 2.31012 12.4765 2.45686 13.7319C2.64133 15.3195 3.7174 16.6143 3.83759 18.2708C3.96755 20.0878 5.40698 19.9301 6.53197 20.8337C7.05044 21.2503 7.32156 21.9343 7.87776 22.296C8.25509 22.5395 8.70229 22.4945 9.11036 22.6394C9.50026 22.7773 9.82727 23.0659 10.1976 23.2474C11.8299 24.0482 13.4775 23.0602 15.1629 23.1405C16.812 23.2179 17.9831 22.1327 19.2492 21.0068C20.0807 20.2679 21.0786 19.9681 21.8891 19.2081C22.7807 18.3721 22.7835 17.2561 22.8688 16.0992C22.8953 15.7347 22.954 15.3687 23.0197 15.0028C23.2517 13.7375 23.8484 12.6651 23.3998 11.4139ZM12.9996 21.2024C8.50943 21.2024 4.85497 17.5221 4.85497 13.0001C4.85497 8.47663 8.50943 4.79766 12.9996 4.79766C17.4898 4.79766 21.1442 8.47663 21.1442 13.0001C21.1442 17.5221 17.4898 21.2024 12.9996 21.2024Z" fill="white"/>
</svg>
