<svg width="26" height="26" viewBox="0 0 26 26" fill="none" xmlns="http://www.w3.org/2000/svg">
<path fill-rule="evenodd" clip-rule="evenodd" d="M22.6726 18.5002L22.6787 18.5063L22.625 18.5868C22.641 18.558 22.6569 18.5291 22.6726 18.5002V18.5002H22.6726ZM22.7893 18.5002L21.3866 17.0053L17.9692 12.9131L19.6779 11.0919L17.1249 7.89955L18.8337 6.07835L20.0599 4.74999C20.663 5.26419 21.2058 5.83552 21.6882 6.46394C22.1707 7.09242 22.5828 7.77444 22.9245 8.5101C23.2663 9.2457 23.5309 10.0206 23.7186 10.8347C23.9062 11.6489 24 12.4916 24 13.3628C24 14.3055 23.8928 15.216 23.6784 16.0945C23.4703 16.9468 23.174 17.7487 22.7893 18.5L22.7893 18.5002ZM6.74427 15.3604L8.87512 18.1019L7.20654 19.8795L5.94009 21.2502L5.91999 21.2288C5.3169 20.7291 4.77415 20.1651 4.29169 19.5368C3.80923 18.9086 3.39714 18.2268 3.05539 17.4915C2.71365 16.7562 2.45567 15.9816 2.28144 15.1677C2.09382 14.3539 2 13.5114 2 12.6405C2 11.6981 2.10721 10.7913 2.32164 9.92041C2.53608 9.04943 2.83091 8.24276 3.20615 7.50025L4.61334 8.99943L8.45293 13.54L6.7442 15.3605L6.74427 15.3604ZM7.89849 8.87512L6.12088 7.20654L4.75015 5.94009L4.77157 5.91999C5.27132 5.3169 5.83531 4.77415 6.46352 4.29169C7.09178 3.80923 7.77357 3.39714 8.50886 3.05539C9.2442 2.71365 10.0188 2.45567 10.8326 2.28144C11.6465 2.09382 12.489 2 13.3599 2C14.3023 2 15.209 2.10721 16.08 2.32164C16.9509 2.53608 17.7576 2.83091 18.5001 3.20615L17.0866 4.55302L12.9101 8.0307L11.0896 6.32197L7.89835 8.87496L7.89849 8.87512ZM18.1019 17.1252L19.8795 18.7938L21.2503 20.0602L21.2288 20.0803C20.7291 20.6834 20.1651 21.2262 19.5369 21.7086C18.9086 22.1911 18.2268 22.6032 17.4916 22.9449C16.7562 23.2867 15.9817 23.5447 15.1678 23.7189C14.3539 23.9065 13.5114 24.0003 12.6405 24.0003C11.6981 24.0003 10.7914 23.8931 9.92046 23.6787C9.04952 23.4643 8.2428 23.1694 7.50029 22.7942L8.91381 21.4473L13.54 17.5474L15.3606 19.6782L18.1021 17.1252L18.1019 17.1252Z" fill="white"/>
</svg>
