<svg width="22" height="22" viewBox="0 0 22 22" fill="none" xmlns="http://www.w3.org/2000/svg">
<path d="M4.62099 13.9044L6.3287 12.1375L4.20565 9.27256L1.50251 5.44771C0.547534 7.07749 0 8.97462 0 11C0 14.3552 1.50251 17.3593 3.8722 19.3768L7.30341 16.9518C6.13632 16.2248 5.19614 15.1662 4.62099 13.9044Z" fill="white"/>
<path d="M8.09561 4.62099L9.86251 6.3287L12.7274 4.20565L16.5523 1.50251C14.9225 0.547534 13.0254 0 11 0C7.64475 0 4.64072 1.50251 2.62323 3.8722L5.04816 7.30341C5.77525 6.13632 6.83381 5.19614 8.09561 4.62099Z" fill="white"/>
<path d="M15.6713 9.86251L17.7943 12.7274L20.4975 16.5523C21.4525 14.9225 22 13.0254 22 11C22 7.64475 20.4975 4.64072 18.1278 2.62323L14.6966 5.04816C15.8637 5.77525 16.8039 6.83381 17.379 8.09561L15.6713 9.86251Z" fill="white"/>
<path d="M19.3768 18.1278L16.9518 14.6966C16.2248 15.8637 15.1662 16.8039 13.9044 17.379L12.1375 15.6713L9.27256 17.7943L5.44771 20.4975C7.07749 21.4525 8.97462 22 11 22C14.3552 22 17.3593 20.4975 19.3768 18.1278Z" fill="white"/>
</svg>
