<svg width="82" height="82" viewBox="0 0 82 82" fill="none" xmlns="http://www.w3.org/2000/svg">
<mask id="mask0" mask-type="alpha" maskUnits="userSpaceOnUse" x="0" y="0" width="82" height="82">
<circle cx="41" cy="41" r="40" fill="#00AE99" stroke="#00AE99" stroke-width="2"/>
</mask>
<g mask="url(#mask0)">
<circle cx="41" cy="41" r="40" stroke="#00AE99" stroke-width="2"/>
<ellipse cx="40.9329" cy="3.33333" rx="13.3333" ry="13.3333" stroke="#00AE99" stroke-width="2"/>
<ellipse cx="4.33333" cy="41.1331" rx="13.3333" ry="13.3333" stroke="#00AE99" stroke-width="2"/>
<path d="M30.816 58.5351C33.4107 60.0506 36.4068 61.0094 39.6192 61.2259C44.0671 61.5043 48.2371 60.329 51.7274 58.1021C53.4572 56.9886 55.0016 55.6277 56.3298 54.0503C55.2487 52.5348 54.0749 50.9574 52.8394 49.3491C52.4996 48.9161 52.1599 48.4831 51.8201 48.0501C50.5228 50.1223 48.6077 51.7925 46.3838 52.8441L42.9243 49.4728L30.816 58.5351Z" stroke="#00AE99" stroke-width="2"/>
<path d="M23.4646 31.1317C21.982 33.7298 21.0553 36.6681 20.8391 39.8538C20.5611 44.3076 21.7349 48.514 23.9588 51.9781C25.0708 53.7101 26.4299 55.2566 28.0052 56.5865C29.5187 55.504 31.094 54.3287 32.7002 53.0915C33.1327 52.7513 33.5651 52.4111 33.9975 52.0709C31.928 50.7409 30.2601 48.8233 29.2098 46.5964L32.6076 43.1323L23.4646 31.1317Z" stroke="#00AE99" stroke-width="2"/>
<path d="M51.0479 23.7396C48.4533 22.2241 45.4571 21.2653 42.2447 21.0488C37.7968 20.7395 33.596 21.9148 30.1056 24.1726C28.3759 25.2861 26.8314 26.647 25.5032 28.2244C26.5843 29.7399 27.7581 31.3173 28.9936 32.9256C29.3334 33.3586 29.6732 33.7917 30.0129 34.2247C31.3411 32.1524 33.2253 30.4822 35.4802 29.4306L38.7235 32.5545L51.0479 23.7396Z" stroke="#00AE99" stroke-width="2"/>
<path d="M58.4302 51.0502C59.882 48.4831 60.8086 45.5757 61.0248 42.4209C61.3028 37.9671 60.1291 33.7917 57.9051 30.2966C56.7931 28.5646 55.434 27.0181 53.8587 25.6882C52.3452 26.7707 50.7699 27.946 49.1637 29.1832C48.7313 29.5234 48.2988 29.8636 47.8664 30.2039C49.9668 31.5338 51.6348 33.4514 52.685 35.6783L52.7159 35.7402L49.4417 39.1424L58.4302 51.0502Z" stroke="#00AE99" stroke-width="2"/>
<path d="M64.4004 27.6001V54.2668H99.0004V27.6001H64.4004Z" stroke="#00AE99" stroke-width="2"/>
<path d="M66.5273 62.5283L52.5992 76.4564L67.3819 91.2391L81.31 77.311L66.5273 62.5283Z" stroke="#00AE99" stroke-width="2"/>
<path d="M31.0992 64.3999C31.0992 64.3999 44.3992 64.3999 44.3992 77.6999C44.3992 90.9999 31.0992 90.9999 31.0992 90.9999H-10.7008C-10.7008 90.9999 -24.8008 90.9999 -24.8008 77.6999C-24.8008 64.3999 -10.7008 64.3999 -10.7008 64.3999H31.0992Z" stroke="#00AE99" stroke-width="2"/>
</g>
</svg>
