<svg width="82" height="82" viewBox="0 0 82 82" fill="none" xmlns="http://www.w3.org/2000/svg">
<path fill-rule="evenodd" clip-rule="evenodd" d="M41 2C36.6717 2 32.508 2.7051 28.6177 4.0067C28.9673 10.5051 34.3474 15.6667 40.9329 15.6667C47.5333 15.6667 52.9227 10.4818 53.2505 3.96286C49.398 2.68927 45.2795 2 41 2ZM4.66438 26.8036C8.60322 16.7297 16.6105 8.69455 26.6657 4.71859C27.3625 11.9847 33.4842 17.6667 40.9329 17.6667C48.3991 17.6667 54.5319 11.9582 55.205 4.66773C65.2529 8.59918 73.2716 16.5785 77.2554 26.6001H63.4004V55.2668H77.308C75.805 59.0888 73.7159 62.6162 71.1515 65.7382L66.5273 61.1141L51.185 76.4564L52.8847 78.1561C50.4486 78.9346 47.9084 79.4802 45.2903 79.7667C45.3618 79.1113 45.3992 78.4228 45.3992 77.6999C45.3992 74.1999 44.5214 71.5084 43.1532 69.4561C41.7891 67.4101 39.9776 66.0585 38.1964 65.168C36.4192 64.2794 34.6541 63.84 33.3417 63.6213C32.6832 63.5116 32.1322 63.4563 31.742 63.4284C31.5467 63.4145 31.3911 63.4073 31.2819 63.4037C31.2273 63.4019 31.1842 63.4009 31.1535 63.4004L31.1168 63.4L31.1056 63.3999L31.1018 63.3999L31.1004 63.3999C31.1004 63.3999 31.0992 63.3999 31.0992 64.3999V63.3999H9.07036C7.34572 60.9461 5.89678 58.2844 4.76853 55.46C12.483 55.2296 18.666 48.9034 18.666 41.1331C18.666 33.3279 12.4273 26.9798 4.66438 26.8036ZM10.5738 65.3999C17.7216 74.3016 28.6953 80 41 80C41.7569 80 42.5088 79.9784 43.255 79.9359C43.3488 79.2428 43.3992 78.4988 43.3992 77.6999C43.3992 74.5499 42.6146 72.2539 41.4891 70.5655C40.3593 68.871 38.8459 67.7288 37.302 66.9568C35.7542 66.1829 34.1943 65.791 33.013 65.5941C32.4246 65.4961 31.9365 65.4474 31.5995 65.4233C31.4311 65.4113 31.3009 65.4054 31.2153 65.4026C31.1725 65.4012 31.1409 65.4005 31.1213 65.4002L31.1009 65.3999L31.0992 65.3999H10.5738ZM66.5273 63.9425L69.8395 67.2546C65.7812 71.7099 60.7045 75.2211 54.9775 77.4205L54.0135 76.4564L66.5273 63.9425ZM78.0318 53.2668C79.3088 49.4096 80 45.2855 80 41C80 36.6652 79.2928 32.4955 77.9874 28.6001H65.4004V53.2668H78.0318ZM3.9443 28.8058C2.68258 32.6422 2 36.7414 2 41C2 45.3582 2.71488 49.5495 4.03377 53.4629C4.13312 53.4653 4.23277 53.4665 4.3327 53.4665C11.1442 53.4665 16.666 47.9446 16.666 41.1331C16.666 34.3216 11.1442 28.7998 4.3327 28.7998C4.20275 28.7998 4.07327 28.8018 3.9443 28.8058ZM0 41C0 18.3563 18.3563 0 41 0C63.6437 0 82 18.3563 82 41C82 63.6437 63.6437 82 41 82C18.3563 82 0 63.6437 0 41ZM29.5633 23.3325C33.2291 20.9614 37.6432 19.7266 42.313 20.0511C45.6819 20.2783 48.8269 21.2843 51.5523 22.8762L52.8854 23.6548L51.6296 24.553L39.3052 33.3679L38.6287 33.8517L38.0297 33.2747L35.2957 30.6414C33.4837 31.6155 31.9614 33.0379 30.8549 34.7643L30.0952 35.9495L29.2262 34.842L28.7166 34.1925L28.2069 33.543L28.2006 33.5349L28.2006 33.5348C26.9592 31.9189 25.7783 30.3319 24.6892 28.8051L24.2387 28.1736L24.7383 27.5803C26.1301 25.9274 27.7494 24.5002 29.5633 23.3325ZM42.1754 22.0464C37.9501 21.7526 33.9633 22.8682 30.6488 25.0123L30.6469 25.0135C29.2184 25.933 27.9226 27.03 26.7784 28.286C27.7209 29.591 28.729 30.9396 29.7836 32.3124L29.9748 32.5561C31.3214 30.8474 33.0528 29.4593 35.0575 28.5243L35.6796 28.2342L36.1739 28.7104L38.8182 31.2573L49.1518 23.8663C47.0296 22.8537 44.6732 22.2147 42.1775 22.0465L42.1754 22.0464ZM53.9096 24.4224L54.5038 24.9241C56.1549 26.318 57.5804 27.9398 58.7466 29.7564L58.7488 29.7598C61.0822 33.4268 62.3145 37.8109 62.0229 42.4832L62.0225 42.4893C61.7956 45.7994 60.8228 48.8509 59.3007 51.5425L58.5504 52.8692L57.6321 51.6527L48.6436 39.7449L48.1295 39.0638L48.7212 38.449L51.5048 35.5565C50.5289 33.7315 49.0935 32.1645 47.3314 31.0487L46.1368 30.2923L47.2481 29.4179L47.8967 28.9076L48.5454 28.3973L48.5535 28.3909L48.5535 28.391C50.1673 27.1479 51.7522 25.9654 53.277 24.8748L53.9096 24.4224ZM49.778 29.9723L49.5376 30.1615C51.266 31.5175 52.6515 33.267 53.5846 35.2415L53.6105 35.2935L53.9259 35.925L53.4364 36.4336L50.7539 39.221L58.27 49.1782C59.2417 47.0918 59.8588 44.8025 60.0269 42.356C60.2906 38.1222 59.1758 34.1569 57.0623 30.8349C56.1446 29.4058 55.05 28.1095 53.797 26.9647C52.4943 27.908 51.1483 28.9169 49.778 29.9723ZM23.3447 29.3243L24.2601 30.5257L33.403 42.5263L33.9275 43.2147L33.3215 43.8325L30.4258 46.7847C31.4012 48.5824 32.8218 50.1266 34.5382 51.2296L35.7193 51.9886L34.6159 52.8568L33.3186 53.8775L33.3105 53.8838L33.3104 53.8838C31.6966 55.1268 30.1117 56.3093 28.587 57.3999L27.9544 57.8524L27.3601 57.3506C25.709 55.9567 24.2836 54.3349 23.1173 52.5183C20.7806 48.8786 19.5496 44.4617 19.8411 39.7915L19.8414 39.7861C20.0681 36.4464 21.0404 33.3622 22.5961 30.6361L23.3447 29.3243ZM23.6244 32.9916C22.6287 35.1093 22.006 37.4336 21.837 39.9188C21.5732 44.1552 22.6896 48.1501 24.8003 51.4378C25.7183 52.8677 26.8133 54.1647 28.0669 55.3101C29.3696 54.3668 30.7157 53.3578 32.0859 52.3025L32.3331 52.108C30.6229 50.7509 29.2377 48.9999 28.3054 47.0229L28.0084 46.3932L28.4959 45.8961L31.2876 43.0499L23.6244 32.9916ZM51.728 46.3127L52.6068 47.4327L53.1165 48.0823L53.6261 48.7318L53.6325 48.7399L53.6324 48.7399C54.8738 50.3558 56.0548 51.9428 57.1439 53.4696L57.5944 54.1011L57.0947 54.6944C55.7027 56.3477 54.083 57.775 52.2687 58.9429L52.2653 58.9451C48.6029 61.2818 44.2238 62.5161 39.5568 62.224L39.552 62.2237C36.1827 61.9966 33.0373 60.9906 30.3117 59.3986L29.0096 58.638L30.2168 57.7345L42.3251 48.6722L43.0097 48.1598L43.6222 48.7566L46.5694 51.6287C48.3644 50.6522 49.9007 49.2315 50.9725 47.5194L51.728 46.3127ZM51.8639 49.7258C50.5254 51.4355 48.7789 52.8177 46.8112 53.7481L46.1833 54.045L45.6858 53.5603L42.8388 50.7858L32.6768 58.3915C34.8075 59.4136 37.1756 60.0587 39.6844 60.2281C43.9117 60.492 47.871 59.376 51.1883 57.2599C52.6159 56.3406 53.911 55.2441 55.0546 53.9888C54.1122 52.6837 53.1041 51.3352 52.0495 49.9624L51.8639 49.7258Z" fill="#00AE99"/>
</svg>
