<svg width="93" height="80" viewBox="0 0 93 80" fill="none" xmlns="http://www.w3.org/2000/svg">
<path d="M29.8616 26.8478L0.245778 77.3945C-0.449022 78.5236 0.419478 80 1.72223 80H19.787C20.7424 80 21.6109 79.4789 22.0451 78.6973L41.8469 44.8258C42.2812 44.0441 42.2812 43.0019 41.8469 42.2203L32.8145 26.8478C32.1197 25.7188 30.4696 25.7188 29.8616 26.8478Z" fill="black"/>
<path d="M77.5423 51.4264L47.4922 0.879658C46.8842 -0.336242 45.1472 -0.249392 44.5393 0.879658L35.8543 16.6864C35.42 17.468 35.42 18.5102 35.9411 19.2919L55.3087 52.7291C55.8298 53.5108 56.6983 54.0319 57.6536 54.0319H76.2395C77.4554 53.945 78.2371 52.5554 77.5423 51.4264Z" fill="black"/>
<path d="M31.6855 80H90.7435C92.0462 80 92.9147 78.5236 92.2199 77.3077L83.0138 61.7615C82.4927 60.9799 81.6242 60.1982 80.7557 60.1982H41.7601C40.8047 60.1982 39.9362 60.7193 39.502 61.5878L30.209 77.3945C29.5142 78.5236 30.3827 80 31.6855 80Z" fill="black"/>
</svg>
