<svg width="80" height="80" viewBox="0 0 80 80" fill="none" xmlns="http://www.w3.org/2000/svg">
<path fill-rule="evenodd" clip-rule="evenodd" d="M6.65338 21.9028C3.87744 27.0071 2.23927 32.8196 2.07933 39H8.08177C8.10701 38.1793 8.16323 37.3664 8.24928 36.5624L8.15912 36.5256L8.25689 36.492C8.71079 32.338 9.96135 28.4236 11.8525 24.9046L6.65338 21.9028ZM7.65496 20.1717L12.8541 23.1734C15.4521 18.9911 18.9897 15.4533 23.1719 12.8551L20.1702 7.65597C15.079 10.784 10.7828 15.0804 7.65496 20.1717ZM39 8.082C33.9116 8.23848 29.1229 9.58535 24.903 11.8535L21.9013 6.65432C27.0059 3.87793 32.819 2.23948 39 2.07957V8.082ZM20.1704 72.3441C15.0792 69.2162 10.783 64.9199 7.65521 59.8287L12.8544 56.8269C15.4524 61.0092 18.9899 64.5468 23.1721 67.1449L20.1704 72.3441ZM11.8528 55.0958L6.6536 58.0975C3.87754 52.9932 2.23928 47.1805 2.07933 41H8.08177C8.23828 46.0879 9.58496 50.8762 11.8528 55.0958ZM21.9015 73.3457C27.006 76.1221 32.8191 77.7605 39 77.9204V71.918C33.9117 71.7615 29.1231 70.4147 24.9032 68.1466L21.9015 73.3457ZM56.8262 12.8543C61.0088 15.4524 64.5468 18.9903 67.145 23.1728L72.3442 20.1711C69.2161 15.0796 64.9195 10.7831 59.8279 7.65515L56.8262 12.8543ZM71.9177 39C71.7612 33.912 70.4145 29.1236 68.1466 24.904L73.3458 21.9022C76.1219 27.0066 77.7602 32.8193 77.9202 39H71.9177ZM55.0951 11.8527L58.0968 6.65357C52.9927 3.87771 47.1803 2.23956 41 2.07958V8.08202C46.0876 8.23856 50.8756 9.58513 55.0951 11.8527ZM68.1464 55.0964C70.4144 50.8767 71.7612 46.0882 71.9177 41H77.9202C77.7602 47.1808 76.1218 52.9937 73.3455 58.0982L68.1464 55.0964ZM67.1447 56.8275C64.5465 61.0099 61.0086 64.5477 56.826 67.1458L59.8278 72.3449C64.9193 69.217 69.2159 64.9207 72.3439 59.8293L67.1447 56.8275ZM43.0801 71.7867C47.393 71.3739 51.4554 70.1032 55.0949 68.1473L58.0966 73.3465C52.9926 76.1223 47.1802 77.7604 41 77.9204V71.918C41.6784 71.8971 42.3514 71.855 43.0185 71.7925L43.0498 71.8726L43.0801 71.7867ZM39.9997 0.0666504C17.9452 0.0666504 0.0664063 17.9454 0.0664063 40C0.0664063 62.0546 17.9452 79.9333 39.9997 79.9333C62.0543 79.9333 79.9331 62.0546 79.9331 40C79.9331 17.9454 62.0543 0.0666504 39.9997 0.0666504ZM10.0664 40C10.0664 39.1075 10.1055 38.2241 10.182 37.3514L33.2282 46.7599L42.2586 69.8494C41.5129 69.905 40.7596 69.9333 39.9997 69.9333C23.468 69.9333 10.0664 56.5317 10.0664 40ZM60.7647 18.4402L10.3633 35.7678C12.4193 21.2403 24.9046 10.0667 39.9997 10.0667C48.0634 10.0667 55.3824 13.2552 60.7647 18.4402ZM44.3787 68.0948L61.5636 19.2393C66.7462 24.6211 69.9331 31.9384 69.9331 40C69.9331 55.2386 58.546 67.8176 43.8168 69.6922L43.8605 69.568L44.2773 69.5961L44.3787 68.0948ZM44.8824 60.6355L57.9616 23.4521L46.6278 34.7859L44.8824 60.6355ZM42.5723 65.1605L44.4781 36.9357L35.1728 46.241L42.5723 65.1605ZM43.0498 35.5356L33.7661 44.8193L15.8748 37.5152L43.0498 35.5356ZM45.2126 33.3727L17.6389 35.3814L56.5977 21.9877L45.2126 33.3727Z" fill="#00AE99"/>
</svg>
