<svg width="82" height="82" viewBox="0 0 82 82" fill="none" xmlns="http://www.w3.org/2000/svg">
<path fill-rule="evenodd" clip-rule="evenodd" d="M10.7601 17.92C17.5224 9.07308 28.0789 3.28082 40 2.9729V17.92H33.2849L33.1961 17.8321L33.1074 17.92H10.7601ZM10.9609 19.92H31.0895L10.9609 39.8695V19.92ZM10.9609 62.08V42.1305L31.0895 62.08H10.9609ZM33.1961 64.1679L33.1074 64.08H18.6406V70.4H47.6797V64.08H33.2849L33.1961 64.1679ZM40 57.4246L35.3028 62.08H40V57.4246ZM42 52.9416L54.0487 41L42 29.0584V52.9416ZM42 24.258V19.92H46.3769L42 24.258ZM48.3948 17.92H42V2.97286C53.9218 3.28022 64.4791 9.07261 71.2418 17.92H48.5723L48.4836 17.8321L48.3948 17.92ZM50.5902 19.92L71.3609 40.506V19.92H50.5902ZM71.3609 41.494L50.5902 62.08H71.3609V41.494ZM46.3769 62.08H42V57.7421L46.3769 62.08ZM40 19.92V24.5754L35.3028 19.92H40ZM27.6309 41L40 28.7409V53.2591L27.6309 41ZM2.96094 41C2.96094 33.4452 5.16327 26.4048 8.96094 20.4857V61.5143C5.16327 55.5952 2.96094 48.5548 2.96094 41ZM16.6406 70.2179C14.4601 68.398 12.4865 66.3385 10.7601 64.08H16.6406V70.2179ZM19.5217 72.4C25.3773 76.4132 32.4122 78.8311 40 79.0271V72.4H19.5217ZM62.4802 72.4C56.6241 76.4136 49.5885 78.8315 42 79.0271V72.4H62.4802ZM65.1415 70.4C67.4093 68.5357 69.4576 66.4142 71.2417 64.08H49.6797V70.4H65.1415ZM79.0409 41C79.0409 48.34 76.962 55.1945 73.3609 61.0068V28.24H76.848C78.2679 32.2286 79.0409 36.524 79.0409 41ZM76.0714 26.24C75.3019 24.414 74.3941 22.6607 73.3609 20.9932V26.24H76.0714ZM0.960938 41C0.960938 18.8865 18.8875 0.959991 41.0009 0.959991C63.1144 0.959991 81.0409 18.8865 81.0409 41C81.0409 63.1135 63.1144 81.04 41.0009 81.04C18.8875 81.04 0.960938 63.1135 0.960938 41ZM12.6615 41L33.1961 61.3521L39.2603 55.3418L24.7898 41L39.2603 26.6582L33.1961 20.6479L12.6615 41ZM48.4836 61.3521L69.0182 41L48.4836 20.6479L42.4194 26.6582L56.8899 41L42.4194 55.3418L48.4836 61.3521Z" fill="#00AE99"/>
</svg>
