<svg width="400" height="80" viewBox="0 0 400 80" fill="none" xmlns="http://www.w3.org/2000/svg">
<path d="M0 28H400V80H0V28Z" fill="black"/>
<path d="M0 0H400V28H0V0Z" fill="#0C2320"/>
<ellipse cx="13.4127" cy="15" rx="4.80333" ry="5" fill="#111A19"/>
<ellipse cx="26.858" cy="15" rx="4.80333" ry="5" fill="#111A19"/>
<ellipse cx="40.3072" cy="15" rx="4.80333" ry="5" fill="#111A19"/>
<path d="M136.061 18.1152H140.098V19H134.678V18.2031L138.463 13.5566H134.73V12.6602H139.887V13.4277L136.061 18.1152ZM146.121 12.543C146.223 12.543 146.328 12.5469 146.438 12.5547C146.547 12.5586 146.65 12.5684 146.748 12.584C146.85 12.5957 146.941 12.6113 147.023 12.6309C147.109 12.6504 147.18 12.6719 147.234 12.6953L147.088 13.7559C146.877 13.709 146.676 13.6758 146.484 13.6562C146.297 13.6328 146.1 13.6211 145.893 13.6211C145.385 13.6211 144.973 13.7363 144.656 13.9668C144.344 14.1973 144.113 14.5195 143.965 14.9336V19H142.875V12.6602H143.906L143.959 13.668C144.217 13.3203 144.525 13.0469 144.885 12.8477C145.248 12.6445 145.66 12.543 146.121 12.543ZM151.793 15.0098L153.486 12.6602H154.758L152.396 15.7949L154.822 19H153.568L151.816 16.5859L150.064 19H148.799L151.225 15.7949L148.863 12.6602H150.117L151.793 15.0098ZM162.152 14.377C162.141 14.6895 162.104 15.0098 162.041 15.3379C161.979 15.6621 161.883 15.957 161.754 16.2227C161.629 16.4883 161.467 16.7051 161.268 16.873C161.068 17.041 160.824 17.125 160.535 17.125C160.297 17.125 160.098 17.0625 159.938 16.9375C159.781 16.8125 159.67 16.6387 159.604 16.416C159.467 16.6348 159.297 16.8086 159.094 16.9375C158.895 17.0625 158.674 17.125 158.432 17.125C158.24 17.125 158.074 17.0742 157.934 16.9727C157.793 16.8711 157.678 16.7285 157.588 16.5449C157.502 16.3613 157.441 16.1426 157.406 15.8887C157.375 15.6348 157.371 15.3555 157.395 15.0508C157.43 14.6172 157.502 14.2266 157.611 13.8789C157.721 13.5273 157.861 13.2305 158.033 12.9883C158.209 12.7422 158.412 12.5547 158.643 12.4258C158.873 12.293 159.127 12.2266 159.404 12.2266C159.666 12.2266 159.883 12.2793 160.055 12.3848C160.227 12.4863 160.363 12.6074 160.465 12.748L160.207 15.7012C160.195 15.8613 160.199 15.9922 160.219 16.0938C160.238 16.1914 160.266 16.2695 160.301 16.3281C160.34 16.3828 160.387 16.4199 160.441 16.4395C160.496 16.459 160.555 16.4688 160.617 16.4688C160.762 16.4688 160.889 16.4141 160.998 16.3047C161.111 16.1914 161.205 16.041 161.279 15.8535C161.354 15.6621 161.41 15.4395 161.449 15.1855C161.488 14.9316 161.51 14.6621 161.514 14.377C161.529 13.8809 161.488 13.4355 161.391 13.041C161.293 12.6465 161.143 12.3125 160.939 12.0391C160.74 11.7656 160.494 11.5566 160.201 11.4121C159.908 11.2676 159.574 11.1953 159.199 11.1953C158.805 11.1953 158.443 11.2891 158.115 11.4766C157.791 11.6602 157.51 11.918 157.271 12.25C157.033 12.582 156.846 12.9785 156.709 13.4395C156.572 13.9004 156.496 14.4043 156.48 14.9512C156.461 15.4824 156.498 15.9551 156.592 16.3691C156.686 16.7832 156.836 17.1348 157.043 17.4238C157.25 17.709 157.514 17.9277 157.834 18.0801C158.158 18.2285 158.539 18.3027 158.977 18.3027C159.094 18.3027 159.213 18.2949 159.334 18.2793C159.455 18.2598 159.574 18.2344 159.691 18.2031C159.809 18.168 159.92 18.127 160.025 18.0801C160.131 18.0332 160.227 17.9805 160.312 17.9219L160.5 18.6074C160.402 18.6816 160.291 18.7461 160.166 18.8008C160.041 18.8555 159.91 18.9023 159.773 18.9414C159.637 18.9766 159.498 19.002 159.357 19.0176C159.217 19.0371 159.084 19.0469 158.959 19.0469C158.385 19.0469 157.891 18.9473 157.477 18.748C157.066 18.5449 156.73 18.2617 156.469 17.8984C156.211 17.5352 156.023 17.1035 155.906 16.6035C155.793 16.0996 155.746 15.5488 155.766 14.9512C155.781 14.5488 155.83 14.1582 155.912 13.7793C155.994 13.3965 156.105 13.0391 156.246 12.707C156.391 12.375 156.562 12.0723 156.762 11.7988C156.965 11.5215 157.191 11.2832 157.441 11.084C157.691 10.8848 157.965 10.7305 158.262 10.6211C158.562 10.5117 158.881 10.457 159.217 10.457C159.693 10.457 160.117 10.5508 160.488 10.7383C160.859 10.9219 161.17 11.1855 161.42 11.5293C161.674 11.873 161.863 12.2871 161.988 12.7715C162.113 13.252 162.168 13.7871 162.152 14.377ZM158.115 15.0508C158.096 15.4492 158.129 15.7598 158.215 15.9824C158.301 16.2051 158.438 16.3164 158.625 16.3164C158.816 16.3164 158.99 16.2637 159.146 16.1582C159.303 16.0527 159.439 15.877 159.557 15.6309L159.785 13.0234C159.676 12.9727 159.562 12.9473 159.445 12.9473C159.238 12.9473 159.057 12.998 158.9 13.0996C158.748 13.1973 158.619 13.3379 158.514 13.5215C158.408 13.7012 158.322 13.9219 158.256 14.1836C158.193 14.4414 158.146 14.7305 158.115 15.0508ZM167.754 19C167.711 18.918 167.676 18.8164 167.648 18.6953C167.625 18.5703 167.607 18.4414 167.596 18.3086C167.486 18.418 167.363 18.5215 167.227 18.6191C167.094 18.7168 166.945 18.8027 166.781 18.877C166.621 18.9512 166.449 19.0098 166.266 19.0527C166.082 19.0957 165.887 19.1172 165.68 19.1172C165.344 19.1172 165.039 19.0684 164.766 18.9707C164.496 18.873 164.266 18.7422 164.074 18.5781C163.887 18.4102 163.74 18.2129 163.635 17.9863C163.533 17.7559 163.482 17.5078 163.482 17.2422C163.482 16.8945 163.551 16.5898 163.688 16.3281C163.828 16.0664 164.025 15.8496 164.279 15.6777C164.533 15.502 164.838 15.3711 165.193 15.2852C165.553 15.1992 165.953 15.1562 166.395 15.1562H167.578V14.6582C167.578 14.4668 167.543 14.2949 167.473 14.1426C167.402 13.9902 167.303 13.8613 167.174 13.7559C167.045 13.6465 166.887 13.5625 166.699 13.5039C166.516 13.4453 166.309 13.416 166.078 13.416C165.863 13.416 165.67 13.4434 165.498 13.498C165.33 13.5527 165.188 13.625 165.07 13.7148C164.953 13.8047 164.861 13.9121 164.795 14.0371C164.732 14.1582 164.701 14.2852 164.701 14.418H163.611C163.615 14.1875 163.674 13.9609 163.787 13.7383C163.904 13.5156 164.07 13.3164 164.285 13.1406C164.504 12.9609 164.768 12.8164 165.076 12.707C165.389 12.5977 165.742 12.543 166.137 12.543C166.496 12.543 166.83 12.5879 167.139 12.6777C167.447 12.7637 167.713 12.8965 167.936 13.0762C168.162 13.252 168.34 13.4727 168.469 13.7383C168.598 14.0039 168.662 14.3145 168.662 14.6699V17.6172C168.662 17.8281 168.682 18.0527 168.721 18.291C168.76 18.5254 168.814 18.7305 168.885 18.9062V19H167.754ZM165.838 18.1738C166.049 18.1738 166.246 18.1465 166.43 18.0918C166.613 18.0371 166.779 17.9648 166.928 17.875C167.08 17.7852 167.211 17.6836 167.32 17.5703C167.43 17.4531 167.516 17.332 167.578 17.207V15.9238H166.57C165.938 15.9238 165.445 16.0176 165.094 16.2051C164.742 16.3926 164.566 16.6875 164.566 17.0898C164.566 17.2461 164.592 17.3906 164.643 17.5234C164.697 17.6562 164.777 17.7715 164.883 17.8691C164.988 17.9629 165.121 18.0371 165.281 18.0918C165.441 18.1465 165.627 18.1738 165.838 18.1738ZM175.008 17.3184C175.008 17.1895 174.982 17.0742 174.932 16.9727C174.881 16.8672 174.795 16.7715 174.674 16.6855C174.553 16.5996 174.393 16.5215 174.193 16.4512C173.994 16.377 173.746 16.3105 173.449 16.252C173.086 16.1777 172.754 16.0879 172.453 15.9824C172.156 15.877 171.9 15.752 171.686 15.6074C171.475 15.459 171.311 15.2871 171.193 15.0918C171.076 14.8926 171.018 14.6621 171.018 14.4004C171.018 14.1426 171.078 13.9023 171.199 13.6797C171.32 13.4531 171.49 13.2559 171.709 13.0879C171.928 12.9199 172.188 12.7871 172.488 12.6895C172.793 12.5918 173.127 12.543 173.49 12.543C173.881 12.543 174.232 12.5938 174.545 12.6953C174.857 12.7969 175.123 12.9375 175.342 13.1172C175.561 13.2969 175.729 13.5078 175.846 13.75C175.967 13.9883 176.027 14.2461 176.027 14.5234H174.943C174.943 14.3867 174.908 14.2539 174.838 14.125C174.768 13.9922 174.67 13.875 174.545 13.7734C174.42 13.6719 174.268 13.5898 174.088 13.5273C173.912 13.4648 173.713 13.4336 173.49 13.4336C173.26 13.4336 173.057 13.459 172.881 13.5098C172.709 13.5605 172.564 13.6289 172.447 13.7148C172.334 13.8008 172.248 13.9004 172.189 14.0137C172.131 14.127 172.102 14.2441 172.102 14.3652C172.102 14.4902 172.125 14.6016 172.172 14.6992C172.219 14.7969 172.299 14.8848 172.412 14.9629C172.529 15.041 172.684 15.1113 172.875 15.1738C173.07 15.2363 173.316 15.2969 173.613 15.3555C174.004 15.4375 174.354 15.5332 174.662 15.6426C174.971 15.748 175.23 15.877 175.441 16.0293C175.652 16.1777 175.812 16.3516 175.922 16.5508C176.035 16.75 176.092 16.9805 176.092 17.2422C176.092 17.5234 176.027 17.7793 175.898 18.0098C175.773 18.2402 175.598 18.4375 175.371 18.6016C175.145 18.7656 174.873 18.8926 174.557 18.9824C174.24 19.0723 173.895 19.1172 173.52 19.1172C173.09 19.1172 172.707 19.0605 172.371 18.9473C172.035 18.8301 171.75 18.6777 171.516 18.4902C171.285 18.2988 171.107 18.0781 170.982 17.8281C170.861 17.5781 170.801 17.3184 170.801 17.0488H171.885C171.9 17.2715 171.959 17.459 172.061 17.6113C172.166 17.7637 172.295 17.8867 172.447 17.9805C172.604 18.0742 172.775 18.1406 172.963 18.1797C173.15 18.2188 173.336 18.2383 173.52 18.2383C173.977 18.2383 174.338 18.1543 174.604 17.9863C174.869 17.8184 175.004 17.5957 175.008 17.3184ZM182.215 17.3184C182.215 17.1895 182.189 17.0742 182.139 16.9727C182.088 16.8672 182.002 16.7715 181.881 16.6855C181.76 16.5996 181.6 16.5215 181.4 16.4512C181.201 16.377 180.953 16.3105 180.656 16.252C180.293 16.1777 179.961 16.0879 179.66 15.9824C179.363 15.877 179.107 15.752 178.893 15.6074C178.682 15.459 178.518 15.2871 178.4 15.0918C178.283 14.8926 178.225 14.6621 178.225 14.4004C178.225 14.1426 178.285 13.9023 178.406 13.6797C178.527 13.4531 178.697 13.2559 178.916 13.0879C179.135 12.9199 179.395 12.7871 179.695 12.6895C180 12.5918 180.334 12.543 180.697 12.543C181.088 12.543 181.439 12.5938 181.752 12.6953C182.064 12.7969 182.33 12.9375 182.549 13.1172C182.768 13.2969 182.936 13.5078 183.053 13.75C183.174 13.9883 183.234 14.2461 183.234 14.5234H182.15C182.15 14.3867 182.115 14.2539 182.045 14.125C181.975 13.9922 181.877 13.875 181.752 13.7734C181.627 13.6719 181.475 13.5898 181.295 13.5273C181.119 13.4648 180.92 13.4336 180.697 13.4336C180.467 13.4336 180.264 13.459 180.088 13.5098C179.916 13.5605 179.771 13.6289 179.654 13.7148C179.541 13.8008 179.455 13.9004 179.396 14.0137C179.338 14.127 179.309 14.2441 179.309 14.3652C179.309 14.4902 179.332 14.6016 179.379 14.6992C179.426 14.7969 179.506 14.8848 179.619 14.9629C179.736 15.041 179.891 15.1113 180.082 15.1738C180.277 15.2363 180.523 15.2969 180.82 15.3555C181.211 15.4375 181.561 15.5332 181.869 15.6426C182.178 15.748 182.438 15.877 182.648 16.0293C182.859 16.1777 183.02 16.3516 183.129 16.5508C183.242 16.75 183.299 16.9805 183.299 17.2422C183.299 17.5234 183.234 17.7793 183.105 18.0098C182.98 18.2402 182.805 18.4375 182.578 18.6016C182.352 18.7656 182.08 18.8926 181.764 18.9824C181.447 19.0723 181.102 19.1172 180.727 19.1172C180.297 19.1172 179.914 19.0605 179.578 18.9473C179.242 18.8301 178.957 18.6777 178.723 18.4902C178.492 18.2988 178.314 18.0781 178.189 17.8281C178.068 17.5781 178.008 17.3184 178.008 17.0488H179.092C179.107 17.2715 179.166 17.459 179.268 17.6113C179.373 17.7637 179.502 17.8867 179.654 17.9805C179.811 18.0742 179.982 18.1406 180.17 18.1797C180.357 18.2188 180.543 18.2383 180.727 18.2383C181.184 18.2383 181.545 18.1543 181.811 17.9863C182.076 17.8184 182.211 17.5957 182.215 17.3184ZM188.01 19.1172C187.564 19.1172 187.154 19.041 186.779 18.8887C186.408 18.7363 186.09 18.5234 185.824 18.25C185.559 17.9766 185.352 17.6523 185.203 17.2773C185.055 16.9023 184.98 16.4941 184.98 16.0527V15.8066C184.98 15.2949 185.062 14.8379 185.227 14.4355C185.391 14.0293 185.607 13.6875 185.877 13.4102C186.15 13.1289 186.459 12.9141 186.803 12.7656C187.15 12.6172 187.506 12.543 187.869 12.543C188.326 12.543 188.725 12.623 189.064 12.7832C189.408 12.9395 189.693 13.1582 189.92 13.4395C190.146 13.7168 190.314 14.0449 190.424 14.4238C190.537 14.8027 190.594 15.2129 190.594 15.6543V16.1406H186.064C186.076 16.4297 186.131 16.7012 186.229 16.9551C186.33 17.209 186.467 17.4316 186.639 17.623C186.814 17.8105 187.023 17.959 187.266 18.0684C187.508 18.1777 187.775 18.2324 188.068 18.2324C188.455 18.2324 188.799 18.1543 189.1 17.998C189.4 17.8418 189.65 17.6348 189.85 17.377L190.512 17.8926C190.406 18.0527 190.273 18.207 190.113 18.3555C189.957 18.5 189.775 18.6289 189.568 18.7422C189.361 18.8555 189.127 18.9453 188.865 19.0117C188.604 19.082 188.318 19.1172 188.01 19.1172ZM187.869 13.4336C187.65 13.4336 187.443 13.4746 187.248 13.5566C187.053 13.6348 186.877 13.752 186.721 13.9082C186.564 14.0605 186.432 14.25 186.322 14.4766C186.217 14.6992 186.143 14.957 186.1 15.25H189.51V15.168C189.498 14.957 189.457 14.748 189.387 14.541C189.32 14.334 189.221 14.1484 189.088 13.9844C188.955 13.8203 188.787 13.6875 188.584 13.5859C188.385 13.4844 188.146 13.4336 187.869 13.4336ZM194.982 11.125V12.6602H197.396V13.498H194.982V16.9434C194.982 17.1895 195.014 17.3926 195.076 17.5527C195.139 17.7129 195.225 17.8418 195.334 17.9395C195.443 18.0332 195.568 18.0996 195.709 18.1387C195.854 18.1777 196.006 18.1973 196.166 18.1973C196.283 18.1973 196.404 18.1914 196.529 18.1797C196.654 18.1641 196.775 18.1465 196.893 18.127C197.014 18.1074 197.125 18.0879 197.227 18.0684C197.332 18.0449 197.418 18.0254 197.484 18.0098L197.637 18.7773C197.547 18.832 197.438 18.8809 197.309 18.9238C197.18 18.9629 197.039 18.9961 196.887 19.0234C196.734 19.0547 196.572 19.0781 196.4 19.0938C196.232 19.1094 196.064 19.1172 195.896 19.1172C195.615 19.1172 195.352 19.0781 195.105 19C194.863 18.918 194.652 18.791 194.473 18.6191C194.293 18.4434 194.15 18.2188 194.045 17.9453C193.943 17.668 193.893 17.334 193.893 16.9434V13.498H192.229V12.6602H193.893V11.125H194.982ZM204.363 15.7129H199.881V14.8223H204.363V15.7129ZM211.043 17.3184C211.043 17.1895 211.018 17.0742 210.967 16.9727C210.916 16.8672 210.83 16.7715 210.709 16.6855C210.588 16.5996 210.428 16.5215 210.229 16.4512C210.029 16.377 209.781 16.3105 209.484 16.252C209.121 16.1777 208.789 16.0879 208.488 15.9824C208.191 15.877 207.936 15.752 207.721 15.6074C207.51 15.459 207.346 15.2871 207.229 15.0918C207.111 14.8926 207.053 14.6621 207.053 14.4004C207.053 14.1426 207.113 13.9023 207.234 13.6797C207.355 13.4531 207.525 13.2559 207.744 13.0879C207.963 12.9199 208.223 12.7871 208.523 12.6895C208.828 12.5918 209.162 12.543 209.525 12.543C209.916 12.543 210.268 12.5938 210.58 12.6953C210.893 12.7969 211.158 12.9375 211.377 13.1172C211.596 13.2969 211.764 13.5078 211.881 13.75C212.002 13.9883 212.062 14.2461 212.062 14.5234H210.979C210.979 14.3867 210.943 14.2539 210.873 14.125C210.803 13.9922 210.705 13.875 210.58 13.7734C210.455 13.6719 210.303 13.5898 210.123 13.5273C209.947 13.4648 209.748 13.4336 209.525 13.4336C209.295 13.4336 209.092 13.459 208.916 13.5098C208.744 13.5605 208.6 13.6289 208.482 13.7148C208.369 13.8008 208.283 13.9004 208.225 14.0137C208.166 14.127 208.137 14.2441 208.137 14.3652C208.137 14.4902 208.16 14.6016 208.207 14.6992C208.254 14.7969 208.334 14.8848 208.447 14.9629C208.564 15.041 208.719 15.1113 208.91 15.1738C209.105 15.2363 209.352 15.2969 209.648 15.3555C210.039 15.4375 210.389 15.5332 210.697 15.6426C211.006 15.748 211.266 15.877 211.477 16.0293C211.688 16.1777 211.848 16.3516 211.957 16.5508C212.07 16.75 212.127 16.9805 212.127 17.2422C212.127 17.5234 212.062 17.7793 211.934 18.0098C211.809 18.2402 211.633 18.4375 211.406 18.6016C211.18 18.7656 210.908 18.8926 210.592 18.9824C210.275 19.0723 209.93 19.1172 209.555 19.1172C209.125 19.1172 208.742 19.0605 208.406 18.9473C208.07 18.8301 207.785 18.6777 207.551 18.4902C207.32 18.2988 207.143 18.0781 207.018 17.8281C206.896 17.5781 206.836 17.3184 206.836 17.0488H207.92C207.936 17.2715 207.994 17.459 208.096 17.6113C208.201 17.7637 208.33 17.8867 208.482 17.9805C208.639 18.0742 208.811 18.1406 208.998 18.1797C209.186 18.2188 209.371 18.2383 209.555 18.2383C210.012 18.2383 210.373 18.1543 210.639 17.9863C210.904 17.8184 211.039 17.5957 211.043 17.3184ZM214.998 16.7031L215.127 17.6113L215.285 16.7031L216.299 12.6602H216.996L218.004 16.7031L218.174 17.6992L218.332 16.7031L219.035 12.6602H219.996L218.648 19H217.793L216.803 15.1152L216.639 14.1309L216.48 15.1152L215.502 19H214.646L213.299 12.6602H214.26L214.998 16.7031ZM225.41 19C225.367 18.918 225.332 18.8164 225.305 18.6953C225.281 18.5703 225.264 18.4414 225.252 18.3086C225.143 18.418 225.02 18.5215 224.883 18.6191C224.75 18.7168 224.602 18.8027 224.438 18.877C224.277 18.9512 224.105 19.0098 223.922 19.0527C223.738 19.0957 223.543 19.1172 223.336 19.1172C223 19.1172 222.695 19.0684 222.422 18.9707C222.152 18.873 221.922 18.7422 221.73 18.5781C221.543 18.4102 221.396 18.2129 221.291 17.9863C221.189 17.7559 221.139 17.5078 221.139 17.2422C221.139 16.8945 221.207 16.5898 221.344 16.3281C221.484 16.0664 221.682 15.8496 221.936 15.6777C222.189 15.502 222.494 15.3711 222.85 15.2852C223.209 15.1992 223.609 15.1562 224.051 15.1562H225.234V14.6582C225.234 14.4668 225.199 14.2949 225.129 14.1426C225.059 13.9902 224.959 13.8613 224.83 13.7559C224.701 13.6465 224.543 13.5625 224.355 13.5039C224.172 13.4453 223.965 13.416 223.734 13.416C223.52 13.416 223.326 13.4434 223.154 13.498C222.986 13.5527 222.844 13.625 222.727 13.7148C222.609 13.8047 222.518 13.9121 222.451 14.0371C222.389 14.1582 222.357 14.2852 222.357 14.418H221.268C221.271 14.1875 221.33 13.9609 221.443 13.7383C221.561 13.5156 221.727 13.3164 221.941 13.1406C222.16 12.9609 222.424 12.8164 222.732 12.707C223.045 12.5977 223.398 12.543 223.793 12.543C224.152 12.543 224.486 12.5879 224.795 12.6777C225.104 12.7637 225.369 12.8965 225.592 13.0762C225.818 13.252 225.996 13.4727 226.125 13.7383C226.254 14.0039 226.318 14.3145 226.318 14.6699V17.6172C226.318 17.8281 226.338 18.0527 226.377 18.291C226.416 18.5254 226.471 18.7305 226.541 18.9062V19H225.41ZM223.494 18.1738C223.705 18.1738 223.902 18.1465 224.086 18.0918C224.27 18.0371 224.436 17.9648 224.584 17.875C224.736 17.7852 224.867 17.6836 224.977 17.5703C225.086 17.4531 225.172 17.332 225.234 17.207V15.9238H224.227C223.594 15.9238 223.102 16.0176 222.75 16.2051C222.398 16.3926 222.223 16.6875 222.223 17.0898C222.223 17.2461 222.248 17.3906 222.299 17.5234C222.354 17.6562 222.434 17.7715 222.539 17.8691C222.645 17.9629 222.777 18.0371 222.938 18.0918C223.098 18.1465 223.283 18.1738 223.494 18.1738ZM233.801 15.9004C233.801 16.3535 233.746 16.7773 233.637 17.1719C233.527 17.5625 233.367 17.9023 233.156 18.1914C232.945 18.4805 232.684 18.707 232.371 18.8711C232.062 19.0352 231.709 19.1172 231.311 19.1172C230.924 19.1172 230.582 19.0547 230.285 18.9297C229.992 18.8047 229.74 18.625 229.529 18.3906V21.4375H228.445V12.6602H229.436L229.488 13.3516C229.699 13.0898 229.953 12.8906 230.25 12.7539C230.551 12.6133 230.898 12.543 231.293 12.543C231.699 12.543 232.059 12.623 232.371 12.7832C232.684 12.9434 232.945 13.166 233.156 13.4512C233.367 13.7363 233.527 14.0781 233.637 14.4766C233.746 14.8711 233.801 15.3047 233.801 15.7773V15.9004ZM232.717 15.7773C232.717 15.4688 232.682 15.1758 232.611 14.8984C232.545 14.6172 232.439 14.3711 232.295 14.1602C232.154 13.9453 231.975 13.7754 231.756 13.6504C231.537 13.5254 231.275 13.4629 230.971 13.4629C230.623 13.4629 230.33 13.5449 230.092 13.709C229.857 13.8691 229.67 14.0762 229.529 14.3301V17.3828C229.67 17.6328 229.857 17.8379 230.092 17.998C230.326 18.1543 230.623 18.2324 230.982 18.2324C231.283 18.2324 231.543 18.1699 231.762 18.0449C231.98 17.916 232.16 17.7441 232.301 17.5293C232.441 17.3145 232.545 17.0664 232.611 16.7852C232.682 16.5039 232.717 16.209 232.717 15.9004V15.7773ZM241.008 15.9004C241.008 16.3535 240.953 16.7773 240.844 17.1719C240.734 17.5625 240.574 17.9023 240.363 18.1914C240.152 18.4805 239.891 18.707 239.578 18.8711C239.27 19.0352 238.916 19.1172 238.518 19.1172C238.131 19.1172 237.789 19.0547 237.492 18.9297C237.199 18.8047 236.947 18.625 236.736 18.3906V21.4375H235.652V12.6602H236.643L236.695 13.3516C236.906 13.0898 237.16 12.8906 237.457 12.7539C237.758 12.6133 238.105 12.543 238.5 12.543C238.906 12.543 239.266 12.623 239.578 12.7832C239.891 12.9434 240.152 13.166 240.363 13.4512C240.574 13.7363 240.734 14.0781 240.844 14.4766C240.953 14.8711 241.008 15.3047 241.008 15.7773V15.9004ZM239.924 15.7773C239.924 15.4688 239.889 15.1758 239.818 14.8984C239.752 14.6172 239.646 14.3711 239.502 14.1602C239.361 13.9453 239.182 13.7754 238.963 13.6504C238.744 13.5254 238.482 13.4629 238.178 13.4629C237.83 13.4629 237.537 13.5449 237.299 13.709C237.064 13.8691 236.877 14.0762 236.736 14.3301V17.3828C236.877 17.6328 237.064 17.8379 237.299 17.998C237.533 18.1543 237.83 18.2324 238.189 18.2324C238.49 18.2324 238.75 18.1699 238.969 18.0449C239.188 17.916 239.367 17.7441 239.508 17.5293C239.648 17.3145 239.752 17.0664 239.818 16.7852C239.889 16.5039 239.924 16.209 239.924 15.9004V15.7773ZM245.666 19.1172C245.221 19.1172 244.811 19.041 244.436 18.8887C244.064 18.7363 243.746 18.5234 243.48 18.25C243.215 17.9766 243.008 17.6523 242.859 17.2773C242.711 16.9023 242.637 16.4941 242.637 16.0527V15.8066C242.637 15.2949 242.719 14.8379 242.883 14.4355C243.047 14.0293 243.264 13.6875 243.533 13.4102C243.807 13.1289 244.115 12.9141 244.459 12.7656C244.807 12.6172 245.162 12.543 245.525 12.543C245.982 12.543 246.381 12.623 246.721 12.7832C247.064 12.9395 247.35 13.1582 247.576 13.4395C247.803 13.7168 247.971 14.0449 248.08 14.4238C248.193 14.8027 248.25 15.2129 248.25 15.6543V16.1406H243.721C243.732 16.4297 243.787 16.7012 243.885 16.9551C243.986 17.209 244.123 17.4316 244.295 17.623C244.471 17.8105 244.68 17.959 244.922 18.0684C245.164 18.1777 245.432 18.2324 245.725 18.2324C246.111 18.2324 246.455 18.1543 246.756 17.998C247.057 17.8418 247.307 17.6348 247.506 17.377L248.168 17.8926C248.062 18.0527 247.93 18.207 247.77 18.3555C247.613 18.5 247.432 18.6289 247.225 18.7422C247.018 18.8555 246.783 18.9453 246.521 19.0117C246.26 19.082 245.975 19.1172 245.666 19.1172ZM245.525 13.4336C245.307 13.4336 245.1 13.4746 244.904 13.5566C244.709 13.6348 244.533 13.752 244.377 13.9082C244.221 14.0605 244.088 14.25 243.979 14.4766C243.873 14.6992 243.799 14.957 243.756 15.25H247.166V15.168C247.154 14.957 247.113 14.748 247.043 14.541C246.977 14.334 246.877 14.1484 246.744 13.9844C246.611 13.8203 246.443 13.6875 246.24 13.5859C246.041 13.4844 245.803 13.4336 245.525 13.4336ZM254.227 12.543C254.328 12.543 254.434 12.5469 254.543 12.5547C254.652 12.5586 254.756 12.5684 254.854 12.584C254.955 12.5957 255.047 12.6113 255.129 12.6309C255.215 12.6504 255.285 12.6719 255.34 12.6953L255.193 13.7559C254.982 13.709 254.781 13.6758 254.59 13.6562C254.402 13.6328 254.205 13.6211 253.998 13.6211C253.49 13.6211 253.078 13.7363 252.762 13.9668C252.449 14.1973 252.219 14.5195 252.07 14.9336V19H250.98V12.6602H252.012L252.064 13.668C252.322 13.3203 252.631 13.0469 252.99 12.8477C253.354 12.6445 253.766 12.543 254.227 12.543Z" fill="#00AE99"/>
</svg>
