<svg width="400" height="80" viewBox="0 0 400 80" fill="none" xmlns="http://www.w3.org/2000/svg">
<path d="M0 28H400V80H0V28Z" fill="black"/>
<path d="M0 0H400V28H0V0Z" fill="#0C2320"/>
<ellipse cx="13.4127" cy="15" rx="4.80333" ry="5" fill="#111A19"/>
<ellipse cx="26.858" cy="15" rx="4.80333" ry="5" fill="#111A19"/>
<ellipse cx="40.3072" cy="15" rx="4.80333" ry="5" fill="#111A19"/>
<path d="M22.0859 57.0703C22.0911 56.5964 21.9167 56.1901 21.5625 55.8516C21.2135 55.513 20.6562 55.2188 19.8906 54.9688C19.4062 54.8177 18.9688 54.6432 18.5781 54.4453C18.1875 54.2474 17.8516 54.013 17.5703 53.7422C17.2943 53.4661 17.0807 53.151 16.9297 52.7969C16.7786 52.4427 16.7031 52.0339 16.7031 51.5703C16.7031 51.1328 16.7682 50.737 16.8984 50.3828C17.0339 50.0286 17.2214 49.7214 17.4609 49.4609C17.7057 49.1953 18 48.9818 18.3438 48.8203C18.6927 48.6589 19.0781 48.5521 19.5 48.5V46.7812H20.6641V48.5C21.5391 48.6198 22.2188 48.9896 22.7031 49.6094C23.1875 50.224 23.4323 51.0625 23.4375 52.125H22C22 51.776 21.9557 51.4557 21.8672 51.1641C21.7839 50.8672 21.6589 50.6146 21.4922 50.4062C21.3307 50.1927 21.1302 50.026 20.8906 49.9062C20.651 49.7865 20.3776 49.7266 20.0703 49.7266C19.4401 49.7266 18.9635 49.8906 18.6406 50.2188C18.3177 50.5469 18.1536 50.9896 18.1484 51.5469C18.1484 51.8073 18.1901 52.0391 18.2734 52.2422C18.3568 52.4453 18.487 52.6302 18.6641 52.7969C18.8464 52.9635 19.0781 53.1198 19.3594 53.2656C19.6458 53.4062 19.9896 53.5443 20.3906 53.6797C20.8802 53.8411 21.3203 54.0208 21.7109 54.2188C22.1016 54.4167 22.4323 54.6484 22.7031 54.9141C22.974 55.1797 23.1797 55.487 23.3203 55.8359C23.4661 56.1849 23.5391 56.5911 23.5391 57.0547C23.5391 57.5078 23.4661 57.9141 23.3203 58.2734C23.1797 58.6328 22.9792 58.9427 22.7188 59.2031C22.4583 59.4583 22.1406 59.6641 21.7656 59.8203C21.3958 59.9766 20.9844 60.0781 20.5312 60.125V61.625H19.3672V60.1328C18.9609 60.0911 18.5703 59.9974 18.1953 59.8516C17.8255 59.7057 17.4974 59.4948 17.2109 59.2188C16.9245 58.9375 16.6953 58.5859 16.5234 58.1641C16.3516 57.7422 16.2656 57.237 16.2656 56.6484H17.7109C17.7109 57.0859 17.776 57.4505 17.9062 57.7422C18.0365 58.0286 18.2031 58.2578 18.4062 58.4297C18.6146 58.6016 18.849 58.724 19.1094 58.7969C19.3698 58.8698 19.6328 58.9062 19.8984 58.9062C20.237 58.9062 20.5417 58.8646 20.8125 58.7812C21.0833 58.6979 21.3125 58.5781 21.5 58.4219C21.6875 58.2604 21.8307 58.0677 21.9297 57.8438C22.0339 57.6146 22.0859 57.3568 22.0859 57.0703ZM38.6875 57L39.0625 58.0234L41.6406 51.5469H43.2578L38.9688 61.3047C38.8698 61.5234 38.7422 61.7552 38.5859 62C38.4349 62.2448 38.25 62.4714 38.0312 62.6797C37.8125 62.888 37.5573 63.0625 37.2656 63.2031C36.974 63.3438 36.638 63.4141 36.2578 63.4141C36.1901 63.4141 36.1146 63.4089 36.0312 63.3984C35.9479 63.3932 35.8646 63.3828 35.7812 63.3672C35.6979 63.3568 35.6198 63.3438 35.5469 63.3281C35.474 63.3125 35.4141 63.2995 35.3672 63.2891L35.6016 62.1094C35.638 62.1094 35.6875 62.112 35.75 62.1172C35.8125 62.1224 35.8776 62.1276 35.9453 62.1328C36.013 62.138 36.0781 62.1406 36.1406 62.1406C36.2031 62.1458 36.2526 62.1484 36.2891 62.1484C36.487 62.1484 36.6667 62.0938 36.8281 61.9844C36.9948 61.875 37.1406 61.7448 37.2656 61.5938C37.3958 61.4427 37.5052 61.2865 37.5938 61.125C37.6875 60.9635 37.7604 60.8307 37.8125 60.7266L38.3906 59.6016L34.75 51.5469H36.3672L38.6875 57ZM50.7422 60C50.6849 59.8906 50.638 59.7552 50.6016 59.5938C50.5703 59.4271 50.5469 59.2552 50.5312 59.0781C50.3854 59.224 50.2214 59.362 50.0391 59.4922C49.862 59.6224 49.6641 59.737 49.4453 59.8359C49.2318 59.9349 49.0026 60.013 48.7578 60.0703C48.513 60.1276 48.2526 60.1562 47.9766 60.1562C47.5286 60.1562 47.1224 60.0911 46.7578 59.9609C46.3984 59.8307 46.0911 59.6562 45.8359 59.4375C45.5859 59.2135 45.3906 58.9505 45.25 58.6484C45.1146 58.3411 45.0469 58.0104 45.0469 57.6562C45.0469 57.1927 45.138 56.7865 45.3203 56.4375C45.5078 56.0885 45.7708 55.7995 46.1094 55.5703C46.4479 55.3359 46.8542 55.1615 47.3281 55.0469C47.8073 54.9323 48.3411 54.875 48.9297 54.875H50.5078V54.2109C50.5078 53.9557 50.4609 53.7266 50.3672 53.5234C50.2734 53.3203 50.1406 53.1484 49.9688 53.0078C49.7969 52.862 49.5859 52.75 49.3359 52.6719C49.0911 52.5938 48.8151 52.5547 48.5078 52.5547C48.2214 52.5547 47.9635 52.5911 47.7344 52.6641C47.5104 52.737 47.3203 52.8333 47.1641 52.9531C47.0078 53.0729 46.8854 53.2161 46.7969 53.3828C46.7135 53.5443 46.6719 53.7135 46.6719 53.8906H45.2188C45.224 53.5833 45.3021 53.2812 45.4531 52.9844C45.6094 52.6875 45.8307 52.4219 46.1172 52.1875C46.4089 51.9479 46.7604 51.7552 47.1719 51.6094C47.5885 51.4635 48.0599 51.3906 48.5859 51.3906C49.0651 51.3906 49.5104 51.4505 49.9219 51.5703C50.3333 51.6849 50.6875 51.862 50.9844 52.1016C51.2865 52.3359 51.5234 52.6302 51.6953 52.9844C51.8672 53.3385 51.9531 53.7526 51.9531 54.2266V58.1562C51.9531 58.4375 51.9792 58.737 52.0312 59.0547C52.0833 59.3672 52.1562 59.6406 52.25 59.875V60H50.7422ZM48.1875 58.8984C48.4688 58.8984 48.7318 58.862 48.9766 58.7891C49.2214 58.7161 49.4427 58.6198 49.6406 58.5C49.8438 58.3802 50.0182 58.2448 50.1641 58.0938C50.3099 57.9375 50.4245 57.776 50.5078 57.6094V55.8984H49.1641C48.3203 55.8984 47.6641 56.0234 47.1953 56.2734C46.7266 56.5234 46.4922 56.9167 46.4922 57.4531C46.4922 57.6615 46.526 57.8542 46.5938 58.0312C46.6667 58.2083 46.7734 58.362 46.9141 58.4922C47.0547 58.6172 47.2318 58.7161 47.4453 58.7891C47.6589 58.862 47.9062 58.8984 48.1875 58.8984ZM60.3359 51.3906C60.4714 51.3906 60.612 51.3958 60.7578 51.4062C60.9036 51.4115 61.0417 51.4245 61.1719 51.4453C61.3073 51.4609 61.4297 51.4818 61.5391 51.5078C61.6536 51.5339 61.7474 51.5625 61.8203 51.5938L61.625 53.0078C61.3438 52.9453 61.0755 52.901 60.8203 52.875C60.5703 52.8438 60.3073 52.8281 60.0312 52.8281C59.3542 52.8281 58.8047 52.9818 58.3828 53.2891C57.9661 53.5964 57.6589 54.026 57.4609 54.5781V60H56.0078V51.5469H57.3828L57.4531 52.8906C57.7969 52.4271 58.2083 52.0625 58.6875 51.7969C59.1719 51.526 59.7214 51.3906 60.3359 51.3906ZM65.7031 51.5469L65.8047 52.7969C66.112 52.3594 66.4896 52.0182 66.9375 51.7734C67.3854 51.5234 67.8854 51.3958 68.4375 51.3906C68.8802 51.3906 69.2812 51.4531 69.6406 51.5781C70.0052 51.7031 70.3151 51.8984 70.5703 52.1641C70.8255 52.4297 71.0208 52.7682 71.1562 53.1797C71.2969 53.5859 71.3672 54.0703 71.3672 54.6328V60H69.9219V54.6641C69.9219 54.2891 69.8802 53.9714 69.7969 53.7109C69.7135 53.4505 69.5885 53.2396 69.4219 53.0781C69.2604 52.9167 69.0599 52.7995 68.8203 52.7266C68.5859 52.6536 68.3151 52.6172 68.0078 52.6172C67.5234 52.6172 67.0964 52.7396 66.7266 52.9844C66.362 53.224 66.0703 53.5417 65.8516 53.9375V60H64.4062V51.5469H65.7031ZM83.8516 51.5469H88.1719V58.75H90.9297V60H83.8516V58.75H86.7266V52.8047H83.8516V51.5469ZM86.5391 49.3281C86.5391 49.0885 86.6094 48.888 86.75 48.7266C86.8958 48.5599 87.1146 48.4766 87.4062 48.4766C87.6927 48.4766 87.9089 48.5599 88.0547 48.7266C88.2005 48.888 88.2734 49.0885 88.2734 49.3281C88.2734 49.5625 88.2005 49.7578 88.0547 49.9141C87.9089 50.0703 87.6927 50.1484 87.4062 50.1484C87.1146 50.1484 86.8958 50.0703 86.75 49.9141C86.6094 49.7578 86.5391 49.5625 86.5391 49.3281ZM94.5312 51.5469L94.6328 52.7969C94.9401 52.3594 95.3177 52.0182 95.7656 51.7734C96.2135 51.5234 96.7135 51.3958 97.2656 51.3906C97.7083 51.3906 98.1094 51.4531 98.4688 51.5781C98.8333 51.7031 99.1432 51.8984 99.3984 52.1641C99.6536 52.4297 99.849 52.7682 99.9844 53.1797C100.125 53.5859 100.195 54.0703 100.195 54.6328V60H98.75V54.6641C98.75 54.2891 98.7083 53.9714 98.625 53.7109C98.5417 53.4505 98.4167 53.2396 98.25 53.0781C98.0885 52.9167 97.888 52.7995 97.6484 52.7266C97.4141 52.6536 97.1432 52.6172 96.8359 52.6172C96.3516 52.6172 95.9245 52.7396 95.5547 52.9844C95.1901 53.224 94.8984 53.5417 94.6797 53.9375V60H93.2344V51.5469H94.5312ZM108.461 57.7578C108.461 57.5859 108.427 57.4323 108.359 57.2969C108.292 57.1562 108.177 57.0286 108.016 56.9141C107.854 56.7995 107.641 56.6953 107.375 56.6016C107.109 56.5026 106.779 56.4141 106.383 56.3359C105.898 56.237 105.456 56.1172 105.055 55.9766C104.659 55.8359 104.318 55.6693 104.031 55.4766C103.75 55.2786 103.531 55.0495 103.375 54.7891C103.219 54.5234 103.141 54.2161 103.141 53.8672C103.141 53.5234 103.221 53.2031 103.383 52.9062C103.544 52.6042 103.771 52.3411 104.062 52.1172C104.354 51.8932 104.701 51.7161 105.102 51.5859C105.508 51.4557 105.953 51.3906 106.438 51.3906C106.958 51.3906 107.427 51.4583 107.844 51.5938C108.26 51.7292 108.615 51.9167 108.906 52.1562C109.198 52.3958 109.422 52.6771 109.578 53C109.74 53.3177 109.82 53.6615 109.82 54.0312H108.375C108.375 53.849 108.328 53.6719 108.234 53.5C108.141 53.3229 108.01 53.1667 107.844 53.0312C107.677 52.8958 107.474 52.7865 107.234 52.7031C107 52.6198 106.734 52.5781 106.438 52.5781C106.13 52.5781 105.859 52.612 105.625 52.6797C105.396 52.7474 105.203 52.8385 105.047 52.9531C104.896 53.0677 104.781 53.2005 104.703 53.3516C104.625 53.5026 104.586 53.6589 104.586 53.8203C104.586 53.987 104.617 54.1354 104.68 54.2656C104.742 54.3958 104.849 54.513 105 54.6172C105.156 54.7214 105.362 54.8151 105.617 54.8984C105.878 54.9818 106.206 55.0625 106.602 55.1406C107.122 55.25 107.589 55.3776 108 55.5234C108.411 55.6641 108.758 55.8359 109.039 56.0391C109.32 56.237 109.534 56.4688 109.68 56.7344C109.831 57 109.906 57.3073 109.906 57.6562C109.906 58.0312 109.82 58.3724 109.648 58.6797C109.482 58.987 109.247 59.25 108.945 59.4688C108.643 59.6875 108.281 59.8568 107.859 59.9766C107.438 60.0964 106.977 60.1562 106.477 60.1562C105.904 60.1562 105.393 60.0807 104.945 59.9297C104.497 59.7734 104.117 59.5703 103.805 59.3203C103.497 59.0651 103.26 58.7708 103.094 58.4375C102.932 58.1042 102.852 57.7578 102.852 57.3984H104.297C104.318 57.6953 104.396 57.9453 104.531 58.1484C104.672 58.3516 104.844 58.5156 105.047 58.6406C105.255 58.7656 105.484 58.8542 105.734 58.9062C105.984 58.9583 106.232 58.9844 106.477 58.9844C107.086 58.9844 107.568 58.8724 107.922 58.6484C108.276 58.4245 108.456 58.1276 108.461 57.7578ZM115.875 49.5V51.5469H119.094V52.6641H115.875V57.2578C115.875 57.5859 115.917 57.8568 116 58.0703C116.083 58.2839 116.198 58.4557 116.344 58.5859C116.49 58.7109 116.656 58.7995 116.844 58.8516C117.036 58.9036 117.24 58.9297 117.453 58.9297C117.609 58.9297 117.771 58.9219 117.938 58.9062C118.104 58.8854 118.266 58.862 118.422 58.8359C118.583 58.8099 118.732 58.7839 118.867 58.7578C119.008 58.7266 119.122 58.7005 119.211 58.6797L119.414 59.7031C119.294 59.776 119.148 59.8411 118.977 59.8984C118.805 59.9505 118.617 59.9948 118.414 60.0312C118.211 60.0729 117.995 60.1042 117.766 60.125C117.542 60.1458 117.318 60.1562 117.094 60.1562C116.719 60.1562 116.367 60.1042 116.039 60C115.716 59.8906 115.435 59.7214 115.195 59.4922C114.956 59.2578 114.766 58.9583 114.625 58.5938C114.49 58.224 114.422 57.7786 114.422 57.2578V52.6641H112.203V51.5469H114.422V49.5H115.875ZM127.617 60C127.56 59.8906 127.513 59.7552 127.477 59.5938C127.445 59.4271 127.422 59.2552 127.406 59.0781C127.26 59.224 127.096 59.362 126.914 59.4922C126.737 59.6224 126.539 59.737 126.32 59.8359C126.107 59.9349 125.878 60.013 125.633 60.0703C125.388 60.1276 125.128 60.1562 124.852 60.1562C124.404 60.1562 123.997 60.0911 123.633 59.9609C123.273 59.8307 122.966 59.6562 122.711 59.4375C122.461 59.2135 122.266 58.9505 122.125 58.6484C121.99 58.3411 121.922 58.0104 121.922 57.6562C121.922 57.1927 122.013 56.7865 122.195 56.4375C122.383 56.0885 122.646 55.7995 122.984 55.5703C123.323 55.3359 123.729 55.1615 124.203 55.0469C124.682 54.9323 125.216 54.875 125.805 54.875H127.383V54.2109C127.383 53.9557 127.336 53.7266 127.242 53.5234C127.148 53.3203 127.016 53.1484 126.844 53.0078C126.672 52.862 126.461 52.75 126.211 52.6719C125.966 52.5938 125.69 52.5547 125.383 52.5547C125.096 52.5547 124.839 52.5911 124.609 52.6641C124.385 52.737 124.195 52.8333 124.039 52.9531C123.883 53.0729 123.76 53.2161 123.672 53.3828C123.589 53.5443 123.547 53.7135 123.547 53.8906H122.094C122.099 53.5833 122.177 53.2812 122.328 52.9844C122.484 52.6875 122.706 52.4219 122.992 52.1875C123.284 51.9479 123.635 51.7552 124.047 51.6094C124.464 51.4635 124.935 51.3906 125.461 51.3906C125.94 51.3906 126.385 51.4505 126.797 51.5703C127.208 51.6849 127.562 51.862 127.859 52.1016C128.161 52.3359 128.398 52.6302 128.57 52.9844C128.742 53.3385 128.828 53.7526 128.828 54.2266V58.1562C128.828 58.4375 128.854 58.737 128.906 59.0547C128.958 59.3672 129.031 59.6406 129.125 59.875V60H127.617ZM125.062 58.8984C125.344 58.8984 125.607 58.862 125.852 58.7891C126.096 58.7161 126.318 58.6198 126.516 58.5C126.719 58.3802 126.893 58.2448 127.039 58.0938C127.185 57.9375 127.299 57.776 127.383 57.6094V55.8984H126.039C125.195 55.8984 124.539 56.0234 124.07 56.2734C123.602 56.5234 123.367 56.9167 123.367 57.4531C123.367 57.6615 123.401 57.8542 123.469 58.0312C123.542 58.2083 123.648 58.362 123.789 58.4922C123.93 58.6172 124.107 58.7161 124.32 58.7891C124.534 58.862 124.781 58.8984 125.062 58.8984ZM131.898 48H136.219V58.75H138.977V60H131.898V58.75H134.773V49.2578H131.898V48ZM141.508 48H145.828V58.75H148.586V60H141.508V58.75H144.383V49.2578H141.508V48ZM168.195 53.8359C168.18 54.2526 168.13 54.6797 168.047 55.1172C167.964 55.5495 167.836 55.9427 167.664 56.2969C167.497 56.651 167.281 56.9401 167.016 57.1641C166.75 57.388 166.424 57.5 166.039 57.5C165.721 57.5 165.456 57.4167 165.242 57.25C165.034 57.0833 164.885 56.8516 164.797 56.5547C164.615 56.8464 164.388 57.0781 164.117 57.25C163.852 57.4167 163.557 57.5 163.234 57.5C162.979 57.5 162.758 57.4323 162.57 57.2969C162.383 57.1615 162.229 56.9714 162.109 56.7266C161.995 56.4818 161.914 56.1901 161.867 55.8516C161.826 55.513 161.82 55.1406 161.852 54.7344C161.898 54.1562 161.995 53.6354 162.141 53.1719C162.286 52.7031 162.474 52.3073 162.703 51.9844C162.938 51.6562 163.208 51.4062 163.516 51.2344C163.823 51.0573 164.161 50.9688 164.531 50.9688C164.88 50.9688 165.169 51.0391 165.398 51.1797C165.628 51.3151 165.81 51.4766 165.945 51.6641L165.602 55.6016C165.586 55.8151 165.591 55.9896 165.617 56.125C165.643 56.2552 165.68 56.3594 165.727 56.4375C165.779 56.5104 165.841 56.5599 165.914 56.5859C165.987 56.612 166.065 56.625 166.148 56.625C166.341 56.625 166.51 56.5521 166.656 56.4062C166.807 56.2552 166.932 56.0547 167.031 55.8047C167.13 55.5495 167.206 55.2526 167.258 54.9141C167.31 54.5755 167.339 54.2161 167.344 53.8359C167.365 53.1745 167.31 52.5807 167.18 52.0547C167.049 51.5286 166.849 51.0833 166.578 50.7188C166.312 50.3542 165.984 50.0755 165.594 49.8828C165.203 49.6901 164.758 49.5938 164.258 49.5938C163.732 49.5938 163.25 49.7188 162.812 49.9688C162.38 50.2135 162.005 50.5573 161.688 51C161.37 51.4427 161.12 51.9714 160.938 52.5859C160.755 53.2005 160.654 53.8724 160.633 54.6016C160.607 55.3099 160.656 55.9401 160.781 56.4922C160.906 57.0443 161.107 57.513 161.383 57.8984C161.659 58.2786 162.01 58.5703 162.438 58.7734C162.87 58.9714 163.378 59.0703 163.961 59.0703C164.117 59.0703 164.276 59.0599 164.438 59.0391C164.599 59.013 164.758 58.9792 164.914 58.9375C165.07 58.8906 165.219 58.8359 165.359 58.7734C165.5 58.7109 165.628 58.6406 165.742 58.5625L165.992 59.4766C165.862 59.5755 165.714 59.6615 165.547 59.7344C165.38 59.8073 165.206 59.8698 165.023 59.9219C164.841 59.9688 164.656 60.0026 164.469 60.0234C164.281 60.0495 164.104 60.0625 163.938 60.0625C163.172 60.0625 162.513 59.9297 161.961 59.6641C161.414 59.3932 160.966 59.0156 160.617 58.5312C160.273 58.0469 160.023 57.4714 159.867 56.8047C159.716 56.1328 159.654 55.3984 159.68 54.6016C159.701 54.0651 159.766 53.5443 159.875 53.0391C159.984 52.5286 160.133 52.0521 160.32 51.6094C160.513 51.1667 160.742 50.763 161.008 50.3984C161.279 50.0286 161.581 49.7109 161.914 49.4453C162.247 49.1797 162.612 48.974 163.008 48.8281C163.409 48.6823 163.833 48.6094 164.281 48.6094C164.917 48.6094 165.482 48.7344 165.977 48.9844C166.471 49.2292 166.885 49.5807 167.219 50.0391C167.557 50.4974 167.81 51.0495 167.977 51.6953C168.143 52.3359 168.216 53.0495 168.195 53.8359ZM162.812 54.7344C162.786 55.2656 162.831 55.6797 162.945 55.9766C163.06 56.2734 163.242 56.4219 163.492 56.4219C163.747 56.4219 163.979 56.3516 164.188 56.2109C164.396 56.0703 164.578 55.8359 164.734 55.5078L165.039 52.0312C164.893 51.9635 164.742 51.9297 164.586 51.9297C164.31 51.9297 164.068 51.9974 163.859 52.1328C163.656 52.263 163.484 52.4505 163.344 52.6953C163.203 52.9349 163.089 53.2292 163 53.5781C162.917 53.9219 162.854 54.3073 162.812 54.7344ZM177.25 55.6484C177.25 56.3724 177.167 57.0156 177 57.5781C176.833 58.1354 176.594 58.6068 176.281 58.9922C175.969 59.3724 175.586 59.6615 175.133 59.8594C174.68 60.0573 174.161 60.1562 173.578 60.1562C173 60.1562 172.482 60.0573 172.023 59.8594C171.57 59.6615 171.185 59.3724 170.867 58.9922C170.549 58.6068 170.305 58.1354 170.133 57.5781C169.966 57.0156 169.883 56.3724 169.883 55.6484V52.9844C169.883 52.2604 169.966 51.6198 170.133 51.0625C170.299 50.5 170.539 50.026 170.852 49.6406C171.169 49.2552 171.555 48.9635 172.008 48.7656C172.466 48.5625 172.984 48.4609 173.562 48.4609C174.146 48.4609 174.664 48.5625 175.117 48.7656C175.576 48.9635 175.961 49.2552 176.273 49.6406C176.591 50.026 176.833 50.5 177 51.0625C177.167 51.6198 177.25 52.2604 177.25 52.9844V55.6484ZM171.336 55.3594L175.766 51.9609C175.682 51.2057 175.461 50.6328 175.102 50.2422C174.747 49.8464 174.234 49.6484 173.562 49.6484C172.802 49.6484 172.24 49.9062 171.875 50.4219C171.516 50.9323 171.336 51.6797 171.336 52.6641V55.3594ZM175.797 53.3438L171.375 56.7266C171.464 57.4609 171.69 58.0208 172.055 58.4062C172.419 58.7917 172.927 58.9844 173.578 58.9844C174.344 58.9844 174.904 58.724 175.258 58.2031C175.617 57.6823 175.797 56.9323 175.797 55.9531V53.3438ZM183.211 54.6797L185.469 51.5469H187.164L184.016 55.7266L187.25 60H185.578L183.242 56.7812L180.906 60H179.219L182.453 55.7266L179.305 51.5469H180.977L183.211 54.6797ZM191.234 60.9766H189.938L194.688 48.625H195.977L191.234 60.9766ZM204.492 60C204.435 59.8906 204.388 59.7552 204.352 59.5938C204.32 59.4271 204.297 59.2552 204.281 59.0781C204.135 59.224 203.971 59.362 203.789 59.4922C203.612 59.6224 203.414 59.737 203.195 59.8359C202.982 59.9349 202.753 60.013 202.508 60.0703C202.263 60.1276 202.003 60.1562 201.727 60.1562C201.279 60.1562 200.872 60.0911 200.508 59.9609C200.148 59.8307 199.841 59.6562 199.586 59.4375C199.336 59.2135 199.141 58.9505 199 58.6484C198.865 58.3411 198.797 58.0104 198.797 57.6562C198.797 57.1927 198.888 56.7865 199.07 56.4375C199.258 56.0885 199.521 55.7995 199.859 55.5703C200.198 55.3359 200.604 55.1615 201.078 55.0469C201.557 54.9323 202.091 54.875 202.68 54.875H204.258V54.2109C204.258 53.9557 204.211 53.7266 204.117 53.5234C204.023 53.3203 203.891 53.1484 203.719 53.0078C203.547 52.862 203.336 52.75 203.086 52.6719C202.841 52.5938 202.565 52.5547 202.258 52.5547C201.971 52.5547 201.714 52.5911 201.484 52.6641C201.26 52.737 201.07 52.8333 200.914 52.9531C200.758 53.0729 200.635 53.2161 200.547 53.3828C200.464 53.5443 200.422 53.7135 200.422 53.8906H198.969C198.974 53.5833 199.052 53.2812 199.203 52.9844C199.359 52.6875 199.581 52.4219 199.867 52.1875C200.159 51.9479 200.51 51.7552 200.922 51.6094C201.339 51.4635 201.81 51.3906 202.336 51.3906C202.815 51.3906 203.26 51.4505 203.672 51.5703C204.083 51.6849 204.438 51.862 204.734 52.1016C205.036 52.3359 205.273 52.6302 205.445 52.9844C205.617 53.3385 205.703 53.7526 205.703 54.2266V58.1562C205.703 58.4375 205.729 58.737 205.781 59.0547C205.833 59.3672 205.906 59.6406 206 59.875V60H204.492ZM201.938 58.8984C202.219 58.8984 202.482 58.862 202.727 58.7891C202.971 58.7161 203.193 58.6198 203.391 58.5C203.594 58.3802 203.768 58.2448 203.914 58.0938C204.06 57.9375 204.174 57.776 204.258 57.6094V55.8984H202.914C202.07 55.8984 201.414 56.0234 200.945 56.2734C200.477 56.5234 200.242 56.9167 200.242 57.4531C200.242 57.6615 200.276 57.8542 200.344 58.0312C200.417 58.2083 200.523 58.362 200.664 58.4922C200.805 58.6172 200.982 58.7161 201.195 58.7891C201.409 58.862 201.656 58.8984 201.938 58.8984ZM214.164 57.7578C214.164 57.5859 214.13 57.4323 214.062 57.2969C213.995 57.1562 213.88 57.0286 213.719 56.9141C213.557 56.7995 213.344 56.6953 213.078 56.6016C212.812 56.5026 212.482 56.4141 212.086 56.3359C211.602 56.237 211.159 56.1172 210.758 55.9766C210.362 55.8359 210.021 55.6693 209.734 55.4766C209.453 55.2786 209.234 55.0495 209.078 54.7891C208.922 54.5234 208.844 54.2161 208.844 53.8672C208.844 53.5234 208.924 53.2031 209.086 52.9062C209.247 52.6042 209.474 52.3411 209.766 52.1172C210.057 51.8932 210.404 51.7161 210.805 51.5859C211.211 51.4557 211.656 51.3906 212.141 51.3906C212.661 51.3906 213.13 51.4583 213.547 51.5938C213.964 51.7292 214.318 51.9167 214.609 52.1562C214.901 52.3958 215.125 52.6771 215.281 53C215.443 53.3177 215.523 53.6615 215.523 54.0312H214.078C214.078 53.849 214.031 53.6719 213.938 53.5C213.844 53.3229 213.714 53.1667 213.547 53.0312C213.38 52.8958 213.177 52.7865 212.938 52.7031C212.703 52.6198 212.438 52.5781 212.141 52.5781C211.833 52.5781 211.562 52.612 211.328 52.6797C211.099 52.7474 210.906 52.8385 210.75 52.9531C210.599 53.0677 210.484 53.2005 210.406 53.3516C210.328 53.5026 210.289 53.6589 210.289 53.8203C210.289 53.987 210.32 54.1354 210.383 54.2656C210.445 54.3958 210.552 54.513 210.703 54.6172C210.859 54.7214 211.065 54.8151 211.32 54.8984C211.581 54.9818 211.909 55.0625 212.305 55.1406C212.826 55.25 213.292 55.3776 213.703 55.5234C214.115 55.6641 214.461 55.8359 214.742 56.0391C215.023 56.237 215.237 56.4688 215.383 56.7344C215.534 57 215.609 57.3073 215.609 57.6562C215.609 58.0312 215.523 58.3724 215.352 58.6797C215.185 58.987 214.951 59.25 214.648 59.4688C214.346 59.6875 213.984 59.8568 213.562 59.9766C213.141 60.0964 212.68 60.1562 212.18 60.1562C211.607 60.1562 211.096 60.0807 210.648 59.9297C210.201 59.7734 209.82 59.5703 209.508 59.3203C209.201 59.0651 208.964 58.7708 208.797 58.4375C208.635 58.1042 208.555 57.7578 208.555 57.3984H210C210.021 57.6953 210.099 57.9453 210.234 58.1484C210.375 58.3516 210.547 58.5156 210.75 58.6406C210.958 58.7656 211.188 58.8542 211.438 58.9062C211.688 58.9583 211.935 58.9844 212.18 58.9844C212.789 58.9844 213.271 58.8724 213.625 58.6484C213.979 58.4245 214.159 58.1276 214.164 57.7578ZM223.773 57.7578C223.773 57.5859 223.74 57.4323 223.672 57.2969C223.604 57.1562 223.49 57.0286 223.328 56.9141C223.167 56.7995 222.953 56.6953 222.688 56.6016C222.422 56.5026 222.091 56.4141 221.695 56.3359C221.211 56.237 220.768 56.1172 220.367 55.9766C219.971 55.8359 219.63 55.6693 219.344 55.4766C219.062 55.2786 218.844 55.0495 218.688 54.7891C218.531 54.5234 218.453 54.2161 218.453 53.8672C218.453 53.5234 218.534 53.2031 218.695 52.9062C218.857 52.6042 219.083 52.3411 219.375 52.1172C219.667 51.8932 220.013 51.7161 220.414 51.5859C220.82 51.4557 221.266 51.3906 221.75 51.3906C222.271 51.3906 222.74 51.4583 223.156 51.5938C223.573 51.7292 223.927 51.9167 224.219 52.1562C224.51 52.3958 224.734 52.6771 224.891 53C225.052 53.3177 225.133 53.6615 225.133 54.0312H223.688C223.688 53.849 223.641 53.6719 223.547 53.5C223.453 53.3229 223.323 53.1667 223.156 53.0312C222.99 52.8958 222.786 52.7865 222.547 52.7031C222.312 52.6198 222.047 52.5781 221.75 52.5781C221.443 52.5781 221.172 52.612 220.938 52.6797C220.708 52.7474 220.516 52.8385 220.359 52.9531C220.208 53.0677 220.094 53.2005 220.016 53.3516C219.938 53.5026 219.898 53.6589 219.898 53.8203C219.898 53.987 219.93 54.1354 219.992 54.2656C220.055 54.3958 220.161 54.513 220.312 54.6172C220.469 54.7214 220.674 54.8151 220.93 54.8984C221.19 54.9818 221.518 55.0625 221.914 55.1406C222.435 55.25 222.901 55.3776 223.312 55.5234C223.724 55.6641 224.07 55.8359 224.352 56.0391C224.633 56.237 224.846 56.4688 224.992 56.7344C225.143 57 225.219 57.3073 225.219 57.6562C225.219 58.0312 225.133 58.3724 224.961 58.6797C224.794 58.987 224.56 59.25 224.258 59.4688C223.956 59.6875 223.594 59.8568 223.172 59.9766C222.75 60.0964 222.289 60.1562 221.789 60.1562C221.216 60.1562 220.706 60.0807 220.258 59.9297C219.81 59.7734 219.43 59.5703 219.117 59.3203C218.81 59.0651 218.573 58.7708 218.406 58.4375C218.245 58.1042 218.164 57.7578 218.164 57.3984H219.609C219.63 57.6953 219.708 57.9453 219.844 58.1484C219.984 58.3516 220.156 58.5156 220.359 58.6406C220.568 58.7656 220.797 58.8542 221.047 58.9062C221.297 58.9583 221.544 58.9844 221.789 58.9844C222.398 58.9844 222.88 58.8724 223.234 58.6484C223.589 58.4245 223.768 58.1276 223.773 57.7578ZM231.5 60.1562C230.906 60.1562 230.359 60.0547 229.859 59.8516C229.365 59.6484 228.94 59.3646 228.586 59C228.232 58.6354 227.956 58.2031 227.758 57.7031C227.56 57.2031 227.461 56.6589 227.461 56.0703V55.7422C227.461 55.0599 227.57 54.4505 227.789 53.9141C228.008 53.3724 228.297 52.9167 228.656 52.5469C229.021 52.1719 229.432 51.8854 229.891 51.6875C230.354 51.4896 230.828 51.3906 231.312 51.3906C231.922 51.3906 232.453 51.4974 232.906 51.7109C233.365 51.9193 233.745 52.2109 234.047 52.5859C234.349 52.9557 234.573 53.3932 234.719 53.8984C234.87 54.4036 234.945 54.9505 234.945 55.5391V56.1875H228.906C228.922 56.5729 228.995 56.9349 229.125 57.2734C229.26 57.612 229.443 57.9089 229.672 58.1641C229.906 58.4141 230.185 58.612 230.508 58.7578C230.831 58.9036 231.188 58.9766 231.578 58.9766C232.094 58.9766 232.552 58.8724 232.953 58.6641C233.354 58.4557 233.688 58.1797 233.953 57.8359L234.836 58.5234C234.695 58.737 234.518 58.9427 234.305 59.1406C234.096 59.3333 233.854 59.5052 233.578 59.6562C233.302 59.8073 232.99 59.9271 232.641 60.0156C232.292 60.1094 231.911 60.1562 231.5 60.1562ZM231.312 52.5781C231.021 52.5781 230.745 52.6328 230.484 52.7422C230.224 52.8464 229.99 53.0026 229.781 53.2109C229.573 53.4141 229.396 53.6667 229.25 53.9688C229.109 54.2656 229.01 54.6094 228.953 55H233.5V54.8906C233.484 54.6094 233.43 54.3307 233.336 54.0547C233.247 53.7786 233.115 53.5312 232.938 53.3125C232.76 53.0938 232.536 52.9167 232.266 52.7812C232 52.6458 231.682 52.5781 231.312 52.5781ZM240.797 49.5V51.5469H244.016V52.6641H240.797V57.2578C240.797 57.5859 240.839 57.8568 240.922 58.0703C241.005 58.2839 241.12 58.4557 241.266 58.5859C241.411 58.7109 241.578 58.7995 241.766 58.8516C241.958 58.9036 242.161 58.9297 242.375 58.9297C242.531 58.9297 242.693 58.9219 242.859 58.9062C243.026 58.8854 243.188 58.862 243.344 58.8359C243.505 58.8099 243.654 58.7839 243.789 58.7578C243.93 58.7266 244.044 58.7005 244.133 58.6797L244.336 59.7031C244.216 59.776 244.07 59.8411 243.898 59.8984C243.727 59.9505 243.539 59.9948 243.336 60.0312C243.133 60.0729 242.917 60.1042 242.688 60.125C242.464 60.1458 242.24 60.1562 242.016 60.1562C241.641 60.1562 241.289 60.1042 240.961 60C240.638 59.8906 240.357 59.7214 240.117 59.4922C239.878 59.2578 239.688 58.9583 239.547 58.5938C239.411 58.224 239.344 57.7786 239.344 57.2578V52.6641H237.125V51.5469H239.344V49.5H240.797ZM253.305 55.6172H247.328V54.4297H253.305V55.6172ZM262.211 57.7578C262.211 57.5859 262.177 57.4323 262.109 57.2969C262.042 57.1562 261.927 57.0286 261.766 56.9141C261.604 56.7995 261.391 56.6953 261.125 56.6016C260.859 56.5026 260.529 56.4141 260.133 56.3359C259.648 56.237 259.206 56.1172 258.805 55.9766C258.409 55.8359 258.068 55.6693 257.781 55.4766C257.5 55.2786 257.281 55.0495 257.125 54.7891C256.969 54.5234 256.891 54.2161 256.891 53.8672C256.891 53.5234 256.971 53.2031 257.133 52.9062C257.294 52.6042 257.521 52.3411 257.812 52.1172C258.104 51.8932 258.451 51.7161 258.852 51.5859C259.258 51.4557 259.703 51.3906 260.188 51.3906C260.708 51.3906 261.177 51.4583 261.594 51.5938C262.01 51.7292 262.365 51.9167 262.656 52.1562C262.948 52.3958 263.172 52.6771 263.328 53C263.49 53.3177 263.57 53.6615 263.57 54.0312H262.125C262.125 53.849 262.078 53.6719 261.984 53.5C261.891 53.3229 261.76 53.1667 261.594 53.0312C261.427 52.8958 261.224 52.7865 260.984 52.7031C260.75 52.6198 260.484 52.5781 260.188 52.5781C259.88 52.5781 259.609 52.612 259.375 52.6797C259.146 52.7474 258.953 52.8385 258.797 52.9531C258.646 53.0677 258.531 53.2005 258.453 53.3516C258.375 53.5026 258.336 53.6589 258.336 53.8203C258.336 53.987 258.367 54.1354 258.43 54.2656C258.492 54.3958 258.599 54.513 258.75 54.6172C258.906 54.7214 259.112 54.8151 259.367 54.8984C259.628 54.9818 259.956 55.0625 260.352 55.1406C260.872 55.25 261.339 55.3776 261.75 55.5234C262.161 55.6641 262.508 55.8359 262.789 56.0391C263.07 56.237 263.284 56.4688 263.43 56.7344C263.581 57 263.656 57.3073 263.656 57.6562C263.656 58.0312 263.57 58.3724 263.398 58.6797C263.232 58.987 262.997 59.25 262.695 59.4688C262.393 59.6875 262.031 59.8568 261.609 59.9766C261.188 60.0964 260.727 60.1562 260.227 60.1562C259.654 60.1562 259.143 60.0807 258.695 59.9297C258.247 59.7734 257.867 59.5703 257.555 59.3203C257.247 59.0651 257.01 58.7708 256.844 58.4375C256.682 58.1042 256.602 57.7578 256.602 57.3984H258.047C258.068 57.6953 258.146 57.9453 258.281 58.1484C258.422 58.3516 258.594 58.5156 258.797 58.6406C259.005 58.7656 259.234 58.8542 259.484 58.9062C259.734 58.9583 259.982 58.9844 260.227 58.9844C260.836 58.9844 261.318 58.8724 261.672 58.6484C262.026 58.4245 262.206 58.1276 262.211 57.7578ZM267.484 56.9375L267.656 58.1484L267.867 56.9375L269.219 51.5469H270.148L271.492 56.9375L271.719 58.2656L271.93 56.9375L272.867 51.5469H274.148L272.352 60H271.211L269.891 54.8203L269.672 53.5078L269.461 54.8203L268.156 60H267.016L265.219 51.5469H266.5L267.484 56.9375ZM281.367 60C281.31 59.8906 281.263 59.7552 281.227 59.5938C281.195 59.4271 281.172 59.2552 281.156 59.0781C281.01 59.224 280.846 59.362 280.664 59.4922C280.487 59.6224 280.289 59.737 280.07 59.8359C279.857 59.9349 279.628 60.013 279.383 60.0703C279.138 60.1276 278.878 60.1562 278.602 60.1562C278.154 60.1562 277.747 60.0911 277.383 59.9609C277.023 59.8307 276.716 59.6562 276.461 59.4375C276.211 59.2135 276.016 58.9505 275.875 58.6484C275.74 58.3411 275.672 58.0104 275.672 57.6562C275.672 57.1927 275.763 56.7865 275.945 56.4375C276.133 56.0885 276.396 55.7995 276.734 55.5703C277.073 55.3359 277.479 55.1615 277.953 55.0469C278.432 54.9323 278.966 54.875 279.555 54.875H281.133V54.2109C281.133 53.9557 281.086 53.7266 280.992 53.5234C280.898 53.3203 280.766 53.1484 280.594 53.0078C280.422 52.862 280.211 52.75 279.961 52.6719C279.716 52.5938 279.44 52.5547 279.133 52.5547C278.846 52.5547 278.589 52.5911 278.359 52.6641C278.135 52.737 277.945 52.8333 277.789 52.9531C277.633 53.0729 277.51 53.2161 277.422 53.3828C277.339 53.5443 277.297 53.7135 277.297 53.8906H275.844C275.849 53.5833 275.927 53.2812 276.078 52.9844C276.234 52.6875 276.456 52.4219 276.742 52.1875C277.034 51.9479 277.385 51.7552 277.797 51.6094C278.214 51.4635 278.685 51.3906 279.211 51.3906C279.69 51.3906 280.135 51.4505 280.547 51.5703C280.958 51.6849 281.312 51.862 281.609 52.1016C281.911 52.3359 282.148 52.6302 282.32 52.9844C282.492 53.3385 282.578 53.7526 282.578 54.2266V58.1562C282.578 58.4375 282.604 58.737 282.656 59.0547C282.708 59.3672 282.781 59.6406 282.875 59.875V60H281.367ZM278.812 58.8984C279.094 58.8984 279.357 58.862 279.602 58.7891C279.846 58.7161 280.068 58.6198 280.266 58.5C280.469 58.3802 280.643 58.2448 280.789 58.0938C280.935 57.9375 281.049 57.776 281.133 57.6094V55.8984H279.789C278.945 55.8984 278.289 56.0234 277.82 56.2734C277.352 56.5234 277.117 56.9167 277.117 57.4531C277.117 57.6615 277.151 57.8542 277.219 58.0312C277.292 58.2083 277.398 58.362 277.539 58.4922C277.68 58.6172 277.857 58.7161 278.07 58.7891C278.284 58.862 278.531 58.8984 278.812 58.8984ZM292.555 55.8672C292.555 56.4714 292.482 57.0365 292.336 57.5625C292.19 58.0833 291.977 58.5365 291.695 58.9219C291.414 59.3073 291.065 59.6094 290.648 59.8281C290.237 60.0469 289.766 60.1562 289.234 60.1562C288.719 60.1562 288.263 60.0729 287.867 59.9062C287.477 59.7396 287.141 59.5 286.859 59.1875V63.25H285.414V51.5469H286.734L286.805 52.4688C287.086 52.1198 287.424 51.8542 287.82 51.6719C288.221 51.4844 288.685 51.3906 289.211 51.3906C289.753 51.3906 290.232 51.4974 290.648 51.7109C291.065 51.9245 291.414 52.2214 291.695 52.6016C291.977 52.9818 292.19 53.4375 292.336 53.9688C292.482 54.4948 292.555 55.0729 292.555 55.7031V55.8672ZM291.109 55.7031C291.109 55.2917 291.062 54.901 290.969 54.5312C290.88 54.1562 290.74 53.8281 290.547 53.5469C290.359 53.2604 290.12 53.0339 289.828 52.8672C289.536 52.7005 289.188 52.6172 288.781 52.6172C288.318 52.6172 287.927 52.7266 287.609 52.9453C287.297 53.1589 287.047 53.4349 286.859 53.7734V57.8438C287.047 58.1771 287.297 58.4505 287.609 58.6641C287.922 58.8724 288.318 58.9766 288.797 58.9766C289.198 58.9766 289.544 58.8932 289.836 58.7266C290.128 58.5547 290.367 58.3255 290.555 58.0391C290.742 57.7526 290.88 57.4219 290.969 57.0469C291.062 56.6719 291.109 56.2786 291.109 55.8672V55.7031ZM302.164 55.8672C302.164 56.4714 302.091 57.0365 301.945 57.5625C301.799 58.0833 301.586 58.5365 301.305 58.9219C301.023 59.3073 300.674 59.6094 300.258 59.8281C299.846 60.0469 299.375 60.1562 298.844 60.1562C298.328 60.1562 297.872 60.0729 297.477 59.9062C297.086 59.7396 296.75 59.5 296.469 59.1875V63.25H295.023V51.5469H296.344L296.414 52.4688C296.695 52.1198 297.034 51.8542 297.43 51.6719C297.831 51.4844 298.294 51.3906 298.82 51.3906C299.362 51.3906 299.841 51.4974 300.258 51.7109C300.674 51.9245 301.023 52.2214 301.305 52.6016C301.586 52.9818 301.799 53.4375 301.945 53.9688C302.091 54.4948 302.164 55.0729 302.164 55.7031V55.8672ZM300.719 55.7031C300.719 55.2917 300.672 54.901 300.578 54.5312C300.49 54.1562 300.349 53.8281 300.156 53.5469C299.969 53.2604 299.729 53.0339 299.438 52.8672C299.146 52.7005 298.797 52.6172 298.391 52.6172C297.927 52.6172 297.536 52.7266 297.219 52.9453C296.906 53.1589 296.656 53.4349 296.469 53.7734V57.8438C296.656 58.1771 296.906 58.4505 297.219 58.6641C297.531 58.8724 297.927 58.9766 298.406 58.9766C298.807 58.9766 299.154 58.8932 299.445 58.7266C299.737 58.5547 299.977 58.3255 300.164 58.0391C300.352 57.7526 300.49 57.4219 300.578 57.0469C300.672 56.6719 300.719 56.2786 300.719 55.8672V55.7031ZM308.375 60.1562C307.781 60.1562 307.234 60.0547 306.734 59.8516C306.24 59.6484 305.815 59.3646 305.461 59C305.107 58.6354 304.831 58.2031 304.633 57.7031C304.435 57.2031 304.336 56.6589 304.336 56.0703V55.7422C304.336 55.0599 304.445 54.4505 304.664 53.9141C304.883 53.3724 305.172 52.9167 305.531 52.5469C305.896 52.1719 306.307 51.8854 306.766 51.6875C307.229 51.4896 307.703 51.3906 308.188 51.3906C308.797 51.3906 309.328 51.4974 309.781 51.7109C310.24 51.9193 310.62 52.2109 310.922 52.5859C311.224 52.9557 311.448 53.3932 311.594 53.8984C311.745 54.4036 311.82 54.9505 311.82 55.5391V56.1875H305.781C305.797 56.5729 305.87 56.9349 306 57.2734C306.135 57.612 306.318 57.9089 306.547 58.1641C306.781 58.4141 307.06 58.612 307.383 58.7578C307.706 58.9036 308.062 58.9766 308.453 58.9766C308.969 58.9766 309.427 58.8724 309.828 58.6641C310.229 58.4557 310.562 58.1797 310.828 57.8359L311.711 58.5234C311.57 58.737 311.393 58.9427 311.18 59.1406C310.971 59.3333 310.729 59.5052 310.453 59.6562C310.177 59.8073 309.865 59.9271 309.516 60.0156C309.167 60.1094 308.786 60.1562 308.375 60.1562ZM308.188 52.5781C307.896 52.5781 307.62 52.6328 307.359 52.7422C307.099 52.8464 306.865 53.0026 306.656 53.2109C306.448 53.4141 306.271 53.6667 306.125 53.9688C305.984 54.2656 305.885 54.6094 305.828 55H310.375V54.8906C310.359 54.6094 310.305 54.3307 310.211 54.0547C310.122 53.7786 309.99 53.5312 309.812 53.3125C309.635 53.0938 309.411 52.9167 309.141 52.7812C308.875 52.6458 308.557 52.5781 308.188 52.5781ZM319.789 51.3906C319.924 51.3906 320.065 51.3958 320.211 51.4062C320.357 51.4115 320.495 51.4245 320.625 51.4453C320.76 51.4609 320.883 51.4818 320.992 51.5078C321.107 51.5339 321.201 51.5625 321.273 51.5938L321.078 53.0078C320.797 52.9453 320.529 52.901 320.273 52.875C320.023 52.8438 319.76 52.8281 319.484 52.8281C318.807 52.8281 318.258 52.9818 317.836 53.2891C317.419 53.5964 317.112 54.026 316.914 54.5781V60H315.461V51.5469H316.836L316.906 52.8906C317.25 52.4271 317.661 52.0625 318.141 51.7969C318.625 51.526 319.174 51.3906 319.789 51.3906Z" fill="#00AE99"/>
<path d="M136.061 18.1152H140.098V19H134.678V18.2031L138.463 13.5566H134.73V12.6602H139.887V13.4277L136.061 18.1152ZM146.121 12.543C146.223 12.543 146.328 12.5469 146.438 12.5547C146.547 12.5586 146.65 12.5684 146.748 12.584C146.85 12.5957 146.941 12.6113 147.023 12.6309C147.109 12.6504 147.18 12.6719 147.234 12.6953L147.088 13.7559C146.877 13.709 146.676 13.6758 146.484 13.6562C146.297 13.6328 146.1 13.6211 145.893 13.6211C145.385 13.6211 144.973 13.7363 144.656 13.9668C144.344 14.1973 144.113 14.5195 143.965 14.9336V19H142.875V12.6602H143.906L143.959 13.668C144.217 13.3203 144.525 13.0469 144.885 12.8477C145.248 12.6445 145.66 12.543 146.121 12.543ZM151.793 15.0098L153.486 12.6602H154.758L152.396 15.7949L154.822 19H153.568L151.816 16.5859L150.064 19H148.799L151.225 15.7949L148.863 12.6602H150.117L151.793 15.0098ZM162.152 14.377C162.141 14.6895 162.104 15.0098 162.041 15.3379C161.979 15.6621 161.883 15.957 161.754 16.2227C161.629 16.4883 161.467 16.7051 161.268 16.873C161.068 17.041 160.824 17.125 160.535 17.125C160.297 17.125 160.098 17.0625 159.938 16.9375C159.781 16.8125 159.67 16.6387 159.604 16.416C159.467 16.6348 159.297 16.8086 159.094 16.9375C158.895 17.0625 158.674 17.125 158.432 17.125C158.24 17.125 158.074 17.0742 157.934 16.9727C157.793 16.8711 157.678 16.7285 157.588 16.5449C157.502 16.3613 157.441 16.1426 157.406 15.8887C157.375 15.6348 157.371 15.3555 157.395 15.0508C157.43 14.6172 157.502 14.2266 157.611 13.8789C157.721 13.5273 157.861 13.2305 158.033 12.9883C158.209 12.7422 158.412 12.5547 158.643 12.4258C158.873 12.293 159.127 12.2266 159.404 12.2266C159.666 12.2266 159.883 12.2793 160.055 12.3848C160.227 12.4863 160.363 12.6074 160.465 12.748L160.207 15.7012C160.195 15.8613 160.199 15.9922 160.219 16.0938C160.238 16.1914 160.266 16.2695 160.301 16.3281C160.34 16.3828 160.387 16.4199 160.441 16.4395C160.496 16.459 160.555 16.4688 160.617 16.4688C160.762 16.4688 160.889 16.4141 160.998 16.3047C161.111 16.1914 161.205 16.041 161.279 15.8535C161.354 15.6621 161.41 15.4395 161.449 15.1855C161.488 14.9316 161.51 14.6621 161.514 14.377C161.529 13.8809 161.488 13.4355 161.391 13.041C161.293 12.6465 161.143 12.3125 160.939 12.0391C160.74 11.7656 160.494 11.5566 160.201 11.4121C159.908 11.2676 159.574 11.1953 159.199 11.1953C158.805 11.1953 158.443 11.2891 158.115 11.4766C157.791 11.6602 157.51 11.918 157.271 12.25C157.033 12.582 156.846 12.9785 156.709 13.4395C156.572 13.9004 156.496 14.4043 156.48 14.9512C156.461 15.4824 156.498 15.9551 156.592 16.3691C156.686 16.7832 156.836 17.1348 157.043 17.4238C157.25 17.709 157.514 17.9277 157.834 18.0801C158.158 18.2285 158.539 18.3027 158.977 18.3027C159.094 18.3027 159.213 18.2949 159.334 18.2793C159.455 18.2598 159.574 18.2344 159.691 18.2031C159.809 18.168 159.92 18.127 160.025 18.0801C160.131 18.0332 160.227 17.9805 160.312 17.9219L160.5 18.6074C160.402 18.6816 160.291 18.7461 160.166 18.8008C160.041 18.8555 159.91 18.9023 159.773 18.9414C159.637 18.9766 159.498 19.002 159.357 19.0176C159.217 19.0371 159.084 19.0469 158.959 19.0469C158.385 19.0469 157.891 18.9473 157.477 18.748C157.066 18.5449 156.73 18.2617 156.469 17.8984C156.211 17.5352 156.023 17.1035 155.906 16.6035C155.793 16.0996 155.746 15.5488 155.766 14.9512C155.781 14.5488 155.83 14.1582 155.912 13.7793C155.994 13.3965 156.105 13.0391 156.246 12.707C156.391 12.375 156.562 12.0723 156.762 11.7988C156.965 11.5215 157.191 11.2832 157.441 11.084C157.691 10.8848 157.965 10.7305 158.262 10.6211C158.562 10.5117 158.881 10.457 159.217 10.457C159.693 10.457 160.117 10.5508 160.488 10.7383C160.859 10.9219 161.17 11.1855 161.42 11.5293C161.674 11.873 161.863 12.2871 161.988 12.7715C162.113 13.252 162.168 13.7871 162.152 14.377ZM158.115 15.0508C158.096 15.4492 158.129 15.7598 158.215 15.9824C158.301 16.2051 158.438 16.3164 158.625 16.3164C158.816 16.3164 158.99 16.2637 159.146 16.1582C159.303 16.0527 159.439 15.877 159.557 15.6309L159.785 13.0234C159.676 12.9727 159.562 12.9473 159.445 12.9473C159.238 12.9473 159.057 12.998 158.9 13.0996C158.748 13.1973 158.619 13.3379 158.514 13.5215C158.408 13.7012 158.322 13.9219 158.256 14.1836C158.193 14.4414 158.146 14.7305 158.115 15.0508ZM167.754 19C167.711 18.918 167.676 18.8164 167.648 18.6953C167.625 18.5703 167.607 18.4414 167.596 18.3086C167.486 18.418 167.363 18.5215 167.227 18.6191C167.094 18.7168 166.945 18.8027 166.781 18.877C166.621 18.9512 166.449 19.0098 166.266 19.0527C166.082 19.0957 165.887 19.1172 165.68 19.1172C165.344 19.1172 165.039 19.0684 164.766 18.9707C164.496 18.873 164.266 18.7422 164.074 18.5781C163.887 18.4102 163.74 18.2129 163.635 17.9863C163.533 17.7559 163.482 17.5078 163.482 17.2422C163.482 16.8945 163.551 16.5898 163.688 16.3281C163.828 16.0664 164.025 15.8496 164.279 15.6777C164.533 15.502 164.838 15.3711 165.193 15.2852C165.553 15.1992 165.953 15.1562 166.395 15.1562H167.578V14.6582C167.578 14.4668 167.543 14.2949 167.473 14.1426C167.402 13.9902 167.303 13.8613 167.174 13.7559C167.045 13.6465 166.887 13.5625 166.699 13.5039C166.516 13.4453 166.309 13.416 166.078 13.416C165.863 13.416 165.67 13.4434 165.498 13.498C165.33 13.5527 165.188 13.625 165.07 13.7148C164.953 13.8047 164.861 13.9121 164.795 14.0371C164.732 14.1582 164.701 14.2852 164.701 14.418H163.611C163.615 14.1875 163.674 13.9609 163.787 13.7383C163.904 13.5156 164.07 13.3164 164.285 13.1406C164.504 12.9609 164.768 12.8164 165.076 12.707C165.389 12.5977 165.742 12.543 166.137 12.543C166.496 12.543 166.83 12.5879 167.139 12.6777C167.447 12.7637 167.713 12.8965 167.936 13.0762C168.162 13.252 168.34 13.4727 168.469 13.7383C168.598 14.0039 168.662 14.3145 168.662 14.6699V17.6172C168.662 17.8281 168.682 18.0527 168.721 18.291C168.76 18.5254 168.814 18.7305 168.885 18.9062V19H167.754ZM165.838 18.1738C166.049 18.1738 166.246 18.1465 166.43 18.0918C166.613 18.0371 166.779 17.9648 166.928 17.875C167.08 17.7852 167.211 17.6836 167.32 17.5703C167.43 17.4531 167.516 17.332 167.578 17.207V15.9238H166.57C165.938 15.9238 165.445 16.0176 165.094 16.2051C164.742 16.3926 164.566 16.6875 164.566 17.0898C164.566 17.2461 164.592 17.3906 164.643 17.5234C164.697 17.6562 164.777 17.7715 164.883 17.8691C164.988 17.9629 165.121 18.0371 165.281 18.0918C165.441 18.1465 165.627 18.1738 165.838 18.1738ZM175.008 17.3184C175.008 17.1895 174.982 17.0742 174.932 16.9727C174.881 16.8672 174.795 16.7715 174.674 16.6855C174.553 16.5996 174.393 16.5215 174.193 16.4512C173.994 16.377 173.746 16.3105 173.449 16.252C173.086 16.1777 172.754 16.0879 172.453 15.9824C172.156 15.877 171.9 15.752 171.686 15.6074C171.475 15.459 171.311 15.2871 171.193 15.0918C171.076 14.8926 171.018 14.6621 171.018 14.4004C171.018 14.1426 171.078 13.9023 171.199 13.6797C171.32 13.4531 171.49 13.2559 171.709 13.0879C171.928 12.9199 172.188 12.7871 172.488 12.6895C172.793 12.5918 173.127 12.543 173.49 12.543C173.881 12.543 174.232 12.5938 174.545 12.6953C174.857 12.7969 175.123 12.9375 175.342 13.1172C175.561 13.2969 175.729 13.5078 175.846 13.75C175.967 13.9883 176.027 14.2461 176.027 14.5234H174.943C174.943 14.3867 174.908 14.2539 174.838 14.125C174.768 13.9922 174.67 13.875 174.545 13.7734C174.42 13.6719 174.268 13.5898 174.088 13.5273C173.912 13.4648 173.713 13.4336 173.49 13.4336C173.26 13.4336 173.057 13.459 172.881 13.5098C172.709 13.5605 172.564 13.6289 172.447 13.7148C172.334 13.8008 172.248 13.9004 172.189 14.0137C172.131 14.127 172.102 14.2441 172.102 14.3652C172.102 14.4902 172.125 14.6016 172.172 14.6992C172.219 14.7969 172.299 14.8848 172.412 14.9629C172.529 15.041 172.684 15.1113 172.875 15.1738C173.07 15.2363 173.316 15.2969 173.613 15.3555C174.004 15.4375 174.354 15.5332 174.662 15.6426C174.971 15.748 175.23 15.877 175.441 16.0293C175.652 16.1777 175.812 16.3516 175.922 16.5508C176.035 16.75 176.092 16.9805 176.092 17.2422C176.092 17.5234 176.027 17.7793 175.898 18.0098C175.773 18.2402 175.598 18.4375 175.371 18.6016C175.145 18.7656 174.873 18.8926 174.557 18.9824C174.24 19.0723 173.895 19.1172 173.52 19.1172C173.09 19.1172 172.707 19.0605 172.371 18.9473C172.035 18.8301 171.75 18.6777 171.516 18.4902C171.285 18.2988 171.107 18.0781 170.982 17.8281C170.861 17.5781 170.801 17.3184 170.801 17.0488H171.885C171.9 17.2715 171.959 17.459 172.061 17.6113C172.166 17.7637 172.295 17.8867 172.447 17.9805C172.604 18.0742 172.775 18.1406 172.963 18.1797C173.15 18.2188 173.336 18.2383 173.52 18.2383C173.977 18.2383 174.338 18.1543 174.604 17.9863C174.869 17.8184 175.004 17.5957 175.008 17.3184ZM182.215 17.3184C182.215 17.1895 182.189 17.0742 182.139 16.9727C182.088 16.8672 182.002 16.7715 181.881 16.6855C181.76 16.5996 181.6 16.5215 181.4 16.4512C181.201 16.377 180.953 16.3105 180.656 16.252C180.293 16.1777 179.961 16.0879 179.66 15.9824C179.363 15.877 179.107 15.752 178.893 15.6074C178.682 15.459 178.518 15.2871 178.4 15.0918C178.283 14.8926 178.225 14.6621 178.225 14.4004C178.225 14.1426 178.285 13.9023 178.406 13.6797C178.527 13.4531 178.697 13.2559 178.916 13.0879C179.135 12.9199 179.395 12.7871 179.695 12.6895C180 12.5918 180.334 12.543 180.697 12.543C181.088 12.543 181.439 12.5938 181.752 12.6953C182.064 12.7969 182.33 12.9375 182.549 13.1172C182.768 13.2969 182.936 13.5078 183.053 13.75C183.174 13.9883 183.234 14.2461 183.234 14.5234H182.15C182.15 14.3867 182.115 14.2539 182.045 14.125C181.975 13.9922 181.877 13.875 181.752 13.7734C181.627 13.6719 181.475 13.5898 181.295 13.5273C181.119 13.4648 180.92 13.4336 180.697 13.4336C180.467 13.4336 180.264 13.459 180.088 13.5098C179.916 13.5605 179.771 13.6289 179.654 13.7148C179.541 13.8008 179.455 13.9004 179.396 14.0137C179.338 14.127 179.309 14.2441 179.309 14.3652C179.309 14.4902 179.332 14.6016 179.379 14.6992C179.426 14.7969 179.506 14.8848 179.619 14.9629C179.736 15.041 179.891 15.1113 180.082 15.1738C180.277 15.2363 180.523 15.2969 180.82 15.3555C181.211 15.4375 181.561 15.5332 181.869 15.6426C182.178 15.748 182.438 15.877 182.648 16.0293C182.859 16.1777 183.02 16.3516 183.129 16.5508C183.242 16.75 183.299 16.9805 183.299 17.2422C183.299 17.5234 183.234 17.7793 183.105 18.0098C182.98 18.2402 182.805 18.4375 182.578 18.6016C182.352 18.7656 182.08 18.8926 181.764 18.9824C181.447 19.0723 181.102 19.1172 180.727 19.1172C180.297 19.1172 179.914 19.0605 179.578 18.9473C179.242 18.8301 178.957 18.6777 178.723 18.4902C178.492 18.2988 178.314 18.0781 178.189 17.8281C178.068 17.5781 178.008 17.3184 178.008 17.0488H179.092C179.107 17.2715 179.166 17.459 179.268 17.6113C179.373 17.7637 179.502 17.8867 179.654 17.9805C179.811 18.0742 179.982 18.1406 180.17 18.1797C180.357 18.2188 180.543 18.2383 180.727 18.2383C181.184 18.2383 181.545 18.1543 181.811 17.9863C182.076 17.8184 182.211 17.5957 182.215 17.3184ZM188.01 19.1172C187.564 19.1172 187.154 19.041 186.779 18.8887C186.408 18.7363 186.09 18.5234 185.824 18.25C185.559 17.9766 185.352 17.6523 185.203 17.2773C185.055 16.9023 184.98 16.4941 184.98 16.0527V15.8066C184.98 15.2949 185.062 14.8379 185.227 14.4355C185.391 14.0293 185.607 13.6875 185.877 13.4102C186.15 13.1289 186.459 12.9141 186.803 12.7656C187.15 12.6172 187.506 12.543 187.869 12.543C188.326 12.543 188.725 12.623 189.064 12.7832C189.408 12.9395 189.693 13.1582 189.92 13.4395C190.146 13.7168 190.314 14.0449 190.424 14.4238C190.537 14.8027 190.594 15.2129 190.594 15.6543V16.1406H186.064C186.076 16.4297 186.131 16.7012 186.229 16.9551C186.33 17.209 186.467 17.4316 186.639 17.623C186.814 17.8105 187.023 17.959 187.266 18.0684C187.508 18.1777 187.775 18.2324 188.068 18.2324C188.455 18.2324 188.799 18.1543 189.1 17.998C189.4 17.8418 189.65 17.6348 189.85 17.377L190.512 17.8926C190.406 18.0527 190.273 18.207 190.113 18.3555C189.957 18.5 189.775 18.6289 189.568 18.7422C189.361 18.8555 189.127 18.9453 188.865 19.0117C188.604 19.082 188.318 19.1172 188.01 19.1172ZM187.869 13.4336C187.65 13.4336 187.443 13.4746 187.248 13.5566C187.053 13.6348 186.877 13.752 186.721 13.9082C186.564 14.0605 186.432 14.25 186.322 14.4766C186.217 14.6992 186.143 14.957 186.1 15.25H189.51V15.168C189.498 14.957 189.457 14.748 189.387 14.541C189.32 14.334 189.221 14.1484 189.088 13.9844C188.955 13.8203 188.787 13.6875 188.584 13.5859C188.385 13.4844 188.146 13.4336 187.869 13.4336ZM194.982 11.125V12.6602H197.396V13.498H194.982V16.9434C194.982 17.1895 195.014 17.3926 195.076 17.5527C195.139 17.7129 195.225 17.8418 195.334 17.9395C195.443 18.0332 195.568 18.0996 195.709 18.1387C195.854 18.1777 196.006 18.1973 196.166 18.1973C196.283 18.1973 196.404 18.1914 196.529 18.1797C196.654 18.1641 196.775 18.1465 196.893 18.127C197.014 18.1074 197.125 18.0879 197.227 18.0684C197.332 18.0449 197.418 18.0254 197.484 18.0098L197.637 18.7773C197.547 18.832 197.438 18.8809 197.309 18.9238C197.18 18.9629 197.039 18.9961 196.887 19.0234C196.734 19.0547 196.572 19.0781 196.4 19.0938C196.232 19.1094 196.064 19.1172 195.896 19.1172C195.615 19.1172 195.352 19.0781 195.105 19C194.863 18.918 194.652 18.791 194.473 18.6191C194.293 18.4434 194.15 18.2188 194.045 17.9453C193.943 17.668 193.893 17.334 193.893 16.9434V13.498H192.229V12.6602H193.893V11.125H194.982ZM204.363 15.7129H199.881V14.8223H204.363V15.7129ZM211.043 17.3184C211.043 17.1895 211.018 17.0742 210.967 16.9727C210.916 16.8672 210.83 16.7715 210.709 16.6855C210.588 16.5996 210.428 16.5215 210.229 16.4512C210.029 16.377 209.781 16.3105 209.484 16.252C209.121 16.1777 208.789 16.0879 208.488 15.9824C208.191 15.877 207.936 15.752 207.721 15.6074C207.51 15.459 207.346 15.2871 207.229 15.0918C207.111 14.8926 207.053 14.6621 207.053 14.4004C207.053 14.1426 207.113 13.9023 207.234 13.6797C207.355 13.4531 207.525 13.2559 207.744 13.0879C207.963 12.9199 208.223 12.7871 208.523 12.6895C208.828 12.5918 209.162 12.543 209.525 12.543C209.916 12.543 210.268 12.5938 210.58 12.6953C210.893 12.7969 211.158 12.9375 211.377 13.1172C211.596 13.2969 211.764 13.5078 211.881 13.75C212.002 13.9883 212.062 14.2461 212.062 14.5234H210.979C210.979 14.3867 210.943 14.2539 210.873 14.125C210.803 13.9922 210.705 13.875 210.58 13.7734C210.455 13.6719 210.303 13.5898 210.123 13.5273C209.947 13.4648 209.748 13.4336 209.525 13.4336C209.295 13.4336 209.092 13.459 208.916 13.5098C208.744 13.5605 208.6 13.6289 208.482 13.7148C208.369 13.8008 208.283 13.9004 208.225 14.0137C208.166 14.127 208.137 14.2441 208.137 14.3652C208.137 14.4902 208.16 14.6016 208.207 14.6992C208.254 14.7969 208.334 14.8848 208.447 14.9629C208.564 15.041 208.719 15.1113 208.91 15.1738C209.105 15.2363 209.352 15.2969 209.648 15.3555C210.039 15.4375 210.389 15.5332 210.697 15.6426C211.006 15.748 211.266 15.877 211.477 16.0293C211.688 16.1777 211.848 16.3516 211.957 16.5508C212.07 16.75 212.127 16.9805 212.127 17.2422C212.127 17.5234 212.062 17.7793 211.934 18.0098C211.809 18.2402 211.633 18.4375 211.406 18.6016C211.18 18.7656 210.908 18.8926 210.592 18.9824C210.275 19.0723 209.93 19.1172 209.555 19.1172C209.125 19.1172 208.742 19.0605 208.406 18.9473C208.07 18.8301 207.785 18.6777 207.551 18.4902C207.32 18.2988 207.143 18.0781 207.018 17.8281C206.896 17.5781 206.836 17.3184 206.836 17.0488H207.92C207.936 17.2715 207.994 17.459 208.096 17.6113C208.201 17.7637 208.33 17.8867 208.482 17.9805C208.639 18.0742 208.811 18.1406 208.998 18.1797C209.186 18.2188 209.371 18.2383 209.555 18.2383C210.012 18.2383 210.373 18.1543 210.639 17.9863C210.904 17.8184 211.039 17.5957 211.043 17.3184ZM214.998 16.7031L215.127 17.6113L215.285 16.7031L216.299 12.6602H216.996L218.004 16.7031L218.174 17.6992L218.332 16.7031L219.035 12.6602H219.996L218.648 19H217.793L216.803 15.1152L216.639 14.1309L216.48 15.1152L215.502 19H214.646L213.299 12.6602H214.26L214.998 16.7031ZM225.41 19C225.367 18.918 225.332 18.8164 225.305 18.6953C225.281 18.5703 225.264 18.4414 225.252 18.3086C225.143 18.418 225.02 18.5215 224.883 18.6191C224.75 18.7168 224.602 18.8027 224.438 18.877C224.277 18.9512 224.105 19.0098 223.922 19.0527C223.738 19.0957 223.543 19.1172 223.336 19.1172C223 19.1172 222.695 19.0684 222.422 18.9707C222.152 18.873 221.922 18.7422 221.73 18.5781C221.543 18.4102 221.396 18.2129 221.291 17.9863C221.189 17.7559 221.139 17.5078 221.139 17.2422C221.139 16.8945 221.207 16.5898 221.344 16.3281C221.484 16.0664 221.682 15.8496 221.936 15.6777C222.189 15.502 222.494 15.3711 222.85 15.2852C223.209 15.1992 223.609 15.1562 224.051 15.1562H225.234V14.6582C225.234 14.4668 225.199 14.2949 225.129 14.1426C225.059 13.9902 224.959 13.8613 224.83 13.7559C224.701 13.6465 224.543 13.5625 224.355 13.5039C224.172 13.4453 223.965 13.416 223.734 13.416C223.52 13.416 223.326 13.4434 223.154 13.498C222.986 13.5527 222.844 13.625 222.727 13.7148C222.609 13.8047 222.518 13.9121 222.451 14.0371C222.389 14.1582 222.357 14.2852 222.357 14.418H221.268C221.271 14.1875 221.33 13.9609 221.443 13.7383C221.561 13.5156 221.727 13.3164 221.941 13.1406C222.16 12.9609 222.424 12.8164 222.732 12.707C223.045 12.5977 223.398 12.543 223.793 12.543C224.152 12.543 224.486 12.5879 224.795 12.6777C225.104 12.7637 225.369 12.8965 225.592 13.0762C225.818 13.252 225.996 13.4727 226.125 13.7383C226.254 14.0039 226.318 14.3145 226.318 14.6699V17.6172C226.318 17.8281 226.338 18.0527 226.377 18.291C226.416 18.5254 226.471 18.7305 226.541 18.9062V19H225.41ZM223.494 18.1738C223.705 18.1738 223.902 18.1465 224.086 18.0918C224.27 18.0371 224.436 17.9648 224.584 17.875C224.736 17.7852 224.867 17.6836 224.977 17.5703C225.086 17.4531 225.172 17.332 225.234 17.207V15.9238H224.227C223.594 15.9238 223.102 16.0176 222.75 16.2051C222.398 16.3926 222.223 16.6875 222.223 17.0898C222.223 17.2461 222.248 17.3906 222.299 17.5234C222.354 17.6562 222.434 17.7715 222.539 17.8691C222.645 17.9629 222.777 18.0371 222.938 18.0918C223.098 18.1465 223.283 18.1738 223.494 18.1738ZM233.801 15.9004C233.801 16.3535 233.746 16.7773 233.637 17.1719C233.527 17.5625 233.367 17.9023 233.156 18.1914C232.945 18.4805 232.684 18.707 232.371 18.8711C232.062 19.0352 231.709 19.1172 231.311 19.1172C230.924 19.1172 230.582 19.0547 230.285 18.9297C229.992 18.8047 229.74 18.625 229.529 18.3906V21.4375H228.445V12.6602H229.436L229.488 13.3516C229.699 13.0898 229.953 12.8906 230.25 12.7539C230.551 12.6133 230.898 12.543 231.293 12.543C231.699 12.543 232.059 12.623 232.371 12.7832C232.684 12.9434 232.945 13.166 233.156 13.4512C233.367 13.7363 233.527 14.0781 233.637 14.4766C233.746 14.8711 233.801 15.3047 233.801 15.7773V15.9004ZM232.717 15.7773C232.717 15.4688 232.682 15.1758 232.611 14.8984C232.545 14.6172 232.439 14.3711 232.295 14.1602C232.154 13.9453 231.975 13.7754 231.756 13.6504C231.537 13.5254 231.275 13.4629 230.971 13.4629C230.623 13.4629 230.33 13.5449 230.092 13.709C229.857 13.8691 229.67 14.0762 229.529 14.3301V17.3828C229.67 17.6328 229.857 17.8379 230.092 17.998C230.326 18.1543 230.623 18.2324 230.982 18.2324C231.283 18.2324 231.543 18.1699 231.762 18.0449C231.98 17.916 232.16 17.7441 232.301 17.5293C232.441 17.3145 232.545 17.0664 232.611 16.7852C232.682 16.5039 232.717 16.209 232.717 15.9004V15.7773ZM241.008 15.9004C241.008 16.3535 240.953 16.7773 240.844 17.1719C240.734 17.5625 240.574 17.9023 240.363 18.1914C240.152 18.4805 239.891 18.707 239.578 18.8711C239.27 19.0352 238.916 19.1172 238.518 19.1172C238.131 19.1172 237.789 19.0547 237.492 18.9297C237.199 18.8047 236.947 18.625 236.736 18.3906V21.4375H235.652V12.6602H236.643L236.695 13.3516C236.906 13.0898 237.16 12.8906 237.457 12.7539C237.758 12.6133 238.105 12.543 238.5 12.543C238.906 12.543 239.266 12.623 239.578 12.7832C239.891 12.9434 240.152 13.166 240.363 13.4512C240.574 13.7363 240.734 14.0781 240.844 14.4766C240.953 14.8711 241.008 15.3047 241.008 15.7773V15.9004ZM239.924 15.7773C239.924 15.4688 239.889 15.1758 239.818 14.8984C239.752 14.6172 239.646 14.3711 239.502 14.1602C239.361 13.9453 239.182 13.7754 238.963 13.6504C238.744 13.5254 238.482 13.4629 238.178 13.4629C237.83 13.4629 237.537 13.5449 237.299 13.709C237.064 13.8691 236.877 14.0762 236.736 14.3301V17.3828C236.877 17.6328 237.064 17.8379 237.299 17.998C237.533 18.1543 237.83 18.2324 238.189 18.2324C238.49 18.2324 238.75 18.1699 238.969 18.0449C239.188 17.916 239.367 17.7441 239.508 17.5293C239.648 17.3145 239.752 17.0664 239.818 16.7852C239.889 16.5039 239.924 16.209 239.924 15.9004V15.7773ZM245.666 19.1172C245.221 19.1172 244.811 19.041 244.436 18.8887C244.064 18.7363 243.746 18.5234 243.48 18.25C243.215 17.9766 243.008 17.6523 242.859 17.2773C242.711 16.9023 242.637 16.4941 242.637 16.0527V15.8066C242.637 15.2949 242.719 14.8379 242.883 14.4355C243.047 14.0293 243.264 13.6875 243.533 13.4102C243.807 13.1289 244.115 12.9141 244.459 12.7656C244.807 12.6172 245.162 12.543 245.525 12.543C245.982 12.543 246.381 12.623 246.721 12.7832C247.064 12.9395 247.35 13.1582 247.576 13.4395C247.803 13.7168 247.971 14.0449 248.08 14.4238C248.193 14.8027 248.25 15.2129 248.25 15.6543V16.1406H243.721C243.732 16.4297 243.787 16.7012 243.885 16.9551C243.986 17.209 244.123 17.4316 244.295 17.623C244.471 17.8105 244.68 17.959 244.922 18.0684C245.164 18.1777 245.432 18.2324 245.725 18.2324C246.111 18.2324 246.455 18.1543 246.756 17.998C247.057 17.8418 247.307 17.6348 247.506 17.377L248.168 17.8926C248.062 18.0527 247.93 18.207 247.77 18.3555C247.613 18.5 247.432 18.6289 247.225 18.7422C247.018 18.8555 246.783 18.9453 246.521 19.0117C246.26 19.082 245.975 19.1172 245.666 19.1172ZM245.525 13.4336C245.307 13.4336 245.1 13.4746 244.904 13.5566C244.709 13.6348 244.533 13.752 244.377 13.9082C244.221 14.0605 244.088 14.25 243.979 14.4766C243.873 14.6992 243.799 14.957 243.756 15.25H247.166V15.168C247.154 14.957 247.113 14.748 247.043 14.541C246.977 14.334 246.877 14.1484 246.744 13.9844C246.611 13.8203 246.443 13.6875 246.24 13.5859C246.041 13.4844 245.803 13.4336 245.525 13.4336ZM254.227 12.543C254.328 12.543 254.434 12.5469 254.543 12.5547C254.652 12.5586 254.756 12.5684 254.854 12.584C254.955 12.5957 255.047 12.6113 255.129 12.6309C255.215 12.6504 255.285 12.6719 255.34 12.6953L255.193 13.7559C254.982 13.709 254.781 13.6758 254.59 13.6562C254.402 13.6328 254.205 13.6211 253.998 13.6211C253.49 13.6211 253.078 13.7363 252.762 13.9668C252.449 14.1973 252.219 14.5195 252.07 14.9336V19H250.98V12.6602H252.012L252.064 13.668C252.322 13.3203 252.631 13.0469 252.99 12.8477C253.354 12.6445 253.766 12.543 254.227 12.543Z" fill="#00AE99"/>
</svg>
