<svg width="109" height="65" viewBox="0 0 109 65" fill="none" xmlns="http://www.w3.org/2000/svg">
<path d="M30.6317 23.6068C30.6317 24.9444 30.7763 26.0289 31.0294 26.8242C31.3186 27.6196 31.6801 28.4872 32.1862 29.4271C32.367 29.7164 32.4393 30.0056 32.4393 30.2586C32.4393 30.6201 32.2224 30.9816 31.7524 31.3432L29.4749 32.8615C29.1495 33.0784 28.8241 33.1869 28.5349 33.1869C28.1734 33.1869 27.8119 33.0061 27.4504 32.6808C26.9443 32.1385 26.5105 31.5601 26.149 30.9816C25.7874 30.3671 25.4259 29.6802 25.0283 28.8487C22.2085 32.1746 18.6656 33.8376 14.3998 33.8376C11.3631 33.8376 8.94094 32.97 7.16953 31.2347C5.39812 29.4994 4.49433 27.1858 4.49433 24.2937C4.49433 21.2208 5.57887 18.7264 7.7841 16.8465C9.98933 14.9666 12.9176 14.0267 16.6412 14.0267C17.8703 14.0267 19.1356 14.1352 20.4732 14.3159C21.8108 14.4967 23.1845 14.7859 24.6306 15.1112V12.4722C24.6306 9.72469 24.0522 7.80868 22.9315 6.68799C21.7746 5.5673 19.8225 5.02503 17.0388 5.02503C15.7735 5.02503 14.4721 5.16963 13.1345 5.49499C11.7969 5.82036 10.4954 6.21802 9.23015 6.72414C8.65173 6.9772 8.21792 7.1218 7.96486 7.1941C7.7118 7.26641 7.53104 7.30256 7.38644 7.30256C6.88032 7.30256 6.62726 6.94105 6.62726 6.18187V4.41046C6.62726 3.83204 6.69956 3.39822 6.88032 3.14516C7.06107 2.8921 7.38644 2.63904 7.89255 2.38598C9.15785 1.73526 10.6762 1.19299 12.4476 0.759177C14.219 0.28921 16.0989 0.0723025 18.0872 0.0723025C22.3892 0.0723025 25.5344 1.04839 27.5589 3.00056C29.5472 4.95272 30.5594 7.91713 30.5594 11.8938V23.6068H30.6317ZM15.9543 29.1018C17.1473 29.1018 18.3764 28.8849 19.6779 28.4511C20.9793 28.0172 22.1362 27.2219 23.1122 26.1374C23.6907 25.4505 24.1245 24.6913 24.3414 23.8237C24.5583 22.9561 24.7029 21.9077 24.7029 20.6785V19.1602C23.6545 18.9071 22.5338 18.6902 21.377 18.5456C20.2201 18.401 19.0995 18.3287 17.9788 18.3287C15.5566 18.3287 13.7852 18.7987 12.5922 19.7747C11.3992 20.7508 10.8208 22.1246 10.8208 23.9321C10.8208 25.6313 11.2546 26.8966 12.1584 27.7642C13.026 28.668 14.2913 29.1018 15.9543 29.1018ZM44.9838 33.0061C44.333 33.0061 43.8992 32.8977 43.61 32.6446C43.3208 32.4277 43.0677 31.9216 42.8508 31.2347L34.3553 3.28977C34.1384 2.56674 34.0299 2.09677 34.0299 1.84372C34.0299 1.26529 34.3191 0.939933 34.8976 0.939933H38.4404C39.1273 0.939933 39.5972 1.04839 39.8503 1.30145C40.1395 1.51835 40.3564 2.02447 40.5733 2.71135L46.6467 26.6435L52.2863 2.71135C52.4671 1.98832 52.684 1.51835 52.9732 1.30145C53.2624 1.08454 53.7685 0.939933 54.4193 0.939933H57.3114C57.9982 0.939933 58.4682 1.04839 58.7574 1.30145C59.0466 1.51835 59.2997 2.02447 59.4443 2.71135L65.1562 26.9327L71.4104 2.71135C71.6273 1.98832 71.8803 1.51835 72.1334 1.30145C72.4226 1.08454 72.8926 0.939933 73.5433 0.939933H76.9053C77.4838 0.939933 77.8091 1.22914 77.8091 1.84372C77.8091 2.02447 77.773 2.20523 77.7368 2.42214C77.7007 2.63904 77.6284 2.92825 77.4838 3.32592L68.7713 31.2709C68.5544 31.9939 68.3013 32.4638 68.0121 32.6808C67.7229 32.8977 67.253 33.0423 66.6384 33.0423H63.5294C62.8425 33.0423 62.3725 32.9338 62.0833 32.6808C61.7941 32.4277 61.5411 31.9577 61.3965 31.2347L55.793 7.91713L50.2257 31.1986C50.0449 31.9216 49.828 32.3915 49.5388 32.6446C49.2496 32.8977 48.7435 33.0061 48.0928 33.0061H44.9838ZM91.4382 33.9822C89.5583 33.9822 87.6784 33.7653 85.8709 33.3315C84.0633 32.8977 82.6534 32.4277 81.7135 31.8854C81.135 31.5601 80.7374 31.1986 80.5928 30.8732C80.4482 30.5478 80.3759 30.1863 80.3759 29.861V28.0172C80.3759 27.2581 80.6651 26.8966 81.2074 26.8966C81.4243 26.8966 81.6412 26.9327 81.8581 27.005C82.075 27.0773 82.4003 27.2219 82.7619 27.3665C83.991 27.9088 85.3286 28.3426 86.7385 28.6318C88.1845 28.921 89.5945 29.0656 91.0405 29.0656C93.318 29.0656 95.0894 28.668 96.3186 27.8726C97.5477 27.0773 98.1984 25.9205 98.1984 24.4383C98.1984 23.426 97.8731 22.5945 97.2224 21.9077C96.5716 21.2208 95.3425 20.6062 93.5711 20.0278L88.3292 18.401C85.6901 17.5695 83.7379 16.3404 82.545 14.7136C81.352 13.1229 80.7374 11.3515 80.7374 9.47163C80.7374 7.95328 81.0627 6.61568 81.7135 5.45884C82.3642 4.302 83.2318 3.28977 84.3164 2.49444C85.4009 1.66296 86.63 1.04839 88.0761 0.614572C89.5221 0.180756 91.0405 0 92.6311 0C93.4265 0 94.258 0.0361513 95.0533 0.144605C95.8848 0.253059 96.6439 0.397664 97.4031 0.542269C98.1261 0.723026 98.813 0.903782 99.4637 1.12069C100.114 1.3376 100.621 1.5545 100.982 1.77141C101.488 2.06062 101.85 2.34983 102.067 2.67519C102.284 2.9644 102.392 3.36207 102.392 3.86819V5.5673C102.392 6.32647 102.103 6.72414 101.561 6.72414C101.271 6.72414 100.801 6.57953 100.187 6.29032C98.1261 5.35039 95.8125 4.88042 93.2457 4.88042C91.1851 4.88042 89.5583 5.20578 88.4376 5.89266C87.3169 6.57953 86.7385 7.62792 86.7385 9.11012C86.7385 10.1224 87.1 10.99 87.823 11.6769C88.5461 12.3637 89.8837 13.0506 91.7997 13.6652L96.9332 15.292C99.536 16.1235 101.416 17.2803 102.537 18.7625C103.657 20.2447 104.2 21.9438 104.2 23.8237C104.2 25.3782 103.874 26.7881 103.26 28.0172C102.609 29.2464 101.741 30.3309 100.621 31.1986C99.4999 32.1023 98.1623 32.7531 96.6078 33.223C94.981 33.7291 93.2819 33.9822 91.4382 33.9822Z" fill="black"/>
<path fill-rule="evenodd" clip-rule="evenodd" d="M98.2708 51.5517C86.377 60.3365 69.0967 65 54.2385 65C33.4154 65 14.6528 57.2998 0.481541 44.5022C-0.639148 43.49 0.373087 42.1162 1.71068 42.9116C17.0388 51.8048 35.9459 57.1913 55.5038 57.1913C68.699 57.1913 83.1957 54.4438 96.5355 48.8042C98.5238 47.9004 100.223 50.1057 98.2708 51.5517Z" fill="black"/>
<path fill-rule="evenodd" clip-rule="evenodd" d="M103.223 45.9121C101.705 43.96 93.1734 44.9722 89.3052 45.4422C88.1484 45.5868 87.9676 44.5745 89.016 43.8154C95.8125 39.0434 106.983 40.4171 108.285 42.0078C109.586 43.6346 107.923 54.8054 101.561 60.1557C100.584 60.9872 99.6445 60.5534 100.078 59.4689C101.524 55.8899 104.742 47.8282 103.223 45.9121Z" fill="black"/>
</svg>
