<svg width="90" height="90" viewBox="0 0 90 90" fill="none" xmlns="http://www.w3.org/2000/svg">
<path d="M2 45C2 68.7579 21.2421 88 45 88C68.7579 88 88 68.7579 88 45C88 21.6448 69.3906 2.63278 46.1793 2.02876C45.7478 2.02876 45.3452 2 44.9137 2C21.2134 2.02876 2 21.2709 2 45Z" stroke="#00AE99" stroke-width="3" stroke-miterlimit="10" stroke-linejoin="round"/>
<path d="M78.8765 52.5843V69.7753H12.1349V52.5843M78.8765 52.5843V21.236H12.1349V52.5843M78.8765 52.5843H51.5731H39.4383H12.1349" stroke="#00AE99" stroke-width="3"/>
<path d="M56.6293 11.1236H34.3821V21.236H56.6293V11.1236Z" stroke="#00AE99" stroke-width="3"/>
<rect width="22.2472" height="6.06742" transform="matrix(1 0 0 -1 34.3821 58.6517)" stroke="#00AE99" stroke-width="3"/>
</svg>
