<svg width="100" height="100" viewBox="0 0 100 100" fill="none" xmlns="http://www.w3.org/2000/svg">
<circle cx="50.0007" cy="50" r="48.6667" stroke="#00AE99" stroke-width="2"/>
<path d="M75.3327 50C75.3327 56.871 72.5973 63.1031 68.1561 67.6667C65.6025 70.2906 47.3327 88.3334 47.3327 88.3334V75.1947C34.5949 73.8622 24.666 63.0906 24.666 50C24.666 36.0088 36.0081 24.6667 49.9993 24.6667C63.9906 24.6667 75.3327 36.0088 75.3327 50Z" stroke="#00AE99" stroke-width="2"/>
<circle cx="50.0007" cy="50" r="2.66667" stroke="#00AE99" stroke-width="2"/>
<circle cx="60.6667" cy="50" r="2.66667" stroke="#00AE99" stroke-width="2"/>
<circle cx="39.3327" cy="50" r="2.66667" stroke="#00AE99" stroke-width="2"/>
<path d="M50.666 24.6667H91.666" stroke="#00AE99" stroke-width="2"/>
<path d="M24.666 49L24.666 8.00003M75.3327 91.6667L75.3327 50" stroke="#00AE99" stroke-width="2"/>
<path d="M8.66602 75.3333H47.666" stroke="#00AE99" stroke-width="2"/>
<path d="M32.7246 31.6843L61.716 2.69289" stroke="#00AE99" stroke-width="2"/>
<path d="M31.545 67.2753L2.55358 38.2839M97.5416 61.6184L68.0788 32.1557" stroke="#00AE99" stroke-width="2"/>
<path d="M38.8516 97.2095L67.8429 68.2181" stroke="#00AE99" stroke-width="2"/>
</svg>
