<svg width="124" height="124" viewBox="0 0 124 124" fill="none" xmlns="http://www.w3.org/2000/svg"><path fill-rule="evenodd" clip-rule="evenodd" d="M61.878.5h.002c.327 0 .64.01.924.02l.01.001a23.966 23.966 0 0 0 .87.02C96.885 1.405 123.5 28.597 123.5 62c0 33.979-27.521 61.5-61.5 61.5S.5 95.979.5 62C.5 28.063 27.979.541 61.878.5zm.002 3C29.64 3.54 3.5 29.717 3.5 62c0 32.322 26.178 58.5 58.5 58.5s58.5-26.178 58.5-58.5c0-31.768-25.308-57.628-56.875-58.46-.32 0-.625-.01-.904-.02h-.01c-.294-.011-.56-.02-.83-.02z" fill="#00AE99"/><path fill-rule="evenodd" clip-rule="evenodd" d="M47.502 98.561l55.419-55.419L88.779 29 47.495 70.284 34.142 56.932 20 71.074l16.573 16.573.008-.007L47.502 98.56zM36.573 83.405l.008-.008 10.921 10.921L98.68 43.142l-9.9-9.9-41.284 41.285-13.353-13.352-9.9 9.9 12.331 12.33z" fill="#00AE99"/></svg>