<svg width="82" height="82" viewBox="0 0 82 82" fill="none" xmlns="http://www.w3.org/2000/svg">
<path fill-rule="evenodd" clip-rule="evenodd" d="M40.9185 1.43051e-06L40.9197 0C41.1377 7.15256e-07 41.3462 0.00719154 41.5359 0.0137337L41.5428 0.0139726C41.7392 0.0207458 41.9163 0.0267566 42.097 0.0267566C42.1057 0.0267566 42.1143 0.0268694 42.123 0.027095C64.2563 0.603056 82 18.7315 82 41C82 63.6526 63.6526 82 41 82C18.3474 82 0 63.6526 0 41C0 18.3752 18.3193 0.0274277 40.9185 1.43051e-06ZM40.9203 2C19.4262 2.02641 2 19.4778 2 41C2 62.548 19.452 80 41 80C62.548 80 80 62.548 80 41C80 19.8212 63.1283 2.58105 42.0835 2.02675C41.8704 2.02646 41.6666 2.01943 41.4808 2.01302L41.4739 2.01278C41.2777 2.00602 41.1008 2.00001 40.9203 2Z" fill="#00AE99"/>
<path fill-rule="evenodd" clip-rule="evenodd" d="M10.7026 14.378C10.7026 13.8257 11.1504 13.378 11.7026 13.378H33.7762C34.3284 13.378 34.7762 13.8257 34.7762 14.378V36.4516C34.7762 37.0039 34.3284 37.4516 33.7762 37.4516H11.7026C11.1504 37.4516 10.7026 37.0039 10.7026 36.4516V14.378ZM12.7026 15.378V35.4516H32.7762V15.378H12.7026Z" fill="#00AE99"/>
<path fill-rule="evenodd" clip-rule="evenodd" d="M38.6621 20.6785L33.0687 15.0851L34.4829 13.6709L40.3692 19.5572C40.5567 19.7447 40.6621 19.9991 40.6621 20.2643V42.3379C40.6621 42.8902 40.2143 43.3379 39.6621 43.3379H17.5885C17.3233 43.3379 17.0689 43.2325 16.8814 43.045L10.9951 37.1587L12.4093 35.7445L18.0027 41.3379H38.6621V20.6785Z" fill="#00AE99"/>
<path fill-rule="evenodd" clip-rule="evenodd" d="M38.6621 42.338C38.6621 41.7857 39.1098 41.338 39.6621 41.338H61.7357C62.288 41.338 62.7357 41.7857 62.7357 42.338V64.4116C62.7357 64.9638 62.288 65.4116 61.7357 65.4116H39.6621C39.1098 65.4116 38.6621 64.9638 38.6621 64.4116V42.338ZM40.6621 43.338V63.4116H60.7357V43.338H40.6621Z" fill="#00AE99"/>
<path fill-rule="evenodd" clip-rule="evenodd" d="M66.622 48.6385L61.0286 43.0451L62.4429 41.6309L68.3291 47.5172C68.5167 47.7047 68.622 47.9591 68.622 48.2243V70.2979C68.622 70.8501 68.1743 71.2979 67.622 71.2979H45.5485C45.2833 71.2979 45.0289 71.1925 44.8414 71.005L38.9551 65.1187L40.3693 63.7045L45.9627 69.2979H66.622V48.6385Z" fill="#00AE99"/>
</svg>
