<svg width="104" height="104" viewBox="0 0 104 104" fill="none" xmlns="http://www.w3.org/2000/svg">
<path d="M37.5485 62.3767L10.6742 80.0615M16.1162 86.694L39.2493 63.9073" stroke="#00AE99" stroke-width="2.5"/>
<path d="M43.1605 67.4788L29.2115 96.3881M21.8987 91.9664L41.2898 65.7782" stroke="#00AE99" stroke-width="2.5"/>
<path d="M64.6767 66.0071L63.4346 66.1475L63.4346 66.1475L64.6767 66.0071ZM65.0025 50.4035L66.2054 50.7435L65.0025 50.4035ZM71.1301 36.7515L70.153 35.9719L70.1082 36.0281L70.0701 36.0891L71.1301 36.7515ZM61.2375 73.5299L60.4186 74.4743L61.3787 75.3068L62.1953 74.3331L61.2375 73.5299ZM47.4561 66.4802L48.3306 67.3734L48.3678 67.337L48.4018 67.2977L47.4561 66.4802ZM45.1781 66.5118L45.9955 65.5661L45.9955 65.5661L45.1781 66.5118ZM44.504 67.2916L45.2499 68.2947L45.36 68.2128L45.4497 68.109L44.504 67.2916ZM43.2195 67.2024L44.037 66.2568L44.037 66.2568L43.2195 67.2024ZM51.486 57.3064L50.6457 58.2318L50.657 58.2421L50.6685 58.2521L51.486 57.3064ZM62.7637 71.4218L63.819 72.0917L63.819 72.0917L62.7637 71.4218ZM76.5283 23.4963L77.6859 23.0248L77.5727 22.7469L77.3457 22.5507L76.5283 23.4963ZM35.9701 41.1929L36.0109 42.4422L36.0109 42.4422L35.9701 41.1929ZM51.3624 38.6129L50.8519 37.4718L51.3624 38.6129ZM63.9842 30.5744L64.793 31.5275L64.8478 31.481L64.8969 31.4285L63.9842 30.5744ZM29.0241 45.6843L28.0908 44.8528L27.2455 45.8017L28.2082 46.6313L29.0241 45.6843ZM37.9936 58.3007L37.0479 57.4833L37.0139 57.5226L36.9833 57.5647L37.9936 58.3007ZM38.2919 60.5593L39.1094 59.6137L39.1094 59.6137L38.2919 60.5593ZM37.6179 61.3391L36.6722 60.5217L36.5825 60.6255L36.5174 60.7463L37.6179 61.3391ZM37.8919 62.5972L38.7094 61.6516L38.7094 61.6515L37.8919 62.5972ZM46.4878 52.9859L45.6704 53.9316L45.6819 53.9416L45.6937 53.9513L46.4878 52.9859ZM30.8892 43.8692L30.0736 42.9219L30.0736 42.9219L30.8892 43.8692ZM76.3188 23.3153L77.1362 22.3696L76.9092 22.1734L76.6179 22.1016L76.3188 23.3153ZM70.1348 36.0655L51.3508 57.796L53.2421 59.4309L72.0261 37.7004L70.1348 36.0655ZM65.9188 65.8667C65.5634 62.7233 64.3047 57.4681 66.2054 50.7435L63.7996 50.0635C61.7311 57.3817 63.1075 63.2547 63.4346 66.1475L65.9188 65.8667ZM66.2054 50.7435C67.7494 45.2809 70.8444 39.5677 72.1902 37.4138L70.0701 36.0891C68.6538 38.3557 65.431 44.2919 63.7996 50.0635L66.2054 50.7435ZM72.1073 37.531C72.8165 36.642 73.9266 35.0937 74.9321 33.5888C75.9127 32.1211 76.8909 30.5525 77.2543 29.671L74.943 28.7181C74.6915 29.3283 73.864 30.6874 72.8534 32.1999C71.8677 33.6752 70.801 35.1596 70.153 35.9719L72.1073 37.531ZM62.0564 72.5855L50.6963 62.7347L49.0585 64.6235L60.4186 74.4743L62.0564 72.5855ZM48.9317 62.8617L46.5104 65.6628L48.4018 67.2977L50.823 64.4966L48.9317 62.8617ZM46.5816 65.5871C46.6163 65.5531 46.6022 65.5735 46.5354 65.6101C46.4766 65.6423 46.4098 65.6684 46.3459 65.6814C46.2855 65.6937 46.2383 65.6924 46.1986 65.6831C46.1638 65.6751 46.0953 65.6523 45.9955 65.5661L44.3607 67.4575C45.1854 68.1704 46.1014 68.2823 46.8439 68.1313C47.5166 67.9946 48.0515 67.6467 48.3306 67.3734L46.5816 65.5871ZM44.2324 65.6944L43.5584 66.4741L45.4497 68.109L46.1238 67.3293L44.2324 65.6944ZM43.7582 66.2885C43.804 66.2544 43.8326 66.2427 43.8431 66.2387C43.857 66.2334 43.8754 66.2284 43.9003 66.2268C43.9278 66.2251 43.9618 66.228 43.9962 66.2392C44.0323 66.251 44.0456 66.2643 44.037 66.2568L42.4021 68.1481C43.5138 69.1091 44.7467 68.6688 45.2499 68.2947L43.7582 66.2885ZM50.6685 58.2521C51.1247 58.6464 51.5236 59.8632 50.612 60.9178L52.5033 62.5527C54.3763 60.3859 53.7352 57.5984 52.3034 56.3607L50.6685 58.2521ZM50.612 60.9178L48.9317 62.8617L50.823 64.4966L52.5033 62.5527L50.612 60.9178ZM62.1953 74.3331C62.6486 73.7926 63.2417 73.0013 63.819 72.0917L61.7083 70.7519C61.1892 71.5698 60.6611 72.2719 60.2798 72.7266L62.1953 74.3331ZM63.819 72.0917C64.381 71.2063 64.9483 70.1773 65.3541 69.1342C65.7512 68.1137 66.0422 66.9586 65.9188 65.8667L63.4346 66.1475C63.4916 66.6522 63.3613 67.3615 63.0243 68.2277C62.6961 69.0712 62.2166 69.9513 61.7083 70.7519L63.819 72.0917ZM50.6948 62.7335L45.811 58.5118L44.1761 60.4032L49.0599 64.6248L50.6948 62.7335ZM48.0426 55.9286C49.1315 56.8715 50.1183 57.753 50.6457 58.2318L52.3263 56.381C51.7849 55.8894 50.7834 54.9948 49.679 54.0386L48.0426 55.9286ZM40.7648 64.3497L44.3607 67.4575L45.9955 65.5661L42.3996 62.4582L40.7648 64.3497ZM39.6096 65.7343L42.4021 68.1481L44.037 66.2568L41.2445 63.8429L39.6096 65.7343ZM77.2543 29.671C77.6017 28.8283 77.9174 27.7261 78.0507 26.5812C78.1821 25.4521 78.1499 24.1638 77.6859 23.0248L75.3706 23.9679C75.6133 24.5637 75.6738 25.3787 75.5675 26.2921C75.463 27.1897 75.2106 28.0692 74.943 28.7181L77.2543 29.671ZM62.9156 29.8252L44.1315 51.5557L46.0229 53.1906L64.8069 31.4601L62.9156 29.8252ZM36.0109 42.4422C38.9206 42.3473 44.9309 42.8595 51.8728 39.7539L50.8519 37.4718C44.4731 40.3255 39.0911 39.8404 35.9294 39.9436L36.0109 42.4422ZM51.8728 39.7539C57.3477 37.3047 62.7552 33.2568 64.793 31.5275L63.1754 29.6213C61.2389 31.2646 56.0337 35.1537 50.8519 37.4718L51.8728 39.7539ZM64.8969 31.4285C65.6069 30.6698 66.9213 29.3996 68.2385 28.2108C69.5889 26.992 70.814 25.9765 71.3813 25.6394L70.1041 23.4903C69.2845 23.9774 67.8738 25.1723 66.5635 26.3549C65.2199 27.5676 63.8485 28.89 63.0715 29.7203L64.8969 31.4285ZM28.2082 46.6313L39.5989 56.4466L41.2308 54.5527L29.8401 44.7374L28.2082 46.6313ZM39.4692 54.6822L37.0479 57.4833L38.9392 59.1182L41.3605 56.3171L39.4692 54.6822ZM36.9833 57.5647C36.7532 57.8804 36.4864 58.46 36.4484 59.1453C36.4065 59.9019 36.6497 60.7921 37.4745 61.505L39.1094 59.6137C39.0096 59.5275 38.9772 59.4629 38.9642 59.4297C38.9494 59.3918 38.9412 59.3452 38.9446 59.2836C38.9482 59.2185 38.9644 59.1487 38.9878 59.0859C39.0143 59.0144 39.0324 58.9976 39.0039 59.0368L36.9833 57.5647ZM37.3462 59.7419L36.6722 60.5217L38.5635 62.1566L39.2376 61.3768L37.3462 59.7419ZM36.5174 60.7463C36.22 61.2983 35.9627 62.5819 37.0745 63.5429L38.7094 61.6515C38.7007 61.6441 38.7158 61.6554 38.7326 61.6893C38.7487 61.7218 38.7565 61.755 38.7588 61.7825C38.7609 61.8074 38.7585 61.8263 38.7553 61.8408C38.7529 61.8517 38.7454 61.8817 38.7183 61.9319L36.5174 60.7463ZM47.3052 52.0403C45.8734 50.8026 43.0225 50.5715 41.1495 52.7383L43.0408 54.3732C43.9524 53.3186 45.2142 53.5373 45.6704 53.9316L47.3052 52.0403ZM41.1495 52.7383L39.4692 54.6822L41.3605 56.3171L43.0408 54.3732L41.1495 52.7383ZM29.9575 46.5158C30.3523 46.0726 30.9705 45.4485 31.7047 44.8165L30.0736 42.9219C29.2572 43.6247 28.56 44.3261 28.0908 44.8528L29.9575 46.5158ZM31.7047 44.8165C32.4234 44.1978 33.2248 43.596 34.012 43.1492C34.8203 42.6904 35.5033 42.4588 36.0109 42.4422L35.9294 39.9436C34.8311 39.9794 33.7302 40.4345 32.7779 40.975C31.8045 41.5275 30.8684 42.2377 30.0736 42.9219L31.7047 44.8165ZM39.5974 56.4453L44.4813 60.667L46.1161 58.7756L41.2323 54.554L39.5974 56.4453ZM49.9826 54.3011C48.8767 53.3467 47.8466 52.4851 47.2819 52.0206L45.6937 53.9513C46.2438 54.4038 47.2588 55.2527 48.3493 56.1937L49.9826 54.3011ZM42.7049 62.7221L39.1094 59.6137L37.4744 61.5049L41.0699 64.6133L42.7049 62.7221ZM41.5018 64.0654L38.7094 61.6516L37.0745 63.5429L39.8669 65.9567L41.5018 64.0654ZM71.3813 25.6394C71.9847 25.2807 72.8184 24.9037 73.6914 24.6705C74.5799 24.4331 75.395 24.375 76.0197 24.529L76.6179 22.1016C75.4237 21.8073 74.1443 21.9618 73.0462 22.2552C71.9326 22.5527 70.8876 23.0246 70.1041 23.4903L71.3813 25.6394ZM77.3457 22.5507L77.1362 22.3696L75.5013 24.2609L75.7108 24.442L77.3457 22.5507Z" fill="#00AE99"/>
<path d="M52 102C79.6142 102 102 79.6142 102 52C102 24.3858 79.6142 2 52 2C24.3858 2 2 24.3858 2 52C2 79.6142 24.3858 102 52 102Z" stroke="#00AE99" stroke-width="2.5" stroke-miterlimit="10"/>
</svg>
