<svg width="151" height="150" viewBox="0 0 151 150" fill="none" xmlns="http://www.w3.org/2000/svg">
<circle cx="76" cy="75" r="73" stroke="#00AE99" stroke-width="3"/>
<rect x="3" y="75" width="45.9619" height="45.9619" transform="rotate(-45 3 75)" stroke="#00AE99" stroke-width="3"/>
<rect x="85" y="75" width="45" height="45" transform="rotate(-45 85 75)" stroke="#00AE99" stroke-width="3"/>
<path d="M89 79L76 92M100 115L85 100L71.5 113.5L63 105L76 92M100 115L113 102M100 115L106 121C97.6605 129.494 89.3395 138.006 81 146.5L38.5 104M76 92L63 79" stroke="#00AE99" stroke-width="3"/>
<path d="M63.5 71.5L76.5 58.5M52.5 35.5L67.5 50.5L81 37L89.5 45.5L76.5 58.5M52.5 35.5L39.5 48.5M52.5 35.5L46.5 29.5C54.8395 21.0061 63.1605 12.4939 71.5 4L114 46.5M76.5 58.5L89.5 71.5" stroke="#00AE99" stroke-width="3"/>
<path d="M93 134.5L87 128.5" stroke="#00AE99" stroke-width="3"/>
<path d="M99 128L93.5 122.5" stroke="#00AE99" stroke-width="3"/>
<path d="M87 140L81.5 134.5" stroke="#00AE99" stroke-width="3"/>
<path d="M60.5 16.5L66.5 22.5" stroke="#00AE99" stroke-width="3"/>
<path d="M54.5 23L60 28.5" stroke="#00AE99" stroke-width="3"/>
<path d="M66.5 11L72 16.5" stroke="#00AE99" stroke-width="3"/>
</svg>
