<svg width="78" height="78" viewBox="0 0 78 78" fill="none" xmlns="http://www.w3.org/2000/svg">
<path d="M39 76C59.4345 76 76 59.4345 76 39C76 18.5655 59.4345 2 39 2C18.5655 2 2.00001 18.5655 2.00001 39C2.00001 59.4345 18.5655 76 39 76Z" stroke="#00AE99" stroke-width="3" stroke-miterlimit="10"/>
<path d="M39.0037 75.9359C59.4007 75.9359 75.9357 59.4009 75.9357 39.0038C75.9357 18.6068 59.4007 2.07178 39.0037 2.07178C18.6066 2.07178 2.07159 18.6068 2.07159 39.0038C2.07159 59.4009 18.6066 75.9359 39.0037 75.9359Z" stroke="#00AE99" stroke-width="3" stroke-miterlimit="10"/>
<path d="M29.0225 53.7728V55.2728H30.5225H50.4155H51.9155V53.7728V47.9811V46.4811H50.4155H45.3684V21.5411V20.0411H43.8684H37.5732H37.1123L36.7309 20.2999L29.6803 25.0843L29.0225 25.5306V26.3255V33.2922V36.1228L31.3648 34.5335L36.0732 31.3385V46.4811H30.5225H29.0225V47.9811V53.7728Z" stroke="#00AE99" stroke-width="3"/>
<path d="M2.06793 38.7483C9.70615 37.4893 15.5817 30.9422 15.5817 22.8843C15.5817 19.275 14.4066 16.0015 12.3921 13.3156C6.09688 19.9465 2.15187 28.9277 2.06793 38.7483Z" stroke="#00AE99" stroke-width="3" stroke-miterlimit="10"/>
<path d="M2.06793 39.2518C2.15187 49.1563 6.09688 58.0535 12.3921 64.6845C14.4066 61.9986 15.5817 58.725 15.5817 55.1158C15.5817 47.0579 9.70615 40.4269 2.06793 39.2518Z" stroke="#00AE99" stroke-width="3" stroke-miterlimit="10"/>
<path d="M75.9322 38.7483C68.294 37.4893 62.4184 30.9422 62.4184 22.8843C62.4184 19.275 63.5936 16.0015 65.608 13.3156C71.9033 19.9465 75.8483 28.9277 75.9322 38.7483Z" stroke="#00AE99" stroke-width="3" stroke-miterlimit="10"/>
<path d="M75.9321 39.2518C75.8482 49.1563 71.9031 58.0536 65.6079 64.6846C63.5934 61.9986 62.4183 58.7251 62.4183 55.1158C62.4183 47.0579 68.2939 40.4269 75.9321 39.2518Z" stroke="#00AE99" stroke-width="3" stroke-miterlimit="10"/>
</svg>
