<svg width="78" height="78" viewBox="0 0 78 78" fill="none" xmlns="http://www.w3.org/2000/svg">
<path d="M38.9868 76C59.4213 76 75.9868 59.4345 75.9868 39C75.9868 18.5655 59.4213 2 38.9868 2C18.5523 2 1.9868 18.5655 1.9868 39C1.9868 59.4345 18.5523 76 38.9868 76Z" stroke="#00AE99" stroke-width="3" stroke-miterlimit="10"/>
<path d="M38.9868 76C59.4213 76 75.9868 59.4345 75.9868 39C75.9868 18.5655 59.4213 2 38.9868 2C18.5523 2 1.9868 18.5655 1.9868 39C1.9868 59.4345 18.5523 76 38.9868 76Z" stroke="#00AE99" stroke-width="3" stroke-miterlimit="10"/>
<path d="M42.7537 37.1178V15.3887H45.8483V9.26685H32.1246V15.3887H35.2192V37.1178C28.1555 38.7996 22.9083 45.1905 22.9083 52.725C22.9083 61.605 30.1064 68.8032 38.9864 68.8032C47.8664 68.8032 55.0646 61.605 55.0646 52.725C55.0646 45.1232 49.8174 38.7996 42.7537 37.1178Z" stroke="#00AE99" stroke-width="3" stroke-miterlimit="10"/>
<path d="M45.848 9.19794H32.1243V15.3197H45.848V9.19794Z" stroke="#00AE99" stroke-width="3" stroke-miterlimit="10"/>
<path d="M25.5996 43.7092H52.3069" stroke="#00AE99" stroke-width="3" stroke-miterlimit="10"/>
</svg>
