<svg width="78" height="78" viewBox="0 0 78 78" fill="none" xmlns="http://www.w3.org/2000/svg">
<path fill-rule="evenodd" clip-rule="evenodd" d="M38.8181 3.5C19.212 3.5 3.31812 19.3939 3.31812 39C3.31812 58.6061 19.212 74.5 38.8181 74.5C58.4242 74.5 74.3181 58.6061 74.3181 39C74.3181 19.3939 58.4242 3.5 38.8181 3.5ZM0.318115 39C0.318115 17.737 17.5552 0.5 38.8181 0.5C60.0811 0.5 77.3181 17.737 77.3181 39C77.3181 60.263 60.0811 77.5 38.8181 77.5C17.5552 77.5 0.318115 60.263 0.318115 39Z" fill="#00AE99"/>
<path fill-rule="evenodd" clip-rule="evenodd" d="M47.0054 10.9473H50.0054V18.5964H57.6545V21.5964H47.0054V10.9473Z" fill="#00AE99"/>
<path fill-rule="evenodd" clip-rule="evenodd" d="M31.0619 9.44727H49.1268L59.1546 19.475V49.8509H31.0619V9.44727ZM34.0619 12.4473V46.8509H56.1546V20.7177L47.8842 12.4473H34.0619Z" fill="#00AE99"/>
<path fill-rule="evenodd" clip-rule="evenodd" d="M19.9818 56.4038H30.6309V67.0529H27.6309V59.4038H19.9818V56.4038Z" fill="#00AE99"/>
<path fill-rule="evenodd" clip-rule="evenodd" d="M18.4818 28.1494H46.5745V68.553H28.5096L18.4818 58.5253V28.1494ZM21.4818 31.1494V57.2826L29.7522 65.553H43.5745V31.1494H21.4818Z" fill="#00AE99"/>
</svg>