<svg width="353" height="80" viewBox="0 0 353 80" fill="none" xmlns="http://www.w3.org/2000/svg">
<path d="M130.818 77C151.253 77 167.818 60.4345 167.818 40C167.818 19.5655 151.253 3 130.818 3C110.384 3 93.8181 19.5655 93.8181 40C93.8181 60.4345 110.384 77 130.818 77Z" stroke="#00AE99" stroke-width="3" stroke-miterlimit="10"/>
<path d="M140.505 11.9474V21.0965H149.654" stroke="#00AE99" stroke-width="3" stroke-miterlimit="10"/>
<path d="M149.655 21.0964V49.351H124.562V11.9473H140.506L149.655 21.0964Z" stroke="#00AE99" stroke-width="3" stroke-miterlimit="10"/>
<path d="M121.131 68.0529V58.9038H111.982" stroke="#00AE99" stroke-width="3" stroke-miterlimit="10"/>
<path d="M111.982 58.9039V30.6494H137.075V68.053H121.131L111.982 58.9039Z" stroke="#00AE99" stroke-width="3" stroke-miterlimit="10"/>
<path d="M40 77C60.4345 77 77 60.4345 77 40C77 19.5655 60.4345 3 40 3C19.5655 3 3.00001 19.5655 3.00001 40C3.00001 60.4345 19.5655 77 40 77Z" stroke="#00AE99" stroke-width="3" stroke-miterlimit="10"/>
<path d="M40.0037 76.9359C60.4007 76.9359 76.9357 60.4009 76.9357 40.0038C76.9357 19.6068 60.4007 3.07178 40.0037 3.07178C19.6066 3.07178 3.07159 19.6068 3.07159 40.0038C3.07159 60.4009 19.6066 76.9359 40.0037 76.9359Z" stroke="#00AE99" stroke-width="3" stroke-miterlimit="10"/>
<path d="M30.0225 54.7728V56.2728H31.5225H51.4155H52.9155V54.7728V48.9811V47.4811H51.4155H46.3684V22.5411V21.0411H44.8684H38.5732H38.1123L37.7309 21.2999L30.6803 26.0843L30.0225 26.5306V27.3255V34.2922V37.1228L32.3648 35.5335L37.0732 32.3385V47.4811H31.5225H30.0225V48.9811V54.7728Z" stroke="#00AE99" stroke-width="3"/>
<path d="M3.06793 39.7483C10.7062 38.4893 16.5817 31.9422 16.5817 23.8843C16.5817 20.275 15.4066 17.0015 13.3921 14.3156C7.09688 20.9465 3.15187 29.9277 3.06793 39.7483Z" stroke="#00AE99" stroke-width="3" stroke-miterlimit="10"/>
<path d="M3.06793 40.2518C3.15187 50.1563 7.09688 59.0535 13.3921 65.6845C15.4066 62.9986 16.5817 59.725 16.5817 56.1158C16.5817 48.0579 10.7062 41.4269 3.06793 40.2518Z" stroke="#00AE99" stroke-width="3" stroke-miterlimit="10"/>
<path d="M76.9322 39.7483C69.294 38.4893 63.4184 31.9422 63.4184 23.8843C63.4184 20.275 64.5936 17.0015 66.608 14.3156C72.9033 20.9465 76.8483 29.9277 76.9322 39.7483Z" stroke="#00AE99" stroke-width="3" stroke-miterlimit="10"/>
<path d="M76.9321 40.2518C76.8482 50.1563 72.9031 59.0536 66.6079 65.6846C64.5934 62.9986 63.4183 59.7251 63.4183 56.1158C63.4183 48.0579 69.2939 41.4269 76.9321 40.2518Z" stroke="#00AE99" stroke-width="3" stroke-miterlimit="10"/>
<path d="M221.987 77C242.421 77 258.987 60.4345 258.987 40C258.987 19.5655 242.421 3 221.987 3C201.552 3 184.987 19.5655 184.987 40C184.987 60.4345 201.552 77 221.987 77Z" stroke="#00AE99" stroke-width="3" stroke-miterlimit="10"/>
<path d="M221.987 77C242.421 77 258.987 60.4345 258.987 40C258.987 19.5655 242.421 3 221.987 3C201.552 3 184.987 19.5655 184.987 40C184.987 60.4345 201.552 77 221.987 77Z" stroke="#00AE99" stroke-width="3" stroke-miterlimit="10"/>
<path d="M225.754 38.1178V16.3887H228.848V10.2668H215.125V16.3887H218.219V38.1178C211.156 39.7996 205.908 46.1905 205.908 53.725C205.908 62.605 213.106 69.8032 221.986 69.8032C230.866 69.8032 238.065 62.605 238.065 53.725C238.065 46.1232 232.817 39.7996 225.754 38.1178Z" stroke="#00AE99" stroke-width="3" stroke-miterlimit="10"/>
<path d="M228.848 10.1979H215.124V16.3197H228.848V10.1979Z" stroke="#00AE99" stroke-width="3" stroke-miterlimit="10"/>
<path d="M208.6 44.7092H235.307" stroke="#00AE99" stroke-width="3" stroke-miterlimit="10"/>
<path d="M312.805 77C333.239 77 349.805 60.4345 349.805 40C349.805 19.5655 333.239 3 312.805 3C292.37 3 275.805 19.5655 275.805 40C275.805 60.4345 292.37 77 312.805 77Z" stroke="#00AE99" stroke-width="3" stroke-miterlimit="10"/>
<path d="M312.607 15.2613L290.287 45.3102H312.607L312.668 64.4778L334.926 34.3678H312.607V15.2613Z" stroke="#00AE99" stroke-width="3" stroke-miterlimit="10"/>
</svg>
