<svg width="80" height="80" viewBox="0 0 80 80" fill="none" xmlns="http://www.w3.org/2000/svg">
<path fill-rule="evenodd" clip-rule="evenodd" d="M40.051 64.5783H24.584V49.1113H40.051V64.5783Z" fill="black"/>
<path fill-rule="evenodd" clip-rule="evenodd" d="M24.584 76.4167H12.7456V64.5783H24.584V76.4167Z" fill="black"/>
<path fill-rule="evenodd" clip-rule="evenodd" d="M12.7456 64.5783H2.81219V54.6449H12.7456V64.5783Z" fill="black"/>
<path d="M40.0057 80V64.4876C56.4253 64.4876 69.1708 48.2041 62.8661 30.9227C60.5528 24.5726 55.4274 19.4472 49.0319 17.1339C31.7505 10.8745 15.467 23.5748 15.467 39.9943H0C0 13.8228 25.3097 -6.58826 52.7513 1.98439C64.7257 5.74909 74.2963 15.2743 78.0156 27.2487C86.5883 54.6903 66.1772 80 40.0057 80Z" fill="black"/>
</svg>
