<svg width="164" height="164" viewBox="0 0 164 164" fill="none" xmlns="http://www.w3.org/2000/svg"><path d="M137.541 137.837v1.5h1.5v-1.5h-1.5zM26.521 26.817v-1.5h-1.5v1.5h1.5zm111.02 0h1.5v-1.5h-1.5v1.5zm22.988 44.833l1.06 1.06 1.061-1.06-1.061-1.06-1.06 1.06zm-41.844 41.843l-1.06 1.061 1.06 1.061 1.061-1.061-1.061-1.061zm-13.947-13.947l-1.061-1.06-1.061 1.06 1.061 1.06 1.061-1.06zm41.843-41.844l1.061-1.06-1.061-1.06-1.061 1.06 1.061 1.06zm-40.449-40.448l1.061 1.06 1.061-1.06-1.061-1.06-1.061 1.06zM64.289 59.097l-1.06 1.06 1.06 1.062 1.06-1.061-1.06-1.06zM50.341 45.15l-1.06-1.06-1.06 1.06 1.06 1.061 1.06-1.06zM92.185 3.306l1.06-1.06-1.06-1.061-1.061 1.06 1.06 1.061zm46.725 62.068l1.06 1.06 1.061-1.06-1.061-1.061-1.06 1.06zm-26.501 26.5l-1.061 1.061 1.061 1.06 1.061-1.06-1.061-1.06zM71.96 51.426l-1.06-1.06-1.06 1.06 1.06 1.06 1.06-1.06zm26.501-26.5l1.06-1.061-1.06-1.061-1.06 1.06 1.06 1.061zm0 53l1.074 1.048 1.035-1.06-1.048-1.048-1.06 1.06zM85.908 65.375l1.06-1.061-1.073-1.074-1.06 1.087 1.073 1.048zm51.633 70.963H39.909v3h97.632v-3zm-109.52-10.255V26.816h-3v99.266h3zm108.02-99.266v37.225h3V26.816h-3zm-36.05 1.5h37.55v-3h-37.55v3zm-73.47 0h42.123v-3H26.52v3zm109.52 66.419v43.102h3V94.735h-3zM160.5 82c0 43.354-35.146 78.5-78.5 78.5v3c45.011 0 81.5-36.489 81.5-81.5h-3zM82 160.5c-43.354 0-78.5-35.146-78.5-78.5h-3c0 45.011 36.489 81.5 81.5 81.5v-3zM3.5 82C3.5 38.646 38.646 3.5 82 3.5v-3C36.989.5.5 36.989.5 82h3zM82 3.5c43.354 0 78.5 35.146 78.5 78.5h3C163.5 36.989 127.011.5 82 .5v3zm77.468 67.09l-41.843 41.843 2.121 2.121 41.843-41.843-2.121-2.121zm-39.722 41.843l-13.948-13.948-2.121 2.121 13.948 13.948 2.121-2.121zm-13.948-11.827l41.844-41.843-2.122-2.121-41.843 41.843 2.121 2.121zm39.722-41.843l13.948 13.948 2.121-2.121-13.947-13.948-2.122 2.121zm-40.448-42.57L63.228 58.036l2.122 2.122 41.843-41.843-2.121-2.122zM65.35 58.036L51.402 44.09l-2.121 2.121 13.947 13.948 2.122-2.122zM51.402 46.21L93.245 4.367l-2.121-2.122L49.281 44.09l2.121 2.121zM91.124 4.367l13.948 13.948 2.121-2.122L93.245 2.245l-2.121 2.122zm46.725 59.946l-26.501 26.5 2.122 2.122 26.5-26.5-2.121-2.122zm-24.379 26.5L73.021 50.366 70.9 52.487l40.448 40.448 2.122-2.121zM73.021 52.488l26.5-26.501-2.12-2.122L70.9 50.365l2.121 2.122zm24.38-26.501l40.448 40.448 2.121-2.121-40.448-40.449-2.122 2.122zm-.013 50.893l-65.296 66.912 2.147 2.095 65.296-66.912-2.147-2.095zm-75.702 56.454l65.296-66.912-2.147-2.095-65.296 66.912 2.147 2.095zm63.161-66.899L97.4 78.987l2.122-2.121-12.553-12.553-2.121 2.121z" fill="#00AE99"/></svg>