<svg width="190" height="190" viewBox="0 0 190 190" fill="none" xmlns="http://www.w3.org/2000/svg">
<circle cx="95" cy="95" r="94" stroke="#00AE99" stroke-width="2"/>
<path fill-rule="evenodd" clip-rule="evenodd" d="M109.058 65.3125L80.3685 124.688H78.2437L106.933 65.3125H109.058ZM112.778 84.9653C112.778 83.3021 113.417 81.9496 114.691 80.9097C116.001 79.8702 117.684 79.3503 119.738 79.3503C121.085 79.3503 122.378 79.4889 123.617 79.766C124.892 80.0432 126.379 80.5802 128.08 81.3783L127.124 83.1456C125.566 82.3829 124.237 81.8459 123.139 81.5338C122.041 81.2566 120.925 81.118 119.792 81.118C118.269 81.118 117.081 81.465 116.232 82.158C115.347 82.851 114.904 83.7697 114.904 84.9134C114.904 86.0226 115.257 86.9758 115.966 87.773C116.71 88.5357 118.357 89.6445 120.908 91.1002C123.21 92.4178 124.874 93.544 125.902 94.4798C126.965 95.4504 127.744 96.4904 128.24 97.5996C128.699 98.7088 128.93 100.043 128.93 101.603C128.93 104.688 128.062 107.132 126.327 108.934C124.591 110.702 122.164 111.586 119.048 111.586C116.038 111.586 113.628 110.736 111.822 109.039C110.05 107.374 109.165 105.139 109.165 102.33C109.165 99.696 109.927 97.5478 111.45 95.8842C112.937 94.1857 115.328 92.9204 118.622 92.0883C116.427 90.8754 114.904 89.7313 114.054 88.6564C113.203 87.5477 112.778 86.3173 112.778 84.9653ZM136.474 81.482L144.657 94.1682L152.945 81.482H155.231L145.826 95.6758L155.974 111.169H153.583L144.604 97.3399L135.465 111.169H133.128L143.329 95.6758L134.084 81.482H136.474ZM115.807 94.6882C114.745 95.2081 113.894 95.8323 113.257 96.5597C112.618 97.2531 112.14 98.0856 111.822 99.0553C111.468 100.026 111.29 101.118 111.29 102.33C111.29 104.585 111.999 106.386 113.416 107.739C114.832 109.089 116.728 109.766 119.101 109.766C121.544 109.766 123.44 109.073 124.785 107.686C126.132 106.264 126.805 104.22 126.805 101.551C126.805 99.7488 126.308 98.1893 125.317 96.8722C124.361 95.5551 122.714 94.3242 120.376 93.1801C118.357 93.6657 116.835 94.1682 115.807 94.6882ZM47.108 79.766C48.3831 80.0432 49.8701 80.5802 51.571 81.3783L50.6143 83.1456C49.0555 82.3829 47.7275 81.8459 46.6297 81.5338C45.5318 81.2566 44.4157 81.118 43.2823 81.118C41.7596 81.118 40.5727 81.465 39.7229 82.158C38.8366 82.851 38.3949 83.7697 38.3949 84.9134C38.3949 86.0226 38.7484 86.9758 39.4575 87.773C40.2008 88.5357 41.8482 89.6445 44.3984 91.1002C46.7005 92.4178 48.3652 93.544 49.3918 94.4798C50.4549 95.4504 51.2343 96.4904 51.73 97.5996C52.1905 98.7088 52.4207 100.043 52.4207 101.603C52.4207 104.688 51.5527 107.132 49.8176 108.934C48.082 110.702 45.6552 111.586 42.5385 111.586C39.5278 111.586 37.1193 110.736 35.3129 109.039C33.5416 107.374 32.6562 105.139 32.6562 102.33C32.6562 99.696 33.4178 97.5478 34.941 95.8842C36.4285 94.1857 38.8192 92.9204 42.1136 92.0883C39.9175 90.8754 38.3948 89.7313 37.5441 88.6564C36.6939 87.5477 36.2691 86.3173 36.2691 84.9653C36.2691 83.3021 36.9068 81.9496 38.1819 80.9097C39.4926 79.8702 41.1748 79.3503 43.2292 79.3503C44.5752 79.3503 45.8681 79.4888 47.108 79.766ZM39.2976 94.6882C38.235 95.2081 37.3852 95.8323 36.7469 96.5597C36.1096 97.2531 35.6313 98.0856 35.3129 99.0553C34.9584 100.026 34.7816 101.118 34.7816 102.33C34.7816 104.585 35.4897 106.386 36.9069 107.739C38.3231 109.089 40.2186 109.766 42.592 109.766C45.0357 109.766 46.9307 109.073 48.2766 107.686C49.6225 106.264 50.2959 104.22 50.2959 101.551C50.2959 99.7488 49.7998 98.1893 48.808 96.8722C47.8518 95.5551 46.2043 94.3242 43.8671 93.1801C41.8482 93.6657 40.3246 94.1682 39.2976 94.6882ZM79.2519 81.482L69.1577 99.68V111.169H66.9785V99.8351L56.8313 81.482H59.275L68.0951 97.7038L76.9672 81.482H79.2519Z" fill="#00AE99"/>
</svg>
