<svg width="84" height="84" viewBox="0 0 84 84" fill="none" xmlns="http://www.w3.org/2000/svg">
<path fill-rule="evenodd" clip-rule="evenodd" d="M42.1187 1.19995L42.1199 1.19995C42.3379 1.19995 42.5464 1.20714 42.7361 1.21368L42.743 1.21392C42.9394 1.2207 43.1165 1.22671 43.2972 1.22671C43.3058 1.22671 43.3145 1.22682 43.3232 1.22705C65.4565 1.80301 83.2002 19.9314 83.2002 42.1999C83.2002 64.8526 64.8528 83.1999 42.2002 83.1999C19.5476 83.1999 1.2002 64.8526 1.2002 42.1999C1.2002 19.5752 19.5195 1.22738 42.1187 1.19995ZM42.1205 3.19995C20.6264 3.22636 3.2002 20.6778 3.2002 42.1999C3.2002 63.748 20.6521 81.1999 42.2002 81.1999C63.7482 81.1999 81.2002 63.748 81.2002 42.1999C81.2002 21.0212 64.3285 3.781 43.2837 3.2267C43.0706 3.22641 42.8668 3.21938 42.681 3.21297L42.6741 3.21274C42.4779 3.20597 42.301 3.19997 42.1205 3.19995Z" fill="#00AE99"/>
<path fill-rule="evenodd" clip-rule="evenodd" d="M68.0979 42.2001C68.0979 42.5434 67.9218 42.8627 67.6314 43.0459L42.7337 58.7489C42.4077 58.9544 41.9927 58.9544 41.6667 58.7489L16.769 43.0459C16.4786 42.8628 16.3025 42.5434 16.3025 42.2001C16.3025 41.8567 16.4786 41.5374 16.769 41.3543L41.6667 25.6513C41.9927 25.4457 42.4077 25.4457 42.7337 25.6513L67.6314 41.3543C67.9218 41.5374 68.0979 41.8567 68.0979 42.2001ZM42.2002 27.6794L19.177 42.2001L42.2002 56.7208L65.2234 42.2001L42.2002 27.6794Z" fill="#00AE99"/>
<path fill-rule="evenodd" clip-rule="evenodd" d="M66.1803 49.8738C66.5224 50.2245 66.5601 50.7714 66.2693 51.1656L43.005 82.7131C42.8165 82.9687 42.5178 83.1196 42.2002 83.1196C41.8826 83.1196 41.5838 82.9687 41.3953 82.7131L18.1311 51.1656C17.8403 50.7714 17.878 50.2245 18.2201 49.8739C18.5621 49.5232 19.1079 49.4719 19.5092 49.7528L42.2002 65.6307L64.8912 49.7528C65.2925 49.4719 65.8383 49.5232 66.1803 49.8738ZM61.0375 54.8904L42.7735 67.6705C42.4292 67.9114 41.9711 67.9114 41.6268 67.6705L23.3628 54.8904L42.2002 80.4347L61.0375 54.8904Z" fill="#00AE99"/>
<path fill-rule="evenodd" clip-rule="evenodd" d="M42.2002 1.28039C42.5439 1.28039 42.8635 1.45687 43.0465 1.74773L68.1713 41.6673L66.4786 42.7326L42.2002 4.15775L17.9218 42.7327L16.2291 41.6673L41.3539 1.74773C41.5369 1.45687 41.8565 1.28039 42.2002 1.28039Z" fill="#00AE99"/>
</svg>
