<svg width="304" height="304" viewBox="0 0 304 304" fill="none" xmlns="http://www.w3.org/2000/svg"><path d="M47.492 47.492v-1.5h-1.5v1.5h1.5zm207.787 0h1.5v-1.5h-1.5v1.5zm0 207.787v1.5h1.5v-1.5h-1.5zm-207.787 0h-1.5v1.5h1.5v-1.5zm22.13-25.82h-1.5v1.5h1.5v-1.5zm88.526-88.525h1.5v-1.5h-1.5v1.5zm-88.525 0v-1.5h-1.5v1.5h1.5zm88.525 88.525v1.5h1.5v-1.5h-1.5zm40.573-129.098h-1.5v1.5h1.5v-1.5zm36.886-36.886h1.5v-1.5h-1.5v1.5zm-36.886 0v-1.5h-1.5v1.5h1.5zm36.886 36.886v1.5h1.5v-1.5h-1.5zM300.5 152c0 82.014-66.486 148.5-148.5 148.5v3c83.671 0 151.5-67.829 151.5-151.5h-3zM152 300.5C69.986 300.5 3.5 234.014 3.5 152h-3c0 83.671 67.829 151.5 151.5 151.5v-3zM3.5 152C3.5 69.986 69.986 3.5 152 3.5v-3C68.329.5.5 68.329.5 152h3zM152 3.5c82.014 0 148.5 66.486 148.5 148.5h3C303.5 68.329 235.671.5 152 .5v3zm26.779 44.607v205.327h3V48.107h-3zM47.492 119.074h133.401v-3H47.492v3zm132.787 0h75v-3h-75v3zM68.123 202.41v27.049h3V202.41h-3zm28.55 25.549h-27.05v3h27.05v-3zm-25.99 2.561l44.263-44.263-2.121-2.121-44.263 44.262 2.122 2.122zm44.263-44.263l44.262-44.262-2.121-2.121-44.262 44.262 2.121 2.121zm41.702-45.323v27.05h3v-27.05h-3zm1.5-1.5h-24.591v3h24.591v-3zm-89.586 2.561l44.263 44.262 2.121-2.121-44.262-44.262-2.122 2.121zm44.263 44.262l44.262 44.263 2.121-2.122-44.262-44.262-2.121 2.121zm46.823 43.202V202.41h-3v27.049h3zm-1.5-1.5h-24.591v3h24.591v-3zm-88.525-85.525h27.05v-3h-27.05v3zm-1.5-1.5v27.05h3v-27.05h-3zM197.22 89.09v11.271h3v-11.27h-3zm12.771 9.77h-11.271v3.001h11.271v-3zm-10.21 2.561l18.443-18.442-2.122-2.122L197.661 99.3l2.121 2.121zm18.443-18.442l18.442-18.443-2.121-2.121-18.443 18.442 2.122 2.122zm15.882-19.504v11.27h3v-11.27h-3zm1.5-1.5h-10.246v3h10.246v-3zm-37.946 2.561l18.442 18.443 2.122-2.122-18.443-18.442-2.121 2.121zm18.442 18.443l18.443 18.442 2.121-2.121-18.442-18.443-2.122 2.122zm21.004 17.382v-11.27h-3v11.27h3zm-1.5-1.5h-10.246v3h10.246v-3zm-36.886-33.886h11.271v-3h-11.271v3zm-1.5-1.5v11.27h3v-11.27h-3zm58.058 190.304H47.492v3h207.787v-3zM47.492 48.992h207.787v-3H47.492v3zm1.5 206.287V47.492h-3v207.787h3zM253.779 47.492v207.787h3V47.492h-3z" fill="#00AE99"/></svg>