<svg width="80" height="80" viewBox="0 0 80 80" fill="none" xmlns="http://www.w3.org/2000/svg">
<path d="M75.584 1.52423e-09H4.384C3.21836 0.00844691 2.10333 0.477429 1.28208 1.30468C0.46083 2.13192 -3.06036e-05 3.25033 1.52424e-09 4.416V75.616C0.00844691 76.7816 0.477429 77.8967 1.30468 78.7179C2.13192 79.5392 3.25033 80 4.416 80H42.736V49.064H32.336V36.952H42.736V28.04C42.736 17.712 49.048 12.08 58.264 12.08C61.3745 12.0668 64.4833 12.227 67.576 12.56V23.36H61.224C56.208 23.36 55.232 25.76 55.232 29.24V36.952H67.2L65.6 49.064H55.2V80H75.584C76.7552 80 77.8784 79.5348 78.7066 78.7066C79.5348 77.8784 80 76.7552 80 75.584V4.384C79.9916 3.21836 79.5226 2.10333 78.6953 1.28208C77.8681 0.46083 76.7497 -3.06036e-05 75.584 1.52424e-09V1.52423e-09Z" fill="black"/>
</svg>
