<svg width="80" height="79" viewBox="0 0 80 79" fill="none" xmlns="http://www.w3.org/2000/svg">
<path d="M1.77783 39.2222C1.77783 60.3403 18.882 77.4444 40 77.4444C61.1181 77.4444 78.2223 60.3403 78.2223 39.2222C78.2223 18.4621 61.6806 1.56247 41.0483 1.02557C40.6648 1.02557 40.3069 1 39.9234 1C18.8564 1.02557 1.77783 18.1297 1.77783 39.2222Z" stroke="#00AE99" stroke-width="2" stroke-miterlimit="10" stroke-linejoin="round"/>
<path d="M60.2261 17.1997V52.2569C60.2261 57.7179 55.7991 62.1449 50.3381 62.1449V62.1449C44.8772 62.1449 40.4502 57.7179 40.4502 52.2569V27.0876C40.4502 21.6267 36.0232 17.1997 30.5623 17.1997V17.1997C25.1013 17.1997 20.6743 21.6267 20.6743 27.0876V62.1449" stroke="#00AE99" stroke-width="2" stroke-linecap="round"/>
<path d="M2 39.2222C2 60.3403 19.1041 77.4444 40.2222 77.4444C61.3403 77.4444 78.4444 60.3403 78.4444 39.2222C78.4444 18.4621 61.9028 1.56247 41.2704 1.02557C40.8869 1.02557 40.529 1 40.1455 1C19.0786 1.02557 2 18.1297 2 39.2222Z" stroke="#00AE99" stroke-width="2" stroke-miterlimit="10" stroke-linejoin="round"/>
<path d="M53.8999 23.492L60.1922 17.1997L66.4846 23.492" stroke="#00AE99" stroke-width="2"/>
<path d="M13.8999 55.4031L20.6417 62.1449L27.3835 55.4031" stroke="#00AE99" stroke-width="2"/>
</svg>
