<svg width="91" height="90" viewBox="0 0 91 90" fill="none" xmlns="http://www.w3.org/2000/svg">
<path d="M2 45C2 68.7579 21.2421 88 45 88C68.7579 88 88 68.7579 88 45C88 21.6448 69.3906 2.63278 46.1793 2.02876C45.7478 2.02876 45.3452 2 44.9137 2C21.2134 2.02876 2 21.2709 2 45Z" stroke="#00AE99" stroke-width="3" stroke-miterlimit="10" stroke-linejoin="round"/>
<path d="M67.7548 20.2253V59.6647C67.7548 65.8083 62.7745 70.7886 56.6309 70.7886V70.7886C50.4873 70.7886 45.507 65.8083 45.507 59.6647V31.3492C45.507 25.2057 40.5266 20.2253 34.383 20.2253V20.2253C28.2395 20.2253 23.2591 25.2057 23.2591 31.3492V70.7886M67.7548 20.2253L60.676 27.3042M67.7548 20.2253L74.8337 27.3042M23.2591 70.7886L15.6746 63.2041M23.2591 70.7886L30.8436 63.2041" stroke="#00AE99" stroke-width="3"/>
</svg>
