<svg width="150" height="150" viewBox="0 0 150 150" fill="none" xmlns="http://www.w3.org/2000/svg">
<path d="M75 148C115.317 148 148 115.317 148 75C148 34.6832 115.317 2 75 2C34.6832 2 2 34.6832 2 75C2 115.317 34.6832 148 75 148Z" stroke="#00AE99" stroke-width="3" stroke-miterlimit="10"/>
<rect x="45" y="4" width="30" height="71" rx="15" stroke="#00AE99" stroke-width="3"/>
<rect x="45" y="4" width="30" height="30" rx="15" stroke="#00AE99" stroke-width="3"/>
<rect x="116" y="45" width="30" height="30" rx="15" stroke="#00AE99" stroke-width="3"/>
<rect x="75" y="116" width="30" height="30" rx="15" stroke="#00AE99" stroke-width="3"/>
<rect x="4" y="75" width="30" height="30" rx="15" stroke="#00AE99" stroke-width="3"/>
<rect x="75" y="75" width="30" height="71" rx="15" stroke="#00AE99" stroke-width="3"/>
<rect x="75" y="45" width="71" height="30" rx="15" stroke="#00AE99" stroke-width="3"/>
<rect x="4" y="75" width="71" height="30" rx="15" stroke="#00AE99" stroke-width="3"/>
<path d="M43.5 19V60H46.5V19H43.5ZM30 73.5C22.5442 73.5 16.5 67.4558 16.5 60H13.5C13.5 69.1127 20.8873 76.5 30 76.5V73.5ZM43.5 60C43.5 67.4558 37.4558 73.5 30 73.5V76.5C39.1127 76.5 46.5 69.1127 46.5 60H43.5ZM106.5 131V90H103.5V131H106.5ZM120 76.5C127.456 76.5 133.5 82.5442 133.5 90H136.5C136.5 80.8873 129.113 73.5 120 73.5V76.5ZM120 73.5C110.887 73.5 103.5 80.8873 103.5 90H106.5C106.5 82.5442 112.544 76.5 120 76.5V73.5ZM131 43.5H90V46.5H131V43.5ZM90 43.5C82.5442 43.5 76.5 37.4558 76.5 30H73.5C73.5 39.1127 80.8873 46.5 90 46.5V43.5ZM90 13.5C80.8873 13.5 73.5 20.8873 73.5 30H76.5C76.5 22.5442 82.5442 16.5 90 16.5V13.5ZM19 106.5H60V103.5H19V106.5ZM73.5 120C73.5 127.456 67.4558 133.5 60 133.5V136.5C69.1127 136.5 76.5 129.113 76.5 120H73.5ZM60 106.5C67.4558 106.5 73.5 112.544 73.5 120H76.5C76.5 110.887 69.1127 103.5 60 103.5V106.5ZM139.099 40.8017C136.843 42.4964 134.041 43.5 131 43.5V46.5C134.713 46.5 138.143 45.2719 140.901 43.2004L139.099 40.8017ZM90 16.5H116.5V13.5H90V16.5ZM16.5 60V33H13.5V60H16.5ZM40.8008 10.8995C42.496 13.1559 43.5 15.9585 43.5 19H46.5C46.5 15.2865 45.2714 11.8556 43.1992 9.09752L40.8008 10.8995ZM19 103.5C15.2865 103.5 11.8556 104.729 9.09752 106.801L10.8995 109.199C13.1559 107.504 15.9585 106.5 19 106.5V103.5ZM60 133.5H33V136.5H60V133.5ZM109.199 139.1C107.504 136.844 106.5 134.041 106.5 131H103.5C103.5 134.714 104.729 138.144 106.801 140.902L109.199 139.1ZM133.5 90V116.5H136.5V90H133.5Z" fill="#00AE99"/>
</svg>
