<svg width="98" height="98" viewBox="0 0 98 98" fill="none" xmlns="http://www.w3.org/2000/svg">
<path fill-rule="evenodd" clip-rule="evenodd" d="M48.9034 0.222229H48.9046C49.1615 0.222229 49.4077 0.230719 49.635 0.238557L49.635 0.238559L49.6421 0.238803C49.8762 0.246877 50.091 0.254188 50.3107 0.254188C50.3194 0.254188 50.3281 0.254301 50.3367 0.254526C76.6685 0.93974 97.7782 22.5071 97.7782 49C97.7782 75.9499 75.9503 97.7778 49.0004 97.7778C22.0505 97.7778 0.222656 75.9499 0.222656 49C0.222656 22.0831 22.0172 0.254859 48.9034 0.222229ZM2.26673 46.9506C2.23745 47.63 2.22266 48.3133 2.22266 49C2.22266 62.5454 7.97225 74.7413 17.1653 83.2817C22.3722 79.648 25.7769 73.6125 25.7769 66.7778C25.7769 55.8583 17.0797 46.9696 6.23097 46.6808C6.11278 46.6805 6.00084 46.6766 5.90587 46.6734L5.89964 46.6732C5.79506 46.6695 5.70978 46.6667 5.62403 46.6667C4.48007 46.6681 3.35844 46.7653 2.26673 46.9506ZM11.7724 45.5228C19.8835 47.843 26.0821 54.6841 27.48 63.1445C30.0989 56.706 35.5233 51.7076 42.2356 49.6672C34.085 47.1915 27.8358 40.357 26.199 31.8745C23.6877 38.3175 18.3827 43.3631 11.7724 45.5228ZM25.7773 75.9828C24.1918 79.4432 21.7397 82.423 18.6982 84.6447C20.8925 86.5116 23.2615 88.1794 25.7773 89.6202V75.9828ZM27.7773 90.7018C27.9008 90.7647 28.0245 90.8271 28.1486 90.8889H69.8523C69.9757 90.8274 70.0989 90.7653 70.2218 90.7027V71.8889C70.2218 60.1682 60.7203 50.6667 48.9996 50.6667C37.2789 50.6667 27.7773 60.1682 27.7773 71.8889V90.7018ZM49.0004 95.7778C43.294 95.7778 37.8271 94.7573 32.7721 92.8889H65.2288C60.1738 94.7573 54.7068 95.7778 49.0004 95.7778ZM95.7782 49C95.7782 62.5456 90.0284 74.7418 80.835 83.2822C75.6277 79.6486 72.2227 73.6128 72.2227 66.7778C72.2227 55.6793 81.2089 46.6805 92.292 46.6667C92.3777 46.6667 92.463 46.6695 92.5676 46.6732L92.5738 46.6734C92.6688 46.6766 92.7808 46.6805 92.8989 46.6808C93.8626 46.7064 94.8093 46.8 95.7344 46.9567C95.7635 47.6342 95.7782 48.3154 95.7782 49ZM72.2218 75.9819C73.8074 79.4429 76.26 82.4232 79.302 84.6452C77.1074 86.5124 74.7381 88.1803 72.2218 89.6212V75.9819ZM72.1232 29.5996C74.5729 37.1711 80.8057 43.0407 88.5928 44.9797C79.3443 46.5515 72.0508 53.8764 70.5195 63.1454C67.9007 56.7065 62.4761 51.7077 55.7635 49.6672C64.6311 46.9737 71.248 39.1209 72.1232 29.5996ZM95.4735 43.6304C93.7836 28.8345 85.1943 16.1345 73 8.83741V22.4444C73 34.1651 82.5015 43.6667 94.2222 43.6667C94.6423 43.6667 95.0595 43.6545 95.4735 43.6304ZM71 7.70654C64.8008 4.40017 57.7683 2.45058 50.2973 2.25418C50.0452 2.25389 49.8036 2.24556 49.5802 2.23786L49.5732 2.23761C49.3393 2.22955 49.1247 2.22224 48.9052 2.22223C41.3007 2.23155 34.1207 4.0593 27.7765 7.29438V18.002C31.3888 9.89118 39.5116 4.23369 48.9538 4.22223L48.955 4.22223C49.0838 4.22223 49.2062 4.22645 49.3102 4.23004L49.3165 4.23026C49.4267 4.23406 49.5175 4.23709 49.609 4.23709C49.6177 4.23709 49.6263 4.23721 49.635 4.23743C59.5801 4.49623 67.9601 11.0111 71 19.9897V7.70654ZM2.43039 44.5616C3.12893 44.631 3.83744 44.6665 4.55425 44.6665C16.275 44.6665 25.7765 35.165 25.7765 23.4443V8.3765C12.9175 15.7447 3.88951 29.052 2.43039 44.5616ZM48.9556 6.22223C37.26 6.23676 27.7773 15.7328 27.7773 27.4445C27.7773 39.1701 37.2739 48.6667 48.9996 48.6667C60.7252 48.6667 70.2218 39.1701 70.2218 27.4445C70.2218 15.9214 61.0437 6.54148 49.5952 6.23708C49.4714 6.23679 49.3541 6.23275 49.2538 6.22929L49.2475 6.22907C49.1376 6.22528 49.0469 6.22224 48.9556 6.22223Z" fill="#00AE99"/>
</svg>
