<svg width="98" height="98" viewBox="0 0 98 98" fill="none" xmlns="http://www.w3.org/2000/svg">
<path d="M1.22266 49C1.22266 75.3976 22.6028 96.7778 49.0004 96.7778C75.3981 96.7778 96.7782 75.3976 96.7782 49C96.7782 23.0498 76.1011 1.92531 50.3107 1.25419C49.8313 1.25419 49.3839 1.22223 48.9046 1.22223C22.5709 1.25419 1.22266 22.6343 1.22266 49Z" stroke="#00AE99" stroke-width="2" stroke-miterlimit="10" stroke-linejoin="round"/>
<mask id="mask0" mask-type="alpha" maskUnits="userSpaceOnUse" x="1" y="1" width="96" height="96">
<path d="M1 49C1 75.5204 22.4796 97 49 97C75.5204 97 97 75.5204 97 49C97 22.9291 76.2267 1.70635 50.3164 1.03211C49.8348 1.03211 49.3853 1 48.9037 1C22.4475 1.03211 1 22.5117 1 49Z" fill="#C4C4C4"/>
</mask>
<g mask="url(#mask0)">
<path d="M26.7773 23.4445C26.7773 35.7224 36.7216 45.6667 48.9996 45.6667C61.2775 45.6667 71.2218 35.7224 71.2218 23.4445C71.2218 11.3746 61.6045 1.54924 49.609 1.23709C49.386 1.23709 49.1779 1.22223 48.955 1.22223C36.7067 1.23709 26.7773 11.1814 26.7773 23.4445Z" stroke="#00AE99" stroke-width="2" stroke-miterlimit="10" stroke-linejoin="round"/>
<path d="M-17.668 23.4443C-17.668 35.7173 -7.71874 45.6665 4.55425 45.6665V45.6665C16.8272 45.6665 26.7765 35.7173 26.7765 23.4443V-3.22239H-17.668V23.4443Z" stroke="#00AE99" stroke-width="2" stroke-miterlimit="10" stroke-linejoin="round"/>
<path d="M26.7773 67.8889C26.7773 55.6159 36.7266 45.6667 48.9996 45.6667V45.6667C61.2726 45.6667 71.2218 55.6159 71.2218 67.8889V87.8889H26.7773V67.8889Z" stroke="#00AE99" stroke-width="2" stroke-miterlimit="10" stroke-linejoin="round"/>
<path d="M71.2227 23.4444C71.2227 35.7174 81.1719 45.6667 93.4449 45.6667V45.6667C105.718 45.6667 115.667 35.7175 115.667 23.4445V-0.99998H71.2227V23.4444Z" stroke="#00AE99" stroke-width="2" stroke-miterlimit="10" stroke-linejoin="round"/>
<path d="M71.2227 66.7778C71.2227 78.4419 80.6697 87.8889 92.3338 87.8889C103.998 87.8889 113.445 78.4419 113.445 66.7778C113.445 55.3114 104.308 45.9774 92.9127 45.6808C92.7009 45.6808 92.5032 45.6667 92.2914 45.6667C80.6556 45.6808 71.2227 55.1279 71.2227 66.7778Z" stroke="#00AE99" stroke-width="2" stroke-miterlimit="10" stroke-linejoin="round"/>
<path d="M-15.4453 66.7778C-15.4453 78.4419 -5.99827 87.8889 5.6658 87.8889C17.3299 87.8889 26.7769 78.4419 26.7769 66.7778C26.7769 55.3114 17.6405 45.9774 6.24476 45.6808C6.03295 45.6808 5.83526 45.6667 5.62344 45.6667C-6.01239 45.6808 -15.4453 55.1279 -15.4453 66.7778Z" stroke="#00AE99" stroke-width="2" stroke-miterlimit="10" stroke-linejoin="round"/>
</g>
</svg>
