<svg width="164" height="164" viewBox="0 0 164 164" fill="none" xmlns="http://www.w3.org/2000/svg"><path d="M81.701 67.588h1.5v-1.5h-1.5v1.5zm0 11.789h-1.5v3.625l2.561-2.565-1.06-1.06zm22.594-22.623l1.061 1.06 1.059-1.06-1.059-1.06-1.061 1.06zM81.701 34.131l1.061-1.06-2.56-2.564v3.624h1.5zm0 11.79v1.5h1.5v-1.5h-1.5zm-20.685 0v-1.5h-1.5v1.5h1.5zm0 21.667h-1.5v1.5h1.5v-1.5zm-27.84 49.836h1.5v-1.5h-1.5v1.5zm0 11.789h-1.5v3.625l2.562-2.565-1.062-1.06zM55.77 106.59l1.062 1.06 1.059-1.06-1.06-1.06-1.06 1.06zM33.176 83.967l1.062-1.06-2.561-2.564v3.624h1.5zm0 11.79v1.5h1.5v-1.5h-1.5zm-20.684 0v-1.5h-1.5v1.5h1.5zm0 21.667h-1.5v1.5h1.5v-1.5zm119.359 0h1.5v-1.5h-1.5v1.5zm0 11.789h-1.5v3.586l2.553-2.518-1.053-1.068zm22.936-22.623l1.053 1.068 1.083-1.068-1.083-1.068-1.053 1.068zm-22.936-22.623l1.053-1.068-2.553-2.518v3.586h1.5zm0 11.79v1.5h1.5v-1.5h-1.5zm-20.999 0v-1.5h-1.5v1.5h1.5zm0 21.667h-1.5v1.5h1.5v-1.5zM160.5 82c0 43.354-35.146 78.5-78.5 78.5v3c45.011 0 81.5-36.489 81.5-81.5h-3zM82 160.5c-43.354 0-78.5-35.146-78.5-78.5h-3c0 45.011 36.489 81.5 81.5 81.5v-3zM3.5 82C3.5 38.646 38.646 3.5 82 3.5v-3C36.989.5.5 36.989.5 82h3zM82 3.5c43.354 0 78.5 35.146 78.5 78.5h3C163.5 36.989 127.011.5 82 .5v3zm22.762 53.582c0 12.952-10.356 23.418-23.09 23.418v3c14.428 0 26.09-11.847 26.09-26.418h-3zM81.672 80.5c-12.733 0-23.09-10.466-23.09-23.418h-3c0 14.571 11.662 26.418 26.09 26.418v-3zm-23.09-23.418c0-12.952 10.357-23.418 23.09-23.418v-3c-14.428 0-26.09 11.846-26.09 26.418h3zm23.09-23.418c12.734 0 23.09 10.466 23.09 23.418h3c0-14.572-11.662-26.418-26.09-26.418v3zm-1.47 33.924v11.789h3v-11.79h-3zm2.56 12.849l22.594-22.623-2.122-2.12L80.64 78.317l2.122 2.12zm22.594-24.743L82.762 33.071l-2.122 2.12 22.594 22.623 2.122-2.12zM80.201 34.131v11.79h3V34.13h-3zm-48.524 83.293v11.789h3v-11.789h-3zm2.56 12.849l22.595-22.623-2.123-2.12-22.594 22.623 2.123 2.12zm22.595-24.743L34.238 82.907l-2.123 2.12L54.71 107.65l2.123-2.12zM31.677 83.967v11.79h3v-11.79h-3zm98.674 33.457v11.789h3v-11.789h-3zm2.553 12.857l22.936-22.623-2.106-2.136-22.937 22.623 2.107 2.136zm22.936-24.759l-22.936-22.623-2.107 2.136 22.937 22.623 2.106-2.136zm-25.489-21.555v11.79h3v-11.79h-3zm-25.589 22.623c0 12.753-10.338 23.09-23.09 23.09v3c14.41 0 26.09-11.681 26.09-26.09h-3zm-23.09 23.09c-12.752 0-23.09-10.337-23.09-23.09h-3c0 14.409 11.68 26.09 26.09 26.09v-3zm-23.09-23.09c0-12.752 10.338-23.09 23.09-23.09v-3c-14.41 0-26.09 11.681-26.09 26.09h3zm23.09-23.09c12.752 0 23.09 10.338 23.09 23.09h3c0-14.409-11.68-26.09-26.09-26.09v3zm-26.09-26.418c0 12.971-10.229 23.418-22.762 23.418v3c14.265 0 25.762-11.866 25.762-26.418h-3zM32.82 80.5c-12.534 0-22.763-10.447-22.763-23.418h-3C7.057 71.634 18.554 83.5 32.82 83.5v-3zM10.057 57.082c0-12.971 10.229-23.418 22.763-23.418v-3c-14.266 0-25.763 11.866-25.763 26.418h3zM32.82 33.664c12.533 0 22.762 10.447 22.762 23.418h3c0-14.552-11.497-26.418-25.762-26.418v3zm22.762 72.926c0 12.772-10.21 23.09-22.762 23.09v3c14.247 0 25.762-11.7 25.762-26.09h-3zM32.82 129.68c-12.553 0-22.763-10.318-22.763-23.09h-3c0 14.39 11.516 26.09 25.763 26.09v-3zm-22.763-23.09c0-12.771 10.21-23.09 22.763-23.09v-3c-14.247 0-25.763 11.7-25.763 26.09h3zM32.82 83.5c12.552 0 22.762 10.319 22.762 23.09h3c0-14.39-11.515-26.09-25.762-26.09v3zm121.123-26.418c0 12.971-10.229 23.418-22.763 23.418v3c14.266 0 25.763-11.866 25.763-26.418h-3zM131.18 80.5c-12.533 0-22.762-10.447-22.762-23.418h-3c0 14.552 11.497 26.418 25.762 26.418v-3zm-22.762-23.418c0-12.971 10.229-23.418 22.762-23.418v-3c-14.265 0-25.762 11.866-25.762 26.418h3zm22.762-23.418c12.534 0 22.763 10.447 22.763 23.418h3c0-14.552-11.497-26.418-25.763-26.418v3zm22.763 72.926c0 12.772-10.21 23.09-22.763 23.09v3c14.247 0 25.763-11.7 25.763-26.09h-3zm-22.763 23.09c-12.552 0-22.762-10.318-22.762-23.09h-3c0 14.39 11.515 26.09 25.762 26.09v-3zm-22.762-23.09c0-12.771 10.21-23.09 22.762-23.09v-3c-14.247 0-25.762 11.7-25.762 26.09h3zM131.18 83.5c12.553 0 22.763 10.319 22.763 23.09h3c0-14.39-11.516-26.09-25.763-26.09v3zM81.701 44.42H61.016v3h20.685v-3zM61.016 69.089h20.685v-3H61.016v3zm-1.5-23.167v21.667h3V45.92h-3zm-26.34 48.336H12.492v3h20.684v-3zm-20.684 24.667h20.684v-3H12.492v3zm-1.5-23.167v21.667h3V95.757h-3zm120.859-1.5h-20.999v3h20.999v-3zm-20.999 24.667h20.999v-3h-20.999v3zm-1.5-23.167v21.667h3V95.757h-3z" fill="#00AE99"/></svg>