<svg width="124" height="124" viewBox="0 0 124 124" fill="none" xmlns="http://www.w3.org/2000/svg"><path d="M121.016 62l1.07 1.052L123.12 62l-1.034-1.052-1.07 1.052zM62 40.283l1.06-1.06L62 38.162l-1.06 1.06L62 40.284zm21.717 21.718l1.06 1.06 1.061-1.06-1.06-1.061L83.717 62zM62 83.718l-1.06 1.06L62 85.84l1.06-1.06L62 83.717zM40.283 62l-1.061-1.06-1.06 1.06 1.06 1.061 1.06-1.06zm80.217 0c0 32.309-26.191 58.5-58.5 58.5v3c33.966 0 61.5-27.534 61.5-61.5h-3zM62 120.5C29.691 120.5 3.5 94.309 3.5 62h-3c0 33.966 27.535 61.5 61.5 61.5v-3zM3.5 62C3.5 29.691 29.691 3.5 62 3.5v-3C28.035.5.5 28.035.5 62h3zM62 3.5c32.309 0 58.5 26.191 58.5 58.5h3C123.5 28.035 95.966.5 62 .5v3zm1.07 119.552l59.016-60-2.139-2.104-59.016 60 2.138 2.104zm59.016-62.104l-59.017-60-2.138 2.104 59.016 60 2.139-2.104zM62 82.631H6.426v3H62v-3zm0-44.262H6.426v3H62v-3zM2 63.5h37.869v-3H2v3zm82.131 0H122v-3H84.131v3zM60.5 2v37.869h3V2h-3zm0 82.131V122h3V84.131h-3zM82.631 62c0 11.394-9.237 20.631-20.631 20.631v3c13.051 0 23.631-10.58 23.631-23.631h-3zM62 82.631c-11.394 0-20.631-9.237-20.631-20.631h-3c0 13.051 10.58 23.631 23.631 23.631v-3zM41.369 62c0-11.394 9.237-20.631 20.631-20.631v-3c-13.051 0-23.631 10.58-23.631 23.631h3zM62 41.369c11.394 0 20.631 9.237 20.631 20.631h3c0-13.051-10.58-23.631-23.631-23.631v3zm-1.06-.025l21.716 21.717 2.122-2.121L63.06 39.223l-2.12 2.121zM82.655 60.94L60.94 82.657l2.121 2.121 21.718-21.717-2.122-2.121zM63.06 82.657L41.343 60.94l-2.121 2.121 21.717 21.717 2.121-2.121zM41.343 63.061L63.06 41.344l-2.12-2.121L39.221 60.94l2.121 2.121z" fill="#00AE99"/></svg>