<svg width="250" height="250" viewBox="0 0 250 250" fill="none" xmlns="http://www.w3.org/2000/svg">
<path d="M177.423 216C176.501 218.606 176 221.411 176 224.333C176 227.953 176.769 231.394 178.154 234.5" stroke="#00AE99" stroke-width="3"/>
<path d="M177.423 199.333C176.501 201.94 176 204.745 176 207.667C176 216.712 180.804 224.636 188 229.025" stroke="#00AE99" stroke-width="3"/>
<path d="M224.577 182.667C225.499 185.273 226 188.078 226 191C226 191.504 225.985 192.004 225.956 192.5M177.423 182.667C176.501 185.273 176 188.078 176 191C176 204.807 187.193 216 201 216C202.712 216 204.384 215.828 206 215.5" stroke="#00AE99" stroke-width="3"/>
<path d="M224.577 166C225.499 168.606 226 171.411 226 174.333C226 188.14 214.807 199.333 201 199.333C187.193 199.333 176 188.14 176 174.333C176 171.411 176.501 168.606 177.423 166" stroke="#00AE99" stroke-width="3"/>
<path d="M224.577 149.333C225.499 151.94 226 154.745 226 157.667C226 171.474 214.807 182.667 201 182.667C187.193 182.667 176 171.474 176 157.667C176 154.745 176.501 151.94 177.423 149.333" stroke="#00AE99" stroke-width="3"/>
<path d="M224.577 132.667C225.499 135.273 226 138.078 226 141C226 154.807 214.807 166 201 166C187.193 166 176 154.807 176 141C176 138.078 176.501 135.273 177.423 132.667" stroke="#00AE99" stroke-width="3"/>
<path d="M224.577 116C225.499 118.606 226 121.411 226 124.333C226 138.14 214.807 149.333 201 149.333C187.193 149.333 176 138.14 176 124.333C176 121.411 176.501 118.606 177.423 116" stroke="#00AE99" stroke-width="3"/>
<path d="M224.577 99.3333C225.499 101.94 226 104.745 226 107.667C226 121.474 214.807 132.667 201 132.667C187.193 132.667 176 121.474 176 107.667C176 104.745 176.501 101.94 177.423 99.3333" stroke="#00AE99" stroke-width="3"/>
<ellipse cx="201" cy="91" rx="25" ry="25" stroke="#00AE99" stroke-width="3"/>
<path d="M193.5 101V102.5H195H207H208.5V101V97.2266V95.7266H207H204.551V80V78.5H203.051H199.253H198.762L198.366 78.7901L194.113 81.9073L193.5 82.3568V83.1172V87.6563V90.6153L195.887 88.8661L197.753 87.4982V95.7266H195H193.5V97.2266V101Z" stroke="#00AE99" stroke-width="3"/>
<path d="M148.577 216.667C149.499 219.273 150 222.078 150 225C150 233.805 145.449 241.546 138.57 246M101.423 216.667C100.501 219.273 100 222.078 100 225C100 233.805 104.551 241.546 111.43 246" stroke="#00AE99" stroke-width="3"/>
<path d="M148.577 234.667C149.499 237.273 150 240.078 150 243C150 243.335 149.993 243.668 149.98 244M101.423 234.667C100.501 237.273 100 240.078 100 243C100 243.335 100.007 243.668 100.02 244" stroke="#00AE99" stroke-width="3"/>
<path d="M148.577 200C149.499 202.606 150 205.411 150 208.333C150 222.14 138.807 233.333 125 233.333C111.193 233.333 100 222.14 100 208.333C100 205.411 100.501 202.606 101.423 200" stroke="#00AE99" stroke-width="3"/>
<path d="M148.577 183.333C149.499 185.94 150 188.745 150 191.667C150 205.474 138.807 216.667 125 216.667C111.193 216.667 100 205.474 100 191.667C100 188.745 100.501 185.94 101.423 183.333" stroke="#00AE99" stroke-width="3"/>
<path d="M148.577 166.667C149.499 169.273 150 172.078 150 175C150 188.807 138.807 200 125 200C111.193 200 100 188.807 100 175C100 172.078 100.501 169.273 101.423 166.667" stroke="#00AE99" stroke-width="3"/>
<path d="M148.577 150C149.499 152.606 150 155.411 150 158.333C150 172.14 138.807 183.333 125 183.333C111.193 183.333 100 172.14 100 158.333C100 155.411 100.501 152.606 101.423 150" stroke="#00AE99" stroke-width="3"/>
<path d="M148.577 133.333C149.499 135.94 150 138.745 150 141.667C150 155.474 138.807 166.667 125 166.667C111.193 166.667 100 155.474 100 141.667C100 138.745 100.501 135.94 101.423 133.333" stroke="#00AE99" stroke-width="3"/>
<circle cx="125" cy="125" r="25" stroke="#00AE99" stroke-width="3"/>
<path d="M117.5 135V136.5H119H131H132.5V135V131.227V129.727H131H128.551V114V112.5H127.051H123.253H122.762L122.366 112.79L118.113 115.907L117.5 116.357V117.117V121.656V124.615L119.887 122.866L121.753 121.498V129.727H119H117.5V131.227V135Z" stroke="#00AE99" stroke-width="3"/>
<path d="M71.5775 216.333C72.4987 218.94 73 221.745 73 224.667C73 227.966 72.3608 231.116 71.1996 234" stroke="#00AE99" stroke-width="3"/>
<path d="M71.5774 199.667C72.4987 202.273 73 205.078 73 208C73 216.834 68.4176 224.599 61.5 229.045" stroke="#00AE99" stroke-width="3"/>
<path d="M23 191.333C23 188.411 23.5013 185.606 24.4225 183M71.5774 183C72.4987 185.606 73 188.411 73 191.333C73 205.14 61.8071 216.333 48 216.333C46.8122 216.333 45.6437 216.25 44.5 216.09" stroke="#00AE99" stroke-width="3"/>
<path d="M71.5774 166.333C72.4987 168.94 73 171.745 73 174.667C73 188.474 61.8071 199.667 48 199.667C34.1929 199.667 23 188.474 23 174.667C23 171.745 23.5013 168.94 24.4225 166.333" stroke="#00AE99" stroke-width="3"/>
<ellipse cx="48" cy="158" rx="25" ry="25" stroke="#00AE99" stroke-width="3"/>
<path d="M40.5 168V169.5H42H54H55.5V168V164.227V162.727H54H51.5506V147V145.5H50.0506H46.2532H45.7623L45.3665 145.79L41.1133 148.907L40.5 149.357V150.117V154.656V157.615L42.8867 155.866L44.7532 154.498V162.727H42H40.5V164.227V168Z" stroke="#00AE99" stroke-width="3"/>
<circle cx="125" cy="125" r="121.667" stroke="#00AE99" stroke-width="3"/>
</svg>
