<svg width="80" height="80" viewBox="0 0 80 80" fill="none" xmlns="http://www.w3.org/2000/svg">
<path fill-rule="evenodd" clip-rule="evenodd" d="M2.08128 39C2.24122 32.8196 3.87939 27.0071 6.65532 21.9029L11.8545 24.9046C9.58681 29.1241 8.24022 33.9122 8.08372 39H2.08128ZM12.8561 23.1735L7.6569 20.1717C10.7847 15.0804 15.0809 10.784 20.1721 7.65598L23.1739 12.8552C18.9917 15.4533 15.454 18.9911 12.8561 23.1735ZM24.905 11.8535C29.1243 9.58564 33.9123 8.23883 39 8.08206V2.07962C32.8197 2.23983 27.0073 3.87823 21.9032 6.65433L24.905 11.8535ZM7.65718 59.8287C10.785 64.9199 15.0812 69.2162 20.1723 72.3441L23.1741 67.1449C18.9919 64.5468 15.4543 61.0092 12.8563 56.827L7.65718 59.8287ZM6.65557 58.0976L11.8547 55.0958C9.58691 50.8762 8.24023 46.0879 8.08372 41H2.08128C2.24123 47.1806 3.8795 52.9933 6.65557 58.0976ZM39 77.9204C32.8198 77.7601 27.0074 76.1218 21.9034 73.3457L24.9052 68.1466C29.1245 70.4144 33.9124 71.7612 39 71.9179V77.9204ZM67.1469 23.1729C64.5487 18.9903 61.0108 15.4525 56.8282 12.8543L59.8299 7.65516C64.9215 10.7831 69.2181 15.0796 72.3461 20.1711L67.1469 23.1729ZM68.1486 24.904C70.4165 29.1236 71.7632 33.912 71.9197 39H77.9221C77.7622 32.8194 76.1239 27.0066 73.3477 21.9022L68.1486 24.904ZM58.0988 6.65358L55.097 11.8528C50.8771 9.58484 46.0884 8.23821 41 8.08196V2.07953C47.181 2.23921 52.9941 3.87742 58.0988 6.65358ZM71.9197 41C71.7632 46.0882 70.4163 50.8767 68.1483 55.0965L73.3475 58.0982C76.1238 52.9937 77.7622 47.1808 77.9221 41H71.9197ZM56.828 67.1458C61.0105 64.5477 64.5484 61.01 67.1467 56.8276L72.3458 59.8293C69.2178 64.9207 64.9212 69.2171 59.8297 72.3449L56.828 67.1458ZM55.0968 68.1473C50.8769 70.4152 46.0883 71.7618 41 71.918V77.9204C47.1809 77.7608 52.994 76.1226 58.0986 73.3465L55.0968 68.1473ZM0.0683594 40C0.0683594 17.9454 17.9471 0.0666504 40.0017 0.0666504C62.0563 0.0666504 79.935 17.9454 79.935 40C79.935 62.0546 62.0563 79.9333 40.0017 79.9333C17.9471 79.9333 0.0683594 62.0546 0.0683594 40ZM40.0017 10.0667C23.47 10.0667 10.0684 23.4683 10.0684 40C10.0684 48.1271 13.3072 55.4977 18.5646 60.8915L32.8481 32.8479L60.7373 18.412C55.3578 13.2436 48.0508 10.0667 40.0017 10.0667ZM61.5874 19.262L47.1523 47.1521L19.1085 61.4354C24.5024 66.6938 31.8737 69.9333 40.0017 69.9333C56.5334 69.9333 69.935 56.5317 69.935 40C69.935 31.9497 66.7571 24.6417 61.5874 19.262ZM21.9084 58.0918L33.8446 35.2586L44.7416 46.1556L21.9084 58.0918ZM35.2589 33.8444L46.1558 44.7413L58.092 21.9082L35.2589 33.8444Z" fill="#00AE99"/>
</svg>
