<svg width="80" height="80" viewBox="0 0 80 80" fill="none" xmlns="http://www.w3.org/2000/svg">
<mask id="mask0" mask-type="alpha" maskUnits="userSpaceOnUse" x="0" y="0" width="80" height="80">
<path d="M40.0009 79.7334C61.945 79.7334 79.7342 61.9442 79.7342 40.0001C79.7342 18.0559 61.945 0.266724 40.0009 0.266724C18.0568 0.266724 0.267578 18.0559 0.267578 40.0001C0.267578 61.9442 18.0568 79.7334 40.0009 79.7334Z" fill="#00AE99"/>
</mask>
<g mask="url(#mask0)">
<circle cx="40.0017" cy="40.0001" r="38.9333" stroke="#00AE99" stroke-width="2"/>
<circle cx="40.0017" cy="40.0001" r="30.9333" stroke="#00AE99" stroke-width="2"/>
<path d="M33.5907 33.589L19.5456 60.4563L46.4129 46.4112M33.5907 33.589L60.458 19.5439L46.4129 46.4112M33.5907 33.589L46.4129 46.4112" stroke="#00AE99" stroke-width="2"/>
<path d="M40 1.06677V9.06677M40 70.9335V78.9335" stroke="#00AE99" stroke-width="2"/>
<path d="M1.06836 40L9.06836 40M70.935 40L78.935 40" stroke="#00AE99" stroke-width="2"/>
<path d="M6.2832 20.5334L13.2114 24.5334M66.7895 55.4668L73.7177 59.4668" stroke="#00AE99" stroke-width="2"/>
<path d="M20.5352 6.28284L24.5352 13.211M55.4685 66.7891L59.4685 73.7174" stroke="#00AE99" stroke-width="2"/>
<path d="M59.4668 6.28284L55.4668 13.211M24.5335 66.7891L20.5335 73.7174" stroke="#00AE99" stroke-width="2"/>
<path d="M73.7188 20.5334L66.7905 24.5334M13.2124 55.4668L6.28424 59.4668" stroke="#00AE99" stroke-width="2"/>
</g>
</svg>
