<svg width="100" height="100" viewBox="0 0 100 100" fill="none" xmlns="http://www.w3.org/2000/svg">
<g clip-path="url(#clip0)">
<path d="M38.5833 97.8122C38.5833 97.6757 38.5716 96.4476 38.5489 94.1264C38.5254 91.8053 38.5144 89.7804 38.5144 88.0526L36.9445 88.3242C35.9435 88.5076 34.6807 88.5853 33.1561 88.5633C31.6323 88.542 30.0504 88.3823 28.4125 88.0854C26.7739 87.7911 25.2498 87.1085 23.8391 86.0392C22.4291 84.9698 21.4281 83.57 20.8364 81.842L20.1538 80.2714C19.6989 79.2257 18.9826 78.064 18.0041 76.7907C17.0256 75.5162 16.0361 74.6522 15.0351 74.1973L14.5572 73.8552C14.2387 73.6278 13.9433 73.3536 13.67 73.0354C13.397 72.7172 13.1926 72.3988 13.0561 72.0798C12.9193 71.7607 13.0326 71.4989 13.3972 71.2935C13.7618 71.0882 14.4207 70.9885 15.3767 70.9885L16.7413 71.1924C17.6515 71.3748 18.7773 71.9197 20.1201 72.8303C21.4623 73.7402 22.5656 74.9231 23.4303 76.3786C24.4774 78.2448 25.739 79.6668 27.2186 80.6453C28.697 81.6238 30.1876 82.1122 31.689 82.1122C33.1903 82.1122 34.487 81.9984 35.5796 81.772C36.671 81.5444 37.6949 81.2023 38.6509 80.7476C39.0605 77.6975 40.1755 75.3544 41.9951 73.7165C39.4016 73.444 37.07 73.0335 34.9989 72.4877C32.929 71.9412 30.7901 71.0542 28.5834 69.8245C26.3756 68.5964 24.5441 67.0713 23.0884 65.252C21.6325 63.4317 20.4376 61.042 19.5055 58.0849C18.5728 55.1266 18.1064 51.7142 18.1064 47.8465C18.1064 42.3395 19.9042 37.6532 23.4991 33.7851C21.8151 29.6448 21.9741 25.0035 23.9766 19.8616C25.2962 19.4516 27.2533 19.7593 29.8467 20.7827C32.4406 21.8067 34.3398 22.6838 35.5461 23.4111C36.7525 24.1381 37.719 24.7542 38.4473 25.2538C42.68 24.0712 47.048 23.4797 51.5526 23.4797C56.0572 23.4797 60.4262 24.0712 64.6592 25.2538L67.2528 23.6165C69.0265 22.5239 71.121 21.5227 73.5313 20.6125C75.9431 19.7029 77.7873 19.4523 79.062 19.8623C81.1089 25.0045 81.2913 29.6456 79.6068 33.7858C83.2015 37.6539 85 42.3414 85 47.8472C85 51.7149 84.5319 55.1381 83.6007 58.1191C82.6683 61.1005 81.4632 63.4879 79.9848 65.2862C78.5047 67.0842 76.6615 68.5973 74.4548 69.8252C72.2478 71.054 70.1081 71.9409 68.0382 72.4875C65.9674 73.034 63.6357 73.4447 61.0423 73.7177C63.4076 75.7646 64.5906 78.9957 64.5906 83.4094V96.5" stroke="#00AE99" stroke-width="2"/>
<path fill-rule="evenodd" clip-rule="evenodd" d="M49.9992 2.2C23.6 2.2 2.19922 23.6008 2.19922 50C2.19922 76.3992 23.6 97.8 49.9992 97.8C76.3984 97.8 97.7992 76.3992 97.7992 50C97.7992 23.6008 76.3984 2.2 49.9992 2.2ZM0.199219 50C0.199219 22.4962 22.4954 0.199997 49.9992 0.199997C77.503 0.199997 99.7992 22.4962 99.7992 50C99.7992 77.5038 77.503 99.8 49.9992 99.8C22.4954 99.8 0.199219 77.5038 0.199219 50Z" fill="#00AE99"/>
</g>
<defs>
<clipPath id="clip0">
<rect width="100" height="100" fill="white"/>
</clipPath>
</defs>
</svg>
