<svg width="100" height="100" viewBox="0 0 100 100" fill="none" xmlns="http://www.w3.org/2000/svg">
<mask id="mask0" mask-type="alpha" maskUnits="userSpaceOnUse" x="0" y="0" width="100" height="100">
<path d="M49.9992 98.8C76.9507 98.8 98.7992 76.9515 98.7992 50C98.7992 23.0485 76.9507 1.20001 49.9992 1.20001C23.0477 1.20001 1.19922 23.0485 1.19922 50C1.19922 76.9515 23.0477 98.8 49.9992 98.8Z" fill="#C4C4C4" stroke="#00AE99" stroke-width="2" stroke-miterlimit="10"/>
</mask>
<g mask="url(#mask0)">
<path d="M49.9992 98.8C76.9507 98.8 98.7992 76.9515 98.7992 50C98.7992 23.0485 76.9507 1.20001 49.9992 1.20001C23.0477 1.20001 1.19922 23.0485 1.19922 50C1.19922 76.9515 23.0477 98.8 49.9992 98.8Z" stroke="#00AE99" stroke-width="2" stroke-miterlimit="10"/>
<path d="M63.8025 95C63.2726 94.4827 63.0079 93.8353 63.0079 93.0599V79.4108C63.0079 75.2275 61.9071 72.1651 59.706 70.225C62.1193 69.9663 64.2891 69.577 66.2161 69.059C68.1422 68.541 70.1333 67.7004 72.1871 66.5357C74.2405 65.3719 75.9558 63.9378 77.3331 62.2336C78.7088 60.5292 79.8303 58.2665 80.6979 55.4407C81.5644 52.6153 82 49.3708 82 45.705C82 40.4866 80.3264 36.0438 76.9813 32.3776C78.5489 28.4535 78.3791 24.0547 76.4743 19.1809C75.2881 18.7923 73.572 19.0298 71.3278 19.892C69.0848 20.7546 67.1358 21.7036 65.4853 22.7391L63.0717 24.291C59.1327 23.1701 55.0671 22.6095 50.8754 22.6095C46.6836 22.6095 42.6189 23.1701 38.6801 24.291C38.0024 23.8174 37.103 23.2335 35.9804 22.5445C34.8579 21.8552 33.0906 21.0238 30.6768 20.0533C28.2634 19.0833 26.4423 18.7917 25.2143 19.1803C23.3509 24.0538 23.203 28.4528 24.77 32.3769C21.4248 36.0431 19.7518 40.4848 19.7518 45.7043C19.7518 49.3701 20.1858 52.6044 21.0537 55.4083C21.9211 58.211 23.033 60.476 24.3878 62.2012C25.7424 63.9256 27.4468 65.371 29.5013 66.535C31.5546 67.7006 33.5451 68.5412 35.4712 69.0592C37.3984 69.5765 39.5682 69.9656 41.9815 70.2239C40.2883 71.7763 39.2507 73.9971 38.8696 76.8879C37.98 77.3189 37.0271 77.6431 36.0116 77.8589C34.9949 78.0734 33.7882 78.1813 32.3911 78.1813C30.994 78.1813 29.6069 77.7184 28.2312 76.791C26.8543 75.8635 25.6804 74.5157 24.706 72.747C23.9013 71.3675 22.8746 70.2463 21.6257 69.3839C20.3761 68.5208 19.3285 68.0044 18.4815 67.8316L17.2117 67.6383C16.322 67.6383 15.7089 67.7328 15.3696 67.9274C15.0304 68.122 14.9249 68.3702 15.0522 68.6727C15.1792 68.9749 15.3694 69.2767 15.6235 69.5783C15.8777 69.8799 16.1527 70.1398 16.449 70.3553L16.8938 70.6796C17.8252 71.1108 18.746 71.9297 19.6566 73.1376C20.5672 74.3444 21.2337 75.4455 21.657 76.4366L22.2922 77.9253C22.8428 79.5631 23.7743 80.8897 25.0864 81.9033C26.3992 82.9168 27.8174 83.5637 29.3422 83.8427C30.8663 84.1241 32.3384 84.2755 33.7564 84.2956C35.1751 84.3165 36.3502 84.2428 37.2816 84.069L38.7426 83.8116C38.7426 85.4492 38.7528 87.3684 38.7746 89.5684C38.7958 91.7684 38.8067 92.7344 38.8067 93.0617C38.8067 93.3891 38.8 94.5 38 96.5" stroke="#00AE99" stroke-width="2" stroke-miterlimit="10"/>
</g>
</svg>
