<svg width="100" height="100" viewBox="0 0 100 100" fill="none" xmlns="http://www.w3.org/2000/svg">
<circle cx="50.0004" cy="49.9999" r="47.7778" stroke="currentColor" stroke-width="2"/>
<circle cx="50.0009" cy="49.9999" r="29.4521" stroke="currentColor" stroke-width="2"/>
<circle cx="50.0004" cy="49.9999" r="11.1263" stroke="currentColor" stroke-width="2"/>
<path d="M97.7779 50C97.7779 55.0605 93.6755 59.1629 88.615 59.1629C83.5545 59.1629 79.4521 55.0605 79.4521 50" stroke="currentColor" stroke-width="2"/>
<path d="M20.5484 50C20.5484 44.9395 16.446 40.8372 11.3855 40.8372C6.32501 40.8372 2.22266 44.9395 2.22266 50" stroke="currentColor" stroke-width="2"/>
<path d="M42.133 42.1323C38.5547 45.7106 32.7531 45.7106 29.1748 42.1323C25.5965 38.554 25.5965 32.7524 29.1748 29.1741" stroke="currentColor" stroke-width="2"/>
<path d="M70.8258 70.8256C74.4041 67.2472 74.4041 61.4456 70.8258 57.8673C67.2475 54.289 61.4459 54.289 57.8676 57.8673" stroke="currentColor" stroke-width="2"/>
<path d="M50 20.5479C55.0605 20.5479 59.1629 16.4455 59.1629 11.385C59.1629 6.32452 55.0605 2.22217 50 2.22217" stroke="currentColor" stroke-width="2"/>
<path d="M50.0007 97.7776C44.9402 97.7776 40.8379 93.6753 40.8379 88.6148C40.8379 83.5543 44.9402 79.4519 50.0007 79.4519" stroke="currentColor" stroke-width="2"/>
<path d="M29.1746 70.8259C32.7529 74.4042 38.5545 74.4042 42.1328 70.8259C45.7111 67.2476 45.7111 61.446 42.1328 57.8677" stroke="currentColor" stroke-width="2"/>
<path d="M57.8676 42.1324C54.2892 38.5541 54.2892 32.7525 57.8676 29.1742C61.4459 25.5959 67.2475 25.5959 70.8258 29.1742" stroke="currentColor" stroke-width="2"/>
</svg>