<svg width="190" height="190" viewBox="0 0 190 190" fill="none" xmlns="http://www.w3.org/2000/svg">
<circle cx="95" cy="95" r="94" stroke="#00AE99" stroke-width="2"/>
<path opacity="0.3" fill-rule="evenodd" clip-rule="evenodd" d="M122.542 80.7481C119.514 87.3529 114.84 93.488 110.411 96.6683L109.955 96.9955L110.724 97.3113C115.115 99.1147 119.663 102.558 122.673 106.357C123.145 106.953 123.627 107.556 123.743 107.696L123.955 107.952L125.294 107.589C128.876 106.62 131.945 104.912 134.501 102.465C135.155 101.839 135.433 101.343 135.129 101.343C135.078 101.343 135.005 101.243 134.966 101.121C134.875 100.834 133.905 99.414 133.469 98.9301C133.284 98.7248 133.133 98.5232 133.133 98.4824C133.132 98.3711 131.287 96.4719 130.546 95.8202C129.807 95.1704 128.195 93.9949 127.306 93.4579L126.703 93.0936L128.004 91.771C129.189 90.5651 129.822 89.813 130.865 88.3715C131.635 87.3083 132.893 84.9269 133.346 83.6743L133.659 82.8098L133.421 82.6225C131.26 80.9249 127.472 79.5754 123.615 79.1296L123.301 79.0933L122.542 80.7481Z" fill="#00AE99"/>
<path fill-rule="evenodd" clip-rule="evenodd" d="M99.8128 52.765C99.6376 53.0248 99.2941 53.5059 99.0497 53.8345C98.8049 54.1628 98.4262 54.6776 98.2079 54.9787C97.4139 56.0735 97.0376 56.5873 95.6209 58.5103C94.8275 59.5877 94.0066 60.7141 93.7966 61.0134C93.5869 61.313 93.3521 61.5823 93.2748 61.6118C93.1978 61.6413 93.1541 61.6972 93.1782 61.7358C93.2019 61.7745 93.0546 62.0273 92.8504 62.2976C92.4821 62.7852 89.3465 67.0573 88.6319 68.0448C87.8283 69.1553 87.4475 69.6753 85.6712 72.0904C84.6589 73.4668 83.674 74.8111 83.4826 75.0775C83.0451 75.686 80.2367 79.5242 79.1149 81.0464C78.6513 81.6758 78.0741 82.4593 77.8323 82.7876C77.2198 83.6197 77.2734 83.6171 76.0691 82.8796C75.4827 82.5207 74.8087 82.1326 74.5712 82.0171C74.3338 81.9017 74.1667 81.7635 74.1999 81.71C74.233 81.6565 74.2168 81.6395 74.1638 81.6721C74.1108 81.7048 73.7446 81.5776 73.3503 81.389C72.9556 81.2005 72.5866 81.0464 72.5299 81.0464C72.473 81.0464 72.4513 81.0067 72.4813 80.9581C72.5114 80.9095 72.4803 80.8745 72.4124 80.8803C72.2645 80.8928 70.5194 80.3401 70.4486 80.2581C70.4212 80.2265 70.2869 80.1954 70.1501 80.1889C70.0132 80.1824 69.5376 80.1322 69.0931 80.0771C66.9457 79.8107 64.7476 80.4245 62.9124 81.8025C61.7311 82.6894 61.2126 83.4011 59.5879 86.3655C59.0143 87.4117 58.3379 88.3799 58.1901 88.3658C58.1514 88.3621 58.0519 88.4489 57.9694 88.5583C57.8866 88.6677 57.8176 88.7296 57.8158 88.6957C57.814 88.662 57.6554 88.7826 57.4632 88.9639C57.0926 89.3133 56.1424 89.8702 55.9951 89.8245C55.9468 89.8093 55.9325 89.8378 55.9633 89.8874C56.0244 89.9864 55.436 90.2669 55.2756 90.2152C55.2207 90.1977 55.2095 90.2168 55.2503 90.2578C55.3406 90.3481 55.1069 90.4931 53.1363 91.5683C50.6204 92.9413 47.3656 94.6011 47.3641 94.5115C47.3633 94.4658 47.3296 94.4773 47.2894 94.5366C47.1711 94.7121 40.4988 98.0708 40.3956 98.0071C40.3439 97.975 40.3014 97.988 40.3014 98.0361C40.3014 98.0841 39.8307 98.3443 39.2554 98.6141C38.2093 99.1048 37.9965 99.3702 38.3585 99.7322C38.383 99.7567 39.014 99.4804 39.7605 99.1179C40.5072 98.7556 41.1692 98.4884 41.2319 98.5242C41.2949 98.56 41.3139 98.5537 41.2745 98.5101C41.1888 98.4153 43.6726 97.2453 43.7969 97.322C43.8445 97.3513 43.8831 97.3361 43.8831 97.2883C43.8831 97.1669 44.5731 96.8503 44.686 96.9201C44.7369 96.9517 44.7787 96.9358 44.7787 96.8846C44.7787 96.7981 46.7383 95.9119 47.0671 95.8498C47.1491 95.8341 47.2392 95.7915 47.2669 95.755C47.4286 95.5426 54.0888 92.9479 54.2372 93.0395C54.2884 93.0711 54.3301 93.0565 54.3301 93.0072C54.3301 92.915 55.1732 92.6452 56.768 92.2268C57.8443 91.9444 59.4045 91.7995 59.4045 91.9818C59.4045 92.0481 59.4468 92.0761 59.4983 92.0442C59.6289 91.9635 61.2949 92.3921 61.2949 92.5065C61.2949 92.5577 61.3398 92.5718 61.3949 92.5378C61.5365 92.4503 62.9855 93.0061 62.9147 93.1208C62.8823 93.173 62.9087 93.1829 62.9735 93.143C63.1122 93.0573 64.5784 93.7578 64.5784 93.9098C64.5784 93.967 64.6064 93.986 64.6403 93.9518C64.9234 93.6687 69.746 97.2959 69.7539 97.7979C69.7546 97.8601 70.0681 98.2202 70.4502 98.5984C70.8323 98.9763 71.1449 99.3164 71.1449 99.354C71.1449 99.3913 71.2588 99.5522 71.3977 99.7113C72.2348 100.668 73.5203 102.861 74.8055 105.522C76.6687 109.381 78.4283 112.07 80.7538 114.611C81.2968 115.204 81.7914 115.778 81.8531 115.886C81.9145 115.993 81.9844 116.067 82.0085 116.05C82.0453 116.024 83.4985 117.315 84.3815 118.158C84.5246 118.295 84.6722 118.418 84.7093 118.431C84.7464 118.445 85.1136 118.691 85.5252 118.978C85.9368 119.266 86.5393 119.664 86.8643 119.861C87.1894 120.059 87.4232 120.254 87.384 120.293C87.3451 120.332 87.3579 120.349 87.4125 120.332C87.5848 120.276 88.1592 120.564 88.0923 120.672C88.0573 120.729 88.0732 120.748 88.1276 120.714C88.1821 120.681 88.6985 120.853 89.2752 121.097C90.7401 121.718 91.7704 121.961 93.0079 121.976C93.9774 121.988 94.0236 121.998 93.9669 122.188C93.9343 122.297 93.5595 123.484 93.1346 124.824C92.7094 126.165 92.1042 128.09 91.7898 129.103C91.4753 130.115 90.8712 132.04 90.4471 133.381C89.2349 137.214 89.0375 137.875 89.0887 137.926C89.3065 138.144 94.0675 137.919 95.8709 137.606C105.924 135.86 108.619 127.153 103.261 113.731C102.132 110.902 100.244 107.213 98.4837 104.398C98.0457 103.697 97.7062 103.105 97.7292 103.082C97.7521 103.06 98.2902 102.862 98.9251 102.643C101.117 101.887 103.879 100.577 107.063 98.7831C115.766 93.8797 122.34 84.0909 126.673 69.5828C126.848 68.9962 127.018 68.5329 127.051 68.553C127.084 68.5731 127.114 68.4486 127.118 68.2762C127.127 67.8614 127.768 65.1857 127.868 65.1455C127.911 65.1282 127.923 65.0546 127.895 64.982C127.867 64.9091 127.89 64.6769 127.947 64.4659C128.004 64.2549 128.075 63.9033 128.106 63.6845C128.137 63.4656 128.19 63.1744 128.225 63.0378C128.26 62.9009 128.28 62.7374 128.269 62.6748C128.26 62.6118 128.319 62.1446 128.401 61.6363C128.569 60.5961 128.564 60.5731 128.231 60.7914C128.099 60.8781 127.961 60.9189 127.924 60.8823C127.887 60.8457 127.857 60.8635 127.857 60.9217C127.857 61.0414 125.61 62.3744 125.409 62.3744C125.338 62.3744 125.295 62.4005 125.315 62.4324C125.36 62.5058 112.84 69.8364 112.669 69.8364C112.6 69.8364 112.56 69.8628 112.58 69.8947C112.625 69.9678 109.946 71.5281 109.775 71.5281C109.706 71.5281 109.671 71.5498 109.698 71.5761C109.778 71.6561 108.122 72.5791 108.011 72.5161C107.955 72.484 107.942 72.4944 107.982 72.5391C108.076 72.643 105.763 73.9878 105.624 73.9095C105.567 73.8774 105.554 73.8875 105.595 73.9325C105.68 74.0265 103.082 75.5849 102.963 75.5113C102.919 75.4846 102.884 75.5094 102.884 75.5661C102.884 75.6231 102.705 75.761 102.486 75.8727C102.267 75.9843 102.088 76.0287 102.088 75.9712C102.088 75.7876 102.616 73.7355 102.677 73.6838C102.709 73.6564 102.743 73.4997 102.753 73.3354C102.763 73.1714 102.841 72.5892 102.927 72.0421C103.138 70.69 103.228 69.8378 103.328 68.2613C103.43 66.6511 103.378 64.2515 103.234 63.907C103.193 63.8106 103.182 63.5868 103.209 63.4097C103.236 63.2324 103.223 63.0203 103.181 62.9383C103.138 62.856 103.074 62.436 103.039 62.0048C102.856 59.7577 100.853 53.0269 100.156 52.3171C100.142 52.3035 99.9881 52.5051 99.8128 52.765Z" fill="#00AE99"/>
<path fill-rule="evenodd" clip-rule="evenodd" d="M101.603 55.7246C101.603 55.7792 101.663 55.9808 101.737 56.1723C101.811 56.3637 101.872 56.4533 101.874 56.3713C101.876 56.2893 101.816 56.0877 101.741 55.9236C101.665 55.7594 101.604 55.6698 101.603 55.7246ZM128.391 60.6104C128.288 60.6948 128.264 60.7324 128.338 60.694C128.413 60.6556 128.507 60.6783 128.548 60.7447C128.603 60.8335 128.638 60.8246 128.682 60.7107C128.768 60.4869 128.611 60.4326 128.391 60.6104ZM117.98 66.6762C117.608 66.8779 117.63 66.962 118.004 66.7684C118.169 66.6836 118.303 66.5929 118.303 66.5671C118.303 66.5031 118.292 66.5065 117.98 66.6762ZM124.351 76.4223C124.32 76.5301 124.265 76.7083 124.228 76.8177C124.191 76.9271 124.233 76.8908 124.322 76.737C124.411 76.5832 124.467 76.4053 124.446 76.3416C124.424 76.2778 124.382 76.3141 124.351 76.4223ZM123.427 78.6582C123.39 78.776 123.382 78.8946 123.409 78.922C123.436 78.9494 123.489 78.8755 123.526 78.7577C123.564 78.6402 123.572 78.5213 123.544 78.4939C123.517 78.4667 123.464 78.5407 123.427 78.6582ZM104.871 100.18C104.871 100.205 105.036 100.35 105.236 100.504C105.437 100.657 105.57 100.731 105.532 100.67C105.453 100.542 104.871 100.111 104.871 100.18ZM105.888 100.998C106.037 101.155 106.176 101.263 106.198 101.238C106.22 101.214 106.098 101.086 105.927 100.954L105.617 100.714L105.888 100.998ZM106.563 101.576C106.699 101.732 106.901 101.905 107.01 101.962C107.22 102.069 107.213 102.063 106.662 101.591L106.314 101.293L106.563 101.576ZM108.058 102.976C108.47 103.418 109.07 104.072 109.391 104.428C109.711 104.783 109.838 104.895 109.672 104.676C109.506 104.457 108.906 103.803 108.339 103.224C107.773 102.645 107.646 102.533 108.058 102.976ZM120.202 103.855C120.225 103.869 120.4 104.015 120.592 104.179L120.94 104.477L120.647 104.154C120.487 103.976 120.311 103.831 120.258 103.831C120.204 103.831 120.179 103.842 120.202 103.855ZM74.127 104.366C74.127 104.473 74.4229 105.025 74.4803 105.025C74.5077 105.025 74.456 104.879 74.3657 104.701C74.181 104.338 74.127 104.262 74.127 104.366ZM121.338 105.025C121.551 105.244 121.749 105.422 121.776 105.422C121.803 105.422 121.651 105.244 121.437 105.025C121.223 104.806 121.026 104.627 120.999 104.627C120.971 104.627 121.124 104.806 121.338 105.025ZM110.239 105.497C110.424 105.73 110.594 105.92 110.616 105.92C110.686 105.92 110.259 105.36 110.078 105.215C109.982 105.137 110.055 105.265 110.239 105.497ZM122.183 105.97C122.369 106.161 122.543 106.318 122.571 106.318C122.598 106.318 122.468 106.161 122.283 105.97C122.097 105.778 121.923 105.621 121.895 105.621C121.868 105.621 121.998 105.778 122.183 105.97ZM75.122 106.456C75.122 106.562 75.4179 107.114 75.4751 107.114C75.5026 107.114 75.4511 106.968 75.3605 106.79C75.1758 106.427 75.122 106.352 75.122 106.456ZM111.702 107.532C112.512 108.736 112.633 108.898 112.431 108.507C112.229 108.116 111.155 106.538 111.045 106.47C110.99 106.437 111.286 106.915 111.702 107.532ZM123.064 107.089C123.245 107.322 123.415 107.512 123.442 107.512C123.52 107.512 123.104 106.96 122.911 106.807C122.814 106.729 122.883 106.857 123.064 107.089ZM112.942 109.501C113.064 109.719 113.184 109.878 113.208 109.854C113.256 109.806 112.843 109.104 112.767 109.104C112.74 109.104 112.819 109.282 112.942 109.501ZM113.846 111.141C113.965 111.386 114.079 111.57 114.1 111.549C114.145 111.504 113.743 110.696 113.676 110.696C113.65 110.696 113.727 110.896 113.846 111.141ZM114.531 112.536C114.531 112.591 114.616 112.793 114.721 112.984C114.826 113.176 114.912 113.288 114.912 113.233C114.912 113.178 114.826 112.977 114.721 112.785C114.616 112.594 114.531 112.482 114.531 112.536ZM115.367 114.526C115.452 114.87 115.826 115.733 115.771 115.459C115.742 115.316 115.628 115.002 115.518 114.763C115.408 114.523 115.34 114.417 115.367 114.526ZM116.155 116.715C116.263 117.28 116.661 118.586 116.686 118.456C116.701 118.374 116.58 117.904 116.415 117.412C116.251 116.919 116.134 116.606 116.155 116.715ZM117.116 120.654C117.12 120.786 117.163 120.984 117.213 121.093C117.276 121.232 117.285 121.171 117.243 120.894C117.172 120.432 117.106 120.306 117.116 120.654ZM117.21 121.51C117.209 121.63 117.253 121.756 117.308 121.789C117.435 121.868 117.435 121.637 117.308 121.441C117.23 121.32 117.211 121.333 117.21 121.51ZM117.315 122.163C117.311 122.313 117.353 122.436 117.407 122.436C117.524 122.436 117.524 122.36 117.407 122.088C117.332 121.912 117.321 121.92 117.315 122.163ZM117.407 123.011C117.407 123.126 117.45 123.247 117.502 123.279C117.554 123.311 117.578 123.241 117.555 123.122C117.498 122.825 117.407 122.757 117.407 123.011ZM117.643 126.316C117.643 126.891 117.66 127.126 117.68 126.839C117.7 126.552 117.7 126.081 117.68 125.794C117.66 125.507 117.643 125.742 117.643 126.316ZM92.5427 126.226C92.4753 126.451 92.4388 126.653 92.461 126.675C92.4834 126.698 92.5568 126.532 92.6242 126.308C92.6913 126.083 92.7281 125.881 92.7057 125.859C92.6832 125.836 92.6098 126.001 92.5427 126.226ZM91.7466 128.813C91.6795 129.038 91.6427 129.24 91.6651 129.262C91.6873 129.284 91.7607 129.119 91.8281 128.895C91.8955 128.67 91.9321 128.468 91.9096 128.445C91.8874 128.423 91.814 128.588 91.7466 128.813ZM108.107 130.53C108.582 130.854 108.851 131.012 108.851 130.968C108.851 130.905 108.081 130.396 107.985 130.396C107.944 130.396 107.999 130.456 108.107 130.53ZM108.95 131.074C108.95 131.121 109.062 131.211 109.199 131.273C109.336 131.335 109.448 131.37 109.448 131.35C109.448 131.331 109.336 131.241 109.199 131.151C109.062 131.061 108.95 131.027 108.95 131.074ZM117.109 131.229C117.109 131.304 117.08 131.517 117.045 131.702C116.954 132.178 117.079 132.018 117.192 131.512C117.247 131.27 117.249 131.092 117.198 131.092C117.149 131.092 117.109 131.154 117.109 131.229ZM110.144 131.838C110.281 131.917 110.438 131.981 110.493 131.981C110.547 131.981 110.48 131.917 110.343 131.838C110.207 131.76 110.05 131.696 109.995 131.696C109.94 131.696 110.008 131.76 110.144 131.838ZM103.275 133.903C103.09 134.136 103.017 134.263 103.114 134.185C103.295 134.04 103.721 133.48 103.651 133.48C103.629 133.48 103.46 133.671 103.275 133.903ZM89.9573 134.486C89.8327 134.872 89.7486 135.206 89.7703 135.227C89.7917 135.249 89.9114 134.95 90.0357 134.564C90.1603 134.178 90.2444 133.844 90.2227 133.823C90.201 133.801 90.0816 134.099 89.9573 134.486ZM89.1756 138.029C89.3261 138.052 89.5724 138.052 89.7228 138.029C89.8732 138.006 89.7502 137.987 89.4493 137.987C89.1482 137.987 89.0252 138.006 89.1756 138.029ZM92.3596 138.026C92.4552 138.051 92.6119 138.051 92.7078 138.026C92.8036 138.001 92.7253 137.981 92.5336 137.981C92.3421 137.981 92.2638 138.001 92.3596 138.026Z" fill="#9C9C9D"/>
<path opacity="0.7" fill-rule="evenodd" clip-rule="evenodd" d="M102.25 58.0627C102.312 58.4198 102.359 58.5253 102.423 58.4524C102.443 58.4297 102.399 58.2542 102.325 58.0627L102.189 57.7146L102.25 58.0627ZM103.085 62.4489C103.085 62.6359 103.127 62.8538 103.177 62.9329C103.236 63.0261 103.248 62.9206 103.212 62.6344C103.142 62.0848 103.083 61.9989 103.085 62.4489ZM128.322 62.2084C128.285 62.2449 128.259 62.3904 128.264 62.5317C128.272 62.784 128.274 62.7835 128.36 62.4954C128.451 62.1925 128.437 62.0929 128.322 62.2084ZM103.183 63.5623C103.183 63.7598 103.23 63.9507 103.288 63.9867C103.36 64.0311 103.372 63.9298 103.325 63.6691C103.233 63.1612 103.183 63.1233 103.183 63.5623ZM103.301 65.0771C103.298 65.3508 103.335 65.6643 103.382 65.7737C103.499 66.0461 103.502 65.5337 103.387 64.9776L103.305 64.5796L103.301 65.0771ZM103.357 67.5024C103.316 67.6871 103.287 68.0229 103.293 68.2486L103.304 68.6589L103.394 68.2112C103.444 67.965 103.473 67.6293 103.458 67.4651L103.431 67.1665L103.357 67.5024ZM88.4072 68.212C88.3076 68.3217 88.2499 68.4351 88.2787 68.4638C88.3074 68.4925 88.4051 68.4027 88.496 68.2643C88.6942 67.9616 88.6547 67.9383 88.4072 68.212ZM87.6111 69.3064C87.5118 69.416 87.4539 69.5294 87.4826 69.5581C87.5113 69.5869 87.6093 69.497 87.6999 69.3586C87.8981 69.0559 87.8587 69.0326 87.6111 69.3064ZM103.245 69.3594C103.211 69.4482 103.187 69.6404 103.193 69.7864C103.201 70 103.221 69.976 103.294 69.6639C103.387 69.2656 103.356 69.0703 103.245 69.3594ZM126.527 70.0149C126.3 70.8316 126.373 70.8549 126.635 70.0491C126.75 69.695 126.811 69.4053 126.77 69.4053C126.73 69.4053 126.62 69.6796 126.527 70.0149ZM103.145 70.3542C103.111 70.4432 103.088 70.613 103.093 70.7316C103.1 70.8682 103.134 70.8196 103.185 70.6C103.272 70.2301 103.248 70.0852 103.145 70.3542ZM103.007 71.4947C103.007 71.6862 103.027 71.7645 103.052 71.6687C103.077 71.5731 103.077 71.4164 103.052 71.3205C103.027 71.2247 103.007 71.303 103.007 71.4947ZM84.0293 74.1817C83.9298 74.2914 83.8721 74.4048 83.9008 74.4335C83.9296 74.4622 84.0272 74.3724 84.1181 74.234C84.3164 73.9312 84.2769 73.908 84.0293 74.1817ZM102.302 74.9919C102.143 75.6837 102.217 75.7085 102.407 75.0269C102.491 74.7257 102.528 74.4795 102.49 74.4795C102.452 74.4795 102.368 74.7101 102.302 74.9919ZM83.2333 75.276C83.134 75.3857 83.076 75.4991 83.1048 75.5278C83.1335 75.5565 83.2314 75.467 83.3221 75.3283C83.5206 75.0256 83.4809 75.0023 83.2333 75.276ZM82.4685 76.345C82.293 76.5493 82.1617 76.7679 82.2142 76.7679C82.2345 76.7679 82.3505 76.6336 82.4719 76.4694C82.7117 76.145 82.7094 76.0643 82.4685 76.345ZM67.5881 80.0203C67.6839 80.0454 67.8406 80.0454 67.9365 80.0203C68.0321 79.9952 67.9537 79.9748 67.7623 79.9748C67.5708 79.9748 67.4925 79.9952 67.5881 80.0203ZM78.8554 81.2457C78.7562 81.3557 78.6985 81.469 78.7272 81.4978C78.7559 81.5265 78.8536 81.4366 78.9442 81.298C79.1427 80.9955 79.103 80.9723 78.8554 81.2457ZM78.0596 82.3403C77.9601 82.45 77.9024 82.5634 77.9311 82.5921C77.9599 82.6208 78.0576 82.531 78.1484 82.3926C78.3467 82.0899 78.3072 82.0666 78.0596 82.3403ZM61.5936 82.9366C61.4766 83.1009 61.4034 83.2351 61.4309 83.2351C61.458 83.2351 61.5761 83.1009 61.6931 82.9366C61.8101 82.7726 61.8832 82.6381 61.8558 82.6381C61.8286 82.6381 61.7106 82.7726 61.5936 82.9366ZM53.7087 91.1521C53.3227 91.3613 53.3665 91.4337 53.7583 91.2344C54.1334 91.0437 54.1997 90.9941 54.0733 90.9999C54.0231 91.0019 53.8591 91.0706 53.7087 91.1521ZM58.8834 91.9615C59.0072 91.9853 59.1863 91.9845 59.2814 91.9597C59.3767 91.9346 59.2754 91.9153 59.0565 91.9163C58.8376 91.9174 58.7598 91.9377 58.8834 91.9615ZM113.974 93.4084L113.481 93.9308L114.003 93.4371C114.488 92.9783 114.571 92.8861 114.496 92.8861C114.481 92.8861 114.246 93.1211 113.974 93.4084ZM68.9428 97.0432C69.1418 97.25 69.4163 97.506 69.5532 97.612C69.69 97.7181 69.5573 97.5486 69.258 97.2359C68.959 96.923 68.6842 96.6671 68.6477 96.6671C68.6111 96.6671 68.744 96.8363 68.9428 97.0432ZM38.1196 99.3227C38.1157 99.4426 38.1575 99.5682 38.2121 99.6022C38.3299 99.6748 38.3299 99.5774 38.2121 99.3037C38.1298 99.1117 38.1264 99.1125 38.1196 99.3227ZM103.63 100.605C102.171 101.371 100.436 102.121 98.9145 102.646C98.2856 102.863 97.7523 103.059 97.7293 103.082C97.7063 103.105 98.0458 103.697 98.4838 104.398C104.041 113.285 106.987 123.181 105.723 128.704C105.681 128.888 105.687 128.905 105.748 128.767C105.823 128.598 105.864 128.613 106.212 128.942C106.422 129.14 106.61 129.302 106.631 129.302C106.651 129.302 106.924 129.511 107.238 129.767C108.277 130.614 111.37 132.533 111.888 132.653C111.943 132.665 112.413 132.839 112.933 133.04C113.957 133.435 115.478 133.85 116.077 133.898L116.452 133.928L116.673 133.209C116.795 132.814 116.95 132.175 117.019 131.791C117.088 131.407 117.175 131.092 117.214 131.092C117.252 131.092 117.262 130.981 117.236 130.844C117.21 130.707 117.23 130.595 117.282 130.595C117.334 130.595 117.356 130.461 117.332 130.296C117.306 130.121 117.333 129.998 117.397 129.998C117.464 129.998 117.483 129.885 117.445 129.7C117.413 129.536 117.432 129.345 117.487 129.277C117.624 129.11 117.615 123.118 117.478 123.202C117.417 123.24 117.401 123.108 117.436 122.849C117.468 122.608 117.45 122.436 117.393 122.436C117.34 122.436 117.309 122.313 117.325 122.163C117.34 122.012 117.322 121.838 117.283 121.775C117.244 121.712 117.218 121.555 117.225 121.427C117.267 120.68 116.339 117.194 115.495 114.924C113.41 109.322 109.757 104.077 105.696 100.856C105.19 100.455 104.801 100.087 104.831 100.039C104.861 99.99 104.872 99.9566 104.855 99.9642C104.838 99.972 104.287 100.26 103.63 100.605ZM74.5364 105.074C74.5364 105.129 74.622 105.331 74.727 105.522C74.8318 105.714 74.9177 105.825 74.9177 105.771C74.9177 105.716 74.8318 105.515 74.727 105.323C74.622 105.132 74.5364 105.02 74.5364 105.074ZM77.0191 109.751C77.0194 109.805 77.1113 109.962 77.2234 110.099C77.3584 110.264 77.3921 110.281 77.3239 110.149C77.1562 109.824 77.0183 109.644 77.0191 109.751ZM77.9019 111.177C77.9554 111.277 78.0784 111.422 78.1751 111.5C78.2997 111.6 78.285 111.547 78.1242 111.318C77.8784 110.967 77.7444 110.882 77.9019 111.177ZM78.7068 112.271C78.7068 112.316 78.8259 112.461 78.9714 112.594L79.2357 112.835L79.0022 112.512C78.7596 112.175 78.7068 112.132 78.7068 112.271ZM80.1887 114.153C80.2418 114.249 80.6536 114.686 81.1044 115.123L81.924 115.919L81.0417 114.949C80.1428 113.961 80.0187 113.845 80.1887 114.153ZM81.9901 115.983C81.9901 116.015 82.2139 116.264 82.4876 116.538C82.7613 116.811 82.9851 117.006 82.9851 116.971C82.9851 116.936 82.7613 116.686 82.4876 116.417C82.2139 116.147 81.9901 115.952 81.9901 115.983ZM83.1923 117.188C83.2152 117.202 83.368 117.325 83.5323 117.462L83.8308 117.71L83.5895 117.437C83.4568 117.286 83.304 117.163 83.2497 117.163C83.1954 117.163 83.1695 117.174 83.1923 117.188ZM93.5317 121.977C93.5317 121.998 93.6435 122.037 93.7803 122.063C93.9172 122.089 94.029 122.072 94.029 122.025C94.029 121.977 93.9172 121.939 93.7803 121.939C93.6435 121.939 93.5317 121.956 93.5317 121.977ZM92.8466 125.431C92.7855 125.606 92.7388 125.799 92.7427 125.859C92.7466 125.919 92.814 125.793 92.8923 125.579C92.9707 125.365 93.0174 125.172 92.9963 125.151C92.9751 125.13 92.9077 125.256 92.8466 125.431ZM91.0163 131.259C90.9218 131.523 90.8478 131.806 90.852 131.888C90.8562 131.97 90.9466 131.793 91.0526 131.494C91.1589 131.195 91.2328 130.912 91.2171 130.865C91.2012 130.817 91.1111 130.995 91.0163 131.259ZM90.3051 133.537C90.2686 133.683 90.2578 133.821 90.2811 133.845C90.3046 133.868 90.3537 133.768 90.3905 133.622C90.4271 133.477 90.4378 133.338 90.4143 133.315C90.3908 133.291 90.3417 133.391 90.3051 133.537ZM102.781 134.341C102.482 134.65 102.33 134.84 102.442 134.764C102.648 134.624 103.44 133.779 103.365 133.779C103.343 133.779 103.08 134.032 102.781 134.341ZM90.1751 138.029C90.3263 138.052 90.5501 138.051 90.6726 138.028C90.7948 138.004 90.671 137.985 90.3976 137.986C90.1239 137.987 90.0238 138.006 90.1751 138.029ZM91.717 138.028C91.8408 138.052 92.0197 138.051 92.1151 138.026C92.2101 138.001 92.1088 137.982 91.8899 137.983C91.6711 137.984 91.5932 138.004 91.717 138.028Z" fill="#00AE99"/>
<path opacity="0.5" fill-rule="evenodd" clip-rule="evenodd" d="M113.379 94.1016L113.087 94.425L113.41 94.1327C113.588 93.9721 113.733 93.8266 113.733 93.8094C113.733 93.7326 113.651 93.8003 113.379 94.1016ZM108.963 97.7304C107.957 98.3972 105.038 100.047 104.863 100.047C104.806 100.047 104.982 100.214 105.255 100.42C110.734 104.542 115.382 112.131 116.968 119.548C117.114 120.232 117.256 120.887 117.283 121.004C117.326 121.196 117.536 121.278 118.159 121.346C118.185 121.349 118.353 121.394 118.532 121.447C118.711 121.499 119.014 121.568 119.205 121.6C119.397 121.631 119.587 121.677 119.628 121.702C119.669 121.728 119.704 121.69 119.704 121.618C119.706 121.521 119.725 121.518 119.782 121.607C119.957 121.883 124.424 122.041 125.424 121.807C125.533 121.781 125.824 121.729 126.071 121.69C127.411 121.48 128.736 121.064 128.81 120.83C128.877 120.621 128.764 120.129 128.664 120.191C128.558 120.256 128.572 119.906 128.678 119.837C128.866 119.714 127.937 115.808 127.748 115.925C127.701 115.954 127.662 115.933 127.662 115.878C127.662 115.823 127.708 115.75 127.764 115.716C127.819 115.682 127.836 115.607 127.801 115.55C127.76 115.484 127.705 115.495 127.647 115.582C127.587 115.672 127.577 115.631 127.616 115.461C127.669 115.232 127.352 114.205 127.058 113.654C127.007 113.559 126.966 113.409 126.966 113.32C126.966 113.222 126.911 113.18 126.825 113.213C126.748 113.242 126.658 113.199 126.626 113.116C126.538 112.885 126.56 112.814 126.668 112.981C126.828 113.229 126.772 112.95 126.608 112.682C126.523 112.546 126.48 112.514 126.51 112.613C126.544 112.722 126.526 112.767 126.463 112.729C126.407 112.694 126.387 112.585 126.418 112.486C126.484 112.278 126.178 111.571 126.055 111.647C126.01 111.675 126.003 111.621 126.039 111.527C126.087 111.402 126.069 111.378 125.973 111.438C125.886 111.491 125.865 111.481 125.91 111.407C126.007 111.25 125.69 110.67 125.553 110.754C125.488 110.795 125.471 110.778 125.512 110.711C125.601 110.567 125.197 109.772 125.073 109.848C125.021 109.881 125.003 109.843 125.033 109.764C125.077 109.651 124.624 108.848 124.379 108.603C124.352 108.576 124.28 108.464 124.219 108.354C124.159 108.245 124.061 108.156 124.004 108.156C123.946 108.156 123.861 108.115 123.815 108.065C123.767 108.012 123.785 108.004 123.857 108.046C123.925 108.085 123.981 108.073 123.981 108.018C123.981 107.908 123.788 107.762 123.633 107.757C123.578 107.755 123.545 107.681 123.56 107.594C123.574 107.507 123.507 107.374 123.411 107.298C123.251 107.173 123.248 107.176 123.372 107.335C123.447 107.43 123.484 107.509 123.455 107.509C123.425 107.509 123.254 107.318 123.075 107.086C122.76 106.678 122.759 106.672 123.032 106.912L123.316 107.16L123.086 106.841C122.959 106.665 122.816 106.545 122.769 106.575C122.722 106.604 122.695 106.591 122.71 106.546C122.724 106.501 122.535 106.27 122.289 106.032C122.043 105.794 121.898 105.629 121.967 105.665C122.397 105.889 121.557 104.975 120.57 104.144C120.363 103.97 120.226 103.827 120.266 103.827C120.306 103.827 120.475 103.95 120.643 104.099C120.81 104.249 120.701 104.114 120.401 103.799C120.101 103.484 119.804 103.247 119.74 103.271C119.677 103.296 119.519 103.196 119.39 103.049L119.156 102.783L119.454 103.03C119.618 103.165 119.553 103.065 119.309 102.806C118.893 102.364 118.605 102.18 118.769 102.459C118.809 102.528 118.744 102.498 118.626 102.394C118.368 102.168 118.336 102.055 118.583 102.245C118.679 102.318 118.649 102.257 118.517 102.108C118.258 101.818 118.158 101.76 118.265 101.962C118.301 102.03 118.208 101.938 118.059 101.757C117.898 101.561 117.731 101.45 117.646 101.482C117.568 101.512 117.529 101.495 117.56 101.445C117.634 101.326 116.956 100.807 116.829 100.885C116.775 100.918 116.699 100.893 116.66 100.829C116.612 100.751 116.635 100.737 116.728 100.785C116.804 100.824 116.733 100.742 116.569 100.602C116.405 100.462 116.204 100.358 116.123 100.371C116.043 100.384 115.975 100.337 115.974 100.266C115.973 100.196 115.818 100.04 115.629 99.9209C115.41 99.7825 115.318 99.7569 115.375 99.8501C115.424 99.9308 115.317 99.8509 115.137 99.6728C114.958 99.4944 114.775 99.3711 114.73 99.3985C114.686 99.426 114.622 99.3769 114.589 99.2894C114.55 99.1878 114.466 99.1541 114.357 99.1956C114.264 99.2317 114.219 99.2288 114.259 99.1891C114.362 99.0857 113.556 98.6283 113.419 98.713C113.351 98.755 113.332 98.7401 113.371 98.6761C113.433 98.5758 113.081 98.3904 112.912 98.4348C112.871 98.4458 112.838 98.4071 112.838 98.3491C112.838 98.2912 112.793 98.2716 112.738 98.3053C112.684 98.3392 112.639 98.3225 112.639 98.2682C112.639 98.1692 112.256 98 112.117 98.0368C112.075 98.0477 112.042 98.0091 112.042 97.9511C112.042 97.8934 111.997 97.8735 111.942 97.9072C111.887 97.9412 111.843 97.9287 111.843 97.8795C111.843 97.7492 111.349 97.545 111.223 97.6231C111.154 97.6654 111.145 97.6419 111.197 97.5575C111.256 97.4619 111.233 97.4431 111.113 97.4894C111.022 97.5244 110.947 97.5168 110.947 97.4724C110.947 97.3577 110.453 97.1475 110.343 97.2154C110.292 97.2467 110.251 97.2277 110.251 97.1731C110.251 96.9647 109.87 97.1295 108.963 97.7304ZM121.444 105.021C121.658 105.24 121.81 105.419 121.783 105.419C121.756 105.419 121.558 105.24 121.345 105.021C121.131 104.802 120.978 104.623 121.006 104.623C121.033 104.623 121.23 104.802 121.444 105.021Z" fill="#00AE99"/>
</svg>
