<svg width="90" height="90" viewBox="0 0 90 90" fill="none" xmlns="http://www.w3.org/2000/svg">
<path d="M2.00001 45C2.00001 68.7578 21.2421 88 45 88C68.7579 88 88 68.7578 88 45C88 21.6448 69.3906 2.63278 46.1793 2.02876C45.7478 2.02876 45.3452 2 44.9137 2C21.2134 2.02876 2.00001 21.2709 2.00001 45Z" stroke="#00AE99" stroke-width="3" stroke-miterlimit="10" stroke-linejoin="round"/>
<path d="M45 76V11M45 76H15H75H45ZM45 11H24M45 11H66M24 11L4 47M24 11L44 47M66 11L46 47M66 11L86 47M4 47H44M4 47C4 47 4 65 24 65C44 65 44 47 44 47M46 47H86M46 47C46 47 46 65 66 65C85.25 65 86 47 86 47" stroke="#00AE99" stroke-width="3"/>
</svg>
