<svg width="30" height="30" viewBox="0 0 30 30" fill="none" xmlns="http://www.w3.org/2000/svg">
<path d="M6.30134 18.9605L8.63004 16.5511L5.73498 12.6444L2.04888 7.4287C0.746637 9.65112 0 12.2381 0 15C0 19.5753 2.04888 23.6718 5.28027 26.4229L9.95919 23.1161C8.36771 22.1247 7.08565 20.6812 6.30134 18.9605Z" fill="white"/>
<path d="M11.0395 6.30134L13.4489 8.63004L17.3556 5.73498L22.5713 2.04888C20.3489 0.746637 17.7619 0 15 0C10.4247 0 6.32825 2.04888 3.57713 5.28027L6.88386 9.95919C7.87534 8.36771 9.31883 7.08565 11.0395 6.30134Z" fill="white"/>
<path d="M21.37 13.4489L24.265 17.3556L27.9511 22.5713C29.2534 20.3489 30 17.7619 30 15C30 10.4247 27.9511 6.32825 24.7197 3.57713L20.0408 6.88386C21.6323 7.87534 22.9144 9.31883 23.6987 11.0395L21.37 13.4489Z" fill="white"/>
<path d="M26.4229 24.7197L23.1161 20.0408C22.1247 21.6323 20.6812 22.9144 18.9605 23.6987L16.5511 21.37L12.6444 24.265L7.4287 27.9511C9.65112 29.2534 12.2381 30 15 30C19.5753 30 23.6718 27.9511 26.4229 24.7197Z" fill="white"/>
</svg>
