<svg width="400" height="406" viewBox="0 0 400 406" fill="none" xmlns="http://www.w3.org/2000/svg">
<mask id="mask0" mask-type="alpha" maskUnits="userSpaceOnUse" x="0" y="0" width="400" height="406">
<ellipse cx="200" cy="202.967" rx="200" ry="202.744" fill="#C4C4C4"/>
</mask>
<g mask="url(#mask0)">
<path d="M162.629 260.116L161.587 258.71L159.447 260.297L161.753 261.631L162.629 260.116ZM193.062 269.329L192.945 271.075L192.953 271.076L193.062 269.329ZM234.92 258.634L235.854 260.113L235.86 260.109L234.92 258.634ZM250.83 244.761L252.163 245.895L253.051 244.85L252.25 243.738L250.83 244.761ZM238.764 228.665L240.146 227.592L240.141 227.585L240.135 227.578L238.764 228.665ZM235.24 224.217L236.612 223.13L235.079 221.196L233.761 223.282L235.24 224.217ZM216.446 240.631L215.231 241.89L216.098 242.727L217.189 242.216L216.446 240.631ZM204.487 229.088L205.702 227.829L204.636 226.8L203.445 227.682L204.487 229.088ZM137.215 166.291L138.602 165.224L137.006 163.149L135.699 165.418L137.215 166.291ZM128.139 196.154L126.393 196.035L126.392 196.044L128.139 196.154ZM138.924 237.666L137.455 238.618H137.455L138.924 237.666ZM152.912 253.445L151.79 254.787L152.824 255.652L153.924 254.873L152.912 253.445ZM169.143 241.478L170.204 242.87L170.211 242.864L170.218 242.859L169.143 241.478ZM173.628 237.984L174.703 239.364L176.66 237.839L174.567 236.507L173.628 237.984ZM157.077 219.24L155.833 218.008L154.968 218.882L155.497 219.992L157.077 219.24ZM168.822 207.379L170.066 208.611L171.142 207.524L170.209 206.312L168.822 207.379ZM232.57 140.982L233.582 142.41L235.808 140.833L233.447 139.467L232.57 140.982ZM202.138 131.769L202.018 133.515L202.021 133.515L202.138 131.769ZM160.173 142.464L161.114 143.94L161.117 143.938L160.173 142.464ZM144.263 156.337L142.93 155.203L142.042 156.248L142.843 157.36L144.263 156.337ZM156.329 172.433L154.946 173.506L154.952 173.513L154.957 173.52L156.329 172.433ZM159.853 176.881L158.481 177.968L159.996 179.88L161.322 177.832L159.853 176.881ZM178.753 160.467L179.961 159.201L179.1 158.379L178.019 158.878L178.753 160.467ZM189.965 171.163L188.757 172.429L189.8 173.424L190.976 172.591L189.965 171.163ZM258.091 234.489L256.699 235.55L258.301 237.651L259.611 235.357L258.091 234.489ZM267.06 204.944L268.806 205.065L268.807 205.054L267.06 204.944ZM256.276 163.432L257.748 162.486L257.744 162.48L256.276 163.432ZM242.287 147.653L243.41 146.311L242.376 145.446L241.276 146.225L242.287 147.653ZM226.057 159.62L224.995 158.228L224.988 158.234L224.981 158.239L226.057 159.62ZM221.572 163.114L220.496 161.734L218.526 163.27L220.642 164.597L221.572 163.114ZM238.23 181.858L236.65 182.61L236.658 182.628L236.667 182.646L238.23 181.858ZM238.336 182.07L239.592 183.289L240.46 182.395L239.899 181.282L238.336 182.07ZM227.018 193.719L225.763 192.499L224.712 193.58L225.626 194.779L227.018 193.719ZM161.753 261.631C170.951 266.952 181.568 270.316 192.945 271.075L193.178 267.583C182.345 266.86 172.246 263.658 163.505 258.601L161.753 261.631ZM192.953 271.076C208.709 272.053 223.488 267.928 235.854 260.113L233.985 257.154C222.219 264.589 208.167 268.512 193.17 267.583L192.953 271.076ZM235.86 260.109C241.988 256.203 247.459 251.428 252.163 245.895L249.497 243.628C245.018 248.896 239.811 253.44 233.979 257.158L235.86 260.109ZM252.25 243.738C248.498 238.53 244.428 233.112 240.146 227.592L237.381 229.737C241.642 235.231 245.687 240.615 249.41 245.784L252.25 243.738ZM240.135 227.578C239.548 226.837 238.961 226.095 238.373 225.354C237.786 224.613 237.199 223.872 236.612 223.13L233.868 225.304C234.455 226.045 235.043 226.786 235.63 227.528C236.217 228.269 236.805 229.01 237.392 229.751L240.135 227.578ZM233.761 223.282C229.462 230.082 223.103 235.581 215.704 239.046L217.189 242.216C225.166 238.48 232.048 232.542 236.719 225.152L233.761 223.282ZM217.662 239.372L205.702 227.829L203.272 230.347L215.231 241.89L217.662 239.372ZM203.445 227.682L161.587 258.71L163.671 261.522L205.529 230.494L203.445 227.682ZM135.699 165.418C130.444 174.538 127.159 184.855 126.393 196.035L129.885 196.274C130.614 185.639 133.736 175.836 138.732 167.165L135.699 165.418ZM126.392 196.044C125.407 211.676 129.568 226.449 137.455 238.618L140.392 236.714C132.904 225.162 128.949 211.131 129.886 196.264L126.392 196.044ZM137.455 238.618C141.395 244.696 146.211 250.122 151.79 254.787L154.035 252.102C148.722 247.66 144.14 242.496 140.392 236.714L137.455 238.618ZM153.924 254.873C159.176 251.152 164.638 247.116 170.204 242.87L168.081 240.087C162.542 244.313 157.113 248.324 151.901 252.017L153.924 254.873ZM170.218 242.859C171.713 241.694 173.208 240.529 174.703 239.364L172.552 236.603C171.057 237.768 169.562 238.933 168.067 240.098L170.218 242.859ZM174.567 236.507C167.693 232.132 162.147 225.819 158.657 218.488L155.497 219.992C159.267 227.91 165.253 234.728 172.688 239.46L174.567 236.507ZM158.32 220.471L170.066 208.611L167.579 206.148L155.833 218.008L158.32 220.471ZM170.209 206.312L138.602 165.224L135.828 167.358L167.435 208.446L170.209 206.312ZM233.447 139.467C224.248 134.146 213.631 130.782 202.254 130.023L202.021 133.515C212.855 134.238 222.953 137.44 231.694 142.497L233.447 139.467ZM202.258 130.023C186.496 128.937 171.602 133.064 159.229 140.991L161.117 143.938C172.876 136.404 187.027 132.482 202.018 133.515L202.258 130.023ZM159.232 140.989C153.105 144.895 147.634 149.67 142.93 155.203L145.596 157.47C150.075 152.202 155.282 147.658 161.114 143.94L159.232 140.989ZM142.843 157.36C146.594 162.568 150.665 167.986 154.946 173.506L157.712 171.361C153.451 165.867 149.406 160.483 145.683 155.314L142.843 157.36ZM154.957 173.52C155.545 174.261 156.132 175.003 156.719 175.744C157.307 176.485 157.894 177.226 158.481 177.968L161.225 175.794C160.637 175.053 160.05 174.312 159.463 173.57C158.875 172.829 158.288 172.088 157.701 171.347L154.957 173.52ZM161.322 177.832C165.736 171.011 171.997 165.515 179.487 162.056L178.019 158.878C169.919 162.619 163.152 168.561 158.384 175.93L161.322 177.832ZM177.545 161.733L188.757 172.429L191.173 169.896L179.961 159.201L177.545 161.733ZM190.976 172.591L233.582 142.41L231.559 139.554L188.953 169.735L190.976 172.591ZM259.611 235.357C264.754 226.349 268.04 216.141 268.806 205.065L265.315 204.823C264.586 215.35 261.465 225.05 256.571 233.621L259.611 235.357ZM268.807 205.054C269.792 189.418 265.63 174.754 257.748 162.486L254.803 164.378C262.298 176.043 266.251 189.971 265.314 204.834L268.807 205.054ZM257.744 162.48C253.804 156.402 248.989 150.976 243.41 146.311L241.165 148.996C246.478 153.438 251.059 158.602 254.807 164.384L257.744 162.48ZM241.276 146.225C236.024 149.946 230.561 153.982 224.995 158.228L227.118 161.011C232.657 156.785 238.086 152.774 243.299 149.081L241.276 146.225ZM224.981 158.239C224.234 158.822 223.486 159.404 222.739 159.987C221.991 160.569 221.244 161.151 220.496 161.734L222.648 164.495C223.395 163.912 224.143 163.33 224.89 162.747C225.637 162.165 226.385 161.583 227.132 161L224.981 158.239ZM220.642 164.597C227.616 168.971 233.159 175.281 236.65 182.61L239.81 181.106C236.039 173.186 230.05 166.365 222.502 161.632L220.642 164.597ZM236.667 182.646L236.774 182.858L239.899 181.282L239.792 181.07L236.667 182.646ZM237.081 180.85L225.763 192.499L228.273 194.938L239.592 183.289L237.081 180.85ZM225.626 194.779L256.699 235.55L259.483 233.428L228.41 192.658L225.626 194.779Z" fill="#00AE99"/>
<ellipse cx="60.0003" cy="200.535" rx="68" ry="68.9328" stroke="#00AE99" stroke-width="3.5"/>
<ellipse cx="201.6" cy="61.8583" rx="68.8" ry="69.7438" stroke="#00AE99" stroke-width="3.5"/>
<rect x="267.2" y="133.224" width="137.6" height="137.866" stroke="#00AE99" stroke-width="3.5"/>
<rect width="99.6242" height="99.6242" transform="matrix(0.702274 -0.711907 0.702274 0.711907 271.273 342.124)" stroke="#00AE99" stroke-width="3.5"/>
<path d="M267.2 340.833C267.2 301.418 235.248 269.467 195.834 269.467H-11.2003V412.198H195.834C235.248 412.198 267.2 380.247 267.2 340.833V340.833Z" stroke="#00AE99" stroke-width="3.5"/>
</g>
<path d="M398.25 202.967C398.25 313.996 309.468 403.961 200 403.961C90.532 403.961 1.75 313.996 1.75 202.967C1.75 91.939 90.532 1.97368 200 1.97368C309.468 1.97368 398.25 91.939 398.25 202.967Z" stroke="#00AE99" stroke-width="3.5"/>
</svg>
