<svg width="80" height="80" viewBox="0 0 80 80" fill="none" xmlns="http://www.w3.org/2000/svg">
<mask id="mask0" mask-type="alpha" maskUnits="userSpaceOnUse" x="0" y="0" width="80" height="80">
<path d="M40 78.9333C61.5023 78.9333 78.9333 61.5023 78.9333 40C78.9333 18.4977 61.5023 1.06665 40 1.06665C18.4977 1.06665 1.06665 18.4977 1.06665 40C1.06665 61.5023 18.4977 78.9333 40 78.9333Z" fill="#FFFFFF" stroke="#FFFFFF" stroke-width="2" stroke-miterlimit="10"/>
</mask>
<g mask="url(#mask0)">
<ellipse cx="40" cy="75" rx="8" ry="8" fill="#F3F6F4" stroke="#00AE99" stroke-width="2"/>
<ellipse cx="40" cy="70" rx="8" ry="8" fill="#F3F6F4" stroke="#00AE99" stroke-width="2"/>
<ellipse cx="40" cy="65" rx="8" ry="8" fill="#F3F6F4" stroke="#00AE99" stroke-width="2"/>
<ellipse cx="40" cy="60" rx="8" ry="8" fill="#F3F6F4" stroke="#00AE99" stroke-width="2"/>
<ellipse cx="40" cy="55" rx="8" ry="8" fill="#F3F6F4" stroke="#00AE99" stroke-width="2"/>
<circle cx="40" cy="49" r="8" fill="#F3F6F4" stroke="#00AE99" stroke-width="2"/>
<circle cx="40" cy="43" r="8" fill="#F3F6F4" stroke="#00AE99" stroke-width="2"/>
<ellipse cx="17" cy="88" rx="8" ry="8" fill="#F3F6F4" stroke="#00AE99" stroke-width="2"/>
<ellipse cx="17" cy="83" rx="8" ry="8" fill="#F3F6F4" stroke="#00AE99" stroke-width="2"/>
<ellipse cx="17" cy="78" rx="8" ry="8" fill="#F3F6F4" stroke="#00AE99" stroke-width="2"/>
<ellipse cx="17" cy="73" rx="8" ry="8" fill="#F3F6F4" stroke="#00AE99" stroke-width="2"/>
<ellipse cx="17" cy="68" rx="8" ry="8" fill="#F3F6F4" stroke="#00AE99" stroke-width="2"/>
<circle cx="17" cy="62" r="8" fill="#F3F6F4" stroke="#00AE99" stroke-width="2"/>
<circle cx="17" cy="56" r="8" fill="#F3F6F4" stroke="#00AE99" stroke-width="2"/>
<ellipse cx="63" cy="69" rx="8" ry="8" fill="#F3F6F4" stroke="#00AE99" stroke-width="2"/>
<ellipse cx="63" cy="63" rx="8" ry="8" fill="#F3F6F4" stroke="#00AE99" stroke-width="2"/>
<ellipse cx="63" cy="58" rx="8" ry="8" fill="#F3F6F4" stroke="#00AE99" stroke-width="2"/>
<ellipse cx="63" cy="53" rx="8" ry="8" fill="#F3F6F4" stroke="#00AE99" stroke-width="2"/>
<ellipse cx="63" cy="48" rx="8" ry="8" fill="#F3F6F4" stroke="#00AE99" stroke-width="2"/>
<ellipse cx="63" cy="43" rx="8" ry="8" fill="#F3F6F4" stroke="#00AE99" stroke-width="2"/>
<circle cx="63" cy="37" r="8" fill="#F3F6F4" stroke="#00AE99" stroke-width="2"/>
<circle cx="63" cy="31" r="8" fill="#F3F6F4" stroke="#00AE99" stroke-width="2"/>
<circle cx="40" cy="40" r="38.9333" stroke="#00AE99" stroke-width="2"/>
</g>
</svg>
