<svg width="144" height="144" viewBox="0 0 144 144" fill="none" xmlns="http://www.w3.org/2000/svg"><g style="mix-blend-mode:screen" stroke="#00AE99" stroke-width="2.5" stroke-miterlimit="10"><path d="M72 132.722c33.536 0 60.722-27.186 60.722-60.722S105.536 11.278 72 11.278 11.278 38.464 11.278 72 38.464 132.722 72 132.722z"/><path d="M72 20.557A9.278 9.278 0 1 0 72 2a9.278 9.278 0 0 0 0 18.557zM114.942 38.336a9.278 9.278 0 1 0-9.278-9.278 9.278 9.278 0 0 0 9.278 9.278zM132.722 81.278A9.278 9.278 0 0 0 142 72a9.278 9.278 0 0 0-9.278-9.278 9.278 9.278 0 1 0 0 18.556zM114.942 124.221a9.279 9.279 0 1 0 0-18.557 9.279 9.279 0 0 0 0 18.557zM72 142a9.278 9.278 0 0 0 9.278-9.278 9.278 9.278 0 1 0-18.556 0A9.278 9.278 0 0 0 72 142zM29.058 124.221a9.278 9.278 0 0 0 9.278-9.279 9.278 9.278 0 0 0-9.278-9.278 9.278 9.278 0 0 0-9.279 9.278 9.278 9.278 0 0 0 9.279 9.279zM11.278 81.278a9.278 9.278 0 1 0 0-18.556 9.278 9.278 0 0 0 0 18.556zM29.058 38.336a9.278 9.278 0 1 0 0-18.557 9.278 9.278 0 0 0 0 18.557zM68.114 75.886c-2.138-2.137-2.138-5.635 0-7.82 2.137-2.138 5.635-2.138 7.82 0 2.138 2.137 2.138 5.634 0 7.82-2.185 2.138-5.683 2.138-7.82 0zM49.363 75.886c-2.137-2.137-2.137-5.635 0-7.82 2.137-2.138 5.635-2.138 7.821 0 2.137 2.137 2.137 5.634 0 7.82a5.571 5.571 0 0 1-7.821 0zM30.66 75.886c-2.137-2.137-2.137-5.635 0-7.82 2.138-2.138 5.636-2.138 7.822 0 2.137 2.137 2.137 5.634 0 7.82-2.186 2.138-5.684 2.138-7.821 0zM86.816 75.886c-2.137-2.137-2.137-5.635 0-7.82 2.138-2.138 5.635-2.138 7.821 0 2.138 2.137 2.138 5.634 0 7.82-2.186 2.138-5.683 2.138-7.82 0zM105.518 75.886c-2.137-2.137-2.137-5.635 0-7.82 2.138-2.138 5.635-2.138 7.821 0 2.138 2.137 2.138 5.634 0 7.82-2.186 2.138-5.683 2.138-7.821 0zM53.25 58.738c0-3.06 2.477-5.489 5.489-5.489 3.06 0 5.489 2.477 5.489 5.49 0 3.06-2.478 5.489-5.49 5.489-3.011.048-5.489-2.43-5.489-5.49zM40.036 45.525c0-3.06 2.478-5.489 5.49-5.489 3.06 0 5.489 2.477 5.489 5.49 0 3.06-2.478 5.489-5.49 5.489a5.453 5.453 0 0 1-5.489-5.49zM79.724 85.213c0-3.06 2.477-5.49 5.49-5.49 3.06 0 5.488 2.478 5.488 5.49 0 3.06-2.477 5.49-5.489 5.49-3.06.048-5.49-2.43-5.49-5.49zM92.937 98.475c0-3.06 2.477-5.49 5.49-5.49a5.483 5.483 0 0 1 5.488 5.49c0 3.06-2.477 5.489-5.489 5.489s-5.49-2.478-5.49-5.49zM85.213 53.25c3.06 0 5.49 2.477 5.49 5.488 0 3.06-2.478 5.49-5.49 5.49a5.483 5.483 0 0 1-5.49-5.49 5.483 5.483 0 0 1 5.49-5.489zM98.475 40.036c3.06 0 5.489 2.477 5.489 5.49 0 3.06-2.477 5.489-5.49 5.489a5.484 5.484 0 0 1-5.489-5.49c-.048-3.06 2.43-5.489 5.49-5.489zM58.739 79.724c3.06 0 5.489 2.477 5.489 5.489 0 3.06-2.478 5.49-5.49 5.49a5.483 5.483 0 0 1-5.489-5.49c0-3.06 2.478-5.49 5.49-5.49zM45.525 92.937c3.06 0 5.49 2.477 5.49 5.49a5.483 5.483 0 0 1-5.49 5.488 5.483 5.483 0 0 1-5.489-5.489 5.484 5.484 0 0 1 5.49-5.49zM68.114 49.363c2.137-2.138 5.635-2.138 7.82 0 2.138 2.137 2.138 5.635 0 7.82-2.137 2.138-5.634 2.138-7.82 0a5.483 5.483 0 0 1 0-7.82zM68.114 30.66c2.137-2.137 5.635-2.137 7.82 0 2.138 2.138 2.138 5.636 0 7.822-2.137 2.137-5.634 2.137-7.82 0-2.186-2.186-2.186-5.684 0-7.821zM68.114 86.816c2.137-2.137 5.635-2.137 7.82 0 2.138 2.138 2.138 5.635 0 7.821-2.137 2.137-5.634 2.137-7.82 0-2.186-2.186-2.186-5.683 0-7.82zM68.114 105.518c2.137-2.137 5.635-2.137 7.82 0 2.138 2.138 2.138 5.635 0 7.821-2.137 2.138-5.634 2.138-7.82 0-2.186-2.186-2.186-5.683 0-7.821z"/></g></svg>