<svg width="152" height="152" viewBox="0 0 152 152" fill="none" xmlns="http://www.w3.org/2000/svg"><path d="M76 151c41.421 0 75-33.579 75-75S117.421 1 76 1 1 34.579 1 76s33.579 75 75 75z" stroke="#00AE99" stroke-width="2" stroke-miterlimit="10"/><path d="M76 1.502l-30.852 44.8H76L76.05 76l30.803-44.9H76.001V1.502zM76 75.997l-30.853 44.799H76l.05 29.699 30.803-44.899H76V75.997z" stroke="#00AE99" stroke-width="2" stroke-miterlimit="10" stroke-linejoin="round"/><path d="M1.502 75.998l44.8 30.852V75.998L76 75.948 31.1 45.144v30.853H1.503zM76 76l45.101 31.522V76L151 75.95l-45.202-31.47V76H76z" stroke="#00AE99" stroke-width="2" stroke-miterlimit="10" stroke-linejoin="round"/></svg>