<svg width="90" height="90" viewBox="0 0 90 90" fill="none" xmlns="http://www.w3.org/2000/svg">
<path d="M2 45C2 68.7578 21.2421 88 45 88C68.7579 88 88 68.7578 88 45C88 21.6448 69.3906 2.63278 46.1793 2.02876C45.7478 2.02876 45.3452 2 44.9137 2C21.2134 2.02876 2 21.2709 2 45Z" stroke="#00AE99" stroke-width="3" stroke-miterlimit="10" stroke-linejoin="round"/>
<path d="M30 45C30 53.2876 36.7124 60 45 60C53.2876 60 60 53.2876 60 45C60 36.8528 53.5084 30.2207 45.4114 30.01C45.2609 30.01 45.1204 30 44.9699 30C36.7023 30.01 30 36.7224 30 45Z" stroke="#00AE99" stroke-width="3" stroke-miterlimit="10" stroke-linejoin="round"/>
<path d="M21 45C21 58.2602 31.7398 69 45 69C58.2602 69 69 58.2602 69 45C69 31.9645 58.6134 21.3532 45.6582 21.0161C45.4174 21.0161 45.1926 21 44.9518 21C31.7237 21.0161 21 31.7559 21 45Z" stroke="#00AE99" stroke-width="3" stroke-miterlimit="10" stroke-linejoin="round"/>
<path d="M56.5 56L76 75.5" stroke="#00AE99" stroke-width="3"/>
<path d="M45 70.5C54.0057 70.5 62.1515 74.8777 67.8311 81.94L70.1689 80.06C63.9926 72.3798 55.0243 67.5 45 67.5V70.5ZM45 67.5C34.9757 67.5 26.0074 72.3798 19.8311 80.06L22.1689 81.94C27.8485 74.8777 35.9943 70.5 45 70.5V67.5Z" fill="#00AE99"/>
</svg>
