<svg width="124" height="124" viewBox="0 0 124 124" fill="none" xmlns="http://www.w3.org/2000/svg">
<path d="M44.6582 74.4521L12.4089 95.6738M18.9394 103.633L46.699 76.2888" stroke="#00AE99" stroke-width="2.5"/>
<path d="M51.3926 80.5745L34.6538 115.266M25.8784 109.96L49.1477 78.5338" stroke="#00AE99" stroke-width="2.5"/>
<path d="M77.212 78.8086L75.9699 78.949L75.9699 78.949L77.212 78.8086ZM77.603 60.0842L76.4001 59.7443L77.603 60.0842ZM84.9562 43.7018L83.979 42.9223L83.9342 42.9785L83.8961 43.0394L84.9562 43.7018ZM73.085 87.8359L72.2661 88.7803L73.2262 89.6128L74.0428 88.6391L73.085 87.8359ZM56.5473 79.3763L57.4218 80.2694L57.459 80.2331L57.493 80.1937L56.5473 79.3763ZM53.8137 79.4142L54.6312 78.4685L54.6311 78.4685L53.8137 79.4142ZM53.0049 80.3499L53.7507 81.3531L53.8608 81.2712L53.9505 81.1674L53.0049 80.3499ZM51.4635 80.243L52.2809 79.2973L52.2809 79.2973L51.4635 80.243ZM61.3832 68.3677L60.5429 69.2931L60.5542 69.3034L60.5658 69.3134L61.3832 68.3677ZM74.9165 85.3062L75.9718 85.9761L75.9718 85.9761L74.9165 85.3062ZM91.434 27.7957L92.5916 27.3241L92.4784 27.0462L92.2514 26.85L91.434 27.7957ZM42.7642 49.0315L42.8049 50.2809L42.8049 50.2809L42.7642 49.0315ZM61.2349 45.9355L61.7453 47.0765L61.2349 45.9355ZM76.3811 36.2894L77.1898 37.2424L77.2446 37.1959L77.2937 37.1435L76.3811 36.2894ZM34.429 54.4212L33.4956 53.5898L32.6503 54.5386L33.613 55.3682L34.429 54.4212ZM45.1923 69.5609L44.2467 68.7435L44.2127 68.7828L44.182 68.8248L45.1923 69.5609ZM45.5503 72.2712L46.3678 71.3256L46.3678 71.3256L45.5503 72.2712ZM44.7415 73.207L43.7958 72.3895L43.7061 72.4933L43.641 72.6141L44.7415 73.207ZM45.0703 74.7167L45.8878 73.771L45.8878 73.771L45.0703 74.7167ZM55.3854 63.1831L54.5679 64.1288L54.5795 64.1388L54.5913 64.1485L55.3854 63.1831ZM36.667 52.2431L35.8515 51.2958L35.8515 51.2958L36.667 52.2431ZM91.1826 27.5784L92 26.6327L91.773 26.4365L91.4817 26.3647L91.1826 27.5784ZM83.9509 43.0422L61.4101 69.1188L63.3014 70.7536L85.8422 44.6771L83.9509 43.0422ZM78.4541 78.6681C78.0305 74.9211 76.5083 68.5531 78.8059 60.4242L76.4001 59.7443C73.9348 68.4667 75.5746 75.4525 75.9699 78.949L78.4541 78.6681ZM78.8059 60.4242C80.6674 53.8382 84.3943 46.96 86.0163 44.3642L83.8961 43.0394C82.2037 45.748 78.349 52.8492 76.4001 59.7443L78.8059 60.4242ZM85.9334 44.4813C86.7782 43.4222 88.106 41.5706 89.3107 39.7677C90.4904 38.002 91.6492 36.1406 92.0741 35.11L89.7628 34.1571C89.4497 34.9164 88.4417 36.5683 87.232 38.3788C86.0471 40.1522 84.7628 41.9398 83.979 42.9223L85.9334 44.4813ZM73.904 86.8915L60.2718 75.0706L58.634 76.9594L72.2661 88.7803L73.904 86.8915ZM58.5072 75.1976L55.6017 78.5589L57.493 80.1937L60.3985 76.8324L58.5072 75.1976ZM55.6728 78.4831C55.6952 78.4612 55.6589 78.4988 55.5624 78.5515C55.474 78.5998 55.3704 78.6413 55.265 78.6627C55.163 78.6835 55.0696 78.6837 54.9818 78.6633C54.8989 78.6441 54.7803 78.5974 54.6312 78.4685L52.9963 80.3599C53.9198 81.1581 54.9373 81.2805 55.7629 81.1126C56.5187 80.959 57.1181 80.5669 57.4218 80.2694L55.6728 78.4831ZM52.8681 78.5968L52.0592 79.5325L53.9505 81.1674L54.7594 80.2317L52.8681 78.5968ZM52.2591 79.3468C52.279 79.332 52.2917 79.3249 52.2958 79.3226C52.3006 79.32 52.302 79.3197 52.3006 79.3202C52.2965 79.3217 52.2938 79.3219 52.2957 79.3217C52.2974 79.3216 52.3007 79.3216 52.3054 79.3221C52.3102 79.3227 52.3147 79.3237 52.3182 79.3249C52.3218 79.326 52.3213 79.3263 52.3164 79.3236C52.3115 79.3208 52.2994 79.3133 52.2809 79.2973L50.646 81.1886C51.8617 82.2394 53.2052 81.7587 53.7507 81.3531L52.2591 79.3468ZM60.5658 69.3134C61.2107 69.8709 61.7136 71.4882 60.5236 72.8649L62.4149 74.4998C64.5664 72.0109 63.8212 68.8229 62.2006 67.422L60.5658 69.3134ZM60.5236 72.8649L58.5072 75.1976L60.3985 76.8324L62.4149 74.4998L60.5236 72.8649ZM74.0428 88.6391C74.5796 87.999 75.2848 87.0584 75.9718 85.9761L73.8611 84.6363C73.2323 85.627 72.5921 86.4784 72.1273 87.0326L74.0428 88.6391ZM75.9718 85.9761C76.6408 84.9221 77.3127 83.7022 77.792 82.4704C78.2624 81.2613 78.5956 79.9197 78.4541 78.6681L75.9699 78.949C76.045 79.6133 75.8726 80.509 75.4621 81.5639C75.0605 82.5961 74.4763 83.6671 73.8611 84.6363L75.9718 85.9761ZM75.7339 84.3606L62.2867 72.7367L60.6518 74.628L74.099 86.2519L75.7339 84.3606ZM60.2703 75.0693L54.4097 70.0034L52.7748 71.8947L58.6354 76.9607L60.2703 75.0693ZM57.4148 66.5254C58.723 67.6581 59.9087 68.7173 60.5429 69.2931L62.2235 67.4423C61.5753 66.8537 60.3749 65.7815 59.0512 64.6354L57.4148 66.5254ZM48.6813 76.6305L52.9964 80.3599L54.6311 78.4685L50.316 74.739L48.6813 76.6305ZM47.2951 78.2921L50.646 81.1886L52.2809 79.2973L48.9299 76.4007L47.2951 78.2921ZM92.0741 35.11C92.483 34.1181 92.8555 32.8177 93.0125 31.4685C93.1677 30.1352 93.1262 28.6366 92.5916 27.3241L90.2763 28.2672C90.5897 29.0365 90.6594 30.0618 90.5293 31.1795C90.4011 32.2814 90.0918 33.359 89.7628 34.1571L92.0741 35.11ZM75.2878 35.5538L52.747 61.6303L54.6383 63.2652L77.1792 37.1886L75.2878 35.5538ZM42.8049 50.2809C46.3218 50.1661 53.4713 50.778 61.7453 47.0765L60.7244 44.7945C53.0135 48.244 46.4923 47.6592 42.7234 47.7822L42.8049 50.2809ZM61.7453 47.0765C68.2859 44.1505 74.7546 39.309 77.1898 37.2424L75.5723 35.3363C73.2384 37.3168 66.9718 41.9996 60.7244 44.7945L61.7453 47.0765ZM77.2937 37.1435C78.1525 36.2258 79.7355 34.6963 81.3187 33.2674C82.9352 31.8084 84.4239 30.572 85.1299 30.1523L83.8526 28.0033C82.8943 28.5728 81.2201 29.9887 79.6437 31.4115C78.034 32.8643 76.3941 34.446 75.4684 35.4352L77.2937 37.1435ZM33.613 55.3682L47.2819 67.1466L48.9138 65.2527L35.2449 53.4743L33.613 55.3682ZM47.1522 65.3822L44.2467 68.7435L46.138 70.3784L49.0435 67.0171L47.1522 65.3822ZM44.182 68.8248C43.9317 69.1684 43.6304 69.8183 43.5877 70.5883C43.5411 71.4295 43.8094 72.4187 44.7329 73.2169L46.3678 71.3256C46.2187 71.1967 46.1553 71.0861 46.1243 71.0068C46.0914 70.9229 46.0781 70.8305 46.0839 70.7266C46.0899 70.6192 46.1159 70.5106 46.1509 70.4161C46.1892 70.3131 46.221 70.2717 46.2026 70.297L44.182 68.8248ZM44.6047 71.4538L43.7958 72.3895L45.6871 74.0244L46.496 73.0887L44.6047 71.4538ZM43.641 72.6141C43.3186 73.2126 43.0373 74.6115 44.2529 75.6624L45.8878 73.771C45.8693 73.755 45.8601 73.7441 45.8566 73.7397C45.8532 73.7353 45.8534 73.7348 45.8551 73.7381C45.8567 73.7414 45.8584 73.7457 45.8597 73.7504C45.8609 73.7549 45.8613 73.7583 45.8614 73.7599C45.8616 73.7618 45.8613 73.7592 45.8623 73.7549C45.8626 73.7534 45.8624 73.7548 45.8606 73.76C45.8589 73.7644 45.8537 73.7779 45.8419 73.7998L43.641 72.6141ZM56.2028 62.2375C54.5822 60.8366 51.32 60.5606 49.1686 63.0495L51.0599 64.6844C52.25 63.3077 53.9229 63.5713 54.5679 64.1288L56.2028 62.2375ZM49.1686 63.0495L47.1522 65.3822L49.0435 67.0171L51.0599 64.6844L49.1686 63.0495ZM35.3623 55.2527C35.8435 54.7125 36.5933 53.9559 37.4825 53.1904L35.8515 51.2958C34.88 52.1321 34.0513 52.966 33.4956 53.5898L35.3623 55.2527ZM37.4825 53.1904C38.3526 52.4414 39.3278 51.7084 40.291 51.1617C41.2754 50.6029 42.1367 50.3027 42.8049 50.2809L42.7234 47.7822C41.4645 47.8233 40.1853 48.347 39.057 48.9875C37.9074 49.6399 36.7976 50.4813 35.8515 51.2958L37.4825 53.1904ZM35.8496 53.1887L49.2968 64.8126L50.9317 62.9213L37.4845 51.2974L35.8496 53.1887ZM47.2804 67.1453L53.141 72.2113L54.7759 70.3199L48.9153 65.254L47.2804 67.1453ZM59.4158 64.9506C58.0903 63.8066 56.8557 62.774 56.1795 62.2178L54.5913 64.1485C55.2529 64.6927 56.4724 65.7127 57.7825 66.8433L59.4158 64.9506ZM50.6824 75.0557L46.3678 71.3256L44.7328 73.2168L49.0474 76.9469L50.6824 75.0557ZM49.2387 76.6676L45.8878 73.771L44.2529 75.6624L47.6038 78.559L49.2387 76.6676ZM85.1299 30.1523C85.872 29.7113 86.8935 29.2494 87.9652 28.9631C89.0523 28.6726 90.0769 28.5933 90.8835 28.792L91.4817 26.3647C90.1056 26.0255 88.6168 26.2013 87.3199 26.5478C86.0077 26.8984 84.7749 27.4551 83.8526 28.0033L85.1299 30.1523ZM92.2514 26.85L92 26.6327L90.3651 28.524L90.6165 28.7413L92.2514 26.85Z" fill="#00AE99"/>
<path d="M66.0818 13.4286V16.2857M66.0818 19.1428V16.2857M66.0818 16.2857H63.2246H68.9389" stroke="#00AE99" stroke-width="2.5"/>
<path d="M108.122 62V64.8571M108.122 67.7143V64.8571M108.122 64.8571H105.265H110.979" stroke="#00AE99" stroke-width="2.5"/>
<path d="M37.9182 25.6735V28.5307M37.9182 31.3878V28.5307M37.9182 28.5307H35.061H40.7753" stroke="#00AE99" stroke-width="2.5"/>
<path d="M62 122C95.1371 122 122 95.1371 122 62C122 28.8629 95.1371 2 62 2C28.8629 2 2 28.8629 2 62C2 95.1371 28.8629 122 62 122Z" stroke="#00AE99" stroke-width="2.5" stroke-miterlimit="10"/>
</svg>
