<svg width="82" height="82" viewBox="0 0 82 82" fill="none" xmlns="http://www.w3.org/2000/svg">
<path d="M1 41C1 63.1003 18.8997 81 41 81C63.1003 81 81 63.1003 81 41C81 19.2743 63.689 1.58863 42.097 1.02676C41.6956 1.02676 41.3211 1 40.9197 1C18.8729 1.02676 1 18.9264 1 41Z" stroke="#00AE99" stroke-width="2" stroke-miterlimit="10" stroke-linejoin="round"/>
<path d="M19.1396 32.1628H61.9303V59.9057L40.535 68.4419L19.1396 59.9057V32.1628Z" stroke="#00AE99" stroke-width="2" stroke-miterlimit="10" stroke-linejoin="round"/>
<path d="M26.5815 26.5814C26.5815 18.8751 32.8287 12.6279 40.535 12.6279V12.6279C48.2413 12.6279 54.4885 18.8751 54.4885 26.5814V32.1628H26.5815V26.5814Z" stroke="#00AE99" stroke-width="2" stroke-miterlimit="10" stroke-linejoin="round"/>
<rect x="37.7441" y="42.3953" width="5.5814" height="13.0233" rx="2.7907" stroke="#00AE99" stroke-width="2" stroke-miterlimit="10" stroke-linejoin="round"/>
</svg>
