<svg width="91" height="90" viewBox="0 0 91 90" fill="none" xmlns="http://www.w3.org/2000/svg">
<path d="M2 45C2 68.7579 21.2421 88 45 88C68.7579 88 88 68.7579 88 45C88 21.6448 69.3906 2.63278 46.1793 2.02876C45.7478 2.02876 45.3452 2 44.9137 2C21.2134 2.02876 2 21.2709 2 45Z" stroke="#00AE99" stroke-width="3" stroke-miterlimit="10" stroke-linejoin="round"/>
<path d="M15 15H75V75H62.8125H26.25H15V15Z" stroke="#00AE99" stroke-width="3" stroke-miterlimit="10"/>
<path d="M68.2435 21.7253H21.7253V68.2436H30.4475H58.7945H68.2435V21.7253Z" stroke="#00AE99" stroke-width="3" stroke-miterlimit="10"/>
<path d="M14.6464 44.9844H21.7253" stroke="#00AE99" stroke-width="3"/>
<path d="M14.6464 34.8718H21.7253" stroke="#00AE99" stroke-width="3"/>
<path d="M14.6464 55.0971H21.7253" stroke="#00AE99" stroke-width="3"/>
<circle cx="44.9844" cy="44.9844" r="14.1577" stroke="#00AE99" stroke-width="3" stroke-miterlimit="10"/>
<path d="M44.9844 30.8267V38.9168" stroke="#00AE99" stroke-width="3"/>
<path d="M32.1647 38.9766L39.4902 42.4097" stroke="#00AE99" stroke-width="3"/>
<path d="M35.2801 55.2932L40.8255 49.4026" stroke="#00AE99" stroke-width="3"/>
<path d="M54.7349 55.2497L49.1632 49.3839" stroke="#00AE99" stroke-width="3"/>
<path d="M57.8132 38.996L50.4825 42.4181" stroke="#00AE99" stroke-width="3"/>
<ellipse cx="44.9844" cy="44.9844" rx="5.05633" ry="5.05633" stroke="#00AE99" stroke-width="3" stroke-miterlimit="10"/>
</svg>
