<svg width="80" height="80" viewBox="0 0 80 80" fill="none" xmlns="http://www.w3.org/2000/svg">
<path d="M1.77759 39.9988C1.77759 61.1163 18.8812 78.2199 39.9987 78.2199C61.1161 78.2199 78.2198 61.1163 78.2198 39.9988C78.2198 19.2392 61.6786 2.34016 41.0469 1.80328C40.6634 1.80328 40.3055 1.77771 39.922 1.77771C18.8556 1.80328 1.77759 18.9069 1.77759 39.9988Z" stroke="#00AE99" stroke-width="2" stroke-miterlimit="10" stroke-linejoin="round"/>
<path d="M13.3328 13.3329H66.6645V66.6646H55.8315H23.3325H13.3328V13.3329Z" stroke="#00AE99" stroke-width="2" stroke-miterlimit="10"/>
<path d="M60.659 19.3108H19.3107V60.6591H27.0635H52.2601H60.659V19.3108Z" stroke="#00AE99" stroke-width="2" stroke-miterlimit="10"/>
<path d="M13.0186 39.985H19.3107" stroke="#00AE99" stroke-width="2"/>
<path d="M13.0186 30.9962H19.3107" stroke="#00AE99" stroke-width="2"/>
<path d="M13.0186 48.9738H19.3107" stroke="#00AE99" stroke-width="2"/>
<circle cx="39.9849" cy="39.985" r="12.5843" stroke="#00AE99" stroke-width="2" stroke-miterlimit="10"/>
<path d="M39.9849 27.4008V34.5918" stroke="#00AE99" stroke-width="2"/>
<path d="M28.5898 34.6449L35.1013 37.6964" stroke="#00AE99" stroke-width="2"/>
<path d="M31.359 49.1481L36.2881 43.9121" stroke="#00AE99" stroke-width="2"/>
<path d="M48.6516 49.1094L43.6992 43.8955" stroke="#00AE99" stroke-width="2"/>
<path d="M51.3879 34.6621L44.8719 37.7039" stroke="#00AE99" stroke-width="2"/>
<circle cx="39.9849" cy="39.985" r="4.49438" stroke="#00AE99" stroke-width="2" stroke-miterlimit="10"/>
</svg>
