<svg width="77" height="23" viewBox="0 0 77 23" fill="none" xmlns="http://www.w3.org/2000/svg">
<path opacity="0.7" d="M24.598 17V4.862H25.72V11.288L32.486 4.862H33.914L30.021 8.687L34.356 17H33.132L29.273 9.656H28.933L25.72 12.682V17H24.598ZM37.8041 20.4H36.7161L38.4671 16.201L34.8631 8.5H36.0191L38.8241 14.501H39.2321L41.7651 8.5H42.8871L37.8041 20.4ZM48.7967 8.279C49.964 8.279 50.8877 8.69833 51.5677 9.537C52.2477 10.3757 52.5877 11.4467 52.5877 12.75C52.5877 14.042 52.242 15.113 51.5507 15.963C50.8707 16.8017 49.9527 17.221 48.7967 17.221C47.584 17.221 46.666 16.83 46.0427 16.048H45.7027V17H44.6657V4.641H45.7367V9.452H46.0767C46.6887 8.67 47.5954 8.279 48.7967 8.279ZM48.6607 16.269C49.5674 16.269 50.27 15.9517 50.7687 15.317C51.2674 14.671 51.5167 13.8153 51.5167 12.75C51.5167 11.6847 51.2674 10.8347 50.7687 10.2C50.27 9.554 49.5674 9.231 48.6607 9.231C47.686 9.231 46.955 9.571 46.4677 10.251C45.9804 10.9197 45.7367 11.7527 45.7367 12.75C45.7367 13.736 45.9804 14.569 46.4677 15.249C46.955 15.929 47.686 16.269 48.6607 16.269ZM62.0655 12.223V12.563H55.4525V12.801C55.4525 13.855 55.7188 14.6993 56.2515 15.334C56.7955 15.9573 57.5208 16.269 58.4275 16.269C59.7308 16.269 60.5298 15.7647 60.8245 14.756H61.8955C61.7481 15.4813 61.3798 16.0763 60.7905 16.541C60.2011 16.9943 59.4135 17.221 58.4275 17.221C57.1581 17.221 56.1665 16.7903 55.4525 15.929C54.7385 15.0677 54.3815 13.974 54.3815 12.648C54.3815 11.3333 54.7385 10.2793 55.4525 9.486C56.1778 8.68133 57.1638 8.279 58.4105 8.279C59.5778 8.279 60.4788 8.66433 61.1135 9.435C61.7481 10.2057 62.0655 11.135 62.0655 12.223ZM58.3765 9.231C57.5605 9.231 56.9031 9.46333 56.4045 9.928C55.9171 10.3927 55.6225 10.9537 55.5205 11.611H60.9605C60.9151 10.9537 60.6658 10.3927 60.2125 9.928C59.7591 9.46333 59.1471 9.231 58.3765 9.231ZM68.893 8.5V9.486H68.247C67.4083 9.486 66.734 9.75233 66.224 10.285C65.7253 10.8177 65.476 11.56 65.476 12.512V17H64.405V8.5H65.442V9.537H65.782C66.36 8.84567 67.2043 8.5 68.315 8.5H68.893Z" fill="#999999"/>
<g opacity="0.7">
<path d="M6.79883 9.99997L14.3925 14.0559C14.6658 14.1977 15 14.0275 15 13.7439V6.25603C15 5.9724 14.6658 5.80223 14.3925 5.94404L6.79883 9.99997Z" fill="#999999"/>
<path d="M14.2582 3.59199L9.25599 0.079222C9.02198 -0.0893906 8.70025 0.023018 8.64172 0.30404L6.79883 8.1445L14.1996 4.21023C14.4629 4.06973 14.4629 3.7606 14.2582 3.59199Z" fill="#999999"/>
<path d="M9.25132 19.9196L14.2438 16.3707C14.4774 16.2017 14.4482 15.8919 14.2146 15.7511L6.79883 11.8359L8.60899 19.7225C8.6674 19.976 9.01774 20.0886 9.25132 19.9196Z" fill="#999999"/>
<path d="M4.57976 9.99219L6.78489 1.68812C6.88663 1.36033 6.41168 1.11449 6.07244 1.33302L0.441014 4.80214C0.169621 4.99336 0 5.26652 0 5.567V14.4174C0 14.7179 0.169621 14.991 0.441014 15.1822L6.07244 18.6787C6.41168 18.8699 6.85272 18.6514 6.78489 18.3236L4.57976 9.99219Z" fill="#999999"/>
</g>
</svg>
