<svg width="94" height="23" viewBox="0 0 94 23" fill="none" xmlns="http://www.w3.org/2000/svg">
<path opacity="0.7" d="M36.758 4.862H37.88V12.716C37.88 14.1327 37.4777 15.2377 36.673 16.031C35.8683 16.8243 34.718 17.221 33.222 17.221C31.726 17.221 30.5757 16.8243 29.771 16.031C28.9663 15.2377 28.564 14.1327 28.564 12.716V4.862H29.686V12.733C29.686 13.7983 29.992 14.6427 30.604 15.266C31.216 15.8893 32.0887 16.201 33.222 16.201C34.3553 16.201 35.228 15.8893 35.84 15.266C36.452 14.6427 36.758 13.7983 36.758 12.733V4.862ZM48.2062 17H47.1352V11.781C47.1352 10.081 46.3475 9.231 44.7722 9.231C43.9562 9.231 43.2818 9.537 42.7492 10.149C42.2278 10.761 41.9672 11.492 41.9672 12.342V17H40.8962V8.5H41.9332V9.452H42.2732C42.5112 9.112 42.8682 8.83433 43.3442 8.619C43.8315 8.39233 44.3585 8.279 44.9252 8.279C45.9452 8.279 46.7442 8.57367 47.3222 9.163C47.9115 9.741 48.2062 10.5287 48.2062 11.526V17ZM52.0787 8.5V17H51.0077V8.5H52.0787ZM52.1297 5.984H50.9567V4.641H52.1297V5.984ZM57.9651 17.221C56.8431 17.221 55.9761 16.9943 55.3641 16.541C54.7521 16.0877 54.3894 15.453 54.2761 14.637H55.3301C55.5341 15.725 56.3784 16.269 57.8631 16.269C58.6224 16.269 59.2118 16.133 59.6311 15.861C60.0618 15.5777 60.2771 15.1697 60.2771 14.637C60.2771 14.2063 60.1468 13.8663 59.8861 13.617C59.6254 13.3677 59.1948 13.1977 58.5941 13.107C57.7894 12.9937 57.1151 12.8747 56.5711 12.75C55.2678 12.5007 54.6161 11.8207 54.6161 10.71C54.6161 9.996 54.8938 9.41233 55.4491 8.959C56.0158 8.50567 56.8261 8.279 57.8801 8.279C58.8208 8.279 59.5744 8.49433 60.1411 8.925C60.7078 9.34433 61.0364 9.91667 61.1271 10.642H60.0731C60.0164 10.1887 59.7784 9.843 59.3591 9.605C58.9398 9.35567 58.4241 9.231 57.8121 9.231C57.1434 9.231 56.6221 9.35567 56.2481 9.605C55.8741 9.843 55.6871 10.1773 55.6871 10.608C55.6871 10.9707 55.8004 11.2483 56.0271 11.441C56.2651 11.6337 56.6334 11.781 57.1321 11.883C57.2114 11.8943 57.3474 11.917 57.5401 11.951C57.7328 11.9737 57.8744 11.9963 57.9651 12.019L59.0191 12.189C60.5718 12.4723 61.3481 13.277 61.3481 14.603C61.3481 15.3283 61.0421 15.946 60.4301 16.456C59.8294 16.966 59.0078 17.221 57.9651 17.221ZM66.8759 11.475H68.4739L70.0379 15.946H70.3779L71.4149 8.5H72.4689L71.2789 17H69.4259L67.8109 12.495H67.4709L65.8559 17H64.0029L62.8129 8.5H63.8669L64.9209 15.946H65.2609L66.8759 11.475ZM80.2544 17V16.048H79.9144C79.6424 16.3993 79.2627 16.6827 78.7754 16.898C78.2994 17.1133 77.761 17.221 77.1604 17.221C76.197 17.221 75.4434 16.9547 74.8994 16.422C74.3554 15.8893 74.0834 15.2433 74.0834 14.484C74.0834 13.7133 74.3384 13.056 74.8484 12.512C75.3697 11.968 76.1744 11.696 77.2624 11.696H80.2204V11.169C80.2204 10.591 80.0334 10.1263 79.6594 9.775C79.2854 9.41233 78.7074 9.231 77.9254 9.231C77.234 9.231 76.7014 9.36133 76.3274 9.622C75.9534 9.87133 75.7494 10.2283 75.7154 10.693H74.6444C74.7124 9.93367 75.041 9.34433 75.6304 8.925C76.2197 8.49433 76.9847 8.279 77.9254 8.279C78.9567 8.279 79.7727 8.52833 80.3734 9.027C80.9854 9.52567 81.2914 10.217 81.2914 11.101V17H80.2544ZM77.3134 16.269C78.118 16.269 78.8037 16.0197 79.3704 15.521C79.937 15.011 80.2204 14.3707 80.2204 13.6V12.597H77.5514C76.7807 12.597 76.1857 12.7613 75.7664 13.09C75.3584 13.4073 75.1544 13.8437 75.1544 14.399C75.1544 14.9883 75.347 15.4473 75.7324 15.776C76.129 16.1047 76.656 16.269 77.3134 16.269ZM88.1746 17.221C86.9733 17.221 86.0666 16.83 85.4546 16.048H85.1146V20.4H84.0436V8.5H85.0806V9.452H85.4206C86.044 8.67 86.962 8.279 88.1746 8.279C89.3306 8.279 90.2486 8.704 90.9286 9.554C91.62 10.3927 91.9656 11.458 91.9656 12.75C91.9656 14.0533 91.6256 15.1243 90.9456 15.963C90.2656 16.8017 89.342 17.221 88.1746 17.221ZM88.0386 9.231C87.064 9.231 86.333 9.571 85.8456 10.251C85.3583 10.931 85.1146 11.764 85.1146 12.75C85.1146 13.7473 85.3583 14.586 85.8456 15.266C86.333 15.9347 87.064 16.269 88.0386 16.269C88.9453 16.269 89.648 15.9517 90.1466 15.317C90.6453 14.671 90.8946 13.8153 90.8946 12.75C90.8946 11.6847 90.6453 10.8347 90.1466 10.2C89.648 9.554 88.9453 9.231 88.0386 9.231Z" fill="#999999"/>
<g opacity="0.7">
<path fill-rule="evenodd" clip-rule="evenodd" d="M16.4096 5.87345C16.0545 6.21157 15.4926 6.19772 15.1545 5.84263L14.2363 4.87815C12.884 3.45765 10.6363 3.40237 9.21583 4.75465L3.0522 10.6224L8.89716 10.7661C9.38728 10.7782 9.77485 11.1853 9.76285 11.6754C9.75079 12.1656 9.34365 12.5532 8.85347 12.5411L0.865962 12.3447C0.375784 12.3327 -0.0117871 11.9255 0.000274037 11.4354L0.196714 3.44784C0.208775 2.95766 0.615853 2.57009 1.10603 2.58215C1.59621 2.59422 1.98378 3.00129 1.97172 3.49147L1.82796 9.33637L7.9916 3.46867C10.1223 1.44027 13.4939 1.5232 15.5223 3.65386L16.4405 4.61835C16.7785 4.97348 16.7648 5.53539 16.4096 5.87345Z" fill="#999999"/>
<path fill-rule="evenodd" clip-rule="evenodd" d="M2.76442 14.1266C3.11951 13.7885 3.68147 13.8023 4.01953 14.1574L4.93773 15.1219C6.29002 16.5424 8.53777 16.5976 9.95821 15.2454L16.1218 9.37765L10.2769 9.2339C9.78676 9.22189 9.39919 8.81476 9.41119 8.32458C9.42325 7.83446 9.83039 7.44683 10.3206 7.45889L18.3081 7.65533C18.7983 7.66739 19.1858 8.07453 19.1738 8.56465L18.9773 16.5522C18.9653 17.0424 18.5582 17.43 18.068 17.4179C17.5778 17.4058 17.1903 16.9987 17.2023 16.5086L17.3461 10.6636L11.1824 16.5314C9.05178 18.5598 5.68015 18.4769 3.65175 16.3462L2.73355 15.3817C2.39549 15.0266 2.40929 14.4646 2.76442 14.1266Z" fill="#999999"/>
</g>
</svg>
