<svg width="57" height="23" viewBox="0 0 57 23" fill="none" xmlns="http://www.w3.org/2000/svg">
<path opacity="0.7" d="M27.244 6.426C28.026 5.38333 29.063 4.862 30.355 4.862C31.647 4.862 32.6783 5.38333 33.449 6.426C34.231 7.45733 34.622 8.99867 34.622 11.05C34.622 13.1013 34.231 14.6427 33.449 15.674C32.6783 16.7053 31.647 17.221 30.355 17.221C29.063 17.221 28.026 16.7053 27.244 15.674C26.4733 14.6427 26.088 13.1013 26.088 11.05C26.088 8.99867 26.4733 7.45733 27.244 6.426ZM27.193 11.05C27.193 12.7047 27.448 13.974 27.958 14.858L32.038 6.409C31.5847 6.035 31.0237 5.848 30.355 5.848C29.3237 5.848 28.536 6.29567 27.992 7.191C27.4593 8.075 27.193 9.36133 27.193 11.05ZM30.355 16.235C31.3863 16.235 32.1683 15.793 32.701 14.909C33.245 14.025 33.517 12.7387 33.517 11.05C33.517 9.39533 33.262 8.13167 32.752 7.259L28.672 15.691C29.1367 16.0537 29.6977 16.235 30.355 16.235ZM42.814 17L40.536 13.243H39.924L37.561 17H36.371L39.125 12.648L36.66 8.5H37.816L39.924 12.053H40.536L42.678 8.5H43.834L41.335 12.597L44.072 17H42.814Z" fill="white"/>
<path d="M4.2009 12.6404L5.75336 11.0341L3.82332 8.4296L1.36592 4.95247C0.497758 6.43408 0 8.15874 0 10C0 13.0502 1.36592 15.7812 3.52018 17.6152L6.63946 15.4108C5.57847 14.7498 4.72377 13.7874 4.2009 12.6404Z" fill="white"/>
<path d="M7.35964 4.2009L8.96592 5.75336L11.5704 3.82332L15.0475 1.36592C13.5659 0.497758 11.8413 0 10 0C6.94978 0 4.21883 1.36592 2.38475 3.52018L4.58924 6.63946C5.25022 5.57847 6.21256 4.72377 7.35964 4.2009Z" fill="white"/>
<path d="M14.2466 8.96592L16.1767 11.5704L18.6341 15.0475C19.5022 13.5659 20 11.8413 20 10C20 6.94978 18.6341 4.21883 16.4798 2.38475L13.3605 4.58924C14.4215 5.25022 15.2762 6.21256 15.7991 7.35964L14.2466 8.96592Z" fill="white"/>
<path d="M17.6152 16.4798L15.4108 13.3605C14.7498 14.4215 13.7874 15.2762 12.6404 15.7991L11.0341 14.2466L8.4296 16.1767L4.95247 18.6341C6.43408 19.5022 8.15874 20 10 20C13.0502 20 15.7812 18.6341 17.6152 16.4798Z" fill="white"/>
</svg>
