<svg width="45" height="36" viewBox="0 0 45 36" fill="none" xmlns="http://www.w3.org/2000/svg">
<path d="M44.8202 4.28708C43.1869 5.00497 41.4429 5.49403 39.6067 5.71733C41.478 4.58974 42.9175 2.81253 43.5985 0.692059C41.8434 1.71631 39.8983 2.46189 37.8276 2.87712C36.1741 1.10729 33.8174 0 31.2005 0C26.1863 0 22.1206 4.06562 22.1206 9.07428C22.1206 9.79402 22.2037 10.4861 22.355 11.1486C14.807 10.7924 8.11705 7.16789 3.63989 1.68862C2.85186 3.02107 2.41079 4.56944 2.41079 6.25622C2.41079 9.41201 4.01637 12.1858 6.44872 13.8153C4.95941 13.7674 3.55869 13.3577 2.33697 12.6785V12.7911C2.33697 17.1926 5.46139 20.8633 9.61928 21.6993C8.85709 21.9041 8.05246 22.0149 7.22752 22.0149C6.64804 22.0149 6.09255 21.9595 5.53705 21.8562C6.70156 25.4604 10.0493 28.0884 14.0337 28.1622C10.9333 30.5964 7.00422 32.047 2.77251 32.047C2.05276 32.047 1.33487 32.0045 0.613281 31.9233C4.65306 34.4959 9.41258 36 14.5597 36C31.2687 36 40.3947 22.1662 40.3947 10.189C40.3947 9.80325 40.3947 9.41385 40.367 9.0263C42.1405 7.75475 43.6889 6.14733 44.9069 4.32399L44.8202 4.28708Z" fill="white"/>
</svg>
