<svg width="50" height="41" viewBox="0 0 50 41" fill="none" xmlns="http://www.w3.org/2000/svg">
<path d="M4.49975 24.6813C4.37725 25.2447 4.31396 25.8246 4.31396 26.4105C4.31396 33.4398 13.3012 39.1687 24.3505 39.1687C35.3957 39.1687 44.383 33.4439 44.383 26.4105C44.383 25.8511 44.3238 25.2958 44.2156 24.7588L44.1849 24.6935C44.1421 24.5812 44.1257 24.4689 44.1257 24.3566C43.5092 21.9577 41.8452 19.7813 39.4382 18.0215C39.3463 17.9888 39.2585 17.9418 39.1809 17.8785C39.1278 17.8377 39.089 17.7928 39.0441 17.7479C35.3855 15.2285 30.1508 13.6483 24.3526 13.6483C18.6054 13.6483 13.4217 15.1979 9.76307 17.6723C9.73449 17.7091 9.70386 17.7397 9.66303 17.7724C9.58341 17.8398 9.49154 17.8949 9.39762 17.9255C6.93542 19.6854 5.22861 21.8801 4.59162 24.3015C4.59162 24.4199 4.56304 24.5343 4.51608 24.6506L4.49975 24.6813ZM24.4526 35.7898C20.7899 35.7898 18.2113 34.9956 16.5658 33.3459C16.2126 32.9907 16.2126 32.4129 16.5658 32.0556C16.9251 31.7188 17.5049 31.7188 17.8622 32.0556C19.1484 33.3398 21.3024 33.9809 24.4526 33.9809C27.6008 33.9809 29.7425 33.3684 31.0246 32.0842C31.3615 31.7494 31.9433 31.7494 32.3088 32.0842C32.6457 32.4517 32.6457 33.0336 32.3088 33.4011C30.6571 35.0507 28.0928 35.8469 24.424 35.8469L24.4526 35.7898ZM17.0905 20.3285C15.2244 20.3285 13.6667 21.8903 13.6667 23.7523C13.6667 25.6102 15.2244 27.121 17.0905 27.121C18.9565 27.121 20.4612 25.6102 20.4612 23.7523C20.4612 21.8903 18.9524 20.3285 17.0905 20.3285ZM31.8576 20.3285C29.9915 20.3285 28.4317 21.8903 28.4317 23.7523C28.4317 25.6102 29.9915 27.121 31.8576 27.121C33.7236 27.121 35.2283 25.6102 35.2283 23.7523C35.2283 21.8903 33.7196 20.3285 31.8576 20.3285ZM41.1429 17.0721C43.2601 18.7728 44.8178 20.7899 45.612 23.001C46.5308 22.315 47.08 21.237 47.08 20.0427C47.08 17.997 45.416 16.3351 43.3683 16.3351C42.5537 16.3351 41.7799 16.5984 41.1429 17.0762V17.0721ZM5.53486 16.3392C3.4871 16.3392 1.82522 18.0051 1.82522 20.0508C1.82522 21.1594 2.31317 22.1905 3.14003 22.8867C3.95872 20.6837 5.53282 18.6952 7.65815 17.0149C7.04158 16.5862 6.30455 16.3432 5.5369 16.3432V16.3392H5.53486ZM24.3526 41C12.2947 41 2.48875 34.4566 2.48875 26.4187C2.48875 25.8572 2.5357 25.308 2.62758 24.767C1.00856 23.7605 0 21.9863 0 20.0427C0 16.9884 2.50508 14.5037 5.56344 14.5037C6.9395 14.5037 8.22368 15.006 9.23225 15.8961C13.0215 13.4645 18.1276 11.9333 23.7523 11.8292L27.4517 0.55124L28.2766 0.745195C28.2766 0.745195 28.3092 0.745194 28.3092 0.749278L36.931 2.77662C37.6334 1.1474 39.2544 0 41.147 0C43.6562 0 45.7019 2.0498 45.7019 4.561C45.7019 7.07629 43.6541 9.122 41.147 9.122C38.6399 9.122 36.5942 7.0722 36.5942 4.56917L28.7318 2.7072L25.7368 11.8476C31.1471 12.0619 36.0409 13.5911 39.7097 15.9737C40.7183 15.0264 42.0453 14.5058 43.452 14.5058C46.5104 14.5058 49.0011 16.9823 49.0011 20.0406C49.0011 22.0557 47.8987 23.8911 46.1878 24.8691C46.247 25.3897 46.3082 25.8777 46.3082 26.3983C46.2776 34.4382 36.4962 40.9816 24.422 40.9816L24.3526 41ZM41.051 1.82726C39.5402 1.82726 38.3153 3.05019 38.3153 4.55896C38.3153 6.06568 39.5402 7.29474 41.051 7.29474C42.5455 7.29474 43.7664 6.06976 43.7664 4.57121C43.7664 3.07469 42.5455 1.85176 41.0163 1.85176L41.051 1.82726Z" fill="white"/>
</svg>
