<svg width="40" height="44" viewBox="0 0 40 44" fill="none" xmlns="http://www.w3.org/2000/svg">
<path d="M34.8156 0C37.3489 0 39.3921 2.04861 39.5129 4.45939V43.2425L34.6895 39.1471L32.0409 36.7363L29.1509 34.2175L30.3581 38.1904H5.06478C2.5387 38.1904 0.488281 36.2715 0.488281 33.7292V4.46839C0.488281 2.05762 2.5423 0.00540532 5.07379 0.00540532H34.803L34.8156 0ZM23.7924 10.2395H23.7383L23.3744 10.5998C27.1095 11.6809 28.9166 13.3691 28.9166 13.3691C26.5095 12.1656 24.3401 11.5638 22.1708 11.3205C20.6033 11.0773 19.0357 11.2052 17.7114 11.3205H17.3511C16.5042 11.3205 14.7025 11.6809 12.2881 12.6448C11.4467 13.0106 10.9638 13.2502 10.9638 13.2502C10.9638 13.2502 12.7692 11.4449 16.7475 10.4809L16.5042 10.2377C16.5042 10.2377 13.4917 10.1224 10.2395 12.5259C10.2395 12.5259 6.98727 18.1907 6.98727 25.1744C6.98727 25.1744 8.78905 28.3094 13.7313 28.4284C13.7313 28.4284 14.452 27.468 15.1817 26.623C12.407 25.7798 11.3259 24.0933 11.3259 24.0933C11.3259 24.0933 11.5674 24.2122 11.9295 24.4536H12.0376C12.0917 24.4536 12.1169 24.4807 12.1457 24.5077V24.5185C12.1746 24.5473 12.1998 24.5726 12.2539 24.5726C12.8484 24.8176 13.443 25.059 13.9295 25.2933C14.7691 25.6572 15.8484 26.0194 17.1727 26.259C18.8483 26.5023 20.769 26.6194 22.9564 26.259C24.0374 26.0158 25.1185 25.778 26.1996 25.2951C26.9023 24.9347 27.7671 24.5744 28.7166 23.9672C28.7166 23.9672 27.6356 25.6536 24.7437 26.4969C25.3383 27.3365 26.1761 28.2986 26.1761 28.2986C31.1202 28.1905 33.0409 25.0554 33.149 25.1888C33.149 18.2159 29.8788 12.5403 29.8788 12.5403C26.9329 10.353 24.1762 10.2701 23.6897 10.2701L23.7906 10.2341L23.7924 10.2395ZM24.0951 18.1907C25.3617 18.1907 26.3834 19.2718 26.3834 20.5961C26.3834 21.9294 25.3563 23.0104 24.0951 23.0104C22.8339 23.0104 21.8068 21.9294 21.8068 20.6069C21.8105 19.2736 22.8393 18.1961 24.0951 18.1961V18.1907ZM15.9096 18.1907C17.1709 18.1907 18.1907 19.2718 18.1907 20.5961C18.1907 21.9294 17.1637 23.0104 15.9024 23.0104C14.6412 23.0104 13.6142 21.9294 13.6142 20.6069C13.6142 19.2736 14.6412 18.1961 15.9024 18.1961L15.9096 18.1907Z" fill="white"/>
</svg>
