<svg width="38" height="38" viewBox="0 0 38 38" fill="none" xmlns="http://www.w3.org/2000/svg">
<path d="M19 0.17334C8.5025 0.17334 0 8.68059 0 19.1733C0 27.5698 5.4435 34.69 12.9913 37.1996C13.9412 37.3785 14.2896 36.7911 14.2896 36.286C14.2896 35.8348 14.2738 34.6393 14.2658 33.056C8.98067 34.2023 7.866 30.5068 7.866 30.5068C7.0015 28.3139 5.75225 27.7281 5.75225 27.7281C4.03117 26.5501 5.88525 26.5738 5.88525 26.5738C7.79317 26.7068 8.79542 28.5308 8.79542 28.5308C10.4896 31.4363 13.243 30.5971 14.3292 30.111C14.5002 28.8823 14.9894 28.0448 15.5325 27.5698C11.3129 27.0948 6.878 25.4608 6.878 18.1806C6.878 16.1064 7.61425 14.4123 8.83342 13.0823C8.61967 12.6025 7.97842 10.6708 8.99967 8.05359C8.99967 8.05359 10.5909 7.54376 14.2247 10.0011C15.7447 9.57834 17.3597 9.36934 18.9747 9.35984C20.5897 9.36934 22.2047 9.57834 23.7247 10.0011C27.3347 7.54376 28.9259 8.05359 28.9259 8.05359C29.9472 10.6708 29.3059 12.6025 29.1159 13.0823C30.3272 14.4123 31.0634 16.1064 31.0634 18.1806C31.0634 25.4798 26.6222 27.0868 22.3947 27.5539C23.0597 28.1239 23.6772 29.2893 23.6772 31.0689C23.6772 33.6118 23.6534 35.6543 23.6534 36.2718C23.6534 36.7705 23.9859 37.3643 24.9597 37.1743C32.5613 34.6821 38 27.5571 38 19.1733C38 8.68059 29.4928 0.17334 19 0.17334Z" fill="white"/>
</svg>
