<svg width="38" height="38" viewBox="0 0 38 38" fill="none" xmlns="http://www.w3.org/2000/svg">
<path d="M35.9037 0H2.09633C0.938917 0 0 0.938917 0 2.09633V35.9037C0 37.0627 0.938917 38 2.09633 38H20.2952V23.2845H15.3409V17.5513H20.2952V13.3158C20.2952 8.40908 23.294 5.73958 27.6719 5.73958C29.7698 5.73958 31.5733 5.89317 32.0989 5.96283V11.0928H29.0573C26.6823 11.0928 26.22 12.2344 26.22 13.8969V17.556H31.8947L31.1584 23.3035H26.22V38H35.9021C37.0627 38 38 37.0627 38 35.9037V2.09633C38 0.938917 37.0627 0 35.9037 0Z" fill="white"/>
</svg>
