<svg width="150" height="150" viewBox="0 0 150 150" fill="none" xmlns="http://www.w3.org/2000/svg">
<circle cx="75" cy="75" r="73" stroke="#00AE99" stroke-width="3"/>
<path d="M32 96H119M32 96V85H119V96M32 96H36V106.5H48M103 142V106.5M48 142V106.5M119 96H115V106.5H103M103 106.5H92.25M48 106.5H58.75M75.5 106.5V148M75.5 106.5H58.75M75.5 106.5H92.25M58.75 106.5V146M92.25 106.5V146" stroke="#00AE99" stroke-width="3"/>
<path d="M75.3265 76.5343C93.1472 76.5343 107.594 62.0878 107.594 44.2672C107.594 26.4465 93.1472 12 75.3265 12C57.5058 12 43.0593 26.4465 43.0593 44.2672C43.0593 62.0878 57.5058 76.5343 75.3265 76.5343Z" stroke="#00AE99" stroke-width="3" stroke-miterlimit="10"/>
<path d="M66.4197 57.1739V58.6739H67.9197H85.2999H86.7999V57.1739V52.1138V50.6138H85.2999H81.0799V29.0134V27.5134H79.5799H74.0798H73.6189L73.2375 27.7722L67.0774 31.9523L66.4197 32.3986V33.1935V39.2803V42.1109L68.7619 40.5215L72.5798 37.9308V50.6138H67.9197H66.4197V52.1138V57.1739Z" stroke="#00AE99" stroke-width="3"/>
<path d="M43.0593 44.0473C49.7328 42.9472 54.8662 37.2271 54.8662 30.187C54.8662 27.0337 53.8395 24.1736 52.0795 21.8269C46.5794 27.6203 43.1327 35.4671 43.0593 44.0473Z" stroke="#00AE99" stroke-width="3" stroke-miterlimit="10"/>
<path d="M43.0593 44.4871C43.1327 53.1405 46.5794 60.914 52.0795 66.7074C53.8395 64.3607 54.8662 61.5007 54.8662 58.3473C54.8662 51.3072 49.7328 45.5137 43.0593 44.4871Z" stroke="#00AE99" stroke-width="3" stroke-miterlimit="10"/>
<path d="M107.594 44.0473C100.92 42.9472 95.7869 37.2271 95.7869 30.187C95.7869 27.0337 96.8135 24.1736 98.5736 21.8269C104.074 27.6203 107.52 35.4671 107.594 44.0473Z" stroke="#00AE99" stroke-width="3" stroke-miterlimit="10"/>
<path d="M107.594 44.4871C107.52 53.1405 104.074 60.914 98.5736 66.7074C96.8135 64.3607 95.7869 61.5007 95.7869 58.3473C95.7869 51.3072 100.92 45.5137 107.594 44.4871Z" stroke="#00AE99" stroke-width="3" stroke-miterlimit="10"/>
</svg>
