<svg width="152" height="152" viewBox="0 0 152 152" fill="none" xmlns="http://www.w3.org/2000/svg"><path d="M76 151c41.421 0 75-33.579 75-75S117.421 1 76 1 1 34.579 1 76s33.579 75 75 75z" stroke="#00AE99" stroke-width="2" stroke-miterlimit="10"/><path d="M114.869 14.138H38.226v124.818h76.643V14.138z" stroke="#00AE99" stroke-width="2" stroke-miterlimit="10"/><path d="M101.73 26.189H51.365v100.73h50.365V26.189z" stroke="#00AE99" stroke-width="2" stroke-miterlimit="10"/><path d="M76.547 76.554c13.908 0 25.183-11.275 25.183-25.183 0-13.907-11.275-25.182-25.183-25.182-13.907 0-25.182 11.275-25.182 25.182 0 13.908 11.275 25.183 25.182 25.183zM76.547 126.919c13.908 0 25.183-11.274 25.183-25.182S90.455 76.554 76.547 76.554c-13.907 0-25.182 11.275-25.182 25.183s11.275 25.182 25.182 25.182z" stroke="#00AE99" stroke-width="2" stroke-miterlimit="10"/></svg>