<svg width="200" height="200" viewBox="0 0 200 200" fill="none" xmlns="http://www.w3.org/2000/svg">
<path d="M152.898 90.2041C176.703 90.2041 196 70.9066 196 47.102C196 23.2974 176.703 4 152.898 4C129.093 4 109.796 23.2974 109.796 47.102C109.796 70.9066 129.093 90.2041 152.898 90.2041Z" stroke="#00AE99" stroke-width="2.5" stroke-miterlimit="10"/>
<path d="M164.183 14.423V25.081H174.841" stroke="#00AE99" stroke-width="2.5" stroke-miterlimit="10"/>
<path d="M174.841 25.0809V57.9952H145.61V14.4229H164.183L174.841 25.0809Z" stroke="#00AE99" stroke-width="2.5" stroke-miterlimit="10"/>
<path d="M141.613 79.7814V69.1234H130.955" stroke="#00AE99" stroke-width="2.5" stroke-miterlimit="10"/>
<path d="M130.955 69.1236V36.2093H160.186V79.7815H141.613L130.955 69.1236Z" stroke="#00AE99" stroke-width="2.5" stroke-miterlimit="10"/>
<path d="M47.102 91.4581C70.9066 91.4581 90.2041 72.1606 90.2041 48.356C90.2041 24.5514 70.9066 5.25398 47.102 5.25398C23.2974 5.25398 4 24.5514 4 48.356C4 72.1606 23.2974 91.4581 47.102 91.4581Z" stroke="#00AE99" stroke-width="2.5" stroke-miterlimit="10"/>
<path d="M47.102 91.3791C70.8629 91.3791 90.1249 72.1171 90.1249 48.3562C90.1249 24.5953 70.8629 5.33333 47.102 5.33333C23.3411 5.33333 4.0791 24.5953 4.0791 48.3562C4.0791 72.1171 23.3411 91.3791 47.102 91.3791Z" stroke="#00AE99" stroke-width="2.5" stroke-miterlimit="10"/>
<path d="M35.9761 65.5651V66.8151H37.2261H60.3998H61.6498V65.5651V58.8183V57.5683H60.3998H54.023V28.0178V26.7678H52.773H45.4395H45.0555L44.7377 26.9835L36.5242 32.5569L35.9761 32.9289V33.5913V41.7069V44.0658L37.928 42.7413L44.1895 38.4924V57.5683H37.2261H35.9761V58.8183V65.5651Z" stroke="#00AE99" stroke-width="2.5"/>
<path d="M4.0791 48.0629C12.977 46.5962 19.8216 38.9694 19.8216 29.5826C19.8216 25.3781 18.4527 21.5647 16.106 18.4357C8.77251 26.1603 4.17688 36.6227 4.0791 48.0629Z" stroke="#00AE99" stroke-width="2.5" stroke-miterlimit="10"/>
<path d="M4.0791 48.6493C4.17688 60.1873 8.77251 70.5519 16.106 78.2765C18.4527 75.1475 19.8216 71.3341 19.8216 67.1296C19.8216 57.7428 12.977 50.0182 4.0791 48.6493Z" stroke="#00AE99" stroke-width="2.5" stroke-miterlimit="10"/>
<path d="M90.1248 48.0629C81.2269 46.5962 74.3823 38.9694 74.3823 29.5826C74.3823 25.3781 75.7512 21.5647 78.0979 18.4357C85.4314 26.1603 90.027 36.6227 90.1248 48.0629Z" stroke="#00AE99" stroke-width="2.5" stroke-miterlimit="10"/>
<path d="M90.1248 48.6494C90.027 60.1874 85.4314 70.552 78.0979 78.2765C75.7512 75.1476 74.3823 71.3342 74.3823 67.1297C74.3823 57.7429 81.2269 50.0183 90.1248 48.6494Z" stroke="#00AE99" stroke-width="2.5" stroke-miterlimit="10"/>
<path d="M47.102 197.254C70.9066 197.254 90.2041 177.957 90.2041 154.152C90.2041 130.347 70.9066 111.05 47.102 111.05C23.2974 111.05 4 130.347 4 154.152C4 177.957 23.2974 197.254 47.102 197.254Z" stroke="#00AE99" stroke-width="2.5" stroke-miterlimit="10"/>
<path d="M47.102 197.254C70.9066 197.254 90.2041 177.957 90.2041 154.152C90.2041 130.347 70.9066 111.05 47.102 111.05C23.2974 111.05 4 130.347 4 154.152C4 177.957 23.2974 197.254 47.102 197.254Z" stroke="#00AE99" stroke-width="2.5" stroke-miterlimit="10"/>
<path d="M51.4904 151.955V126.642H55.0953V119.511H39.1084V126.642H42.7133V151.955C34.4847 153.914 28.3721 161.359 28.3721 170.136C28.3721 180.481 36.7574 188.866 47.1019 188.866C57.4464 188.866 65.8317 180.481 65.8317 170.136C65.8317 161.281 59.719 153.914 51.4904 151.955Z" stroke="#00AE99" stroke-width="2.5" stroke-miterlimit="10"/>
<path d="M55.0953 119.435H39.1084V126.566H55.0953V119.435Z" stroke="#00AE99" stroke-width="2.5" stroke-miterlimit="10"/>
<path d="M31.5068 159.638H62.6187" stroke="#00AE99" stroke-width="2.5" stroke-miterlimit="10"/>
<path d="M152.898 197.254C176.703 197.254 196 177.957 196 154.152C196 130.347 176.703 111.05 152.898 111.05C129.093 111.05 109.796 130.347 109.796 154.152C109.796 177.957 129.093 197.254 152.898 197.254Z" stroke="#00AE99" stroke-width="2.5" stroke-miterlimit="10"/>
<path d="M152.667 125.333L126.667 160.338H152.667L152.738 182.667L178.667 147.591H152.667V125.333Z" stroke="#00AE99" stroke-width="2.5" stroke-miterlimit="10"/>
</svg>
