<svg width="250" height="250" viewBox="0 0 250 250" fill="none" xmlns="http://www.w3.org/2000/svg">
<g clip-path="url(#clip0)">
<path d="M192.122 112.755C221.878 112.755 246 88.6333 246 58.8776C246 29.1218 221.878 5 192.122 5C162.367 5 138.245 29.1218 138.245 58.8776C138.245 88.6333 162.367 112.755 192.122 112.755Z" stroke="#00AE99" stroke-width="3" stroke-miterlimit="10"/>
<path d="M206.229 18.0288V31.3513H219.551" stroke="#00AE99" stroke-width="3" stroke-miterlimit="10"/>
<path d="M219.551 31.3511V72.494H183.012V18.0287H206.229L219.551 31.3511Z" stroke="#00AE99" stroke-width="3" stroke-miterlimit="10"/>
<path d="M178.016 99.7268V86.4043H164.694" stroke="#00AE99" stroke-width="3" stroke-miterlimit="10"/>
<path d="M164.694 86.4045V45.2616H201.233V99.7269H178.016L164.694 86.4045Z" stroke="#00AE99" stroke-width="3" stroke-miterlimit="10"/>
<path d="M59.8776 114.323C89.6333 114.323 113.755 90.2008 113.755 60.445C113.755 30.6893 89.6333 6.56747 59.8776 6.56747C30.1218 6.56747 6 30.6893 6 60.445C6 90.2008 30.1218 114.323 59.8776 114.323Z" stroke="#00AE99" stroke-width="3" stroke-miterlimit="10"/>
<path d="M59.8775 114.224C89.5786 114.224 113.656 90.1464 113.656 60.4453C113.656 30.7442 89.5786 6.66666 59.8775 6.66666C30.1764 6.66666 6.09888 30.7442 6.09888 60.4453C6.09888 90.1464 30.1764 114.224 59.8775 114.224Z" stroke="#00AE99" stroke-width="3" stroke-miterlimit="10"/>
<path d="M46.0329 81.9563V83.4563H47.5329H76.5H78V81.9563V73.5229V72.0229H76.5H68.4665V35.0223V33.5223H66.9665H57.7997H57.3388L56.9574 33.7811L46.6906 40.7478L46.0329 41.1942V41.9891V52.1337V54.9643L48.3751 53.3749L56.2997 47.9975V72.0229H47.5329H46.0329V73.5229V81.9563Z" stroke="#00AE99" stroke-width="3"/>
<path d="M6.09889 60.0786C17.2213 58.2452 25.777 48.7118 25.777 36.9782C25.777 31.7226 24.0658 26.9559 21.1325 23.0447C11.9656 32.7004 6.22112 45.7784 6.09889 60.0786Z" stroke="#00AE99" stroke-width="3" stroke-miterlimit="10"/>
<path d="M6.09889 60.8116C6.22112 75.2341 11.9656 88.1898 21.1325 97.8456C24.0658 93.9344 25.777 89.1676 25.777 83.912C25.777 72.1785 17.2213 62.5228 6.09889 60.8116Z" stroke="#00AE99" stroke-width="3" stroke-miterlimit="10"/>
<path d="M113.656 60.0786C102.534 58.2452 93.9781 48.7118 93.9781 36.9782C93.9781 31.7226 95.6892 26.9559 98.6226 23.0447C107.789 32.7004 113.534 45.7784 113.656 60.0786Z" stroke="#00AE99" stroke-width="3" stroke-miterlimit="10"/>
<path d="M113.656 60.8117C113.534 75.2342 107.789 88.1899 98.6226 97.8456C95.6892 93.9345 93.9781 89.1677 93.9781 83.9121C93.9781 72.1786 102.534 62.5229 113.656 60.8117Z" stroke="#00AE99" stroke-width="3" stroke-miterlimit="10"/>
<path d="M59.8776 246.567C89.6333 246.567 113.755 222.446 113.755 192.69C113.755 162.934 89.6333 138.812 59.8776 138.812C30.1218 138.812 6 162.934 6 192.69C6 222.446 30.1218 246.567 59.8776 246.567Z" stroke="#00AE99" stroke-width="3" stroke-miterlimit="10"/>
<path d="M59.8776 246.567C89.6333 246.567 113.755 222.446 113.755 192.69C113.755 162.934 89.6333 138.812 59.8776 138.812C30.1218 138.812 6 162.934 6 192.69C6 222.446 30.1218 246.567 59.8776 246.567Z" stroke="#00AE99" stroke-width="3" stroke-miterlimit="10"/>
<path d="M65.3633 189.944V158.303H69.8695V149.389H49.8858V158.303H54.3919V189.944C44.1062 192.393 36.4654 201.699 36.4654 212.67C36.4654 225.601 46.947 236.083 59.8776 236.083C72.8082 236.083 83.2899 225.601 83.2899 212.67C83.2899 201.601 75.6491 192.393 65.3633 189.944Z" stroke="#00AE99" stroke-width="3" stroke-miterlimit="10"/>
<path d="M69.8694 149.294H49.8857V158.208H69.8694V149.294Z" stroke="#00AE99" stroke-width="3" stroke-miterlimit="10"/>
<path d="M40.3837 199.547H79.2735" stroke="#00AE99" stroke-width="3" stroke-miterlimit="10"/>
<path d="M192.122 246.567C221.878 246.567 246 222.446 246 192.69C246 162.934 221.878 138.812 192.122 138.812C162.367 138.812 138.245 162.934 138.245 192.69C138.245 222.446 162.367 246.567 192.122 246.567Z" stroke="#00AE99" stroke-width="3" stroke-miterlimit="10"/>
<path d="M191.833 156.667L159.333 200.422H191.833L191.923 228.333L224.333 184.489H191.833V156.667Z" stroke="#00AE99" stroke-width="3" stroke-miterlimit="10"/>
</g>
<defs>
<clipPath id="clip0">
<rect width="250" height="250" fill="white"/>
</clipPath>
</defs>
</svg>
