<svg width="80" height="80" viewBox="0 0 80 80" fill="none" xmlns="http://www.w3.org/2000/svg">
<mask id="path-1-inside-1" fill="white">
<path fill-rule="evenodd" clip-rule="evenodd" d="M22.0452 7.52836C30.3124 7.52836 37.0144 14.2303 37.0144 22.4976C37.0144 24.1151 36.7578 25.6727 36.2832 27.132L51.2098 42.0586L51.1787 42.0897L52.706 43.6169C54.2414 43.0852 55.8902 42.7963 57.6066 42.7963C65.8738 42.7963 72.5758 49.4983 72.5758 57.7655C72.5758 59.77 72.1818 61.6824 71.4671 63.4296L63.1357 55.2032L55.1791 55.2032L55.1791 63.4296L63.6752 71.4535C61.8203 72.2771 59.7669 72.7348 57.6066 72.7348C49.3393 72.7348 42.6374 66.0328 42.6374 57.7655C42.6374 56.1478 42.894 54.5901 43.3687 53.1307L28.4425 38.2045L28.4736 38.1734L26.9462 36.646C25.4107 37.1779 23.7617 37.4668 22.0452 37.4668C13.7779 37.4668 7.07595 30.7648 7.07595 22.4976C7.07595 20.4931 7.46992 18.5807 8.18464 16.8336L16.516 25.0599H24.4726L24.4726 16.8336L15.9766 8.80957C17.8315 7.98597 19.8849 7.52836 22.0452 7.52836Z"/>
</mask>
<path fill-rule="evenodd" clip-rule="evenodd" d="M22.0452 7.52836C30.3124 7.52836 37.0144 14.2303 37.0144 22.4976C37.0144 24.1151 36.7578 25.6727 36.2832 27.132L51.2098 42.0586L51.1787 42.0897L52.706 43.6169C54.2414 43.0852 55.8902 42.7963 57.6066 42.7963C65.8738 42.7963 72.5758 49.4983 72.5758 57.7655C72.5758 59.77 72.1818 61.6824 71.4671 63.4296L63.1357 55.2032L55.1791 55.2032L55.1791 63.4296L63.6752 71.4535C61.8203 72.2771 59.7669 72.7348 57.6066 72.7348C49.3393 72.7348 42.6374 66.0328 42.6374 57.7655C42.6374 56.1478 42.894 54.5901 43.3687 53.1307L28.4425 38.2045L28.4736 38.1734L26.9462 36.646C25.4107 37.1779 23.7617 37.4668 22.0452 37.4668C13.7779 37.4668 7.07595 30.7648 7.07595 22.4976C7.07595 20.4931 7.46992 18.5807 8.18464 16.8336L16.516 25.0599H24.4726L24.4726 16.8336L15.9766 8.80957C17.8315 7.98597 19.8849 7.52836 22.0452 7.52836Z" fill="#F3F6F4"/>
<path d="M22.0452 7.52836L22.0452 5.52836L22.0452 5.52836L22.0452 7.52836ZM36.2832 27.132L34.3813 26.5133L34.002 27.6792L34.869 28.5462L36.2832 27.132ZM51.2098 42.0586L52.624 43.4728L54.0383 42.0586L52.624 40.6444L51.2098 42.0586ZM51.1787 42.0897L49.7645 40.6755L48.3503 42.0897L49.7645 43.5039L51.1787 42.0897ZM52.706 43.6169L51.2918 45.0311L52.1772 45.9166L53.3605 45.5068L52.706 43.6169ZM57.6066 42.7963L57.6066 44.7963L57.6066 44.7963L57.6066 42.7963ZM72.5758 57.7655L74.5758 57.7655L72.5758 57.7655ZM71.4671 63.4296L70.0619 64.8527L72.1873 66.9514L73.3182 64.1868L71.4671 63.4296ZM63.1357 55.2032L64.541 53.7801L63.9567 53.2032L63.1357 53.2032L63.1357 55.2032ZM55.1791 55.2032L55.1791 53.2032L53.1791 53.2032L53.1791 55.2032L55.1791 55.2032ZM55.1791 63.4296L53.1791 63.4296L53.1791 64.2917L53.8059 64.8836L55.1791 63.4296ZM63.6752 71.4535L64.4868 73.2815L67.2326 72.0623L65.0484 69.9995L63.6752 71.4535ZM57.6066 72.7348V70.7348L57.6066 70.7348L57.6066 72.7348ZM42.6374 57.7655L44.6374 57.7655L44.6374 57.7655L42.6374 57.7655ZM43.3687 53.1307L45.2706 53.7494L45.6499 52.5835L44.7829 51.7165L43.3687 53.1307ZM28.4425 38.2045L27.0283 36.7903L25.6141 38.2045L27.0283 39.6187L28.4425 38.2045ZM28.4736 38.1734L29.8878 39.5876L31.302 38.1734L29.8878 36.7592L28.4736 38.1734ZM26.9462 36.646L28.3604 35.2318L27.4749 34.3464L26.2917 34.7562L26.9462 36.646ZM22.0452 37.4668L22.0452 39.4668L22.0452 37.4668ZM7.07595 22.4976L5.07595 22.4976L7.07595 22.4976ZM8.18464 16.8336L9.58985 15.4104L7.46443 13.3118L6.33353 16.0763L8.18464 16.8336ZM16.516 25.0599L15.1108 26.483L15.695 27.0599H16.516L16.516 25.0599ZM24.4726 25.0599V27.0599H26.4726V25.0599H24.4726ZM24.4726 16.8336H26.4726V15.9715L25.8458 15.3795L24.4726 16.8336ZM15.9766 8.80957L15.1649 6.98165L12.4192 8.20081L14.6033 10.2636L15.9766 8.80957ZM39.0144 22.4976C39.0144 13.1257 31.417 5.52836 22.0452 5.52836L22.0452 9.52836C29.2079 9.52836 35.0144 15.3349 35.0144 22.4976H39.0144ZM38.1851 27.7506C38.7239 26.094 39.0144 24.3278 39.0144 22.4976H35.0144C35.0144 23.9025 34.7917 25.2514 34.3813 26.5133L38.1851 27.7506ZM52.624 40.6444L37.6974 25.7178L34.869 28.5462L49.7956 43.4728L52.624 40.6444ZM52.593 43.5039L52.624 43.4728L49.7956 40.6444L49.7645 40.6755L52.593 43.5039ZM54.1202 42.2027L52.593 40.6755L49.7645 43.5039L51.2918 45.0311L54.1202 42.2027ZM57.6066 40.7963C55.6645 40.7963 53.7946 41.1234 52.0515 41.727L53.3605 45.5068C54.6882 45.047 56.116 44.7963 57.6066 44.7963L57.6066 40.7963ZM74.5758 57.7655C74.5758 48.3937 66.9784 40.7963 57.6066 40.7963L57.6066 44.7963C64.7693 44.7963 70.5758 50.6028 70.5758 57.7655L74.5758 57.7655ZM73.3182 64.1868C74.1295 62.2034 74.5758 60.0341 74.5758 57.7655L70.5758 57.7655C70.5758 59.5058 70.2341 61.1614 69.616 62.6723L73.3182 64.1868ZM61.7305 56.6264L70.0619 64.8527L72.8723 62.0064L64.541 53.7801L61.7305 56.6264ZM55.1791 57.2032L63.1357 57.2032L63.1357 53.2032L55.1791 53.2032L55.1791 57.2032ZM57.1791 63.4296L57.1791 55.2032L53.1791 55.2032L53.1791 63.4296L57.1791 63.4296ZM65.0484 69.9995L56.5524 61.9755L53.8059 64.8836L62.3019 72.9076L65.0484 69.9995ZM57.6066 74.7348C60.0518 74.7348 62.3813 74.2163 64.4868 73.2815L62.8635 69.6256C61.2593 70.3379 59.4819 70.7348 57.6066 70.7348L57.6066 74.7348ZM40.6374 57.7655C40.6374 67.1374 48.2347 74.7348 57.6066 74.7348L57.6066 70.7348C50.4439 70.7348 44.6374 64.9282 44.6374 57.7655L40.6374 57.7655ZM41.4668 52.512C40.9279 54.1687 40.6374 55.9352 40.6374 57.7655L44.6374 57.7655C44.6374 56.3605 44.8601 55.0114 45.2706 53.7494L41.4668 52.512ZM27.0283 39.6187L41.9545 54.5449L44.7829 51.7165L29.8567 36.7903L27.0283 39.6187ZM27.0594 36.7592L27.0283 36.7903L29.8567 39.6187L29.8878 39.5876L27.0594 36.7592ZM25.532 38.0603L27.0594 39.5876L29.8878 36.7592L28.3604 35.2318L25.532 38.0603ZM22.0452 39.4668C23.9874 39.4668 25.8575 39.1397 27.6008 38.5359L26.2917 34.7562C24.9638 35.2161 23.5359 35.4668 22.0452 35.4668L22.0452 39.4668ZM5.07595 22.4976C5.07595 31.8694 12.6733 39.4668 22.0452 39.4668L22.0452 35.4668C14.8825 35.4668 9.07595 29.6603 9.07595 22.4976L5.07595 22.4976ZM6.33353 16.0763C5.52219 18.0597 5.07595 20.229 5.07595 22.4976L9.07595 22.4976C9.07595 20.7573 9.41765 19.1018 10.0357 17.5908L6.33353 16.0763ZM17.9212 23.6367L9.58985 15.4104L6.77943 18.2567L15.1108 26.483L17.9212 23.6367ZM24.4726 23.0599H16.516L16.516 27.0599L24.4726 27.0599V23.0599ZM22.4726 16.8336V25.0599L26.4726 25.0599L26.4726 16.8336H22.4726ZM14.6033 10.2636L23.0994 18.2876L25.8458 15.3795L17.3498 7.35554L14.6033 10.2636ZM22.0452 5.52836C19.5999 5.52836 17.2704 6.04679 15.1649 6.98165L16.7882 10.6375C18.3925 9.92516 20.1698 9.52836 22.0452 9.52836L22.0452 5.52836Z" fill="#00AE99" mask="url(#path-1-inside-1)"/>
<mask id="mask0" mask-type="alpha" maskUnits="userSpaceOnUse" x="-1" y="-1" width="82" height="82">
<path d="M40.0009 79.04C61.5621 79.04 79.0409 61.5612 79.0409 40C79.0409 18.4388 61.5621 0.959961 40.0009 0.959961C18.4397 0.959961 0.960938 18.4388 0.960938 40C0.960938 61.5612 18.4397 79.04 40.0009 79.04Z" fill="#C4C4C4" stroke="#00AE99" stroke-width="2" stroke-miterlimit="10"/>
</mask>
<g mask="url(#mask0)">
<mask id="path-4-inside-2" fill="white">
<path fill-rule="evenodd" clip-rule="evenodd" d="M72.4296 22.3507C72.4296 30.618 65.7277 37.3199 57.4604 37.3199C55.8428 37.3199 54.2851 37.0633 52.8258 36.5886L37.8997 51.5148L37.8692 51.4843L36.3416 53.0119C36.8733 54.5473 37.1622 56.1962 37.1622 57.9125C37.1622 66.1798 30.4602 72.8817 22.193 72.8817C20.1885 72.8817 18.2761 72.4878 16.5289 71.773L24.7553 63.4417V55.4851L16.5289 55.4851L8.50496 63.9811C7.68137 62.1262 7.22375 60.0728 7.22375 57.9125C7.22375 49.6453 13.9257 42.9433 22.193 42.9433C23.8107 42.9433 25.3684 43.1999 26.8278 43.6747L41.754 28.7484L41.7845 28.7789L43.3119 27.2515C42.7801 25.716 42.4912 24.0671 42.4912 22.3507C42.4912 14.0834 49.1932 7.3815 57.4604 7.3815C59.4649 7.3815 61.3773 7.77546 63.1245 8.49018L54.8981 16.8215L54.8981 24.7781L63.1245 24.7781L71.1484 16.2821C71.972 18.137 72.4296 20.1904 72.4296 22.3507Z"/>
</mask>
<path fill-rule="evenodd" clip-rule="evenodd" d="M72.4296 22.3507C72.4296 30.618 65.7277 37.3199 57.4604 37.3199C55.8428 37.3199 54.2851 37.0633 52.8258 36.5886L37.8997 51.5148L37.8692 51.4843L36.3416 53.0119C36.8733 54.5473 37.1622 56.1962 37.1622 57.9125C37.1622 66.1798 30.4602 72.8817 22.193 72.8817C20.1885 72.8817 18.2761 72.4878 16.5289 71.773L24.7553 63.4417V55.4851L16.5289 55.4851L8.50496 63.9811C7.68137 62.1262 7.22375 60.0728 7.22375 57.9125C7.22375 49.6453 13.9257 42.9433 22.193 42.9433C23.8107 42.9433 25.3684 43.1999 26.8278 43.6747L41.754 28.7484L41.7845 28.7789L43.3119 27.2515C42.7801 25.716 42.4912 24.0671 42.4912 22.3507C42.4912 14.0834 49.1932 7.3815 57.4604 7.3815C59.4649 7.3815 61.3773 7.77546 63.1245 8.49018L54.8981 16.8215L54.8981 24.7781L63.1245 24.7781L71.1484 16.2821C71.972 18.137 72.4296 20.1904 72.4296 22.3507Z" fill="#F3F6F4"/>
<path d="M72.4296 22.3507H70.4296L70.4296 22.3507L72.4296 22.3507ZM52.8258 36.5886L53.4445 34.6867L52.2786 34.3075L51.4116 35.1744L52.8258 36.5886ZM37.8997 51.5148L36.4854 52.929L37.8997 54.3432L39.3139 52.929L37.8997 51.5148ZM37.8692 51.4843L39.2834 50.0701L37.8692 48.6559L36.455 50.0701L37.8692 51.4843ZM36.3416 53.0119L34.9274 51.5977L34.0419 52.4832L34.4517 53.6664L36.3416 53.0119ZM37.1622 57.9125H35.1622L35.1622 57.9125L37.1622 57.9125ZM22.193 72.8817L22.193 74.8817L22.193 72.8817ZM16.5289 71.773L15.1058 70.3678L13.0072 72.4933L15.7717 73.6242L16.5289 71.773ZM24.7553 63.4417L26.1784 64.8469L26.7553 64.2627L26.7553 63.4417L24.7553 63.4417ZM24.7553 55.4851L26.7553 55.4851L26.7553 53.4851L24.7553 53.4851L24.7553 55.4851ZM16.5289 55.4851L16.5289 53.4851L15.6668 53.4851L15.0749 54.1118L16.5289 55.4851ZM8.50496 63.9811L6.67705 64.7927L7.89621 67.5385L9.95899 65.3544L8.50496 63.9811ZM7.22375 57.9125L5.22375 57.9125L5.22375 57.9125L7.22375 57.9125ZM22.193 42.9433L22.193 40.9433L22.193 40.9433L22.193 42.9433ZM26.8278 43.6747L26.2091 45.5766L27.375 45.9558L28.242 45.0889L26.8278 43.6747ZM41.754 28.7484L43.1682 27.3342L41.754 25.92L40.3398 27.3342L41.754 28.7484ZM41.7845 28.7789L40.3703 30.1931L41.7845 31.6073L43.1987 30.1931L41.7845 28.7789ZM43.3119 27.2515L44.7261 28.6657L45.6116 27.7803L45.2018 26.597L43.3119 27.2515ZM42.4912 22.3507L44.4912 22.3507L44.4912 22.3507H42.4912ZM57.4604 7.3815L57.4604 9.3815H57.4604L57.4604 7.3815ZM63.1245 8.49018L64.5476 9.8954L66.6463 7.76997L63.8817 6.63907L63.1245 8.49018ZM54.8981 16.8215L53.475 15.4163L52.8981 16.0005L52.8981 16.8215L54.8981 16.8215ZM54.8981 24.7781H52.8981V26.7781H54.8981V24.7781ZM63.1245 24.7781V26.7781H63.9866L64.5785 26.1514L63.1245 24.7781ZM71.1484 16.2821L72.9764 15.4705L71.7572 12.7247L69.6944 14.9089L71.1484 16.2821ZM57.4604 39.3199C66.8323 39.3199 74.4296 31.7225 74.4296 22.3507L70.4296 22.3507C70.4296 29.5134 64.6231 35.3199 57.4604 35.3199V39.3199ZM52.2071 38.4905C53.8638 39.0294 55.6301 39.3199 57.4604 39.3199V35.3199C56.0555 35.3199 54.7064 35.0972 53.4445 34.6867L52.2071 38.4905ZM39.3139 52.929L54.24 38.0028L51.4116 35.1744L36.4854 50.1006L39.3139 52.929ZM36.455 52.8985L36.4854 52.929L39.3139 50.1006L39.2834 50.0701L36.455 52.8985ZM37.7558 54.4261L39.2834 52.8985L36.455 50.0701L34.9274 51.5977L37.7558 54.4261ZM39.1622 57.9125C39.1622 55.9704 38.8351 54.1005 38.2315 52.3574L34.4517 53.6664C34.9115 54.9942 35.1622 56.422 35.1622 57.9125L39.1622 57.9125ZM22.193 74.8817C31.5648 74.8817 39.1622 67.2844 39.1622 57.9125H35.1622C35.1622 65.0752 29.3557 70.8817 22.193 70.8817L22.193 74.8817ZM15.7717 73.6242C17.7551 74.4355 19.9244 74.8817 22.193 74.8817L22.193 70.8817C20.4527 70.8817 18.7972 70.54 17.2862 69.9219L15.7717 73.6242ZM23.3321 62.0365L15.1058 70.3678L17.9521 73.1783L26.1784 64.8469L23.3321 62.0365ZM22.7553 55.4851V63.4417L26.7553 63.4417L26.7553 55.4851H22.7553ZM16.5289 57.4851L24.7553 57.4851V53.4851L16.5289 53.4851L16.5289 57.4851ZM9.95899 65.3544L17.983 56.8583L15.0749 54.1118L7.05093 62.6079L9.95899 65.3544ZM5.22375 57.9125C5.22375 60.3578 5.74219 62.6873 6.67705 64.7927L10.3329 63.1695C9.62056 61.5652 9.22375 59.7879 9.22375 57.9125L5.22375 57.9125ZM22.193 40.9433C12.8211 40.9433 5.22375 48.5407 5.22375 57.9125L9.22375 57.9125C9.22375 50.7498 15.0303 44.9433 22.193 44.9433L22.193 40.9433ZM27.4465 41.7728C25.7898 41.2338 24.0233 40.9433 22.193 40.9433L22.193 44.9433C23.598 44.9433 24.9471 45.166 26.2091 45.5766L27.4465 41.7728ZM40.3398 27.3342L25.4136 42.2604L28.242 45.0889L43.1682 30.1627L40.3398 27.3342ZM43.1987 27.3647L43.1682 27.3342L40.3398 30.1627L40.3703 30.1931L43.1987 27.3647ZM41.8977 25.8373L40.3703 27.3647L43.1987 30.1931L44.7261 28.6657L41.8977 25.8373ZM40.4912 22.3507C40.4912 24.2929 40.8183 26.1629 41.422 27.906L45.2018 26.597C44.7419 25.2692 44.4912 23.8413 44.4912 22.3507L40.4912 22.3507ZM57.4604 5.3815C48.0886 5.3815 40.4912 12.9789 40.4912 22.3507L44.4912 22.3507C44.4912 15.188 50.2977 9.3815 57.4604 9.3815L57.4604 5.3815ZM63.8817 6.63907C61.8983 5.82773 59.729 5.3815 57.4604 5.3815L57.4604 9.3815C59.2007 9.3815 60.8562 9.72319 62.3672 10.3413L63.8817 6.63907ZM56.3213 18.2268L64.5476 9.8954L61.7013 7.08497L53.475 15.4163L56.3213 18.2268ZM56.8981 24.7781V16.8215L52.8981 16.8215L52.8981 24.7781H56.8981ZM63.1245 22.7781H54.8981V26.7781L63.1245 26.7781L63.1245 22.7781ZM69.6944 14.9089L61.6704 23.4049L64.5785 26.1514L72.6025 17.6553L69.6944 14.9089ZM74.4296 22.3507C74.4296 19.9055 73.9112 17.576 72.9764 15.4705L69.3205 17.0937C70.0328 18.698 70.4296 20.4754 70.4296 22.3507L74.4296 22.3507Z" fill="#00AE99" mask="url(#path-4-inside-2)"/>
<path d="M40.0009 79.04C61.5621 79.04 79.0409 61.5612 79.0409 40C79.0409 18.4388 61.5621 0.959961 40.0009 0.959961C18.4397 0.959961 0.960938 18.4388 0.960938 40C0.960938 61.5612 18.4397 79.04 40.0009 79.04Z" stroke="#00AE99" stroke-width="2" stroke-miterlimit="10"/>
</g>
</svg>
