<svg width="82" height="82" viewBox="0 0 82 82" fill="none" xmlns="http://www.w3.org/2000/svg">
<path fill-rule="evenodd" clip-rule="evenodd" d="M20.8121 8.75352C26.663 5.08261 33.5841 2.95999 41.0009 2.95999C49.2255 2.95999 56.8405 5.57014 63.0627 10.0073L53.2891 16.2269L55.5775 25.0537L45.0358 35.5954L35.9931 26.5527C36.3624 25.2995 36.5606 23.9729 36.5606 22.6C36.5606 14.8901 30.3105 8.64001 22.6006 8.64001C21.9946 8.64001 21.3977 8.67863 20.8121 8.75352ZM57.0187 26.441L46.45 37.0096L55.4476 46.0072C56.7006 45.6381 58.0269 45.44 59.3995 45.44C67.1093 45.44 73.3595 51.6901 73.3595 59.4C73.3595 60.0071 73.3207 60.6052 73.2455 61.1919C76.9176 55.3403 79.0409 48.4181 79.0409 41C79.0409 32.7747 76.4303 25.1591 71.9925 18.9366L65.7728 28.7105L57.0187 26.441ZM69.9704 16.345C70.2197 16.6376 70.4647 16.9341 70.7052 17.2343L64.8665 26.4095L57.5 24.4996L55.5901 17.1331L64.7651 11.2946C65.0658 11.5354 65.3628 11.7808 65.6559 12.0305L69.9704 16.345ZM73.1462 17.1236C78.106 23.7901 81.0409 32.0523 81.0409 41C81.0409 63.1135 63.1144 81.04 41.0009 81.04C18.8875 81.04 0.960938 63.1135 0.960938 41C0.960938 18.8865 18.8875 0.959991 41.0009 0.959991C49.9479 0.959991 58.2095 3.8945 64.8757 8.85352L65.1395 8.68567L67.0141 10.5602C68.602 11.9185 70.0824 13.3989 71.4407 14.9869L73.3139 16.8601L73.1462 17.1236ZM35.21 28.598C33.8282 31.4977 31.4757 33.8457 28.5728 35.2217L46.7781 53.4271C48.1543 50.5242 50.5025 48.1718 53.4022 46.7902L35.21 28.598ZM45.9985 55.4759L36.9912 46.4685L34.9173 48.5423L41.4997 55.1247L27.353 69.2714C25.1522 71.4722 22.2038 72.4699 19.3253 72.2645C25.4752 76.5362 32.9457 79.04 41.0009 79.04C48.4179 79.04 55.3391 76.9173 61.1902 73.2462C60.6039 73.3213 60.0062 73.36 59.3995 73.36C51.6896 73.36 45.4395 67.1099 45.4395 59.4C45.4395 58.0376 45.6346 56.7207 45.9985 55.4759ZM33.5031 47.1281L35.5769 45.0543L26.5238 36.0012C25.2793 36.3649 23.9627 36.56 22.6006 36.56C14.8907 36.56 8.64062 30.3099 8.64062 22.6C8.64062 21.9941 8.67922 21.3972 8.7541 20.8117C5.08342 26.6625 2.96094 33.5834 2.96094 41C2.96094 49.0842 5.48273 56.5794 9.78257 62.7419C9.57058 59.8564 10.5677 56.8988 12.7741 54.6925L26.9208 40.5458L33.5031 47.1281ZM19.1936 11.1323C20.2733 10.812 21.4169 10.64 22.6006 10.64C29.206 10.64 34.5606 15.9947 34.5606 22.6C34.5606 29.2053 29.206 34.56 22.6006 34.56C15.9953 34.56 10.6406 29.2053 10.6406 22.6C10.6406 21.5995 10.7635 20.6277 10.9949 19.6989L18.641 27.3449L27.0236 18.9623L19.1936 11.1323ZM17.1727 11.9398L24.1951 18.9623L18.641 24.5165L11.7301 17.6057C12.8555 15.1603 14.7817 13.1597 17.1727 11.9398ZM59.3995 47.44C52.7941 47.44 47.4395 52.7947 47.4395 59.4C47.4395 66.0053 52.7941 71.36 59.3995 71.36C60.5827 71.36 61.7259 71.1882 62.8053 70.8681L54.7441 62.8069L63.1267 54.4243L71.0049 62.3024C71.2365 61.3732 71.3595 60.4009 71.3595 59.4C71.3595 52.7947 66.0048 47.44 59.3995 47.44ZM70.2694 64.3954C69.1439 66.8406 67.2175 68.8411 64.8264 70.0607L57.5726 62.8069L63.1267 57.2527L70.2694 64.3954ZM12.1178 64.417C11.249 61.5735 11.9392 58.3558 14.1883 56.1067L26.9208 43.3742L29.3465 45.7999L15.3398 59.8066C14.3871 60.7276 13.0942 62.2668 12.3283 63.9226C12.2542 64.0827 12.1835 64.2479 12.1178 64.417ZM30.7607 47.2141L16.7417 61.2332L16.7353 61.2393C15.8901 62.0552 14.7732 63.4008 14.1435 64.7622C13.4941 66.1662 13.5183 67.1872 14.1883 67.8572C14.7453 68.4141 15.6637 68.4507 17.0354 67.7928C18.3424 67.166 19.648 66.0795 20.4446 65.2621L20.4536 65.2528L34.6266 51.08L30.7607 47.2141ZM36.0408 52.4942L21.8724 66.6626C20.9766 67.5809 19.4865 68.8354 17.9003 69.5961C17.7236 69.6809 17.5396 69.7621 17.3498 69.8371C20.2598 70.84 23.6159 70.18 25.9388 67.8572L38.6712 55.1247L36.0408 52.4942Z" fill="#00AE99"/>
</svg>
