<svg width="82" height="82" viewBox="0 0 82 82" fill="none" xmlns="http://www.w3.org/2000/svg">
<path fill-rule="evenodd" clip-rule="evenodd" d="M41.0009 2.95999C33.6371 2.95999 26.7619 5.05239 20.9376 8.67509C21.6263 8.57804 22.33 8.52785 23.0454 8.52785C31.3126 8.52785 38.0146 15.2298 38.0146 23.4971C38.0146 25.1148 37.758 26.6725 37.2832 28.1319L40.9136 31.7623L42.7839 29.7796L44.3123 28.2513C43.7806 26.7158 43.4917 25.067 43.4917 23.3507C43.4917 15.0834 50.1936 8.38146 58.4609 8.38146C59.2959 8.38146 60.1149 8.44983 60.9126 8.58126C55.1208 5.01629 48.301 2.95999 41.0009 2.95999ZM63.3849 10.2396L55.8986 17.8215L55.8986 25.7781H64.1249L71.3776 18.0988C69.1153 15.1028 66.4201 12.4521 63.3849 10.2396ZM73.2035 20.7413C73.3524 21.5886 73.4301 22.4606 73.4301 23.3507C73.4301 31.6179 66.7282 38.3199 58.4609 38.3199C56.8432 38.3199 55.2854 38.0633 53.8261 37.5885L50.2609 41.1537L52.1782 43.0894L53.7064 44.6175C55.2419 44.0857 56.8908 43.7969 58.6072 43.7969C66.8744 43.7969 73.5764 50.4988 73.5764 58.7661C73.5764 59.4916 73.5248 60.2051 73.425 60.903C76.9867 55.113 79.0409 48.2964 79.0409 41C79.0409 33.5536 76.9014 26.607 73.2035 20.7413ZM48.8534 39.7328L53.2788 35.3073L54.4448 35.6866C55.7068 36.0972 57.0559 36.3199 58.4609 36.3199C65.6236 36.3199 71.4301 30.5134 71.4301 23.3507C71.4301 22.6005 71.3666 21.8661 71.2449 21.1521L64.987 27.7781H53.8986L53.8986 17.0005L60.3059 10.5114C59.7038 10.4258 59.0878 10.3815 58.4609 10.3815C51.2982 10.3815 45.4917 16.188 45.4917 23.3507C45.4917 24.8412 45.7424 26.269 46.2022 27.5968L46.612 28.78L42.2558 33.1045L45.6176 36.4663L48.8534 39.7328ZM10.1309 18.7672C12.3298 15.7194 14.969 13.0103 17.9551 10.7331L25.4728 17.833L25.4728 26.0594L17.5162 26.0594L10.1309 18.7672ZM2.96094 41C2.96094 33.9823 4.86122 27.4085 8.17529 21.765C8.10982 22.3333 8.07617 22.9113 8.07617 23.4971C8.07617 31.7643 14.7781 38.4663 23.0454 38.4663C24.7617 38.4663 26.4106 38.1774 27.946 37.6457L29.4743 39.174L31.4994 41.0844L27.8265 44.6746C26.3672 44.1999 24.8095 43.9433 23.1919 43.9433C14.9246 43.9433 8.22269 50.6452 8.22269 58.9125C8.22269 59.4303 8.24899 59.942 8.30031 60.4463C4.90906 54.7558 2.96094 48.1054 2.96094 41ZM10.5797 63.842C12.8382 66.8452 15.5312 69.5031 18.5651 71.7225L25.7542 64.4416V56.485H17.5279L10.5797 63.842ZM21.7437 73.8125C27.3921 77.1347 33.974 79.04 41.0009 79.04C48.1748 79.04 54.8848 77.0542 60.6113 73.6023C59.9557 73.69 59.2867 73.7353 58.6072 73.7353C50.3399 73.7353 43.638 67.0333 43.638 58.7661C43.638 57.1484 43.8946 55.5907 44.3693 54.1314L40.8449 50.5258L38.8686 52.4835L37.3405 54.0117C37.8722 55.5472 38.1611 57.1961 38.1611 58.9125C38.1611 67.1797 31.4592 73.8817 23.1919 73.8817C22.7033 73.8817 22.2203 73.8583 21.7437 73.8125ZM39.4403 49.0888L33 42.5L32.9123 42.4172L28.3738 46.9557L27.2079 46.5765C25.9459 46.166 24.5969 45.9433 23.1919 45.9433C16.0292 45.9433 10.2227 51.7498 10.2227 58.9125C10.2227 59.6626 10.2862 60.3971 10.408 61.111L16.6658 54.485H27.7542V65.2626L21.347 71.7517C21.9491 71.8373 22.565 71.8817 23.1919 71.8817C30.3546 71.8817 36.1611 66.0752 36.1611 58.9125C36.1611 57.4219 35.9104 55.994 35.4506 54.6662L35.0408 53.4829L38.8686 49.6551L39.4403 49.0888ZM71.613 63.5861C69.38 66.6075 66.7105 69.2865 63.6975 71.5301L56.1797 64.4301V56.2038H64.1363L71.613 63.5861ZM0.960938 41C0.960938 18.8865 18.8875 0.959991 41.0009 0.959991C63.1144 0.959991 81.0409 18.8865 81.0409 41C81.0409 63.1135 63.1144 81.04 41.0009 81.04C18.8875 81.04 0.960938 63.1135 0.960938 41ZM46.6504 53.5842L46.2712 54.7501C45.8607 56.0121 45.638 57.3611 45.638 58.7661C45.638 65.9288 51.4445 71.7353 58.6072 71.7353C59.3573 71.7353 60.0918 71.6718 60.8057 71.55L54.1797 65.2922V54.2038H64.9574L71.4464 60.611C71.532 60.0089 71.5764 59.393 71.5764 58.7661C71.5764 51.6034 65.7699 45.7969 58.6072 45.7969C57.1166 45.7969 55.6887 46.0475 54.3609 46.5074L53.1776 46.9172L49.3498 43.0894L42.8229 36.5L35.002 28.6791L35.3813 27.5132C35.7919 26.2512 36.0146 24.9021 36.0146 23.4971C36.0146 16.3344 30.2081 10.5278 23.0454 10.5279C22.2952 10.5279 21.5608 10.5913 20.8468 10.7131L27.4728 16.9709L27.4728 28.0594L16.6952 28.0594L10.2061 21.6521C10.1205 22.2542 10.0762 22.8701 10.0762 23.4971C10.0762 30.6598 15.8827 36.4663 23.0454 36.4663C24.5359 36.4663 25.9637 36.2156 27.2915 35.7558L28.4747 35.346L37 43.9338L46.6504 53.5842Z" fill="#00AE99"/>
</svg>
