<svg xmlns="http://www.w3.org/2000/svg" viewBox="0 0 120 120"><path fill="none" d="M12.41 78.8c13.02 0 25.15-3.79 35.37-10.31-3.3 1.09-6.82 1.69-10.49 1.69-16.24 0-29.76-11.6-32.75-26.96A58.165 58.165 0 0 0 2.07 60c0 6.43 1.06 12.61 3 18.38 2.41.27 4.86.42 7.34.42zM51.75 44.98h-4.24v-2.01h4.24v-2.29h-4.24v-2.02h4.24v-2.79h-4.24v-2.01h4.24v-2.29H37.46V20.42h-3.68v27.36h17.97z"/><path fill="none" d="M37.29 68.17c7.79 0 14.92-2.85 20.4-7.55.99-1.12 2.05-2.17 3.18-3.15 4.84-5.52 7.78-12.74 7.78-20.66 0-16.38-12.56-29.82-28.57-31.23C24.47 11.29 12.03 23.53 6 38.98c1.13 16.31 14.7 29.19 31.29 29.19zM22.76 50.82V27.62h9.02V18.4h7.71v11.15h14.29V49.79h-20v2.04H22.75v-1.01z"/><path fill="none" d="M31.77 48.78V29.64h-7v20.17h7zM44.41 4.2c15.01 3.26 26.25 16.62 26.25 32.61 0 3.21-.46 6.31-1.31 9.24a65.61 65.61 0 0 0 8.46-41.19 58.185 58.185 0 0 0-33.4-.66z"/><path fill="none" d="M79.93 5.59c.26 2.4.4 4.84.4 7.31 0 14.67-4.67 28.25-12.58 39.35 11.1-7.91 24.68-12.58 39.35-12.58 2.47 0 4.91.14 7.31.4-5.85-15.96-18.52-28.63-34.48-34.48z"/><path fill="none" d="M74.41 50.37c2.65-.68 5.43-1.04 8.3-1.04 16.34 0 29.93 11.75 32.81 27.25A57.86 57.86 0 0 0 117.94 60c0-6.22-.99-12.2-2.8-17.81-2.63-.32-5.31-.5-8.03-.5a65.464 65.464 0 0 0-32.7 8.68z"/><path fill="none" d="M82.71 51.34c-6.38 0-12.31 1.91-17.26 5.18-3.13 2.56-6.02 5.4-8.63 8.49a31.21 31.21 0 0 0-5.47 17.69c0 16.73 13.1 30.39 29.6 31.31a58.105 58.105 0 0 0 33.08-33.08c-.93-16.49-14.6-29.59-31.32-29.59zm15.98 16.98v19.23H84.4V98.7h-7.7v-9.22h-9.01V65.27h11.03v2.04H98.7v1.01zM39.51 114.19c-.21-2.17-.32-4.38-.32-6.61 0-14.67 4.67-28.25 12.58-39.35-11.1 7.91-24.68 12.58-39.35 12.58-2.23 0-4.43-.11-6.61-.32C11.67 96 24 108.33 39.51 114.19z"/><path fill="none" d="M78.71 88.47v8.21h3.68V85.53h14.29v-2.29h-4.24v-2.01h4.24v-2.79h-4.24v-2.02h4.24v-2.29h-4.24v-2.01h4.24v-2.8H78.71zM49.33 82.71c0-3.12.44-6.13 1.24-8.99a65.64 65.64 0 0 0-8.95 41.22c5.78 1.93 11.95 3 18.38 3 5.77 0 11.33-.85 16.59-2.42-15.51-2.88-27.26-16.47-27.26-32.81zM69.7 87.46h7V67.29h-7z"/><path fill="#00AE99" d="M32.78 51.83h1.01v-2.04h19.98V29.55H39.47V18.41h-7.71v9.22h-9.02V51.84h10.04zm1-23.2v-8.21h3.68v11.15h14.29v2.29h-4.24v2.01h4.24v2.79h-4.24v2.01h4.24v2.29h-4.24v2.01h4.24v2.79H33.78V28.63zm-9.01 1.01h7V49.82h-7V29.64zM78.71 67.31v-2.04H67.69V89.48h9.02v9.22h7.71V87.55h14.29V67.31h-20zm-2.01 1.01V87.47h-7V67.29h7v1.03zm19.98 3.8h-4.24v2.01h4.24v2.29h-4.24v2.01h4.24v2.79h-4.24v2.01h4.24v2.29H82.39v11.15h-3.68V69.32h17.96v2.8z"/><path fill="#00AE99" d="M60 0C26.86 0 0 26.86 0 60s26.86 60 60 60 60-26.86 60-60S93.14 0 60 0zm57.93 60c0 5.77-.85 11.33-2.42 16.58-2.88-15.51-16.46-27.25-32.81-27.25-2.86 0-5.64.36-8.3 1.04a65.565 65.565 0 0 1 40.72-8.19c1.82 5.62 2.81 11.6 2.81 17.82zM107.1 39.67c-14.67 0-28.25 4.67-39.35 12.58 7.91-11.1 12.58-24.68 12.58-39.35 0-2.47-.14-4.91-.4-7.31 15.96 5.85 28.63 18.52 34.48 34.48-2.4-.26-4.84-.4-7.31-.4zM78.32 12.9c0 12.09-3.27 23.41-8.96 33.16.84-2.94 1.31-6.03 1.31-9.24 0-15.99-11.24-29.34-26.25-32.61A57.632 57.632 0 0 1 60 2.07c6.22 0 12.2.99 17.81 2.8.32 2.63.51 5.31.51 8.03zM40.09 5.58C56.1 6.99 68.66 20.43 68.66 36.81c0 7.92-2.94 15.14-7.78 20.66-1.13.98-2.19 2.03-3.18 3.15-5.49 4.7-12.61 7.55-20.4 7.55-16.59 0-30.16-12.88-31.28-29.19 6.01-15.45 18.46-27.69 34.07-33.4zM4.54 43.23c2.99 15.36 16.52 26.96 32.75 26.96 3.66 0 7.19-.6 10.49-1.69a65.62 65.62 0 0 1-42.72 9.88c-1.93-5.78-3-11.95-3-18.38.01-5.83.88-11.46 2.48-16.77zm7.87 37.58c14.67 0 28.25-4.67 39.35-12.58-7.91 11.1-12.58 24.68-12.58 39.35 0 2.23.12 4.43.32 6.61C24 108.33 11.67 96 5.81 80.49c2.17.21 4.37.32 6.6.32zm29.21 34.13c-.27-2.41-.42-4.87-.42-7.35 0-12.39 3.42-23.97 9.37-33.87a33.36 33.36 0 0 0-1.24 8.99c0 16.34 11.75 29.93 27.25 32.81a57.878 57.878 0 0 1-34.96-.58zm39.32-.92c-16.5-.92-29.6-14.58-29.6-31.31 0-6.57 2.02-12.66 5.47-17.69a66.57 66.57 0 0 1 8.63-8.49 31.207 31.207 0 0 1 17.26-5.18c16.73 0 30.39 13.1 31.31 29.6-5.87 15.14-17.92 27.19-33.07 33.07z"/></svg>