<svg id="Layer_1" xmlns="http://www.w3.org/2000/svg" viewBox="0 0 120 120"><path fill="none" d="M87.08 29.57c-6.7 0-12.18 5.36-12.51 12.14H85.4c6.21 0 10.54-1.41 13.59-3.37-1.66-5.1-6.37-8.77-11.91-8.77zM11.61 86.84v-54.4M11.61 32.44c0-.01 0-.01 0 0v-.02-.05-.18c.01-.16.02-.38.04-.67.04-.57.13-1.38.29-2.34.12-.72.29-1.52.53-2.39A57.723 57.723 0 0 0 2.01 60c0 12.51 3.97 24.08 10.71 33.56-.36-1.23-.61-2.37-.77-3.35-.17-1-.25-1.83-.29-2.42-.02-.29-.03-.53-.04-.69v-.19-.05-.02M59.76 29.57c-6.85 0-12.42 5.38-12.75 12.14H72.53c-.36-6.76-5.92-12.14-12.77-12.14zM32.44 29.57c-6.91 0-12.54 5.7-12.54 12.78 0 1 .12 1.97.34 2.91.17-.12.33-.24.51-.35 3.07-1.94 7.11-3.2 12.41-3.2H44.96c-.34-6.78-5.83-12.14-12.52-12.14zM85.63 11.61h.27c.17.01.42.02.73.04a30.652 30.652 0 0 1 7.49 1.46C84.54 6.14 72.76 2.01 60 2.01c-12.23 0-23.58 3.8-32.93 10.27 1.82-.42 3.84-.66 6.1-.66h52.46"/><path fill="none" d="M18.51 46.58c-.39-1.34-.61-2.76-.61-4.23 0-8.15 6.5-14.78 14.54-14.78 6.19 0 11.44 3.93 13.55 9.44 2.14-5.52 7.49-9.44 13.77-9.44 6.28 0 11.63 3.92 13.77 9.44 2.1-5.52 7.36-9.44 13.55-9.44 6.22 0 11.51 3.97 13.59 9.53a15.57 15.57 0 0 0 3.17-3.66 17.24 17.24 0 0 0 2.13-5.16c-.53-2.68-1.52-4.86-2.79-6.63-1.91-2.65-4.48-4.43-7.09-5.64-2.61-1.2-5.23-1.81-7.21-2.11a25.475 25.475 0 0 0-3.04-.29H85.63 33.16c-4.97 0-8.63 1.2-11.34 2.94-.35.23-.69.47-1.01.71-1.01.92-1.97 1.89-2.91 2.88-.72.92-1.33 1.88-1.83 2.84-1.22 2.36-1.84 4.73-2.15 6.53-.15.89-.23 1.63-.27 2.15-.02.26-.03.46-.03.59v21.16c.21-.48.43-.95.68-1.44.99-1.87 2.35-3.75 4.21-5.39z"/><path fill="none" d="M85.39 43.71H33.16c-4.97 0-8.64 1.18-11.35 2.89-2.71 1.71-4.53 4-5.75 6.31-1.15 2.18-1.76 4.37-2.09 6.09h33.69c8.7 0 15.75 7.05 15.75 15.75S56.36 90.5 47.66 90.5H14.03c.34 1.77.95 3.97 2.04 6.17 1.23 2.45 3.05 4.87 5.76 6.68 2.71 1.81 6.36 3.04 11.33 3.04h53.87c.14 0 .35-.01.61-.03.54-.04 1.31-.12 2.23-.27 1.86-.31 4.33-.93 6.78-2.16s4.87-3.05 6.68-5.76c1.81-2.71 3.04-6.36 3.04-11.33V32.99c-.25.5-.53 1.01-.85 1.52-2.91 4.68-8.75 9.2-20.13 9.2zM108.39 28.04v58.8c0 2.28-.26 4.31-.7 6.15a57.721 57.721 0 0 0 10.3-32.98c0-11.82-3.54-22.8-9.6-31.97zM86.84 108.39H33.16c-2.28 0-4.31-.26-6.15-.7a57.721 57.721 0 0 0 32.98 10.3c12.51 0 24.08-3.97 33.56-10.71-1.23.36-2.37.61-3.35.77-1 .17-1.83.25-2.42.29-.29.02-.53.03-.69.04h-.24c0 .01 0 .01-.01.01"/><path fill="none" d="M61.42 74.75c0-7.6-6.15-13.75-13.75-13.75H13.69c-.01.15-.03.29-.04.41-.02.25-.03.45-.03.58V87.03c0 .14.01.35.03.61.02.24.04.53.08.85h33.94c7.6.01 13.75-6.14 13.75-13.74zm-25.63.24c0-5.89 4.78-10.67 10.67-10.67s10.67 4.78 10.67 10.67-4.78 10.67-10.67 10.67-10.67-4.78-10.67-10.67z"/><ellipse transform="rotate(-67.5 46.46 74.988)" fill="none" cx="46.46" cy="74.99" rx="8.67" ry="8.67"/><path fill="#00ae99" d="M60 .01c-15.62 0-29.84 5.98-40.52 15.76-1.2.93-2.22 1.97-3.08 3.05C6.24 29.57.01 44.05.01 60c0 33.13 26.86 59.99 59.99 59.99S119.99 93.13 119.99 60 93.13.01 60 .01zm25.63 11.6H33.16c-2.26 0-4.27.24-6.1.66A57.81 57.81 0 0 1 60 2.01c12.76 0 24.54 4.13 34.12 11.11-1.82-.6-3.54-.96-4.94-1.18-1.05-.16-1.93-.24-2.55-.28-.31-.02-.56-.03-.73-.04h-.25c-.01-.01-.01-.01-.02-.01M13.61 32.44v-.04-.15c0-.13.01-.33.03-.59.04-.51.11-1.26.27-2.15.31-1.79.93-4.16 2.15-6.53.5-.97 1.11-1.92 1.83-2.84.94-.99 1.91-1.96 2.91-2.88.32-.25.66-.48 1.01-.71 2.71-1.74 6.37-2.94 11.34-2.94h52.68c.15 0 .37.01.66.03.57.04 1.39.11 2.38.26 1.98.3 4.6.91 7.21 2.11 2.61 1.2 5.17 2.99 7.09 5.64 1.27 1.76 2.27 3.94 2.79 6.63a17.24 17.24 0 0 1-2.13 5.16 15.57 15.57 0 0 1-3.17 3.66c-2.08-5.56-7.37-9.53-13.59-9.53-6.19 0-11.44 3.93-13.55 9.44-2.14-5.52-7.49-9.44-13.77-9.44-6.28 0-11.63 3.92-13.77 9.44-2.1-5.52-7.36-9.44-13.55-9.44-8.04 0-14.54 6.63-14.54 14.78 0 1.47.22 2.89.61 4.23a19.019 19.019 0 0 0-4.9 6.83V32.44zm85.37 5.9c-3.05 1.96-7.39 3.37-13.59 3.37H74.57h-.01c.33-6.78 5.81-12.14 12.51-12.14 5.55 0 10.26 3.67 11.91 8.77zm-26.47 3.37H47h-.01c.33-6.76 5.9-12.14 12.75-12.14 6.87 0 12.43 5.38 12.77 12.14zm-27.56 0H33.15c-5.3 0-9.35 1.26-12.41 3.2-.18.11-.34.23-.51.35-.21-.93-.34-1.91-.34-2.91 0-7.08 5.63-12.78 12.54-12.78 6.7 0 12.19 5.36 12.52 12.14zM11.61 86.84v.26c.01.16.02.4.04.69.04.59.13 1.42.29 2.42.16.98.41 2.12.77 3.35C5.98 84.08 2.01 72.51 2.01 60c0-12.36 3.88-23.81 10.47-33.22-.23.86-.4 1.67-.53 2.39-.17.97-.25 1.77-.29 2.34-.02.29-.03.51-.04.67v.24m-.01.02v54.39m2.04.82a9.21 9.21 0 0 1-.03-.61v-.15-.04V62.18v-.01-.03V62c0-.13.01-.33.03-.58.01-.12.02-.26.04-.41h33.98c7.6 0 13.75 6.15 13.75 13.75S55.27 88.5 47.67 88.5H13.73c-.04-.33-.06-.61-.08-.85zm73.19 20.74h.26c.16-.01.4-.02.69-.04.59-.04 1.42-.13 2.42-.29.98-.16 2.12-.41 3.35-.77A57.677 57.677 0 0 1 60 118c-12.26 0-23.62-3.81-32.98-10.3 1.84.44 3.87.7 6.15.7h53.67m19.55-34.86v13.3c0 4.96-1.24 8.62-3.04 11.33-1.81 2.71-4.23 4.54-6.68 5.76-2.45 1.23-4.92 1.85-6.78 2.16-.93.15-1.7.23-2.23.27-.27.02-.48.03-.61.03h-.19H33.16c-4.96 0-8.62-1.24-11.33-3.04-2.71-1.81-4.54-4.23-5.76-6.68-1.1-2.19-1.71-4.4-2.04-6.17h33.64c8.7 0 15.75-7.05 15.75-15.75S56.37 59 47.67 59H13.98c.33-1.72.93-3.9 2.09-6.09 1.22-2.31 3.04-4.6 5.75-6.31s6.37-2.89 11.35-2.89H85.4c11.38 0 17.22-4.52 20.15-9.2.32-.51.6-1.02.85-1.52v40.55zm2 13.3v-58.8A57.73 57.73 0 0 1 118 60c0 12.26-3.81 23.62-10.3 32.98.43-1.83.69-3.87.69-6.14z"/><path fill="#00ae99" d="M57.13 74.99c0-5.89-4.78-10.67-10.67-10.67S35.79 69.1 35.79 74.99s4.78 10.67 10.67 10.67 10.67-4.78 10.67-10.67zm-10.67 8.67c-4.79 0-8.67-3.88-8.67-8.67s3.88-8.67 8.67-8.67 8.67 3.88 8.67 8.67-3.88 8.67-8.67 8.67z"/></svg>