<svg width="164" height="164" viewBox="0 0 164 164" fill="none" xmlns="http://www.w3.org/2000/svg"><path d="M141.672 31.508h1.5v-1.5h-1.5v1.5zm-120 0v-1.5h-1.5v1.5h1.5zm83.333 36.67h-1.5v1.5h1.5v-1.5zm-83.333 66.365l-1.13.985 1.13-.985zm27.632-49.346l-.917 1.187 1.17.903.92-1.156-1.173-.934zm0 36.983l-.917 1.187 1.17.904.92-1.156-1.173-.935zm0 17.672l-.917 1.187 1.17.904.92-1.156-1.173-.935zM3.5 82C3.5 38.646 38.646 3.5 82 3.5v-3C36.989.5.5 36.989.5 82h3zM82 3.5c43.354 0 78.5 35.146 78.5 78.5h3C163.5 36.989 127.011.5 82 .5v3zm58.172 28.008v36.67h3v-36.67h-3zm-118.5 1.5h83.333v-3H21.672v3zm83.333 0h36.667v-3h-36.667v3zm37.728 34.11l-36.667-36.67-2.121 2.12 36.666 36.67 2.122-2.12zm-39.228-35.61v36.67h3v-36.67h-3zm1.5 38.17h36.667v-3h-36.667v3zm35.167-1.5v67.108h3V68.178h-3zM160.5 82c0 20.084-7.54 38.403-19.946 52.286l2.237 1.999C155.669 121.873 163.5 102.849 163.5 82h-3zm-19.946 52.286C126.176 150.376 105.271 160.5 82 160.5v3c24.161 0 45.868-10.516 60.791-27.215l-2.237-1.999zm-117.382.257V31.508h-3v103.035h3zM82 160.5c-23.621 0-44.804-10.431-59.197-26.943l-2.262 1.971C35.481 152.666 57.476 163.5 82 163.5v-3zm-59.197-26.943C10.78 119.764 3.5 101.734 3.5 82h-3c0 20.486 7.56 39.21 20.041 53.528l2.262-1.971zm39.15-50.139h55.49v-3h-55.49v3zm-7.294-7.353l-6.528 8.197 2.346 1.87 6.529-8.198-2.347-1.868zm-4.438 7.945l-5.304-4.099-1.834 2.374 5.304 4.099 1.834-2.374zm11.732 17.9h55.49v-3h-55.49v3zm-7.14-8.338l-5.305 4.918 2.04 2.2 5.304-4.918-2.04-2.2zm-5.305 4.918l-5.304 4.918 2.04 2.2 5.304-4.918-2.04-2.2zm12.445 21.912h55.49v-3h-55.49v3zm-7.294-7.353l-6.528 8.197 2.346 1.869 6.529-8.197-2.347-1.869zm-4.438 7.944l-5.304-4.098-1.834 2.374 5.304 4.098 1.834-2.374zm-6.017-25.22l5.304 4.917 2.04-2.2-5.304-4.918-2.04 2.2zm5.304 4.917l5.305 4.918 2.04-2.2-5.305-4.918-2.04 2.2zm12.445 37.384h55.49v-3h-55.49v3zm-7.294-7.353l-6.528 8.197 2.346 1.869 6.529-8.197-2.347-1.869zm-4.438 7.944l-5.304-4.098-1.834 2.374 5.304 4.098 1.834-2.374z" fill="#00AE99"/></svg>