<svg width="124" height="124" viewBox="0 0 124 124" fill="none" xmlns="http://www.w3.org/2000/svg"><path d="M17.246 22.656l-.387-1.45-1.165.311.053 1.205 1.499-.066zM19.95 84.13l-1.499.066.028.628.467.42 1.004-1.114zm86.803-61.475l1.499.066.053-1.205-1.165-.31-.387 1.449zm-2.705 61.475l1.004 1.115.467-.42.028-.629-1.499-.066zM120.5 62c0 32.309-26.191 58.5-58.5 58.5v3c33.966 0 61.5-27.534 61.5-61.5h-3zM62 120.5C29.691 120.5 3.5 94.309 3.5 62h-3c0 33.966 27.535 61.5 61.5 61.5v-3zM3.5 62C3.5 29.691 29.691 3.5 62 3.5v-3C28.035.5.5 28.035.5 62h3zM62 3.5c32.309 0 58.5 26.191 58.5 58.5h3C123.5 28.035 95.966.5 62 .5v3zM15.747 22.722l2.705 61.475 2.997-.132-2.705-61.475-2.997.132zm3.2 62.524l42.05 37.869 2.007-2.23-42.05-37.869-2.007 2.23zm-1.314-61.141c20.36-5.435 30.277-9.196 45.29-20.923L61.077.818C46.502 12.203 37.01 15.828 16.859 21.207l.774 2.898zm-1.358-.306l22.869 19.426 1.942-2.286-22.869-19.427-1.942 2.287zm4.512 61.578l18.688-12.541-1.672-2.491-18.688 12.54 1.672 2.492zm84.469-62.787l-2.705 61.475 2.997.132 2.705-61.475-2.997-.132zm-2.211 60.426l-42.049 37.869 2.008 2.23 42.049-37.87-2.008-2.229zm4.096-61.81C86.991 15.828 77.499 12.203 62.923.818l-1.846 2.364c15.013 11.727 24.93 15.488 45.29 20.923l.774-2.899zm-1.358.306L82.914 40.94l1.942 2.286L107.725 23.8l-1.942-2.287zm-.898 61.374L86.196 70.345l-1.671 2.49 18.688 12.542 1.672-2.491zM87.057 57.48c0 13.89-11.26 25.15-25.15 25.15v3c15.547 0 28.15-12.603 28.15-28.15h-3zm-25.15 25.15c-13.891 0-25.152-11.26-25.152-25.15h-3c0 15.547 12.604 28.15 28.151 28.15v-3zM36.754 57.48c0-13.89 11.26-25.151 25.151-25.151v-3c-15.547 0-28.15 12.603-28.15 28.15h3zm25.151-25.151c13.891 0 25.152 11.26 25.152 25.15h3c0-15.547-12.604-28.15-28.152-28.15v3zm9.067 25.18a9.219 9.219 0 0 1-9.22 9.22v3c6.749 0 12.22-5.471 12.22-12.22h-3zm-9.22 9.22a9.219 9.219 0 0 1-9.218-9.22h-3c0 6.749 5.47 12.22 12.219 12.22v-3zm-9.218-9.22a9.219 9.219 0 0 1 9.219-9.218v-3c-6.748 0-12.219 5.47-12.219 12.219h3zm9.219-9.218a9.219 9.219 0 0 1 9.219 9.219h3c0-6.749-5.471-12.22-12.22-12.22v3zM60.5 2v28.77h3V2h-3zm0 82.377v37.377h3V84.377h-3z" fill="#00AE99"/></svg>