<svg width="229" height="229" viewBox="0 0 229 229" fill="none" xmlns="http://www.w3.org/2000/svg">
<g clip-path="url(#clip0)">
<path d="M114.45 226.75C176.527 226.75 226.85 176.427 226.85 114.35C226.85 52.2734 176.527 1.9502 114.45 1.9502C52.3732 1.9502 2.04999 52.2734 2.04999 114.35C2.04999 176.427 52.3732 226.75 114.45 226.75Z" fill="black"/>
<path fill-rule="evenodd" clip-rule="evenodd" d="M114.5 229C91.8541 229 69.7167 222.285 50.8873 209.703C32.0578 197.122 17.3821 179.239 8.71585 158.317C0.0496111 137.395 -2.21787 114.373 2.20014 92.1622C6.61815 69.9514 17.5232 49.5494 33.5363 33.5363C49.5494 17.5232 69.9514 6.61815 92.1622 2.20014C114.373 -2.21787 137.395 0.0496111 158.317 8.71585C179.239 17.3821 197.122 32.0578 209.703 50.8873C222.285 69.7167 229 91.8541 229 114.5C228.968 144.858 216.895 173.963 195.429 195.429C173.963 216.895 144.858 228.968 114.5 229ZM114.5 3.00005C92.4474 3.00005 70.8901 9.53941 52.554 21.7912C34.2179 34.043 19.9267 51.4569 11.4875 71.8308C3.04831 92.2048 0.84024 114.624 5.14249 136.253C9.44475 157.881 20.0641 177.749 35.6576 193.342C51.2512 208.936 71.1186 219.555 92.7475 223.858C114.376 228.16 136.795 225.952 157.169 217.513C177.543 209.073 194.957 194.782 207.209 176.446C219.461 158.11 226 136.553 226 114.5C225.966 84.939 214.207 56.5985 193.304 35.6956C172.402 14.7928 144.061 3.03446 114.5 3.00005ZM186.83 68.1703L196.23 75.0004L192.6 63.9304L202 57.1104H190.39L186.8 46.1104L183.21 57.1104H171.6L181 63.9304L177.44 75.0004L186.83 68.1703ZM184 63.0004L179.32 59.6104L185.06 59.6304L186.83 54.1703L188.61 59.6304H194.35L189.7 63.0004L191.51 68.4604L186.86 65.0804L182.22 68.4604L184 63.0004ZM202.73 115.56L212.13 122.39L208.54 111.39L217.94 104.56H206.32L202.73 93.5098L199.14 104.56H187.52L196.92 111.39L193.33 122.39L202.73 115.56ZM199.86 110.37L195.22 107H201L202.73 101.54L204.5 107H210.24L205.6 110.37L207.37 115.83L202.73 112.46L198.09 115.83L199.86 110.37ZM202.77 167.82L193.37 160.99L183.97 167.82L187.56 156.82L178.17 149.99H189.78L193.37 138.94L197 149.94H208.62L199.22 156.77L202.77 167.82ZM193.37 157.9L198.01 161.27L196.24 155.82L200.88 152.44H195.14L193.37 147L191.6 152.46H185.86L190.5 155.84L188.73 161.29L193.37 157.9ZM26 115.56L35.42 122.39L31.83 111.34L41.23 104.51H29.59L26 93.46L22.43 104.56H10.79L20.19 111.39L16.6 122.39L26 115.56ZM23.16 110.37L18.51 107H24.25L26 101.55L27.8 107H33.54L28.87 110.38L30.65 115.84L26 112.47L21.38 115.83L23.16 110.37ZM51.3201 74.9999L41.9201 68.1699L32.5201 74.9999L36.1101 63.9499L26.7101 57.1299H38.3301L41.9201 46.1299L45.5101 57.1299H57.1301L47.7301 63.9499L51.3201 74.9999ZM34.4101 59.6099L39.0501 62.9999L37.2801 68.4599L41.9201 65.0799L46.5601 68.4599L44.7901 62.9999L49.4301 59.6299H43.6901L41.9201 54.1699L40.1501 59.6299L34.4101 59.6099ZM35.3801 161L44.7801 167.82L41.1901 156.77L50.5901 149.94H39.0001L35.3801 138.94L31.7901 149.99H20.1901L29.5901 156.82L26.0001 167.82L35.3801 161ZM32.5101 155.82L27.8701 152.44L33.6101 152.46L35.3801 147L37.1601 152.44H42.8701L38.2201 155.82L40.0001 161.27L35.3801 157.9L30.7401 161.27L32.5101 155.82ZM77.73 188.67L79.47 185.87L65.67 177.33L64.29 179.56L75.09 186.24L74.72 186.84L54.66 193.47L52.91 196.3L67.82 205.53L69.2 203.3L57.31 195.94L57.68 195.34L77.73 188.67ZM78.4701 207.11L91.3101 211.39L90.4801 213.88L74.9101 208.69L82.1301 187L97.2201 192L96.3901 194.49L84.0001 190.41L81.7701 197.12L91.7701 200.44L90.9401 202.93L80.9401 199.61L78.4701 207.11ZM103.74 192.77L100.9 192.33L97.42 214.91L100.27 215.35L103.74 192.77ZM108.12 193.64L117.78 193.41C119.843 193.229 121.899 193.82 123.55 195.07C124.252 195.694 124.808 196.466 125.176 197.331C125.544 198.196 125.716 199.131 125.68 200.07C125.757 201.01 125.628 201.955 125.301 202.839C124.975 203.723 124.459 204.526 123.79 205.19C122.201 206.523 120.172 207.215 118.1 207.13L111.32 207.29L111.53 216.44L108.65 216.51L108.12 193.64ZM111.26 204.7L117.56 204.55C121.1 204.47 122.837 203 122.77 200.14C122.71 197.28 120.9 195.9 117.36 195.98L111.06 196.13L111.26 204.7ZM130.25 207.38L138.78 205.51L138.27 203.17L129.73 205.04L130.25 207.38ZM142.39 195.51L139.78 196.57C139.432 195.704 139.273 194.773 139.313 193.84C139.352 192.908 139.59 191.994 140.01 191.16C140.945 189.529 142.425 188.279 144.19 187.63C145.932 186.824 147.915 186.706 149.74 187.3C150.614 187.637 151.403 188.162 152.051 188.837C152.699 189.513 153.19 190.323 153.49 191.21C154.477 193.657 153.96 196.78 151.94 200.58L148.5 207.09L148.77 207.74L159.23 203.49L160.17 205.8L145.91 211.59L144.72 208.66L146.72 204.93C148 202.64 149.03 200.66 149.81 199.01C150.12 198.4 150.35 197.89 150.52 197.48C150.719 196.968 150.886 196.443 151.02 195.91C151.187 195.305 151.258 194.677 151.23 194.05C151.2 193.439 151.068 192.838 150.84 192.27C150.654 191.711 150.349 191.198 149.947 190.767C149.545 190.335 149.055 189.995 148.51 189.77C147.368 189.386 146.121 189.458 145.03 189.97C143.953 190.351 143.055 191.117 142.51 192.12C142.026 193.191 141.983 194.408 142.39 195.51ZM164.56 176.55L153.71 183.87L155.07 185.89L163.19 180.42L163.58 181L161.69 188L163.33 190.36C163.783 189.886 164.29 189.466 164.84 189.11C165.929 188.289 167.298 187.93 168.65 188.11C169.272 188.246 169.86 188.509 170.376 188.883C170.892 189.256 171.326 189.732 171.65 190.28C172.046 190.809 172.327 191.415 172.475 192.059C172.623 192.703 172.635 193.371 172.51 194.02C172.178 195.343 171.337 196.483 170.17 197.19C169.161 197.931 167.919 198.286 166.67 198.19C166.086 198.134 165.519 197.961 165.004 197.681C164.488 197.401 164.035 197.019 163.67 196.56L161.33 198.13C161.878 198.867 162.57 199.485 163.364 199.945C164.158 200.406 165.038 200.7 165.95 200.81C167.948 201.027 169.954 200.484 171.57 199.29C173.342 198.2 174.633 196.477 175.18 194.47C175.415 193.488 175.43 192.466 175.224 191.477C175.019 190.488 174.597 189.557 173.99 188.75C173.525 187.967 172.902 187.288 172.162 186.756C171.423 186.224 170.581 185.851 169.69 185.66C167.936 185.383 166.143 185.799 164.69 186.82L164.32 186.26L166.32 179.15L164.56 176.55ZM57.5701 32.4595L59.9101 30.7695L73.2701 49.3095L70.9301 50.9995L57.5701 32.4595ZM73.8901 22.11L88.3201 41.27L93.5201 39.46L92.8601 15.46L90.0501 16.46L90.7301 37.31L89.2201 37.84L76.7601 21.11L73.8901 22.11ZM100.14 23.1903C101.517 21.5054 103.505 20.4343 105.669 20.2113C107.834 19.9883 109.999 20.6316 111.69 22.0003C113.31 23.5249 114.298 25.6019 114.46 27.8203C114.77 30.0065 114.249 32.2296 113 34.0503C111.629 35.7412 109.644 36.82 107.479 37.0506C105.314 37.2811 103.147 36.6446 101.45 35.2803C99.8231 33.7611 98.8331 31.6811 98.6801 29.4603C98.3624 27.2612 98.8835 25.0229 100.14 23.1903ZM103.14 33.3403C103.646 33.8757 104.274 34.2794 104.971 34.5164C105.669 34.7535 106.413 34.8166 107.14 34.7003C107.883 34.6614 108.605 34.4427 109.244 34.0629C109.883 33.6832 110.421 33.1538 110.81 32.5203C111.586 31.1746 111.892 29.6091 111.68 28.0703C111.598 26.5324 111.007 25.0654 110 23.9003C109.465 23.3957 108.827 23.0129 108.13 22.7781C107.433 22.5433 106.693 22.462 105.962 22.5399C105.23 22.6178 104.524 22.853 103.892 23.2294C103.26 23.6057 102.717 24.1143 102.3 24.7203C101.522 26.0689 101.216 27.6383 101.43 29.1803C101.534 30.7232 102.15 32.1874 103.18 33.3403H103.14ZM127.05 20.7901L123.05 20.4501L123.46 15.6001L120.75 15.3701L120.33 20.2101L117.56 19.9801L117.36 22.3301L120.13 22.5701L119.34 31.7901C119.214 32.432 119.248 33.095 119.438 33.7208C119.628 34.3467 119.969 34.9165 120.43 35.3801C121.589 36.2417 122.986 36.7238 124.43 36.7601L125.67 36.8601L125.88 34.4401L124.7 34.3401C123.907 34.3451 123.138 34.0687 122.53 33.5601C122.318 33.2928 122.164 32.9835 122.08 32.6526C121.995 32.3217 121.982 31.9766 122.04 31.6401L122.8 22.8001L126.85 23.1501L127.05 20.7901ZM144.2 32.1199L144 32.9999L132.15 29.7599C131.66 31.3063 131.706 32.9727 132.28 34.4899C132.58 35.1355 133.026 35.7023 133.583 36.145C134.14 36.5877 134.793 36.8942 135.49 37.0399C137.63 37.6332 139.167 37.1932 140.1 35.7199L142.76 36.4399C142.144 37.7374 141.052 38.7474 139.71 39.2599C138.148 39.8138 136.447 39.8384 134.87 39.3299C133.815 39.0993 132.825 38.6345 131.973 37.9698C131.121 37.3052 130.43 36.4576 129.95 35.4899C129.019 33.4205 128.89 31.0786 129.59 28.9199C130.064 26.7616 131.354 24.8699 133.19 23.6399C134.096 23.0901 135.111 22.7436 136.164 22.6245C137.217 22.5054 138.284 22.6164 139.29 22.9499C140.256 23.1536 141.164 23.5722 141.947 24.1746C142.729 24.777 143.366 25.5478 143.81 26.4299C144.618 28.2183 144.757 30.2378 144.2 32.1199ZM138.56 25.2299C137.418 24.8494 136.175 24.9028 135.07 25.3799C134.088 25.8363 133.303 26.6316 132.86 27.6199L141.86 30.0799C142.083 29.0478 141.889 27.9694 141.32 27.0799C140.673 26.13 139.684 25.4671 138.56 25.2299ZM167.83 28.2004L165.44 26.9004L161.19 34.6904L160.57 34.3504C160.396 33.4325 160.004 32.5697 159.428 31.8338C158.852 31.098 158.109 30.5105 157.26 30.1204C156.412 29.6142 155.457 29.315 154.472 29.2473C153.487 29.1795 152.499 29.345 151.59 29.7304C149.587 30.6372 147.964 32.2146 147 34.1904C145.89 36.0726 145.463 38.2799 145.79 40.4404C145.952 41.4178 146.343 42.3429 146.933 43.1392C147.522 43.9355 148.292 44.5803 149.18 45.0204C149.984 45.5254 150.894 45.8347 151.839 45.9233C152.784 46.0119 153.737 45.8773 154.62 45.5304L155.24 45.8704L154.41 47.3904L156.72 48.6404L167.83 28.2004ZM152.902 43.891C152.174 43.8456 151.468 43.6185 150.85 43.2304C150.218 42.9256 149.669 42.4729 149.249 41.9105C148.83 41.3482 148.552 40.693 148.44 40.0004C148.258 38.4275 148.61 36.8391 149.44 35.4904C150.123 34.0647 151.269 32.9121 152.69 32.2204C153.355 31.9738 154.065 31.8741 154.772 31.9283C155.479 31.9824 156.166 32.189 156.786 32.534C157.406 32.8789 157.943 33.354 158.361 33.9265C158.78 34.499 159.069 35.1553 159.21 35.8504C159.355 37.3926 159.005 38.941 158.21 40.2704C157.516 41.6554 156.399 42.7833 155.02 43.4904C154.359 43.7987 153.63 43.9364 152.902 43.891ZM72.2 166L71.31 165.24C59.3976 155.094 51.4356 141.079 48.8192 125.651C46.2029 110.223 49.0989 94.3671 57 80.8604L58.17 78.8604L75.48 103.4L88.8 121.4L78.52 132C81.8255 138.788 86.9842 144.501 93.4 148.48L95.32 149.67L72.2 166ZM58.4 84.4203C51.625 97.0669 49.3212 111.632 51.8624 125.752C54.4037 139.872 61.6408 152.719 72.4 162.21L90 149.79C83.6454 145.392 78.6002 139.355 75.4 132.32L74.98 131.39L84.92 121.11L73.1 105.11L58.4 84.4203ZM63.0001 72.1999L79.3301 95.3199L80.5201 93.3999C84.4991 86.9841 90.2126 81.8253 97.0001 78.5199L107.6 88.7999L125.6 75.4899L150.14 58.1699L148.14 56.9999C134.633 49.0988 118.777 46.2027 103.349 48.8191C87.9216 51.4355 73.9066 59.3975 63.7601 71.3099L63.0001 72.1999ZM66.7979 72.391L79.2101 89.9999C83.6158 83.652 89.6507 78.6085 96.6801 75.3999L97.6101 74.9799L107.89 84.9199L123.89 73.1099L144.58 58.3999C131.933 51.6248 117.369 49.3211 103.249 51.8623C89.1324 54.4029 76.288 61.6367 66.7979 72.391ZM170.87 150.15L153.52 125.6L140.2 107.6L150.48 97C147.175 90.2125 142.016 84.499 135.6 80.52L133.68 79.33L156.8 63L157.69 63.76C169.603 73.9065 177.564 87.9215 180.181 103.349C182.797 118.777 179.901 134.633 172 148.14L170.87 150.15ZM144.13 107.89L155.95 123.89L170.6 144.63C177.375 131.983 179.679 117.419 177.138 103.299C174.596 89.1784 167.359 76.3309 156.6 66.84L139.05 79.21C145.403 83.6106 150.447 89.6469 153.65 96.68L154.07 97.61L144.13 107.89ZM80.86 172C91.0611 177.985 102.673 181.143 114.5 181.15C124.153 181.153 133.691 179.057 142.453 175.006C151.214 170.955 158.99 165.046 165.24 157.69L166 156.8L149.67 133.68L148.48 135.6C144.501 142.016 138.788 147.174 132 150.48L121.41 140.17L103.41 153.48L78.86 170.83L80.86 172ZM125.751 177.137C111.631 179.679 97.0666 177.375 84.42 170.6L105.11 155.93L121.11 144.11L131.39 154.05L132.32 153.63C139.355 150.43 145.392 145.384 149.79 139.03L162.21 156.6C152.719 167.359 139.872 174.596 125.751 177.137Z" fill="#00AE99"/>
</g>
<defs>
<clipPath id="clip0">
<rect width="229" height="229" fill="white"/>
</clipPath>
</defs>
</svg>
