<svg xmlns="http://www.w3.org/2000/svg" viewBox="0 0 229 229">
    <defs></defs>
    <title>24Asset 4</title>
    <g id="Layer_2" data-name="Layer 2">
        <g id="Layer_1-2" data-name="Layer 1">
            <circle cx="114.5" cy="114.4" r="112.4"></circle>
            <path
                class="cls-1"
                d="M212.2 122.4l-9.4-6.8-9.4 6.8 3.6-11-9.4-6.8h11.6l3.6-11 3.6 11H218l-9.4 6.8zm-16.9-15.3l4.6 3.4-1.8 5.5 4.6-3.4 4.6 3.4-1.8-5.5 4.6-3.4h-5.7l-1.8-5.5-1.8 5.5zM196.3 75l-9.4-6.8-9.4 6.8 3.6-11-9.4-6.8h11.6l3.6-11 3.6 11h11.6l-9.4 6.8zm-16.9-15.4L184 63l-1.8 5.5 4.6-3.4 4.6 3.4-1.8-5.5 4.6-3.4h-5.7l-1.8-5.5-1.8 5.5zM202.8 167.9l-9.4-6.8-9.4 6.8 3.6-11-9.4-6.8h11.6l3.6-11 3.6 11h11.6l-9.4 6.8zm-9.4-10l4.6 3.4-1.8-5.5 4.6-3.4h-5.7l-1.8-5.5-1.8 5.5h-5.7l4.6 3.4-1.8 5.5zM35.5 122.4l-9.4-6.8-9.4 6.8 3.6-11-9.4-6.8h11.6l3.6-11 3.6 11h11.6l-9.4 6.8zm-16.9-15.3l4.6 3.4-1.8 5.5 4.6-3.4 4.6 3.4-1.8-5.5 4.6-3.4h-5.7l-1.8-5.5-1.8 5.5zM51.4 75L42 68.2 32.6 75l3.6-11-9.4-6.8h11.6l3.6-11 3.6 11h11.6L47.8 64zM34.5 59.6l4.6 3.4-1.8 5.5 4.6-3.4 4.6 3.4-1.8-5.5 4.6-3.4h-5.7l-1.8-5.5-1.8 5.5zM44.8 167.9l-9.4-6.8-9.4 6.8 3.6-11-9.4-6.8h11.6l3.6-11 3.6 11h11.6l-9.4 6.8zm-16.9-15.4l4.6 3.4-1.8 5.5 4.6-3.4 4.6 3.4-1.8-5.5 4.6-3.4H37l-1.8-5.5-1.8 5.5z"
                fill="#00AE99"
            ></path>
            <path
                class="cls-1"
                d="M114.5 229A114.5 114.5 0 1 1 229 114.5 114.68 114.68 0 0 1 114.5 229zm0-226A111.5 111.5 0 1 0 226 114.5 111.6 111.6 0 0 0 114.5 3z"
                fill="#00AE99"
            ></path>
            <path
                class="cls-1"
                d="M57.6 32.5l2.3-1.7 13.4 18.5L71 51zM88.4 41.3L74 22.1l2.9-1 12.5 16.7 1.5-.5-.7-20.8 2.8-1 .7 24zM100.2 23.2a7.58 7.58 0 0 1 5.5-3 7.06 7.06 0 0 1 6 1.8 8.9 8.9 0 0 1 2.8 5.8 8.56 8.56 0 0 1-1.5 6.3 7.58 7.58 0 0 1-5.5 3 7.06 7.06 0 0 1-6-1.8 9.14 9.14 0 0 1-2.8-5.8 9.59 9.59 0 0 1 1.5-6.3zm3 10.2a4.74 4.74 0 0 0 4 1.4 4.65 4.65 0 0 0 3.7-2.2 6.82 6.82 0 0 0 .9-4.5 7.33 7.33 0 0 0-1.8-4.2 4.74 4.74 0 0 0-4-1.4 4.56 4.56 0 0 0-3.7 2.2 6.82 6.82 0 0 0-.9 4.5 7.33 7.33 0 0 0 1.8 4.2zM123.1 20.5l4 .3-.2 2.4-4-.3-.8 8.8a2.19 2.19 0 0 0 .5 1.9 3.5 3.5 0 0 0 2.2.8l1.2.1-.2 2.4-1.2-.1a6.73 6.73 0 0 1-4-1.4 4.48 4.48 0 0 1-1.1-3.6l.8-9.2-2.8-.2.2-2.4 2.8.2.4-4.8 2.7.2zM144.3 32.2l-.2.9-11.9-3.2a7.37 7.37 0 0 0 .1 4.7 4.75 4.75 0 0 0 3.2 2.6c2.1.6 3.7.1 4.6-1.3l2.7.7a5.83 5.83 0 0 1-3 2.8 7.12 7.12 0 0 1-4.8.1 6.94 6.94 0 0 1-4.9-3.8 9.76 9.76 0 0 1-.4-6.6 9 9 0 0 1 3.6-5.3 7.46 7.46 0 0 1 6.1-.7 6.58 6.58 0 0 1 4.5 3.5 8.73 8.73 0 0 1 .4 5.6zm-5.7-6.9a4.63 4.63 0 0 0-3.5.2 4.7 4.7 0 0 0-2.2 2.2l9 2.5a4.4 4.4 0 0 0-.5-3 4.1 4.1 0 0 0-2.8-1.9zM165.5 26.9l2.4 1.3-11.1 20.4-2.3-1.3.8-1.5-.6-.3a6.16 6.16 0 0 1-5.4-.5 6.39 6.39 0 0 1-3.4-4.6 9.79 9.79 0 0 1 1.2-6.3 9.51 9.51 0 0 1 4.6-4.5 6.1 6.1 0 0 1 5.7.4 5.92 5.92 0 0 1 3.3 4.2l.6.3zm-14.6 16.4a4.52 4.52 0 0 0 4.2.3 7.07 7.07 0 0 0 3.2-3.2 8.08 8.08 0 0 0 1-4.4 4.49 4.49 0 0 0-2.5-3.4 4.4 4.4 0 0 0-4-.3 7.49 7.49 0 0 0-3.3 3.3 7 7 0 0 0-1 4.5 4.46 4.46 0 0 0 2.4 3.2zM72.2 166l-.9-.8a66.68 66.68 0 0 1-23.5-50.8 65.94 65.94 0 0 1 9.1-33.6l1.2-2 17.4 24.6 13.3 18L78.5 132a39.55 39.55 0 0 0 14.9 16.5l1.9 1.2zM58.4 84.5a64.23 64.23 0 0 0-7.5 30.1 63.5 63.5 0 0 0 21.5 47.7L90 149.9a42.14 42.14 0 0 1-14.6-17.5l-.4-.9 9.9-10.3-11.8-15.9zM79.4 95.4L63.1 72.3l.8-.9a66.68 66.68 0 0 1 50.8-23.5 65.94 65.94 0 0 1 33.6 9.1l2 1.2-24.6 17.4-18 13.3-10.6-10.3a39.55 39.55 0 0 0-16.5 14.9zm-12.6-23L79.2 90a42.14 42.14 0 0 1 17.5-14.6l.9-.4 10.3 9.9 15.9-11.8 20.7-14.7a63.69 63.69 0 0 0-77.7 14zM170.9 150.2l-17.4-24.6-13.3-18L150.5 97a39.55 39.55 0 0 0-14.9-16.5l-1.9-1.2L156.8 63l.9.8a66.68 66.68 0 0 1 23.5 50.8 65.94 65.94 0 0 1-9.1 33.6zm-26.7-42.3l11.8 15.9 14.7 20.7a64.23 64.23 0 0 0 7.5-30.1 63.5 63.5 0 0 0-21.5-47.7l-17.6 12.4a42.14 42.14 0 0 1 14.6 17.5l.4.9zM114.5 181.2a65.94 65.94 0 0 1-33.6-9.1l-2-1.2 24.6-17.4 18-13.3 10.6 10.3a39.55 39.55 0 0 0 16.5-14.9l1.2-1.9 16.3 23.1-.8.9a66.68 66.68 0 0 1-50.8 23.5zm-30-10.6a64.23 64.23 0 0 0 30.1 7.5 63.5 63.5 0 0 0 47.7-21.5L149.9 139a42.14 42.14 0 0 1-17.5 14.6l-.9.4-10.3-9.9-15.9 11.8zM78.74 185.63L77 188.44l-20 6.81-.37.6 11.94 7.28-1.36 2.24-15-9.13L54 193.4l20-6.76.37-.6-10.85-6.62 1.37-2.24zM78 206.88L90.85 211l-.8 2.5-15.63-5 7-21.76 15.15 4.84-.8 2.5-12.41-4-2.15 6.74 10 3.2-.8 2.49-10-3.19zM100.18 191.8l2.86.4-3.15 22.63-2.85-.4zM107.45 193l9.66-.35a8.38 8.38 0 0 1 5.79 1.58 6.39 6.39 0 0 1 2.2 5 6.49 6.49 0 0 1-1.83 5.14 8.27 8.27 0 0 1-5.66 2l-6.78.24.33 9.15-2.88.1zm3.28 11l6.3-.23c3.54-.12 5.26-1.62 5.16-4.47s-1.93-4.22-5.47-4.1l-6.3.23zM138.28 204.48l-8.51 2-.55-2.34 8.51-2zM141.73 194.43l-2.59 1.11a6.55 6.55 0 0 1 .14-5.42 7.92 7.92 0 0 1 4.11-3.61 7.69 7.69 0 0 1 5.54-.44 6.42 6.42 0 0 1 3.82 3.85q1.56 3.65-1.37 9.39l-3.32 6.57.28.65 10.38-4.44 1 2.29-14.15 6.06-1.25-2.92 2-3.76q1.86-3.48 3-6c.29-.61.52-1.12.68-1.54a14.32 14.32 0 0 0 .47-1.58 6 6 0 0 0 .18-1.87 5.47 5.47 0 0 0-.43-1.76 4.13 4.13 0 0 0-2.38-2.47 5.36 5.36 0 0 0-6 2.47 4.57 4.57 0 0 0-.11 3.42zM171.53 187.24l2.5-1.8 1.45 2-2.48 1.82 3.06 4.27-2.24 1.6-3.06-4.26-9 6.45-1.87-2.6-.1-17.1 3.2-2.29zm-8.84 6.34l6.63-4.76-6.69-9.33-.58.41.23 13.11z"
                fill="#00AE99"
            ></path>
        </g>
    </g>
</svg>
