<svg xmlns="http://www.w3.org/2000/svg" viewBox="0 0 229 229">
    <defs></defs>
    <title>24Asset 6</title>
    <g id="Layer_2" data-name="Layer 2">
        <g id="Layer_1-2" data-name="Layer 1">
            <circle cx="114.5" cy="114.4" r="112.4"></circle>
            <path
                class="cls-1"
                d="M212.2 122.4l-9.4-6.8-9.4 6.8 3.6-11-9.4-6.8h11.6l3.6-11 3.6 11H218l-9.4 6.8zm-16.9-15.3l4.6 3.4-1.8 5.5 4.6-3.4 4.6 3.4-1.8-5.5 4.6-3.4h-5.7l-1.8-5.5-1.8 5.5zM196.3 75l-9.4-6.8-9.4 6.8 3.6-11-9.4-6.8h11.6l3.6-11 3.6 11h11.6l-9.4 6.8zm-16.9-15.4L184 63l-1.8 5.5 4.6-3.4 4.6 3.4-1.8-5.5 4.6-3.4h-5.7l-1.8-5.5-1.8 5.5zM202.8 167.9l-9.4-6.8-9.4 6.8 3.6-11-9.4-6.8h11.6l3.6-11 3.6 11h11.6l-9.4 6.8zm-9.4-10l4.6 3.4-1.8-5.5 4.6-3.4h-5.7l-1.8-5.5-1.8 5.5h-5.7l4.6 3.4-1.8 5.5zM35.5 122.4l-9.4-6.8-9.4 6.8 3.6-11-9.4-6.8h11.6l3.6-11 3.6 11h11.6l-9.4 6.8zm-16.9-15.3l4.6 3.4-1.8 5.5 4.6-3.4 4.6 3.4-1.8-5.5 4.6-3.4h-5.7l-1.8-5.5-1.8 5.5zM51.4 75L42 68.2 32.6 75l3.6-11-9.4-6.8h11.6l3.6-11 3.6 11h11.6L47.8 64zM34.5 59.6l4.6 3.4-1.8 5.5 4.6-3.4 4.6 3.4-1.8-5.5 4.6-3.4h-5.7l-1.8-5.5-1.8 5.5zM44.8 167.9l-9.4-6.8-9.4 6.8 3.6-11-9.4-6.8h11.6l3.6-11 3.6 11h11.6l-9.4 6.8zm-16.9-15.4l4.6 3.4-1.8 5.5 4.6-3.4 4.6 3.4-1.8-5.5 4.6-3.4H37l-1.8-5.5-1.8 5.5z"
                fill="#00AE99"
            ></path>
            <path
                class="cls-1"
                d="M114.5 229A114.5 114.5 0 1 1 229 114.5 114.68 114.68 0 0 1 114.5 229zm0-226A111.5 111.5 0 1 0 226 114.5 111.6 111.6 0 0 0 114.5 3z"
                fill="#00AE99"
            ></path>
            <path
                class="cls-1"
                d="M57.6 32.5l2.3-1.7 13.4 18.5L71 51zM88.4 41.3L74 22.1l2.9-1 12.5 16.7 1.5-.5-.7-20.8 2.8-1 .7 24zM100.2 23.2a7.58 7.58 0 0 1 5.5-3 7.06 7.06 0 0 1 6 1.8 8.9 8.9 0 0 1 2.8 5.8 8.56 8.56 0 0 1-1.5 6.3 7.58 7.58 0 0 1-5.5 3 7.06 7.06 0 0 1-6-1.8 9.14 9.14 0 0 1-2.8-5.8 9.59 9.59 0 0 1 1.5-6.3zm3 10.2a4.74 4.74 0 0 0 4 1.4 4.65 4.65 0 0 0 3.7-2.2 6.82 6.82 0 0 0 .9-4.5 7.33 7.33 0 0 0-1.8-4.2 4.74 4.74 0 0 0-4-1.4 4.56 4.56 0 0 0-3.7 2.2 6.82 6.82 0 0 0-.9 4.5 7.33 7.33 0 0 0 1.8 4.2zM123.1 20.5l4 .3-.2 2.4-4-.3-.8 8.8a2.19 2.19 0 0 0 .5 1.9 3.5 3.5 0 0 0 2.2.8l1.2.1-.2 2.4-1.2-.1a6.73 6.73 0 0 1-4-1.4 4.48 4.48 0 0 1-1.1-3.6l.8-9.2-2.8-.2.2-2.4 2.8.2.4-4.8 2.7.2zM144.3 32.2l-.2.9-11.9-3.2a7.37 7.37 0 0 0 .1 4.7 4.75 4.75 0 0 0 3.2 2.6c2.1.6 3.7.1 4.6-1.3l2.7.7a5.83 5.83 0 0 1-3 2.8 7.12 7.12 0 0 1-4.8.1 6.94 6.94 0 0 1-4.9-3.8 9.76 9.76 0 0 1-.4-6.6 9 9 0 0 1 3.6-5.3 7.46 7.46 0 0 1 6.1-.7 6.58 6.58 0 0 1 4.5 3.5 8.73 8.73 0 0 1 .4 5.6zm-5.7-6.9a4.63 4.63 0 0 0-3.5.2 4.7 4.7 0 0 0-2.2 2.2l9 2.5a4.4 4.4 0 0 0-.5-3 4.1 4.1 0 0 0-2.8-1.9zM165.5 26.9l2.4 1.3-11.1 20.4-2.3-1.3.8-1.5-.6-.3a6.16 6.16 0 0 1-5.4-.5 6.39 6.39 0 0 1-3.4-4.6 9.79 9.79 0 0 1 1.2-6.3 9.51 9.51 0 0 1 4.6-4.5 6.1 6.1 0 0 1 5.7.4 5.92 5.92 0 0 1 3.3 4.2l.6.3zm-14.6 16.4a4.52 4.52 0 0 0 4.2.3 7.07 7.07 0 0 0 3.2-3.2 8.08 8.08 0 0 0 1-4.4 4.49 4.49 0 0 0-2.5-3.4 4.4 4.4 0 0 0-4-.3 7.49 7.49 0 0 0-3.3 3.3 7 7 0 0 0-1 4.5 4.46 4.46 0 0 0 2.4 3.2zM72.2 166l-.9-.8a66.68 66.68 0 0 1-23.5-50.8 65.94 65.94 0 0 1 9.1-33.6l1.2-2 17.4 24.6 13.3 18L78.5 132a39.55 39.55 0 0 0 14.9 16.5l1.9 1.2zM58.4 84.5a64.23 64.23 0 0 0-7.5 30.1 63.5 63.5 0 0 0 21.5 47.7L90 149.9a42.14 42.14 0 0 1-14.6-17.5l-.4-.9 9.9-10.3-11.8-15.9zM79.4 95.4L63.1 72.3l.8-.9a66.68 66.68 0 0 1 50.8-23.5 65.94 65.94 0 0 1 33.6 9.1l2 1.2-24.6 17.4-18 13.3-10.6-10.3a39.55 39.55 0 0 0-16.5 14.9zm-12.6-23L79.2 90a42.14 42.14 0 0 1 17.5-14.6l.9-.4 10.3 9.9 15.9-11.8 20.7-14.7a63.69 63.69 0 0 0-77.7 14zM170.9 150.2l-17.4-24.6-13.3-18L150.5 97a39.55 39.55 0 0 0-14.9-16.5l-1.9-1.2L156.8 63l.9.8a66.68 66.68 0 0 1 23.5 50.8 65.94 65.94 0 0 1-9.1 33.6zm-26.7-42.3l11.8 15.9 14.7 20.7a64.23 64.23 0 0 0 7.5-30.1 63.5 63.5 0 0 0-21.5-47.7l-17.6 12.4a42.14 42.14 0 0 1 14.6 17.5l.4.9zM114.5 181.2a65.94 65.94 0 0 1-33.6-9.1l-2-1.2 24.6-17.4 18-13.3 10.6 10.3a39.55 39.55 0 0 0 16.5-14.9l1.2-1.9 16.3 23.1-.8.9a66.68 66.68 0 0 1-50.8 23.5zm-30-10.6a64.23 64.23 0 0 0 30.1 7.5 63.5 63.5 0 0 0 47.7-21.5L149.9 139a42.14 42.14 0 0 1-17.5 14.6l-.9.4-10.3-9.9-15.9 11.8zM78.44 185.49l-1.73 2.8-20 6.72-.37.6 11.91 7.33-1.38 2.24L51.91 196l1.74-2.83 20-6.68.37-.6-10.81-6.66 1.41-2.23zM77.57 206.73l12.87 4.18-.81 2.49L74 208.34l7-21.74 15.13 4.91-.81 2.5L83 190l-2.18 6.73 10 3.24-.82 2.48-10-3.24zM99.86 191.75l2.85.41-3.25 22.62-2.85-.41zM107.12 193l9.66-.31a8.34 8.34 0 0 1 5.78 1.61 6.37 6.37 0 0 1 2.18 4.95 6.46 6.46 0 0 1-1.86 5.14 8.26 8.26 0 0 1-5.66 2l-6.78.21.29 9.15-2.88.09zm3.23 11l6.3-.21q5.31-.17 5.18-4.45c-.1-2.86-1.91-4.23-5.45-4.12l-6.3.2zM137.89 204.59l-8.51 1.95-.54-2.34 8.52-1.95zM137.18 189.61l12.06-5.07 1.22 2.89-3.31 6.6.26.61a6.81 6.81 0 0 1 5.16-.15 6.6 6.6 0 0 1 3.62 3.86 6.86 6.86 0 0 1 .06 5.84 8.23 8.23 0 0 1-4.48 4 8 8 0 0 1-5.8.39 6.75 6.75 0 0 1-4-3.52l2.6-1.09a4.34 4.34 0 0 0 2.64 2.19 5.29 5.29 0 0 0 3.61-.27 5.2 5.2 0 0 0 2.92-2.65 4.78 4.78 0 0 0-.12-3.84 4.65 4.65 0 0 0-2.57-2.72 5.16 5.16 0 0 0-3.94.28 8.19 8.19 0 0 0-1.73.94l-1.15-2.75 3.21-6.48-.28-.65-9 3.79zM165.46 191.45a6.88 6.88 0 0 1-5.38 1.24 7.1 7.1 0 0 1-4.68-3.11 7.77 7.77 0 0 1-1.46-5.7 7.23 7.23 0 0 1 3.29-5 7.42 7.42 0 0 1 6.43-1.3q3.32.89 6.61 5.61a16.28 16.28 0 0 1 3.29 8.47 7 7 0 0 1-3.24 6.45 6.84 6.84 0 0 1-4.59 1.39 6.09 6.09 0 0 1-4-1.92L164 196a3.69 3.69 0 0 0 4.86.08 4.83 4.83 0 0 0 2.2-4.11 10.57 10.57 0 0 0-2-5.71l-.58.4a5.83 5.83 0 0 1-.82 2.43 7.19 7.19 0 0 1-2.2 2.36zm-3.1-11.45a4.9 4.9 0 0 0-3.68.89 4.75 4.75 0 0 0-2.07 3.09 5 5 0 0 0 1 3.85 4.75 4.75 0 0 0 3.23 2.23 5 5 0 0 0 3.62-1 4.85 4.85 0 0 0 2.11-3.07 4.77 4.77 0 0 0-.95-3.75 5 5 0 0 0-3.26-2.24z"
                fill="#00AE99"
            ></path>
        </g>
    </g>
</svg>
