<svg width="43" height="55" viewBox="0 0 43 55" fill="none" xmlns="http://www.w3.org/2000/svg">
<path d="M5.36442 47.6098C5.31169 47.7017 5.33806 47.7804 5.33806 47.8461C5.33806 49.9726 5.33806 52.0859 5.33806 54.2124C5.33806 54.3831 5.29851 54.4356 5.12714 54.4224C4.77122 54.4093 4.4153 54.4093 4.05938 54.4224C3.88801 54.4224 3.83529 54.3699 3.83529 54.1993C3.84847 53.2804 3.83529 52.3616 3.83529 51.4427C3.83529 49.0406 3.83529 46.6516 3.83529 44.2494C3.83529 44.1706 3.80892 44.0919 3.87483 44C6.23444 46.4547 8.59406 48.9093 10.9932 51.4033C10.9932 51.2721 10.9932 51.2064 10.9932 51.1277C10.9932 49.0406 10.9932 46.9535 10.9932 44.8663C10.9932 44.6957 11.0459 44.6301 11.2041 44.6432C11.5732 44.6432 11.9292 44.6432 12.2983 44.6432C12.4169 44.6432 12.496 44.6563 12.496 44.827C12.496 48.1874 12.496 51.5346 12.496 54.895C12.496 54.9081 12.496 54.9344 12.4828 55C10.0836 52.5191 7.73721 50.0644 5.36442 47.6098Z" fill="#FBFBFB"/>
<path d="M28.9219 49.5394C28.9219 47.9774 28.9219 46.4285 28.9219 44.8664C28.9219 44.6826 28.9746 44.6301 29.146 44.6301C30.8069 44.6301 32.4547 44.6301 34.1157 44.6301C34.2738 44.6301 34.3661 44.6695 34.3529 44.8533C34.3398 45.1289 34.3529 45.4046 34.3529 45.6934C34.3529 46.0478 34.3529 46.0478 34.0102 46.0478C32.9029 46.0478 31.8088 46.0478 30.7015 46.0478C30.3851 46.0478 30.4378 46.0215 30.4378 46.3234C30.4378 46.9273 30.451 47.5442 30.4378 48.148C30.4378 48.3449 30.4906 48.3712 30.6751 48.3712C31.7956 48.358 32.9161 48.3712 34.0497 48.3581C34.2211 48.3581 34.2738 48.4106 34.2607 48.5681C34.2475 48.8962 34.2475 49.2113 34.2607 49.5394C34.2738 49.7101 34.2211 49.7626 34.0497 49.7626C32.9161 49.7495 31.7956 49.7626 30.6619 49.7495C30.4774 49.7495 30.4378 49.802 30.4378 49.9726C30.451 50.9177 30.451 51.8628 30.4378 52.8079C30.4378 52.9917 30.4906 53.018 30.6487 53.018C31.822 53.0048 32.982 53.018 34.1552 53.0048C34.3134 53.0048 34.3661 53.0442 34.3661 53.2017C34.3529 53.5561 34.3529 53.8974 34.3661 54.2518C34.3661 54.37 34.3266 54.4094 34.2079 54.4094C32.4942 54.4094 30.7937 54.4094 29.0801 54.4094C28.9087 54.4094 28.9351 54.3175 28.9351 54.2125C28.9219 52.6635 28.9219 51.1015 28.9219 49.5394Z" fill="#FCFCFC"/>
<path d="M35.3016 54.4094C35.2884 54.2125 35.4466 54.1075 35.5257 53.9762C35.7629 53.5299 36.0134 53.0968 36.2902 52.6767C36.5275 52.3223 36.7252 51.9416 36.9625 51.5741C37.1602 51.259 37.358 50.9309 37.5425 50.6158C37.7534 50.2614 37.9644 49.907 38.1885 49.5526C38.2939 49.382 38.3071 49.2376 38.2016 49.0538C37.9907 48.7256 37.7666 48.3843 37.5953 48.0299C37.4107 47.6493 37.1866 47.2948 36.9757 46.9404C36.7516 46.5729 36.5539 46.2053 36.3298 45.8378C36.1057 45.4571 35.8552 45.0896 35.6707 44.6695C35.7366 44.6039 35.8157 44.6302 35.8816 44.6302C36.2375 44.6302 36.5934 44.6433 36.9493 44.6302C37.2393 44.617 37.4107 44.7089 37.5425 44.9583C37.793 45.4834 38.1094 45.9559 38.3862 46.4679C38.6235 46.901 38.8871 47.3211 39.098 47.7674C39.1244 47.8199 39.1903 47.8199 39.1903 47.8855C39.4012 47.7018 39.4803 47.4524 39.6253 47.2292C39.8758 46.8485 40.0867 46.4416 40.3372 46.0478C40.4822 45.8378 40.5876 45.5884 40.7194 45.3652C40.8381 45.1552 40.9963 44.9583 41.1017 44.7483C41.1676 44.6302 41.2467 44.617 41.3522 44.617C41.7872 44.617 42.2222 44.617 42.6572 44.617C42.7231 44.617 42.8022 44.6039 42.8286 44.6695C42.8681 44.7483 42.7759 44.7746 42.7363 44.8271C42.5781 45.1027 42.4068 45.3652 42.2486 45.6409C42.0772 45.9034 41.919 46.1791 41.7608 46.4547C41.5499 46.8092 41.3258 47.1505 41.1281 47.5049C40.9831 47.7674 40.8249 48.0037 40.6667 48.2531C40.469 48.5812 40.2581 48.8963 40.0735 49.2244C39.9944 49.382 40.1526 49.5132 40.2317 49.6182C40.4162 49.8939 40.5481 50.1958 40.7326 50.4715C40.8908 50.734 41.049 50.9965 41.194 51.2722C41.4181 51.6791 41.6686 52.0729 41.9058 52.4667C42.1431 52.8736 42.3936 53.2936 42.6177 53.7137C42.7363 53.9368 42.9209 54.1206 43 54.3831C42.4595 54.3831 41.9454 54.3831 41.4445 54.3831C41.2335 54.3831 41.2467 54.1994 41.194 54.0944C40.9172 53.5956 40.6272 53.1099 40.3503 52.6111C40.034 52.0466 39.678 51.4953 39.3749 50.9178C39.2299 50.6421 39.1903 50.6421 39.0321 50.9046C38.6762 51.4953 38.3466 52.0991 37.9775 52.6898C37.648 53.228 37.3052 53.7531 37.0152 54.3175C36.9757 54.3963 36.9098 54.3831 36.8439 54.3831C36.3298 54.4094 35.8288 54.4094 35.3016 54.4094Z" fill="#FCFCFC"/>
<path d="M15.833 51.4034C15.9385 51.7315 15.978 52.0991 16.1362 52.4141C16.3076 52.7554 16.5844 52.9917 16.9535 53.123C17.1908 53.2017 17.4412 53.2542 17.6917 53.228C18.1267 53.1886 18.4958 53.0048 18.7858 52.6635C19.1154 52.2829 19.2076 51.8366 19.1549 51.3771C19.1154 51.049 18.9835 50.7602 18.7199 50.5239C18.4035 50.2351 18.0344 50.0514 17.6521 49.8938C17.0853 49.6576 16.5185 49.4607 16.0044 49.1194C15.5957 48.8437 15.2398 48.5024 15.0157 48.043C14.8575 47.728 14.8048 47.3998 14.8048 47.0848C14.8048 46.7697 14.8048 46.4284 14.9893 46.1397C15.1212 45.9034 15.2266 45.6409 15.4243 45.4571C15.7539 45.142 16.0966 44.8664 16.5317 44.7089C16.848 44.5776 17.1776 44.5514 17.5203 44.4988C17.8631 44.4463 18.2058 44.4988 18.5353 44.5645C18.799 44.617 19.0626 44.7483 19.2867 44.8926C19.5504 45.0633 19.7877 45.2602 19.9854 45.5096C20.1172 45.6802 20.249 45.864 20.3677 46.0478C20.4336 46.1397 20.3413 46.179 20.2886 46.2053C20.1568 46.2972 20.0249 46.3891 19.8667 46.4547C19.6954 46.5203 19.5636 46.6516 19.4054 46.7304C19.2076 46.8222 19.1681 46.8354 19.0758 46.6516C18.9308 46.3759 18.7067 46.179 18.4431 46.0215C18.2453 45.9034 18.0212 45.9296 17.8103 45.9034C17.3094 45.864 16.8744 46.0215 16.558 46.4284C16.1626 46.9272 16.268 47.5048 16.7557 47.8724C17.0194 48.0824 17.3226 48.2136 17.6258 48.3318C18.0081 48.4762 18.364 48.6731 18.7463 48.8175C19.1813 48.9881 19.5372 49.2506 19.8667 49.5657C20.3018 49.9857 20.5522 50.4845 20.6313 51.1015C20.6972 51.5215 20.6445 51.9284 20.5654 52.3222C20.4599 52.9129 20.1436 53.4117 19.6822 53.8187C19.4317 54.0418 19.1549 54.2125 18.8649 54.37C18.7331 54.4487 18.5881 54.4881 18.4563 54.5144C17.784 54.6588 17.1117 54.685 16.4394 54.475C15.688 54.2387 15.1475 53.753 14.7784 53.0704C14.5675 52.6898 14.4357 52.2697 14.3698 51.8366C14.3566 51.7709 14.3961 51.7447 14.4357 51.7447C14.528 51.7315 14.6202 51.679 14.7125 51.6659C15.0157 51.6397 15.2925 51.5084 15.5957 51.5084C15.688 51.469 15.7407 51.3771 15.833 51.4034Z" fill="#FCFCFC"/>
<path d="M25.3497 50.2351C25.3497 51.5608 25.3497 52.8866 25.3497 54.2124C25.3497 54.3699 25.3101 54.4224 25.152 54.4224C24.7829 54.4093 24.4269 54.4093 24.0578 54.4224C23.8997 54.4224 23.8337 54.383 23.8337 54.2124C23.8469 52.5453 23.8337 50.8783 23.8337 49.2112C23.8337 48.2267 23.8337 47.2422 23.8337 46.2577C23.8337 46.1002 23.7942 46.0477 23.6228 46.0477C23.0164 46.0608 22.4101 46.0477 21.8169 46.0477C21.5796 46.0477 21.5664 46.0346 21.5664 45.7983C21.5664 45.4702 21.5664 45.142 21.5664 44.8138C21.5664 44.6957 21.6191 44.6563 21.7246 44.6432C21.7773 44.6432 21.8301 44.6432 21.8828 44.6432C23.6887 44.6432 25.4947 44.6432 27.3007 44.6432C27.6039 44.6432 27.6038 44.6432 27.6038 44.9582C27.6038 45.247 27.5907 45.5358 27.6038 45.8246C27.617 46.0083 27.5248 46.0609 27.3666 46.0609C26.7734 46.0609 26.1802 46.0609 25.6002 46.0609C25.3497 46.0609 25.3497 46.0608 25.3497 46.3103C25.3497 47.6098 25.3497 48.9224 25.3497 50.2351Z" fill="#FBFBFB"/>
<path d="M0 49.5394C0 47.9905 0 46.4416 0 44.8795C0 44.6301 0 44.6301 0.263644 44.6301C0.606381 44.6301 0.935936 44.6301 1.27867 44.6301C1.43686 44.6301 1.51595 44.6826 1.51595 44.8664C1.51595 47.9774 1.51595 51.0884 1.51595 54.1993C1.51595 54.37 1.47641 54.4225 1.30504 54.4225C0.949118 54.4094 0.606381 54.4094 0.250462 54.4225C0.065911 54.4225 0 54.3831 0 54.1731C0.0131822 52.6373 0 51.0884 0 49.5394Z" fill="#FBFBFB"/>
<path opacity="0.5" d="M37.9992 14.1879C37.9992 19.2408 37.9992 24.3186 37.9752 29.3715C37.9752 29.5458 38.0232 29.7449 37.9033 29.8943C37.8314 29.8445 37.7595 29.7698 37.6636 29.72C36.8724 29.2471 36.0572 28.7741 35.266 28.2763C34.5227 27.8283 33.7795 27.3802 33.0362 26.9322C32.5567 26.6584 32.0772 26.3846 31.6217 26.0859C31.1661 25.7872 30.6866 25.5383 30.2311 25.2396C29.8954 25.0156 29.5118 24.8413 29.1522 24.6173C28.337 24.0946 27.4739 23.6217 26.6587 23.099C26.2751 22.8749 25.8435 22.7505 25.5318 22.3771C25.5078 22.3771 25.5078 22.3771 25.4839 22.3771C25.5558 22.2776 25.6277 22.1531 25.6757 22.0535C25.6997 22.0286 25.6997 22.0038 25.7236 21.954C25.7476 21.9291 25.7716 21.9042 25.7956 21.8544C26.0113 21.5059 26.1792 21.257 26.2751 21.0828C26.299 21.0579 26.299 21.033 26.323 21.0081C26.347 20.9583 26.371 20.9334 26.371 20.9085C26.347 20.9085 26.323 20.9085 26.323 20.9334C26.2031 20.9832 26.0833 21.0579 25.9874 21.1077C25.9634 21.1326 25.9154 21.1326 25.8915 21.1575C25.8675 21.1575 25.8675 21.1823 25.8435 21.1823C25.8195 21.1823 25.7956 21.2072 25.7716 21.2321C25.7476 21.257 25.6997 21.2819 25.6517 21.3068C25.4359 21.4313 25.1003 21.6553 24.7166 21.8793C24.6927 21.8793 24.6927 21.8793 24.6687 21.9042C24.381 21.8046 24.1652 21.5059 23.8535 21.4313C24.357 21.1077 24.8605 20.809 25.34 20.4356C25.7236 20.1618 26.2271 20.0622 26.4909 19.5893C26.4909 19.5893 26.4908 19.5644 26.4669 19.5644C26.4429 19.5146 26.4189 19.4898 26.3949 19.44C26.371 19.4151 26.371 19.3902 26.347 19.3653C26.2271 19.1413 26.1072 18.9173 26.0113 18.743C25.5558 17.9465 25.2441 17.3242 24.8125 16.6771C24.7886 16.6273 24.7646 16.5775 24.7166 16.5526C24.4529 16.1792 24.333 15.7063 24.0213 15.3578C24.0933 15.3329 24.1892 15.308 24.2371 15.2583C25.364 14.4368 26.5628 13.7897 27.7136 13.0181C28.0493 12.794 28.1452 12.57 28.1452 12.1966C28.1212 9.73242 28.1452 7.24331 28.1452 4.77908C28.1452 4.60485 28.0972 4.43061 28.2651 4.30615C29.2241 4.90354 30.1831 5.47604 31.1422 6.04853C32.0532 6.59614 32.9643 7.11885 33.8754 7.66646C34.6666 8.13939 35.4818 8.63721 36.273 9.13503C36.7285 9.43373 37.184 9.75731 37.6875 9.98133C37.9033 10.0809 37.9513 10.2551 37.9513 10.4792C37.9992 11.7237 37.9992 12.9683 37.9992 14.1879Z" fill="white"/>
<path opacity="0.39" d="M18.7722 21.5556C18.4845 21.8294 18.3646 21.929 18.1728 22.1032L18.1488 22.1281C18.1249 22.1281 18.1249 22.153 18.1249 22.153C18.1009 22.1281 18.0769 22.1281 18.0529 22.1032C18.0529 22.1032 18.0529 22.1032 18.029 22.1032C18.005 22.0784 17.981 22.0784 17.957 22.0535C17.7413 21.9041 17.5494 21.8045 17.4775 21.7299C17.4535 21.705 17.4296 21.705 17.4296 21.705C17.046 21.4561 16.6623 21.1823 16.2068 21.0329C16.5664 21.5805 16.9021 22.1281 17.2617 22.6509C17.1419 22.7255 17.022 22.8002 16.9021 22.8749C16.9021 22.8749 16.9021 22.8749 16.8781 22.8749C16.7582 22.9495 16.6384 23.0242 16.5185 23.074C15.7273 23.5469 14.9361 24.0696 14.1209 24.5177C13.2578 24.9906 12.4426 25.5133 11.5795 26.036C10.7883 26.509 9.9731 26.957 9.1819 27.4797C8.12697 28.1518 7.04806 28.7492 5.99312 29.3964C5.72939 29.5706 5.39373 29.6453 5.17794 29.944C4.93819 29.9191 5.01012 29.7199 5.01012 29.5706C5.01012 28.5749 5.01012 27.5793 5.01012 26.5836C5.01012 21.2818 5.01012 16.0049 5.01012 10.7031C5.01012 10.3048 5.15397 10.1057 5.44168 9.93147C6.54456 9.2843 7.6954 8.68692 8.75034 7.96507C9.39768 7.54192 10.093 7.16856 10.7643 6.74541C11.6514 6.1978 12.5145 5.6502 13.4256 5.17727C13.8812 4.92835 14.3127 4.65455 14.7443 4.40564C14.7443 6.89475 14.7683 9.40876 14.7443 11.8979C14.7443 11.9477 14.7443 11.9974 14.7443 12.0472C14.7443 12.1717 14.7443 12.2961 14.7443 12.4206C14.7443 12.4455 14.7443 12.4455 14.7443 12.4704C14.7922 12.7691 14.9361 13.018 15.4636 13.2669L15.4875 13.2918C16.0869 13.69 16.7103 14.0634 17.2857 14.4368C17.2857 14.4368 17.3097 14.4368 17.3097 14.4617C17.4775 14.5612 17.6214 14.6608 17.7652 14.7355C17.7892 14.7604 17.8372 14.7852 17.8611 14.8101C17.8851 14.835 17.9091 14.8599 17.957 14.8599C17.981 14.8848 18.005 14.8848 18.029 14.9097C18.1488 14.9844 18.2687 15.059 18.3406 15.1088C18.3646 15.1337 18.4126 15.1586 18.4365 15.1835C18.4605 15.2084 18.4845 15.2084 18.4845 15.2084C18.5085 15.2333 18.5325 15.2582 18.5564 15.2582C18.0769 16.0796 17.5974 17.0006 17.1179 17.822C16.7582 18.4194 16.3986 19.0416 16.1349 19.6888C16.1109 19.7884 16.1589 19.863 16.2548 19.9128C16.8062 20.2613 17.3576 20.5849 17.8851 20.9583C18.1728 21.1325 18.3646 21.2818 18.7722 21.5556Z" fill="white"/>
<path opacity="0.39" d="M18.0758 22.1283C18.0519 22.1034 18.0279 22.1034 18.0039 22.0785C18.0279 22.1034 18.0519 22.1283 18.0758 22.1283Z" fill="white"/>
<path opacity="0.56" d="M37.9062 29.8944C37.6664 30.218 37.2828 30.2926 36.9711 30.4918C36.0121 31.0891 35.0291 31.6616 34.0461 32.2341C33.3508 32.6324 32.6794 33.0555 32.0081 33.4538C31.5526 33.7276 31.097 34.0014 30.6415 34.2752C29.7784 34.7979 28.9152 35.3206 28.0521 35.8434C28.0521 33.1551 28.0521 30.4669 28.0521 27.7537C28.0521 27.6293 28.0761 27.4799 27.9322 27.4053C27.9083 27.3306 27.8363 27.2808 27.7644 27.231C27.165 26.8576 26.5656 26.5092 25.9662 26.1109C25.2949 25.6629 24.5756 25.2397 23.9043 24.8166C23.9283 24.7917 23.9522 24.7419 23.9762 24.717C24.0002 24.6921 24.0242 24.6672 24.0242 24.6423C24.0721 24.5428 24.1441 24.4432 24.216 24.3436C24.216 24.3436 24.216 24.3188 24.24 24.3188C24.5277 23.8707 24.8394 23.4227 25.1031 23.0244C25.151 22.9497 25.199 22.8751 25.2469 22.8253C25.2709 22.8004 25.2949 22.7506 25.3189 22.7257C25.3668 22.6262 25.4387 22.5515 25.4867 22.4768C25.5107 22.4768 25.5107 22.4768 25.5346 22.4768C25.8224 22.8502 26.2779 22.9746 26.6615 23.1986C27.5007 23.7214 28.3398 24.1943 29.155 24.717C29.4907 24.941 29.8743 25.0904 30.2339 25.3393C30.6894 25.638 31.169 25.8869 31.6245 26.1856C32.08 26.4843 32.5835 26.7581 33.0391 27.0319C33.7823 27.4799 34.5256 27.928 35.2688 28.376C36.06 28.8489 36.8512 29.3219 37.6664 29.8197C37.7623 29.7948 37.8342 29.8446 37.9062 29.8944Z" fill="white"/>
<path opacity="0.32" d="M21.4588 8.46298C21.4588 8.81146 21.4588 9.18483 21.4588 9.5333C21.4588 10.2551 21.4588 10.977 21.4348 11.6988L21.4108 13.3168C21.4108 13.8644 21.4108 14.412 21.3868 14.9347C21.3868 15.6565 21.3868 16.3784 21.3868 17.0753C20.8594 16.7766 20.1401 16.229 19.6126 15.9054C19.5647 15.8805 19.5167 15.8557 19.4928 15.8308C19.2051 15.6316 18.9173 15.4574 18.5817 15.2583C18.5577 15.2334 18.5337 15.2334 18.5098 15.2085C18.4858 15.2085 18.4858 15.1836 18.4618 15.1836C18.4378 15.1587 18.3899 15.1338 18.3659 15.1089C18.27 15.0591 18.1741 14.9845 18.0542 14.9098C18.0302 14.8849 18.0063 14.8849 17.9823 14.86C17.9583 14.8351 17.9343 14.8351 17.8864 14.8102C17.8624 14.7853 17.8145 14.7604 17.7905 14.7356C17.6466 14.636 17.5028 14.5613 17.3349 14.4618C17.3349 14.4618 17.311 14.4618 17.311 14.4369C16.7355 14.0635 16.1122 13.6901 15.5128 13.2919L15.4888 13.267C14.9853 12.9932 14.8175 12.7692 14.7695 12.4705C14.7695 12.4456 14.7695 12.4456 14.7695 12.4207C14.7695 12.2962 14.7695 12.1718 14.7695 12.0473C14.7695 11.9975 14.7695 11.9477 14.7695 11.898C14.7935 9.40885 14.7695 6.89484 14.7695 4.40573C14.7935 4.38084 14.8175 4.35595 14.8415 4.33105C15.8724 4.97822 16.9034 5.65029 17.9583 6.29746C18.7255 6.77039 19.4928 7.21843 20.236 7.71625C20.5956 7.96516 21.0032 8.23896 21.4588 8.46298Z" fill="white"/>
<path opacity="0.32" d="M18.5566 15.2583C18.9163 15.4574 19.18 15.6317 19.4677 15.8308C19.18 15.6566 18.8923 15.4574 18.5566 15.2583Z" fill="white"/>
<path opacity="0.32" d="M21.4093 17.1252C21.4093 17.1003 21.4093 17.1003 21.4093 17.1252C21.3853 17.1252 21.3853 17.1003 21.3853 17.1003C21.3853 17.1003 21.3853 17.1003 21.3613 17.1003L21.4093 17.1252C21.4093 17.1003 21.4093 17.1003 21.4093 17.1252C21.4093 17.1003 21.4093 17.1003 21.4093 17.1252C21.4093 17.1003 21.4093 17.1003 21.4093 17.1252Z" fill="white"/>
<path opacity="0.21" d="M28.1939 4.82888C28.1939 7.2931 28.1939 9.78222 28.1939 12.2464C28.1939 12.6198 28.098 12.8438 27.7623 13.0678C26.6115 13.8146 25.4127 14.4866 24.2858 15.308C24.2139 15.3578 24.142 15.3827 24.0701 15.4076C23.2069 15.9552 22.2719 16.5526 21.3848 17.1002C21.3848 16.3784 21.3848 15.6814 21.3848 14.9596C21.3848 14.412 21.3848 13.8644 21.4087 13.3416L21.4327 11.7237C21.4327 11.0019 21.4567 10.28 21.4567 9.5582C21.4567 9.20972 21.4567 8.83635 21.4567 8.48788C22.104 8.08962 22.7514 7.71625 23.3748 7.31799C24.118 6.84506 24.8373 6.37213 25.5566 5.8992C26.108 5.55072 26.6834 5.27692 27.2109 4.87866C27.5226 4.65464 27.8582 4.50529 28.1939 4.33105C28.2418 4.35595 28.2898 4.38084 28.3138 4.40573C28.1459 4.4804 28.1939 4.67953 28.1939 4.82888Z" fill="white"/>
<path opacity="0.21" d="M28.0996 27.7536C28.0996 30.4419 28.0996 33.1301 28.0996 35.8433C27.1645 36.4406 26.2295 37.0131 25.2944 37.5856C24.5272 38.0337 23.8079 38.5315 23.0407 38.9795C22.5852 39.2533 22.1057 39.5271 21.6741 39.8507C21.5542 39.9254 21.4583 40.0001 21.3145 40.0001C21.3145 37.1874 21.3145 34.3747 21.3145 31.562C21.4104 31.5371 21.5063 31.4873 21.6022 31.4375C21.9378 31.1886 22.2975 30.9646 22.6811 30.7406C23.5202 30.2427 24.3354 29.72 25.1506 29.1973C26.0856 28.5999 27.0207 28.0025 27.9797 27.4052C28.1236 27.4798 28.0996 27.6292 28.0996 27.7536Z" fill="white"/>
<path opacity="0.7" d="M28.1954 4.28128C27.8598 4.45552 27.5241 4.60486 27.2124 4.82888C26.685 5.22714 26.1095 5.50094 25.5581 5.84942C24.8148 6.32235 24.0956 6.79528 23.3763 7.26822C22.7529 7.66647 22.1056 8.06473 21.4582 8.4381C21.0267 8.21408 20.5951 7.94028 20.1875 7.66647C19.4443 7.16865 18.6531 6.72061 17.9098 6.24768C16.8789 5.60051 15.8239 4.92845 14.793 4.28128C15.0807 3.90791 15.5122 3.78345 15.8719 3.53454C16.6631 3.01183 17.4783 2.48911 18.2934 1.99129C19.0367 1.51836 19.7799 1.07032 20.5232 0.597388C20.7629 0.448041 21.0027 0.298694 21.2185 0.124456C21.4343 -0.0497823 21.6021 -0.0248911 21.7939 0.0995646C22.8488 0.821408 23.9517 1.46858 25.0546 2.16553C25.9177 2.71314 26.7809 3.23585 27.62 3.80835C27.8118 3.98258 28.0995 3.98258 28.1954 4.28128Z" fill="white"/>
<path opacity="0.32" d="M21.3146 31.5371C21.3146 34.3498 21.3146 37.1625 21.3146 39.9752C20.8111 39.7512 20.3316 39.4276 19.876 39.1289C19.5164 38.9049 19.1328 38.6809 18.7731 38.4319C18.3176 38.1084 17.8381 37.8346 17.3586 37.5359C16.5674 37.038 15.7762 36.5153 14.961 36.0175C14.7932 35.9179 14.7212 35.8184 14.6973 35.6192C14.6973 33.4039 14.6973 31.2135 14.7212 28.9982C14.7212 28.4755 14.7212 27.9528 14.7212 27.4301C15.1288 27.6541 15.5124 27.903 15.92 28.1519C16.4954 28.5004 17.0709 28.8488 17.6223 29.2222C18.4135 29.7449 19.2527 30.2179 20.0439 30.7157C20.4754 31.0144 20.859 31.338 21.3146 31.5371Z" fill="white"/>
<path opacity="0.12" d="M26.5172 19.689C26.2535 20.1371 25.75 20.2366 25.3664 20.5353C24.8868 20.8838 24.3834 21.1825 23.8799 21.531C23.2805 21.9043 22.6811 22.2777 22.0817 22.6262C21.8419 22.7755 21.6261 22.9249 21.3145 23.0493C21.3145 21.1327 21.3864 19.017 21.3864 17.1003C21.3864 17.1003 21.3864 17.1003 21.4104 17.1003C22.8489 17.7973 24.4313 18.7183 25.8459 19.4152C25.8459 19.4152 25.8699 19.4152 25.8699 19.4401C25.8938 19.4401 25.9178 19.465 25.9418 19.465C26.1336 19.5646 26.3494 19.6392 26.5172 19.689Z" fill="white"/>
<path opacity="0.24" d="M21.3875 17.1003C21.3875 17.1003 21.3594 17.1293 21.3875 17.1003V17.1003Z" fill="white"/>
<path opacity="0.24" d="M26.5156 19.689C26.3478 19.6392 26.132 19.5645 25.9641 19.4899C25.9402 19.4899 25.9162 19.465 25.8922 19.465C25.8922 19.465 25.8682 19.465 25.8682 19.4401C24.4297 18.7431 22.8473 17.8222 21.4327 17.1252C21.4327 17.1252 21.4327 17.1252 21.4087 17.1252C21.4087 17.1252 21.4087 17.1252 21.3848 17.1252C22.2719 16.5776 23.1829 15.9802 24.0701 15.4326C24.4057 15.7562 24.5256 16.254 24.7654 16.6274C24.7893 16.6772 24.8133 16.727 24.8613 16.7518C25.2928 17.399 25.6045 18.0462 26.06 18.8178C26.1559 18.9672 26.2758 19.2161 26.3957 19.4401C26.4197 19.465 26.4197 19.4899 26.4437 19.5148C26.4676 19.5645 26.4916 19.6143 26.5156 19.6392C26.4916 19.6641 26.5156 19.6641 26.5156 19.689Z" fill="white"/>
<path opacity="0.56" d="M20.8359 23.572C20.9079 23.5222 20.9798 23.4724 21.0277 23.4475C20.9798 23.4724 20.9079 23.5222 20.8359 23.572Z" fill="white"/>
<path opacity="0.56" d="M21.3145 23.2483C21.3384 23.2234 21.3624 23.1986 21.4104 23.2234C21.3864 23.2234 21.3624 23.2234 21.3145 23.2483Z" fill="white"/>
<path opacity="0.56" d="M22.1496 23.5966C22.0297 23.5468 21.9098 23.4721 21.8379 23.4224C21.9338 23.497 22.0297 23.5468 22.1496 23.5966Z" fill="white"/>
<path opacity="0.24" d="M21.3857 17.1003C21.3857 19.017 21.3138 21.1327 21.3138 23.0493C21.2658 23.0244 21.2179 22.9995 21.1699 22.9747C21.122 22.9498 21.098 22.9249 21.0501 22.9249C20.9781 22.8751 20.9062 22.8502 20.8343 22.8004C20.7863 22.7755 20.7623 22.7506 20.7144 22.7257C20.6904 22.7257 20.6664 22.7008 20.6664 22.7008C20.6185 22.676 20.5466 22.6262 20.4986 22.6013C19.9232 22.2528 19.3957 21.8546 18.7724 21.5559C18.3887 21.3069 18.1969 21.1576 17.8852 20.9336C17.3578 20.5602 16.8063 20.2366 16.2549 19.8881C16.159 19.8384 16.111 19.7637 16.135 19.6641C16.7824 19.3903 17.3818 19.0419 18.0291 18.768C18.101 18.7432 18.173 18.6934 18.2449 18.6685C19.2519 18.1956 20.3548 17.5982 21.3857 17.1003Z" fill="white"/>
<path opacity="0.24" d="M21.3875 17.1003C21.3875 17.1003 21.3594 17.1293 21.3875 17.1003V17.1003Z" fill="white"/>
<path opacity="0.6" d="M21.384 17.1001C20.3531 17.573 19.2502 18.1953 18.2192 18.6683C18.1473 18.6931 18.0754 18.7429 18.0035 18.7678C17.3801 19.0665 16.7567 19.3901 16.1094 19.6639C16.3971 19.0167 16.7567 18.4193 17.0924 17.7971C17.5719 16.9757 18.0514 16.0547 18.5309 15.2333C18.8906 15.4324 19.1543 15.6066 19.442 15.8058C19.49 15.8307 19.5139 15.8556 19.5619 15.8804C20.1133 16.2289 20.8326 16.8014 21.384 17.1001C21.384 17.1001 21.3601 17.1001 21.384 17.1001Z" fill="white"/>
<path opacity="0.6" d="M21.4087 17.1252C21.4087 17.1003 21.4087 17.1003 21.4087 17.1252C21.3848 17.1003 21.3848 17.1003 21.3848 17.1003C21.4327 17.1003 21.4567 17.1252 21.4087 17.1252Z" fill="white"/>
<path opacity="0.7" d="M27.9553 27.4051C27.0203 28.0025 26.0852 28.5998 25.1262 29.1972C24.311 29.72 23.4958 30.2427 22.6567 30.7405C22.297 30.9645 21.9374 31.1885 21.5778 31.4374C21.4819 31.5121 21.386 31.537 21.2901 31.5619C20.8345 31.3628 20.4509 31.0392 20.0433 30.7654C19.2282 30.2676 18.413 29.7697 17.6218 29.2719C17.0464 28.8985 16.4709 28.575 15.9195 28.2016C15.5359 27.9527 15.1283 27.7038 14.7207 27.4797C14.8166 27.4051 14.8885 27.3304 14.9844 27.2557C15.0324 27.2308 15.0803 27.1811 15.1283 27.1562C15.2242 27.0815 15.3201 27.0317 15.416 26.957C15.9435 26.6086 16.4949 26.3099 17.0224 25.9614C17.1902 25.8618 17.382 25.7374 17.5738 25.6129C17.6457 25.5631 17.7177 25.5133 17.8136 25.4636C17.9335 25.3889 18.0533 25.3142 18.1732 25.2395C18.2451 25.1898 18.3171 25.14 18.413 25.1151C18.4849 25.0653 18.5808 25.0404 18.6527 24.9906C18.6527 24.9906 18.6527 24.9906 18.6767 24.9906C18.7007 24.9657 18.7247 24.9657 18.7486 24.9409C18.9884 25.2893 19.2281 25.6627 19.4679 26.0112C19.5638 26.1605 19.6597 26.285 19.7556 26.4343C20.0433 26.8575 20.331 27.2806 20.6187 27.7038C20.6427 27.7287 20.6667 27.7784 20.6907 27.8033C20.7146 27.8531 20.7386 27.9029 20.7866 27.9278C20.8585 28.0522 20.9304 28.1518 20.9784 28.2016C21.0503 28.326 21.1222 28.4505 21.2421 28.5501C21.2901 28.575 21.314 28.5999 21.386 28.6247C21.4339 28.6247 21.4819 28.5998 21.5298 28.575C21.5538 28.5501 21.5778 28.5252 21.6018 28.5003C21.6257 28.4505 21.6497 28.4256 21.6737 28.3758C21.7936 28.2016 22.0333 27.8531 22.321 27.4051C22.369 27.3304 22.4169 27.2557 22.4889 27.1562C22.5608 27.0317 22.6567 26.9073 22.7526 26.7579C23.0403 26.3348 23.352 25.8618 23.6876 25.364C23.7835 25.2395 23.8555 25.1151 23.9514 24.9657C23.9514 24.9409 23.9754 24.9409 23.9754 24.916C23.9993 24.8662 24.0233 24.8413 24.0473 24.7915C24.7186 25.2147 25.4379 25.6378 26.1092 26.0858C26.6846 26.4841 27.308 26.8326 27.9074 27.2059C27.8594 27.2806 27.9314 27.3304 27.9553 27.4051Z" fill="white"/>
<path opacity="0.7" d="M23.9528 24.7915C23.9288 24.8413 23.9048 24.8662 23.8809 24.916C23.8809 24.8662 23.9048 24.8164 23.9528 24.7915Z" fill="white"/>
<path opacity="0.24" d="M26.395 20.9832C26.395 21.008 26.371 21.0329 26.3471 21.0827C26.3471 21.1076 26.3231 21.1325 26.2991 21.1574C26.2032 21.3316 26.0354 21.5805 25.8196 21.929C25.7956 21.9539 25.7717 21.9788 25.7477 22.0286C25.7237 22.0535 25.6997 22.0784 25.6997 22.1281C25.6278 22.2277 25.5798 22.3273 25.5079 22.4517C25.46 22.5264 25.388 22.626 25.3401 22.7006C25.3161 22.7255 25.2921 22.7504 25.2682 22.8002C25.2202 22.8749 25.1723 22.9247 25.1243 22.9993C24.8606 23.3976 24.5729 23.8456 24.2612 24.2937C24.2612 24.2937 24.2612 24.3186 24.2372 24.3186C24.1653 24.4181 24.0934 24.5177 24.0454 24.6173C24.0214 24.6422 23.9975 24.667 23.9975 24.6919C23.9735 24.7168 23.9495 24.7666 23.9255 24.7915C23.8776 24.8164 23.8776 24.8662 23.8536 24.916C23.8536 24.9408 23.8296 24.9408 23.8296 24.9657C23.7337 25.0902 23.6618 25.2146 23.5659 25.364C23.2302 25.8618 22.9185 26.3348 22.6308 26.7579C22.5349 26.8824 22.463 27.0317 22.3671 27.1562C22.3191 27.2308 22.2712 27.3055 22.1993 27.4051C21.8876 27.8531 21.6478 28.2265 21.5519 28.3758C21.5279 28.4256 21.504 28.4505 21.48 28.5003C21.456 28.5252 21.432 28.5501 21.4081 28.575C21.3841 28.5998 21.3361 28.6247 21.2642 28.6247C21.2642 27.1562 21.2642 25.6876 21.2402 24.219C21.2642 24.1941 21.2882 24.1941 21.3122 24.1692C21.3361 24.1692 21.3361 24.1443 21.3601 24.1443C21.3841 24.1194 21.4081 24.1194 21.432 24.0945C21.432 24.0945 21.432 24.0945 21.456 24.0945C21.48 24.0697 21.504 24.0697 21.5279 24.0448C21.5999 23.995 21.6478 23.9701 21.7198 23.9203C21.8157 23.8705 21.9116 23.7959 22.0075 23.7461C22.0314 23.7461 22.0554 23.7212 22.0554 23.7212C22.0554 23.7212 22.0794 23.7212 22.0794 23.6963C22.0794 23.6963 22.1034 23.6963 22.1034 23.6714C22.1753 23.6216 22.2712 23.5718 22.3431 23.5221C22.3431 23.5221 22.3431 23.5221 22.3671 23.5221C23.0624 23.074 23.9255 22.5264 24.6448 22.0784C24.6688 22.0784 24.6927 22.0535 24.6927 22.0535C25.0764 21.8046 25.412 21.6054 25.6278 21.481C25.6758 21.4561 25.6997 21.4312 25.7477 21.4063C25.7717 21.3814 25.7956 21.3814 25.8196 21.3565C25.8436 21.3565 25.8676 21.3316 25.8676 21.3316C25.8915 21.3067 25.9155 21.3067 25.9635 21.2818C26.0594 21.2321 26.1792 21.1574 26.2991 21.1076C26.371 21.008 26.3711 20.9832 26.395 20.9832Z" fill="white"/>
<path opacity="0.24" d="M22.1536 23.5969C22.1536 23.5969 22.1289 23.5969 22.1289 23.6227C22.1289 23.6227 22.1536 23.6227 22.1536 23.5969Z" fill="white"/>
<path opacity="0.24" d="M23.9528 24.7915C23.9288 24.8413 23.9048 24.8662 23.8809 24.916C23.8809 24.8662 23.9048 24.8164 23.9528 24.7915Z" fill="white"/>
<path d="M21.7696 23.8706C21.6977 23.9204 21.6497 23.9453 21.5778 23.9951C21.5538 24.02 21.5298 24.02 21.5059 24.0448C21.5298 24.02 21.5778 23.9951 21.6257 23.9702C21.6497 23.9702 21.6497 23.9453 21.6737 23.9453C21.6977 23.9204 21.7216 23.9204 21.7456 23.8955C21.7456 23.8706 21.7456 23.8706 21.7696 23.8706Z" fill="white"/>
<path opacity="0.7" d="M22.1516 23.5969C22.1516 23.5969 22.1277 23.5969 22.1277 23.6218C22.1277 23.6218 22.1037 23.6218 22.1037 23.6467C22.0797 23.6467 22.0557 23.6716 22.0557 23.6716C21.9359 23.7463 21.84 23.8209 21.744 23.8707C21.7201 23.8956 21.6961 23.8956 21.6721 23.9205C21.6481 23.9205 21.6481 23.9454 21.6242 23.9454L21.6002 23.9703C21.5762 23.9952 21.5522 23.9952 21.5283 24.0201C21.5283 24.0201 21.5283 24.0201 21.5043 24.0201C21.4803 24.045 21.4563 24.045 21.4324 24.0699C21.4084 24.0699 21.4084 24.0947 21.3844 24.0947C21.3604 24.1196 21.3365 24.1196 21.3125 24.1445C21.3125 24.1445 21.2885 24.1196 21.2645 24.1196C21.1686 24.045 20.9289 23.9205 20.6412 23.7214C20.6412 23.7214 20.6172 23.7214 20.6172 23.6965C20.6891 23.6467 20.7371 23.5969 20.785 23.572C20.809 23.5471 20.833 23.5223 20.8569 23.5223C20.9289 23.4725 21.0008 23.4227 21.0488 23.3978C21.0727 23.3729 21.0967 23.3729 21.1207 23.348C21.1686 23.3231 21.2166 23.2982 21.2885 23.2484C21.3125 23.2484 21.3125 23.2236 21.3365 23.2236C21.3604 23.1987 21.3844 23.1738 21.4324 23.1987H21.4563C21.5043 23.1987 21.5522 23.2236 21.6242 23.2733C21.6481 23.2733 21.6481 23.2982 21.6721 23.2982C21.7201 23.3231 21.792 23.3729 21.84 23.3978C21.9359 23.4974 22.0318 23.5471 22.1516 23.5969Z" fill="white"/>
<path opacity="0.6" d="M21.3146 28.6C21.2667 28.5751 21.2187 28.5751 21.1708 28.5253C21.0509 28.4507 20.9789 28.3013 20.907 28.1769C20.8591 28.1022 20.7871 28.0275 20.7152 27.903C20.6912 27.8533 20.6673 27.8035 20.6193 27.7786C20.5953 27.7537 20.5714 27.7288 20.5474 27.679C20.2597 27.2559 19.9959 26.8327 19.6843 26.4096C19.5884 26.2851 19.4924 26.1358 19.3965 25.9864C19.1568 25.638 18.917 25.2646 18.6773 24.9161C18.6533 24.9161 18.6293 24.941 18.6053 24.9659C18.6293 24.941 18.6533 24.941 18.6773 24.9161C18.6053 24.8165 18.4615 24.5676 18.2697 24.3187C18.2217 24.2689 18.1978 24.1943 18.1498 24.1196C18.0779 24.02 18.006 23.9205 17.934 23.8209C17.9101 23.7711 17.8861 23.7462 17.8621 23.6964C17.8621 23.6964 17.8621 23.6964 17.8621 23.6716C17.8381 23.6467 17.8141 23.5969 17.7902 23.572C17.7662 23.5471 17.7422 23.4973 17.7182 23.4724C17.5984 23.2733 17.4785 23.0991 17.3826 22.9497C17.3586 22.9248 17.3586 22.9248 17.3346 22.8999C17.3107 22.875 17.3107 22.8501 17.2867 22.8501C17.2867 22.8253 17.2627 22.8253 17.2627 22.8004C17.2627 22.8004 17.2627 22.7755 17.2387 22.7755C17.2387 22.7755 17.2387 22.7506 17.2148 22.7506L17.1908 22.7257C17.1908 22.7257 17.1908 22.7008 17.1668 22.7008C17.1668 22.6759 17.1428 22.6759 17.1428 22.6759C16.7832 22.1283 16.4475 21.5807 16.0879 21.058C16.5434 21.2073 16.927 21.4811 17.3107 21.73C17.3107 21.73 17.3346 21.7549 17.3586 21.7549C17.4545 21.8047 17.6223 21.9292 17.8381 22.0785C17.8621 22.1034 17.8861 22.1034 17.91 22.1283C17.91 22.1283 17.9101 22.1283 17.934 22.1283C17.958 22.1283 17.982 22.1532 18.006 22.1781C18.006 22.1781 18.0299 22.1781 18.0299 22.203C18.0539 22.2279 18.0779 22.2279 18.1019 22.2528C18.1498 22.2776 18.1738 22.3025 18.2217 22.3274C18.2937 22.3772 18.3656 22.4021 18.4375 22.4519C18.5094 22.5017 18.5814 22.5515 18.6533 22.5763C18.7492 22.651 18.8451 22.7008 18.941 22.7755C18.989 22.8004 19.0369 22.8501 19.0849 22.875C19.1808 22.9497 19.3006 22.9995 19.3965 23.0742C19.5884 23.1986 19.7802 23.3231 19.972 23.4475C20.0199 23.4724 20.0679 23.4973 20.1158 23.5471C20.2597 23.6218 20.3796 23.7213 20.4994 23.796C20.4994 23.796 20.5234 23.796 20.5234 23.8209C20.8111 23.9951 21.0509 24.1445 21.1468 24.2192C21.1708 24.244 21.1947 24.244 21.1947 24.244C21.2906 25.638 21.2906 27.1314 21.3146 28.6Z" fill="white"/>
<path opacity="0.6" d="M18.0758 22.1283C18.0519 22.1034 18.0279 22.1034 18.0039 22.0785C18.0279 22.1034 18.0519 22.1283 18.0758 22.1283Z" fill="white"/>
<path opacity="0.6" d="M24.6944 21.9788C23.9751 22.4517 23.088 22.9993 22.4167 23.4474C22.4167 23.4474 22.4167 23.4474 22.3927 23.4474C22.2968 23.4971 22.2249 23.5469 22.1529 23.5967C22.0331 23.5469 21.9372 23.4722 21.8412 23.4225C21.7933 23.3976 21.7214 23.3478 21.6734 23.3229C21.6494 23.3229 21.6494 23.298 21.6255 23.298C21.5775 23.2731 21.5056 23.2233 21.4576 23.2233H21.4337C21.3857 23.2233 21.3617 23.2233 21.3378 23.2482C21.3378 23.2482 21.3138 23.2731 21.2898 23.2731C21.2179 23.3229 21.1699 23.3478 21.122 23.3727C21.098 23.3976 21.074 23.3976 21.05 23.4225C21.0021 23.4474 20.9302 23.4971 20.8582 23.5469C20.8343 23.5718 20.8103 23.5718 20.7863 23.5967C20.7384 23.6216 20.6904 23.6714 20.6185 23.7212C20.4986 23.6465 20.3787 23.5718 20.2349 23.4722C20.1869 23.4474 20.139 23.4225 20.091 23.3727C19.8992 23.2482 19.7074 23.1238 19.5156 22.9993C19.4197 22.9246 19.2998 22.8749 19.2039 22.8002C19.156 22.7753 19.108 22.7255 19.0601 22.7006C18.9642 22.6259 18.8682 22.5762 18.7723 22.5015C18.7004 22.4517 18.6285 22.4019 18.5566 22.377C18.4846 22.3273 18.4127 22.2775 18.3408 22.2526C18.2928 22.2277 18.2689 22.2028 18.2209 22.1779C18.1969 22.153 18.173 22.153 18.149 22.1281L18.125 22.1032L18.149 22.0783L18.173 22.0535C18.3648 21.8792 18.5086 21.7797 18.7723 21.5058C19.3717 21.7797 19.9232 22.2028 20.4986 22.5513C20.5466 22.5762 20.6185 22.626 20.6664 22.6508C20.6904 22.6508 20.7144 22.6757 20.7144 22.6757C20.7623 22.7006 20.7863 22.7255 20.8343 22.7504C20.9062 22.8002 20.9781 22.8251 21.05 22.8749C21.098 22.8998 21.122 22.9246 21.1699 22.9246C21.2179 22.9495 21.2658 22.9744 21.3138 22.9993C21.6255 22.8749 21.8412 22.7255 22.081 22.5762C22.6804 22.2028 23.2798 21.8294 23.8792 21.481C24.1909 21.5556 24.4067 21.8543 24.6944 21.9788Z" fill="white"/>
<path opacity="0.6" d="M18.7237 24.9409C18.6997 24.9658 18.6758 24.9658 18.6518 24.9906C18.6518 24.9906 18.6518 24.9906 18.6278 24.9906C18.5559 25.0404 18.46 25.0653 18.388 25.1151C18.3161 25.1649 18.2202 25.1898 18.1483 25.2396C18.0284 25.3142 17.9085 25.3889 17.7887 25.4636C17.7167 25.5134 17.6208 25.5631 17.5489 25.6129C17.3571 25.7374 17.1653 25.8618 16.9975 25.9614C16.47 26.3099 15.9185 26.6086 15.3911 26.957C15.2952 27.0317 15.1993 27.0815 15.1034 27.1562C15.0554 27.1811 15.0075 27.2309 14.9595 27.2557C14.8636 27.3304 14.7677 27.4051 14.6958 27.4798C14.6958 28.0025 14.6958 28.5252 14.6958 29.0479C14.6958 31.2632 14.6958 33.4536 14.6718 35.6689C14.1923 35.5196 13.7847 35.1711 13.3531 34.9471C12.3462 34.3746 11.3631 33.7772 10.3801 33.1798C9.75677 32.8065 9.15737 32.4082 8.534 32.0348C7.43112 31.3877 6.35221 30.7405 5.24932 30.0933C5.1774 30.0684 5.12945 30.0435 5.10547 29.944C5.32125 29.6702 5.65691 29.5706 5.92064 29.3964C6.97558 28.7243 8.07847 28.1518 9.10942 27.4798C9.90062 26.9819 10.7158 26.509 11.507 26.0361C12.3462 25.5383 13.1613 24.9906 14.0484 24.5177C14.8636 24.0697 15.6548 23.547 16.446 23.074C16.5659 22.9994 16.6858 22.9247 16.8057 22.8749C16.8057 22.8749 16.8056 22.8749 16.8296 22.8749C16.9495 22.8002 17.0694 22.7504 17.1893 22.6509C17.1893 22.6509 17.1893 22.6509 17.2132 22.6758L17.2372 22.7007L17.2612 22.7256C17.2612 22.7504 17.2852 22.7504 17.2852 22.7753C17.2852 22.7753 17.3091 22.8002 17.3091 22.8251C17.3331 22.85 17.3571 22.8998 17.3811 22.9496C17.477 23.0989 17.5968 23.2732 17.7167 23.4723C17.7887 23.5967 17.8846 23.7212 17.9565 23.8457C18.0284 23.9452 18.1003 24.0448 18.1723 24.1443C18.2202 24.219 18.2442 24.2688 18.2921 24.3435C18.5079 24.5924 18.6518 24.8164 18.7237 24.9409Z" fill="white"/>
</svg>
