<svg width="69" height="49" viewBox="0 0 69 49" fill="none" xmlns="http://www.w3.org/2000/svg">
<g clip-path="url(#clip0)">
<path d="M64.9397 26.25C64.9397 26.2761 64.9136 26.2761 64.9136 26.3023C64.9397 26.3023 64.9397 26.3023 64.9659 26.3023C64.9659 26.2761 64.9397 26.2761 64.9397 26.25Z" fill="white"/>
<path d="M68.0002 40.2872C67.8956 40.3918 67.8695 40.5225 67.791 40.6532C66.9541 42.3004 66.091 43.9476 65.2541 45.5947C65.2018 45.7255 65.1756 45.8301 65.1495 45.9608C65.1233 46.8759 65.1233 47.8171 65.0972 48.7322C65.0972 48.8106 65.0972 48.8891 65.0972 48.9675C64.9925 49.0198 64.9141 48.9937 64.8356 48.9937C64.5479 48.9937 64.2864 48.9937 63.9987 48.9675C63.8418 48.9675 63.8156 48.9675 63.8418 48.7845C63.8679 47.8433 63.8941 46.8759 63.8941 45.9346C63.8941 45.8039 63.8679 45.6732 63.8156 45.5425C63.1356 44.0522 62.4556 42.5619 61.7756 41.0716C61.6449 40.7578 61.4879 40.4441 61.3572 40.1303C61.4095 40.078 61.4618 40.1042 61.5141 40.1042C61.9064 40.1042 62.2987 40.1303 62.6649 40.1303C62.7956 40.1303 62.8479 40.1826 62.9002 40.2872C63.4233 41.5422 63.9726 42.7972 64.4956 44.0522C64.5218 44.0783 64.5218 44.1306 64.5741 44.1567C64.6264 44.1045 64.6525 44.0522 64.6787 43.9737C65.2541 42.7972 65.8556 41.5945 66.431 40.4179C66.5095 40.2349 66.6141 40.1826 66.7971 40.2088C67.1895 40.2349 67.5818 40.2349 67.9741 40.2349C68.0002 40.2611 68.0002 40.2872 68.0002 40.2872Z" fill="white"/>
<path d="M49.8744 0.0784365C49.8744 0.104582 49.8483 0.104582 49.8483 0.130728V0.156873C48.8806 0.130728 47.9129 0.104582 46.9452 0.0784365C46.9452 0.052291 46.9452 0.0261455 46.9452 -3.89598e-10C47.939 0.052291 48.9067 0.0784365 49.8744 0.0784365Z" fill="white"/>
<path d="M46.972 0.104492C47.9396 0.130638 48.9073 0.156783 49.875 0.182929C50.8427 0.209074 51.7842 0.339802 52.7258 0.496675C54.1642 0.731984 55.6027 1.07188 57.015 1.46406C57.0411 1.46406 57.0934 1.4902 57.1196 1.51635C57.0673 1.67322 56.9104 1.64708 56.8319 1.69937C55.1319 2.37915 53.4319 3.08508 51.8888 4.05246C51.3135 4.4185 50.7642 4.78454 50.3458 5.33359C50.2412 5.46432 50.1104 5.46432 49.9796 5.43818C49.1689 5.33359 48.3581 5.20287 47.5473 5.09828C46.9981 5.01985 46.4227 4.94141 45.795 4.86297C46.6843 5.67349 47.495 6.40556 48.3319 7.16378C47.9658 7.68669 47.5996 8.18345 47.2858 8.73251C46.1612 10.5888 45.3243 12.5236 44.9058 14.6414C44.3304 17.5958 44.6704 20.4195 46.1873 23.0602C46.2135 23.1125 46.2396 23.1648 46.2396 23.2171C46.2135 23.2433 46.1873 23.2694 46.1873 23.2956C45.2197 22.9034 44.252 22.485 43.2843 22.119C40.2766 20.9425 37.1905 20.0274 34.0259 19.3737C32.2213 19.0077 30.4167 18.7462 28.5859 18.6155C27.069 18.5109 25.5782 18.5371 24.0613 18.6417C23.0936 18.7201 22.1521 18.877 21.2105 19.0861C21.0798 19.1123 20.949 19.1646 20.8182 19.1123C20.8705 18.7462 21.0798 18.4586 21.2367 18.1449C22.7798 15.0597 24.7151 12.2622 27.0167 9.72604C28.8997 7.66054 30.9659 5.8565 33.3197 4.34006C36.1705 2.50988 39.2566 1.22875 42.5781 0.601257C44.0166 0.287511 45.4812 0.104492 46.972 0.104492Z" fill="white"/>
<path d="M8.78805 29.6229C8.70959 29.0739 8.84036 28.6294 9.12805 28.1849C10.6973 25.858 12.7373 24.1062 15.1696 22.7467C17.3926 21.5178 19.7726 20.7596 22.2834 20.3674C23.5649 20.1583 24.8726 20.0798 26.1803 20.0275C28.0372 19.9752 29.8941 20.1583 31.7249 20.3936C34.1833 20.7335 36.6156 21.3087 38.9956 22.0407C40.0679 22.3806 41.114 22.8251 42.1602 23.2434C44.8017 24.2631 47.4171 25.2828 50.0586 26.3025C51.0001 26.6685 51.9678 27.0345 52.9878 27.2176C55.3417 27.6359 57.5909 27.4267 59.657 26.041C59.8662 25.9103 60.0493 25.7796 60.2586 25.6227C60.2586 25.6227 60.2847 25.6227 60.3109 25.6227C60.4155 25.7011 60.3109 25.7795 60.2586 25.8318C59.5001 26.7992 58.4801 27.4267 57.3555 27.8973C56.0217 28.4202 54.6355 28.6294 53.2232 28.6556C50.8694 28.6817 48.594 28.2372 46.3709 27.5574C45.5863 27.3221 44.854 26.93 44.0956 26.6424C41.5587 25.7011 38.9956 24.969 36.3541 24.4461C34.8895 24.1585 33.451 23.9494 31.9602 23.7925C30.3126 23.6095 28.6649 23.531 26.991 23.5572C25.1864 23.5833 23.3818 23.7402 21.6034 24.0278C18.5695 24.5246 15.6403 25.4135 12.868 26.7731C11.7696 27.296 10.7234 27.8973 9.70343 28.551C9.41574 28.734 9.20651 28.9432 9.07574 29.2569C8.94497 29.3615 8.89266 29.4922 8.78805 29.6229Z" fill="white"/>
<path d="M47.4944 48.6012C45.8468 48.575 44.1991 48.5227 42.5514 48.4966C42.6037 45.5683 42.6822 42.64 42.7345 39.6855C44.3822 39.7117 46.0298 39.764 47.6775 39.7901C47.6775 40.2085 47.6514 40.6268 47.6514 41.0713C46.4221 41.0451 45.2191 41.019 43.9898 40.9928C43.9637 41.8033 43.9637 42.6138 43.9375 43.4244C44.9837 43.4505 46.0298 43.4766 47.076 43.5028C47.076 43.9473 47.0498 44.3656 47.0498 44.8101C46.0037 44.7839 44.9575 44.7578 43.9114 44.7316C43.8852 45.5683 43.8852 46.3527 43.8591 47.1893C45.0883 47.2155 46.3175 47.2416 47.5468 47.2677C47.4944 47.7384 47.4944 48.1567 47.4944 48.6012Z" fill="white"/>
<path d="M50.2149 47.3463C51.4702 47.3725 52.6733 47.3986 53.9025 47.4248C53.9548 47.5293 53.9287 47.6339 53.9287 47.7123C53.9287 47.9999 53.9025 48.3137 53.9025 48.6013C53.9025 48.7059 53.8764 48.732 53.7718 48.732C53.7456 48.732 53.7194 48.732 53.6933 48.732C52.1764 48.7059 50.6595 48.6536 49.1425 48.6274C49.0902 48.6274 49.0379 48.6274 48.9595 48.6013C49.0118 45.673 49.0902 42.7447 49.1425 39.8164C49.561 39.8164 49.9533 39.8426 50.3718 39.8426C50.3456 42.3525 50.2933 44.8363 50.2149 47.3463Z" fill="white"/>
<path d="M64.9129 26.3022C64.9129 26.5114 64.7299 26.616 64.6253 26.7729C63.1606 28.5246 61.3822 29.8842 59.3422 30.9039C57.2761 31.9235 55.1053 32.4987 52.8038 32.7079C50.9992 32.8648 49.2207 32.734 47.4684 32.3941C45.4546 32.002 43.4669 31.5313 41.5577 30.8254C40.0408 30.2764 38.6023 29.5966 37.3208 28.6031C36.9023 28.2893 36.5362 27.9494 36.2223 27.5572C36.17 27.4788 36.0916 27.4265 36.0916 27.3219C36.2223 27.2696 36.3008 27.3742 36.3792 27.4265C38.8377 28.6031 41.4008 29.3874 44.0684 29.9103C46.1869 30.3287 48.3576 30.564 50.5284 30.5378C53.9022 30.4855 57.1714 29.8842 60.336 28.6292C61.853 28.0278 63.2914 27.2958 64.6776 26.433C64.756 26.3545 64.8083 26.3022 64.9129 26.3022Z" fill="white"/>
<path d="M58.3758 40.6791C57.7481 42.2217 57.1204 43.7382 56.4665 45.2546C55.9958 46.3789 55.5512 47.5031 55.0804 48.6274C55.0281 48.7581 54.9758 48.8365 54.8189 48.7842C54.7404 48.7581 54.6881 48.7842 54.6096 48.7581C54.7142 48.4966 54.8188 48.2352 54.9235 47.9737C55.9958 45.3853 57.0681 42.7969 58.1404 40.2347C58.1665 40.1562 58.1665 40.0255 58.2973 39.9993C58.4281 39.9732 58.5588 39.9993 58.6111 40.1301C58.7419 40.4961 58.8727 40.836 59.0034 41.202C59.9188 43.6859 60.808 46.1958 61.7234 48.6797C61.7496 48.7581 61.7757 48.8365 61.8019 48.9411C61.6973 48.9934 61.5665 48.9673 61.4619 48.9411C61.3834 48.9411 61.3834 48.8365 61.3573 48.7842C61.1219 48.1567 60.9127 47.5293 60.6773 46.9279C59.945 44.8886 59.1865 42.8492 58.4542 40.8099C58.4542 40.7314 58.4542 40.7053 58.3758 40.6791Z" fill="white"/>
<path d="M27.1739 48.3659C26.9385 48.3659 26.86 48.1567 26.8077 48.0783L26.3108 46.8233C26.3108 46.8233 25.6046 45.0715 25.4216 44.6532C25.0554 44.6793 24.6631 44.6793 24.14 44.6793C23.9046 44.6793 23.6954 44.6793 23.46 44.6532C23.2246 44.6532 23.0154 44.6271 22.78 44.6271C22.6231 44.6271 22.4662 44.6271 22.3093 44.6271H22.2831C22.257 45.4114 22.257 46.1696 22.2308 46.954L22.2047 47.7645C22.2047 47.8429 22.2047 47.8952 22.2047 47.9475C22.1785 48.1306 22.0477 48.2351 21.8647 48.2351C21.6816 48.2351 21.5508 48.1044 21.5247 47.9475C21.5247 47.8952 21.5247 47.843 21.5247 47.8168L21.7077 39.4502C21.7077 39.4241 21.7077 39.398 21.7077 39.3718L21.7339 39.2411L21.8647 39.1626C21.9431 39.1104 22.0216 39.1104 22.1262 39.1104C22.1523 39.1104 22.2308 39.1104 22.2308 39.1104C22.2308 39.1104 23.4077 39.1365 23.8785 39.1365C24.2446 39.1365 24.6369 39.1626 25.0031 39.1626C25.4477 39.1626 25.84 39.2411 26.18 39.398C26.86 39.6856 27.2785 40.1562 27.4877 40.8621C27.7231 41.6465 27.6969 42.4308 27.4092 43.189C27.1739 43.8427 26.7031 44.3133 26.0493 44.5225L27.54 48.209L27.3308 48.3136C27.3308 48.3659 27.2523 48.3659 27.1739 48.3659ZM23.8 43.9996C24.1662 43.9996 24.5323 44.0257 24.8985 44.0257C25.0816 44.0257 25.2908 44.0257 25.5 43.9996C26.1539 43.8688 26.5723 43.5289 26.8077 42.9537C26.9646 42.5354 26.9908 42.1171 26.9646 41.6988C26.9646 41.3327 26.8862 41.0451 26.7292 40.7575C26.4416 40.2085 25.9446 39.9209 25.2908 39.8947C24.8985 39.8686 24.48 39.8686 23.957 39.8424C23.6693 39.8424 23.3816 39.8424 23.0939 39.8163C22.8585 39.8163 22.6493 39.8163 22.4139 39.8163L22.3093 43.9734L23.8 43.9996Z" fill="white"/>
<path d="M25.8133 44.3396C25.8657 44.3135 25.8918 44.3135 25.9441 44.2873C26.5718 44.0782 26.9903 43.686 27.1995 43.0847C27.461 42.3787 27.4872 41.6467 27.2518 40.9407C27.0687 40.3394 26.6764 39.8949 26.101 39.6596C25.761 39.5027 25.3949 39.4504 25.0026 39.4504C24.0872 39.4243 23.1718 39.3981 22.2564 39.3981C22.178 39.3981 22.1257 39.372 22.0472 39.4243C22.0472 39.4504 22.0472 39.4766 22.0472 39.5027C21.9949 42.3003 21.9164 45.0717 21.8641 47.8693C21.8641 47.8954 21.8641 47.9477 21.8641 47.9739C21.8641 48 21.8903 48.0262 21.9426 48.0262C21.9688 48.0262 22.0211 48 22.0211 47.9739C22.0211 47.9216 22.0211 47.8693 22.0211 47.817C22.0472 46.7712 22.0734 45.6992 22.0995 44.6534C22.0995 44.5749 22.0734 44.4965 22.1518 44.4181C22.2303 44.4181 22.3087 44.4181 22.3872 44.4181C23.4334 44.4181 24.4795 44.5227 25.5257 44.4442C25.6303 44.4442 25.6564 44.5227 25.6826 44.5749C25.9703 45.307 26.2841 46.0391 26.5718 46.7712C26.7287 47.1895 26.9118 47.6078 27.0687 48.0262C27.0949 48.1046 27.1472 48.183 27.278 48.1307C26.781 46.8758 26.258 45.6469 25.761 44.4181C25.7872 44.3396 25.8133 44.3396 25.8133 44.3396ZM25.578 44.2351C25.3687 44.2873 25.1334 44.2873 24.9241 44.2873C24.0349 44.2612 23.1195 44.2612 22.2303 44.2351C22.2041 44.2351 22.1518 44.2351 22.0995 44.2351L22.2041 39.5812C22.2303 39.5812 22.2564 39.555 22.2564 39.555C23.2764 39.5812 24.3226 39.5812 25.3426 39.6334C26.0487 39.6596 26.6503 39.9995 26.9903 40.6531C27.1733 40.9669 27.2518 41.3329 27.2518 41.6989C27.278 42.1696 27.2518 42.614 27.0687 43.0585C26.8072 43.7383 26.2841 44.1043 25.578 44.2351Z" fill="white"/>
<path d="M7.63696 47.9477C7.45389 47.9477 7.32312 47.817 7.32312 47.6601C7.32312 47.5817 7.32312 47.5032 7.32312 47.451L7.5062 39.2151C7.5062 39.1628 7.5062 39.1367 7.5062 39.0844C7.53235 38.9014 7.66312 38.7706 7.84619 38.7968C8.05542 38.8229 8.16004 38.9537 8.18619 39.1105C8.18619 39.1628 8.18619 39.2151 8.18619 39.2674L8.10773 43.0062L12.9462 43.1108C12.9723 42.0911 12.9985 41.0453 13.0246 40.0256L13.0508 39.2413C13.0508 39.0582 13.1816 38.9014 13.3646 38.9014C13.4692 38.9014 13.5477 38.9275 13.6262 39.006C13.6785 39.0844 13.7308 39.1628 13.7046 39.2674L13.5216 47.5817C13.5216 47.6601 13.5216 47.7124 13.5216 47.7647C13.4954 47.9477 13.3646 48.0523 13.1816 48.0523C12.9985 48.0523 12.8677 47.9216 12.8416 47.7386C12.8416 47.6863 12.8416 47.634 12.8416 47.5817L12.92 43.8167L8.08158 43.7121C8.05542 44.6795 8.02927 45.6469 8.00312 46.6143L7.97696 47.5032C7.97696 47.5555 7.97696 47.6078 7.97696 47.634C7.95081 47.817 7.82004 47.9477 7.63696 47.9477Z" fill="white"/>
<path d="M13.1557 43.5551C11.3772 43.5028 9.62495 43.4767 7.8465 43.4244C7.79419 43.5028 7.82034 43.5813 7.82034 43.6597C7.79419 44.9147 7.76804 46.1958 7.74188 47.4508C7.74188 47.5031 7.74188 47.5554 7.74188 47.6077C7.74188 47.66 7.71573 47.66 7.66342 47.66C7.63727 47.66 7.58496 47.6338 7.58496 47.6077C7.58496 47.5554 7.58496 47.477 7.58496 47.4247C7.63727 44.8363 7.68958 42.274 7.76804 39.6856C7.76804 39.5287 7.76804 39.3719 7.76804 39.215C7.76804 39.1888 7.76804 39.1365 7.76804 39.1104C7.76804 39.0581 7.82034 39.032 7.8465 39.0581C7.89881 39.0581 7.89881 39.0843 7.89881 39.1365C7.89881 39.1888 7.89881 39.2411 7.89881 39.2934C7.87265 40.5484 7.8465 41.8034 7.82034 43.0322C7.82034 43.1107 7.79419 43.1891 7.82034 43.2675C9.5988 43.3198 11.3511 43.346 13.1295 43.3983C13.1819 43.3198 13.1557 43.2414 13.1557 43.163C13.1819 41.908 13.208 40.6791 13.2342 39.4241C13.2342 39.3719 13.2342 39.3196 13.2342 39.2673C13.2342 39.215 13.2603 39.1888 13.3126 39.1888C13.3911 39.1888 13.3911 39.2411 13.3911 39.2934C13.3911 39.3457 13.3911 39.3719 13.3911 39.4241C13.3388 42.1433 13.2603 44.8886 13.208 47.6077C13.208 47.66 13.208 47.7123 13.208 47.7646C13.208 47.7907 13.1819 47.8169 13.1295 47.8169C13.1034 47.8169 13.0511 47.7907 13.0511 47.7646C13.0511 47.7123 13.0511 47.66 13.0511 47.6077C13.0772 46.3527 13.1034 45.0977 13.1295 43.8427C13.1557 43.7382 13.1819 43.6597 13.1557 43.5551Z" fill="white"/>
<path d="M3.00768 47.9475C2.90306 47.9475 2.79845 47.9475 2.69383 47.9214C2.27537 47.8952 1.93537 47.8168 1.62153 47.7122C0.758458 47.3723 0.20923 46.7187 0.0523074 45.7513C0 45.5422 0 45.333 0 45.1238C0.0261537 44.7839 0.287691 44.7839 0.339998 44.7839H0.366152C0.418459 44.7839 0.653843 44.8362 0.653843 45.1238C0.653843 45.3853 0.679996 45.5944 0.732304 45.8036C0.889226 46.5357 1.35999 47.0063 2.11845 47.1893C2.4323 47.2678 2.71999 47.32 3.03383 47.32C3.39998 47.32 3.79229 47.2678 4.15844 47.1632C5.28305 46.8494 5.46613 45.9343 5.41382 45.2284C5.38766 44.9147 5.3092 44.6532 5.15228 44.4179C4.9169 44.1042 4.60305 43.895 4.10613 43.7643C3.71383 43.6597 3.32152 43.5812 2.95537 43.4767C2.69383 43.4244 2.43229 43.3459 2.19691 43.2936C1.88307 43.2152 1.62153 43.1106 1.38615 42.9799C0.810765 42.6661 0.470767 42.1955 0.339998 41.568C0.235383 41.0451 0.261537 40.5745 0.418459 40.1039C0.627689 39.4764 1.0723 39.0058 1.7523 38.7705C2.22307 38.5874 2.69383 38.5613 3.26921 38.5352C3.68767 38.5613 4.13229 38.6136 4.55075 38.7705C5.38766 39.0842 5.88459 39.6856 6.06766 40.6007C6.09381 40.7575 6.11997 40.8883 6.11997 41.0451L6.14612 41.1759C6.14612 41.2281 6.14612 41.3066 6.14612 41.3589C6.14612 41.6988 5.85843 41.7249 5.80612 41.7249C5.67536 41.7249 5.59689 41.6726 5.54459 41.6203C5.43997 41.5157 5.46613 41.4112 5.46613 41.3589C5.46613 41.1497 5.43997 40.9144 5.41382 40.7052C5.28305 39.9993 4.89074 39.5548 4.2369 39.3718C3.8969 39.2672 3.5569 39.2149 3.24306 39.2149C2.79845 39.2149 2.37999 39.2934 1.96153 39.4503C1.43845 39.6594 1.12461 40.0516 1.04615 40.6529C0.993841 40.9667 1.01999 41.2543 1.0723 41.5419C1.20307 42.0387 1.54307 42.3785 2.0923 42.5877C2.30153 42.6661 2.53691 42.7184 2.79845 42.7707C2.90306 42.7969 3.00768 42.823 3.11229 42.8492C3.26921 42.8753 3.42614 42.9276 3.58306 42.9537C3.87075 43.0322 4.15844 43.0845 4.44613 43.1629C5.12613 43.3459 5.59689 43.712 5.91074 44.2349C6.06766 44.4963 6.14612 44.7839 6.17228 45.0715C6.19843 45.4376 6.22458 45.9605 6.01535 46.4834C5.75382 47.1109 5.3092 47.5292 4.62921 47.7645C4.02767 47.8952 3.5569 47.9737 3.00768 47.9475Z" fill="white"/>
<path d="M3.19118 38.8228C3.58348 38.8489 3.97579 38.875 4.3681 39.0319C5.12655 39.3195 5.54501 39.8686 5.70194 40.6529C5.72809 40.836 5.75424 41.019 5.75424 41.202C5.75424 41.2543 5.75424 41.3066 5.75424 41.3589C5.75424 41.4112 5.7804 41.4896 5.67578 41.4896C5.59732 41.4896 5.59732 41.4112 5.59732 41.3589C5.59732 41.1236 5.57117 40.8882 5.51886 40.6529C5.36194 39.8686 4.91732 39.3457 4.15887 39.1104C3.3481 38.875 2.51118 38.875 1.70042 39.1888C1.07273 39.4241 0.706576 39.9209 0.601961 40.5745C0.549654 40.9144 0.549654 41.2281 0.654269 41.568C0.811191 42.1955 1.22965 42.5877 1.83119 42.7969C2.17118 42.9276 2.51118 42.9799 2.87733 43.0583C3.32195 43.1629 3.76656 43.2675 4.21117 43.3721C4.7604 43.5289 5.23117 43.8165 5.51886 44.3133C5.64963 44.5486 5.72809 44.7839 5.75424 45.0454C5.7804 45.4899 5.7804 45.9082 5.62347 46.3265C5.38809 46.9017 4.96963 47.2678 4.39425 47.4769C3.84502 47.6599 3.29579 47.7122 2.72041 47.6599C2.38041 47.6338 2.04042 47.5815 1.70042 47.4508C0.889652 47.137 0.445039 46.5357 0.288117 45.699C0.261963 45.5421 0.261963 45.333 0.261963 45.1238C0.261963 45.0715 0.261963 45.0192 0.340424 45.0192C0.392731 45.0192 0.392731 45.0715 0.392731 45.1238C0.392731 45.3591 0.418885 45.5944 0.471193 45.8297C0.654269 46.6926 1.2035 47.2155 2.04042 47.4246C2.77272 47.6076 3.47887 47.6076 4.21117 47.3985C5.30963 47.0847 5.72809 46.2219 5.64963 45.2023C5.62347 44.8624 5.54501 44.5486 5.33578 44.261C5.04809 43.8427 4.62963 43.6335 4.13271 43.5028C3.50502 43.3459 2.85118 43.1891 2.19734 43.0322C1.9358 42.9799 1.67426 42.8753 1.43888 42.7446C0.941959 42.457 0.628115 42.0648 0.5235 41.5157C0.445039 41.0713 0.445039 40.6268 0.575807 40.1823C0.758883 39.6071 1.17734 39.2149 1.75272 39.0058C2.22349 38.875 2.69426 38.8228 3.19118 38.8228Z" fill="white"/>
<path d="M33.9471 48.5228C33.764 48.5228 33.6594 48.3659 33.6071 48.3137L33.1101 47.6077L30.4425 43.8166L30.2071 44.0519C29.9194 44.3395 29.6578 44.6533 29.3702 44.9409C29.344 44.967 29.344 44.9932 29.344 45.0455C29.3178 45.7775 29.3178 46.5358 29.2917 47.2678L29.2655 47.9476C29.2655 47.9999 29.2655 48.0522 29.2655 48.1045C29.2655 48.2875 29.1086 48.3921 28.9517 48.4182C28.7686 48.4182 28.6378 48.2875 28.6117 48.1045C28.6117 48.0522 28.6117 47.9999 28.6117 47.9738L28.7948 39.7641C28.7948 39.7118 28.7948 39.6334 28.7948 39.5811C28.8209 39.398 28.9517 39.2935 29.1348 39.2935C29.3178 39.2935 29.4486 39.4242 29.4486 39.6072C29.4486 39.6595 29.4486 39.7118 29.4486 39.7641L29.344 43.9996C30.1025 43.1891 30.8871 42.3525 31.6455 41.542L33.5024 39.5549C33.5547 39.5026 33.6594 39.3719 33.8424 39.3719C33.9209 39.3719 33.9994 39.398 34.0778 39.4503L34.3394 39.6333L30.8871 43.3199L34.3917 48.3137L34.1563 48.4705C34.104 48.4967 34.0255 48.5228 33.9471 48.5228Z" fill="white"/>
<path d="M33.9464 39.6856C32.8218 40.8883 31.6972 42.091 30.5726 43.2937C31.7233 44.9409 32.8741 46.5881 34.051 48.2352C33.9464 48.3137 33.8941 48.2352 33.8418 48.1829C33.6849 47.9476 33.5018 47.7123 33.3449 47.477C32.4295 46.1959 31.5141 44.8886 30.6249 43.6075C30.5987 43.5552 30.5464 43.5029 30.5203 43.4767C30.468 43.4767 30.4418 43.5029 30.4157 43.529C30.0234 43.9474 29.631 44.3918 29.2387 44.8102C29.1603 44.8886 29.1341 44.967 29.1341 45.0978C29.108 46.0651 29.0818 47.0064 29.0818 47.9738C29.0818 48.0261 29.0818 48.0783 29.0818 48.1306C29.0818 48.1829 29.0557 48.1829 29.0034 48.1829C28.9511 48.1829 28.951 48.1568 28.951 48.1306C28.951 48.0783 28.951 48.0261 28.951 47.9738C29.0034 45.2546 29.0818 42.5093 29.1341 39.7902C29.1341 39.7379 29.1341 39.6856 29.1341 39.6333C29.1341 39.6072 29.1603 39.5811 29.2126 39.5811C29.2649 39.5811 29.2649 39.6072 29.2649 39.6333C29.2649 39.6856 29.2649 39.7379 29.2649 39.7902C29.2387 41.3328 29.1864 42.8754 29.1603 44.418C29.1603 44.4964 29.1603 44.5748 29.1603 44.6794C29.3172 44.5748 29.4218 44.418 29.5264 44.3134C30.5987 43.1891 31.6449 42.0387 32.7172 40.9145C33.0833 40.5223 33.4233 40.1563 33.7895 39.7641C33.7633 39.6595 33.8156 39.5811 33.9464 39.6856Z" fill="white"/>
<path d="M14.2026 48.0786C14.1503 48.0786 14.098 48.0524 14.0457 48.0524L13.8364 47.974L13.8887 47.7387C13.941 47.5557 14.0195 47.3988 14.0718 47.2419C14.098 47.1896 14.1241 47.1373 14.1241 47.085C15.1964 44.4966 16.2687 41.9344 17.3149 39.3721C17.3933 39.0845 17.5764 39.0322 17.7072 39.0322C17.9164 39.0322 18.0472 39.163 18.0995 39.3721V39.3983C19.041 41.9605 19.9564 44.5489 20.8979 47.1112L21.081 47.5818C21.1072 47.6341 21.1333 47.7125 21.1595 47.7648L21.2641 48.0786L21.0549 48.1832C20.9764 48.2093 20.9241 48.2354 20.8456 48.2354C20.6887 48.2354 20.5841 48.1309 20.5056 47.9478C20.401 47.6864 20.3225 47.4249 20.2179 47.1635L20.061 46.6929L17.7072 40.1826L14.5687 47.791C14.4903 48.0001 14.3595 48.0786 14.2026 48.0786Z" fill="white"/>
<path d="M14.1241 47.7907C14.1765 47.5816 14.2811 47.3724 14.3595 47.1894C15.4318 44.601 16.5041 42.0387 17.5503 39.4765C17.5764 39.398 17.5764 39.2935 17.7072 39.2935C17.838 39.2935 17.8118 39.4242 17.8641 39.5026C18.858 42.2218 19.8518 44.967 20.8456 47.6862C20.8718 47.7646 20.898 47.8692 20.9503 47.9738C20.8195 48.0261 20.7933 47.9738 20.7672 47.8692C20.6103 47.4509 20.4533 47.0325 20.3226 46.6403C19.6949 44.8625 19.041 43.1107 18.4134 41.3328C18.2041 40.7576 17.9949 40.1824 17.7857 39.6072C17.7857 39.5811 17.7857 39.5549 17.7334 39.5288C17.6549 39.7118 17.5764 39.921 17.498 40.104C16.4518 42.6401 15.4057 45.1762 14.3595 47.6862C14.2811 47.7646 14.2811 47.8692 14.1241 47.7907Z" fill="white"/>
<path d="M46.214 23.2173C46.2401 23.2434 46.2663 23.2696 46.2401 23.2957C46.214 23.3219 46.1878 23.2957 46.1355 23.2696C46.1878 23.2434 46.214 23.2173 46.214 23.2173Z" fill="white"/>
<path d="M64.9136 26.3023C64.9136 26.2761 64.9397 26.2761 64.9397 26.25C64.9397 26.2761 64.9659 26.2761 64.9659 26.3023C64.9397 26.3023 64.9136 26.3023 64.9136 26.3023Z" fill="white"/>
<path d="M20.7912 19.1123C20.8174 19.1385 20.7912 19.1646 20.765 19.1646C20.765 19.1646 20.7389 19.1646 20.7389 19.1384C20.765 19.1384 20.7912 19.1123 20.7912 19.1123Z" fill="white"/>
<path d="M39.6746 45.0976C39.7269 45.0714 39.7531 45.0453 39.7792 45.0453C40.2761 44.81 40.6161 44.4178 40.7992 43.8949C41.113 43.0844 41.1392 42.2216 40.9561 41.3849C40.7207 40.2345 39.9884 39.6332 38.8115 39.5809C37.7654 39.5286 36.7454 39.5286 35.6992 39.5024C35.6731 39.5024 35.6469 39.5024 35.6208 39.5286C35.5946 39.5809 35.6208 39.6593 35.6208 39.7116C35.5685 42.483 35.49 45.2806 35.4377 48.052C35.4377 48.0782 35.4377 48.1043 35.4377 48.1305C35.4115 48.2612 35.4638 48.2873 35.5946 48.2873C35.9085 48.2873 36.2223 48.2873 36.5361 48.3135C36.5885 48.3135 36.6408 48.3396 36.7192 48.2612L36.7977 45.176C37.2684 45.176 37.7392 45.2022 38.1838 45.2022C38.3669 45.2022 38.3669 45.2022 38.4454 45.3852C38.8115 46.3264 39.1515 47.2677 39.5177 48.2089C39.5438 48.2873 39.57 48.3658 39.7007 48.3658C40.1454 48.3658 40.5638 48.3919 41.0346 48.3919C40.5638 47.3199 40.1192 46.2218 39.6746 45.0976ZM39.5961 43.2935C39.4392 43.7119 39.1254 43.9472 38.6546 43.9472C38.0531 43.9472 37.4254 43.921 36.7977 43.921L36.8761 40.8882C36.9285 40.8359 36.9808 40.862 37.0331 40.862C37.53 40.862 38.0269 40.8882 38.55 40.8882C38.6807 40.8882 38.8377 40.9143 38.9684 40.9404C39.3084 41.0189 39.5177 41.228 39.6484 41.5679C39.8054 42.1431 39.8054 42.7445 39.5961 43.2935Z" fill="white"/>
</g>
<defs>
<clipPath id="clip0">
<rect width="69" height="49" fill="white"/>
</clipPath>
</defs>
</svg>
