<svg width="44" height="44" viewBox="0 0 44 44" fill="none" xmlns="http://www.w3.org/2000/svg">
<path d="M43.9675 22.0108C43.9675 15.6664 43.9675 9.32189 43.9675 2.98825C43.9675 1.11523 42.8537 7.4544e-05 40.9722 7.4544e-05C28.3204 7.4544e-05 15.6687 7.4544e-05 3.01695 7.4544e-05C1.17867 -0.0107522 0.0108135 1.15854 0.0108135 3.00991C0.0108135 15.6555 0.0216269 28.312 0 40.9576C0 42.6899 1.27599 44.0108 3.03858 43.9999C15.6687 43.9566 28.2988 43.9566 40.9397 43.9999C42.6807 44.0108 44.0107 42.7116 43.9999 40.9251C43.9351 34.624 43.9675 28.312 43.9675 22.0108ZM18.4802 29.438C17.7557 31.2244 17.0312 33.0108 16.3067 34.7972C15.8525 35.9124 15.3875 37.0275 14.955 38.1535C14.7712 38.6299 14.4792 38.8139 13.971 38.8031C11.9489 38.749 12.3165 39.1062 11.5163 37.1358C10.4999 34.6132 9.4834 32.0905 8.46693 29.5679C8.1209 28.7126 8.23985 28.5285 9.14818 28.5394C10.9432 28.561 10.5756 28.2795 11.2352 29.9793C11.9597 31.8632 12.6626 33.747 13.4411 35.8041C14.1116 34.0285 14.7387 32.3937 15.3551 30.7697C15.5714 30.1958 15.7985 29.622 16.0039 29.0482C16.1337 28.7018 16.3499 28.5285 16.7392 28.5394C17.1177 28.561 17.4962 28.5394 17.8746 28.5394C18.5883 28.5502 18.7505 28.7667 18.4802 29.438ZM28.5583 34.4724C26.6984 34.4832 24.8385 34.4724 22.9894 34.4724H22.3622C22.2216 35.5659 22.7515 36.6269 23.5733 36.995C24.4276 37.374 25.4981 37.1358 26.1794 36.3563C26.4497 36.0423 26.7309 35.8799 27.1526 35.9124C27.5635 35.9448 27.9852 35.9124 28.3961 35.9232C29.0017 35.934 29.2288 36.248 28.8935 36.746C28.5475 37.2549 28.1366 37.7746 27.6176 38.1102C25.9523 39.1929 24.1248 39.312 22.2865 38.619C20.9673 38.121 20.1671 37.0816 19.7994 35.7283C19.4534 34.4724 19.4426 33.184 19.7345 31.9281C20.405 29.059 22.7948 28.063 25.1737 28.3878C27.6284 28.7234 29.0557 30.3366 29.2612 32.8267C29.2828 33.1191 29.3261 33.4006 29.3261 33.6929C29.3261 34.2992 29.1639 34.4616 28.5583 34.4724ZM33.9867 33.6929C33.9867 35.1004 33.9867 36.5078 33.9867 37.9153C33.9867 38.7165 33.9002 38.8031 33.0783 38.8031C32.6999 38.8031 32.3214 38.8031 31.9429 38.8031C31.5645 38.8031 31.3806 38.619 31.3806 38.2401C31.3806 35.2086 31.3806 32.1771 31.3806 29.1348C31.3806 28.7342 31.5753 28.5394 31.9754 28.5394C32.3863 28.5394 32.808 28.5394 33.2189 28.5394C33.8461 28.5394 33.9867 28.6801 33.9867 29.2972C33.9867 30.7697 33.9867 32.2313 33.9867 33.6929ZM34.0948 26.0925C34.084 26.6988 33.9434 26.8504 33.3811 26.8504C33.1324 26.8504 32.8729 26.8504 32.6242 26.8504C31.2833 26.8504 31.2617 26.9911 31.2725 25.497C31.2833 24.5335 31.359 24.4577 32.3214 24.4577H33.1324C33.2189 24.4577 33.3162 24.4577 33.4028 24.4577C34.0516 24.501 34.1273 24.685 34.0948 26.0925ZM39.2096 30.7047C39.2096 33.1191 39.2096 35.5443 39.2096 37.9586C39.2096 38.7057 39.1123 38.8031 38.3769 38.8031C38.0201 38.8031 37.6524 38.7923 37.2956 38.8031C36.7874 38.8248 36.5819 38.5974 36.5927 38.0885C36.6035 35.9773 36.5927 33.8661 36.5927 31.7549C36.5927 29.7303 36.5927 27.7165 36.5927 25.6919C36.5927 24.8799 36.7009 24.7716 37.5335 24.7716C37.8579 24.7716 38.1823 24.7825 38.5067 24.7716C39.0041 24.7608 39.2204 24.999 39.2204 25.497C39.1988 27.2401 39.2096 28.9724 39.2096 30.7047Z" fill="white"/>
<path d="M26.8125 33H22.7184C22.5194 31.2688 23.3047 29.7122 24.4147 29.5812C25.9015 29.3921 26.802 30.6432 26.8125 33Z" fill="white"/>
</svg>
