<svg width="88" height="88" viewBox="0 0 88 88" fill="none" xmlns="http://www.w3.org/2000/svg"><path d="M44 87c23.748 0 43-19.252 43-43S67.748 1 44 1 1 20.252 1 44s19.252 43 43 43z" stroke="#00AE99" stroke-width="2" stroke-miterlimit="10"/><path d="M43.999 78.4c18.998 0 34.4-15.401 34.4-34.4 0-18.998-15.401-34.4-34.4-34.4S9.599 25.002 9.599 44C9.599 63 25 78.4 43.999 78.4z" stroke="#00AE99" stroke-width="2" stroke-miterlimit="10"/><path d="M35.1 57.76v1h20.529v-7.395h-6.098V26.738H42.36l-.254.173-6.568 4.456-.438.298v8.906l1.561-1.06 5.006-3.397v15.251H35.1v6.395z" stroke="#00AE99" stroke-width="2"/><path d="M9.597 43.766c7.115-1.173 12.588-7.271 12.588-14.777 0-3.362-1.095-6.41-2.971-8.913-5.864 6.177-9.538 14.542-9.617 23.69zM9.597 44.234c.079 9.226 3.753 17.513 9.617 23.69a14.719 14.719 0 0 0 2.97-8.913c0-7.506-5.472-13.682-12.587-14.777zM78.399 43.766c-7.115-1.173-12.587-7.271-12.587-14.777 0-3.362 1.094-6.41 2.97-8.913 5.864 6.177 9.539 14.542 9.617 23.69zM78.399 44.235c-.079 9.225-3.753 17.512-9.617 23.689a14.718 14.718 0 0 1-2.97-8.913c0-7.506 5.472-13.682 12.587-14.776z" stroke="#00AE99" stroke-width="2" stroke-miterlimit="10"/></svg>
