<svg width="104" height="104" viewBox="0 0 104 104" fill="none" xmlns="http://www.w3.org/2000/svg">
<path fill-rule="evenodd" clip-rule="evenodd" d="M9.84985 78.8087L36.7242 61.1239L37.9881 63.0445L38.1969 62.8389L40.3021 64.9762L17.1691 87.7629L15.0638 85.6256L35.4224 65.5718L11.499 81.3147L9.84985 78.8087Z" fill="#00AE99"/>
<path fill-rule="evenodd" clip-rule="evenodd" d="M30.5626 97.04L44.5116 68.1307L42.2297 67.0297L42.4954 66.6708L40.0844 64.8856L20.6933 91.0738L23.1043 92.8591L40.7433 69.0371L27.8606 95.7363L30.5626 97.04Z" fill="#00AE99"/>
<path fill-rule="evenodd" clip-rule="evenodd" d="M77.0274 21.945L77.7817 22.597L77.9176 22.9305C78.4037 24.1238 78.4331 25.4595 78.2991 26.6101C78.163 27.7797 77.841 28.9043 77.4856 29.7663C77.111 30.6749 76.1177 32.2645 75.1401 33.7277C74.1583 35.1972 73.0749 36.711 72.3583 37.6171C72.3108 37.6936 72.2613 37.7744 72.2099 37.8592L72.2154 37.8639L72.1874 37.8963C70.7572 40.2611 67.9041 45.6532 66.4461 50.8115C64.8495 56.46 65.5015 61.0514 65.9556 64.2492C66.0373 64.8248 66.1127 65.3553 66.1673 65.8386C66.2974 66.9893 65.9903 68.1889 65.5872 69.2248C65.1736 70.2879 64.5976 71.3318 64.0302 72.2257C63.4471 73.1444 62.8475 73.9446 62.387 74.4938L61.4071 75.6622L50.0298 65.7966L48.5502 67.5084L48.5056 67.552C48.1953 67.8559 47.618 68.2291 46.8939 68.3763C46.4862 68.4592 46.0304 68.4687 45.5642 68.359L45.5313 68.3971L45.3992 68.4954C44.8377 68.9128 43.4689 69.4006 42.2387 68.3372L36.9111 63.732C35.6809 62.6686 35.9656 61.2437 36.2974 60.6277L36.3755 60.4828L36.4085 60.4446C36.2324 59.9993 36.1759 59.5468 36.1989 59.1315C36.2398 58.3937 36.5256 57.7685 36.7814 57.4174L36.8181 57.367L38.2977 55.6553L26.8899 45.8252L27.9042 44.6866C28.3809 44.1514 29.086 43.4424 29.9106 42.7324C30.713 42.0417 31.6626 41.3207 32.6547 40.7576C33.6213 40.2089 34.764 39.7315 35.9213 39.6937C36.4075 39.6779 36.9432 39.6756 37.5246 39.6732C40.7544 39.6599 45.3919 39.6406 50.75 37.2437C55.6431 35.0547 60.5656 31.4513 62.6986 29.6941L62.7266 29.6617L62.7321 29.6665C62.8085 29.6033 62.8812 29.5426 62.9501 29.4846C63.743 28.6445 65.0842 27.3534 66.3961 26.1693C67.7024 24.9903 69.1316 23.7775 69.9764 23.2754C70.778 22.799 71.8441 22.3176 72.9817 22.0137C74.1009 21.7147 75.4267 21.5505 76.6778 21.8589L77.0274 21.945ZM55.203 38.3654C54.147 38.9466 53.0625 39.4956 51.9751 39.9821C45.9873 42.6608 40.6767 42.6707 37.4612 42.6766C36.9186 42.6776 36.4356 42.6785 36.0192 42.6921C35.5706 42.7068 34.9295 42.916 34.1355 43.3666C33.367 43.8029 32.579 44.3938 31.8679 45.006C31.6377 45.2042 31.4191 45.4015 31.2155 45.5925L40.2596 53.3857L40.9605 52.5749C41.9509 51.429 43.2047 50.9183 44.4009 50.8619L55.203 38.3654ZM47.4939 51.8712L64.806 31.8436C64.8574 31.8005 64.9071 31.7587 64.9549 31.7181L65.0206 31.6623L65.0795 31.5994C65.7829 30.8478 67.0916 29.5828 68.4061 28.3964C69.7605 27.1739 70.9671 26.1765 71.5092 25.8543C72.0946 25.5064 72.9071 25.1388 73.7561 24.912C74.3265 24.7596 74.8542 24.6865 75.3101 24.694C75.3835 25.1441 75.3875 25.6768 75.3193 26.2632C75.2177 27.1361 74.9716 27.9933 74.712 28.6228C74.4717 29.2059 73.6592 30.544 72.6456 32.061C71.6619 33.5334 70.5996 35.0114 69.9577 35.8161L69.9039 35.8835L69.8582 35.9566C69.825 36.0098 69.7908 36.0649 69.7556 36.1221L52.4435 56.1497C51.943 55.696 51.0966 54.9401 50.1455 54.1125C50.0948 54.0686 50.0447 54.0244 49.9942 53.981C49.944 53.9373 49.8935 53.8935 49.8427 53.8496C48.8862 53.0284 48.0152 52.3008 47.4939 51.8712ZM48.0324 56.2506C47.0025 55.3641 46.0577 54.5744 45.535 54.1444L45.5208 54.1327L45.507 54.1207C45.1484 53.8107 44.0456 53.5933 43.2301 54.5367L42.5307 55.3458L49.7236 61.5634L50.423 60.7543C51.2385 59.811 50.8638 58.7512 50.5052 58.4412L50.4913 58.4292L50.4777 58.4169C49.9766 57.9619 49.0585 57.1414 48.0324 56.2506ZM47.7618 63.833L40.5688 57.6154L39.222 59.1735C39.2059 59.2171 39.1963 59.2619 39.1943 59.2975C39.1934 59.3136 39.1943 59.3242 39.1951 59.33C39.1959 59.3352 39.1967 59.3374 39.1971 59.3385C39.1974 59.3394 39.1997 59.3452 39.2078 59.3564C39.2161 59.3681 39.2351 59.3918 39.273 59.4245L46.1591 65.377C46.197 65.4097 46.2232 65.4251 46.236 65.4317C46.2483 65.438 46.2543 65.4394 46.2552 65.4396C46.2563 65.4399 46.2587 65.4404 46.2639 65.4404C46.2669 65.4404 46.271 65.4402 46.2764 65.4396C46.2818 65.439 46.2884 65.4381 46.2963 65.4365C46.3312 65.4293 46.3742 65.4133 46.4149 65.3911L47.7618 63.833ZM39.2383 59.1353C39.2391 59.1338 39.2394 59.1333 39.2392 59.1338ZM53.8897 59.0642C54.007 60.2559 53.683 61.5704 52.6926 62.7162L51.9917 63.527L61.0115 71.3484C61.171 71.1193 61.3346 70.8745 61.4974 70.618C62.0002 69.8258 62.471 68.9606 62.7914 68.1371C63.1224 67.2862 63.2367 66.6216 63.1863 66.1756C63.1395 65.7616 63.0705 65.2836 62.993 64.7465C62.5336 61.564 61.775 56.3079 63.5592 49.9955C63.8832 48.8491 64.2695 47.6966 64.6918 46.5676L53.8897 59.0642Z" fill="#00AE99"/>
<path fill-rule="evenodd" clip-rule="evenodd" d="M52 3.5C25.2142 3.5 3.5 25.2142 3.5 52C3.5 78.7858 25.2142 100.5 52 100.5C78.7858 100.5 100.5 78.7858 100.5 52C100.5 25.2142 78.7858 3.5 52 3.5ZM0.5 52C0.5 23.5573 23.5573 0.5 52 0.5C80.4427 0.5 103.5 23.5573 103.5 52C103.5 80.4427 80.4427 103.5 52 103.5C23.5573 103.5 0.5 80.4427 0.5 52Z" fill="#00AE99"/>
</svg>
