<svg width="152" height="152" viewBox="0 0 152 152" fill="none" xmlns="http://www.w3.org/2000/svg"><path d="M76 151c41.421 0 75-33.579 75-75S117.421 1 76 1 1 34.579 1 76s33.579 75 75 75z" stroke="#00AE99" stroke-width="2" stroke-miterlimit="10"/><path d="M120.5 122.906H31.503c-12.943 0-23.478-10.485-23.478-23.478 0-12.993 10.485-23.478 23.478-23.478H120.5" stroke="#00AE99" stroke-width="2" stroke-miterlimit="10"/><path d="M120.499 122.906c12.967 0 23.478-10.511 23.478-23.478 0-12.967-10.511-23.478-23.478-23.478-12.967 0-23.478 10.511-23.478 23.478 0 12.967 10.511 23.478 23.478 23.478z" stroke="#00AE99" stroke-width="2" stroke-miterlimit="10"/><path d="M120.5 122.906H31.503c-12.943 0-23.478-10.485-23.478-23.478 0-12.993 10.485-23.478 23.478-23.478H120.5" stroke="#00AE99" stroke-width="2" stroke-miterlimit="10"/><path d="M120.499 122.906c12.967 0 23.478-10.511 23.478-23.478 0-12.967-10.511-23.478-23.478-23.478-12.967 0-23.478 10.511-23.478 23.478 0 12.967 10.511 23.478 23.478 23.478z" stroke="#00AE99" stroke-width="2" stroke-miterlimit="10"/><path d="M31.5 29.093h88.996c12.943 0 23.478 10.485 23.478 23.478 0 12.993-10.485 23.478-23.478 23.478H31.499" stroke="#00AE99" stroke-width="2" stroke-miterlimit="10"/><path d="M31.503 76.052c12.967 0 23.478-10.512 23.478-23.478 0-12.967-10.511-23.479-23.478-23.479-12.966 0-23.478 10.512-23.478 23.479 0 12.966 10.512 23.478 23.478 23.478z" stroke="#00AE99" stroke-width="2" stroke-miterlimit="10"/></svg>