<svg width="90" height="90" viewBox="0 0 90 90" fill="none" xmlns="http://www.w3.org/2000/svg">
<path d="M45.0089 45.022L80.128 45.022L80.128 68.6648L68.5 68.6648" stroke="#00AE99" stroke-width="3" stroke-miterlimit="10"/>
<path d="M44.9968 45.0043L69.8295 69.837L53.1116 86.5548L44.9968 78.4399" stroke="#00AE99" stroke-width="3" stroke-miterlimit="10"/>
<path d="M45 44.9999V80.119H21.3572V69" stroke="#00AE99" stroke-width="3" stroke-miterlimit="10"/>
<path d="M44.9932 44.9767L20.1605 69.8094L3.44264 53.0916L11.5575 44.9767" stroke="#00AE99" stroke-width="3" stroke-miterlimit="10"/>
<path d="M45.0066 44.9802L9.88753 44.9802L9.88753 21.3373L21 21.3373" stroke="#00AE99" stroke-width="3" stroke-miterlimit="10"/>
<path d="M45.0057 44.9928L20.173 20.1601L36.8908 3.44228L45.0057 11.5571" stroke="#00AE99" stroke-width="3" stroke-miterlimit="10"/>
<path d="M45.0133 44.9977L45.0133 9.87867L68.6561 9.87867L68.6561 21" stroke="#00AE99" stroke-width="3" stroke-miterlimit="10"/>
<path d="M45.0249 45.006H62H78.4605L86.5754 36.8911L69.8575 20.1733L45.0249 45.006Z" stroke="#00AE99" stroke-width="3" stroke-miterlimit="10"/>
<path d="M45 88C68.7482 88 88 68.7482 88 45C88 21.2518 68.7482 2 45 2C21.2518 2 2 21.2518 2 45C2 68.7482 21.2518 88 45 88Z" stroke="#00AE99" stroke-width="3" stroke-miterlimit="10"/>
</svg>
