<svg width="250" height="250" viewBox="0 0 250 250" fill="none" xmlns="http://www.w3.org/2000/svg">
<path d="M125 247C192.379 247 247 192.379 247 125C247 57.6213 192.379 3 125 3C57.6213 3 3 57.6213 3 125C3 192.379 57.6213 247 125 247Z" stroke="#00AE99" stroke-width="3" stroke-miterlimit="10"/>
<path d="M125 2V49.5839C125 63.4281 113.777 74.651 99.9329 74.651V74.651C86.0887 74.651 74.8658 63.4281 74.8658 49.5839V13" stroke="#00AE99" stroke-width="3"/>
<rect x="25" y="75" width="50.1342" height="50.1342" rx="25.0671" stroke="#00AE99" stroke-width="3"/>
<rect x="125" y="25" width="50.1342" height="50.1342" rx="25.0671" stroke="#00AE99" stroke-width="3"/>
<rect x="108" y="88" width="34" height="34" rx="17" stroke="#00AE99" stroke-width="3"/>
<rect x="175" y="125" width="50.1342" height="50.1342" rx="25.0671" stroke="#00AE99" stroke-width="3"/>
<rect x="75" y="175" width="50.1342" height="50.1342" rx="25.0671" stroke="#00AE99" stroke-width="3"/>
<path d="M125 248V200.067C125 186.223 136.223 175 150.067 175V175C163.911 175 175.134 186.223 175.134 200.067V236.5" stroke="#00AE99" stroke-width="3"/>
<path d="M246.5 125H200.067C186.223 125 175 113.777 175 99.9328V99.9328C175 86.0886 186.223 74.8657 200.067 74.8657H235.5" stroke="#00AE99" stroke-width="3"/>
<path d="M200 73.5001H150V76.5001H200V73.5001ZM150 73.5001C137.021 73.5001 126.5 62.9788 126.5 50.0001H123.5C123.5 64.6356 135.364 76.5001 150 76.5001V73.5001ZM150 23.5001C135.364 23.5001 123.5 35.3645 123.5 50.0001H126.5C126.5 37.0214 137.021 26.5001 150 26.5001V23.5001ZM223.12 54.2318C221.128 65.1907 211.533 73.5001 200 73.5001V76.5001C213.009 76.5001 223.825 67.1282 226.072 54.7682L223.12 54.2318ZM150 26.5001H195V23.5001H150V26.5001Z" fill="#00AE99"/>
<path d="M3 125H49.5839C63.4281 125 74.651 136.223 74.651 150.067V150.067C74.651 163.911 63.4281 175.134 49.5839 175.134H14" stroke="#00AE99" stroke-width="3"/>
<path d="M73.5 50V100H76.5V50H73.5ZM50 123.5C37.0213 123.5 26.5 112.979 26.5 100H23.5C23.5 114.636 35.3645 126.5 50 126.5V123.5ZM73.5 100C73.5 112.979 62.9787 123.5 50 123.5V126.5C64.6355 126.5 76.5 114.636 76.5 100H73.5ZM223.5 150V194H226.5V150H223.5ZM176.5 200V150H173.5V200H176.5ZM200 126.5C212.979 126.5 223.5 137.021 223.5 150H226.5C226.5 135.364 214.636 123.5 200 123.5V126.5ZM200 123.5C185.364 123.5 173.5 135.364 173.5 150H176.5C176.5 137.021 187.021 126.5 200 126.5V123.5ZM50 176.5H100V173.5H50V176.5ZM123.5 200C123.5 212.979 112.979 223.5 100 223.5V226.5C114.636 226.5 126.5 214.636 126.5 200H123.5ZM100 176.5C112.979 176.5 123.5 187.021 123.5 200H126.5C126.5 185.364 114.636 173.5 100 173.5V176.5ZM54.7016 26.9701C65.4275 29.1474 73.5 38.6326 73.5 50H76.5C76.5 37.1778 67.3949 26.4855 55.2984 24.0301L54.7016 26.9701ZM26.5 100V55H23.5V100H26.5ZM100 223.5H55V226.5H100V223.5ZM50 173.5C37.1778 173.5 26.4855 182.605 24.0301 194.702L26.9701 195.298C29.1474 184.572 38.6326 176.5 50 176.5V173.5ZM195.768 223.12C184.809 221.128 176.5 211.533 176.5 200H173.5C173.5 213.009 182.872 223.825 195.232 226.072L195.768 223.12Z" fill="#00AE99"/>
<rect x="75" y="75" width="100" height="100" stroke="#00AE99" stroke-width="3"/>
<rect x="86" y="144" width="78" height="19" stroke="#00AE99" stroke-width="3"/>
<path d="M88 134H162" stroke="#00AE99" stroke-width="3"/>
</svg>
