<svg width="150" height="150" viewBox="0 0 150 150" fill="none" xmlns="http://www.w3.org/2000/svg">
<circle cx="116" cy="34" r="32" stroke="#00AE99" stroke-width="3"/>
<circle cx="116" cy="34" r="14" stroke="#00AE99" stroke-width="3"/>
<path d="M116 5L121.216 17.9481L133.046 10.5385L129.655 24.0794L143.581 25.0385L132.878 34L143.581 42.9615L129.655 43.9206L133.046 57.4615L121.216 50.0519L116 63L110.784 50.0519L98.9542 57.4615L102.345 43.9206L88.4194 42.9615L99.122 34L88.4194 25.0385L102.345 24.0794L98.9542 10.5385L110.784 17.9481L116 5Z" stroke="#00AE99" stroke-width="3"/>
<circle cx="34" cy="34" r="32" stroke="#00AE99" stroke-width="3"/>
<path d="M66 34H45M2 34H23" stroke="#00AE99" stroke-width="3"/>
<circle cx="34" cy="34" r="11" stroke="#00AE99" stroke-width="3"/>
<circle cx="34" cy="34" r="4" stroke="#00AE99" stroke-width="3"/>
<circle cx="116" cy="116" r="32" stroke="#00AE99" stroke-width="3"/>
<circle cx="116" cy="116" r="6" stroke="#00AE99" stroke-width="3"/>
<path d="M103 114C103 110.686 100.314 108 97 108C93.6863 108 91 110.686 91 114" stroke="#00AE99" stroke-width="3"/>
<path d="M141 114C141 110.686 138.314 108 135 108C131.686 108 129 110.686 129 114" stroke="#00AE99" stroke-width="3"/>
<path d="M116 122V125C116 128.866 112.866 132 109 132V132C105.134 132 102 128.866 102 125V124" stroke="#00AE99" stroke-width="3"/>
<path d="M123 133V134C123 137.866 119.866 141 116 141V141C112.134 141 109 137.866 109 134V133" stroke="#00AE99" stroke-width="3"/>
<path d="M116 122V125C116 128.866 119.134 132 123 132V132C126.866 132 130 128.866 130 125V124" stroke="#00AE99" stroke-width="3"/>
<circle cx="34" cy="116" r="32" stroke="#00AE99" stroke-width="3"/>
<path d="M33.5556 142L7 113.1M33.5556 142L61 113.1M33.5556 142L22 113.1M33.5556 142L46.4444 113.1M7 113.1L16.8889 98H33.5556M7 113.1H22M61 113.1L51.1111 98H33.5556M61 113.1H46.4444M22 113.1H46.4444M22 113.1L33.5556 98M46.4444 113.1L33.5556 98" stroke="#00AE99" stroke-width="3"/>
</svg>
