<svg width="150" height="150" viewBox="0 0 150 150" fill="none" xmlns="http://www.w3.org/2000/svg">
<path fill-rule="evenodd" clip-rule="evenodd" d="M75 3.5C35.5116 3.5 3.5 35.5116 3.5 75C3.5 114.488 35.5116 146.5 75 146.5C114.488 146.5 146.5 114.488 146.5 75C146.5 35.5116 114.488 3.5 75 3.5ZM0.5 75C0.5 33.8548 33.8548 0.5 75 0.5C116.145 0.5 149.5 33.8548 149.5 75C149.5 116.145 116.145 149.5 75 149.5C33.8548 149.5 0.5 116.145 0.5 75Z" fill="#00AE99"/>
<path fill-rule="evenodd" clip-rule="evenodd" d="M75 18.5C43.7959 18.5 18.5 43.7959 18.5 75C18.5 106.204 43.7959 131.5 75 131.5C106.204 131.5 131.5 106.204 131.5 75C131.5 43.7959 106.204 18.5 75 18.5ZM15.5 75C15.5 42.1391 42.1391 15.5 75 15.5C107.861 15.5 134.5 42.1391 134.5 75C134.5 107.861 107.861 134.5 75 134.5C42.1391 134.5 15.5 107.861 15.5 75Z" fill="#00AE99"/>
<path fill-rule="evenodd" clip-rule="evenodd" d="M116.902 33.0982L88.1323 88.1325L33.098 116.902L61.8676 61.8678L116.902 33.0982ZM63.3625 65.4839L40.1913 109.809L84.5162 86.6376L63.3625 65.4839ZM86.6375 84.5163L65.4838 63.3626L109.809 40.1914L86.6375 84.5163Z" fill="#00AE99"/>
<path fill-rule="evenodd" clip-rule="evenodd" d="M73.5 17V2H76.5V17H73.5ZM73.5 148V133H76.5V148H73.5Z" fill="#00AE99"/>
<path fill-rule="evenodd" clip-rule="evenodd" d="M17 76.5L2 76.5L2 73.5L17 73.5L17 76.5ZM148 76.5L133 76.5L133 73.5L148 73.5L148 76.5Z" fill="#00AE99"/>
<path fill-rule="evenodd" clip-rule="evenodd" d="M24.0205 47.2991L11.0302 39.7991L12.5302 37.201L25.5205 44.701L24.0205 47.2991ZM137.47 112.799L124.479 105.299L125.979 102.701L138.97 110.201L137.47 112.799Z" fill="#00AE99"/>
<path fill-rule="evenodd" clip-rule="evenodd" d="M44.7011 25.5204L37.2011 12.53L39.7992 11.03L47.2992 24.0204L44.7011 25.5204ZM110.201 138.97L102.701 125.979L105.299 124.479L112.799 137.47L110.201 138.97Z" fill="#00AE99"/>
<path fill-rule="evenodd" clip-rule="evenodd" d="M102.701 24.0204L110.201 11.03L112.799 12.53L105.299 25.5204L102.701 24.0204ZM37.2009 137.47L44.7009 124.479L47.299 125.979L39.799 138.97L37.2009 137.47Z" fill="#00AE99"/>
<path fill-rule="evenodd" clip-rule="evenodd" d="M124.479 44.7009L137.47 37.2009L138.97 39.799L125.979 47.299L124.479 44.7009ZM11.0301 110.201L24.0205 102.701L25.5205 105.299L12.5301 112.799L11.0301 110.201Z" fill="#00AE99"/>
</svg>
