<svg width="404" height="404" viewBox="0 0 404 404" fill="none" xmlns="http://www.w3.org/2000/svg">
<circle cx="202" cy="202" r="200" stroke="#00AE99" stroke-width="3"/>
<path d="M111.093 201.667L201.622 292.195M111.093 201.667L24.7433 115.316L115.098 24.6137L188.958 98.4738M111.093 201.667L24.7432 288.017L114.053 379.764L201.622 292.195M111.093 201.667L167.107 145.653M292.151 201.667L201.622 292.195M292.151 201.667L379.546 289.062L289.191 379.764L201.622 292.195M292.151 201.667L380.59 113.227L290.236 22.5243L214.983 97.7774M292.151 201.667L236.137 145.653M201.622 292.195L201.622 400.137M201.622 400.137L254.81 346.95M201.622 400.137L148.435 346.95" stroke="#00AE99" stroke-width="3"/>
<path d="M202 85L262 145H142L202 85Z" stroke="#00AE99" stroke-width="3"/>
<path d="M202 146L262 205H142L202 146Z" stroke="#00AE99" stroke-width="3"/>
<path d="M245 249L202 206L159 249" stroke="#00AE99" stroke-width="3"/>
</svg>
