<svg width="104" height="104" viewBox="0 0 104 104" fill="none" xmlns="http://www.w3.org/2000/svg">
<path fill-rule="evenodd" clip-rule="evenodd" d="M52 3.5C25.2142 3.5 3.5 25.2142 3.5 52C3.5 78.7858 25.2142 100.5 52 100.5C78.7858 100.5 100.5 78.7858 100.5 52C100.5 25.2142 78.7858 3.5 52 3.5ZM0.5 52C0.5 23.5573 23.5573 0.5 52 0.5C80.4427 0.5 103.5 23.5573 103.5 52C103.5 80.4427 80.4427 103.5 52 103.5C23.5573 103.5 0.5 80.4427 0.5 52Z" fill="#00AE99"/>
<path fill-rule="evenodd" clip-rule="evenodd" d="M51.864 13.2959C30.6011 13.2959 13.364 30.5329 13.364 51.7959C13.364 73.0589 30.6011 90.2959 51.864 90.2959C73.127 90.2959 90.364 73.0589 90.364 51.7959C90.364 30.5329 73.127 13.2959 51.864 13.2959ZM10.364 51.7959C10.364 28.8761 28.9442 10.2959 51.864 10.2959C74.7838 10.2959 93.364 28.8761 93.364 51.7959C93.364 74.7157 74.7838 93.2959 51.864 93.2959C28.9442 93.2959 10.364 74.7157 10.364 51.7959Z" fill="#00AE99"/>
<path fill-rule="evenodd" clip-rule="evenodd" d="M36.2372 24.2815C32.0699 31.2502 29.4438 40.9744 29.4438 51.7959C29.4438 62.6173 32.0699 72.3416 36.2372 79.3103C40.4227 86.3097 45.9947 90.2959 51.8636 90.2959C57.7325 90.2959 63.3044 86.3097 67.49 79.3103C71.6573 72.3416 74.2833 62.6173 74.2833 51.7959C74.2833 40.9744 71.6573 31.2502 67.49 24.2815C63.3044 17.2821 57.7325 13.2959 51.8636 13.2959C45.9947 13.2959 40.4227 17.2821 36.2372 24.2815ZM33.6624 22.7418C38.1341 15.264 44.5219 10.2959 51.8636 10.2959C59.2052 10.2959 65.5931 15.264 70.0648 22.7418C74.5548 30.2502 77.2833 40.526 77.2833 51.7959C77.2833 63.0658 74.5548 73.3416 70.0648 80.85C65.5931 88.3278 59.2052 93.2959 51.8636 93.2959C44.5219 93.2959 38.1341 88.3278 33.6624 80.85C29.1724 73.3416 26.4438 63.0658 26.4438 51.7959C26.4438 40.526 29.1724 30.2502 33.6624 22.7418Z" fill="#00AE99"/>
<path fill-rule="evenodd" clip-rule="evenodd" d="M50.364 91.7959V11.7959H53.364V91.7959H50.364Z" fill="#00AE99"/>
<path fill-rule="evenodd" clip-rule="evenodd" d="M11.864 50.2959H91.864V53.2959H11.864V50.2959Z" fill="#00AE99"/>
<path fill-rule="evenodd" clip-rule="evenodd" d="M17.1084 70.2825H86.6201V73.2825H17.1084V70.2825Z" fill="#00AE99"/>
<path fill-rule="evenodd" clip-rule="evenodd" d="M17.1084 30.2822H86.6201V33.2822H17.1084V30.2822Z" fill="#00AE99"/>
</svg>
