<svg width="104" height="104" viewBox="0 0 104 104" fill="none" xmlns="http://www.w3.org/2000/svg">
<path d="M52 102C79.6142 102 102 79.6142 102 52C102 24.3858 79.6142 2 52 2C24.3858 2 2 24.3858 2 52C2 79.6142 24.3858 102 52 102Z" stroke="#00AE99" stroke-width="2.5" stroke-miterlimit="10"/>
<path d="M51.8639 91.7959C73.9553 91.7959 91.8639 73.8873 91.8639 51.7959C91.8639 29.7045 73.9553 11.7959 51.8639 11.7959C29.7726 11.7959 11.864 29.7045 11.864 51.7959C11.864 73.8873 29.7726 91.7959 51.8639 91.7959Z" stroke="#00AE99" stroke-width="2.5" stroke-miterlimit="10"/>
<path d="M51.8636 91.7959C65.0741 91.7959 75.7833 73.8873 75.7833 51.7959C75.7833 29.7045 65.0741 11.7959 51.8636 11.7959C38.6531 11.7959 27.9438 29.7045 27.9438 51.7959C27.9438 73.8873 38.6531 91.7959 51.8636 91.7959Z" stroke="#00AE99" stroke-width="2.5" stroke-miterlimit="10"/>
<path d="M51.864 11.7959V91.7959" stroke="#00AE99" stroke-width="2.5" stroke-miterlimit="10"/>
<path d="M91.8639 51.796H11.864" stroke="#00AE99" stroke-width="2.5" stroke-miterlimit="10"/>
<path d="M86.6201 71.7827H17.1084" stroke="#00AE99" stroke-width="2.5" stroke-miterlimit="10"/>
<path d="M86.6201 31.7823H17.1084" stroke="#00AE99" stroke-width="2.5" stroke-miterlimit="10"/>
</svg>