<svg width="90" height="90" viewBox="0 0 90 90" fill="none" xmlns="http://www.w3.org/2000/svg">
<path d="M2 45C2 68.7578 21.2421 88 45 88C68.7579 88 88 68.7578 88 45C88 21.6448 69.3906 2.63278 46.1793 2.02876C45.7478 2.02876 45.3452 2 44.9137 2C21.2134 2.02876 2 21.2709 2 45Z" stroke="#00AE99" stroke-width="3" stroke-miterlimit="10" stroke-linejoin="round"/>
<path d="M86.5 55.5L45 14L3.5 55.5" stroke="#00AE99" stroke-width="3"/>
<path d="M45 14C41.1667 18.8333 35.8 30.8 45 40C56.5 51.5 52 59.5 45 67C38.5223 73.9404 40.1798 83.4498 44.0292 88" stroke="#00AE99" stroke-width="3"/>
<path d="M78 73L45 40L12 73" stroke="#00AE99" stroke-width="3"/>
<path d="M62.5 84.5L45 67L27.5 84.5" stroke="#00AE99" stroke-width="3"/>
</svg>
