<svg width="104" height="104" viewBox="0 0 104 104" fill="none" xmlns="http://www.w3.org/2000/svg"><path d="M52 102c27.614 0 50-22.386 50-50S79.614 2 52 2 2 24.386 2 52s22.386 50 50 50z" stroke="#00AE99" stroke-width="3" stroke-miterlimit="10"/><path d="M92.061 24.613c-10.138-10.137-26.574-10.137-36.711 0l-3.67 3.673-3.672-3.673c-10.138-10.137-26.574-10.137-36.711 0-10.138 10.138-10.138 26.574 0 36.712l3.672 3.672 36.711 36.709 36.712-36.712 3.672-3.672c10.135-10.135 10.135-26.57-.003-36.709z" stroke="#00AE99" stroke-width="3" stroke-miterlimit="10"/><path d="M81.293 45.17c-7.435-7.434-19.489-7.434-26.92 0l-2.693 2.694-2.694-2.694c-7.434-7.434-19.488-7.434-26.922 0-7.435 7.435-7.435 19.488 0 26.923l2.693 2.693 26.92 26.923 26.922-26.923 2.694-2.693c7.434-7.435 7.434-19.488 0-26.923z" stroke="#00AE99" stroke-width="3" stroke-miterlimit="10"/><path d="M70.525 65.73c-4.732-4.731-12.403-4.731-17.13 0l-1.715 1.715-1.715-1.715c-4.731-4.731-12.403-4.731-17.13 0-4.732 4.731-4.732 12.402 0 17.13l1.714 1.715 17.13 17.131 17.131-17.13 1.715-1.715c4.731-4.732 4.731-12.4 0-17.131z" stroke="#00AE99" stroke-width="3" stroke-miterlimit="10"/></svg>