<svg width="150" height="150" viewBox="0 0 150 150" fill="none" xmlns="http://www.w3.org/2000/svg">
<path d="M114.673 67.6531C132.527 67.6531 147 53.18 147 35.3265C147 17.4731 132.527 3 114.673 3C96.82 3 82.3469 17.4731 82.3469 35.3265C82.3469 53.18 96.82 67.6531 114.673 67.6531Z" stroke="#00AE99" stroke-width="3" stroke-miterlimit="10"/>
<path d="M123.137 10.8173V18.8107H131.131" stroke="#00AE99" stroke-width="3" stroke-miterlimit="10"/>
<path d="M131.131 18.8107V43.4964H109.207V10.8172H123.137L131.131 18.8107Z" stroke="#00AE99" stroke-width="3" stroke-miterlimit="10"/>
<path d="M106.21 59.8361V51.8426H98.2163" stroke="#00AE99" stroke-width="3" stroke-miterlimit="10"/>
<path d="M98.2163 51.8427V27.157H120.14V59.8362H106.21L98.2163 51.8427Z" stroke="#00AE99" stroke-width="3" stroke-miterlimit="10"/>
<path d="M35.3265 68.5936C53.18 68.5936 67.6531 54.1205 67.6531 36.267C67.6531 18.4136 53.18 3.94049 35.3265 3.94049C17.4731 3.94049 3 18.4136 3 36.267C3 54.1205 17.4731 68.5936 35.3265 68.5936Z" stroke="#00AE99" stroke-width="3" stroke-miterlimit="10"/>
<path d="M35.3265 68.5343C53.1472 68.5343 67.5937 54.0878 67.5937 36.2672C67.5937 18.4465 53.1472 4 35.3265 4C17.5058 4 3.05933 18.4465 3.05933 36.2672C3.05933 54.0878 17.5058 68.5343 35.3265 68.5343Z" stroke="#00AE99" stroke-width="3" stroke-miterlimit="10"/>
<path d="M26.4197 49.1738V50.6738H27.9197H45.3H46.8V49.1738V44.1137V42.6137H45.3H41.0799V21.0134V19.5134H39.5799H34.0798H33.6189L33.2376 19.7722L27.0775 23.9522L26.4197 24.3986V25.1934V31.2802V34.1108L28.762 32.5214L32.5798 29.9307V42.6137H27.9197H26.4197V44.1137V49.1738Z" stroke="#00AE99" stroke-width="3"/>
<path d="M3.05933 36.0472C9.73276 34.9471 14.8662 29.2271 14.8662 22.1869C14.8662 19.0336 13.8395 16.1735 12.0795 13.8268C6.57938 19.6202 3.13266 27.467 3.05933 36.0472Z" stroke="#00AE99" stroke-width="3" stroke-miterlimit="10"/>
<path d="M3.05933 36.487C3.13266 45.1405 6.57938 52.9139 12.0795 58.7074C13.8395 56.3606 14.8662 53.5006 14.8662 50.3472C14.8662 43.3071 9.73276 37.5137 3.05933 36.487Z" stroke="#00AE99" stroke-width="3" stroke-miterlimit="10"/>
<path d="M67.5937 36.0472C60.9202 34.9471 55.7868 29.2271 55.7868 22.1869C55.7868 19.0336 56.8135 16.1735 58.5735 13.8268C64.0736 19.6202 67.5203 27.467 67.5937 36.0472Z" stroke="#00AE99" stroke-width="3" stroke-miterlimit="10"/>
<path d="M67.5937 36.4871C67.5203 45.1405 64.0736 52.914 58.5735 58.7074C56.8135 56.3607 55.7868 53.5007 55.7868 50.3473C55.7868 43.3072 60.9202 37.5137 67.5937 36.4871Z" stroke="#00AE99" stroke-width="3" stroke-miterlimit="10"/>
<path d="M35.3265 147.94C53.18 147.94 67.6531 133.467 67.6531 115.614C67.6531 97.7605 53.18 83.2874 35.3265 83.2874C17.4731 83.2874 3 97.7605 3 115.614C3 133.467 17.4731 147.94 35.3265 147.94Z" stroke="#00AE99" stroke-width="3" stroke-miterlimit="10"/>
<path d="M35.3265 147.94C53.18 147.94 67.6531 133.467 67.6531 115.614C67.6531 97.7605 53.18 83.2874 35.3265 83.2874C17.4731 83.2874 3 97.7605 3 115.614C3 133.467 17.4731 147.94 35.3265 147.94Z" stroke="#00AE99" stroke-width="3" stroke-miterlimit="10"/>
<path d="M38.618 113.966V94.9818H41.3217V89.6333H29.3315V94.9818H32.0352V113.966C25.8637 115.436 21.2792 121.019 21.2792 127.602C21.2792 135.361 27.5682 141.65 35.3266 141.65C43.085 141.65 49.3739 135.361 49.3739 127.602C49.3739 120.961 44.7894 115.436 38.618 113.966Z" stroke="#00AE99" stroke-width="3" stroke-miterlimit="10"/>
<path d="M41.3216 89.5762H29.3314V94.9247H41.3216V89.5762Z" stroke="#00AE99" stroke-width="3" stroke-miterlimit="10"/>
<path d="M23.6302 119.728H46.9641" stroke="#00AE99" stroke-width="3" stroke-miterlimit="10"/>
<path d="M114.673 147.94C132.527 147.94 147 133.467 147 115.614C147 97.7605 132.527 83.2874 114.673 83.2874C96.82 83.2874 82.3469 97.7605 82.3469 115.614C82.3469 133.467 96.82 147.94 114.673 147.94Z" stroke="#00AE99" stroke-width="3" stroke-miterlimit="10"/>
<path d="M114.5 94L95 120.253H114.5L114.554 137L134 110.693H114.5V94Z" stroke="#00AE99" stroke-width="3" stroke-miterlimit="10"/>
</svg>
