<svg width="249" height="251" viewBox="0 0 152 152" fill="none" xmlns="http://www.w3.org/2000/svg"><path d="M192 112c30.376 0 55-24.624 55-55S222.376 2 192 2s-55 24.624-55 55 24.624 55 55 55z" stroke="#00AE99" stroke-width="3" stroke-miterlimit="10"/><path d="M206.4 15.3v13.6H220" stroke="#00AE99" stroke-width="3" stroke-miterlimit="10"/><path d="M220 28.9v42h-37.3V15.3h23.7L220 28.9zM177.6 98.7V85.1H164" stroke="#00AE99" stroke-width="3" stroke-miterlimit="10"/><path d="M164 85.1v-42h37.3v55.6h-23.7L164 85.1zM57 113.6c30.376 0 55-24.624 55-55s-24.624-55-55-55-55 24.624-55 55 24.624 55 55 55z" stroke="#00AE99" stroke-width="3" stroke-miterlimit="10"/><path d="M57 102.6c24.3 0 44-19.7 44-44s-19.7-44-44-44-44 19.7-44 44 19.7 44 44 44z" stroke="#00AE99" stroke-width="3" stroke-miterlimit="10"/><path d="M45.4 76.2v1.5h26.7v-9.9h-7.8V36.3h-9.461l-.381.259-8.4 5.7-.658.446V54.63l2.342-1.589 6.058-4.11V67.8h-8.4V76.2z" stroke="#00AE99" stroke-width="3"/><path d="M13 58.3c9.1-1.5 16.1-9.3 16.1-18.9 0-4.3-1.4-8.2-3.8-11.4-7.5 7.9-12.2 18.6-12.3 30.3zM13 58.9c.1 11.8 4.8 22.4 12.3 30.3 2.4-3.2 3.8-7.1 3.8-11.4 0-9.6-7-17.5-16.1-18.9zM101 58.3c-9.1-1.5-16.1-9.3-16.1-18.9 0-4.3 1.4-8.2 3.8-11.4 7.5 7.9 12.2 18.6 12.3 30.3zM101 58.9c-.1 11.8-4.8 22.4-12.3 30.3-2.4-3.2-3.8-7.1-3.8-11.4 0-9.6 7-17.5 16.1-18.9zM57 248.6c30.376 0 55-24.624 55-55s-24.624-55-55-55-55 24.624-55 55 24.624 55 55 55z" stroke="#00AE99" stroke-width="3" stroke-miterlimit="10"/><path d="M57 248.6c30.376 0 55-24.624 55-55s-24.624-55-55-55-55 24.624-55 55 24.624 55 55 55z" stroke="#00AE99" stroke-width="3" stroke-miterlimit="10"/><path d="M62.6 190.8v-32.3h4.6v-9.1H46.8v9.1h4.6v32.3c-10.5 2.5-18.3 12-18.3 23.2 0 13.2 10.7 23.9 23.9 23.9s23.9-10.7 23.9-23.9c0-11.3-7.8-20.7-18.3-23.2z" stroke="#00AE99" stroke-width="3" stroke-miterlimit="10"/><path d="M67.2 149.3H46.8v9.1h20.4v-9.1zM37.1 200.6h39.7M192 248.6c30.376 0 55-24.624 55-55s-24.624-55-55-55-55 24.624-55 55 24.624 55 55 55z" stroke="#00AE99" stroke-width="3" stroke-miterlimit="10"/><path d="M192 149.6l-36.4 52.9H192l.1 35.1 36.3-53H192v-35z" stroke="#00AE99" stroke-width="3" stroke-miterlimit="10" stroke-linejoin="round"/></svg>