<svg width="70" height="55" viewBox="0 0 70 55" fill="none" xmlns="http://www.w3.org/2000/svg">
<path d="M44.2922 11.0005C44.2962 10.9978 44.299 10.9951 44.303 10.9924C43.188 10.5459 41.9506 10.3193 40.5868 10.3193C37.1329 10.3193 34.5249 11.6898 32.7657 14.4281H32.4698C32.5599 13.2896 32.6272 12.3008 32.6769 11.4456C32.2358 11.4793 31.7933 11.4996 31.3495 11.4996C30.0798 11.4996 28.8007 11.3606 27.5297 11.0787C26.0812 10.7577 24.7012 10.2626 23.4087 9.61108L24.4685 26.3337C27.3535 27.1592 30.3878 26.6115 32.7738 24.9996C32.7711 24.8566 32.7657 24.7203 32.7657 24.5733V23.7572C32.798 21.1174 33.2419 19.2248 34.0972 18.0783C34.9527 16.9303 36.3097 16.3584 38.1699 16.3584C38.954 16.3584 39.6574 16.5243 40.2801 16.8548C40.9916 14.5522 42.385 12.4964 44.2922 11.0005Z" fill="white"/>
<path d="M27.9314 9.26574C29.5387 9.62185 31.1634 9.72033 32.7586 9.57464C32.7626 9.35342 32.7667 9.14299 32.7667 8.95818V-9.39018e-08H22.8017L23.2711 7.41367C24.6968 8.26619 26.2623 8.89613 27.9314 9.26574Z" fill="white"/>
<path d="M48.2361 14.1434C47.608 13.2747 46.8951 12.5571 46.1029 11.9851C43.9079 13.4285 42.3746 15.6919 41.8232 18.2387C41.8635 18.294 41.9052 18.3426 41.9442 18.3992C42.8656 19.7603 43.3269 21.8026 43.3269 24.5247C43.3269 27.2455 42.8696 29.3214 41.9564 30.7473C41.0444 32.1744 39.8138 32.888 38.2684 32.888C36.3599 32.888 34.9651 32.2445 34.0855 30.9577C33.4803 30.0728 33.0889 28.7778 32.8993 27.0944C31.1588 28.0548 29.1911 28.5741 27.1817 28.5741C26.3209 28.5741 25.4521 28.4757 24.5927 28.2801L25.2409 38.5062H30.9894L32.2469 35.4617H32.7661C34.6087 37.821 37.1494 38.9999 40.3908 38.9999C43.6631 38.9999 46.2509 37.7468 48.15 35.2392C50.0505 32.7315 51 29.1933 51 24.6231C51 20.1852 50.0787 16.6915 48.2361 14.1434Z" fill="white"/>
<path d="M11.4923 11.5399C14.6059 11.5426 17.5366 10.7386 20.3234 9.40857C21.2568 8.96208 22.1042 8.33078 22.9918 7.78447C23.3308 7.57539 23.4195 7.28402 23.3873 6.88609C23.1734 4.32179 21.8486 2.37799 20.0019 0.720171C19.928 0.652725 19.811 0.631142 19.6724 0.569092C19.663 0.729613 19.6375 0.832131 19.6563 0.923857C19.9293 2.30245 20.2992 3.64463 21.1264 4.81415C21.2434 4.98276 21.3039 5.19184 21.3913 5.38069L21.2851 5.46567C18.3059 3.95353 15.1519 3.51379 11.8917 3.71612C11.8742 3.80785 11.8567 3.89958 11.8393 3.9913C13.1116 4.58888 14.3624 5.24175 15.6631 5.76514C16.9609 6.28852 18.31 6.68105 19.6361 7.13159C15.5904 7.36496 11.9133 8.39688 9 11.432C9.83793 11.5196 10.6651 11.5385 11.4923 11.5399Z" fill="white"/>
<path d="M25.6998 43.0121C25.6998 44.114 25.6998 45.2159 25.6998 46.4026C26.3626 45.6155 27.1068 45.3007 28.0254 45.5187C28.7463 45.6882 29.2347 46.1362 29.5254 46.8264C30.0487 48.11 30.072 49.4299 29.5952 50.7134C28.9905 52.3724 27.1766 52.7962 25.8975 51.6216C25.8393 51.5732 25.7812 51.5247 25.7114 51.4642C25.4091 51.6337 25.5021 52.1665 25.0719 52.1665C24.7463 52.1544 24.4207 52.2149 24.1067 52.1302C23.9207 51.9243 24.0021 51.6942 24.0021 51.4763C24.0021 48.8729 24.0021 46.2694 24.0021 43.666C24.0021 43.448 23.9788 43.2301 23.9788 43C24.537 43.0121 25.1184 43.0121 25.6998 43.0121ZM28.1417 48.8729C28.1766 48.4248 28.1068 47.9889 27.9208 47.5772C27.7114 47.0807 27.3161 46.8385 26.8161 46.8991C26.3044 46.9596 25.9556 47.2624 25.8277 47.7709C25.6649 48.4612 25.6765 49.1635 25.8277 49.8537C25.9556 50.4107 26.3161 50.7497 26.8161 50.774C27.3975 50.8103 27.758 50.5681 27.9673 49.9869C28.0952 49.6357 28.1649 49.2603 28.1417 48.8729Z" fill="white"/>
<path d="M1.74422 43.0122C1.6977 44.1141 1.80236 45.2282 1.65119 46.3301C1.83724 46.3422 1.88375 46.1848 1.97678 46.1C3.00005 45.0707 4.6745 45.2766 5.36056 46.5722C6.11639 48.0011 6.12802 49.5268 5.45358 50.9799C4.79078 52.433 3.10471 52.7115 1.93027 51.6459C1.8605 51.5854 1.79073 51.5006 1.68608 51.4885C1.65119 51.5006 1.59305 51.5127 1.59305 51.5369C1.46514 52.0576 1.12793 52.215 0.639546 52.1303C0.43024 52.0939 0.209306 52.1061 0 52.0939C0 49.0667 0 46.0395 0 43.0122C0.581406 43.0122 1.16281 43.0122 1.74422 43.0122ZM1.73259 48.8124C1.72096 49.2604 1.73259 49.6964 1.90701 50.1202C2.08143 50.5561 2.39539 50.7741 2.84889 50.7862C3.30238 50.8104 3.65123 50.653 3.8489 50.2171C4.23263 49.3452 4.20938 48.4491 3.90705 47.5773C3.74425 47.1172 3.29076 46.8629 2.83726 46.8871C2.32562 46.9113 2.01166 47.2019 1.82561 47.7347C1.72096 48.0859 1.74422 48.4491 1.73259 48.8124Z" fill="white"/>
<path d="M64.0688 54.9999C64.0688 54.6608 64.0688 54.3218 64.0688 53.9827C64.3247 53.8374 64.5572 53.9222 64.7782 53.9101C65.2433 53.8859 65.6154 53.7042 65.8479 53.2925C66.1735 52.7234 66.3945 52.1664 66.0805 51.4398C65.3712 49.7688 64.7549 48.0493 64.1037 46.3541C64.0223 46.1482 63.8944 45.9666 63.9642 45.7002C64.3828 45.6154 64.8014 45.6639 65.2898 45.676C65.8363 47.2986 66.4526 48.9091 66.941 50.5922C67.1503 50.3985 67.1154 50.1321 67.1852 49.9141C67.6154 48.6427 68.034 47.3712 68.441 46.0877C68.5457 45.7728 68.6736 45.6154 69.0108 45.6396C69.3364 45.676 69.6736 45.6517 69.9992 45.6517C69.9992 45.7365 69.9992 45.8092 69.9992 45.8939C69.8945 45.9424 69.8945 46.0513 69.8596 46.1361C69.1038 48.2188 68.3131 50.2895 67.5922 52.3843C67.2201 53.4741 66.7433 54.4429 65.6968 54.9757C65.1503 54.9999 64.6154 54.9999 64.0688 54.9999Z" fill="white"/>
<path d="M56.6293 43.0122C56.6293 46.0273 56.6293 49.0425 56.6293 52.0939C56.1991 52.1545 55.827 52.1303 55.3502 52.1061C55.3502 49.0788 55.3502 46.0516 55.3502 43.0243C55.7805 43.0122 56.1991 43.0122 56.6293 43.0122Z" fill="white"/>
<path d="M14.9528 46.3544C15.9761 45.1798 17.7203 45.0829 18.8482 46.4391C19.2436 45.9064 19.7436 45.5915 20.3831 45.4704C21.8483 45.2161 22.8832 46.0517 22.9064 47.5895C22.9297 48.9578 22.918 50.3261 22.918 51.7066C22.918 51.8276 22.9413 51.9487 22.825 52.0819C22.325 52.0819 21.7901 52.0819 21.2669 52.0819C21.1273 51.8761 21.1855 51.6702 21.1855 51.4644C21.1738 50.3503 21.1855 49.2484 21.1738 48.1344C21.1622 47.2989 20.8715 46.9114 20.2901 46.8751C19.6622 46.8387 19.1505 47.311 19.0691 48.0618C18.9761 48.9094 19.0343 49.757 19.0226 50.6046C19.0226 51.089 19.0226 51.5612 19.0226 52.0819C18.418 52.1062 17.8947 52.1183 17.29 52.0698C17.29 51.7792 17.3017 51.5249 17.29 51.2585C17.2552 50.1082 17.3714 48.9578 17.2203 47.8196C17.1389 47.2504 16.9063 46.9598 16.4644 46.8751C15.9877 46.7903 15.5342 47.0325 15.3133 47.5047C15.1505 47.8559 15.0923 48.2313 15.0923 48.6188C15.0923 49.7449 15.0923 50.871 15.0923 52.0335C14.4993 52.1425 13.9644 52.094 13.383 52.0698C13.383 49.9023 13.383 47.7711 13.383 45.6157C13.7086 45.4704 14.0574 45.5552 14.3946 45.5552C14.9179 45.5673 14.6853 46.1606 14.9528 46.3544Z" fill="white"/>
<path d="M10.5367 48.1098C10.6065 47.0805 10.2111 46.6809 9.35062 46.7899C8.83898 46.8504 8.33897 47.0199 7.83896 47.25C7.6064 46.8746 7.43198 46.5114 7.30407 46.1118C7.46686 45.8212 7.76919 45.7969 8.01338 45.7122C8.83898 45.4458 9.6762 45.3368 10.5251 45.5305C11.653 45.7969 12.2344 46.3903 12.2925 47.5891C12.3507 49.0785 12.3042 50.5679 12.3042 52.0573C11.9437 52.251 11.5948 52.1905 11.2576 52.142C10.8506 52.0815 10.9902 51.5608 10.7227 51.3671C10.6065 51.355 10.5483 51.4518 10.4785 51.5245C9.7576 52.3237 8.83898 52.3963 7.90873 52.1663C7.11802 51.9725 6.76917 51.3186 6.66452 50.5194C6.54824 49.6476 6.8622 48.9332 7.50175 48.5578C8.03664 48.243 8.62967 48.1461 9.22271 48.1098C9.65295 48.0855 10.0716 48.1098 10.5367 48.1098ZM10.5134 49.0785C10.025 49.1753 9.55992 49.1148 9.10643 49.2722C8.54828 49.466 8.33897 49.8777 8.46688 50.4468C8.5599 50.8585 8.97852 51.0522 9.51341 50.9311C10.3506 50.7495 10.6646 50.2046 10.5134 49.0785Z" fill="white"/>
<path d="M33.7683 52.2389C32.0124 52.3358 30.8147 51.0522 30.7101 49.1874C30.6868 48.7515 30.7101 48.3156 30.7915 47.8676C31.1636 45.8817 32.8148 45.2762 34.2683 45.4942C36.3381 45.809 36.9079 47.6133 36.8148 49.1874C36.78 49.7929 36.6404 50.3741 36.3265 50.9069C35.8148 51.7909 34.9776 52.2389 33.7683 52.2389ZM35.0241 48.8847C35.0241 48.4609 35.0357 48.0371 34.8729 47.6375C34.6636 47.141 34.2799 46.9231 33.7799 46.8989C33.2683 46.8746 32.8613 47.1168 32.6752 47.6012C32.3496 48.4125 32.3729 49.248 32.6636 50.0714C32.8613 50.6284 33.2101 50.8222 33.8613 50.7858C34.4195 50.7616 34.6985 50.5437 34.8962 49.9987C35.0241 49.6476 35.0241 49.2601 35.0241 48.8847Z" fill="white"/>
<path d="M40.6856 52.2391C39.0344 52.3238 37.7669 51.1371 37.6506 49.3087C37.5925 48.3884 37.639 47.4923 38.1623 46.7053C38.8832 45.6154 39.953 45.349 41.1275 45.4822C42.3833 45.6276 43.2205 46.3662 43.581 47.6376C43.8135 48.4611 43.8135 49.3208 43.581 50.1442C43.2089 51.4278 42.2205 52.2996 40.6856 52.2391ZM41.9647 48.8243C41.9996 48.5216 41.9414 48.2068 41.86 47.8919C41.6856 47.238 41.3368 46.9353 40.7088 46.899C40.1158 46.8748 39.7088 47.1291 39.5228 47.7466C39.3018 48.4974 39.3135 49.2602 39.5344 49.9989C39.6972 50.5559 40.1158 50.8223 40.6856 50.8223C41.2437 50.8223 41.6391 50.5317 41.8135 49.9626C41.9298 49.6114 42.0112 49.236 41.9647 48.8243Z" fill="white"/>
<path d="M54.5122 49.1998C53.1052 49.1998 51.768 49.1998 50.4424 49.1998C50.3377 50.3381 50.9656 51.0888 52.0122 51.1373C52.7331 51.1736 53.4308 51.0525 54.082 50.7498C54.1401 50.8103 54.1866 50.8467 54.1866 50.8709C54.2099 51.9849 54.3843 51.8638 53.2796 52.1544C52.5936 52.3361 51.8494 52.324 51.1401 52.1544C50.0703 51.888 49.3842 51.1494 49.1168 50.0475C48.8958 49.1514 48.9424 48.2432 49.2447 47.3714C49.7098 46.0152 50.9191 45.3371 52.4308 45.5671C53.5703 45.7367 54.4076 46.7296 54.5238 48.0495C54.5471 48.4006 54.5122 48.7639 54.5122 49.1998ZM53.1982 48.1948C53.0587 46.9355 52.5936 46.4995 51.5703 46.6327C50.861 46.7175 50.3959 47.3956 50.5122 48.1948C51.3959 48.1948 52.2796 48.1948 53.1982 48.1948Z" fill="white"/>
<path d="M58.9435 46.9957C58.7458 46.7656 58.6876 46.4387 58.5597 46.1481C58.99 45.809 59.4551 45.7121 59.9319 45.6274C60.583 45.5063 61.2458 45.4942 61.8854 45.7C62.6296 45.9422 63.1063 46.4871 63.1296 47.2742C63.1877 48.8605 63.1412 50.4468 63.1412 52.033C62.3156 52.2389 62.3156 52.2389 61.9551 51.3307C61.8621 51.3065 61.8156 51.367 61.7691 51.4276C61.083 52.3358 60.1295 52.3358 59.176 52.1783C58.5248 52.0694 58.0132 51.4276 57.9202 50.7495C57.7923 49.7686 58.0597 49.0784 58.769 48.6788C59.2807 48.3761 59.8505 48.2429 60.4319 48.2308C60.897 48.2187 61.3505 48.2308 61.7923 48.2308C61.9668 47.0562 61.6063 46.6203 60.5946 46.6203C60.2225 46.6203 59.8737 46.693 59.5249 46.8383C59.3388 46.9109 59.176 47.0441 58.9435 46.9957ZM61.8272 49.0663C61.1412 49.0542 60.5016 49.03 59.897 49.2964C59.3853 49.5144 59.1993 49.9261 59.2923 50.5194C59.3621 50.9432 59.7109 51.2096 60.2458 51.2096C60.5714 51.2096 60.897 51.137 61.1877 50.9432C61.8389 50.5073 61.897 49.8534 61.8272 49.0663Z" fill="white"/>
<path d="M46.1743 52.0816C45.7208 52.1301 45.3371 52.1301 44.9185 52.0816C44.9185 49.9626 44.9185 47.8556 44.9185 45.7244C45.2092 45.5912 45.5347 45.6639 45.872 45.6881C45.9417 46.0393 46.0115 46.3662 46.0813 46.7416C46.4417 46.3904 46.6976 45.9666 47.1511 45.7486C47.6162 45.5307 48.0697 45.5186 48.6046 45.5912C48.6627 46.0272 48.6046 46.4267 48.5813 46.8142C48.2906 46.9353 48.0813 46.7779 47.8371 46.8142C46.7906 46.9595 46.2092 47.6255 46.1859 48.7759C46.1743 49.6598 46.1859 50.5438 46.1859 51.4399C46.1743 51.6215 46.1743 51.8274 46.1743 52.0816Z" fill="white"/>
</svg>
