<svg width="56" height="57" viewBox="0 0 56 57" fill="none" xmlns="http://www.w3.org/2000/svg">
<path d="M45.9154 25.5331C40.1112 25.5331 34.2797 25.5331 28.2302 25.5331C28.2302 29.7282 28.2302 33.7069 28.2302 37.6585C23.2979 38.281 14.7414 34.9519 10.9537 27.0487C7.1932 19.1727 9.50944 9.34786 16.4309 4.01594C23.5432 -1.47838 33.6802 -1.37011 40.6562 4.55725C46.9509 9.8621 48.9129 18.9832 45.9154 25.5331ZM16.5672 18.5772C24.3607 18.5772 31.9907 18.5772 39.8114 18.5772C39.6479 14.7068 38.0402 11.7296 35.0699 9.61851C31.1732 6.83076 26.9494 6.50597 22.6712 8.83361C18.8562 10.8635 16.9759 14.1655 16.5672 18.5772Z" fill="white"/>
<path d="M8.85624 52.382H2.86125C3.13375 53.3564 3.84225 53.8977 4.82324 53.8977C5.55899 53.8977 6.26749 53.6 6.83974 53.0316L8.31124 54.4931C7.43924 55.4675 6.13124 56.0088 4.55074 56.0088C1.71675 56.0088 0 54.2766 0 51.6783C0 49.0259 1.7985 47.2666 4.49624 47.2666C7.52099 47.2396 9.04699 49.2424 8.85624 52.382ZM6.10399 50.8663C6.10399 49.892 5.47724 49.2153 4.49624 49.2153C3.56975 49.2153 2.97025 49.892 2.7795 50.8663H6.10399Z" fill="white"/>
<path d="M24.9048 50.4874V55.8734H22.0708V51.2723C22.0708 50.2979 21.5258 49.7025 20.6538 49.7025C19.6456 49.7296 19.0188 50.5145 19.0188 51.6241V55.8464H16.1848V51.2452C16.1848 50.2709 15.6398 49.6754 14.7678 49.6754C13.7596 49.7025 13.1328 50.4874 13.1328 51.5971V55.8193H10.2988V47.2666H13.1328V48.674C13.7323 47.6726 14.6861 47.1583 15.9396 47.1583C17.3293 47.1583 18.3921 47.862 18.8008 49.08C19.3458 47.8079 20.4086 47.1583 21.8256 47.1583C23.6786 47.2125 24.9048 48.4845 24.9048 50.4874Z" fill="white"/>
<path d="M35.5633 51.5971C35.5633 54.2495 33.683 55.9817 30.849 55.9817C28.015 55.9817 26.1348 54.2495 26.1348 51.5971C26.1348 48.9717 27.9878 47.2395 30.849 47.2395C33.7103 47.2395 35.5633 48.9717 35.5633 51.5971ZM28.996 51.6512C28.996 52.9233 29.759 53.7894 30.849 53.7894C31.9663 53.7894 32.702 52.9233 32.702 51.6512C32.702 50.3791 31.9663 49.5401 30.849 49.5401C29.759 49.513 28.996 50.3791 28.996 51.6512Z" fill="white"/>
<path d="M45.7254 51.5971C45.7254 54.2495 43.8451 55.9817 41.0111 55.9817C38.1771 55.9817 36.2969 54.2495 36.2969 51.5971C36.2969 48.9717 38.1499 47.2395 41.0111 47.2395C43.8724 47.2395 45.7254 48.9717 45.7254 51.5971ZM39.1581 51.6512C39.1581 52.9233 39.9211 53.7894 41.0111 53.7894C42.1284 53.7894 42.8641 52.9233 42.8641 51.6512C42.8641 50.3791 42.1284 49.5401 41.0111 49.5401C39.9211 49.513 39.1581 50.3791 39.1581 51.6512Z" fill="white"/>
<path d="M56.0009 50.4874V55.8734H53.1669V51.2723C53.1669 50.2979 52.5946 49.7025 51.6954 49.7025C50.7416 49.7296 50.1149 50.3791 50.0059 51.3264V55.8464H47.1719V47.2937H50.0059V48.674C50.6054 47.6996 51.6136 47.1583 52.8671 47.1583C54.7474 47.2125 56.0009 48.4845 56.0009 50.4874Z" fill="white"/>
</svg>
