<svg width="33" height="48" viewBox="0 0 33 48" fill="none" xmlns="http://www.w3.org/2000/svg">
<path fill-rule="evenodd" clip-rule="evenodd" d="M2.16152 21.0377C2.1613 23.4544 2.16546 25.8711 2.1567 28.288C2.15538 28.6091 2.30283 29.0977 1.96829 29.202C1.56255 29.3284 1.20567 28.9928 0.973885 28.6151C0.501547 27.8461 0.13415 27.0646 0.138093 26.1145C0.159563 20.8668 0.138312 15.619 0.1554 10.3711C0.159344 9.16291 0.21981 9.12677 1.28695 9.63525C5.56493 11.6742 9.8278 13.7439 14.1045 15.7853C14.8239 16.1288 15.429 16.5203 15.5061 17.4008C15.5692 18.1211 15.2474 18.4863 14.5404 18.2975C14.0173 18.1577 13.53 17.8755 13.0349 17.6398C9.74783 16.0747 6.45308 14.5253 3.18462 12.9226C2.34314 12.5098 2.1326 12.6693 2.14772 13.5807C2.18847 16.0659 2.16152 18.552 2.16152 21.0377" fill="white"/>
<mask id="mask0" mask-type="alpha" maskUnits="userSpaceOnUse" x="17" y="9" width="16" height="27">
<path fill-rule="evenodd" clip-rule="evenodd" d="M17.5312 9.59204H32.9286V35.2771H17.5312V9.59204Z" fill="white"/>
</mask>
<g mask="url(#mask0)">
<path fill-rule="evenodd" clip-rule="evenodd" d="M17.5488 25.3121C17.5488 22.8275 17.5799 20.3425 17.5324 17.859C17.5151 16.9481 17.689 16.3417 18.6181 15.9169C22.8626 13.9771 27.0738 11.964 31.2972 9.97869C31.7776 9.75281 32.3431 9.27566 32.7512 9.90486C33.1142 10.4646 32.8827 11.0857 32.3961 11.5826C31.9457 12.0431 31.3539 12.2411 30.8019 12.5062C27.5847 14.0499 24.3806 15.6233 21.1266 17.0859C19.8779 17.6472 19.4552 18.3837 19.4885 19.7705C19.5935 24.1157 19.5273 28.4653 19.5269 32.813C19.5269 33.2961 19.5433 33.7802 19.5157 34.262C19.4861 34.7762 19.3181 35.2231 18.7066 35.2735C18.0888 35.3243 17.8479 34.8237 17.6991 34.3967C17.5462 33.9579 17.5569 33.4503 17.5547 32.9727C17.5427 30.4193 17.549 27.8655 17.5488 25.3121" fill="white"/>
</g>
<path fill-rule="evenodd" clip-rule="evenodd" d="M31.5424 7.52054C31.5145 7.78979 31.3307 7.86997 31.1704 7.99616C30.3475 8.64508 29.6074 8.1872 28.8704 7.83689C25.6554 6.30837 22.4468 4.7667 19.234 3.23379C18.7406 2.99828 18.2135 2.82477 17.7442 2.55092C16.8795 2.04616 16.1101 2.17651 15.236 2.60963C11.9848 4.22119 8.70081 5.76702 5.42491 7.32841C4.74598 7.65221 4.0493 7.9392 3.35876 8.23825C2.94776 8.41658 2.49054 8.46324 2.28658 8.01237C2.08546 7.56764 2.09423 7.05959 2.6347 6.76033C2.87547 6.62713 3.10594 6.47334 3.35394 6.35635C7.5031 4.39974 11.6597 2.45891 15.7992 0.482144C16.4076 0.191644 16.8819 0.174774 17.5087 0.481487C21.8126 2.58751 26.1438 4.6381 30.4577 6.72396C30.8641 6.92048 31.3794 7.02432 31.5424 7.52054" fill="white"/>
<path fill-rule="evenodd" clip-rule="evenodd" d="M22.7216 31.8144C22.4408 31.7018 22.2732 31.4792 22.2309 31.1979C22.1091 30.3845 22.2666 29.6725 23.0855 29.2807C25.998 27.8867 28.9054 26.482 31.8349 25.1252C32.5575 24.7907 33.0103 25.2308 32.8745 26.0445C32.7674 26.6879 32.4532 27.1876 31.8363 27.4808C28.9196 28.8651 26.0072 30.2585 23.093 31.6481C22.9705 31.7068 22.8452 31.7599 22.7216 31.8144" fill="white"/>
<path fill-rule="evenodd" clip-rule="evenodd" d="M25.3483 10.558C25.2596 10.6741 25.1682 10.8647 25.0184 10.978C24.4579 11.4008 23.8897 11.2926 23.276 11.0323C20.2472 9.74786 17.3273 8.23905 14.3851 6.77538C14.1441 6.65576 13.8244 6.5942 13.8481 6.25374C13.8759 5.85392 14.2457 5.70823 14.5408 5.58007C14.9992 5.38159 15.4555 5.45016 15.9252 5.67756C18.8206 7.07902 21.7311 8.44915 24.6271 9.84973C24.9077 9.98534 25.3097 10.0528 25.3483 10.558" fill="white"/>
<path fill-rule="evenodd" clip-rule="evenodd" d="M7.66389 9.32442C7.61438 8.98528 7.81111 8.88451 7.98747 8.79403C8.5297 8.51645 9.00882 8.23274 9.70572 8.57911C12.5794 10.0066 15.4932 11.3533 18.3824 12.75C18.7121 12.9092 19.278 12.9982 19.0979 13.5603C18.9652 13.9753 18.5588 14.1871 18.1112 14.1615C17.7771 14.1422 17.4173 14.1052 17.1214 13.9656C14.0959 12.5368 11.08 11.0874 8.06546 9.63573C7.89896 9.55555 7.76598 9.40526 7.66389 9.32442" fill="white"/>
<path fill-rule="evenodd" clip-rule="evenodd" d="M10.4641 44.7585C10.4641 44.1654 10.4604 43.5722 10.4669 42.9791C10.4685 42.8461 10.4249 42.7688 10.3092 42.7046C10.0297 42.5497 9.73455 42.4448 9.42192 42.3834C9.07468 42.3151 8.7213 42.2791 8.37801 42.3609C7.75757 42.5083 7.2653 42.8483 6.95595 43.421C6.63281 44.0189 6.55285 44.6586 6.63062 45.3268C6.70335 45.9525 6.92068 46.5056 7.39609 46.9396C7.87675 47.3785 8.45118 47.5152 9.07556 47.4245C9.54483 47.3561 9.95451 47.1353 10.318 46.8253C10.4264 46.733 10.4685 46.6423 10.4669 46.5032C10.4604 45.9218 10.4641 45.3401 10.4641 44.7585M10.445 42.2412C10.4779 42.1709 10.4641 42.1008 10.4641 42.0329C10.4652 41.1277 10.4687 40.2226 10.4608 39.3176C10.4597 39.1743 10.5024 39.1034 10.6387 39.0795C10.7439 39.0611 10.8378 38.9868 10.9621 39.012V47.7669C10.8004 47.7873 10.6426 47.7816 10.4779 47.7706C10.4409 47.6019 10.4895 47.4332 10.4483 47.2746C10.3703 47.2547 10.3331 47.3079 10.2901 47.3408C9.83423 47.6904 9.32115 47.9032 8.74606 47.9056C7.95365 47.9093 7.27165 47.6348 6.7544 47.0111C6.30616 46.4706 6.11578 45.8353 6.07722 45.1467C6.04392 44.5523 6.11841 43.9733 6.37561 43.4302C6.79931 42.5361 7.49423 42.0033 8.4836 41.8743C9.13164 41.7897 9.74156 41.9192 10.3208 42.2123C10.3552 42.2296 10.3865 42.2621 10.445 42.2412" fill="white"/>
<path fill-rule="evenodd" clip-rule="evenodd" d="M13.9915 39.773C14.0598 39.747 14.1181 39.7544 14.1753 39.7544C15.5701 39.754 16.9648 39.754 18.3595 39.7542C18.5547 39.7542 18.5562 39.7548 18.5547 39.9542C18.554 40.0458 18.5667 40.1387 18.5418 40.2296C18.4819 40.2646 18.4169 40.2478 18.3551 40.2478C17.1449 40.2489 15.9345 40.2486 14.7243 40.2486C14.5216 40.2486 14.5218 40.2491 14.5218 40.4577C14.5218 41.4258 14.5218 42.3941 14.5216 43.3624C14.5216 43.527 14.5216 43.5274 14.6921 43.5274C15.6891 43.5276 16.6861 43.5274 17.6832 43.5276C17.8858 43.5276 17.8858 43.5281 17.8856 43.7362C17.8856 43.8216 17.8856 43.9066 17.8856 43.9798C17.8335 44.03 17.7848 44.0118 17.741 44.0118C16.7324 44.0129 15.7237 44.0124 14.7151 44.0127C14.5216 44.0127 14.5218 44.0131 14.5218 44.2118C14.5218 45.1801 14.5216 46.1483 14.5225 47.1166C14.5225 47.167 14.5076 47.22 14.5446 47.2853H18.5332C18.5713 47.4511 18.5549 47.6025 18.5457 47.7653H13.9915V39.773Z" fill="white"/>
<path fill-rule="evenodd" clip-rule="evenodd" d="M20.6225 39.7707C20.8164 39.7411 20.9831 39.7597 21.1489 39.7547C21.235 39.752 21.2644 39.8219 21.3027 39.8765C21.6811 40.4132 22.0579 40.9506 22.4354 41.4878C22.8323 42.0533 23.2298 42.6185 23.6267 43.1839C23.6532 43.2216 23.6754 43.2624 23.7214 43.2856C23.7959 43.2464 23.8292 43.1695 23.8743 43.1053C24.6264 42.0359 25.3781 40.9664 26.1251 39.8938C26.2428 39.7271 26.2666 39.7562 26.3922 39.7518C26.5499 39.7463 26.6875 39.7463 26.8198 39.7463C26.7738 39.8302 26.7526 39.8727 26.7219 39.9155C25.8697 41.097 25.0161 42.2774 24.1639 43.4591C24.0088 43.6742 24.0046 43.6085 24.1694 43.8361C25.074 45.0864 25.9814 46.3345 26.8871 47.5842C26.9237 47.6348 26.9721 47.6784 26.9968 47.7743C26.7981 47.7743 26.6071 47.7791 26.4167 47.7697C26.3852 47.7682 26.3532 47.7077 26.3269 47.6705C25.5531 46.5814 24.7804 45.4919 24.0071 44.4027C23.9111 44.2675 23.814 44.1336 23.7205 44.0033C23.6397 44.0173 23.6215 44.0784 23.5897 44.1236C22.76 45.2998 21.9299 46.4758 21.104 47.6549C21.0403 47.7461 20.9756 47.7866 20.8641 47.7787C20.7226 47.7686 20.5795 47.7763 20.4211 47.7763C20.4389 47.6884 20.4891 47.64 20.527 47.5874C21.4258 46.3472 22.3267 45.1083 23.2245 43.8675C23.4263 43.5888 23.4116 43.6801 23.2262 43.4199C22.404 42.2664 21.5779 41.1156 20.7537 39.9637C20.7138 39.9078 20.6766 39.8502 20.6225 39.7707" fill="white"/>
</svg>
