<svg width="64" height="56" viewBox="0 0 64 56" fill="none" xmlns="http://www.w3.org/2000/svg">
<path d="M49.6638 13.9894C49.7509 13.7863 49.7654 13.5106 49.6929 13.3075C49.3011 12.1903 48.8948 11.0875 48.4741 9.98483C48.4015 9.7962 48.2564 9.56405 48.0823 9.50602C46.7765 9.0127 45.4706 8.54839 44.1503 8.06958C43.7585 7.92449 43.1491 7.44568 42.975 6.90883C42.4382 5.24024 41.9884 4.05047 41.437 2.38189C41.3209 2.01915 41.1033 1.83053 40.7551 1.71446C39.6669 1.3227 38.5641 0.945456 37.4904 0.510173C36.9536 0.292532 36.4893 0.33606 35.967 0.568211C34.7772 1.10506 33.5729 1.61289 32.3686 2.0917C32.122 2.19327 31.7447 2.17876 31.4981 2.07719C30.0036 1.45329 28.4946 0.800362 27.0001 0.118419C26.6229 -0.0556942 26.3327 -0.0266754 25.9845 0.132928C24.9253 0.59723 23.8516 1.03251 22.8069 1.52583C22.5748 1.6274 22.3571 1.87406 22.241 2.10621C21.5881 3.48461 20.9642 4.863 20.3693 6.2559C20.1952 6.67668 19.9486 6.90883 19.5278 7.06843C18.2655 7.53273 17.0177 8.05507 15.7408 8.51937C15.291 8.67898 15.0154 8.92564 14.8412 9.37543C14.4495 10.3911 13.9852 11.3632 13.6079 12.3789C13.5064 12.6401 13.5064 12.9883 13.5934 13.264C14.0142 14.4392 14.493 15.6 14.9138 16.7897C15.0008 17.0364 15.0008 17.3556 14.9138 17.6023C14.2899 19.1548 13.637 20.7073 12.955 22.2598C12.8099 22.579 12.8244 22.8257 12.955 23.1449C13.4483 24.3492 13.9271 25.5679 14.3624 26.7867C14.493 27.164 14.7107 27.3526 15.0879 27.4977C16.5098 28.0491 17.9172 28.6294 19.3101 29.2388C19.5858 29.3549 19.847 29.6451 19.9631 29.9208C20.5725 31.4152 21.1383 32.9387 21.7042 34.4477C21.8493 34.8395 22.0814 35.0861 22.4732 35.2312C23.3583 35.5649 24.2143 35.9277 25.0849 36.3049C25.5347 36.4935 25.9555 36.5081 26.4052 36.3049C27.7111 35.7245 29.0169 35.1587 30.3373 34.6218C30.5695 34.5203 30.9177 34.4767 31.1353 34.5783C32.6733 35.2312 34.1823 35.9277 35.7058 36.6096C35.8944 36.6967 36.112 36.7547 36.2717 36.8127C36.4603 36.7547 36.6054 36.7402 36.736 36.6822C37.6936 36.2904 38.6512 35.8696 39.6088 35.4924C40.0151 35.3328 40.2763 35.0861 40.4504 34.6799C41.0017 33.3885 41.5966 32.1262 42.1335 30.8349C42.3076 30.4141 42.5542 30.1819 42.975 30.0223C44.484 29.4275 45.7898 28.8035 47.2988 28.2087C47.6761 28.0636 47.9517 27.8604 48.1113 27.4542C48.4741 26.5546 49.1125 25.684 49.4027 24.7699C49.5333 24.3492 49.5042 23.8123 49.3446 23.3915C48.9094 22.2163 48.387 21.07 47.8792 19.9238C47.647 19.4014 47.6325 18.9371 47.8647 18.4003C48.4886 16.9494 49.0835 15.4694 49.6638 13.9894ZM35.227 2.23679C35.8509 1.99013 36.3442 2.17876 36.9681 2.3964C37.7516 2.67208 38.5496 2.90423 39.3477 3.19442C39.5073 3.25245 39.6959 3.39755 39.7684 3.55715C40.0006 4.03596 40.3488 5.03711 40.3488 5.03711C40.3488 5.03711 41.1468 7.05392 41.1323 7.11196C40.8856 7.06843 38.0998 5.84964 36.9681 5.37083C36.823 5.31279 36.5909 5.31279 36.4313 5.38534C35.5027 5.82062 30.1777 7.90998 30.1777 7.90998C30.1777 7.90998 29.6844 8.62094 29.4087 9.07073C29.4087 9.07073 29.1185 9.62209 29.0024 9.9413C28.6542 10.8554 28.277 11.7695 27.9142 12.6691L26.3907 16.3109C25.6072 18.1681 24.7947 20.0253 24.0112 21.8971C23.9386 22.0857 23.8081 22.2453 23.7065 22.4194C23.6485 22.4049 23.6049 22.4049 23.5469 22.3904C23.4598 22.0276 23.4018 21.6504 23.2567 21.3167C23.0826 20.8814 22.8214 20.5042 22.6183 20.0834C22.2556 19.3289 21.8058 18.6324 22.212 17.6893C23.7936 13.9314 25.3461 10.1589 26.8695 6.37198C27.0872 5.83513 27.4064 5.51592 27.9432 5.29828C30.3373 4.36968 32.8329 3.20893 35.227 2.23679ZM30.0906 10.3911C32.4992 11.4067 34.8207 12.3789 37.1712 13.3655L35.7783 16.6882L28.6687 13.7283L29.9455 10.6523C30.0181 10.5652 30.0471 10.4781 30.0906 10.3911ZM34.7627 19.1548L34.3709 20.0834C34.2548 20.301 34.1388 20.5042 34.0952 20.7363L33.8776 21.2732L26.768 18.3132L28.1174 15.0921L35.227 18.0521L35.1544 18.2117C35.0238 18.5309 34.8933 18.8501 34.7627 19.1548ZM24.9253 22.7386L26.1731 19.7497C28.5381 20.7508 30.8451 21.7229 33.2247 22.7096C32.7459 23.8558 32.3106 24.886 31.8463 25.9887C31.6286 25.9307 31.3239 25.8872 31.0483 25.7711C29.2346 25.0021 27.4209 24.2041 25.6072 23.4206C25.1429 23.2319 24.9398 23.0433 24.9253 22.7386ZM19.847 11.2617C21.0077 8.72251 22.0669 6.12532 23.1551 3.54264C23.3873 2.97678 23.8806 2.78815 24.3739 2.61404C24.4755 2.58502 25.6798 1.88857 26.5649 1.71446C27.0292 1.6274 27.2178 1.85955 27.5515 1.99013C28.2479 2.28032 28.9299 2.58502 29.6118 2.88972C29.6989 2.91874 29.7569 2.99128 29.9601 3.13638C29.0605 3.52813 27.4354 4.21008 27.4354 4.21008C27.4354 4.21008 26.5358 4.60183 26.3472 4.81947C25.999 5.21123 25.5782 5.76258 25.4186 6.19787C24.1128 9.57856 22.6908 12.9157 21.3124 16.2674C21.2979 16.3109 21.2399 16.3254 21.1383 16.427C20.9497 16.0933 20.7611 15.7886 20.6015 15.4549C20.3548 14.918 20.0936 14.3667 19.905 13.8008C19.7744 13.4091 19.5568 12.7416 19.5133 12.3354C19.4697 11.9001 19.6293 11.7405 19.847 11.2617ZM15.262 12.9302C15.5087 12.495 16.031 11.5083 16.031 11.5083C16.031 11.5083 16.4518 10.4636 16.7275 10.0574C16.9306 9.75268 17.7141 9.53503 17.7141 9.53503C17.7141 9.53503 19.2086 8.88211 19.5423 8.63545C19.4262 8.96917 19.2666 9.43347 19.0925 9.89777C18.8458 10.5217 18.6137 11.1601 18.3235 11.7695C18.1349 12.1612 18.1784 12.4804 18.3525 12.8722C19.8035 16.3254 21.2399 19.7787 22.6763 23.2319C22.7344 23.377 22.7779 23.5511 22.8359 23.7398C22.241 23.8994 22.212 23.8413 21.3995 23.3915C21.2979 23.3335 19.4552 22.7096 18.6862 22.4049C18.5121 22.3323 18.3235 22.1002 18.309 21.9261C18.251 20.9975 17.7431 20.2575 17.3949 19.445C17.0757 18.6905 16.829 17.9215 16.5098 17.1815C16.0455 16.1368 15.7698 15.0341 15.32 13.9894C15.0879 13.5541 15.0444 13.293 15.262 12.9302ZM18.8168 27.2075C17.9898 26.8593 15.6247 25.9887 15.6247 25.9887L14.522 23.2755C14.4495 23.1013 14.464 22.8982 14.5656 22.7241C15.0008 21.9696 16.0455 19.5465 16.1906 19.3869C16.4663 19.9963 17.2643 22.0131 17.511 22.608C17.6851 23.0433 17.9608 23.3045 18.396 23.4931C21.7767 24.857 25.1429 26.2499 28.5091 27.6428C28.7268 27.7298 28.9154 27.8459 29.2781 28.0345C28.9009 28.1942 28.6687 28.3102 28.4366 28.3973C27.537 28.76 26.6519 29.1228 25.7523 29.5C25.23 29.7322 24.7512 29.6886 24.2143 29.4565C22.4297 28.6875 20.616 27.962 18.8168 27.2075ZM28.9299 33.2144C28.3205 33.4756 25.8394 34.5058 25.7233 34.4767C25.5492 34.4332 22.9665 33.7513 22.7489 33.5336C22.6618 33.4466 21.472 29.8627 21.1528 29.6451C21.1964 29.5725 22.4732 30.1384 22.5022 30.0659C23.2277 30.3561 23.9677 30.6317 24.6786 30.9655C25.0994 31.1686 25.4621 31.1831 25.9119 30.98C27.8127 30.1384 29.7279 29.3404 31.6431 28.5424C32.151 28.3392 32.4992 28.0781 32.7168 27.5122C32.949 26.8883 33.1957 26.2644 33.4423 25.6405H33.4568L38.361 13.9024C38.4045 13.9459 38.4626 14.0039 38.5351 14.062C38.5496 14.0765 38.5641 14.091 38.5641 14.1055L40.1312 17.907C40.1602 18.1391 40.1457 18.4003 40.0731 18.6034C38.5061 22.4194 36.8956 26.2209 35.3285 30.0514C35.1254 30.5302 34.8497 30.8349 34.3564 31.0235C32.5427 31.7345 30.7291 32.4599 28.9299 33.2144ZM42.5107 24.7554C41.5821 27.0044 39.5218 33.1419 38.7092 33.5917C37.8242 34.085 35.8219 35.1732 35.8219 35.1732C35.8219 35.1732 32.92 33.8964 32.4121 33.6207C32.3106 33.5626 32.1945 33.5191 32.0059 33.4321C32.1945 33.3015 32.2961 33.1854 32.4267 33.1274C33.5294 32.6485 34.6321 32.1552 35.7493 31.6909C36.112 31.5458 36.3297 31.3427 36.4748 30.9655C37.592 28.1361 38.7528 25.3213 39.8845 22.4919C40.0296 22.1292 40.1602 21.7665 40.3053 21.4183C40.2908 21.4473 40.2617 21.4763 40.2472 21.5053L40.9002 19.8222C40.9582 19.9093 42.1625 22.7966 42.1625 22.7966C42.2786 23.1013 42.3946 23.406 42.4672 23.7252C42.5687 24.059 42.6268 24.4652 42.5107 24.7554ZM47.4729 24.059C47.1392 24.7554 46.2832 26.7867 46.2832 26.7867C46.2832 26.7867 43.4683 28.0781 42.7429 28.1942C42.975 27.5702 43.6715 25.1762 43.9762 24.5523C44.2373 24.0009 44.0487 23.5947 43.7585 23.1739L39.3477 12.4514C39.5653 12.4659 39.7829 12.5675 40.0006 12.6546C41.0453 13.0753 42.0899 13.5251 43.1491 13.9459C43.5409 14.1055 43.773 14.3522 43.9181 14.7439C44.8903 17.167 45.8769 19.5756 46.878 21.9841C47.1392 22.608 47.7776 23.4206 47.4729 24.059ZM46.5298 15.658C46.3412 16.1513 46.022 17.2686 45.9639 17.2831C45.8479 17.138 44.9048 14.8745 44.4985 13.8734C44.3389 13.4671 44.0777 13.2204 43.6715 13.0463C40.3778 11.7114 37.0987 10.3766 33.8196 9.0272C33.5004 8.89662 33.1811 8.72251 32.8764 8.5629C32.8764 8.47585 32.8764 8.38879 32.8619 8.30173C34.2984 7.72136 35.7348 7.12647 37.1857 6.5606C37.3018 6.51707 37.4759 6.60413 37.6065 6.64766C39.7974 7.57626 42.0319 8.46134 44.1793 9.50602C44.8177 9.81071 45.8624 10.0138 46.4282 10.5942C46.8925 11.073 47.5455 13.2785 47.5455 13.2785C47.5455 13.2785 46.6314 15.3823 46.5298 15.658Z" fill="white"/>
<path d="M0 55.3291V46.5164L0.638921 45.8995H3.15054L3.76743 46.5164V47.7943L3.92165 48.4112H2.3574L2.53365 47.7943V47.2875L2.37943 47.1333H1.41003L1.27784 47.2875V54.536L1.43206 54.6902H2.40146L2.55568 54.536V52.1786H2.15911L1.8727 50.9007H3.89962L3.7454 51.5397V55.3291L3.12851 55.946H0.638921L0 55.3291Z" fill="white"/>
<path d="M8.61313 46.5164V55.3291L7.99624 55.946H5.46259L4.8457 55.3291V46.5164L5.46259 45.8995H7.97421L8.61313 46.5164ZM7.18107 47.1774H6.2337L6.07948 47.3316V54.558L6.2337 54.7122H7.18107L7.33529 54.558V47.3096L7.18107 47.1774Z" fill="white"/>
<path d="M9.51758 45.8995H12.8003L13.4392 46.5164V55.3291L12.8003 55.946H9.51758L9.6718 55.3291V46.5164L9.51758 45.8995ZM10.9276 54.536L11.0818 54.6902H12.0512L12.2055 54.536V47.2875L12.0512 47.1333H11.0818L10.9276 47.2875V54.536Z" fill="white"/>
<path d="M18.4182 48.4112H16.854L17.0082 47.7943V47.3096L16.854 47.1553H15.8846L15.7303 47.3096V50.1517L15.8846 50.3059H17.6251L18.242 50.9228V55.3291L17.6251 55.946H15.1135L14.4745 55.3291V54.0513L14.3203 53.4564H15.8846L15.7303 54.0513V54.536L15.8846 54.6902H16.854L17.0082 54.536V51.6939L16.854 51.5397H15.1135L14.4745 50.9007V46.4944L15.1135 45.8995H17.6251L18.242 46.5164V47.7943L18.4182 48.4112Z" fill="white"/>
<path d="M26.1072 46.5164V55.3291L25.4683 55.946H22.9567L22.3398 55.3291V46.5164L22.1855 45.8995H23.7498L23.5735 46.5164V54.536L23.7278 54.6902H24.6972L24.8514 54.536V46.5164L24.6972 45.8995H26.2614L26.1072 46.5164Z" fill="white"/>
<path d="M28.6404 55.946H27.0762L27.2304 55.3291V46.5164L27.0762 45.8995H28.4862L30.0505 51.804V46.5164L29.8962 45.8995H31.4605L31.3063 46.5164V55.3291L31.4605 55.946H30.0505L28.4862 50.0415V55.3512L28.6404 55.946Z" fill="white"/>
<path d="M32.3652 55.3291V46.5164L33.0042 45.8995H35.5158L36.1327 46.5164V47.7943L36.2869 48.4112H34.7226L34.8989 47.7943V47.2875L34.7447 47.1333H33.7753L33.621 47.2875V54.536L33.7753 54.6902H34.7447L34.8989 54.536V54.0513L34.7226 53.4344H36.2869L36.1327 54.0513V55.3291L35.5158 55.946H33.0042L32.3652 55.3291Z" fill="white"/>
<path d="M37.0787 45.8995H38.6429L38.4887 46.5164V50.1517L38.6429 50.3059H39.6123L39.7665 50.1517V46.5164L39.5903 45.8995H41.1545L41.0003 46.5164V55.3291L41.1545 55.946H39.5903L39.7445 55.3291V51.6939L39.5903 51.5397H38.6209L38.4667 51.6939V55.3291L38.6209 55.946H37.0566L37.2109 55.3291V46.5164L37.0787 45.8995Z" fill="white"/>
<path d="M46.7068 55.946H45.1426L45.2527 55.5274L44.9223 53.6106L44.746 53.4344H43.6444L43.4682 53.6106L43.1597 55.5274L43.2478 55.946H41.6836L41.97 55.0868L43.4461 46.4724L43.3139 45.8995H45.0324L44.9002 46.4724L46.3984 55.0868L46.7068 55.946ZM43.8427 52.1566H44.5257L44.6579 52.0464L44.1952 49.3585L43.7105 52.0684L43.8427 52.1566Z" fill="white"/>
<path d="M48.8006 55.946H47.2363L47.3906 55.3291V46.5164L47.2363 45.8995H48.8006L48.6464 46.5164V55.3291L48.8006 55.946Z" fill="white"/>
<path d="M51.1795 55.946H49.6152L49.7695 55.3291V46.5164L49.6152 45.8995H51.0253L52.5895 51.804V46.5164L52.4353 45.8995H53.9996L53.8453 46.5164V55.3291L53.9996 55.946H52.5895L51.0253 50.0415V55.3512L51.1795 55.946Z" fill="white"/>
<path d="M54.8164 55.946L54.9706 55.3291V46.5164L54.8164 45.8995H58.5838L58.8042 47.2875L58.1652 47.1333H56.3586L56.2044 47.2875V50.1517L56.3586 50.3059H56.8654L57.4822 50.1517V51.7159L56.8654 51.5617H56.3586L56.2044 51.7159V54.558L56.3586 54.7122H58.1652L58.8042 54.558L58.5838 55.968H54.8164V55.946Z" fill="white"/>
<path d="M59.3965 45.8995H62.6792L63.3181 46.5164V55.3291L62.6792 55.946H59.3965L59.5507 55.3291V46.5164L59.3965 45.8995ZM60.8065 54.536L60.9607 54.6902H61.9301L62.0844 54.536V47.2875L61.9081 47.1333H60.9387L60.8065 47.2875V54.536Z" fill="white"/>
</svg>
