<svg width="78" height="53" viewBox="0 0 78 53" fill="none" xmlns="http://www.w3.org/2000/svg">
<path d="M0 52.4754H5.63871V50.785H1.93548V43.7012H0V52.4754Z" fill="white"/>
<path d="M6.54294 52.4754H8.50423L9.05907 50.7076H11.8204L12.3752 52.4754H14.4268L11.4849 43.7012H9.48488L6.54294 52.4754ZM9.53649 49.0947L10.4397 45.8947L11.3429 49.0947H9.53649Z" fill="white"/>
<path d="M16.2298 52.4754H18.1653V50.1528L19.1976 48.8367L21.1976 52.4754H23.404L20.5395 47.3012L23.3653 43.7012H21.146L18.1653 47.5334V43.7012H16.2298V52.4754Z" fill="white"/>
<path d="M25.063 52.4754H31.2049V50.8108H26.9985V48.8367H30.4307V47.185H26.9985V45.3657H31.0759V43.7012H25.063V52.4754Z" fill="white"/>
<path d="M39.0649 52.4754H40.2262V44.7721H42.8198V43.7012H36.4714V44.7721H39.0649V52.4754Z" fill="white"/>
<path d="M44.9018 52.4754H46.0631V48.9141H47.9857L50.076 52.4754H51.4179L49.276 48.8367C50.5534 48.5915 51.0954 47.8044 51.0954 46.3076C51.0954 44.4625 50.2696 43.7012 48.2696 43.7012H44.9018V52.4754ZM46.0631 47.856V44.7592H48.1663C49.4825 44.7592 49.9341 45.185 49.9341 46.3076C49.9341 47.4302 49.4825 47.856 48.1663 47.856H46.0631Z" fill="white"/>
<path d="M52.7774 52.4754H53.9774L54.7774 50.2302H58.3129L59.1129 52.4754H60.3516L57.1516 43.7012H55.9774L52.7774 52.4754ZM55.1516 49.1721L56.5452 45.185L57.9387 49.1721H55.1516Z" fill="white"/>
<path d="M62.4673 52.4754H65.4867C67.7835 52.4754 68.8157 51.4044 68.8157 49.0689V47.1076C68.8157 44.7721 67.7835 43.7012 65.4867 43.7012H62.4673V52.4754ZM63.6286 51.4173V44.7592H65.3448C66.9964 44.7592 67.6544 45.4302 67.6544 47.1205V49.056C67.6544 50.7463 66.9964 51.4173 65.3448 51.4173H63.6286Z" fill="white"/>
<path d="M71.6155 52.4754H77.4865V51.4173H72.7768V48.5141H76.7123V47.456H72.7768V44.7592H77.3575V43.7012H71.6155V52.4754Z" fill="white"/>
<path d="M38.5883 16.5883H37.9916C29.1604 16.5883 22 9.42787 22 0.5967V0H38.5883V16.5883Z" fill="white"/>
<path d="M39.1846 33.1765H38.5879V16.5883H55.1762V17.185C55.1762 26.0161 48.0158 33.1765 39.1846 33.1765Z" fill="white"/>
</svg>
