<svg width="69" height="55" viewBox="0 0 69 55" fill="none" xmlns="http://www.w3.org/2000/svg">
<g clip-path="url(#clip0)">
<path d="M43.2016 50.8792C43.1515 50.6793 43.1515 50.5793 43.3268 50.4543C44.0531 50.0045 44.2785 49.3047 44.2785 48.48C44.2785 47.2054 44.2785 45.9308 44.2785 44.6562C44.2785 43.3066 43.452 42.5068 42.1247 42.5068C40.8725 42.5068 39.6202 42.5068 38.368 42.5068C37.817 42.5068 37.792 42.5068 37.792 43.0817V52.5787C37.792 53.2035 37.792 53.8283 37.792 54.4531C37.792 54.803 37.9423 54.9779 38.2929 54.9529C38.6685 54.9529 39.0442 54.9529 39.4199 54.9529C39.8707 54.9529 39.9458 54.878 39.9458 54.4031C39.9458 53.3534 39.9458 52.3038 39.9458 51.2791C39.9458 51.1041 39.8957 50.9292 40.046 50.7792H41.0478C41.3733 52.0289 41.724 53.2535 42.0245 54.4781C42.1247 54.828 42.2499 55.0279 42.6506 54.9779C43.0012 54.9529 43.3268 54.9779 43.6774 54.9779C44.1533 54.9779 44.2284 54.878 44.1282 54.4281C43.8277 53.2285 43.5272 52.0538 43.2016 50.8792ZM42.0996 48.1301C42.0996 48.455 41.8993 48.6549 41.5737 48.6799C41.0728 48.7049 40.5469 48.6799 39.9709 48.6799V44.5562C40.5469 44.5562 41.0979 44.5312 41.6739 44.5562C41.9243 44.5812 42.0996 44.7811 42.0996 45.081C42.0996 46.1057 42.0996 47.1304 42.0996 48.1301Z" fill="white"/>
<path d="M51.9679 44.7561C51.9679 43.2816 51.1915 42.5068 49.7139 42.5068C48.5618 42.5068 47.4348 42.5068 46.2828 42.5068C45.7068 42.5068 45.7068 42.5068 45.7068 43.0817C45.7068 44.9811 45.7068 46.8555 45.7068 48.7549C45.7068 50.6543 45.7068 52.5537 45.7068 54.4531C45.7068 54.828 45.7819 54.9779 46.2077 54.9779C47.3848 54.9529 48.5869 54.9779 49.764 54.9779C51.1915 54.9779 51.9679 54.2032 51.9679 52.7786C51.9679 50.0795 51.9679 47.4053 51.9679 44.7561ZM49.8892 52.1288C49.8892 52.7036 49.7139 52.8786 49.1379 52.8786C48.7121 52.8786 48.3114 52.8786 47.8606 52.8786V44.5562C48.3615 44.5562 48.8373 44.5312 49.3132 44.5562C49.7389 44.5812 49.8892 44.7811 49.8892 45.281C49.8892 46.5806 49.8892 47.8801 49.8892 49.1548C49.8892 50.1794 49.8892 51.1541 49.8892 52.1288Z" fill="white"/>
<path d="M20.9879 44.6063C20.9879 43.3317 20.1615 42.5069 18.8842 42.4819C17.657 42.4819 16.4549 42.4819 15.2277 42.4819C14.7268 42.4819 14.7018 42.5069 14.7018 43.0068C14.7018 44.9062 14.7018 46.8056 14.7018 48.705C14.7018 50.6044 14.7018 52.4788 14.7018 54.3782C14.7018 54.903 14.7018 54.928 15.2528 54.928C16.4549 54.928 17.657 54.928 18.8592 54.928C20.1364 54.928 20.9629 54.1033 20.9629 52.8287C20.9879 50.1045 20.9879 47.3554 20.9879 44.6063ZM18.9343 47.4304C18.9343 48.9799 18.9343 50.5044 18.9343 52.0539C18.9343 52.7037 18.759 52.8787 18.1078 52.8787C17.7572 52.8787 17.4316 52.8787 17.081 52.8787C17.0309 52.8787 16.9808 52.8537 16.9057 52.8287V44.5813C17.4066 44.5063 17.9075 44.5313 18.3833 44.5563C18.784 44.5813 18.9343 44.8562 18.9343 45.2311C18.9343 45.9808 18.9343 46.7056 18.9343 47.4304Z" fill="white"/>
<path d="M28.851 52.9786C28.801 54.0283 28.3752 54.778 27.0979 54.903C26.021 55.0279 24.9191 55.0529 23.8422 54.853C23.0658 54.703 22.615 54.2032 22.4397 53.4784C22.3645 53.1285 22.3145 52.7787 22.3145 52.4288C22.3145 49.9046 22.3145 47.4053 22.3145 44.8811C22.3145 44.5062 22.3896 44.1314 22.4898 43.7815C22.7152 42.9817 23.3162 42.5818 24.0676 42.5319C25.1445 42.4569 26.2214 42.4069 27.2983 42.5818C28.3502 42.7318 28.801 43.5066 28.8761 44.4563C28.9262 45.0561 28.8761 45.6309 28.8761 46.2307C28.8761 46.5056 28.7759 46.6306 28.5004 46.6306C28.0747 46.6306 27.6239 46.6306 27.1981 46.6306C26.9477 46.6306 26.8224 46.5306 26.8224 46.2557C26.8224 45.9058 26.8224 45.5809 26.8224 45.231C26.7974 44.7812 26.597 44.5812 26.1462 44.5562C25.7956 44.5562 25.42 44.5562 25.0693 44.5562C24.6937 44.5562 24.4683 44.7562 24.4683 45.131C24.4683 47.5053 24.4683 49.8796 24.4683 52.2538C24.4683 52.6787 24.6937 52.8786 25.0944 52.9036C25.445 52.9286 25.8207 52.9036 26.1713 52.9036C26.5219 52.9036 26.7724 52.7287 26.7974 52.3788C26.8224 51.679 26.7974 50.9542 26.7974 50.2794C26.597 50.1545 26.4217 50.1795 26.2464 50.2045C25.9208 50.2295 25.7455 50.1045 25.7706 49.7546C25.7956 49.3547 25.7956 48.9798 25.7706 48.58C25.7706 48.2551 25.8708 48.1301 26.1963 48.1301C26.9477 48.1551 27.699 48.1301 28.4503 48.1301C28.7509 48.1301 28.8761 48.2301 28.8761 48.53C28.8761 50.0045 28.9262 51.5041 28.851 52.9786Z" fill="white"/>
<path d="M67.4444 54.9532C67.0688 54.9532 66.6931 54.9282 66.3174 54.9532C65.9418 54.9782 65.7665 54.8033 65.6412 54.4784C65.2405 53.4037 64.8148 52.354 64.389 51.3044C64.364 51.2294 64.3139 51.1794 64.2387 51.0045C63.7629 52.2041 63.3121 53.2788 62.9114 54.3534C62.7361 54.8033 62.5107 55.0032 62.0348 54.9532C61.6842 54.9032 61.3085 54.9532 60.9579 54.9532C60.4821 54.9532 60.432 54.8533 60.6073 54.4284C61.3586 52.604 62.0849 50.8045 62.8613 48.9801C62.9865 48.7052 62.9865 48.4803 62.8613 48.1804C62.135 46.4809 61.4338 44.7564 60.7325 43.057C60.5071 42.5321 60.5572 42.4821 61.1332 42.4821C61.4839 42.4821 61.8595 42.5071 62.2101 42.4821C62.6109 42.4571 62.7862 42.6321 62.9364 42.982C63.2871 43.9567 63.6878 44.9064 64.0634 45.8561C64.1135 46.006 64.1386 46.156 64.3139 46.2809C64.7396 45.2063 65.1904 44.1566 65.5661 43.057C65.7164 42.6071 65.9668 42.4322 66.4176 42.4821C66.7682 42.5071 67.1439 42.4821 67.4945 42.4821C67.9453 42.4821 67.9954 42.5571 67.8201 42.982C67.0938 44.7064 66.3926 46.4309 65.6663 48.1554C65.541 48.4553 65.516 48.6802 65.6663 48.9801C66.4176 50.7545 67.1439 52.554 67.8952 54.3284C68.0956 54.8783 68.0455 54.9532 67.4444 54.9532Z" fill="white"/>
<path d="M59.5306 54.5532C59.5306 54.8531 59.4304 54.9781 59.1299 54.9781C57.3267 54.9781 55.4985 54.9781 53.6953 54.9781C53.3947 54.9781 53.2946 54.8781 53.2946 54.5532C53.2946 50.6795 53.2946 46.7807 53.2946 42.9069C53.2946 42.657 53.3446 42.482 53.6452 42.507C55.5235 42.507 57.4269 42.507 59.3303 42.507C59.3803 42.507 59.4304 42.532 59.5056 42.557C59.6057 43.1568 59.5557 43.7566 59.5306 44.3564C59.5056 44.6313 59.2802 44.5814 59.0798 44.5814C58.028 44.5814 56.951 44.5814 55.8992 44.5814H55.3983V47.6804C56.2999 47.6804 57.1764 47.6804 58.078 47.6804C58.604 47.6804 58.629 47.7054 58.629 48.2302C58.629 48.5551 58.629 48.88 58.629 49.2049C58.629 49.7298 58.629 49.7547 58.078 49.7547C57.2015 49.7547 56.3249 49.7547 55.4233 49.7547V52.9287C56.6255 52.9287 57.8025 52.9287 59.0047 52.9287C59.5807 52.9287 59.5807 52.9287 59.5807 53.5036C59.5306 53.8285 59.5056 54.1784 59.5306 54.5532Z" fill="white"/>
<path d="M13.5004 53.3284C13.5004 53.7283 13.5004 54.1032 13.5004 54.5031C13.5004 54.803 13.3752 54.9529 13.0496 54.9529C11.2464 54.9529 9.46823 54.9529 7.66503 54.9529C7.33946 54.9529 7.21423 54.853 7.21423 54.5281C7.21423 50.6543 7.21423 46.8055 7.21423 42.9317C7.21423 42.6068 7.3645 42.5068 7.66503 42.5068C9.46823 42.5068 11.2464 42.5068 13.0496 42.5068C13.2499 42.5068 13.4503 42.5568 13.4753 42.7817C13.5004 43.3566 13.6006 43.9564 13.3501 44.5812H9.29292V47.6052C9.66859 47.7052 10.0443 47.6302 10.4199 47.6552C10.9709 47.6552 11.5469 47.6552 12.0979 47.6552C12.4235 47.6552 12.5487 47.7552 12.5487 48.0801C12.5236 48.48 12.5236 48.8548 12.5487 49.2547C12.5737 49.6046 12.4235 49.7296 12.0728 49.7296C11.2965 49.7046 10.5451 49.7296 9.76876 49.7296C9.6185 49.7296 9.46823 49.7046 9.26787 49.8045V52.8036C9.41814 52.9286 9.59345 52.8786 9.76876 52.8786C10.8206 52.8786 11.8975 52.9036 12.9494 52.8786C13.3251 52.8786 13.5004 53.0035 13.5004 53.3284Z" fill="white"/>
<path d="M36.5656 53.3534C36.5656 53.7283 36.5656 54.1032 36.5656 54.4781C36.5656 54.803 36.4654 54.9529 36.0897 54.9529C34.3116 54.9529 32.5334 54.9529 30.7553 54.9529C30.4297 54.9529 30.2794 54.853 30.2794 54.5031C30.2794 50.6543 30.2794 46.8055 30.2794 42.9567C30.2794 42.6068 30.4046 42.5068 30.7553 42.5068C32.5334 42.5068 34.3116 42.5068 36.0897 42.5068C36.3151 42.5068 36.5405 42.5318 36.5405 42.7817C36.5656 43.3566 36.6657 43.9564 36.4153 44.5562H32.3831V47.5553C32.5084 47.6802 32.6837 47.6302 32.859 47.6302C33.6103 47.6302 34.3617 47.6552 35.113 47.6302C35.4887 47.6302 35.664 47.7302 35.6389 48.1301C35.6139 48.48 35.6389 48.8049 35.6389 49.1548C35.6389 49.6546 35.6139 49.6796 35.113 49.6796C34.2114 49.6796 33.3348 49.6796 32.3831 49.6796C32.308 50.7293 32.3581 51.7789 32.3581 52.8536H33.7606C34.537 52.8536 35.3133 52.8786 36.1148 52.8536C36.4403 52.8786 36.5656 53.0285 36.5656 53.3534Z" fill="white"/>
<path d="M6.08579 54.603C6.08579 54.828 5.96057 54.9529 5.73517 54.9529C3.93197 54.9529 2.12877 54.9529 0.350622 54.9529C0.0500888 54.9529 0 54.778 0 54.5281C0 53.9033 0 53.2785 0 52.6537V43.1066C0 42.5068 0 42.5068 0.601066 42.5068C0.951688 42.5068 1.27726 42.5068 1.62789 42.5068C2.12877 42.5068 2.15382 42.5318 2.15382 43.0317C2.15382 44.9311 2.15382 46.8055 2.15382 48.7049V52.9036H4.55808C4.95879 52.9036 5.33446 52.9036 5.73517 52.9036C5.98561 52.9036 6.11084 53.0035 6.11084 53.2785C6.06075 53.7033 6.06075 54.1532 6.08579 54.603Z" fill="white"/>
<path d="M41.3723 17.8194C39.8947 17.8194 38.5172 18.2193 37.3401 18.9191L35.1863 16.3949C35.9377 15.5701 36.3885 14.4705 36.3885 13.2708C36.3885 12.3711 36.138 11.5464 35.6872 10.8216L39.2936 6.62292C39.7945 6.89784 40.3705 7.04779 40.9966 7.04779C42.9501 7.04779 44.5279 5.47329 44.5279 3.5239C44.5529 1.57451 42.9751 0 41.0217 0C39.0682 0 37.4904 1.57451 37.4904 3.5239C37.4904 4.24867 37.7158 4.89847 38.0664 5.44829L34.5352 9.54701C33.7588 8.9472 32.7821 8.59731 31.7302 8.59731C30.8036 8.59731 29.952 8.87222 29.2258 9.32208L27.673 7.49765C27.9234 7.09778 28.0737 6.62292 28.0737 6.09809C28.0737 4.64854 26.8966 3.47391 25.444 3.47391C23.9915 3.47391 22.8144 4.64854 22.8144 6.09809C22.8144 7.54764 23.9915 8.72227 25.444 8.72227C25.7446 8.72227 26.0201 8.67228 26.2956 8.57231L27.9485 10.5217C27.3975 11.2965 27.0719 12.2212 27.0719 13.2458C27.0719 13.4458 27.097 13.6457 27.122 13.8457L24.0416 16.02C23.3904 15.3702 22.5139 14.9953 21.5371 14.9953C19.5837 14.9953 18.0059 16.5698 18.0059 18.5192C18.0059 20.4686 19.5837 22.0431 21.5371 22.0431C23.4906 22.0431 25.0684 20.4686 25.0684 18.5192C25.0684 18.1693 25.0183 17.8194 24.9181 17.4945L27.673 15.5451C28.4744 16.9447 30.0021 17.9194 31.7302 17.9194C32.4815 17.9194 33.1577 17.7444 33.7838 17.4445L35.9377 19.9687C34.435 21.3933 33.4833 23.4177 33.4833 25.667C33.4833 30.0156 37.0146 33.5395 41.3723 33.5395C45.73 33.5395 49.2613 30.0156 49.2613 25.667C49.2613 21.3183 45.705 17.8194 41.3723 17.8194Z" fill="white"/>
</g>
<defs>
<clipPath id="clip0">
<rect width="69" height="55" fill="white"/>
</clipPath>
</defs>
</svg>
