<svg width="64" height="52" viewBox="0 0 64 52" fill="none" xmlns="http://www.w3.org/2000/svg">
<mask id="mask0" mask-type="alpha" maskUnits="userSpaceOnUse" x="15" y="0" width="33" height="36">
<path fill-rule="evenodd" clip-rule="evenodd" d="M15.9592 0.240479H47.5748V35.1917H15.9592V0.240479Z" fill="white"/>
</mask>
<g mask="url(#mask0)">
<path fill-rule="evenodd" clip-rule="evenodd" d="M29.5768 30.5355C29.5208 30.4346 29.4727 30.3452 29.4219 30.2572C28.9351 29.4126 28.448 28.568 27.9605 27.7238C26.4156 25.0481 24.8706 22.3725 23.3258 19.6967C23.2905 19.6355 23.2543 19.5742 23.2253 19.51C23.0158 19.0477 23.2174 18.5524 23.527 18.3231C23.9571 18.0045 24.5702 18.0907 24.8939 18.5213C24.9503 18.5965 24.9975 18.6791 25.0446 18.7606C25.8588 20.1697 26.6724 21.5791 27.486 22.9885C28.7006 25.0925 29.9154 27.1962 31.1301 29.3C31.1617 29.3546 31.1941 29.4081 31.2262 29.4625C31.2616 29.5229 31.3156 29.5469 31.3843 29.5431C31.4471 29.5397 31.5102 29.5342 31.5728 29.5354C31.7692 29.5397 31.9686 29.526 32.1612 29.5556C32.9428 29.6754 33.5783 30.0487 34.0519 30.6876C34.0847 30.7317 34.1177 30.7759 34.1471 30.8224C34.1955 30.8985 34.2644 30.9217 34.3498 30.9086C34.3886 30.9024 34.4279 30.8987 34.4664 30.8911C34.6358 30.857 34.8056 30.8242 34.9746 30.7871C36.1347 30.5325 37.2313 30.1105 38.2708 29.5377C39.6658 28.7688 40.8629 27.7657 41.8505 26.5146C42.8969 25.1889 43.6297 23.703 44.1116 22.0889C44.4689 20.8922 44.655 19.6665 44.7153 18.4216C44.7517 17.6675 44.7368 16.9121 44.6675 16.1597C44.6113 15.5492 44.5255 14.9421 44.3982 14.3414C44.0858 12.8685 43.5671 11.4744 42.8031 10.175C41.9921 8.79579 40.9569 7.61379 39.6708 6.6586C38.2628 5.61297 36.7021 4.89506 34.9899 4.51033C34.7984 4.46722 34.6046 4.43318 34.4116 4.39733C34.3349 4.38322 34.2783 4.41143 34.2321 4.47931C34.1215 4.64146 34.0037 4.79838 33.8897 4.95831C33.872 4.98309 33.8593 5.01169 33.8399 5.04594C33.8764 5.09851 33.9113 5.14967 33.9469 5.20043C34.1322 5.46391 34.3282 5.72073 34.5012 5.99206C35.3765 7.36563 35.8651 8.87113 35.9862 10.4917C36.0392 11.1977 36.0182 11.9053 35.9135 12.6091C35.7676 13.5883 35.4895 14.5253 35.0655 15.4205C34.6032 16.3964 33.9818 17.2606 33.2443 18.0445C33.064 18.2361 32.8398 18.3477 32.5772 18.3545C32.184 18.3646 31.8679 18.2065 31.678 17.8572C31.4854 17.5031 31.506 17.146 31.7354 16.8092C31.7793 16.7449 31.8351 16.6881 31.8889 16.6309C32.5417 15.9374 33.0658 15.1592 33.4401 14.2816C33.8111 13.4112 34.014 12.5025 34.0587 11.5594C34.1006 10.6723 33.9868 9.80195 33.731 8.9513C33.4115 7.88935 32.8858 6.9396 32.1606 6.10144C31.963 5.87302 31.991 5.91169 31.7408 5.90424C30.7522 5.87483 29.9755 5.45323 29.4121 4.63985C29.3762 4.58828 29.3422 4.53531 29.3097 4.48132C29.2682 4.41263 29.2086 4.38564 29.1307 4.39692C29.0841 4.40377 29.0378 4.41243 28.9915 4.42089C27.6969 4.65899 26.4742 5.10032 25.3194 5.7298C24.4665 6.1947 23.6771 6.75045 22.963 7.40974C21.6426 8.62921 20.655 10.0805 19.9564 11.7333C19.2851 13.3222 18.9289 14.9832 18.8379 16.7004C18.7889 17.6191 18.8045 18.5387 18.9088 19.4558C18.9847 20.1207 19.0923 20.7792 19.2524 21.4286C19.6634 23.095 20.3376 24.6427 21.3373 26.043C22.0509 27.0427 22.8955 27.9153 23.8832 28.6457C25.3661 29.7423 27.0122 30.4757 28.8205 30.8427C28.9435 30.8677 29.0678 30.8874 29.1919 30.9074C29.2686 30.9197 29.3287 30.8937 29.3732 30.8262C29.4336 30.7346 29.4989 30.6463 29.5768 30.5355M15.9592 17.91C15.9721 15.9986 16.1546 14.3622 16.6099 12.7634C17.2053 10.6731 18.1635 8.76739 19.5361 7.07738C20.7773 5.54932 22.2786 4.3375 24.0199 3.42098C25.4433 2.67166 26.9451 2.15216 28.5276 1.86512C28.7208 1.83007 28.9143 1.79563 29.1091 1.77005C29.2213 1.75534 29.2924 1.70156 29.349 1.60608C29.5309 1.29769 29.7688 1.03784 30.0536 0.8209C31.3462 -0.162491 33.1923 0.135225 34.1111 1.47535C34.1199 1.48845 34.1316 1.50033 34.1371 1.51483C34.215 1.7205 34.3834 1.76823 34.582 1.79805C36.8159 2.13303 38.8774 2.92466 40.7698 4.15601C41.4237 4.58103 42.0342 5.06286 42.6075 5.59222C43.7971 6.69023 44.7696 7.95542 45.5466 9.37431C46.4115 10.9541 46.9955 12.6319 47.3049 14.4051C47.4048 14.9783 47.4711 15.5557 47.5172 16.1362C47.5847 16.9844 47.5901 17.8338 47.548 18.6815C47.3957 21.7463 46.5302 24.5877 44.8218 27.1515C43.3669 29.3352 41.4464 30.9888 39.0816 32.1261C37.7334 32.7741 36.321 33.2184 34.8455 33.4615C34.7369 33.4795 34.6284 33.4974 34.5192 33.5117C34.4106 33.526 34.3306 33.5711 34.2789 33.6751C34.2265 33.78 34.1636 33.8813 34.0944 33.9764C33.5239 34.7588 32.7522 35.1858 31.7855 35.1916C30.7296 35.1979 29.915 34.7245 29.3474 33.832C29.322 33.7921 29.296 33.752 29.2777 33.7089C29.2223 33.5806 29.1266 33.524 28.9881 33.5043C28.7002 33.4638 28.4132 33.4154 28.1285 33.3568C25.8046 32.878 23.6878 31.9411 21.807 30.4864C20.7485 29.6678 19.8326 28.71 19.05 27.6263C17.6805 25.7298 16.7831 23.6266 16.3216 21.3353C16.185 20.6565 16.0819 19.9729 16.037 19.2815C16.0019 18.7405 15.9753 18.199 15.9592 17.91" fill="white"/>
</g>
<mask id="mask1" mask-type="alpha" maskUnits="userSpaceOnUse" x="0" y="39" width="10" height="10">
<path fill-rule="evenodd" clip-rule="evenodd" d="M0.784973 39.8586H9.01565V48.5607H0.784973V39.8586Z" fill="white"/>
</mask>
<g mask="url(#mask1)">
<path fill-rule="evenodd" clip-rule="evenodd" d="M2.16291 44.2098C2.16291 44.6126 2.22717 45.0032 2.35628 45.3819C2.485 45.7606 2.6683 46.095 2.90599 46.385C3.14368 46.6751 3.43193 46.907 3.77013 47.0802C4.10854 47.2532 4.48723 47.3398 4.90621 47.3398C5.3413 47.3398 5.72604 47.2494 6.06062 47.0679C6.39479 46.8866 6.67881 46.6471 6.91247 46.3488C7.14614 46.0511 7.3234 45.7163 7.44446 45.3457C7.56511 44.9752 7.62554 44.5965 7.62554 44.2098C7.62554 43.7987 7.56108 43.4061 7.43217 43.0312C7.30345 42.6565 7.11995 42.3262 6.88246 42.0402C6.64457 41.7545 6.35854 41.5247 6.02436 41.3513C5.68978 41.178 5.31713 41.0916 4.90621 41.0916C4.47132 41.0916 4.08457 41.1821 3.74596 41.3633C3.40776 41.5448 3.12152 41.7803 2.88806 42.0704C2.654 42.3604 2.47493 42.6928 2.35024 43.0675C2.22515 43.4421 2.16291 43.8228 2.16291 44.2098M4.89433 48.5607C4.28197 48.5607 3.72381 48.4378 3.22043 48.1921C2.71665 47.9463 2.28377 47.62 1.92119 47.2129C1.55861 46.8064 1.27842 46.3409 1.08122 45.817C0.883614 45.2933 0.784912 44.7577 0.784912 44.2098C0.784912 43.6377 0.889657 43.0896 1.09935 42.5661C1.30864 42.0424 1.59648 41.5789 1.96349 41.176C2.3299 40.7731 2.76499 40.4531 3.26857 40.2154C3.77215 39.9777 4.32206 39.8586 4.9185 39.8586C5.53065 39.8586 6.08862 39.9855 6.5922 40.2393C7.09578 40.4932 7.52684 40.8255 7.88539 41.2364C8.24374 41.6474 8.52192 42.1129 8.71952 42.6326C8.91672 43.1523 9.01563 43.682 9.01563 44.2217C9.01563 44.7939 8.9129 45.3416 8.70723 45.8653C8.50197 46.3893 8.21372 46.8503 7.84309 47.2494C7.47246 47.648 7.03515 47.9665 6.53177 48.204C6.02819 48.4419 5.48231 48.5607 4.89433 48.5607" fill="white"/>
</g>
<path fill-rule="evenodd" clip-rule="evenodd" d="M13.4028 47.485C13.6846 47.485 13.9406 47.4244 14.1702 47.3037C14.3999 47.1829 14.5973 47.0215 14.7624 46.8201C14.9274 46.6188 15.0543 46.3894 15.1432 46.1312C15.2316 45.8736 15.2761 45.6077 15.2761 45.3335C15.2761 45.0434 15.2257 44.7697 15.125 44.5119C15.0241 44.254 14.8871 44.0284 14.7141 43.8349C14.5407 43.6417 14.3334 43.4886 14.0917 43.3758C13.85 43.263 13.5881 43.2066 13.3061 43.2066C13.1369 43.2066 12.9596 43.2388 12.7743 43.3033C12.5888 43.3679 12.4158 43.4564 12.2546 43.5692C12.0933 43.682 11.9525 43.8129 11.8316 43.962C11.7107 44.111 11.6261 44.2744 11.5776 44.4512V46.1072C11.6582 46.3004 11.7629 46.4819 11.892 46.6509C12.021 46.8201 12.164 46.9653 12.3211 47.0862C12.4782 47.2068 12.6492 47.3037 12.8347 47.376C13.0201 47.4485 13.2094 47.485 13.4028 47.485M13.8379 48.6211C13.3303 48.6211 12.8831 48.5 12.4963 48.2585C12.1096 48.0168 11.8034 47.7026 11.5776 47.3158V51.0743H10.2484V42.1793H11.4207V43.3152C11.6624 42.9367 11.9744 42.6345 12.3573 42.4087C12.7399 42.1833 13.1731 42.0703 13.6566 42.0703C14.0917 42.0703 14.4903 42.1593 14.8531 42.3362C15.2157 42.5137 15.5299 42.7514 15.7958 43.0493C16.0617 43.3476 16.269 43.6941 16.4182 44.0889C16.5673 44.4837 16.6418 44.8986 16.6418 45.3335C16.6418 45.793 16.5731 46.2218 16.4363 46.6207C16.2992 47.0195 16.1058 47.3662 15.8562 47.6601C15.6062 47.9543 15.3103 48.188 14.9679 48.3612C14.6253 48.5343 14.2488 48.6211 13.8379 48.6211" fill="white"/>
<path fill-rule="evenodd" clip-rule="evenodd" d="M22.6242 44.8622C22.6 44.5965 22.5335 44.3505 22.425 44.1249C22.3162 43.8995 22.177 43.7082 22.0078 43.5508C21.8388 43.3937 21.6412 43.271 21.4156 43.1822C21.19 43.0936 20.9521 43.0493 20.7025 43.0493C20.4528 43.0493 20.2171 43.0936 19.9955 43.1822C19.7739 43.271 19.5785 43.3937 19.4093 43.5508C19.2401 43.7082 19.1032 43.8995 18.9984 44.1249C18.8935 44.3505 18.8292 44.5965 18.805 44.8622H22.6242ZM20.7025 48.6209C20.211 48.6209 19.7639 48.5341 19.361 48.361C18.9581 48.188 18.6137 47.9523 18.3276 47.654C18.0416 47.3561 17.82 47.0094 17.6629 46.6146C17.5058 46.22 17.4272 45.8008 17.4272 45.3577C17.4272 44.9147 17.5058 44.4935 17.6629 44.0947C17.82 43.6959 18.0416 43.3454 18.3276 43.0432C18.6137 42.7411 18.9581 42.5034 19.361 42.3304C19.7639 42.1569 20.2151 42.0703 20.7148 42.0703C21.2061 42.0703 21.6513 42.1591 22.0501 42.3362C22.4489 42.5137 22.7892 42.7493 23.0716 43.0432C23.3534 43.3375 23.5687 43.6798 23.7182 44.0703C23.867 44.4615 23.9416 44.8702 23.9416 45.2973C23.9416 45.3939 23.9375 45.4846 23.9295 45.5694C23.9214 45.654 23.9132 45.7243 23.9053 45.7807H18.8415C18.8655 46.0627 18.9319 46.3167 19.0407 46.5421C19.1495 46.7677 19.2903 46.9633 19.4639 47.1283C19.637 47.2934 19.8342 47.4203 20.0559 47.509C20.2775 47.5978 20.5092 47.6419 20.7509 47.6419C20.9281 47.6419 21.1032 47.6198 21.2768 47.5754C21.4498 47.5313 21.609 47.4669 21.7542 47.3823C21.899 47.2975 22.028 47.1947 22.141 47.0737C22.2536 46.953 22.3422 46.8201 22.4066 46.675L23.5429 47.0014C23.3252 47.4767 22.9644 47.8655 22.461 48.1677C21.9575 48.4698 21.3713 48.6209 20.7025 48.6209V48.6209Z" fill="white"/>
<path fill-rule="evenodd" clip-rule="evenodd" d="M30.6972 48.5H29.3678V44.9588C29.3678 44.3628 29.2731 43.9297 29.0838 43.6598C28.8944 43.3899 28.6144 43.2549 28.2438 43.2549C28.0504 43.2549 27.857 43.2912 27.6637 43.3635C27.4703 43.436 27.289 43.539 27.1198 43.6717C26.9506 43.8046 26.7995 43.962 26.6666 44.1432C26.5336 44.3245 26.4309 44.5238 26.3584 44.7413V48.5H25.0289V42.1793H26.2375V43.4481C26.4794 43.0213 26.8299 42.6849 27.289 42.4389C27.7483 42.1934 28.2561 42.0703 28.812 42.0703C29.1907 42.0703 29.5009 42.139 29.7426 42.276C29.9842 42.4129 30.1755 42.6003 30.3165 42.838C30.4575 43.0755 30.5562 43.3498 30.6126 43.6598C30.6688 43.97 30.6972 44.2984 30.6972 44.6446V48.5Z" fill="white"/>
<path fill-rule="evenodd" clip-rule="evenodd" d="M33.7669 44.3182H36.1359C36.3293 44.3182 36.5046 44.2759 36.6615 44.1913C36.8186 44.1067 36.9535 43.9901 37.0666 43.841C37.1792 43.692 37.2678 43.5205 37.3322 43.3272C37.3969 43.1338 37.4291 42.9283 37.4291 42.7108C37.4291 42.4932 37.3907 42.2878 37.3141 42.0946C37.2374 41.901 37.1368 41.7318 37.012 41.5868C36.8871 41.442 36.742 41.327 36.5769 41.2424C36.4117 41.158 36.2405 41.1155 36.0632 41.1155H33.7669V44.3182ZM32.4133 48.4999V39.9189H36.1478C36.5346 39.9189 36.8913 39.9997 37.2176 40.1607C37.5437 40.3218 37.8237 40.5335 38.0576 40.7952C38.2911 41.0572 38.4744 41.3554 38.6073 41.6895C38.7402 42.0239 38.8069 42.3645 38.8069 42.7108C38.8069 43.0011 38.7664 43.2788 38.6861 43.5447C38.6055 43.8106 38.4927 44.0566 38.3475 44.282C38.2026 44.5076 38.0254 44.703 37.8159 44.8681C37.6062 45.0335 37.3766 45.1562 37.127 45.237L39.1451 48.4999H37.6102L35.7492 45.5147H33.7669V48.4999H32.4133Z" fill="white"/>
<path fill-rule="evenodd" clip-rule="evenodd" d="M44.8376 44.8622C44.8135 44.5965 44.747 44.3505 44.6384 44.1249C44.5296 43.8995 44.3905 43.7082 44.2213 43.5508C44.0522 43.3937 43.8546 43.271 43.629 43.1822C43.4034 43.0936 43.1655 43.0493 42.916 43.0493C42.6662 43.0493 42.4305 43.0936 42.2089 43.1822C41.9874 43.271 41.792 43.3937 41.6228 43.5508C41.4536 43.7082 41.3166 43.8995 41.2119 44.1249C41.1069 44.3505 41.0427 44.5965 41.0185 44.8622H44.8376ZM42.916 48.6209C42.4245 48.6209 41.9773 48.5341 41.5744 48.361C41.1716 48.188 40.8271 47.9523 40.5411 47.654C40.2551 47.3561 40.0335 47.0094 39.8764 46.6146C39.7192 46.22 39.6407 45.8008 39.6407 45.3577C39.6407 44.9147 39.7192 44.4935 39.8764 44.0947C40.0335 43.6959 40.2551 43.3454 40.5411 43.0432C40.8271 42.7411 41.1716 42.5034 41.5744 42.3304C41.9773 42.1569 42.4285 42.0703 42.9283 42.0703C43.4196 42.0703 43.8647 42.1591 44.2636 42.3362C44.6624 42.5137 45.0026 42.7493 45.285 43.0432C45.5668 43.3375 45.7821 43.6798 45.9316 44.0703C46.0805 44.4615 46.155 44.8702 46.155 45.2973C46.155 45.3939 46.151 45.4846 46.1429 45.5694C46.1349 45.654 46.1266 45.7243 46.1187 45.7807H41.0549C41.0789 46.0627 41.1454 46.3167 41.2542 46.5421C41.3629 46.7677 41.5037 46.9633 41.6774 47.1283C41.8504 47.2934 42.0476 47.4203 42.2694 47.509C42.4909 47.5978 42.7226 47.6419 42.9643 47.6419C43.1416 47.6419 43.3166 47.6198 43.4903 47.5754C43.6633 47.5313 43.8224 47.4669 43.9676 47.3823C44.1125 47.2975 44.2414 47.1947 44.3544 47.0737C44.467 46.953 44.5556 46.8201 44.6201 46.675L45.7564 47.0014C45.5386 47.4767 45.1779 47.8655 44.6745 48.1677C44.1709 48.4698 43.5847 48.6209 42.916 48.6209V48.6209Z" fill="white"/>
<path fill-rule="evenodd" clip-rule="evenodd" d="M47.2546 39.6775H48.5842V46.675C48.5842 46.9089 48.6445 47.092 48.7653 47.2249C48.8864 47.3579 49.0554 47.4244 49.2731 47.4244C49.3616 47.4244 49.4643 47.4082 49.5813 47.376C49.6979 47.3442 49.8087 47.3077 49.9135 47.2674L50.1069 48.3068C49.9135 48.3953 49.684 48.4658 49.418 48.5181C49.1523 48.5703 48.9144 48.5967 48.7049 48.5967C48.2458 48.5967 47.8891 48.472 47.6355 48.2222C47.3817 47.9725 47.2546 47.6179 47.2546 47.1585V39.6775Z" fill="white"/>
<path fill-rule="evenodd" clip-rule="evenodd" d="M52.9228 47.6419C53.2451 47.6419 53.5493 47.5837 53.8353 47.4669C54.1213 47.35 54.3449 47.1867 54.5061 46.9772C54.6753 46.8322 54.7599 46.6793 54.7599 46.5179V45.684C54.5343 45.5954 54.2948 45.5269 54.041 45.4785C53.7869 45.4302 53.5394 45.406 53.2975 45.406C52.8221 45.406 52.4333 45.5088 52.1312 45.7142C51.829 45.9197 51.678 46.1918 51.678 46.53C51.678 46.8443 51.7946 47.1085 52.0286 47.3216C52.2621 47.5354 52.5602 47.6419 52.9228 47.6419M52.5602 48.6209C52.2541 48.6209 51.97 48.5703 51.7084 48.4698C51.4463 48.3691 51.2207 48.2301 51.0314 48.0528C50.842 47.8756 50.6932 47.6661 50.5844 47.4244C50.4756 47.1829 50.421 46.921 50.421 46.6388C50.421 46.3409 50.4855 46.0708 50.6144 45.829C50.7433 45.5875 50.9266 45.378 51.1645 45.2008C51.402 45.0235 51.6842 44.8863 52.0105 44.7896C52.3368 44.693 52.6972 44.6446 53.0922 44.6446C53.3899 44.6446 53.6842 44.6708 53.9745 44.7232C54.2643 44.7757 54.5262 44.8462 54.7599 44.9349V44.4996C54.7599 44.0325 54.6269 43.6679 54.3612 43.406C54.0951 43.1441 53.7124 43.013 53.2129 43.013C52.8747 43.013 52.5421 43.0755 52.2158 43.2003C51.8895 43.3252 51.5531 43.5047 51.2066 43.7382L50.7957 42.8922C51.6095 42.3445 52.4555 42.0703 53.3337 42.0703C54.2039 42.0703 54.8809 42.2921 55.3642 42.7352C55.8478 43.1782 56.0895 43.8149 56.0895 44.6446V46.9291C56.0895 47.2111 56.2061 47.3561 56.4398 47.3639V48.5C56.3109 48.5244 56.2001 48.5403 56.1076 48.5484C56.0148 48.5562 55.9241 48.5607 55.8355 48.5607C55.5777 48.5607 55.3781 48.496 55.2373 48.3671C55.0963 48.2384 55.0094 48.0732 54.9774 47.8718L54.9414 47.4727C54.6591 47.8434 54.3107 48.1274 53.8957 48.325C53.4808 48.5222 53.0358 48.6209 52.5602 48.6209" fill="white"/>
<path fill-rule="evenodd" clip-rule="evenodd" d="M57.7574 49.9867C57.8783 50.0107 57.9969 50.0308 58.1139 50.0471C58.2308 50.063 58.3254 50.0713 58.398 50.0713C58.5025 50.0713 58.5931 50.0489 58.6699 50.0048C58.7462 49.9603 58.825 49.8818 58.9056 49.7692C58.9861 49.6562 59.0687 49.4972 59.1533 49.2918C59.2379 49.0861 59.3364 48.8222 59.4494 48.4999L56.851 42.1792H58.2167L60.1746 47.3278L61.915 42.1792H63.1719L60.3075 49.9623C60.1786 50.3251 59.9548 50.6291 59.6368 50.875C59.3183 51.1206 58.9096 51.2436 58.41 51.2436C58.3133 51.2436 58.2126 51.2374 58.1079 51.2253C58.0031 51.2134 57.8863 51.187 57.7574 51.147V49.9867Z" fill="white"/>
</svg>
