<svg width="82" height="47" viewBox="0 0 82 47" fill="none" xmlns="http://www.w3.org/2000/svg">
<path fill-rule="evenodd" clip-rule="evenodd" d="M51.9065 2.40902L48.5125 19.4016C48.3937 19.9971 47.8718 20.4258 47.2653 20.4258H43.9271C42.6671 20.4258 41.4348 20.7925 40.379 21.4809L40.2783 21.5467L43.9832 2.99693C44.2283 1.76899 45.3053 0.885254 46.5559 0.885254H50.659C51.4619 0.885254 52.064 1.62077 51.9065 2.40902M29.1543 26.9147L32.5483 9.92205C32.6671 9.32634 33.1894 8.89757 33.7958 8.89757H37.134C38.3941 8.89757 39.6263 8.53122 40.6818 7.84283L40.7822 7.77698L37.0776 26.3265C36.8322 27.5547 35.7555 28.4384 34.5049 28.4384H30.4015C29.5989 28.4384 28.9965 27.7029 29.1543 26.9147" fill="white"/>
<mask id="mask0" mask-type="alpha" maskUnits="userSpaceOnUse" x="0" y="34" width="82" height="13">
<path fill-rule="evenodd" clip-rule="evenodd" d="M0.00012207 46.4356H81.0604V34.6733H0.00012207L0.00012207 46.4356Z" fill="white"/>
</mask>
<g mask="url(#mask0)">
<path fill-rule="evenodd" clip-rule="evenodd" d="M32.561 46.4356H30.7493L27.027 41.1475H28.3166C29.7831 41.1475 30.716 40.0956 30.716 38.8942C30.716 37.6095 29.8164 36.6252 28.3001 36.6252H25.3177V46.4356H23.2678V35.1377C23.2678 34.9274 23.4384 34.757 23.6486 34.757H28.4669C31.1494 34.757 32.7989 36.492 32.7989 38.7775C32.7989 40.5724 31.8089 41.9505 30.3627 42.5006L32.8148 45.9429C32.9613 46.1492 32.8141 46.4356 32.561 46.4356V46.4356ZM62.2248 41.4721H68.073V39.6369H62.2248V37.9942H60.1756V46.4356H62.2248H68.5118C68.6836 46.4356 68.8229 46.2958 68.8229 46.1239V44.6004H62.2248V41.4721ZM51.8391 34.757H48.3543C48.1445 34.757 47.9742 34.9274 47.9742 35.1377V36.6252H51.8391C54.2883 36.6252 55.8879 38.31 55.8879 40.613C55.8879 42.915 54.2883 44.5667 51.8391 44.5667H50.0231V37.9942H47.9742V46.4356H51.8391C55.5047 46.4356 58.0372 43.8827 58.0372 40.5796C58.0372 37.2759 55.5047 34.757 51.8391 34.757V34.757ZM60.1756 36.5919H68.8229V34.757H60.556C60.3458 34.757 60.1756 34.9274 60.1756 35.1377V36.5919ZM81.0605 34.757H78.7113L70.3137 46.4356H72.6628L75.6874 42.2297L78.7113 46.4356H80.4531C80.7066 46.4356 80.8537 46.1479 80.7056 45.9416L76.8617 40.5961L81.0605 34.757ZM74.7872 37.6934L72.6629 34.757H71.0583C70.7474 34.757 70.5678 35.109 70.7499 35.3608L73.6123 39.3273L74.7872 37.6934ZM39.2427 34.9015L34.2104 46.4356H36.3098L40.2585 37.1258L42.7826 43.0985H38.9758L38.267 44.9172H43.554L44.2076 46.4356H45.8979C46.1224 46.4356 46.273 46.205 46.1832 45.9991L41.3415 34.9015C41.281 34.7629 41.1441 34.6733 40.9929 34.6733H39.591C39.4401 34.6733 39.3032 34.7629 39.2427 34.9015V34.9015ZM14.5088 34.9015L9.47689 46.4356H11.576L15.525 37.1258L18.0488 43.0985H14.2423L13.5335 44.9172H18.8199L19.4738 46.4356H21.1641C21.3886 46.4356 21.5392 46.205 21.4494 45.9991L16.6079 34.9015C16.5471 34.7629 16.4102 34.6733 16.259 34.6733H14.8574C14.7062 34.6733 14.5693 34.7629 14.5088 34.9015V34.9015ZM4.84842 34.757H0.380527C0.170369 34.757 0.00012207 34.9274 0.00012207 35.1377V46.4356H1.73814C1.91026 46.4356 2.04932 46.2958 2.04932 46.1239V36.6252H4.6816C6.33948 36.6252 7.19758 37.8117 7.19758 39.2696C7.19758 40.8417 6.23129 42.1558 4.6816 42.1558H3.5064V44.0081H4.61488C7.53495 44.0081 9.28014 41.7804 9.28014 39.2197C9.28014 36.6593 7.56426 34.757 4.84842 34.757V34.757Z" fill="white"/>
</g>
</svg>
