<svg width="61" height="49" viewBox="0 0 61 49" fill="none" xmlns="http://www.w3.org/2000/svg">
<path d="M16.3814 36.7544L12.573 48.1516H13.6538L17.3935 36.7544H16.3814Z" fill="white"/>
<path d="M17.1706 39.4236L18.7831 44.3179H15.5923L15.2664 45.2933H19.0919L20.0354 48.1512H21.1677L17.7024 37.8149L17.1706 39.4236Z" fill="white"/>
<path d="M43.9152 39.4236L45.5278 44.3179H42.3198L42.011 45.2933H45.8365L46.7801 48.1512H47.9123L44.447 37.8149L43.9152 39.4236Z" fill="white"/>
<path d="M43.1089 36.7544L39.3176 48.1516H40.3984L44.1382 36.7544H43.1089Z" fill="white"/>
<path d="M1.31935 38.3286H0.255737V48.1514H1.31935V38.3286Z" fill="white"/>
<path d="M7.40936 40.1086C7.40936 38.0892 5.86542 36.7373 3.54949 36.7373H0.255737V37.6956H3.51518C5.23068 37.6956 6.31145 38.6197 6.31145 40.1086C6.31145 41.6316 5.21353 42.6242 3.51518 42.6242H1.95408V43.5654H3.54949C3.7382 43.5654 3.9269 43.5483 4.11561 43.5311L6.22567 48.1516H7.39221L5.17922 43.2916C6.56877 42.7782 7.40936 41.5974 7.40936 40.1086Z" fill="white"/>
<path d="M54.6542 38.3286H53.5906V48.1514H54.6542V38.3286Z" fill="white"/>
<path d="M60.7442 40.1086C60.7442 38.0892 59.2003 36.7373 56.8843 36.7373H53.5906V37.6956H56.85C58.5655 37.6956 59.6463 38.6197 59.6463 40.1086C59.6463 41.6316 58.5484 42.6242 56.85 42.6242H55.2889V43.5654H56.8843C57.073 43.5654 57.2617 43.5483 57.4504 43.5311L59.5605 48.1516H60.727L58.5141 43.2916C59.9036 42.7782 60.7442 41.5974 60.7442 40.1086Z" fill="white"/>
<path d="M27.9267 36.7544H26.8631V48.1687H27.9267V36.7544Z" fill="white"/>
<path d="M30.3456 36.7544H28.5443V37.7298H30.3456C31.9753 37.7298 33.0218 38.7737 33.0218 40.3823V44.5408C33.0218 46.1494 31.9753 47.1933 30.3456 47.1933H28.5443V48.1687H30.3456C32.5757 48.1687 34.0854 46.6799 34.0854 44.4723V40.4337C34.0854 38.2261 32.5929 36.7544 30.3456 36.7544Z" fill="white"/>
<path d="M37.0055 22.2375C39.835 19.9572 41.6467 16.4218 41.6467 12.4471C41.6467 5.58552 36.2116 0 29.5348 0H19.4584V1.19241H29.5348C35.5805 1.19241 40.4864 6.23402 40.4864 12.4471C40.4864 16.0871 38.7968 19.3296 36.1709 21.4007L34.9292 20.1246C37.2498 18.4092 38.7561 15.606 38.7561 12.4471C38.7561 7.21724 34.6238 2.97057 29.5348 2.97057H19.4584V4.14207H29.5348C33.9928 4.14207 37.6162 7.86574 37.6162 12.4471C37.6162 15.2713 36.2319 17.7816 34.1149 19.2878L32.8732 18.0117C34.6849 16.8611 35.8859 14.811 35.8859 12.468C35.8859 8.86988 33.036 5.94115 29.5348 5.94115H19.4788L30.8579 17.6142C30.4304 17.7188 30.003 17.7816 29.5551 17.7816H19.4788V18.974H29.5551C30.349 18.974 31.0818 18.8276 31.7943 18.5556L33.1174 19.8945C32.0386 20.4384 30.8376 20.7313 29.5755 20.7313H19.4991V21.9237H29.5755C31.1633 21.9237 32.6696 21.5053 33.9724 20.7731L35.2345 22.0701C33.5856 23.0952 31.6314 23.7018 29.5755 23.7018H19.4991V24.8733H29.5755C31.9775 24.8733 34.1963 24.1621 36.0895 22.9278L39.7129 26.6515H19.4991V27.8439H42.5017L37.0055 22.2375ZM22.2676 7.11264H29.5348C32.405 7.11264 34.7256 9.49747 34.7256 12.4471C34.7256 14.4554 33.6264 16.2336 32.0182 17.1331L22.2676 7.11264Z" fill="white"/>
</svg>
