<svg width="64" height="50" viewBox="0 0 64 50" fill="none" xmlns="http://www.w3.org/2000/svg">
<path d="M28.6823 41.0316C28.7604 40.9785 28.8125 40.9785 28.8646 40.9785C29.7499 40.9785 30.6352 40.9785 31.5205 41.0051C32.0153 41.0316 32.51 41.1113 32.9526 41.3237C33.6557 41.6423 33.9682 42.2265 33.9161 42.9966C33.89 43.6338 33.6297 44.1649 33.0828 44.5101C33.0568 44.5366 33.0047 44.5632 32.9787 44.6163C33.0568 44.7225 33.161 44.7756 33.2651 44.8022C33.9421 45.0943 34.2806 45.5988 34.3327 46.3157C34.4369 47.6434 33.6557 48.3603 32.5621 48.679C32.1194 48.7852 31.6767 48.8383 31.2341 48.8117C30.479 48.8117 29.7499 48.8117 28.9948 48.8117C28.8906 48.8117 28.7864 48.8383 28.6563 48.7586C28.6823 46.2095 28.6823 43.6338 28.6823 41.0316ZM30.1665 46.4485C30.1665 46.714 30.1665 47.0061 30.1665 47.2716C30.1665 47.5637 30.1925 47.5903 30.505 47.5903C30.8175 47.5903 31.1039 47.5903 31.4164 47.5903C31.7028 47.5903 31.9632 47.5372 32.2236 47.431C32.6402 47.2451 32.8485 46.8733 32.8485 46.3954C32.8225 45.944 32.6141 45.6784 32.1975 45.5191C31.5986 45.2801 30.9737 45.4129 30.3748 45.3863C30.2446 45.3863 30.1925 45.466 30.1925 45.6253C30.1665 45.8909 30.1665 46.1564 30.1665 46.4485ZM31.0258 42.2C30.7654 42.2 30.5831 42.2 30.4008 42.2C30.2446 42.2 30.1665 42.2796 30.1925 42.4389C30.1925 42.9435 30.1925 43.4214 30.1925 43.9259C30.1925 44.1118 30.2707 44.1915 30.4529 44.1915C30.7914 44.1915 31.1039 44.1915 31.4164 44.1649C31.6507 44.1649 31.833 44.0852 32.0152 43.979C32.3798 43.7666 32.4839 43.448 32.4579 43.0497C32.4319 42.7045 32.2496 42.4655 31.9371 42.3327C31.5986 42.2 31.2862 42.2265 31.0258 42.2Z" fill="white"/>
<path d="M19.229 41.0315C19.3331 40.9518 19.4113 40.9784 19.4894 40.9784C20.2966 40.9784 21.0777 40.9784 21.8849 40.9784C22.5099 40.9784 23.1088 41.058 23.6816 41.3767C24.3326 41.7219 24.6711 42.306 24.7232 43.023C24.7752 43.5275 24.7492 44.0054 24.5149 44.4568C24.3065 44.8817 24.0201 45.2003 23.6035 45.4393C23.3171 45.5986 23.291 45.6252 23.4733 45.9438C23.968 46.8201 24.4367 47.6698 24.9315 48.546C24.9836 48.6257 25.0096 48.6788 25.0096 48.785C24.8534 48.8647 24.6971 48.8381 24.5409 48.8381C24.2545 48.8381 23.942 48.8381 23.6556 48.8381C23.4473 48.8381 23.3171 48.785 23.2129 48.5726C22.7963 47.7494 22.3536 46.9529 21.911 46.1297C21.8329 45.9704 21.7287 45.8907 21.5464 45.8907C21.3642 45.8907 21.1819 45.8907 20.9996 45.8907C20.7392 45.8907 20.7132 45.9438 20.7132 46.2094C20.7132 46.9263 20.7132 47.6698 20.7132 48.3867C20.7132 48.5195 20.7392 48.6523 20.6611 48.8116C20.1924 48.8116 19.7237 48.8116 19.229 48.8116C19.1769 48.5726 19.1509 41.4829 19.229 41.0315ZM20.6872 43.3947C20.6872 43.7133 20.6872 44.0054 20.6872 44.3241C20.6872 44.5365 20.7653 44.6162 20.9736 44.6162C21.4162 44.6162 21.8849 44.6162 22.3276 44.5365C22.588 44.4834 22.8223 44.3772 22.9786 44.1382C23.5514 43.4213 23.1869 42.4388 22.3016 42.2795C21.8589 42.1998 21.4423 42.1998 20.9996 42.1998C20.7913 42.1998 20.7132 42.2795 20.7132 42.4919C20.7132 42.8105 20.7132 43.1026 20.6872 43.3947Z" fill="white"/>
<path d="M51.1289 48.7853C51.1289 46.1831 51.1289 43.6074 51.1289 41.0583C51.2331 40.9787 51.3372 41.0052 51.4153 41.0052C52.7693 41.0052 54.0973 41.0052 55.4513 41.0052C55.8419 41.0052 55.8419 41.0052 55.8419 41.4035C55.8419 41.6159 55.8419 41.8284 55.8419 42.0143C55.8419 42.2798 55.8159 42.3063 55.5034 42.3063C54.8264 42.3063 54.1494 42.3063 53.4724 42.3063C53.2901 42.3063 53.0818 42.3063 52.8995 42.3063C52.7173 42.3063 52.6392 42.386 52.6392 42.5719C52.6392 42.9702 52.6392 43.3685 52.6392 43.7668C52.6392 44.0323 52.6912 44.0854 52.9777 44.0854C53.6547 44.0854 54.3317 44.0854 55.0087 44.0854C55.3472 44.0854 55.3472 44.0854 55.3472 44.4306C55.3472 44.643 55.3472 44.8554 55.3472 45.0944C55.3472 45.36 55.3211 45.3865 55.0608 45.3865C54.4098 45.3865 53.7849 45.3865 53.1339 45.3865C53.0558 45.3865 53.0037 45.3865 52.9256 45.3865C52.7433 45.3865 52.6392 45.4662 52.6392 45.652C52.6392 46.1565 52.6392 46.6876 52.6392 47.1921C52.6392 47.4046 52.6912 47.4577 52.9777 47.4577C53.7849 47.4577 54.566 47.4577 55.3732 47.4577C55.4513 47.4577 55.5295 47.4577 55.6076 47.4577C55.894 47.4577 55.92 47.5108 55.92 47.7763C55.92 48.0418 55.92 48.3074 55.92 48.5729C55.92 48.7057 55.868 48.7853 55.7117 48.7853C55.6596 48.7853 55.6076 48.7853 55.5555 48.7853C54.1754 48.7853 52.7954 48.7853 51.3893 48.7853C51.3372 48.8384 51.2331 48.8384 51.1289 48.7853Z" fill="white"/>
<path d="M11.5742 48.8383C11.7044 48.3869 11.8346 48.0151 11.9388 47.6168C12.2773 46.5281 12.6158 45.466 12.9543 44.3773C13.2928 43.3418 13.6052 42.2796 13.9437 41.244C13.9958 41.0847 14.1 40.9785 14.2822 40.9785C14.6989 40.9785 15.1415 40.9785 15.5581 40.9785C15.7404 40.9785 15.8446 41.0582 15.9227 41.2175C16.2352 42.2531 16.5737 43.2886 16.8861 44.3242C17.1726 45.2536 17.459 46.1829 17.7714 47.1123C17.9277 47.5903 18.0839 48.0682 18.2141 48.5462C18.2401 48.6259 18.2662 48.7055 18.2141 48.8117C17.7714 48.8117 17.3027 48.8117 16.834 48.8117C16.7039 48.8117 16.6518 48.7321 16.6257 48.6258C16.4955 48.1213 16.3393 47.6434 16.2352 47.1389C16.1831 46.9264 16.0789 46.8202 15.8706 46.8202C15.2196 46.8202 14.5947 46.8202 13.9437 46.8202C13.7354 46.8202 13.6573 46.8999 13.6052 47.1123C13.5011 47.5903 13.3449 48.0417 13.2407 48.4931C13.1626 48.7852 13.1365 48.8117 12.8241 48.8383C12.4335 48.8383 12.0429 48.8383 11.5742 48.8383ZM14.9332 42.2796C14.803 42.439 14.7509 42.5983 14.7249 42.731C14.6468 43.0762 14.5687 43.3949 14.4645 43.7401C14.3083 44.2446 14.1781 44.7756 14.0479 45.3067C13.9698 45.5722 14.0219 45.6519 14.3083 45.6519C14.6989 45.6519 15.0895 45.6519 15.48 45.6519C15.7925 45.6519 15.8185 45.5988 15.7144 45.3067C15.5581 44.696 15.4019 44.0852 15.2196 43.5011C15.1415 43.0762 15.0634 42.6779 14.9332 42.2796Z" fill="white"/>
<path d="M5.22159 41.8547C5.03932 42.1468 4.80497 42.3858 4.6227 42.6513C4.4925 42.8106 4.38835 42.7841 4.25816 42.6779C3.99777 42.4654 3.6853 42.3327 3.37284 42.253C2.98226 42.1468 2.59167 42.1468 2.22713 42.3327C1.70636 42.5716 1.6022 43.1293 2.01882 43.5276C2.25317 43.7665 2.56564 43.8462 2.85206 43.979C3.3468 44.1914 3.8155 44.3773 4.31023 44.6428C5.11743 45.0676 5.56009 45.7315 5.53405 46.6609C5.50802 47.6168 5.01328 48.2806 4.18004 48.6789C3.13849 49.1569 2.0709 49.0772 1.05539 48.5992C0.716884 48.4399 0.430457 48.254 0.144031 48.0151C-0.0382406 47.8557 -0.0382406 47.8026 0.0919532 47.6168C0.300263 47.3512 0.534612 47.0857 0.768961 46.7936C0.951232 46.7936 1.02935 46.9264 1.15954 47.006C1.75843 47.4309 2.38336 47.6699 3.11245 47.5637C3.6853 47.484 3.99777 47.1122 3.97173 46.6343C3.94569 46.2891 3.73738 46.0767 3.47699 45.9439C3.06037 45.7315 2.61771 45.5456 2.17505 45.3597C1.75843 45.1739 1.36785 44.9614 1.00331 44.6959C-0.0642794 43.9524 -0.0642794 42.1733 1.10746 41.3767C1.96674 40.7926 2.90414 40.7129 3.89361 41.0316C4.38835 41.1909 4.85705 41.4299 5.22159 41.8547Z" fill="white"/>
<path d="M63.0006 48.8115C62.584 48.8646 62.1934 48.8115 61.8289 48.8381C61.4383 48.8912 61.256 48.7319 61.0998 48.3867C60.7613 47.6432 60.3707 46.9262 60.0582 46.2093C60.0062 46.1031 59.9541 46.0234 59.876 45.8907C59.6416 46.1827 59.5635 46.5279 59.4073 46.8466C59.1208 47.4307 58.8344 48.0415 58.574 48.6522C58.5219 48.785 58.4438 48.8646 58.2876 48.8646C57.8449 48.8646 57.4023 48.8646 56.9596 48.8646C56.9336 48.8646 56.9075 48.8381 56.8555 48.8115C57.1159 48.2804 57.4023 47.7759 57.6627 47.2714C58.0272 46.5545 58.4178 45.8641 58.8084 45.1737C58.9386 44.9347 58.9386 44.7489 58.8084 44.5099C58.2616 43.5009 57.7147 42.4653 57.1679 41.4297C57.1159 41.3235 57.0638 41.2173 57.0638 41.1111C57.1159 41.0049 57.22 41.0314 57.2981 41.0314C57.6366 41.0314 58.0012 41.058 58.3397 41.0314C58.574 41.0049 58.7042 41.1111 58.8084 41.3235C59.1208 42.0404 59.4593 42.7308 59.7978 43.4212C59.8499 43.554 59.928 43.6602 59.9801 43.7929C60.1103 43.7133 60.1624 43.6071 60.2145 43.5009C60.5269 42.7574 60.8654 42.0139 61.1779 41.2704C61.256 41.1111 61.3602 41.0049 61.5685 41.0314C61.9851 41.058 62.4017 41.0314 62.8183 41.0314C62.8444 41.1907 62.7663 41.2969 62.7142 41.4031C62.1674 42.4653 61.6206 43.5009 61.0477 44.563C60.9175 44.802 60.8915 45.0144 61.0477 45.2534C61.6726 46.3421 62.2455 47.4573 62.8444 48.546C62.8965 48.5725 62.9225 48.6522 63.0006 48.8115Z" fill="white"/>
<path d="M40.6345 48.8381C40.5564 48.6522 40.5824 48.5195 40.5824 48.4132C40.5824 46.5545 40.5824 44.7223 40.5824 42.8636C40.5824 42.7839 40.5824 42.7043 40.5824 42.6246C40.6085 42.4122 40.5043 42.3325 40.3221 42.3325C39.8273 42.3325 39.3326 42.3325 38.8378 42.3325C38.4473 42.3325 38.4473 42.3325 38.4473 41.9342C38.4473 41.7218 38.4473 41.5094 38.4473 41.3235C38.4473 41.0314 38.4733 41.0314 38.7597 41.0049C38.916 41.0049 39.0982 41.0049 39.2545 41.0049C40.8168 41.0049 42.3791 41.0049 43.9414 41.0049C44.306 41.0049 44.332 41.0049 44.332 41.3766C44.332 41.5891 44.332 41.8015 44.332 42.0405C44.332 42.306 44.306 42.3325 44.0456 42.3325C43.5509 42.3325 43.0561 42.3325 42.5614 42.3325C42.1708 42.3325 42.1708 42.3325 42.1708 42.7308C42.1708 44.6161 42.1708 46.5014 42.1708 48.3867C42.1708 48.4664 42.1708 48.546 42.1708 48.6257C42.1708 48.7584 42.1187 48.8381 41.9885 48.8381C41.5198 48.8381 41.0772 48.8381 40.6345 48.8381Z" fill="white"/>
<path d="M8.16577 48.8381C8.08766 48.6522 8.11369 48.5195 8.11369 48.4132C8.11369 46.5545 8.11369 44.7223 8.11369 42.8636C8.11369 42.7839 8.11369 42.7043 8.11369 42.6246C8.13973 42.4122 8.03558 42.3325 7.85331 42.3325C7.35857 42.3325 6.86383 42.3325 6.3691 42.3325C5.97852 42.3325 5.97852 42.3325 5.97852 41.9342C5.97852 41.7218 5.97852 41.5094 5.97852 41.3235C5.97852 41.0314 6.00455 41.0314 6.29098 41.0049C6.44721 41.0049 6.62948 41.0049 6.78572 41.0049C8.34804 41.0049 9.91037 41.0049 11.4727 41.0049C11.8372 41.0049 11.8633 41.0049 11.8633 41.3766C11.8633 41.5891 11.8633 41.8015 11.8633 42.0405C11.8633 42.306 11.8372 42.3325 11.5768 42.3325C11.0821 42.3325 10.5874 42.3325 10.0926 42.3325C9.70206 42.3325 9.70206 42.3325 9.70206 42.7308C9.70206 44.6161 9.70206 46.5014 9.70206 48.3867C9.70206 48.4664 9.70206 48.546 9.70206 48.6257C9.70206 48.7584 9.64998 48.8381 9.51979 48.8381C9.05109 48.8381 8.60843 48.8381 8.16577 48.8381Z" fill="white"/>
<path d="M37.173 48.8115C36.7043 48.8115 36.2356 48.8115 35.7148 48.8115C35.7148 46.2093 35.7148 43.6336 35.7148 41.0049C36.1835 41.0049 36.6262 41.0049 37.0689 41.0049C37.173 41.0049 37.1991 41.0845 37.2251 41.1642C37.2251 41.2704 37.2251 41.3766 37.2251 41.4828C37.2251 43.793 37.2251 46.1297 37.2251 48.4398C37.2251 48.546 37.2511 48.6522 37.173 48.8115Z" fill="white"/>
<path d="M45.2448 42.5451C45.2708 41.1643 46.3905 40.1287 47.7705 40.2615C48.9162 40.3677 49.9057 41.3502 49.8276 42.7575C49.7495 44.3772 48.5257 45.1207 47.406 45.0676C46.1041 44.988 45.1667 43.8727 45.2448 42.5451ZM49.2027 42.2795C49.2547 42.0937 49.1506 41.9343 49.0725 41.8016C48.8381 41.2705 48.4475 40.9253 47.8747 40.8722C47.6664 40.8191 47.4841 40.8191 47.2758 40.8722C47.1977 40.8456 47.1196 40.8722 47.0415 40.8988C46.4165 41.1112 46.052 41.536 45.8957 42.1733C45.6874 43.1292 46.052 44.2976 47.2758 44.5366C48.083 44.6693 49.0985 44.1914 49.2027 43.0761C49.2287 42.784 49.2287 42.5185 49.2027 42.2795Z" fill="white"/>
<path d="M48.576 42.2C48.576 42.1204 48.576 42.0673 48.5499 41.9876C48.3676 41.6955 48.1593 41.5097 47.7948 41.4831C47.5084 41.4565 47.2219 41.4565 46.9095 41.4565C46.6491 41.4565 46.623 41.4831 46.623 41.7486C46.623 42.3328 46.623 42.9435 46.623 43.5277C46.623 43.7932 46.6491 43.8198 46.9095 43.8198C47.1699 43.8198 47.1959 43.7932 47.2219 43.5277C47.2219 43.448 47.2219 43.3684 47.2219 43.2887C47.2219 43.1825 47.248 43.0763 47.3782 43.0497C47.5084 43.0232 47.6125 43.0763 47.6646 43.1825C47.7427 43.2887 47.7688 43.3949 47.8469 43.5277C48.0291 43.8994 48.1593 43.926 48.5499 43.7667C48.5239 43.5277 48.3676 43.3684 48.2895 43.156C48.2374 43.0497 48.1333 42.917 48.3156 42.8108C48.3416 42.7577 48.3937 42.7046 48.4458 42.678H48.4718C48.4718 42.5983 48.5239 42.5452 48.576 42.5187C48.576 42.4656 48.576 42.439 48.602 42.3859C48.5499 42.3062 48.5499 42.2531 48.576 42.2ZM47.7948 42.4656C47.6646 42.6514 47.4563 42.6514 47.274 42.5718C47.3261 42.3859 47.3261 42.2 47.274 42.0142C47.3782 41.9345 47.4823 41.9611 47.5865 41.9876C47.6646 41.9611 47.6906 41.9876 47.7167 42.0407C47.8729 42.1469 47.925 42.3062 47.7948 42.4656Z" fill="white"/>
<path d="M48.4453 42.6513C48.4453 42.5716 48.4974 42.5185 48.5495 42.4919Z" fill="white"/>
<path d="M45.4291 23.2415H32.5582C31.196 21.8744 29.6928 20.6487 28.2836 19.3287C25.7 16.9244 23.1164 14.5672 20.4859 12.1629C20.251 11.9272 20.0161 11.6915 19.7813 11.4558H33.0749C33.4507 11.8329 33.8735 12.163 34.2023 12.493C37.6784 15.8401 41.1545 19.1401 44.6306 22.4872C44.9594 22.723 45.1943 23.0058 45.4291 23.2415Z" fill="white"/>
<path d="M46.0399 24.1843C45.9929 24.2786 45.9459 24.3729 45.852 24.5143C44.8655 25.74 43.926 26.9657 42.9396 28.1915C41.4364 30.0772 39.9332 31.9158 38.477 33.8015C38.0542 34.3672 37.5375 34.5558 36.8799 34.5558C32.981 34.5558 29.0352 34.5558 25.1364 34.5086C24.9015 34.5086 24.5727 34.5557 24.3848 34.4615L29.0822 28.8043L29.1761 28.6629C29.411 28.38 29.6459 28.0972 29.8807 27.8615C29.9747 27.7672 30.0217 27.6729 30.0686 27.5786L30.7732 26.73C30.9142 26.6829 31.0551 26.5886 31.196 26.4472C31.8537 25.6929 32.5113 25.0329 33.028 24.1843H46.0399Z" fill="white"/>
<path d="M40.1691 0.471334C40.1691 0.518477 40.1691 0.565614 40.1691 0.612757C40.1691 0.659899 40.1222 0.754197 40.1222 0.80134C40.1222 0.848482 40.0752 0.848488 40.0752 0.895631C40.0752 0.942774 40.0282 0.989894 40.0282 0.989894C39.9812 1.08418 39.8873 1.17848 39.8403 1.27277C39.6524 1.55563 33.4988 9.5699 32.7942 10.5128H19.2656C19.3596 10.3242 19.5005 10.1828 19.6414 10.0413C20.44 9.00419 21.2855 8.06134 22.0841 7.07134C23.7282 5.04419 25.4192 3.01704 27.0164 0.989894C27.4391 0.471322 27.9558 0.188488 28.6135 0.188488C32.1365 0.188488 35.6126 0.188488 39.1357 0.188488C39.5115 0.188488 39.8403 0.188477 40.1691 0.471334Z" fill="white"/>
<path d="M29.8352 26.3999L23.6816 33.8013C22.0375 32.1042 20.3934 30.4542 18.7493 28.7099C18.0447 27.9556 18.0447 27.9084 18.7024 27.1541C20.2525 25.3156 21.8496 23.4299 23.3998 21.5913C24.1514 20.6956 24.2453 20.6956 25.0439 21.497C26.688 23.147 28.2381 24.7499 29.8352 26.3999Z" fill="white"/>
<path d="M30.0683 27.5786C30.0213 27.6729 29.9743 27.7672 29.8804 27.8615C29.6455 28.1443 29.4107 28.38 29.1758 28.6629L30.0683 27.5786Z" fill="white"/>
<path d="M45.8993 6.93004C44.5841 8.67433 43.3158 10.3715 42.0944 12.1629C41.7656 12.6343 41.4838 12.6815 41.061 12.3043C39.4639 10.7486 37.7728 9.28719 36.2227 7.63719L41.2489 0.895763C42.7521 2.45148 44.2552 4.00719 45.7584 5.51576C46.2751 5.98719 46.3221 6.36433 45.8993 6.93004Z" fill="white"/>
<path d="M52.8997 5.98715C52.0072 5.84572 51.6784 4.99715 50.8798 5.04429C50.1752 5.09143 49.7994 5.89286 49.0479 5.98715C48.9539 5.46858 49.0479 5.0443 49.2358 4.66715C49.5646 4.00715 49.2827 3.58286 48.766 3.15858C48.4372 2.87572 47.8735 2.73429 47.9675 2.12143C48.2963 1.79143 48.719 1.93285 49.0948 1.93285C49.8464 1.97999 50.2692 1.65001 50.4101 0.895726C50.5041 0.518583 50.5041 0.0942857 51.0677 0C51.5845 0.471429 51.3496 1.41428 52.0072 1.79142C52.6179 2.16857 53.4164 1.69714 54.0271 2.12143C54.0271 2.78143 53.4634 2.87572 53.1346 3.15858C52.6179 3.58286 52.336 4.00715 52.6649 4.66715C52.8528 4.99716 52.9467 5.46858 52.8997 5.98715Z" fill="white"/>
<path d="M39.1818 2.1214L40.0274 1.03712C39.9804 1.1314 39.8865 1.22568 39.8395 1.31996C39.6046 1.64996 39.3697 1.93282 39.0879 2.26282L39.1818 2.1214Z" fill="white"/>
</svg>
