<svg width="65" height="54" viewBox="0 0 65 54" fill="none" xmlns="http://www.w3.org/2000/svg">
<path d="M13.4087 47.2394C13.4087 48.5078 13.4276 49.7763 13.4087 51.0639C13.3898 52.1786 12.6333 52.9665 11.5554 52.9665C10.7043 52.9665 9.79657 53.2164 9.13465 52.3515C8.83206 51.9672 8.64294 51.6212 8.64294 51.1023C8.66186 48.5078 8.66186 45.9325 8.64294 43.338C8.64294 42.7615 8.86989 42.3771 9.26703 42.0312C10.137 41.2816 11.8769 41.2816 12.7657 41.9927C13.2196 42.3579 13.4466 42.7807 13.4276 43.4149C13.3709 44.6833 13.4087 45.971 13.4087 47.2394ZM10.137 47.2394C10.137 48.2964 10.1181 49.3534 10.137 50.4105C10.1559 51.2561 10.345 51.4291 11.0447 51.4291C11.7067 51.4291 11.8958 51.0831 11.8958 50.4681C11.8769 48.3156 11.8769 46.1439 11.8958 43.9915C11.8958 43.3765 11.7067 43.0305 11.0447 43.0305C10.345 43.0305 10.1559 43.2227 10.137 44.0491C10.1181 45.1254 10.137 46.1824 10.137 47.2394Z" fill="white"/>
<path d="M56.0165 52.7551H54.5414L54.4847 48.7L52.9906 48.6808V52.6975L51.4398 52.7359C51.4398 52.7359 51.4777 52.1593 51.4777 51.7942C51.4588 49.1228 51.5533 46.4514 51.4398 43.78C51.3642 41.935 52.4611 41.6083 53.766 41.5315C55.2979 41.4354 55.9787 42.2618 55.9787 43.8761C55.9787 46.4706 55.9787 49.0459 55.9787 51.6404C55.9976 52.044 56.0165 52.7551 56.0165 52.7551ZM54.4847 47.2586C54.4847 47.2586 54.4847 44.9331 54.4847 43.8185C54.4847 43.2996 54.2199 43.0497 53.7093 43.0497C53.1797 43.0689 52.9717 43.3572 52.9717 43.8569C52.9717 44.9716 52.9717 47.297 52.9717 47.297L54.4847 47.2586Z" fill="white"/>
<path d="M61.7656 52.8895C60.9713 52.928 60.4418 52.9087 60.4418 52.9087V41.5121H61.4063C61.4063 41.5121 63.0705 41.3391 63.8648 41.7812C64.4322 42.0887 64.7726 42.4922 64.7537 43.1649C64.7537 44.3949 64.7537 45.6249 64.7537 46.8549C64.7537 47.1047 64.6402 47.4891 64.4133 47.6428C64.1863 47.7966 63.9783 47.9503 63.9783 47.9503C63.9783 47.9503 64.262 49.2188 64.3376 49.7569C64.4889 50.737 64.9995 52.8895 64.9995 52.8895H63.6757C63.6757 52.8895 63.5811 52.4283 63.4866 52.0631C63.2218 51.0061 62.976 49.9491 62.749 48.8728C62.7112 48.6999 62.6355 48.3731 62.6355 48.3731L61.7278 48.3924C61.7278 48.3924 61.7278 48.7767 61.7278 48.9689C61.7656 50.2758 61.7656 51.5442 61.7656 52.8895ZM61.8223 46.951C63.1651 47.1816 63.4866 46.9317 63.5055 45.7018C63.5055 45.2789 63.5244 44.8561 63.5055 44.4333C63.4677 43.2226 63.1083 42.8766 61.8223 43.0688C61.8223 44.2988 61.8223 45.7018 61.8223 46.951Z" fill="white"/>
<path d="M35.459 45.2022C35.459 46.4514 35.3833 52.9089 35.3833 52.9089H34.2108L34.2865 41.5891L35.5536 41.6083L37.18 46.4514V41.6468L38.5038 41.5891V52.8897C38.5038 52.8897 37.7095 52.8897 37.2178 52.9089C37.2178 52.1401 37.2178 49.8916 37.2178 49.8916C37.2178 49.8916 35.5536 45.183 35.459 45.2022Z" fill="white"/>
<path d="M22.7515 52.7935L21.2196 52.755C21.2196 52.755 20.0471 49.6993 19.6877 48.5269C19.5932 48.2386 19.4419 47.7966 19.1771 47.1047C19.1771 48.8536 19.1771 52.755 19.1771 52.755H17.6831C17.6831 52.755 17.6831 52.2169 17.6831 51.7172C17.6831 48.7191 17.6642 45.7018 17.6831 42.7037C17.6831 42.1848 17.6831 41.6659 17.6831 41.6659L19.1204 41.6274C19.1204 41.6274 19.1204 45.0676 19.1204 46.9126C19.4419 46.3168 20.7846 41.6659 20.7846 41.6659H22.2598C22.2598 41.6659 21.0872 45.8555 20.7846 47.0471C21.0683 47.9696 22.7515 52.7935 22.7515 52.7935Z" fill="white"/>
<path d="M26.4768 52.8511C26.4768 49.065 26.4768 41.6274 26.4768 41.6274L29.9188 41.5505L29.8998 43.0112H27.9898V46.3168L29.5783 46.3552L29.6162 47.8542L27.9898 47.9119V51.2752H29.8998C29.8998 51.2752 29.8809 52.3898 29.8998 52.8703C28.7273 52.8511 27.6115 52.8511 26.4768 52.8511Z" fill="white"/>
<path d="M45.7101 41.5122H47.1664C47.1664 41.5122 47.2231 48.085 47.2042 50.7564C47.2042 52.217 46.4477 52.9857 45.105 52.9473C44.5944 52.9473 44.0648 52.8896 44.0648 52.8896C44.0648 52.8896 44.0648 52.1401 44.0648 51.3906C44.2161 51.3906 44.3107 51.4482 44.4241 51.429C45.5399 51.2368 45.6912 51.0831 45.7101 50.0068C45.7291 47.6429 45.7101 41.5122 45.7101 41.5122Z" fill="white"/>
<path d="M4.29299 41.8582V43.0305H2.78004V52.7167L1.4373 52.7551C1.4373 52.7551 1.47512 47.2586 1.47512 44.8947C1.47512 43.8185 1.47512 43.1074 1.47512 43.1074L0.0189118 43.0497L3.60715e-08 41.8966L4.29299 41.8582Z" fill="white"/>
<path d="M38.9414 6.9187V9.80149H35.594V30.9804L32.6059 31.0573C32.6059 31.0573 32.6815 18.8727 32.6815 13.6068C32.6815 11.2237 32.6815 9.78227 32.6815 9.78227H29.4665L29.4098 6.95714L38.9414 6.9187Z" fill="white"/>
<path d="M38.0325 36.3808C38.0325 36.3808 43.9141 33.671 43.9141 29.8657C43.9141 24.9842 43.9141 18.4691 43.9141 18.4691C43.9141 18.4691 43.9141 11.954 43.9141 7.07245C43.9141 2.19092 38.0325 0 38.0325 0C43.1008 2.97888 42.5713 8.68681 42.5713 8.68681V28.2321C42.5713 28.2321 43.1198 33.3827 38.0325 36.3808Z" fill="white"/>
<path d="M30.033 36.3808C30.033 36.3808 24.1514 33.671 24.1514 29.8657C24.1514 24.9842 24.1514 18.4691 24.1514 18.4691C24.1514 18.4691 24.1514 11.954 24.1514 7.07245C24.1514 2.19092 30.033 0 30.033 0C24.9646 2.97888 25.4941 8.68681 25.4941 8.68681V28.2321C25.4752 28.2321 24.9457 33.3827 30.033 36.3808Z" fill="white"/>
</svg>
