<svg width="91" height="90" viewBox="0 0 91 90" fill="none" xmlns="http://www.w3.org/2000/svg">
<path d="M57.3061 0C41.8064 0 28.8071 10.7479 25.3706 25.2047C10.8308 28.5701 0 41.605 0 57.1758C0 75.3061 14.6939 90 32.8242 90C48.3239 90 61.3232 79.2521 64.7597 64.7953C79.2877 61.418 90.1185 48.3831 90.1185 32.8242C90.1185 14.6939 75.4246 0 57.3061 0ZM28.4516 28.2976C29.8736 28.0843 31.3311 27.9776 32.8124 27.9776C48.9401 27.9776 62.0105 41.0481 62.0105 57.1758C62.0105 58.7163 61.892 60.2212 61.6669 61.6906C60.2449 61.9039 58.7874 62.0105 57.3061 62.0105C41.1784 62.0105 28.108 48.9401 28.108 32.8242C28.108 31.2837 28.2265 29.767 28.4516 28.2976ZM32.8242 86.3739C16.6965 86.3739 3.62607 73.3035 3.62607 57.1758C3.62607 43.8683 12.5253 32.6465 24.6952 29.1271C24.553 30.3357 24.4937 31.5681 24.4937 32.8242C24.4937 50.9427 39.1876 65.6366 57.318 65.6366C58.503 65.6366 59.688 65.5774 60.8374 65.447C57.2587 77.5458 46.0724 86.3739 32.8242 86.3739ZM65.4352 60.8729C65.5774 59.6643 65.6366 58.4319 65.6366 57.1758C65.6366 39.0454 50.9427 24.3515 32.8124 24.3515C31.6274 24.3515 30.4424 24.4108 29.293 24.5411C32.8716 12.4424 44.0579 3.62607 57.3061 3.62607C73.4338 3.62607 86.5043 16.6965 86.5043 32.8242C86.5043 46.1198 77.605 57.3535 65.4352 60.8729Z" fill="white"/>
</svg>
