<svg width="98" height="90" viewBox="0 0 98 90" fill="none" xmlns="http://www.w3.org/2000/svg">
<path d="M81.6825 25.3857C81.6918 25.3795 81.6981 25.3733 81.7074 25.367C79.1268 24.3367 76.2629 23.8137 73.1065 23.8137C65.1126 23.8137 59.0767 26.9764 55.0051 33.2956H54.3202C54.5287 30.6683 54.6844 28.3866 54.7995 26.413C53.7785 26.4908 52.7544 26.5375 51.7272 26.5375C48.7886 26.5375 45.8282 26.2169 42.8865 25.5663C39.5339 24.8254 36.3401 23.683 33.3486 22.1794L35.8016 60.77C42.4787 62.6751 49.5014 61.4113 55.0237 57.6913C55.0175 57.3614 55.0051 57.047 55.0051 56.7077V54.8244C55.0797 48.7324 56.107 44.365 58.0867 41.7191C60.0666 39.07 63.2075 37.7501 67.5126 37.7501C69.3274 37.7501 70.9555 38.133 72.3968 38.8957C74.0435 33.582 77.2685 28.8379 81.6825 25.3857Z" fill="#F8A651"/>
<path d="M43.813 21.3825C47.5329 22.2043 51.2932 22.4315 54.9851 22.0953C54.9945 21.5848 55.0039 21.0992 55.0039 20.6727V0H31.9404L33.0268 17.1085C36.3265 19.0758 39.9498 20.5295 43.813 21.3825Z" fill="#4AD1A3"/>
<path d="M90.8104 32.6387C89.3567 30.634 87.7068 28.9779 85.8733 27.6581C80.7931 30.9889 77.2444 36.2123 75.9681 42.0895C76.0615 42.2171 76.158 42.3292 76.2483 42.4599C78.3806 45.6008 79.4483 50.3137 79.4483 56.5956C79.4483 62.8743 78.39 67.665 76.2763 70.9553C74.1657 74.2488 71.3175 75.8955 67.7407 75.8955C63.3236 75.8955 60.0955 74.4106 58.0597 71.4409C56.6589 69.3989 55.753 66.4105 55.3141 62.5256C51.286 64.742 46.7318 65.9405 42.0812 65.9405C40.0889 65.9405 38.078 65.7132 36.0889 65.2618L37.5893 88.8607H50.8938L53.8043 81.8349H55.0059C59.2705 87.2793 65.1508 90 72.6529 90C80.2266 90 86.2158 87.1081 90.6111 81.3213C95.0097 75.5344 97.2074 67.3693 97.2074 56.8228C97.2074 46.5814 95.0751 38.519 90.8104 32.6387Z" fill="#4AD1A3"/>
<path d="M5.76821 26.6308C12.9746 26.637 19.7576 24.7817 26.2074 21.7124C28.3678 20.682 30.3289 19.2252 32.3834 17.9645C33.1679 17.482 33.3733 16.8096 33.2987 15.8913C32.8037 9.97367 29.7375 5.48799 25.4635 1.66224C25.2923 1.5066 25.0215 1.45679 24.7008 1.3136C24.6791 1.68403 24.6199 1.92061 24.6634 2.13229C25.2954 5.31367 26.1514 8.411 28.0659 11.1099C28.3367 11.499 28.4768 11.9815 28.6791 12.4173L28.4332 12.6134C21.5382 9.12385 14.2384 8.10905 6.69277 8.57598C6.65229 8.78766 6.61181 8.99933 6.57133 9.21101C9.51611 10.59 12.4111 12.0967 15.4213 13.3045C18.4252 14.5123 21.5475 15.4181 24.6168 16.4578C15.2532 16.9964 6.74258 19.3777 0 26.3817C1.93934 26.5841 3.85381 26.6277 5.76821 26.6308Z" fill="#4AD1A3"/>
</svg>
