<svg width="84" height="100" viewBox="0 0 84 100" fill="none" xmlns="http://www.w3.org/2000/svg">
<path fill-rule="evenodd" clip-rule="evenodd" d="M74.1908 20.8589L45.0683 35.4082L38.8908 38.4667L32.7428 35.4082L3.59082 20.8589L38.8908 3.22977L74.1908 20.8589Z" fill="#FF99DF"/>
<path fill-rule="evenodd" clip-rule="evenodd" d="M74.1919 20.8588V49.9574L38.8918 67.5865V38.4667L45.0693 35.4081L74.1919 20.8588Z" fill="#FF99DF"/>
<path fill-rule="evenodd" clip-rule="evenodd" d="M38.8901 38.4667V67.5865L3.59009 50.4459V20.8588L32.742 35.4081L38.8901 38.4667Z" fill="#FF99DF"/>
<path fill-rule="evenodd" clip-rule="evenodd" d="M74.1919 46.4144V75.513L38.8918 93.1421V64.0222L45.0693 60.9637L74.1919 46.4144Z" fill="white"/>
<path fill-rule="evenodd" clip-rule="evenodd" d="M38.8901 64.0222V93.1421L3.59009 76.0015V46.4144L32.742 60.9637L38.8901 64.0222Z" fill="white"/>
<path d="M83.7032 20.5306C83.4966 20.064 83.3887 19.8577 83.2509 19.6577C83.185 19.564 83.1131 19.4765 83.0413 19.3869C82.8885 19.2036 82.7178 19.0327 82.529 18.8681C82.4392 18.789 82.3523 18.7098 82.2535 18.6369C81.9959 18.4432 81.7143 18.2702 81.4088 18.114C81.3788 18.0987 69.3614 12.3078 45.3566 0.741393C43.3048 -0.246089 40.5909 -0.248172 38.5391 0.741393L2.58502 18.0369C2.15369 18.2702 1.87512 18.4432 1.61751 18.6348C1.51567 18.7098 1.4288 18.7911 1.33894 18.8702C1.15023 19.0327 0.982489 19.2036 0.829724 19.3848C0.754839 19.4765 0.679954 19.564 0.614055 19.6598C0.476267 19.8556 0.368433 20.0619 0.278571 20.2744C0.0658986 20.8327 0 21.1431 0 21.4639V50.003V50.4738V79.0295C0 80.417 0.99447 81.7128 2.64793 82.4878L38.5777 99.2854C39.018 99.4938 39.5122 99.6438 40.0274 99.7646C40.1472 99.7917 40.2611 99.8188 40.3839 99.8417C40.8811 99.9354 41.3963 100 41.9355 100C42.4866 100 43.0108 99.9313 43.5201 99.8333C43.6399 99.8104 43.7537 99.7854 43.8705 99.7583C44.3857 99.6354 44.88 99.4792 45.3203 99.2688C45.3263 99.266 57.3158 93.4987 81.2889 81.967C82.9065 81.1878 83.871 79.9087 83.871 78.54V50.003C83.871 49.996 83.87 40.483 83.868 21.4639C83.868 21.1431 83.8021 20.8327 83.7032 20.5306ZM11.9786 29.4117L32.2574 39.1615C32.2604 39.1636 32.2634 39.1657 32.2664 39.1657L35.9537 40.9302V59.4757L32.9972 58.0924L11.9786 48.2572V29.4117ZM35.9447 88.0148L11.9816 76.8129V58.3028L35.9447 69.5151V88.0148ZM44.829 32.3075L41.9475 33.6845L39.0629 32.3012C39.0599 32.2992 39.0569 32.2991 39.0539 32.2971L16.5256 21.4618L41.9445 9.23499L67.3484 21.4639L44.829 32.3075ZM71.8864 29.418V47.8197L47.9383 59.3487V40.9344L51.6316 39.1699C51.6346 39.1699 51.6346 39.1678 51.6376 39.1657C51.6406 39.1636 51.6436 39.1636 51.6495 39.1615L71.8864 29.418ZM71.8894 76.3588L47.9263 87.8877V69.4881L71.8894 57.9529V76.3588Z" fill="#373A4C"/>
</svg>
