<svg width="175" height="84" viewBox="0 0 175 84" fill="none" xmlns="http://www.w3.org/2000/svg">
<path fill-rule="evenodd" clip-rule="evenodd" d="M108.449 0L67.7162 84H64.6994L105.433 0H108.449ZM113.711 27.807C113.711 25.4548 114.616 23.542 116.423 22.0712C118.283 20.6011 120.669 19.8658 123.583 19.8658C125.494 19.8658 127.328 20.0618 129.086 20.4538C130.895 20.8458 133.005 21.6052 135.417 22.734L134.061 25.2335C131.85 24.1547 129.966 23.3953 128.408 22.954C126.85 22.5619 125.267 22.3659 123.66 22.3659C121.499 22.3659 119.815 22.8566 118.609 23.8367C117.354 24.8168 116.725 26.1162 116.725 27.7336C116.725 29.3024 117.227 30.6505 118.233 31.7779C119.288 32.8567 121.624 34.4248 125.243 36.4836C128.509 38.3471 130.87 39.9398 132.327 41.2633C133.835 42.636 134.94 44.1068 135.644 45.6756C136.295 47.2443 136.623 49.1318 136.623 51.338C136.623 55.701 135.392 59.1566 132.931 61.7061C130.468 64.2063 127.025 65.4557 122.605 65.4557C118.334 65.4557 114.916 64.2549 112.353 61.8541C109.841 59.4999 108.585 56.339 108.585 52.3661C108.585 48.6405 109.665 45.6023 111.827 43.2495C113.936 40.8473 117.327 39.0578 122.001 37.8811C118.886 36.1656 116.725 34.5475 115.52 33.0274C114.313 31.4592 113.711 29.7191 113.711 27.807ZM147.331 22.9051L158.942 40.8435L170.703 22.9051H173.946L160.601 42.9752L175 64.8831H171.608L158.866 45.3282L145.898 64.8831H142.583L157.057 42.9752L143.939 22.9051H147.331ZM117.98 41.5539C116.471 42.2886 115.262 43.1704 114.357 44.1981C113.451 45.1779 112.772 46.3541 112.319 47.7242C111.817 49.0956 111.565 50.6382 111.565 52.3512C111.565 55.5363 112.571 58.0819 114.583 59.9928C116.594 61.9011 119.287 62.8568 122.657 62.8568C126.127 62.8568 128.82 61.8784 130.73 59.9182C132.643 57.9094 133.598 55.0214 133.598 51.2509C133.598 48.704 132.893 46.5007 131.485 44.6397C130.127 42.7788 127.788 41.0397 124.468 39.4232C121.601 40.1093 119.439 40.8193 117.98 41.5539ZM20.5013 20.4538C22.3101 20.8458 24.4196 21.6052 26.8325 22.734L25.4754 25.2335C23.264 24.1547 21.38 23.3953 19.8227 22.954C18.2653 22.5619 16.682 22.3659 15.0741 22.3659C12.914 22.3659 11.2302 22.8566 10.0248 23.8367C8.76743 24.8168 8.1408 26.1162 8.1408 27.7336C8.1408 29.3024 8.64238 30.6505 9.64827 31.7779C10.7027 32.8567 13.0397 34.4248 16.6574 36.4836C19.9231 38.3471 22.2848 39.9398 23.741 41.2633C25.2492 42.636 26.3548 44.1068 27.058 45.6756C27.7113 47.2443 28.0379 49.1318 28.0379 51.338C28.0379 55.701 26.8065 59.1566 24.3451 61.7061C21.883 64.2063 18.4403 65.4557 14.019 65.4557C9.74804 65.4557 6.33127 64.2549 3.76869 61.8541C1.256 59.4999 0 56.339 0 52.3661C0 48.6405 1.08039 45.6023 3.24113 43.2495C5.35132 40.8473 8.74279 39.0578 13.4162 37.8811C10.3008 36.1656 8.14074 34.5475 6.93396 33.0274C5.72785 31.4593 5.12513 29.7191 5.12513 27.807C5.12513 25.4548 6.02988 23.542 7.83871 22.0712C9.6981 20.6011 12.0844 19.8658 14.9989 19.8658C16.9082 19.8658 18.7423 20.0618 20.5013 20.4538ZM9.43854 41.5539C7.92941 42.2886 6.72263 43.1704 5.81618 44.1981C4.9111 45.1779 4.2318 46.3541 3.77961 47.7242C3.27611 49.0956 3.02503 50.6382 3.02503 52.3512C3.02503 55.5363 4.03066 58.0819 6.0433 59.9928C8.05457 61.9011 10.7465 62.8568 14.1171 62.8568C17.5876 62.8568 20.2789 61.8784 22.1903 59.9182C24.1017 57.9094 25.0581 55.0214 25.0581 51.2509C25.0581 48.704 24.3534 46.5007 22.9449 44.6397C21.5869 42.7788 19.2472 41.0397 15.928 39.4232C13.0609 40.1093 10.8971 40.8193 9.43854 41.5539ZM66.0991 22.9051L51.7684 48.6371V64.8831H48.6745V48.8564L34.2686 22.9051H37.7379L50.2597 45.8428L62.8554 22.9051H66.0991Z" fill="white"/>
</svg>
