<svg width="91" height="90" viewBox="0 0 91 90" fill="none" xmlns="http://www.w3.org/2000/svg">
<path d="M87.6662 60.9031C73.8216 60.9031 59.912 60.9031 45.4823 60.9031C45.4823 70.9096 45.4823 80.3997 45.4823 89.8253C33.7176 91.3101 13.3082 83.3694 4.2734 64.5183C-4.69637 45.7318 0.828485 22.2971 17.3381 9.57906C34.3026 -3.52632 58.482 -3.26808 75.1216 10.8702C90.1362 23.5237 94.8161 45.2799 87.6662 60.9031ZM17.6631 44.3115C36.2526 44.3115 54.4521 44.3115 73.1066 44.3115C72.7166 35.0797 68.8817 27.9782 61.7969 22.9427C52.5022 16.2931 42.4274 15.5184 32.2227 21.0705C23.1229 25.9124 18.638 33.7885 17.6631 44.3115Z" fill="white"/>
</svg>
