<svg width="145" height="85" viewBox="0 0 145 85" fill="none" xmlns="http://www.w3.org/2000/svg">
<path d="M117.86 70.6515H108.079C104.037 65.1546 99.9954 59.6577 95.7515 53.9183C91.7096 59.5769 87.8699 65.0738 83.9493 70.6111H74.3701C80.0691 62.7699 85.566 55.1713 91.1438 47.5322C86.051 40.5398 80.9987 33.6282 75.7443 26.3529H85.5256C89.0824 31.2435 92.7605 36.2554 96.5598 41.5098C100.238 36.2959 103.754 31.3244 107.23 26.3125H116.809C111.474 33.7091 106.382 40.7419 101.168 47.9364C106.624 55.4138 112.121 62.8508 117.86 70.6515Z" fill="white"/>
<path d="M125.58 85.0001C123.883 83.1812 122.266 81.4837 120.771 79.9073C142.273 54.9692 142.354 30.0714 120.892 4.97155C122.428 3.51649 124.166 1.81891 125.944 0.121338C150.842 22.3111 151.731 61.3553 125.58 85.0001Z" fill="white"/>
<path d="M8.64955 11.2363V32.941H34.2344V40.2164H8.56871V70.5706H0V3.71851H37.7912C37.185 6.18403 36.5787 8.60914 35.9724 11.2363H8.64955Z" fill="white"/>
<path d="M35.9724 11.2363C26.7166 11.2363 17.7841 11.2363 8.68996 11.2363C8.68996 18.4712 8.68996 25.5849 8.68996 32.941C17.1374 32.941 25.6253 32.941 34.2748 32.941C34.2748 35.447 34.2748 37.7104 34.2748 40.2164C25.787 40.2164 17.3395 40.2164 8.60913 40.2164C8.60913 50.4422 8.60913 60.4256 8.60913 70.5706C5.61816 70.5706 2.91013 70.5706 0.0404184 70.5706C0 48.3 0 26.1103 0 3.71851C12.4893 3.71851 24.9382 3.71851 37.7912 3.71851C37.185 6.18403 36.5787 8.60914 35.9724 11.2363Z" fill="white"/>
<path d="M71.6618 79.4627C69.8025 81.4027 68.1454 83.1003 66.4882 84.8383C42.2371 63.5378 39.5695 24.4532 66.3265 0C68.0241 1.77841 69.7217 3.5164 71.5809 5.45649C61.0721 15.3186 55.454 27.7675 55.4944 42.5202C55.5348 57.1921 61.1934 69.5601 71.6618 79.4627Z" fill="white"/>
<path d="M125.58 85.0001C123.883 83.1812 122.266 81.4837 120.771 79.9073C142.273 54.9692 142.354 30.0714 120.892 4.97155C122.428 3.51649 124.166 1.81891 125.944 0.121338C150.842 22.3111 151.731 61.3553 125.58 85.0001Z" fill="white"/>
</svg>
