<svg width="90" height="90" viewBox="0 0 90 90" fill="none" xmlns="http://www.w3.org/2000/svg">
<path d="M44.6762 90C38.5251 90 32.6979 88.7003 27.1943 86.426C21.6906 84.1516 17.1583 80.9025 12.9497 77.0036C9.06472 73.1047 5.8273 68.2311 3.5612 62.7076C1.29494 57.1841 0 51.3357 0 45.1625C0 38.9892 1.29494 33.1408 3.5612 27.6173C5.8273 22.0939 9.06472 17.2202 12.9497 13.3213C16.8345 9.42239 21.6906 6.17328 27.1943 3.57401C32.6979 1.29965 38.5251 0 44.6762 0C51.7986 0 58.5971 1.62456 64.4245 4.54872C64.4245 4.54872 64.7482 4.54872 64.7482 4.87367V5.19857C64.4245 5.52347 64.1008 6.17328 63.777 7.14803C63.4532 8.12273 62.8058 9.09748 62.1583 10.0722C61.5112 11.0463 60.8632 12.0223 60.5396 12.9964C59.8922 13.9711 59.5684 14.621 59.5684 14.621V14.9459C58.9209 14.9459 58.5971 14.9459 58.2735 14.621C54.0647 12.6715 49.8561 11.6967 45 11.6967C40.4676 11.6967 36.2591 12.6715 32.3741 14.2961C28.4893 15.9206 24.9281 18.5199 22.0144 21.444C19.1008 24.3682 16.5107 27.9423 14.892 31.8412C13.2735 35.7401 12.3021 40.2888 12.3021 44.5126C12.3021 49.0614 13.2735 53.2852 14.892 57.1841C16.5107 61.083 19.1008 64.6571 22.0144 67.5812C24.9281 70.5054 28.4893 72.7798 32.3741 74.7292C36.2591 76.3538 40.4676 77.3285 45 77.3285C49.5324 77.3285 53.7411 76.3538 57.6259 74.7292C61.5109 73.1047 65.0719 70.5054 67.9856 67.5812C70.8994 64.6571 73.1655 61.083 75.108 57.1841C76.7267 53.2852 77.6979 49.0614 77.6979 44.5126C77.6979 42.8891 77.3744 40.9412 77.051 38.993C76.8688 37.8957 76.5834 36.8976 76.3115 35.9483C76.1003 35.211 75.8969 34.5008 75.7554 33.7906L73.813 28.917C73.1655 27.2924 72.1943 25.9928 71.5468 25.3429L71.223 25.018C71.223 24.8556 71.304 24.7744 71.385 24.6931C71.466 24.6119 71.5468 24.5307 71.5468 24.3682C72.1943 23.8809 72.7609 23.3123 73.287 22.7843C73.813 22.2563 74.2986 21.7689 74.7842 21.444C75.2698 21.1191 75.6745 20.713 76.0791 20.3069C76.4837 19.9007 76.8885 19.4946 77.3741 19.1697L78.6692 17.87C78.6692 17.87 78.9928 17.87 78.9928 17.5451L79.9641 16.5704H80.2879C81.2591 17.5451 82.2302 18.8448 83.5251 20.7942C84.8203 22.7437 85.7914 25.3429 86.7626 27.9423C87.7332 30.5395 88.3802 33.4612 89.0273 36.3832L89.0288 36.3899C89.6764 39.3141 90 42.2383 90 44.8375C90 51.0108 88.7051 56.8592 86.439 62.3827C84.1727 67.9062 80.9353 72.4549 76.7267 76.6787C72.8417 80.5776 67.9856 83.8267 62.4821 86.1011C56.6548 88.7003 50.8273 90 44.6762 90Z" fill="#ED476D"/>
<path d="M36.5835 33.1406C35.9361 33.1406 35.6124 33.7905 35.6124 34.1154V40.2887C35.6124 40.9385 36.2599 41.2634 36.5835 41.2634H54.0656V33.1406H36.5835Z" fill="#ED476D"/>
<path d="M35.2884 49.3861C35.2884 48.7362 35.936 48.0864 36.5834 48.0864H54.0654V57.1839H36.5834C35.936 57.1839 35.2884 56.5341 35.2884 55.8843V49.3861Z" fill="#ED476D"/>
</svg>
