<svg width="91" height="90" viewBox="0 0 91 90" fill="none" xmlns="http://www.w3.org/2000/svg">
<path d="M89.9989 34.2007C90.2117 33.7041 90.2472 33.0301 90.0698 32.5335C89.1121 29.8021 88.1188 27.1062 87.0901 24.4102C86.9128 23.9491 86.558 23.3815 86.1324 23.2396C82.9398 22.0336 79.7473 20.8984 76.5192 19.7278C75.5615 19.3731 74.0716 18.2025 73.646 16.89C72.3335 12.8106 71.2338 9.90188 69.8858 5.82252C69.6021 4.9357 69.07 4.47456 68.2186 4.19078C65.5582 3.23301 62.8623 2.31072 60.2373 1.24654C58.9248 0.714451 57.7897 0.820869 56.5126 1.38843C53.6039 2.70092 50.6596 3.94247 47.7154 5.11307C47.1124 5.36138 46.1901 5.3259 45.587 5.0776C41.9334 3.55227 38.2442 1.956 34.5905 0.288779C33.6682 -0.136894 32.9588 -0.0659485 32.1074 0.324251C29.5179 1.45938 26.8929 2.52356 24.3389 3.72963C23.7713 3.97794 23.2392 4.58098 22.9555 5.14854C21.3592 8.51845 19.8339 11.8884 18.3795 15.2937C17.9538 16.3224 17.3508 16.89 16.3221 17.2802C13.2359 18.4153 10.1853 19.6924 7.06368 20.8275C5.96402 21.2177 5.29004 21.8207 4.86437 22.9204C3.90661 25.4035 2.77148 27.7801 1.84919 30.2632C1.60088 30.9017 1.60088 31.7531 1.81372 32.4271C2.84243 35.3004 4.01303 38.1382 5.04173 41.0469C5.25457 41.65 5.25457 42.4304 5.04173 43.0334C3.51641 46.829 1.92014 50.6246 0.252918 54.4201C-0.101809 55.2005 -0.0663365 55.8036 0.252918 56.584C1.45899 59.5282 2.62959 62.5079 3.69377 65.4876C4.01303 66.4099 4.54512 66.8711 5.46741 67.2258C8.94373 68.5738 12.3846 69.9927 15.79 71.4825C16.4639 71.7663 17.1025 72.4757 17.3862 73.1497C18.8761 76.8034 20.2595 80.5281 21.643 84.2172C21.9977 85.175 22.5653 85.778 23.523 86.1327C25.6869 86.9486 27.7797 87.8354 29.9081 88.7577C31.0078 89.2189 32.0365 89.2543 33.1361 88.7577C36.3287 87.3388 39.5212 85.9554 42.7492 84.6429C43.3168 84.3946 44.1681 84.2882 44.7002 84.5365C48.4603 86.1327 52.1495 87.8354 55.8741 89.5027C56.3353 89.7155 56.8674 89.8574 57.2576 89.9993C57.7187 89.8574 58.0734 89.8219 58.3927 89.68C60.7339 88.7223 63.0751 87.6936 65.4163 86.7713C66.4095 86.3811 67.048 85.778 67.4737 84.7848C68.8217 81.6277 70.276 78.5416 71.5885 75.3845C72.0142 74.3558 72.6172 73.7882 73.646 73.398C77.3351 71.9437 80.5277 70.4183 84.2168 68.964C85.1391 68.6092 85.8131 68.1126 86.2033 67.1194C87.0901 64.9201 88.6509 62.7917 89.3604 60.5569C89.6796 59.5282 89.6087 58.2157 89.2185 57.187C88.1543 54.3137 86.8773 51.5114 85.6357 48.709C85.0682 47.432 85.0327 46.2969 85.6003 44.9844C87.1256 41.4371 88.58 37.8189 89.9989 34.2007ZM54.7035 5.46779C56.2289 4.86476 57.4349 5.3259 58.9603 5.858C60.8758 6.53198 62.8268 7.09954 64.7778 7.80899C65.168 7.95089 65.6291 8.30561 65.8065 8.69581C66.3741 9.86641 67.2254 12.314 67.2254 12.314C67.2254 12.314 69.1764 17.2447 69.1409 17.3866C68.5379 17.2802 61.7271 14.3005 58.9603 13.1299C58.6055 12.988 58.038 12.988 57.6478 13.1654C55.3775 14.2296 42.359 19.3376 42.359 19.3376C42.359 19.3376 41.153 21.0758 40.479 22.1754C40.479 22.1754 39.7695 23.5234 39.4857 24.3038C38.6344 26.5386 37.7121 28.7734 36.8253 30.9727L33.1007 39.8763C31.1851 44.4168 29.1987 48.9573 27.2831 53.5333C27.1058 53.9945 26.7865 54.3847 26.5382 54.8103C26.3963 54.7749 26.2899 54.7749 26.148 54.7394C25.9352 53.8526 25.7933 52.9303 25.4385 52.1144C25.0129 51.0502 24.3744 50.1279 23.8777 49.0992C22.9909 47.2547 21.8913 45.552 22.8845 43.2462C26.751 34.0588 30.5466 24.8359 34.2712 15.5775C34.8033 14.265 35.5837 13.4846 36.8962 12.9525C42.7492 10.6823 48.8505 7.84447 54.7035 5.46779ZM42.1462 25.4035C48.0347 27.8866 53.7103 30.2632 59.4569 32.6754L56.0515 40.7986L38.6699 33.5622L41.7915 26.042C41.9688 25.8291 42.0398 25.6163 42.1462 25.4035ZM53.5684 46.829L52.6106 49.0992C52.3269 49.6313 52.0431 50.1279 51.9367 50.6955L51.4046 52.008L34.0229 44.7716L37.3219 36.8966L54.7035 44.1331L54.5262 44.5233C54.2069 45.3037 53.8877 46.084 53.5684 46.829ZM29.5179 55.5907L32.5686 48.2834C38.3506 50.731 43.9908 53.1076 49.8083 55.5198C48.6377 58.3221 47.5735 60.8407 46.4384 63.5366C45.9063 63.3947 45.1614 63.2883 44.4874 63.0045C40.0533 61.1245 35.6192 59.1735 31.1851 57.258C30.05 56.7968 29.5534 56.3357 29.5179 55.5907ZM17.1025 27.5318C19.9403 21.3241 22.5298 14.9745 25.1902 8.66034C25.7578 7.2769 26.9639 6.81576 28.1699 6.39009C28.4183 6.31914 31.3625 4.61645 33.5263 4.19078C34.6614 3.97794 35.1226 4.5455 35.9385 4.86476C37.6412 5.57421 39.3084 6.31914 40.9756 7.06407C41.1884 7.13501 41.3303 7.31238 41.8269 7.6671C39.6276 8.62487 35.6547 10.2921 35.6547 10.2921C35.6547 10.2921 33.4554 11.2498 32.9942 11.7819C32.1429 12.7397 31.1142 14.0877 30.724 15.1518C27.5314 23.417 24.0551 31.5757 20.6852 39.7699C20.6497 39.8763 20.5078 39.9118 20.2595 40.1601C19.7984 39.3442 19.3372 38.5993 18.947 37.7834C18.344 36.4709 17.7055 35.123 17.2443 33.7395C16.9251 32.7818 16.393 31.15 16.2866 30.1568C16.1802 29.0926 16.5704 28.7024 17.1025 27.5318ZM5.89308 31.6112C6.49612 30.547 7.77313 28.1349 7.77313 28.1349C7.77313 28.1349 8.80184 25.5808 9.47582 24.5876C9.97244 23.8427 11.888 23.3106 11.888 23.3106C11.888 23.3106 15.5417 21.7143 16.3575 21.1113C16.0737 21.9271 15.6835 23.0623 15.2579 24.1974C14.6548 25.7227 14.0873 27.2835 13.3778 28.7734C12.9167 29.7311 13.0231 30.5115 13.4488 31.4693C16.996 39.9118 20.5078 48.3543 24.0196 56.7968C24.1615 57.1515 24.2679 57.5772 24.4098 58.0384C22.9555 58.4286 22.8845 58.2867 20.898 57.187C20.6497 57.0451 16.1447 55.5198 14.2646 54.7749C13.839 54.5975 13.3778 54.0299 13.3423 53.6043C13.2005 51.334 11.9589 49.5249 11.1076 47.5384C10.3272 45.6939 9.72413 43.8138 8.94373 42.0047C7.80861 39.4507 7.13462 36.7547 6.03497 34.2007C5.46741 33.1365 5.36099 32.498 5.89308 31.6112ZM14.5839 66.5163C12.5619 65.665 6.7799 63.5366 6.7799 63.5366L4.08397 56.9032C3.90661 56.4776 3.94208 55.9809 4.19039 55.5553C5.25457 53.7107 7.80861 47.7867 8.16333 47.3965C8.83731 48.8864 10.7883 53.8171 11.3913 55.2715C11.817 56.3357 12.491 56.9742 13.5552 57.4353C21.8203 60.7698 30.05 64.1751 38.2797 67.5805C38.8118 67.7934 39.2729 68.0771 40.1597 68.5383C39.2374 68.9285 38.6699 69.2123 38.1023 69.4251C35.903 70.3119 33.7392 71.1987 31.5399 72.121C30.2628 72.6886 29.0922 72.5822 27.7797 72.0146C23.4166 70.1346 18.9825 68.3609 14.5839 66.5163ZM39.3084 81.202C37.8185 81.8405 31.7527 84.3591 31.4689 84.2882C31.0432 84.1817 24.7291 82.5145 24.197 81.9824C23.9842 81.7696 21.0754 73.0078 20.295 72.4758C20.4014 72.2984 23.523 73.6818 23.594 73.5045C25.3676 74.2139 27.1767 74.8879 28.9149 75.7038C29.9436 76.2004 30.8304 76.2359 31.93 75.7392C36.577 73.6818 41.2594 71.7308 45.9418 69.7798C47.1833 69.2832 48.0347 68.6447 48.5667 67.2613C49.1343 65.7359 49.7373 64.2106 50.3404 62.6853H50.3759L62.3656 33.9879C62.4721 34.0943 62.6139 34.2362 62.7913 34.3781C62.8268 34.4135 62.8623 34.449 62.8623 34.4845L66.6933 43.7783C66.7643 44.3459 66.7288 44.9844 66.5514 45.481C62.7204 54.8103 58.7829 64.1042 54.9518 73.469C54.4552 74.6396 53.7812 75.3845 52.5752 75.8457C48.1411 77.5838 43.707 79.3575 39.3084 81.202ZM72.5108 60.5214C70.2406 66.0197 65.2035 81.0247 63.217 82.1243C61.0531 83.3304 56.1579 85.9909 56.1579 85.9909C56.1579 85.9909 49.0634 82.8693 47.8218 82.1953C47.5735 82.0534 47.2897 81.947 46.8286 81.7341C47.2897 81.4149 47.538 81.1311 47.8573 80.9892C50.5532 79.8186 53.2491 78.6125 55.9805 77.4774C56.8674 77.1227 57.3995 76.6261 57.7542 75.7038C60.4856 68.7866 63.3234 61.9049 66.0903 54.9877C66.445 54.1009 66.7643 53.2141 67.119 52.3627C67.0835 52.4337 67.0126 52.5046 66.9771 52.5756L68.5734 48.4607C68.7152 48.6736 71.6595 55.7326 71.6595 55.7326C71.9433 56.4776 72.2271 57.2225 72.4044 58.0029C72.6527 58.8188 72.7946 59.812 72.5108 60.5214ZM84.6425 58.8188C83.8266 60.5214 81.7337 65.4876 81.7337 65.4876C81.7337 65.4876 74.852 68.6447 73.0784 68.9285C73.646 67.4032 75.3486 61.5502 76.0936 60.0248C76.7321 58.6769 76.2709 57.6836 75.5615 56.6549L64.7778 30.4406C65.3099 30.4761 65.842 30.7244 66.3741 30.9372C68.9281 31.9659 71.4821 33.0656 74.0716 34.0943C75.0294 34.4845 75.597 35.0875 75.9517 36.0453C78.3284 41.9692 80.7405 47.8577 83.1881 53.7462C83.8266 55.2715 85.3874 57.258 84.6425 58.8188ZM82.3368 38.2801C81.8756 39.4861 81.0952 42.2175 80.9533 42.253C80.6696 41.8983 78.3638 36.3645 77.3706 33.9169C76.9804 32.9237 76.3419 32.3206 75.3486 31.895C67.2963 28.6315 59.2795 25.368 51.2627 22.069C50.4823 21.7498 49.7019 21.3241 48.9569 20.9339C48.9569 20.7211 48.9569 20.5082 48.9215 20.2954C52.4333 18.8765 55.9451 17.4221 59.4923 16.0387C59.7761 15.9322 60.2018 16.1451 60.5211 16.2515C65.8774 18.5218 71.3402 20.6856 76.5902 23.2396C78.151 23.9846 80.705 24.4812 82.0885 25.9001C83.2236 27.0707 84.8199 32.4625 84.8199 32.4625C84.8199 32.4625 82.5851 37.6061 82.3368 38.2801Z" fill="white"/>
</svg>
