<svg width="88" height="60" viewBox="0 0 88 60" fill="none" xmlns="http://www.w3.org/2000/svg">
<path d="M87.6732 1.81284C90.4221 39.8037 65.1888 57.8475 42.5635 59.8211C21.5593 61.6537 1.82385 49.2485 0.132233 30.0064C-1.27744 14.1475 8.87222 7.31058 16.8369 6.67622C25.013 5.97138 31.85 11.3986 32.4843 18.0241C33.0482 24.3677 28.9601 27.328 26.0703 27.5395C23.8148 27.7509 20.9955 26.4117 20.7135 23.5924C20.5021 21.1254 21.4888 20.8435 21.2069 18.2356C20.784 13.5836 16.6255 13.0903 14.37 13.3017C11.6211 13.5132 6.61673 16.6849 7.25109 24.4381C7.95593 32.2619 15.7092 38.4644 25.8589 37.5482C36.8543 36.5614 44.5371 28.3148 45.1009 16.6849C45.1009 16.0506 45.2419 15.4867 45.5239 14.9228C45.6648 14.7114 45.7353 14.4999 45.9468 14.2885C46.2287 13.8656 46.5106 13.5131 46.863 13.1607C47.145 12.8788 47.4974 12.5264 47.8498 12.174C52.6427 7.80396 69.9818 -2.62766 86.2635 0.614603C86.4045 0.614603 86.5455 0.685096 86.616 0.75558C87.2503 0.75558 87.6027 1.24897 87.6732 1.81284Z" fill="white"/>
</svg>
