<svg width="84" height="90" viewBox="0 0 84 90" fill="none" xmlns="http://www.w3.org/2000/svg">
<path d="M62.7016 47.8167C58.7365 47.8167 55.0403 48.8897 51.8817 50.7675L46.1021 43.994C48.1183 41.7809 49.3279 38.8301 49.3279 35.611C49.3279 33.1967 48.6559 30.9836 47.4462 29.0387L57.1236 17.772C58.4677 18.5097 60.0134 18.9121 61.6935 18.9121C66.9354 18.9121 71.1693 14.687 71.1693 9.45604C71.2365 4.22504 67.0026 0 61.7607 0C56.5188 0 52.2849 4.22504 52.2849 9.45604C52.2849 11.4009 52.8898 13.1446 53.8306 14.62L44.3548 25.6185C42.2715 24.0089 39.6505 23.07 36.8279 23.07C34.3414 23.07 32.0564 23.8077 30.1075 25.0149L25.9408 20.1192C26.6129 19.0462 27.0161 17.772 27.0161 16.3636C27.0161 12.4739 23.8575 9.32191 19.9597 9.32191C16.0618 9.32191 12.9032 12.4739 12.9032 16.3636C12.9032 20.2534 16.0618 23.4054 19.9597 23.4054C20.7661 23.4054 21.5054 23.2712 22.2446 23.003L26.6801 28.234C25.2016 30.313 24.3279 32.7943 24.3279 35.544C24.3279 36.0805 24.3951 36.617 24.4624 37.1535L16.1962 42.9881C14.4489 41.2444 12.0968 40.2384 9.4758 40.2384C4.23387 40.2384 0 44.4635 0 49.6945C0 54.9255 4.23387 59.1505 9.4758 59.1505C14.7177 59.1505 18.9516 54.9255 18.9516 49.6945C18.9516 48.7556 18.8172 47.8167 18.5484 46.9449L25.9408 41.7139C28.0914 45.4694 32.1908 48.0849 36.8279 48.0849C38.8441 48.0849 40.6586 47.6155 42.3387 46.8107L48.1183 53.5842C44.086 57.4069 41.5322 62.839 41.5322 68.8748C41.5322 80.544 51.008 90 62.7016 90C74.3951 90 83.8709 80.544 83.8709 68.8748C83.8709 57.2057 74.3279 47.8167 62.7016 47.8167Z" fill="white"/>
</svg>
