<svg width="66" height="90" viewBox="0 0 66 90" fill="none" xmlns="http://www.w3.org/2000/svg">
<path fill-rule="evenodd" clip-rule="evenodd" d="M64.8991 43.1693C64.9227 43.2873 64.9463 43.4053 64.9463 43.5468C65.135 46.4725 64.8519 49.3038 64.1913 52.0407C63.5306 55.7214 62.2094 59.2134 60.2274 62.4222C58.0568 66.0085 55.603 69.123 52.2998 71.7655C46.7315 76.1068 40.5971 78.7494 33.6132 79.3157C32.2919 79.41 31.1594 79.9763 30.31 81.2032C29.6493 82.147 28.9887 82.9964 28.1393 83.8457C25.7799 86.2052 22.9486 87.8096 19.8341 88.7533C19.7729 88.7687 19.7092 88.784 19.6438 88.7997C19.306 88.8808 18.9235 88.9727 18.6072 89.1309H18.5129C18.4053 89.1739 18.3026 89.2169 18.2026 89.2589C17.8639 89.4008 17.5559 89.5299 17.1916 89.6027C15.0209 90.2634 12.7559 90.0746 10.9627 89.2252C12.4726 85.1674 13.9825 81.2038 15.4924 77.2403L15.4928 77.2394C15.6816 76.5787 15.5872 76.1069 15.1153 75.635C14.8322 75.3518 14.4547 75.0687 14.0772 74.7856C13.8884 74.644 13.6996 74.4789 13.5109 74.3137C13.3221 74.1485 13.1334 73.9834 12.9446 73.8418C12.623 73.5845 12.2959 73.33 11.9676 73.0744C10.3687 71.8302 8.73959 70.5623 7.56515 68.8398C7.09326 68.0848 6.527 67.2354 5.96074 66.4804C5.70907 66.0714 5.44691 65.673 5.18476 65.2745C4.66044 64.4775 4.13612 63.6806 3.6957 62.7997C3.64618 62.7007 3.59666 62.6019 3.54723 62.5032C2.56023 60.5335 1.6059 58.629 1.33627 56.3821C1.2204 55.6869 0.997838 54.9561 0.777739 54.2334C0.639296 53.7788 0.50183 53.3274 0.392505 52.8901C0.392505 52.8901 0.109375 50.0588 0.109375 48.3601C0.109375 46.6613 0.392505 44.0187 0.392505 44.0187C0.486882 43.4525 0.581258 43.0749 0.675635 42.7918C0.93691 41.9707 1.13914 41.1348 1.3407 40.3016C1.64879 39.0281 1.95533 37.761 2.4688 36.5629C3.50694 34.2979 4.63946 32.2216 5.96074 30.1453C6.24387 29.6734 6.62138 29.1072 6.99889 28.6353C7.65952 27.8803 8.03703 26.9365 7.84828 25.804C7.18764 21.3683 7.65952 16.9326 9.64144 12.78C9.98119 12.0438 10.4229 11.4096 10.8646 10.7754C11.159 10.3526 11.4535 9.92979 11.7177 9.47678C13.5109 6.64547 16.0591 4.66356 18.796 2.8704C21.6273 1.07724 24.8361 0.4166 28.1393 0.0390922C28.6112 -0.0552847 29.1775 0.0390922 29.6493 0.133469C29.9325 1.45475 30.0268 2.68164 29.555 4.00292C24.6474 4.38043 20.306 6.17359 16.9085 9.75991C13.5109 13.3462 11.1515 19.7639 12.1896 22.7839C12.9446 23.067 13.6053 22.6895 14.1715 22.2177C17.4747 19.6695 21.1554 18.1595 25.1192 17.2157C26.5349 16.8382 27.9506 16.555 29.3662 16.4607C32.575 16.2719 32.8582 16.7438 32.2919 19.9526C32.2919 19.9998 32.2683 20.0234 32.2329 20.0588C32.1975 20.0942 32.1503 20.1414 32.1031 20.2357C31.7257 20.3301 31.2539 20.4245 30.7821 20.5188L30.7819 20.5189C30.3193 20.59 29.8434 20.6209 29.3641 20.6521C28.5721 20.7035 27.7711 20.7556 27.0068 20.9908C24.8361 21.557 22.4767 22.2177 20.4004 23.2558C18.31 24.2556 16.3946 25.693 14.57 27.0623C14.5 27.1148 14.4301 27.1673 14.3603 27.2196C12.9446 28.2578 12.9446 28.824 13.6996 30.3341C14.1715 31.3722 14.8322 32.4104 15.5872 33.3541C17.286 35.6192 19.3623 37.4123 21.9104 38.6392C24.8361 39.9605 27.9506 40.6211 31.1594 40.6211H62.3037C64.38 40.6211 64.4744 40.7155 64.8519 42.7918C64.8519 42.9334 64.8755 43.0514 64.8991 43.1693ZM31.4425 67.2354C31.82 67.1411 32.1975 67.1411 32.575 67.1411C36.4445 67.1411 39.9364 65.7254 43.0508 63.9322C45.599 62.3278 47.5809 60.0628 49.1853 57.609C51.1673 54.6833 52.4885 51.3801 53.0548 47.7938C53.4323 45.34 53.1492 44.8681 50.601 44.8681H32.6694C30.4987 44.7737 28.3281 44.6794 26.1574 44.4906C23.5148 44.2075 20.9667 43.3581 18.7016 41.9424C15.4928 39.9605 12.8503 37.5067 10.8683 34.2979C10.8113 34.2123 10.7564 34.1245 10.7013 34.0366C10.3923 33.5427 10.0793 33.0425 9.35831 32.8822C9.2782 33.0024 9.16408 33.1056 9.04483 33.2134C8.88311 33.3596 8.71194 33.5144 8.60329 33.7316C8.60329 33.7788 8.5797 33.8024 8.5561 33.826C8.53251 33.8496 8.50891 33.8732 8.50891 33.9204C5.11135 40.1493 3.22381 46.7556 5.01697 54.0227C5.86636 57.2315 6.90451 60.2515 8.60329 62.9885L9.73582 64.6872C12.284 68.2736 15.7759 71.0105 19.6454 73.1812C20.8723 73.8418 21.1554 74.3137 20.8723 75.4462C20.8723 75.635 20.7779 75.8237 20.6835 76.0125C20.1383 77.3757 19.6245 78.7704 19.1058 80.1784C18.7268 81.2073 18.3451 82.2434 17.9466 83.2795C17.6635 83.8458 17.5691 84.5064 18.4185 85.167C18.7776 84.9875 19.1436 84.8149 19.5109 84.6418C20.4953 84.1777 21.4888 83.7093 22.3823 83.0907C23.1373 82.6189 23.8923 82.0526 24.553 81.4863C28.3281 78.2775 30.2156 74.0306 30.2156 68.7455C30.2156 67.8017 30.5931 67.4242 31.4425 67.2354ZM57.2074 59.874C59.0005 56.3821 60.1331 52.7014 60.605 48.8319C60.6379 48.5355 60.6823 48.2505 60.7262 47.969C60.8081 47.444 60.8881 46.9311 60.8881 46.3781C60.9825 45.4344 60.5106 44.9625 59.7556 44.7737C58.9062 44.4906 58.1512 44.8681 57.7736 45.6231C57.5092 46.0638 57.4094 46.6692 57.3205 47.2085C57.3142 47.2467 57.308 47.2845 57.3018 47.3219C57.2285 47.7372 57.1615 48.1589 57.0943 48.582C56.9019 49.7932 56.7077 51.016 56.358 52.1351C54.848 56.5708 52.7717 60.629 49.4685 63.9322C45.9765 67.5186 41.7296 69.7836 36.822 70.7274C34.7457 71.1992 34.3682 71.4824 33.9907 73.4643C33.7075 74.7856 33.9907 75.1631 35.4063 75.1631C35.5951 75.1631 35.7838 75.1631 36.067 75.0687C39.9364 74.3137 43.5227 72.898 46.9203 70.8217C49.9404 68.9342 52.4885 66.386 54.7536 63.6491C55.6973 62.5166 56.5467 61.1953 57.2074 59.874ZM43.9948 51.6634C45.2217 51.7578 46.3542 50.814 46.4486 49.4927C46.543 48.2658 45.5048 46.8502 44.3723 46.7558C42.8623 46.6614 41.7298 47.6052 41.6354 48.8321C41.541 50.2477 42.6735 51.569 43.9948 51.6634Z" fill="white"/>
</svg>
