<svg width="82" height="90" viewBox="0 0 82 90" fill="none" xmlns="http://www.w3.org/2000/svg">
<path fill-rule="evenodd" clip-rule="evenodd" d="M35.0656 78.0103C34.9214 77.7504 34.7974 77.5201 34.6667 77.2935C33.413 75.1186 32.1588 72.9437 30.9036 70.7699C26.9252 63.8801 22.9469 56.9904 18.969 50.1001C18.8783 49.9424 18.7849 49.7847 18.7102 49.6192C18.1708 48.4289 18.69 47.1534 19.4872 46.5631C20.5946 45.7425 22.1735 45.9646 23.007 47.0735C23.1523 47.267 23.2737 47.4796 23.395 47.6897C25.4916 51.318 27.5866 54.9472 29.6816 58.5765C32.8093 63.9942 35.9375 69.4115 39.0652 74.8287C39.1466 74.9692 39.2301 75.1072 39.3126 75.2472C39.4039 75.4028 39.5429 75.4646 39.7198 75.4547C39.8816 75.4459 40.044 75.4319 40.2053 75.435C40.711 75.4459 41.2245 75.4106 41.7204 75.4869C43.7329 75.7955 45.3694 76.7566 46.5888 78.4019C46.6734 78.5155 46.7584 78.6291 46.8341 78.7489C46.9586 78.945 47.136 79.0046 47.3559 78.9709C47.4561 78.9548 47.5572 78.9455 47.6563 78.9258C48.0925 78.8381 48.5297 78.7536 48.9649 78.6581C51.9521 78.0025 54.7758 76.9159 57.4528 75.4407C61.0447 73.4609 64.1273 70.8778 66.6704 67.6562C69.365 64.2427 71.252 60.4163 72.4927 56.26C73.4129 53.1785 73.8922 50.0223 74.0473 46.8168C74.1411 44.8748 74.1028 42.9297 73.9243 40.9924C73.7796 39.4202 73.5587 37.8569 73.2308 36.3102C72.4264 32.5175 71.0907 28.9276 69.1233 25.5816C67.0351 22.0301 64.3695 18.9864 61.0577 16.5268C57.432 13.8342 53.4132 11.9856 49.0044 10.9949C48.5111 10.8839 48.0121 10.7963 47.5152 10.7039C47.3176 10.6676 47.1718 10.7403 47.053 10.9151C46.7683 11.3326 46.4648 11.7367 46.1713 12.1485C46.1256 12.2123 46.0929 12.286 46.0431 12.3741C46.137 12.5095 46.2268 12.6413 46.3186 12.772C46.7958 13.4504 47.3005 14.1117 47.746 14.8104C49.9997 18.3474 51.2581 22.2241 51.5698 26.3969C51.7062 28.215 51.6523 30.0371 51.3825 31.8494C51.007 34.3708 50.2907 36.7837 49.1989 39.0888C48.0085 41.6018 46.4083 43.827 44.5094 45.8458C44.0452 46.339 43.4678 46.6264 42.7915 46.644C41.779 46.67 40.9652 46.2628 40.476 45.3634C39.9802 44.4515 40.0331 43.5319 40.6239 42.6646C40.7369 42.4992 40.8806 42.3529 41.0191 42.2056C42.7002 40.4197 44.0498 38.416 45.0135 36.1561C45.969 33.9148 46.4913 31.575 46.6064 29.1465C46.7143 26.8622 46.4213 24.6209 45.7625 22.4305C44.9399 19.696 43.5861 17.2503 41.7188 15.0921C41.21 14.5039 41.2821 14.6035 40.6379 14.5843C38.0921 14.5085 36.0921 13.4229 34.6413 11.3285C34.549 11.1957 34.4613 11.0593 34.3778 10.9202C34.2709 10.7434 34.1174 10.6739 33.9167 10.7029C33.7969 10.7205 33.6776 10.7429 33.5583 10.7646C30.2246 11.3777 27.0762 12.5142 24.1025 14.1351C21.9064 15.3322 19.8736 16.7633 18.0349 18.461C14.6349 21.6011 12.0917 25.3383 10.2929 29.5942C8.5641 33.6856 7.64706 37.9627 7.41261 42.3845C7.28657 44.7503 7.32651 47.1181 7.59519 49.4797C7.79074 51.1919 8.06772 52.8875 8.48008 54.5598C9.53821 58.8509 11.2743 62.836 13.8485 66.4419C15.6862 69.0162 17.8611 71.2632 20.4043 73.1439C24.2229 75.9677 28.4616 77.8563 33.1179 78.8013C33.4348 78.8656 33.7548 78.9165 34.0744 78.9678C34.272 78.9995 34.4265 78.9325 34.5412 78.7588C34.6968 78.5228 34.8648 78.2956 35.0656 78.0103ZM0 45.4993C0.0331962 40.5774 0.50313 36.3636 1.67537 32.2467C3.20862 26.8643 5.67603 21.9569 9.21039 17.6051C12.4066 13.6703 16.2724 10.5499 20.7565 8.18986C24.4215 6.26033 28.2889 4.92262 32.3637 4.18349C32.8611 4.09324 33.3596 4.00454 33.8612 3.93867C34.1501 3.9008 34.3332 3.76231 34.4789 3.51645C34.9473 2.72234 35.5599 2.05322 36.2933 1.49459C39.6218 -1.03765 44.3756 -0.271029 46.7413 3.17982C46.7641 3.21354 46.7942 3.24414 46.8082 3.28148C47.0089 3.81107 47.4426 3.934 47.954 4.01076C53.7063 4.87335 59.0146 6.9118 63.8877 10.0826C65.5713 11.177 67.1435 12.4177 68.6197 13.7808C71.6831 16.6082 74.1873 19.8661 76.1879 23.5198C78.4152 27.5879 79.9188 31.908 80.7156 36.4741C80.9728 37.9503 81.1435 39.4368 81.2623 40.9317C81.436 43.1159 81.45 45.3032 81.3416 47.4859C80.9495 55.3778 78.7207 62.6944 74.3216 69.2963C70.5751 74.9194 65.63 79.1774 59.5405 82.1059C56.0689 83.7745 52.4319 84.9187 48.6325 85.5448C48.3529 85.591 48.0733 85.6371 47.7922 85.674C47.5126 85.7108 47.3067 85.827 47.1734 86.0946C47.0385 86.3649 46.8767 86.6258 46.6983 86.8706C45.2293 88.8852 43.2422 89.9848 40.753 89.9998C38.034 90.0159 35.9365 88.797 34.4748 86.4987C34.4094 86.396 34.3425 86.2928 34.2953 86.1818C34.1527 85.8514 33.9063 85.7056 33.5494 85.6548C32.8082 85.5505 32.0691 85.426 31.3362 85.2751C25.352 84.0422 19.9011 81.6297 15.0581 77.8837C12.3324 75.7758 9.97391 73.3094 7.95879 70.5189C4.43221 65.6354 2.12145 60.2197 0.933125 54.3196C0.581452 52.5716 0.315883 50.8112 0.200215 49.0311C0.109962 47.6378 0.0414953 46.2436 0 45.4993Z" fill="#F5FFFF"/>
</svg>
