<svg width="75" height="90" viewBox="0 0 75 90" fill="none" xmlns="http://www.w3.org/2000/svg">
<path fill-rule="evenodd" clip-rule="evenodd" d="M74.4014 4.97724L63.3151 60.4822C62.9271 62.427 61.2221 63.8275 59.2412 63.8275H48.3372C44.2215 63.8275 40.1964 65.0252 36.7478 67.2738L36.4188 67.4888L48.5205 6.8976C49.3211 2.88666 52.8389 0 56.9241 0H70.3264C72.9491 0 74.9158 2.40249 74.4014 4.97724ZM0.0823919 85.0227L11.1687 29.5178C11.5567 27.572 13.2627 26.1715 15.2437 26.1715H26.1476C30.2634 26.1715 34.2884 24.9748 37.736 22.7262L38.064 22.5112L25.9633 83.1014C25.1617 87.1133 21.6449 90 17.5597 90H4.15636C1.53476 90 -0.432965 87.5975 0.0823919 85.0227Z" fill="#00C6A3"/>
</svg>
