<svg width="77" height="90" viewBox="0 0 77 90" fill="none" xmlns="http://www.w3.org/2000/svg">
<path fill-rule="evenodd" clip-rule="evenodd" d="M11.7374 22.9003C22.3054 33.4592 32.7851 43.9298 43.402 54.5363C50.6375 51.3012 52.6865 41.8396 51.2577 36.2221C49.3414 28.6922 42.9382 23.2491 34.8828 22.9604C27.1597 22.6841 19.4174 22.9003 11.7374 22.9003ZM38.2518 56.2552C26.0713 44.0872 14.0994 32.1288 1.52996 19.5725C3.64358 19.4162 5.00881 19.2317 6.37518 19.2271C15.2549 19.2011 24.1425 19.4491 33.012 19.1547C44.1561 18.7855 51.7114 26.1434 54.2219 33.0607C56.7029 39.8931 55.5543 50.6298 47.1769 56.8813C46.746 57.2041 46.8401 57.2494 46.4466 57.7045C47.8754 58.8776 48.3255 60.6135 49.9674 61.8975C58.2405 55.7241 62.0845 47.4706 60.9029 37.1325C59.6511 26.1762 53.376 18.9418 43.2252 14.9402C39.8234 13.5995 36.2233 13.4919 32.6242 13.4897C23.5563 13.4863 14.4872 13.4897 5.41929 13.4829C4.09941 13.4817 2.7716 13.5067 1.45966 13.3889C0.279251 13.2825 0.00144194 12.3709 0.0343255 11.3485C0.0604056 10.5015 0.495829 9.91493 1.34513 9.79604C2.08785 9.69073 2.84984 9.69979 3.60389 9.69639C13.6164 9.65676 23.63 9.5073 33.6402 9.6194C45.9738 9.75641 55.4908 15.0477 61.4665 25.935C67.8391 37.547 65.6404 51.8697 56.3695 61.5012C55.2084 62.7083 54.7662 63.5224 52.8975 65.179C53.8806 66.591 55.1755 67.7312 56.3072 68.7662C67.7983 60.3723 73.3817 45.8208 69.6239 31.5106C65.7878 16.8968 56.1394 7.91072 41.3168 4.63605C37.8039 3.86041 34.2106 3.74265 30.6081 3.7619C21.9178 3.81059 13.2263 3.77888 4.53597 3.77549C3.40206 3.77436 2.25453 3.85588 1.14216 3.69736C0.331411 3.58186 -0.025772 2.90134 0.00144194 2.02832C0.027522 1.22777 0.161324 0.404568 0.999288 0.244911C2.09805 0.034299 3.24898 0.0524161 4.37722 0.0512838C14.3897 0.0399606 24.4044 -0.0698745 34.4158 0.0716656C54.1176 0.349084 70.0638 13.3934 73.7854 32.6429C76.4342 46.3485 72.5823 58.3737 62.8771 68.4627C61.8418 69.5384 60.6285 70.4443 59.1896 71.6989C65.1597 77.6606 70.8156 83.3074 76.5068 88.9906C75.0032 89.7673 73.6277 89.7549 72.3714 89.756C49.8892 89.7911 27.4071 89.8115 4.9249 89.7243C3.19228 89.7164 -0.0155668 91.0933 0.180601 87.7654C0.356358 84.7761 3.45308 86.1213 5.22086 86.1122C24.68 86.0137 44.1391 86.0511 63.5994 86.0431C64.5383 86.042 66.7381 85.9605 67.7132 85.9152C64.5201 82.7198 59.0762 77.4647 55.6767 74.2591C46.5249 80.12 36.077 80.6816 25.4193 80.3997C18.4344 80.2151 11.4393 80.3713 4.44979 80.3578C3.32041 80.3555 2.16949 80.3781 1.06959 80.1732C0.2441 80.0181 0.0456647 79.2152 0.013915 78.4068C-0.0212364 77.5485 0.330278 76.7932 1.10247 76.6709C2.39514 76.4648 3.73316 76.5079 5.05304 76.5056C14.4997 76.4943 23.9463 76.5543 33.3919 76.475C40.2407 76.4184 46.839 75.3019 52.6922 71.3388C52.1593 70.5666 50.243 68.7481 49.0671 67.1889C42.3022 70.767 34.9952 70.7885 27.6384 70.6787C20.0831 70.5654 12.5244 70.6538 4.96686 70.6515C3.83408 70.6515 2.70016 70.6594 1.56851 70.6187C0.372233 70.5756 0.00711152 69.8136 0.00937935 68.739C0.0105133 67.6271 0.532115 66.9488 1.64222 66.8899C2.96096 66.8197 4.28538 66.8526 5.60752 66.8526C15.2435 66.8492 24.8784 66.8288 34.5133 66.8594C38.3414 66.8718 41.9665 66.2151 45.4159 64.306C42.0187 59.0169 41.8826 59.4823 38.1793 60.7788C36.2958 61.4378 34.0733 61.2261 32.0028 61.2351C23.1231 61.277 14.2434 61.2544 5.36373 61.2532C4.23095 61.2521 3.09703 61.2419 1.96312 61.2385C0.547989 61.2351 -0.0450486 60.5138 0.00711152 59.1222C0.0513342 57.9197 0.741889 57.4871 1.81117 57.4622C2.94395 57.4362 4.07787 57.452 5.21179 57.452C14.0903 57.4509 22.97 57.4701 31.8486 57.4362C33.8432 57.4294 35.9375 57.7872 38.2518 56.2552Z" fill="white"/>
</svg>
