<svg width="83" height="80" viewBox="0 0 83 80" fill="none" xmlns="http://www.w3.org/2000/svg">
<path fill-rule="evenodd" clip-rule="evenodd" d="M0 36.4642H81.9126V27.9062H0V36.4642Z" fill="url(#paint0_linear)"/>
<mask id="mask0" mask-type="alpha" maskUnits="userSpaceOnUse" x="0" y="-1" width="21" height="22">
<path d="M0.0957031 10.121C0.0957031 15.7118 4.62712 20.2432 10.2174 20.2432C15.8077 20.2432 20.3397 15.7118 20.3397 10.121C20.3397 4.53123 15.8077 -0.000732422 10.2174 -0.000732422C4.62712 -0.000732422 0.0957031 4.53123 0.0957031 10.121Z" fill="white"/>
</mask>
<g mask="url(#mask0)">
<path fill-rule="evenodd" clip-rule="evenodd" d="M0.0957031 10.121C0.0957031 15.7118 4.62712 20.2432 10.2174 20.2432C15.8077 20.2432 20.3397 15.7118 20.3397 10.121C20.3397 4.53123 15.8077 -0.000732422 10.2174 -0.000732422C4.62712 -0.000732422 0.0957031 4.53123 0.0957031 10.121Z" fill="url(#paint1_linear)"/>
</g>
<mask id="mask1" mask-type="alpha" maskUnits="userSpaceOnUse" x="32" y="-1" width="21" height="22">
<path d="M32.1094 10.121C32.1094 15.7118 36.6413 20.2432 42.2316 20.2432C47.8225 20.2432 52.3539 15.7118 52.3539 10.121C52.3539 4.53123 47.8225 -0.000732422 42.2316 -0.000732422C36.6413 -0.000732422 32.1094 4.53123 32.1094 10.121Z" fill="white"/>
</mask>
<g mask="url(#mask1)">
<path fill-rule="evenodd" clip-rule="evenodd" d="M32.1094 10.121C32.1094 15.7118 36.6413 20.2432 42.2316 20.2432C47.8225 20.2432 52.3539 15.7118 52.3539 10.121C52.3539 4.53123 47.8225 -0.000732422 42.2316 -0.000732422C36.6413 -0.000732422 32.1094 4.53123 32.1094 10.121Z" fill="url(#paint2_linear)"/>
</g>
<mask id="mask2" mask-type="alpha" maskUnits="userSpaceOnUse" x="61" y="-1" width="21" height="22">
<path d="M61.1318 10.121C61.1318 15.7118 65.6638 20.2432 71.2541 20.2432C76.8444 20.2432 81.3763 15.7118 81.3763 10.121C81.3763 4.53123 76.8444 -0.000732422 71.2541 -0.000732422C65.6638 -0.000732422 61.1318 4.53123 61.1318 10.121Z" fill="white"/>
</mask>
<g mask="url(#mask2)">
<path fill-rule="evenodd" clip-rule="evenodd" d="M61.1318 10.121C61.1318 15.7118 65.6638 20.2432 71.2541 20.2432C76.8444 20.2432 81.3763 15.7118 81.3763 10.121C81.3763 4.53123 76.8444 -0.000732422 71.2541 -0.000732422C65.6638 -0.000732422 61.1318 4.53123 61.1318 10.121Z" fill="url(#paint3_linear)"/>
</g>
<path fill-rule="evenodd" clip-rule="evenodd" d="M26.4322 59.7369H44.5582C44.5126 56.8 43.5247 54.4845 41.5956 52.7903C39.667 51.0962 37.285 50.2489 34.45 50.2489C31.1034 50.2489 28.3141 51.4235 26.083 53.7723C23.8519 56.1221 22.7381 59.1038 22.7381 62.7186C22.7381 66.4231 23.9106 69.4275 26.2579 71.732C28.6052 74.0364 31.6145 75.1878 35.287 75.1878C39.1446 75.1878 42.6057 73.6969 45.6737 70.7152L48.8112 74.2391C45.0931 78.0793 40.5621 79.9993 35.2163 79.9993C30.1041 79.9993 25.8283 78.3506 22.3889 75.0526C18.9494 71.7547 17.23 67.6653 17.23 62.7862C17.23 57.9519 18.9027 53.8636 22.2487 50.5197C25.5953 47.1763 29.7093 45.5049 34.5885 45.5049C39.0044 45.5049 42.6877 46.9055 45.6389 49.7067C48.5907 52.5079 50.0663 56.0772 50.0663 60.4142C50.0663 61.8148 49.9267 63.1251 49.6481 64.3446H26.4322V59.7369Z" fill="white"/>
<path fill-rule="evenodd" clip-rule="evenodd" d="M68.8685 55.1961L75.4227 46.2503H81.6264L71.867 59.2622L68.8685 55.1961ZM51.8581 46.2503H58.063L82.6035 79.2544H76.398L51.8581 46.2503ZM61.4786 64.8868L64.477 69.021L57.0859 79.2544H50.8115L61.4786 64.8868Z" fill="white"/>
<path fill-rule="evenodd" clip-rule="evenodd" d="M5.78803 47.9296L5.74701 46.2692H0.0981445V79.275H5.78803V47.9296Z" fill="white"/>
<path fill-rule="evenodd" clip-rule="evenodd" d="M13.9367 45.6589C11.8566 45.6589 10.0654 46.1939 8.54932 47.239V52.5096C9.89331 51.5853 11.5928 51.119 13.6541 51.119C14.679 51.119 15.631 51.1905 16.5101 51.3328V46.0859C15.9239 45.8018 15.0664 45.6589 13.9367 45.6589Z" fill="white"/>
<defs>
<linearGradient id="paint0_linear" x1="-1.78147" y1="22.1967" x2="-0.715638" y2="45.0177" gradientUnits="userSpaceOnUse">
<stop stop-color="#00FFA1"/>
<stop offset="1" stop-color="#00ACB8"/>
</linearGradient>
<linearGradient id="paint1_linear" x1="1.40101" y1="7.97903" x2="79.4314" y2="26.9397" gradientUnits="userSpaceOnUse">
<stop stop-color="#00FFA1"/>
<stop offset="1" stop-color="#00ACB8"/>
</linearGradient>
<linearGradient id="paint2_linear" x1="5.82859" y1="1.27572" x2="83.8587" y2="20.2373" gradientUnits="userSpaceOnUse">
<stop stop-color="#00FFA1"/>
<stop offset="1" stop-color="#00ACB8"/>
</linearGradient>
<linearGradient id="paint3_linear" x1="7.26449" y1="-5.42759" x2="85.2946" y2="13.534" gradientUnits="userSpaceOnUse">
<stop stop-color="#00FFA1"/>
<stop offset="1" stop-color="#00ACB8"/>
</linearGradient>
</defs>
</svg>
