<svg width="93" height="91" viewBox="0 0 93 91" fill="none" xmlns="http://www.w3.org/2000/svg">
<path d="M70.0016 63.6614H38.0708C27.5203 52.3247 14.5682 39.8645 4.00098 28.5099H36.0016C46.3059 39.582 59.7031 52.5956 70.0016 63.6614Z" fill="#88D5EC"/>
<path d="M70.0107 63.6615C62.501 73.8503 55.001 84.0392 49.2861 90.9527C44.2861 90.9527 27.1559 91.0593 18.501 90.9527C17.8925 90.9527 17.0405 91.0771 16.5537 90.8282C23.8525 81.8768 31.4726 73.0547 39.0674 63.537L70.0107 63.6615Z" fill="#469AE2"/>
<path d="M55.0012 2.01884C50.001 8.99997 40.6236 22.1405 35.7746 28.7516L4.00098 28.5C10.001 21 19.501 9.5 26.501 1.24866C35.07 1.24879 46.4323 1.49997 55.001 1.49997C55.9746 1.49997 54.1493 1.27215 55.0012 2.01884Z" fill="#469AE2"/>
<path d="M32.5 71.4916L16.5 90.6619C12.2404 86.1818 5.64443 80.203 1.38478 75.5984C-0.440785 73.6072 -0.440783 73.4827 1.26308 71.4916C5.27931 66.6381 9.41726 61.6602 13.4335 56.8067C15.3808 54.4422 15.6242 54.4422 17.6931 56.5578C21.9528 60.9135 28.3621 67.1359 32.5 71.4916Z" fill="#88D5EC"/>
<path d="M69.7283 19.294C66.3206 23.8986 63.0346 28.3787 59.8703 33.1077C59.0183 34.3522 58.2881 34.4766 57.1928 33.481C53.0548 29.3742 46.5172 23.6497 42.501 19.294L55.001 2.01892C58.8955 6.1257 65.4687 11.5782 69.3632 15.5605C70.7019 16.805 70.8236 17.8006 69.7283 19.294Z" fill="#88D5EC"/>
<path d="M83.5 0L85.7448 6.41036L92.535 6.56434L87.1321 10.6801L89.084 17.1857L83.5 13.319L77.916 17.1857L79.8679 10.6801L74.465 6.56434L81.2552 6.41036L83.5 0Z" fill="#88D5EC"/>
</svg>
