<svg width="89" height="90" viewBox="0 0 89 90" fill="none" xmlns="http://www.w3.org/2000/svg">
<path fill-rule="evenodd" clip-rule="evenodd" d="M3.48629 30.4431C8.54635 15.3196 19.7899 4.28483 35.5176 1.0299C46.3662 -1.21514 57.7735 0.166653 67.4909 5.60394C78.3827 11.6987 88.8416 24.1183 88.0848 37.2876C87.1583 53.3949 68.826 62.7251 54.6888 56.2915C44.9879 51.8765 38.9422 38.9762 32.8468 33.9404C28.6004 30.4324 22.8195 27.9479 17.1942 28.1602C10.8647 28.3991 6.06244 32.7975 3.12562 38.1284C1.89578 40.361 1.2176 43.231 0.966309 45.7102C0.966309 45.7102 0.966309 37.9752 3.48629 30.4431Z" fill="white"/>
<path fill-rule="evenodd" clip-rule="evenodd" d="M46.1716 90C44.8454 90 43.518 89.9415 42.1924 89.8244C31.2995 88.8601 20.4367 83.5836 12.389 75.3496C3.90253 66.6663 -0.48231 55.8248 0.042144 44.8237C0.710276 30.8177 6.54786 18.8097 15.6581 12.7007L16.7171 14.2794C8.10407 20.0549 2.58045 31.5066 1.94129 44.9135C1.44226 55.3819 5.63553 65.7196 13.7489 74.0204C21.4844 81.9351 31.9126 87.0058 42.3597 87.9306C46.5559 88.3025 50.7788 88.0542 54.8644 87.2252C51.2754 87.3665 47.6279 86.9715 44.0389 86.0468C35.2149 83.774 27.7347 78.5058 22.9756 71.2137C15.5274 59.801 12.036 42.3019 24.5732 27.4138L26.0277 28.6395C14.1616 42.73 17.4928 59.3339 24.5673 70.1742C33.7828 84.2943 53.6606 89.4608 68.8786 81.6903C69.3316 81.458 69.8885 81.6271 70.1392 82.0705C70.3893 82.5146 70.2451 83.0769 69.8117 83.3453C62.7957 87.6911 54.528 90 46.1716 90Z" fill="white"/>
<path fill-rule="evenodd" clip-rule="evenodd" d="M56.8776 84.4939C54.4245 84.4939 51.9642 84.1983 49.5903 83.4243C36.1389 79.0401 28.7233 65.8324 31.1368 50.5582C32.7291 40.4853 39.6836 35.1775 39.9786 34.9564L41.118 36.4783L40.5486 35.7174L41.1192 36.4777C41.053 36.5274 34.4822 41.5715 33.0147 50.855C30.4025 67.3886 39.7534 78.2188 50.1792 81.6174C54.2743 82.9525 58.6343 82.7538 62.8565 82.0792C60.2283 81.6174 57.7438 80.8848 55.5538 79.9104C50.5984 77.7062 47.1495 74.3915 45.303 70.0581C43.6321 65.95 42.3869 52.705 53.0918 46.2437L54.0744 47.872C44.4303 53.6925 45.5566 65.6349 47.0579 69.3273C50.6469 77.7488 61 80.753 69.5041 80.753C69.5166 80.753 69.5331 80.7423 69.5426 80.753C70.0268 80.753 70.4342 81.1172 70.4874 81.5991C70.5406 82.081 70.2225 82.5256 69.7495 82.6314C65.8767 83.4947 61.3896 84.4939 56.8776 84.4939Z" fill="white"/>
<path fill-rule="evenodd" clip-rule="evenodd" d="M70.7472 82.0524C70.7472 82.7542 70.1784 83.3224 69.4766 83.3224C68.7753 83.3224 68.2065 82.7542 68.2065 82.0524C68.2065 81.3506 68.7753 80.7823 69.4766 80.7823C70.1784 80.7823 70.7472 81.3506 70.7472 82.0524Z" fill="white"/>
</svg>
