<svg width="94" height="90" viewBox="0 0 94 90" fill="none" xmlns="http://www.w3.org/2000/svg">
<path d="M92.8624 53.6339L47.3462 80.4275C47.3462 80.4275 29.2805 70.0573 20.2711 64.8487C13.7956 61.0479 7.36705 57.1532 0.938477 53.2585C4.17622 51.3347 18.7226 42.7476 21.3504 41.3868C23.8373 43.0761 26.4181 44.8123 29.0459 46.5484C25.0104 48.7539 20.975 50.9593 16.048 53.6809C20.0834 55.5578 41.0584 67.758 47.2993 71.3712C53.1648 67.805 67.3827 59.2648 67.9927 58.8425C70.9489 57.2471 73.9051 55.6517 77.4244 53.7747C66.6319 47.7215 46.4077 35.8967 46.4077 35.8967L41.8092 38.7121L34.2544 34.4421L46.1731 26.8873L92.8624 53.6339Z" fill="#03DDC2"/>
<path d="M0.892139 53.2585C0.892139 53.2585 38.2905 75.2189 47.3468 80.4275C47.3468 83.2898 47.3468 89.9999 47.3468 89.9999L0.845215 62.8779L0.892139 53.2585Z" fill="#68EBDA"/>
<path d="M92.8629 53.634V62.7842L47.2998 90V80.4276L92.8629 53.634Z" fill="#9AF1E7"/>
<path d="M28.999 46.5485L21.0219 41.5276L14.3587 45.3285C14.3587 45.3285 4.78624 39.6976 0.422315 37.2106C0.187695 34.1606 0 27.0751 0 27.0751C0 27.0751 23.6966 40.4484 35.2868 47.0177C39.2753 49.2701 43.3107 51.4755 47.3462 53.7278C47.2054 57.1533 47.487 61.4703 47.3462 64.8957C41.3869 61.611 34.9583 57.3879 28.999 54.1032C28.999 51.5693 28.999 46.5485 28.999 46.5485Z" fill="#74C6D3"/>
<path d="M79.0194 45.7038L72.5439 41.9968C72.5439 41.9968 72.5909 39.8852 72.5909 39.0875C79.3948 35.1929 93.2843 27.1219 93.2843 27.1219C93.2843 27.1219 92.9558 34.8644 92.8151 37.9144C88.4511 40.3545 79.0194 45.7038 79.0194 45.7038Z" fill="#A2DAE3"/>
<path d="M47.3458 64.8957C47.4866 61.4703 47.205 57.1533 47.3458 53.7278C51.3813 51.3817 55.3698 49.0824 59.7806 46.5016C56.9183 44.8123 52.3197 42.0907 52.3197 42.0907L46.3135 45.2816L46.3604 35.8499L77.3771 53.7278L67.9454 58.7956L59.5929 54.0094C59.5929 54.0094 59.4991 56.9187 59.4522 57.3879L59.4991 57.341C55.2759 59.5933 51.522 62.6903 47.3458 64.8957Z" fill="#9AF1E7"/>
<path d="M46.3135 9.61938L77.3302 27.0281L68.2739 32.2836L46.3135 19.8019V9.61938Z" fill="#74C7D4"/>
<path d="M46.3135 9.61938C46.3135 12.9979 46.3135 16.4233 46.3135 19.8019C39.4157 23.8373 32.2363 28.0135 25.3855 32.049C22.4293 30.4536 19.8015 28.7174 16.2822 26.8404C26.6055 20.8811 36.4595 15.2503 46.3135 9.61938Z" fill="#A2DAE3"/>
<path d="M46.3139 35.8499L46.2669 44.0146L41.7153 41.3869V38.6653L46.3139 35.8499Z" fill="#CDF8F3"/>
<path d="M41.7159 38.6653V41.3869L34.2081 37.1168L34.1611 34.4421L41.7159 38.6653Z" fill="#68EBDA"/>
<path d="M64.3325 37.4453V34.1606L72.638 39.0877L72.5442 41.9969L64.3325 37.4453Z" fill="#74C6D3"/>
<path d="M28.9989 46.5485C28.9989 49.0824 28.9989 51.5693 28.9989 54.1032C28.9989 55.0417 28.9989 56.9186 28.9989 56.9186L25.6204 58.8894L16.001 53.634C16.001 53.634 24.9634 48.7539 28.9989 46.5485Z" fill="#9AF1E7"/>
<path d="M59.781 46.5016L59.4995 57.3879L47.3462 64.8958V53.7279L59.781 46.5016Z" fill="#A2DAE3"/>
<path d="M0 27.0751C1.1731 26.1835 2.81543 25.3858 4.08238 24.635C18.1595 16.4234 32.2367 8.2586 46.4077 0C61.7518 8.86861 93.2847 27.0751 93.2847 27.0751L72.5912 39.0407L64.2857 34.1606L77.2836 26.9812C77.2836 26.9812 56.4025 15.2503 46.2669 9.57247C36.4129 15.2033 16.1887 26.7935 16.1887 26.7935L47.2993 44.5777L52.2732 42.1376C52.2732 42.1376 56.9187 44.8592 59.7341 46.5485C55.3232 49.1293 51.3347 51.4286 47.2993 53.7748C43.2638 51.5224 39.2284 49.317 35.2398 47.0647C23.6966 40.4484 11.5902 33.6444 0 27.0751Z" fill="#17A2B8"/>
</svg>
