<svg width="49" height="90" viewBox="0 0 49 90" fill="none" xmlns="http://www.w3.org/2000/svg">
<path d="M36.5863 17.1157V24.2473H28.3054V76.6403L20.9134 76.8305C20.9134 76.8305 21.1006 46.6878 21.1006 33.6609C21.1006 27.7655 21.1006 24.1997 21.1006 24.1997H13.1472L13.0068 17.2108L36.5863 17.1157Z" fill="white"/>
<path d="M34.3389 90C34.3389 90 48.8889 83.2963 48.8889 73.8827C48.8889 61.8067 48.8889 45.6894 48.8889 45.6894C48.8889 45.6894 48.8889 29.5721 48.8889 17.496C48.8889 5.41997 34.3389 0 34.3389 0C46.8772 7.36926 45.5672 21.4897 45.5672 21.4897V69.8415C45.5672 69.8415 46.9239 82.5832 34.3389 90Z" fill="#F89351"/>
<path d="M14.55 90C14.55 90 0 83.2963 0 73.8827C0 61.8067 0 45.6894 0 45.6894C0 45.6894 0 29.5721 0 17.496C0 5.41997 14.55 0 14.55 0C2.01174 7.36926 3.32172 21.4897 3.32172 21.4897V69.8415C3.27493 69.8415 1.96496 82.5832 14.55 90Z" fill="#F89351"/>
</svg>
