<svg width="91" height="90" viewBox="0 0 91 90" fill="none" xmlns="http://www.w3.org/2000/svg">
<path d="M52.2279 62.3717C50.7033 61.54 49.0862 61.4938 47.6078 62.4641C45.9908 63.5267 45.6211 65.1437 45.6211 67.038H54.4918C54.307 65.1437 53.9836 63.3419 52.2279 62.3717ZM52.2279 62.3717C50.7033 61.54 49.0862 61.4938 47.6078 62.4641C45.9908 63.5267 45.6211 65.1437 45.6211 67.038H54.4918C54.307 65.1437 53.9836 63.3419 52.2279 62.3717ZM90.0205 44.9538V6.37577C90.0205 6.05236 90.0205 5.72895 90.0205 5.35934C89.9743 4.06571 89.5123 2.91068 88.6345 1.94045C87.3871 0.554415 85.8162 0 84.0144 0C58.0031 0.0462012 32.0842 0.0462012 6.1191 0.0462012C5.88809 0.0462012 5.65708 0.0462012 5.47228 0.0462012C3.11602 0.138604 1.08316 1.61704 0.390144 3.8347C0.112936 4.66632 0.0205339 5.59035 0.0205339 6.46817C0.0205339 32.2023 0.0205339 57.8901 0.0205339 83.6242C0.0205339 83.9014 -0.0256673 84.2248 0.0205339 84.5021C0.159138 85.2413 0.25154 86.0729 0.574949 86.7197C1.63758 88.8912 3.39322 90 5.88809 90C23.0287 90 40.1694 90 57.3101 90C66.2731 90 75.2823 90 84.2454 90C85.5852 90 86.7864 89.6766 87.8491 88.845C89.3737 87.6437 90.0205 86.0729 90.0205 84.0862C89.9743 71.0575 90.0205 58.0287 90.0205 44.9538ZM37.9055 59.9692C37.0739 62.0483 36.2423 64.1273 35.4107 66.2064C33.7936 70.1335 32.2228 74.0606 30.6057 77.9877C30.0513 79.3275 29.9127 79.4199 28.4805 79.4199C27.7413 79.4199 27.0021 79.3737 26.2628 79.4199C25.2926 79.4661 24.7382 79.0503 24.4148 78.1725C23.537 75.9548 22.6591 73.7834 21.7813 71.6119C20.3029 67.962 18.8706 64.2659 17.346 60.6622C16.7454 59.1838 16.5606 58.2598 18.7782 58.4446C19.2864 58.4908 19.7947 58.4446 20.3491 58.4446C21.7813 58.4446 21.8737 58.4908 22.3819 59.8306C23.4446 62.6027 24.461 65.3285 25.5236 68.1006C26.1242 69.7639 26.771 71.3809 27.4179 73.0441C27.5103 73.0441 27.5565 73.0441 27.6489 73.0441C29.2659 68.7936 30.883 64.4969 32.5 60.2464C32.5924 60.0154 32.6848 59.7844 32.7772 59.5072C33.0082 58.768 33.5164 58.4446 34.2556 58.4908C35.1335 58.537 36.0113 58.4908 36.9353 58.4908C37.9517 58.4908 38.2752 58.999 37.9055 59.9692ZM58.2803 70.5955C54.4918 70.5955 50.7495 70.5955 46.961 70.5955H45.6673C45.5287 71.6581 45.7135 72.4435 46.037 73.2752C47.192 76.232 50.8881 77.1561 53.1057 74.8922C54.1684 73.7834 55.231 73.46 56.617 73.5524C57.1715 73.5986 57.7259 73.5524 58.2803 73.5524C59.3429 73.5986 59.6201 74.1068 59.2505 75.077C58.8347 76.1396 58.0493 76.925 57.1715 77.6181C54.9538 79.3275 52.4127 79.9281 49.6869 79.8819C48.2084 79.8357 46.73 79.6047 45.3901 79.0041C42.6181 77.7567 41.0472 75.4928 40.4004 72.6283C39.846 70.1335 39.846 67.6386 40.4928 65.1899C41.6016 60.847 44.7895 58.3984 49.3172 58.1211C50.7495 58.0287 52.1817 58.1673 53.5678 58.6294C56.8942 59.692 58.8347 62.0945 59.6201 65.3747C59.8973 66.4836 59.9897 67.6386 60.0359 68.7936C60.0821 70.2259 59.7587 70.5493 58.2803 70.5955ZM69.5534 78.4497C69.461 79.0965 69.1838 79.3737 68.5369 79.4199C67.4281 79.4661 66.3193 79.4661 65.2105 79.4199C64.5637 79.4199 64.2864 79.0965 64.2402 78.4497C64.2402 78.2187 64.2402 77.9877 64.2402 77.8029C64.2402 71.9353 64.2402 66.0678 64.2402 60.2002C64.2402 59.9692 64.2402 59.7382 64.2402 59.5534C64.2864 58.8604 64.6098 58.537 65.3029 58.537C66.3655 58.4908 67.4281 58.4908 68.5369 58.537C69.1838 58.537 69.5072 58.9066 69.5996 59.5534C69.6458 59.8306 69.5996 60.154 69.5996 60.4312V77.6181C69.5534 77.8491 69.5996 78.1725 69.5534 78.4497ZM69.7844 53.9168C69.7382 54.7023 69.3686 54.9795 68.5369 55.0257C68.3059 55.0257 68.0749 55.0257 67.8901 55.0257C67.5667 55.0257 67.2433 55.0257 66.8737 55.0257C66.5041 55.0257 66.1807 55.0257 65.8111 55.0257C65.6263 55.0257 65.4415 55.0257 65.2105 55.0257C64.3788 54.9795 64.0554 54.7023 64.0092 53.9168C63.963 53.0852 63.963 52.2074 64.0092 51.3758C64.0554 50.5903 64.3788 50.1745 65.1643 50.1745C66.3193 50.1283 67.4743 50.1283 68.5832 50.1745C69.3224 50.2207 69.692 50.6365 69.7382 51.3758C69.8306 52.2074 69.8306 53.039 69.7844 53.9168ZM80.2259 78.3573C80.1797 79.0965 79.8563 79.4199 79.117 79.4661C78.1006 79.5123 77.038 79.5123 76.0216 79.4661C75.2361 79.4199 74.9589 79.1427 74.8665 78.2649C74.8665 78.0339 74.8665 77.8029 74.8665 77.6181V52.7156C74.8665 52.4384 74.8665 52.2074 74.8665 51.9302C74.9127 51.191 75.2361 50.8214 75.9754 50.8214C76.9918 50.7752 78.0544 50.7752 79.0708 50.8214C79.8563 50.8676 80.1797 51.2372 80.2259 52.1612C80.2259 53.5472 80.2259 54.9795 80.2259 56.3655V77.6181C80.2259 77.8491 80.2721 78.0801 80.2259 78.3573ZM52.2279 62.3717C50.7033 61.54 49.0862 61.4938 47.6078 62.4641C45.9908 63.5267 45.6211 65.1437 45.6211 67.038H54.4918C54.307 65.1437 53.9836 63.3419 52.2279 62.3717Z" fill="white"/>
<path d="M90.0205 44.9538V6.37577C90.0205 6.05236 90.0205 5.72895 90.0205 5.35934C89.9743 4.06571 89.5123 2.91068 88.6345 1.94045C87.3871 0.554415 85.8162 0 84.0144 0C58.0031 0.0462012 32.0842 0.0462012 6.1191 0.0462012C5.88809 0.0462012 5.65708 0.0462012 5.47228 0.0462012C3.11602 0.138604 1.08316 1.61704 0.390144 3.8347C0.112936 4.66632 0.0205339 5.59035 0.0205339 6.46817C0.0205339 32.2023 0.0205339 57.8901 0.0205339 83.6242C0.0205339 83.9014 -0.0256673 84.2248 0.0205339 84.5021C0.159138 85.2413 0.25154 86.0729 0.574949 86.7197C1.63758 88.8912 3.39322 90 5.88809 90C23.0287 90 40.1694 90 57.3101 90C66.2731 90 75.2823 90 84.2454 90C85.5852 90 86.7864 89.6766 87.8491 88.845C89.3737 87.6437 90.0205 86.0729 90.0205 84.0862C89.9743 71.0575 90.0205 58.0287 90.0205 44.9538ZM37.9055 59.9692C37.0739 62.0483 36.2423 64.1273 35.4107 66.2064C33.7936 70.1335 32.2228 74.0606 30.6057 77.9877C30.0513 79.3275 29.9127 79.4199 28.4805 79.4199C27.7413 79.4199 27.0021 79.3737 26.2628 79.4199C25.2926 79.4661 24.7382 79.0503 24.4148 78.1725C23.537 75.9548 22.6591 73.7834 21.7813 71.6119C20.3029 67.962 18.8706 64.2659 17.346 60.6622C16.7454 59.1838 16.5606 58.2598 18.7782 58.4446C19.2864 58.4908 19.7947 58.4446 20.3491 58.4446C21.7813 58.4446 21.8737 58.4908 22.3819 59.8306C23.4446 62.6027 24.461 65.3285 25.5236 68.1006C26.1242 69.7639 26.771 71.3809 27.4179 73.0441C27.5103 73.0441 27.5565 73.0441 27.6489 73.0441C29.2659 68.7936 30.883 64.4969 32.5 60.2464C32.5924 60.0154 32.6848 59.7844 32.7772 59.5072C33.0082 58.768 33.5164 58.4446 34.2556 58.4908C35.1335 58.537 36.0113 58.4908 36.9353 58.4908C37.9517 58.4908 38.2752 58.999 37.9055 59.9692ZM58.2803 70.5955C54.4918 70.5955 50.7495 70.5955 46.961 70.5955H45.6673C45.5287 71.6581 45.7135 72.4435 46.037 73.2752C47.192 76.232 50.8881 77.1561 53.1057 74.8922C54.1684 73.7834 55.231 73.46 56.617 73.5524C57.1715 73.5986 57.7259 73.5524 58.2803 73.5524C59.3429 73.5986 59.6201 74.1068 59.2505 75.077C58.8347 76.1396 58.0493 76.925 57.1715 77.6181C54.9538 79.3275 52.4127 79.9281 49.6869 79.8819C48.2084 79.8357 46.73 79.6047 45.3901 79.0041C42.6181 77.7567 41.0472 75.4928 40.4004 72.6283C39.846 70.1335 39.846 67.6386 40.4928 65.1899C41.6016 60.847 44.7895 58.3984 49.3172 58.1211C50.7495 58.0287 52.1817 58.1673 53.5678 58.6294C56.8942 59.692 58.8347 62.0945 59.6201 65.3747C59.8973 66.4836 59.9897 67.6386 60.0359 68.7936C60.0821 70.2259 59.7587 70.5493 58.2803 70.5955ZM69.5534 78.4497C69.461 79.0965 69.1838 79.3737 68.5369 79.4199C67.4281 79.4661 66.3193 79.4661 65.2105 79.4199C64.5637 79.4199 64.2864 79.0965 64.2402 78.4497C64.2402 78.2187 64.2402 77.9877 64.2402 77.8029C64.2402 71.9353 64.2402 66.0678 64.2402 60.2002C64.2402 59.9692 64.2402 59.7382 64.2402 59.5534C64.2864 58.8604 64.6098 58.537 65.3029 58.537C66.3655 58.4908 67.4281 58.4908 68.5369 58.537C69.1838 58.537 69.5072 58.9066 69.5996 59.5534C69.6458 59.8306 69.5996 60.154 69.5996 60.4312V77.6181C69.5534 77.8491 69.5996 78.1725 69.5534 78.4497ZM69.7844 53.9168C69.7382 54.7023 69.3686 54.9795 68.5369 55.0257C68.3059 55.0257 68.0749 55.0257 67.8901 55.0257C67.5667 55.0257 67.2433 55.0257 66.8737 55.0257C66.5041 55.0257 66.1807 55.0257 65.8111 55.0257C65.6263 55.0257 65.4415 55.0257 65.2105 55.0257C64.3788 54.9795 64.0554 54.7023 64.0092 53.9168C63.963 53.0852 63.963 52.2074 64.0092 51.3758C64.0554 50.5903 64.3788 50.1745 65.1643 50.1745C66.3193 50.1283 67.4743 50.1283 68.5832 50.1745C69.3224 50.2207 69.692 50.6365 69.7382 51.3758C69.8306 52.2074 69.8306 53.039 69.7844 53.9168ZM80.2259 78.3573C80.1797 79.0965 79.8563 79.4199 79.117 79.4661C78.1006 79.5123 77.038 79.5123 76.0216 79.4661C75.2361 79.4199 74.9589 79.1427 74.8665 78.2649C74.8665 78.0339 74.8665 77.8029 74.8665 77.6181V52.7156C74.8665 52.4384 74.8665 52.2074 74.8665 51.9302C74.9127 51.191 75.2361 50.8214 75.9754 50.8214C76.9918 50.7752 78.0544 50.7752 79.0708 50.8214C79.8563 50.8676 80.1797 51.2372 80.2259 52.1612C80.2259 53.5472 80.2259 54.9795 80.2259 56.3655V77.6181C80.2259 77.8491 80.2721 78.0801 80.2259 78.3573Z" fill="white"/>
<path d="M54.4918 67.038H45.6211C45.5749 65.1437 45.9908 63.5267 47.6078 62.4641C49.0862 61.4938 50.7033 61.4938 52.2279 62.3717C53.9836 63.3419 54.307 65.1437 54.4918 67.038Z" fill="white"/>
</svg>
